<svg width="24px" height="24px" viewBox="0 0 24 24" fill="none" xmlns="http://www.w3.org/2000/svg">
<g
   id="g838"
   style="fill:#000000;fill-opacity:1"
   transform="matrix(0.03523608,0,0,0.03256996,1.2176534,2.0145718)">
	<g
   id="g836"
   style="fill:#000000;fill-opacity:1">
		<path
   d="M 306.01,342.452 C 181.026,342.452 74.997,302.04 22.203,241.635 v 12.169 c 1.203,83.63 128.511,151.872 283.807,151.872 153.344,0 283.298,-69.975 283.793,-152.807 V 241.628 C 537.016,302.033 430.987,342.452 306.01,342.452 Z"
   id="path824"
   style="fill:#000000;fill-opacity:1" />
		<path
   d="m 306.01,441.537 c -124.688,0 -230.923,-40.55 -283.807,-101.031 v 16.164 c 1.203,83.623 128.511,151.866 283.807,151.866 153.344,0 283.298,-69.975 283.793,-152.801 V 340.582 C 536.982,401.063 430.87,441.537 306.01,441.537 Z"
   id="path826"
   style="fill:#000000;fill-opacity:1" />
		<path
   d="m 306.01,544.403 c -124.688,0 -230.923,-40.55 -283.807,-101.031 v 16.755 c 1.203,83.636 128.511,151.879 283.807,151.879 153.344,0 283.298,-69.975 283.793,-152.807 V 443.448 C 536.982,503.929 430.87,544.403 306.01,544.403 Z"
   id="path828"
   style="fill:#000000;fill-opacity:1" />
		<path
   d="m 365.68,192.917 c 0,-5.335 -2.956,-9.364 -8.855,-12.1 -5.906,-2.736 -14.953,-4.792 -27.15,-6.188 v 35.813 c 24.001,-2.035 36.005,-7.879 36.005,-17.525 z"
   id="path830"
   style="fill:#000000;fill-opacity:1" />
		<path
   d="m 255.34,126.049 c 6.188,2.798 15.579,4.957 28.161,6.476 V 95.95 c -14.128,1.018 -23.898,3.08 -29.329,6.188 -5.418,3.114 -8.126,7.02 -8.126,11.715 -0.001,5.342 3.093,9.405 9.294,12.196 z"
   id="path832"
   style="fill:#000000;fill-opacity:1" />
		<path
   d="m 306.01,306.584 c 153.839,0 283.793,-70.195 283.793,-153.296 C 589.804,70.195 459.849,0 306.01,0 152.171,0 22.203,70.195 22.203,153.289 c 0,83.1 129.969,153.295 283.807,153.295 z M 189.414,93.379 c 4.654,-6.538 11.323,-12.19 20.041,-16.954 8.711,-4.758 19.312,-8.601 31.798,-11.53 12.485,-2.915 26.573,-4.95 42.241,-6.098 V 39.182 h 46.174 V 58.24 c 14.128,0.502 28.504,1.554 43.121,3.135 14.61,1.602 28.023,3.788 40.213,6.573 v 37.717 c -29.811,-6.353 -57.586,-9.9 -83.334,-10.67 v 42.289 c 12.197,1.272 24.249,2.956 36.156,5.046 11.908,2.097 22.551,5.136 31.942,9.144 9.385,4.001 17.03,9.24 22.942,15.717 5.899,6.47 8.855,14.788 8.855,24.95 0,16.26 -8.67,29.027 -25.981,38.288 -17.332,9.275 -41.966,15.05 -73.908,17.332 v 19.622 H 283.5 v -18.666 c -18.969,-0.385 -36.823,-1.492 -53.571,-3.334 -16.741,-1.843 -30.629,-4.414 -41.67,-7.714 v -37.325 c 7.556,1.781 14.905,3.334 22.069,4.675 7.164,1.327 14.513,2.468 22.069,3.424 7.549,0.956 15.49,1.712 23.816,2.289 8.312,0.571 17.415,0.921 27.288,1.045 v -41.719 c -12.183,-1.141 -24.283,-2.702 -36.287,-4.668 -12.011,-1.966 -22.798,-4.916 -32.382,-8.855 -9.584,-3.933 -17.374,-9.151 -23.369,-15.62 -6.009,-6.47 -9,-14.857 -9,-25.142 -0.006,-8.397 2.311,-15.849 6.951,-22.394 z"
   id="path834"
   style="fill:#000000;fill-opacity:1" />
	</g>
</g>

</svg>
