<?xml version="1.0" encoding="iso-8859-1"?>
<!-- Generator: Adobe Illustrator 19.0.0, SVG Export Plug-In . SVG Version: 6.00 Build 0)  -->
<svg version="1.1" id="Layer_1" xmlns="http://www.w3.org/2000/svg" xmlns:xlink="http://www.w3.org/1999/xlink" x="0px" y="0px"
	 viewBox="0 0 512 512" style="enable-background:new 0 0 512 512;" xml:space="preserve">
		<path d="M460.8,0C442.593,0,67.825,0,51.2,0C22.968,0,0,22.968,0,51.2c0,18.207,0,392.975,0,409.6C0,489.032,22.968,512,51.2,512
			c18.207,0,392.975,0,409.6,0c28.232,0,51.2-22.968,51.2-51.2c0-18.207,0-392.975,0-409.6C512,22.968,489.032,0,460.8,0z
			 M159.289,477.867H51.2c-9.411,0-17.067-7.656-17.067-17.067V352.711h125.156V477.867z M159.289,318.578H34.133V193.422h125.156
			V318.578z M159.289,159.289H34.133V51.2c0-9.411,7.656-17.067,17.067-17.067h108.089V159.289z M318.578,477.867H193.422V352.711
			h125.156V477.867z M318.578,318.578H193.422V193.422h125.156V318.578z M318.578,159.289H193.422V34.133h125.156V159.289z
			 M477.867,460.8c0,9.411-7.656,17.067-17.067,17.067H352.711V352.711h125.156V460.8z M477.867,318.578H352.711V193.422h125.156
			V318.578z M477.867,159.289H352.711V34.133H460.8c9.411,0,17.067,7.656,17.067,17.067V159.289z"/>
</svg>
