<?xml version="1.0" encoding="UTF-8" standalone="no"?>
<svg
   xmlns:dc="http://purl.org/dc/elements/1.1/"
   xmlns:cc="http://creativecommons.org/ns#"
   xmlns:rdf="http://www.w3.org/1999/02/22-rdf-syntax-ns#"
   xmlns:svg="http://www.w3.org/2000/svg"
   xmlns="http://www.w3.org/2000/svg"
   xmlns:sodipodi="http://sodipodi.sourceforge.net/DTD/sodipodi-0.dtd"
   xmlns:inkscape="http://www.inkscape.org/namespaces/inkscape"
   width="24mm"
   height="24mm"
   viewBox="0 0 24 24"
   version="1.1"
   id="svg8"
   inkscape:version="1.0.2-2 (e86c870879, 2021-01-15)"
   sodipodi:docname="ACC_ICON_RUBIK.svg">
  <defs
     id="defs2" />

  <g
     inkscape:label="layer1"
     inkscape:groupmode="layer"
     id="layer1">
    <g
       id="g922"
       transform="matrix(0.04479806,0,0,0.04404261,0.86681696,0.52202786)">
      <g
         id="g828"
         transform="matrix(0.80747922,0,0,0.82132964,39.711911,48.221606)"
         style="opacity:0.14791;fill:#000000;fill-opacity:1">
        <g
           id="g826"
           style="fill:#000000;fill-opacity:1">
          <rect
             y="182.04401"
             width="147.911"
             height="147.911"
             id="rect824"
             x="0"
             style="fill:#000000;fill-opacity:1" />
        </g>
      </g>
      <g
         id="g834"
         transform="matrix(0.80747922,0,0,0.82132964,39.711911,48.221606)"
         style="opacity:0.14791;fill:#000000;fill-opacity:1">
        <g
           id="g832"
           style="fill:#000000;fill-opacity:1">
          <rect
             x="182.04401"
             width="147.911"
             height="147.911"
             id="rect830"
             y="0"
             style="fill:#000000;fill-opacity:1" />
        </g>
      </g>
      <g
         id="g840"
         transform="matrix(0.80747922,0,0,0.82132964,39.711911,48.221606)"
         style="fill:#000000;fill-opacity:1">
        <g
           id="g838"
           style="fill:#000000;fill-opacity:1">
          <rect
             x="182.04401"
             y="182.04401"
             width="147.911"
             height="147.911"
             id="rect836"
             style="fill:#000000;fill-opacity:1" />
        </g>
      </g>
      <g
         id="g846"
         transform="matrix(0.80747922,0,0,0.82132964,39.711911,48.221606)"
         style="opacity:0.14791;fill:#000000;fill-opacity:1">
        <g
           id="g844"
           style="fill:#000000;fill-opacity:1">
          <rect
             x="182.04401"
             y="364.08899"
             width="147.911"
             height="147.911"
             id="rect842"
             style="fill:#000000;fill-opacity:1" />
        </g>
      </g>
      <g
         id="g852"
         transform="matrix(0.80747922,0,0,0.82132964,39.711911,48.221606)"
         style="fill:#000000;fill-opacity:1">
        <g
           id="g850"
           style="fill:#000000;fill-opacity:1">
          <path
             d="M 460.8,0 H 364.089 V 147.911 H 512 V 51.2 C 512,22.967 489.033,0 460.8,0 Z"
             id="path848"
             style="fill:#000000;fill-opacity:1" />
        </g>
      </g>
      <g
         id="g858"
         transform="matrix(0.80747922,0,0,0.82132964,39.711911,48.221606)"
         style="opacity:0.14791;fill:#000000;fill-opacity:1">
        <g
           id="g856"
           style="fill:#000000;fill-opacity:1">
          <rect
             x="364.08899"
             y="182.04401"
             width="147.911"
             height="147.911"
             id="rect854"
             style="fill:#000000;fill-opacity:1" />
        </g>
      </g>
      <g
         id="g864"
         transform="matrix(0.80747922,0,0,0.82132964,39.711911,48.221606)"
         style="fill:#000000;fill-opacity:1">
        <g
           id="g862"
           style="fill:#000000;fill-opacity:1">
          <path
             d="M 0,364.089 V 460.8 C 0,489.033 22.967,512 51.2,512 h 96.711 V 364.089 Z"
             id="path860"
             style="fill:#000000;fill-opacity:1" />
        </g>
      </g>
      <g
         id="g870"
         transform="matrix(0.80747922,0,0,0.82132964,39.711911,48.221606)"
         style="fill:#000000;fill-opacity:1">
        <g
           id="g868"
           style="fill:#000000;fill-opacity:1">
          <path
             d="M 364.089,364.089 V 512 H 460.8 c 28.233,0 51.2,-22.967 51.2,-51.2 v -96.711 z"
             id="path866"
             style="fill:#000000;fill-opacity:1" />
        </g>
      </g>
      <g
         id="g876"
         transform="matrix(0.80747922,0,0,0.82132964,39.711911,48.221606)"
         style="fill:#000000;fill-opacity:1">
        <g
           id="g874"
           style="fill:#000000;fill-opacity:1">
          <path
             d="M 51.2,0 C 22.967,0 0,22.967 0,51.2 v 96.711 H 147.911 V 0 Z"
             id="path872"
             style="fill:#000000;fill-opacity:1" />
        </g>
      </g>
    </g>
  </g>
</svg>
