<?xml version="1.0" encoding="UTF-8" standalone="no"?>
<svg width="24px" height="24px" viewBox="0 0 24 24" fill="none" xmlns="http://www.w3.org/2000/svg">
<path
   d="m 21.107183,19.774083 h -3.638147 v -4.443327 h 3.638147 c 3.64e-4,0 8.49e-4,-7.4e-5 0.0011,0 0.502368,0 0.909538,-0.497356 0.909538,-1.110832 0,-0.199284 -0.043,-0.386421 -0.118241,-0.548086 L 17.37298,2.6148433 c -0.154014,-0.376349 -0.468956,-0.6140671 -0.813489,-0.6140671 -0.344533,0 -0.659475,0.2377181 -0.81349,0.6140671 L 11.198323,13.72316 c -0.140979,0.344284 -0.125942,0.753291 0.03978,1.080766 0.165717,0.327474 0.458527,0.52683 0.773712,0.52683 h 3.638149 v 4.443327 H 6.8577676 V 15.91609 C 8.2558474,15.431249 9.2832001,13.859052 9.2832001,11.998262 V 9.0360426 c 0,-2.2458788 -1.4960674,-4.0730491 -3.3349696,-4.0730491 -1.8389025,0 -3.3349698,1.8271703 -3.3349698,4.0730491 v 2.9622194 c 0,1.86079 1.0273524,3.432912 2.4254324,3.917828 v 3.857993 H 2.9164395 c -0.502307,0 -0.9095371,0.497355 -0.9095371,1.110832 0,0.613472 0.4072301,1.11083 0.9095371,1.11083 H 21.107183 c 0.502307,0 0.909539,-0.497358 0.909539,-1.11083 0,-0.613477 -0.407232,-1.110832 -0.909539,-1.110832 z M 16.559498,5.5955016 19.635492,13.109093 H 13.483444 Z M 4.4323351,11.998262 V 9.0360426 c 0,-1.0208538 0.6800305,-1.8513854 1.5158954,-1.8513854 0.8358645,0 1.5158951,0.8305316 1.5158951,1.8513854 v 2.9622194 c 0,1.020852 -0.6800306,1.851384 -1.5158951,1.851384 -0.8358649,0 -1.5158954,-0.830532 -1.5158954,-1.851384 z"
   style="fill:#000000;fill-opacity:1;stroke-width:0.0670106" />
</svg>
