<svg width="24px" height="24px" viewBox="0 0 24 24" fill="none" xmlns="http://www.w3.org/2000/svg">
<path d="M12.75 6C12.75 5.58579 12.4142 5.25 12 5.25C11.5858 5.25 11.25 5.58579 11.25 6H12.75ZM11.25 8C11.25 8.41421 11.5858 8.75 12 8.75C12.4142 8.75 12.75 8.41421 12.75 8H11.25ZM12.75 16C12.75 15.5858 12.4142 15.25 12 15.25C11.5858 15.25 11.25 15.5858 11.25 16H12.75ZM11.25 18C11.25 18.4142 11.5858 18.75 12 18.75C12.4142 18.75 12.75 18.4142 12.75 18H11.25ZM15 8.75C15.4142 8.75 15.75 8.41421 15.75 8C15.75 7.58579 15.4142 7.25 15 7.25V8.75ZM11 8L11 7.25L11 7.25L11 8ZM13 16L13 15.25H13V16ZM9 15.25C8.58579 15.25 8.25 15.5858 8.25 16C8.25 16.4142 8.58579 16.75 9 16.75V15.25ZM13 12L13 11.25H13V12ZM11 12L11 11.25L11 11.25L11 12ZM10.2346 8.15224L9.94762 7.45933L9.94762 7.45933L10.2346 8.15224ZM9.15224 9.23463L8.45933 8.94762L8.45933 8.94762L9.15224 9.23463ZM9.15224 10.7654L8.45933 11.0524L8.45933 11.0524L9.15224 10.7654ZM9.58579 11.4142L10.1161 10.8839L10.1161 10.8839L9.58579 11.4142ZM10.2346 11.8478L9.94762 12.5407L9.94762 12.5407L10.2346 11.8478ZM13.7654 15.8478L14.0524 16.5407L14.0524 16.5407L13.7654 15.8478ZM14.8478 14.7654L15.5407 15.0524L15.5407 15.0524L14.8478 14.7654ZM14.8478 13.2346L15.5407 12.9476L15.5407 12.9476L14.8478 13.2346ZM14.4142 12.5858L13.8839 13.1161L13.8839 13.1161L14.4142 12.5858ZM13.7654 12.1522L14.0524 11.4593L14.0524 11.4593L13.7654 12.1522ZM20.25 12C20.25 16.5563 16.5563 20.25 12 20.25V21.75C17.3848 21.75 21.75 17.3848 21.75 12H20.25ZM12 20.25C7.44365 20.25 3.75 16.5563 3.75 12H2.25C2.25 17.3848 6.61522 21.75 12 21.75V20.25ZM3.75 12C3.75 7.44365 7.44365 3.75 12 3.75V2.25C6.61522 2.25 2.25 6.61522 2.25 12H3.75ZM12 3.75C16.5563 3.75 20.25 7.44365 20.25 12H21.75C21.75 6.61522 17.3848 2.25 12 2.25V3.75ZM11.25 6V8H12.75V6H11.25ZM11.25 16V18H12.75V16H11.25ZM15 7.25H11V8.75H15V7.25ZM13 15.25H9V16.75H13V15.25ZM13 11.25H11V12.75H13V11.25ZM11 7.25C10.6389 7.25 10.2813 7.32113 9.94762 7.45933L10.5216 8.84515C10.6733 8.78233 10.8358 8.75 11 8.75L11 7.25ZM9.94762 7.45933C9.61397 7.59753 9.31082 7.8001 9.05546 8.05546L10.1161 9.11612C10.2322 9.00004 10.37 8.90797 10.5216 8.84515L9.94762 7.45933ZM9.05546 8.05546C8.8001 8.31082 8.59753 8.61397 8.45933 8.94762L9.84515 9.52165C9.90797 9.36999 10 9.23219 10.1161 9.11612L9.05546 8.05546ZM8.45933 8.94762C8.32113 9.28127 8.25 9.63887 8.25 10L9.75 10C9.75 9.83585 9.78233 9.6733 9.84515 9.52165L8.45933 8.94762ZM8.25 10C8.25 10.3611 8.32113 10.7187 8.45933 11.0524L9.84515 10.4784C9.78233 10.3267 9.75 10.1642 9.75 10L8.25 10ZM8.45933 11.0524C8.59753 11.386 8.8001 11.6892 9.05546 11.9445L10.1161 10.8839C10 10.7678 9.90797 10.63 9.84515 10.4784L8.45933 11.0524ZM9.05546 11.9445C9.31082 12.1999 9.61397 12.4025 9.94762 12.5407L10.5216 11.1548C10.37 11.092 10.2322 11 10.1161 10.8839L9.05546 11.9445ZM9.94762 12.5407C10.2813 12.6789 10.6389 12.75 11 12.75L11 11.25C10.8358 11.25 10.6733 11.2177 10.5216 11.1548L9.94762 12.5407ZM13 16.75C13.3611 16.75 13.7187 16.6789 14.0524 16.5407L13.4784 15.1548C13.3267 15.2177 13.1642 15.25 13 15.25L13 16.75ZM14.0524 16.5407C14.386 16.4025 14.6892 16.1999 14.9445 15.9445L13.8839 14.8839C13.7678 15 13.63 15.092 13.4784 15.1548L14.0524 16.5407ZM14.9445 15.9445C15.1999 15.6892 15.4025 15.386 15.5407 15.0524L14.1548 14.4784C14.092 14.63 14 14.7678 13.8839 14.8839L14.9445 15.9445ZM15.5407 15.0524C15.6789 14.7187 15.75 14.3611 15.75 14L14.25 14C14.25 14.1642 14.2177 14.3267 14.1548 14.4784L15.5407 15.0524ZM15.75 14C15.75 13.6389 15.6789 13.2813 15.5407 12.9476L14.1548 13.5216C14.2177 13.6733 14.25 13.8358 14.25 14L15.75 14ZM15.5407 12.9476C15.4025 12.614 15.1999 12.3108 14.9445 12.0555L13.8839 13.1161C14 13.2322 14.092 13.37 14.1548 13.5216L15.5407 12.9476ZM14.9445 12.0555C14.6892 11.8001 14.386 11.5975 14.0524 11.4593L13.4784 12.8452C13.63 12.908 13.7678 13 13.8839 13.1161L14.9445 12.0555ZM14.0524 11.4593C13.7187 11.3211 13.3611 11.25 13 11.25L13 12.75C13.1642 12.75 13.3267 12.7823 13.4784 12.8452L14.0524 11.4593Z" fill="#000000"/>
</svg>
