<svg width="24px" height="24px" viewBox="0 0 24 24" fill="none" xmlns="http://www.w3.org/2000/svg">
<g
   style="fill:#000000;fill-opacity:1"
   transform="matrix(0.03889556,0,0,0.0374717,1.9961779,2.4825692)">
<g
   style="fill:#000000;fill-opacity:1">
<g
   style="fill:#000000;fill-opacity:1">
			<path
   d="M 454.689,44.745 H 57.311 C 25.71,44.745 0,70.455 0,102.057 v 307.886 c 0,31.601 25.71,57.311 57.311,57.311 h 397.377 c 31.602,0 57.311,-25.71 57.311,-57.311 0,-11.153 0,-292.524 0,-307.886 C 512,70.455 486.29,44.745 454.689,44.745 Z m 8.187,235.814 h -107.23 c -13.542,0 -24.559,-11.018 -24.559,-24.56 0,-13.542 11.018,-24.559 24.559,-24.559 h 107.23 z m 0,-98.242 h -107.23 c -40.627,0 -73.683,33.054 -73.683,73.683 0,40.631 33.056,73.684 73.683,73.684 h 107.23 v 80.26 c 0,4.513 -3.673,8.186 -8.187,8.186 H 125.003 v -16.375 c 0,-13.565 -10.997,-24.562 -24.562,-24.562 -13.565,0 -24.562,10.997 -24.562,24.562 V 418.13 H 57.311 c -4.514,0 -8.187,-3.673 -8.187,-8.187 V 102.057 c 0,-4.514 3.673,-8.187 8.187,-8.187 h 18.567 v 16.375 c 0,13.565 10.997,24.562 24.562,24.562 13.565,0 24.562,-10.997 24.562,-24.562 V 93.869 h 329.686 c 4.514,0 8.187,3.673 8.187,8.187 v 80.261 z"
   style="fill:#000000;fill-opacity:1" />
			<circle
   cx="363.452"
   cy="256.00201"
   r="13.421"
   style="fill:#000000;fill-opacity:1" />
			<path
   d="m 100.441,182.853 c -13.565,0 -24.562,10.997 -24.562,24.562 v 97.171 c 0,13.565 10.997,24.562 24.562,24.562 13.565,0 24.562,-10.997 24.562,-24.562 v -97.171 c 0,-13.565 -10.998,-24.562 -24.562,-24.562 z"
   style="fill:#000000;fill-opacity:1" />
</g>
</g>
</g>
</svg>
