<svg width="24px" height="24px" viewBox="0 0 24 24" fill="none" xmlns="http://www.w3.org/2000/svg">
    <path
       d="m 12.007881,2.012289 c -5.5116071,0 -9.9956003,4.4839933 -9.9956003,9.9956 0,5.511611 4.4839118,9.995605 9.9955183,9.995605 5.511611,0 9.995605,-4.483994 9.995605,-9.995605 0,-5.5116067 -4.483994,-9.9956 -9.995523,-9.9956 z m 0,17.546634 c -4.1636712,0 -7.5510305,-3.387359 -7.5510305,-7.551034 0,-4.1636709 3.3873593,-7.5510301 7.5510305,-7.5510301 4.163674,0 7.551035,3.3873592 7.551035,7.5510301 0,4.163675 -3.387442,7.551034 -7.551035,7.551034 z"
       id="path824"
       style="fill:#006633;fill-opacity:1;stroke:none;stroke-width:0.0814857;stroke-opacity:1" />
    <rect
       width="2.4445696"
       x="10.785598"
       y="10.907835"
       height="6.437367"
       id="rect826"
       style="fill:#006633;fill-opacity:1;stroke-width:0.0814857" />
    <rect
       width="2.4445696"
       x="10.785598"
       y="6.6705799"
       height="2.3630841"
       id="rect828"
       style="fill:#006633;fill-opacity:1;stroke-width:0.0814857" />
</svg>
