<svg width="24px" height="24px" viewBox="0 0 24 24" fill="none" xmlns="http://www.w3.org/2000/svg">
<g
   id="g830"
   style="fill:#006633;fill-opacity:1"
   transform="matrix(1.25,0,0,1.25,2,2)">
	<g
   id="g828"
   style="fill:#006633;fill-opacity:1">
		<path
   d="M 8,0 C 3.589,0 0,3.589 0,8 c 0,4.411 3.589,8 8,8 4.411,0 8,-3.589 8,-8 C 16,3.589 12.411,0 8,0 Z M 8,14 C 4.691,14 2,11.309 2,8 2,4.691 4.691,2 8,2 c 3.309,0 6,2.691 6,6 0,3.309 -2.691,6 -6,6 z"
   id="path824"
   style="fill:#006633;fill-opacity:1" />
		<path
   d="M 7,7 H 4 V 9 H 8 C 8.552,9 9,8.552 9,8 V 3 H 7 Z"
   id="path826"
   style="fill:#006633;fill-opacity:1" />
	</g>
</g>
</svg>
