<?xml version="1.0" encoding="UTF-8" standalone="no"?>
<svg
   version="1.1"
   id="Capa_1"
   x="0px"
   y="0px"
   width="47.001px"
   height="47.001px"
   viewBox="0 0 47.001 47.001"
   style="enable-background:new 0 0 47.001 47.001;"
   xml:space="preserve"
   sodipodi:docname="ACC_ICON_HOURGLASS.svg"
   inkscape:version="1.1-dev (9017afb, 2021-01-01)"
   xmlns:inkscape="http://www.inkscape.org/namespaces/inkscape"
   xmlns:sodipodi="http://sodipodi.sourceforge.net/DTD/sodipodi-0.dtd"
   xmlns="http://www.w3.org/2000/svg"
   xmlns:svg="http://www.w3.org/2000/svg"><defs
   id="defs868" /><sodipodi:namedview
   id="namedview866"
   pagecolor="#ffffff"
   bordercolor="#666666"
   borderopacity="1.0"
   objecttolerance="10.0"
   gridtolerance="10.0"
   guidetolerance="10.0"
   inkscape:pageshadow="2"
   inkscape:pageopacity="0.0"
   inkscape:pagecheckerboard="0"
   showgrid="false"
   inkscape:zoom="15.361375"
   inkscape:cx="23.467951"
   inkscape:cy="23.467951"
   inkscape:window-width="1358"
   inkscape:window-height="1003"
   inkscape:window-x="0"
   inkscape:window-y="25"
   inkscape:window-maximized="0"
   inkscape:current-layer="Capa_1" />
<g
   id="g833"
   transform="matrix(0.7671655,0,0,0.81717841,4.5928994,4.8823753)"
   style="fill:#006633;fill-opacity:1">
	<g
   id="Layer_1_64_"
   style="fill:#006633;fill-opacity:1">
		<g
   id="g830"
   style="fill:#006633;fill-opacity:1">
			<path
   d="m 22.432,22.429 c 0,0.591 0.479,1.067 1.068,1.067 0.589,0 1.068,-0.479 1.068,-1.067 10e-4,-1.25 0.445,-2.465 1.251,-3.421 1.793,-2.126 3.137,-4.431 3.988,-6.851 0.115,-0.327 0.065,-0.689 -0.135,-0.972 C 29.471,10.902 29.147,10.734 28.8,10.734 H 18.199 c -0.347,0 -0.672,0.168 -0.873,0.451 -0.2,0.283 -0.25,0.645 -0.135,0.972 0.853,2.42 2.195,4.725 3.988,6.851 0.807,0.956 1.252,2.172 1.253,3.421 z"
   id="path824"
   style="fill:#006633;fill-opacity:1" />
			<path
   d="m 24.568,26.71 c 0,-0.59 -0.479,-1.067 -1.068,-1.067 -0.589,0 -1.068,0.479 -1.068,1.067 -10e-4,1.542 -0.922,3.067 -2.593,4.304 -3.574,2.639 -6.249,5.506 -7.951,8.52 -0.187,0.332 -0.184,0.736 0.009,1.062 0.19,0.329 0.542,0.53 0.922,0.53 h 21.364 c 0.379,0 0.73,-0.201 0.922,-0.53 0.191,-0.326 0.194,-0.73 0.008,-1.062 -1.701,-3.014 -4.377,-5.881 -7.95,-8.52 -1.673,-1.237 -2.594,-2.762 -2.595,-4.304 z"
   id="path826"
   style="fill:#006633;fill-opacity:1" />
			<path
   d="M 42.192,42.729 H 41.553 C 40.819,34.416 35.951,28.034 32.167,23.501 35.952,18.969 40.818,12.586 41.555,4.273 h 0.639 c 1.18,0 2.136,-0.957 2.136,-2.137 C 44.33,0.956 43.374,0 42.194,0 H 4.807 c -1.18,0 -2.136,0.957 -2.136,2.136 0,1.18 0.956,2.137 2.136,2.137 h 0.639 c 0.735,8.314 5.601,14.697 9.386,19.228 -3.784,4.532 -8.651,10.914 -9.387,19.228 H 4.807 c -1.18,0 -2.136,0.955 -2.136,2.135 0,1.181 0.956,2.138 2.136,2.138 h 2.671 32.044 2.672 c 1.18,0 2.136,-0.957 2.136,-2.138 0,-1.18 -0.957,-2.135 -2.138,-2.135 z m -32.464,0 c 0.803,-7.511 5.686,-13.295 9.335,-17.617 l 0.195,-0.231 c 0.672,-0.795 0.672,-1.959 0,-2.755 l -0.194,-0.23 C 15.416,17.573 10.531,11.789 9.728,4.277 h 27.544 c -0.803,7.512 -5.688,13.296 -9.336,17.619 l -0.193,0.23 c -0.672,0.795 -0.672,1.959 0,2.755 l 0.195,0.231 c 3.648,4.322 8.531,10.106 9.334,17.617 z"
   id="path828"
   style="fill:#006633;fill-opacity:1" />
		</g>
	</g>
</g>
<g
   id="g835">
</g>
<g
   id="g837">
</g>
<g
   id="g839">
</g>
<g
   id="g841">
</g>
<g
   id="g843">
</g>
<g
   id="g845">
</g>
<g
   id="g847">
</g>
<g
   id="g849">
</g>
<g
   id="g851">
</g>
<g
   id="g853">
</g>
<g
   id="g855">
</g>
<g
   id="g857">
</g>
<g
   id="g859">
</g>
<g
   id="g861">
</g>
<g
   id="g863">
</g>
</svg>
