<?xml version="1.0" encoding="UTF-8" standalone="no"?>
<svg
   version="1.1"
   id="Layer_1"
   x="0px"
   y="0px"
   viewBox="0 0 512 512"
   style="enable-background:new 0 0 512 512;"
   xml:space="preserve"
   sodipodi:docname="ACC_ICON_WALLET.svg"
   inkscape:version="1.1-dev (9017afb, 2021-01-01)"
   xmlns:inkscape="http://www.inkscape.org/namespaces/inkscape"
   xmlns:sodipodi="http://sodipodi.sourceforge.net/DTD/sodipodi-0.dtd"
   xmlns="http://www.w3.org/2000/svg"
   xmlns:svg="http://www.w3.org/2000/svg"><defs
   id="defs869" /><sodipodi:namedview
   id="namedview867"
   pagecolor="#ffffff"
   bordercolor="#666666"
   borderopacity="1.0"
   objecttolerance="10.0"
   gridtolerance="10.0"
   guidetolerance="10.0"
   inkscape:pageshadow="2"
   inkscape:pageopacity="0.0"
   inkscape:pagecheckerboard="0"
   showgrid="false"
   inkscape:zoom="1.4101562"
   inkscape:cx="256"
   inkscape:cy="255.64543"
   inkscape:window-width="1425"
   inkscape:window-height="1003"
   inkscape:window-x="0"
   inkscape:window-y="25"
   inkscape:window-maximized="0"
   inkscape:current-layer="Layer_1" />
<g
   id="g834"
   style="fill:#006633;fill-opacity:1">
	<g
   id="g832"
   style="fill:#006633;fill-opacity:1">
		<g
   id="g830"
   style="fill:#006633;fill-opacity:1">
			<path
   d="M 454.689,44.745 H 57.311 C 25.71,44.745 0,70.455 0,102.057 v 307.886 c 0,31.601 25.71,57.311 57.311,57.311 h 397.377 c 31.602,0 57.311,-25.71 57.311,-57.311 0,-11.153 0,-292.524 0,-307.886 C 512,70.455 486.29,44.745 454.689,44.745 Z m 8.187,235.814 h -107.23 c -13.542,0 -24.559,-11.018 -24.559,-24.56 0,-13.542 11.018,-24.559 24.559,-24.559 h 107.23 z m 0,-98.242 h -107.23 c -40.627,0 -73.683,33.054 -73.683,73.683 0,40.631 33.056,73.684 73.683,73.684 h 107.23 v 80.26 c 0,4.513 -3.673,8.186 -8.187,8.186 H 125.003 v -16.375 c 0,-13.565 -10.997,-24.562 -24.562,-24.562 -13.565,0 -24.562,10.997 -24.562,24.562 V 418.13 H 57.311 c -4.514,0 -8.187,-3.673 -8.187,-8.187 V 102.057 c 0,-4.514 3.673,-8.187 8.187,-8.187 h 18.567 v 16.375 c 0,13.565 10.997,24.562 24.562,24.562 13.565,0 24.562,-10.997 24.562,-24.562 V 93.869 h 329.686 c 4.514,0 8.187,3.673 8.187,8.187 v 80.261 z"
   id="path824"
   style="fill:#006633;fill-opacity:1" />
			<circle
   cx="363.452"
   cy="256.00201"
   r="13.421"
   id="circle826"
   style="fill:#006633;fill-opacity:1" />
			<path
   d="m 100.441,182.853 c -13.565,0 -24.562,10.997 -24.562,24.562 v 97.171 c 0,13.565 10.997,24.562 24.562,24.562 13.565,0 24.562,-10.997 24.562,-24.562 v -97.171 c 0,-13.565 -10.998,-24.562 -24.562,-24.562 z"
   id="path828"
   style="fill:#006633;fill-opacity:1" />
		</g>
	</g>
</g>
<g
   id="g836">
</g>
<g
   id="g838">
</g>
<g
   id="g840">
</g>
<g
   id="g842">
</g>
<g
   id="g844">
</g>
<g
   id="g846">
</g>
<g
   id="g848">
</g>
<g
   id="g850">
</g>
<g
   id="g852">
</g>
<g
   id="g854">
</g>
<g
   id="g856">
</g>
<g
   id="g858">
</g>
<g
   id="g860">
</g>
<g
   id="g862">
</g>
<g
   id="g864">
</g>
</svg>
