<?xml version="1.0" encoding="UTF-8" standalone="no"?>
<svg
   width="24px"
   height="24px"
   viewBox="0 0 24 24"
   fill="none"
   version="1.1"
   id="svg828"
   sodipodi:docname="ACC_ICON_FLAG.svg"
   inkscape:version="1.1-dev (9017afb, 2021-01-01)"
   xmlns:inkscape="http://www.inkscape.org/namespaces/inkscape"
   xmlns:sodipodi="http://sodipodi.sourceforge.net/DTD/sodipodi-0.dtd"
   xmlns="http://www.w3.org/2000/svg"
   xmlns:svg="http://www.w3.org/2000/svg">
  <defs
     id="defs832" />
  <sodipodi:namedview
     id="namedview830"
     pagecolor="#ffffff"
     bordercolor="#666666"
     borderopacity="1.0"
     objecttolerance="10.0"
     gridtolerance="10.0"
     guidetolerance="10.0"
     inkscape:pageshadow="2"
     inkscape:pageopacity="0.0"
     inkscape:pagecheckerboard="0"
     showgrid="false"
     inkscape:zoom="30.083333"
     inkscape:cx="12"
     inkscape:cy="12.01662"
     inkscape:window-width="1337"
     inkscape:window-height="1003"
     inkscape:window-x="0"
     inkscape:window-y="25"
     inkscape:window-maximized="0"
     inkscape:current-layer="svg828" />
  <path
     opacity="0.15"
     d="M4 4H20L15 9L20 14H4V4Z"
     fill="#001A72"
     id="path824"
     style="fill:#006633;fill-opacity:1" />
  <path
     d="M4 4V3.25H3.25V4H4ZM3.25 21C3.25 21.4142 3.58579 21.75 4 21.75C4.41421 21.75 4.75 21.4142 4.75 21H3.25ZM20 4L20.5303 4.53033C20.7448 4.31583 20.809 3.99324 20.6929 3.71299C20.5768 3.43273 20.3033 3.25 20 3.25V4ZM20 14V14.75C20.3033 14.75 20.5768 14.5673 20.6929 14.287C20.809 14.0068 20.7448 13.6842 20.5303 13.4697L20 14ZM4 14H3.25C3.25 14.4142 3.58579 14.75 4 14.75V14ZM15 9L14.4697 8.46967C14.1768 8.76256 14.1768 9.23744 14.4697 9.53033L15 9ZM3.25 4V21H4.75V4H3.25ZM4 4.75H20V3.25H4V4.75ZM20 13.25H4V14.75H20V13.25ZM4.75 14V4H3.25V14H4.75ZM19.4697 3.46967L14.4697 8.46967L15.5303 9.53033L20.5303 4.53033L19.4697 3.46967ZM14.4697 9.53033L19.4697 14.5303L20.5303 13.4697L15.5303 8.46967L14.4697 9.53033Z"
     fill="#001A72"
     id="path826"
     style="fill:#006633;fill-opacity:1" />
</svg>
