<svg width="24px" height="24px" viewBox="0 0 24 24" fill="none" xmlns="http://www.w3.org/2000/svg">

    <path
       d="m 11.99286,3.1836214 c -4.8574508,0 -8.8092516,3.9518009 -8.8092516,8.8092516 0,4.857453 3.951729,8.809254 8.8091796,8.809254 4.857453,0 8.809254,-3.951801 8.809254,-8.809254 0,-4.8574507 -3.951801,-8.8092516 -8.809182,-8.8092516 z m 0,15.4640736 c -3.6694976,0 -6.6548208,-2.985323 -6.6548208,-6.654822 0,-3.6694976 2.9853232,-6.6548207 6.6548208,-6.6548207 3.669499,0 6.654823,2.9853231 6.654823,6.6548207 0,3.669499 -2.985396,6.654822 -6.654823,6.654822 z"
       id="path824"
       style="fill:#006633;fill-opacity:1;stroke:none;stroke-width:0.0718144;stroke-opacity:1" />
    <rect
       width="2.1544306"
       x="10.915646"
       y="11.02338"
       height="5.6733346"
       id="rect826"
       style="fill:#006633;fill-opacity:1;stroke-width:0.0718144" />
    <rect
       width="2.1544306"
       x="10.915646"
       y="7.2890334"
       height="2.0826163"
       id="rect828"
       style="fill:#006633;fill-opacity:1;stroke-width:0.0718144" />

</svg>
