<?xml version="1.0" encoding="UTF-8" standalone="no"?>
<svg
   version="1.1"
   id="Capa_1"
   x="0px"
   y="0px"
   viewBox="0 0 180.872 180.872"
   style="enable-background:new 0 0 180.872 180.872;"
   xml:space="preserve"
   sodipodi:docname="ACC_ICON_DOG.svg"
   inkscape:version="1.1-dev (9017afb, 2021-01-01)"
   xmlns:inkscape="http://www.inkscape.org/namespaces/inkscape"
   xmlns:sodipodi="http://sodipodi.sourceforge.net/DTD/sodipodi-0.dtd"
   xmlns="http://www.w3.org/2000/svg"
   xmlns:svg="http://www.w3.org/2000/svg"><defs
   id="defs865" /><sodipodi:namedview
   id="namedview863"
   pagecolor="#ffffff"
   bordercolor="#666666"
   borderopacity="1.0"
   objecttolerance="10.0"
   gridtolerance="10.0"
   guidetolerance="10.0"
   inkscape:pageshadow="2"
   inkscape:pageopacity="0.0"
   inkscape:pagecheckerboard="0"
   showgrid="false"
   inkscape:zoom="3.9917732"
   inkscape:cx="90.436"
   inkscape:cy="90.561258"
   inkscape:window-width="1367"
   inkscape:window-height="1003"
   inkscape:window-x="0"
   inkscape:window-y="25"
   inkscape:window-maximized="0"
   inkscape:current-layer="Capa_1" />
<g
   id="g830">
	<path
   d="m 90.437,76.286 c -24.328,0 -44.12,19.793 -44.12,44.121 0,14.227 11.58,25.802 25.814,25.802 7.148,0 13.627,-2.921 18.305,-7.632 4.677,4.711 11.154,7.632 18.301,7.632 14.229,0 25.805,-11.575 25.805,-25.802 0.001,-24.328 -19.785,-44.121 -44.105,-44.121 z m 18.301,54.923 c -5.956,0 -10.801,-4.846 -10.801,-10.802 0,-4.142 -3.358,-7.5 -7.5,-7.5 -4.142,0 -7.5,3.358 -7.5,7.5 0,5.956 -4.847,10.802 -10.806,10.802 -5.963,0 -10.814,-4.846 -10.814,-10.802 0,-16.058 13.063,-29.121 29.12,-29.121 16.049,0 29.105,13.064 29.105,29.121 0.001,5.957 -4.847,10.802 -10.804,10.802 z"
   id="path824" />
	<path
   d="m 158.997,0.377 c -3.076,-1.012 -6.455,0.063 -8.379,2.669 l -25.038,33.91 c -10.743,-5.839 -22.756,-8.897 -35.139,-8.897 -12.382,0 -24.396,3.058 -35.139,8.898 L 30.253,3.045 C 28.328,0.439 24.95,-0.637 21.875,0.377 18.799,1.39 16.72,4.263 16.72,7.501 v 99.655 c 0,40.647 33.071,73.716 73.721,73.716 40.645,0 73.711,-33.069 73.711,-73.716 V 7.501 c 0,-3.239 -2.079,-6.111 -5.155,-7.124 z m -9.845,106.779 c 0,32.376 -26.337,58.716 -58.711,58.716 -32.379,0 -58.721,-26.34 -58.721,-58.716 V 30.278 l 15.586,21.101 c 2.392,3.237 6.91,4.01 10.241,1.752 9.719,-6.589 21.094,-10.071 32.893,-10.071 11.801,0 23.176,3.482 32.895,10.071 3.333,2.259 7.851,1.484 10.242,-1.753 l 15.574,-21.092 v 76.87 z"
   id="path826" />
	<path
   d="m 90.433,96.144 c -6.12,0 -11.1,4.975 -11.1,11.09 0,1.104 0.896,2 2,2 h 18.189 c 1.104,0 2,-0.896 2,-2 10e-4,-6.116 -4.974,-11.09 -11.089,-11.09 z"
   id="path828" />
</g>
<g
   id="g832">
</g>
<g
   id="g834">
</g>
<g
   id="g836">
</g>
<g
   id="g838">
</g>
<g
   id="g840">
</g>
<g
   id="g842">
</g>
<g
   id="g844">
</g>
<g
   id="g846">
</g>
<g
   id="g848">
</g>
<g
   id="g850">
</g>
<g
   id="g852">
</g>
<g
   id="g854">
</g>
<g
   id="g856">
</g>
<g
   id="g858">
</g>
<g
   id="g860">
</g>
<path
   style="opacity:0.286174;fill:#006633;stroke-width:0.185579;fill-opacity:1"
   d="m 84.047861,180.4671 c -8.993489,-0.79637 -17.479798,-3.20335 -25.928326,-7.35408 -7.831522,-3.84759 -13.444948,-7.88029 -19.676816,-14.13587 -4.163217,-4.17906 -6.170503,-6.60754 -9.131761,-11.0479 -6.142473,-9.21056 -9.857955,-18.73796 -11.700348,-30.00256 l -0.562834,-3.44123 -0.07453,-54.092617 C 16.888384,-1.1968418 16.662987,4.8334532 19.1419,2.3724393 c 1.494993,-1.484198 3.198111,-2.24718168 5.016119,-2.24718168 1.433959,0 3.348391,0.66709514 4.491485,1.56508478 0.649712,0.510399 5.767264,7.2258526 13.698035,17.9751036 6.963454,9.438161 12.757954,17.194191 12.876663,17.235619 0.118712,0.04143 1.539379,-0.560932 3.157038,-1.338581 7.256838,-3.488535 14.481565,-5.652754 22.682131,-6.794597 3.883344,-0.540715 13.883567,-0.615275 17.764889,-0.132452 8.25707,1.027152 16.18006,3.335141 23.48759,6.841994 1.68883,0.810462 3.15982,1.473568 3.26888,1.473568 0.10905,0 5.9772,-7.828809 13.04033,-17.397353 10.2099,-13.8315268 13.07165,-17.5494324 13.96224,-18.1393339 3.09954,-2.05305047 7.0741,-1.49297603 9.57607,1.3494106 1.97161,2.2398677 1.8187,-2.83793992 1.73539,57.6291223 l -0.0745,54.092617 -0.56283,3.44123 c -1.84732,11.29473 -5.53739,20.75628 -11.70119,30.00256 -2.95611,4.43444 -4.96389,6.86451 -9.13092,11.05143 -6.2445,6.2743 -11.7151,10.20218 -19.67681,14.12789 -8.62258,4.25156 -16.9447,6.57786 -26.429362,7.38786 -3.346385,0.28578 -8.865626,0.27259 -12.275247,-0.0293 z m 15.28143,-15.13026 c 19.765649,-3.09128 36.589039,-15.94589 44.875959,-34.28937 2.25156,-4.98393 4.09584,-11.84381 4.7221,-17.56407 0.19037,-1.73881 0.25209,-14.867546 0.20174,-42.917474 l -0.0725,-40.412326 -7.9566,10.771716 c -4.37612,5.924443 -8.41943,11.167889 -8.98512,11.652105 -1.28131,1.096751 -2.88876,1.659127 -4.74232,1.659127 -1.57304,0 -2.75925,-0.5219 -6.74944,-2.969555 -6.09981,-3.741733 -13.82574,-6.508365 -21.553245,-7.718146 -4.028521,-0.630687 -13.239169,-0.630687 -17.26769,0 -8.21347,1.285862 -15.802874,4.116857 -22.931075,8.553733 -2.915308,1.814602 -3.73904,2.133968 -5.50409,2.133968 -1.724542,0 -3.35632,-0.586165 -4.603413,-1.653628 -0.562161,-0.48119 -4.492738,-5.569738 -8.734612,-11.307887 -4.241875,-5.738147 -7.85156,-10.608541 -8.021524,-10.8231 -0.245269,-0.309622 -0.2942,8.292768 -0.237172,41.696455 l 0.07185,42.086562 0.552259,2.88092 c 2.322233,12.11421 7.477787,22.25986 15.579289,30.65858 4.777603,4.95288 9.503305,8.50672 15.406687,11.58617 6.815327,3.55517 13.139932,5.39708 22.170598,6.45672 2.000339,0.23472 11.272832,-0.0887 13.778338,-0.4805 z"
   id="path904" /><path
   style="opacity:1;fill:#006633;fill-opacity:1;stroke-width:0.185579"
   d="m 83.546831,180.33503 c -0.344458,-0.0511 -1.97907,-0.27412 -3.632471,-0.49552 -11.922967,-1.59657 -25.347435,-7.4253 -35.19739,-15.28225 -2.867771,-2.28752 -10.036133,-9.48489 -12.069895,-12.11874 -7.783011,-10.07948 -12.691779,-21.36866 -14.862016,-34.17961 l -0.596956,-3.52385 -0.03622,-53.234028 C 17.115683,8.2964123 17.164873,4.8017155 17.96607,3.6578514 18.54079,2.837324 20.508683,1.3168745 21.660513,0.80342077 c 2.249859,-1.00292454 5.529592,-0.41563288 7.182307,1.28611363 1.088087,1.1203672 5.573265,7.0401797 17.112567,22.5862166 4.857921,6.54471 8.928666,12.001258 9.046103,12.125664 0.221801,0.234965 0.331597,0.193242 5.792749,-2.20123 5.941302,-2.605 11.719804,-4.321416 18.368573,-5.456107 2.872917,-0.490296 4.186634,-0.557534 11.147928,-0.570566 6.520924,-0.0122 8.369749,0.06472 10.6469,0.443014 7.8479,1.303746 13.47862,3.015853 20.83162,6.334172 1.95034,0.880166 3.64309,1.600299 3.76168,1.600299 0.11858,0 2.25554,-2.733747 4.7488,-6.074994 16.62714,-22.2822427 20.93634,-27.9760767 21.79522,-28.798513 1.2097,-1.15837037 2.71338,-1.70243309 4.69645,-1.69926989 1.97094,0.003144 3.63131,0.77129439 5.22851,2.41891879 1.13181,1.1675373 1.20197,1.3229376 1.4551,3.2230158 0.18114,1.3596797 0.25868,19.0024143 0.24315,55.3217573 l -0.0228,53.325428 -0.6027,3.55771 c -2.18204,12.88065 -7.05622,24.09706 -14.86775,34.21347 -2.11097,2.73384 -9.24388,9.86168 -12.32041,12.31165 -10.5986,8.44013 -24.04857,13.92919 -37.95306,15.48902 -2.08841,0.23428 -12.983673,0.30677 -14.404626,0.0958 z m 16.078604,-14.97127 c 16.251635,-2.56031 30.957535,-12.12282 40.090325,-26.06873 4.43723,-6.77572 7.00914,-13.23529 8.78085,-22.0539 l 0.55363,-2.75567 0.0714,-42.210512 c 0.0701,-41.39757 0.0623,-42.200892 -0.40197,-41.710787 -0.26037,0.274851 -2.92668,3.825318 -5.92512,7.889928 -7.09291,9.614967 -10.21237,13.611785 -11.22903,14.38723 -0.45372,0.346072 -1.52632,0.808904 -2.38357,1.028518 -2.29143,0.58704 -3.58736,0.239623 -7.22166,-1.93602 -8.26045,-4.94505 -17.09341,-7.953084 -25.692027,-8.749337 -3.832896,-0.354932 -11.98503,-0.138592 -15.223142,0.403994 -6.990412,1.171329 -14.029397,3.710301 -20.169969,7.275338 -4.64233,2.6952 -5.730095,3.179016 -7.229897,3.215706 -2.132656,0.05217 -3.62694,-0.526245 -5.059533,-1.958481 -0.696718,-0.696545 -4.502318,-5.606621 -8.45689,-10.911281 -3.954571,-5.30466 -7.465019,-9.983032 -7.800997,-10.396382 l -0.610867,-0.751546 -0.01342,41.98948 -0.01342,41.989482 0.627059,3.10326 c 2.540732,12.57386 7.412644,22.10785 15.655091,30.63589 5.146896,5.32524 10.038203,8.9568 16.159573,11.99773 6.365279,3.16208 11.607015,4.72107 20.291734,6.0351 1.66257,0.25156 12.85298,-0.079 15.201801,-0.44901 z"
   id="path1091" /><path
   style="opacity:1;fill:#006633;fill-opacity:1;stroke-width:0.185579;stroke:none"
   d="m 69.267463,145.91325 c -6.758748,-0.81581 -12.993205,-4.30448 -17.210528,-9.63067 -4.713697,-5.95308 -6.359184,-12.74457 -5.210646,-21.50611 2.721742,-20.762627 20.069951,-37.052056 40.690305,-38.206937 8.958365,-0.501729 16.777456,1.27407 24.352116,5.530628 13.80285,7.756469 22.49655,22.500559 22.51066,38.176969 0.006,7.03655 -3.1296,14.25035 -8.22659,18.92422 -1.70499,1.56346 -5.00328,3.75403 -6.9459,4.61315 -8.07934,3.57306 -17.30765,2.80889 -24.532121,-2.03146 -1.102267,-0.73851 -2.504283,-1.78032 -3.115593,-2.31513 l -1.111471,-0.97237 -1.930991,1.55897 c -4.242183,3.42491 -8.39548,5.1942 -13.751335,5.85802 -2.343806,0.2905 -3.116257,0.2906 -5.517906,7.5e-4 z m 4.769897,-14.77044 c 2.812953,-0.53347 5.537459,-2.25009 7.042094,-4.437 1.163929,-1.69172 1.706695,-3.34476 1.952987,-5.94799 0.265448,-2.80573 0.976365,-4.37654 2.645809,-5.84604 2.749101,-2.41986 6.766399,-2.41986 9.5155,0 1.669444,1.4695 2.380361,3.04031 2.645809,5.84604 0.444542,4.6987 2.472001,7.75557 6.308891,9.51216 6.08663,2.78656 13.0148,-0.29159 14.99796,-6.6635 1.24457,-3.99881 -0.0302,-11.57756 -2.81943,-16.76173 -3.07993,-5.72453 -7.35857,-9.863593 -13.08251,-12.655741 -15.848628,-7.730993 -34.905634,0.205145 -40.485474,16.859851 -1.530548,4.56838 -1.937045,9.63552 -1.012986,12.62728 1.168459,3.78303 4.1166,6.49054 8.022483,7.36769 1.750949,0.39321 2.612102,0.41318 4.268867,0.099 z"
   id="path1352" /><path
   style="opacity:1;fill:#006633;fill-opacity:1;stroke:none;stroke-width:0.185579"
   d="m 80.168409,108.55638 c -0.662848,-0.5214 -0.68572,-0.61474 -0.574666,-2.3452 0.274467,-4.27677 3.439504,-8.10686 7.791569,-9.428759 6.508922,-1.977024 13.359258,2.750892 13.882968,9.581649 0.12035,1.5697 0.0933,1.67472 -0.5643,2.192 -0.68127,0.53589 -0.821606,0.54332 -10.26798,0.54332 -9.444731,0 -9.586821,-0.008 -10.267591,-0.54301 z"
   id="path1428" /></svg>
