<?xml version="1.0" encoding="UTF-8" standalone="no"?>
<svg
   version="1.1"
   id="Capa_1"
   x="0px"
   y="0px"
   width="124.805px"
   height="124.805px"
   viewBox="0 0 124.805 124.805"
   style="enable-background:new 0 0 124.805 124.805;"
   xml:space="preserve"
   sodipodi:docname="ACC_ICON_CAT.svg"
   inkscape:version="1.1-dev (9017afb, 2021-01-01)"
   xmlns:inkscape="http://www.inkscape.org/namespaces/inkscape"
   xmlns:sodipodi="http://sodipodi.sourceforge.net/DTD/sodipodi-0.dtd"
   xmlns="http://www.w3.org/2000/svg"
   xmlns:svg="http://www.w3.org/2000/svg"><defs
   id="defs1239" /><sodipodi:namedview
   id="namedview1237"
   pagecolor="#ffffff"
   bordercolor="#666666"
   borderopacity="1.0"
   objecttolerance="10.0"
   gridtolerance="10.0"
   guidetolerance="10.0"
   inkscape:pageshadow="2"
   inkscape:pageopacity="0.0"
   inkscape:pagecheckerboard="0"
   showgrid="false"
   inkscape:zoom="5.7850246"
   inkscape:cx="62.4025"
   inkscape:cy="62.48893"
   inkscape:window-width="1395"
   inkscape:window-height="1003"
   inkscape:window-x="0"
   inkscape:window-y="25"
   inkscape:window-maximized="0"
   inkscape:current-layer="Capa_1" />
<g
   id="g1204"
   style="fill:#006633;fill-opacity:1">
	<path
   d="m 111.1,5.103 c -1.8,0 -3.5,0.3 -5.199,1 l -19.601,7.9 c -7.5,-2.7 -15.5,-4.1 -23.8,-4.1 -8.2,0 -16.2,1.4 -23.8,4.1 l -19.6,-7.9 c -1.7,-0.7 -3.4,-1 -5.2,-1 -7.7,0 -13.9,6.2 -13.9,13.9 l 0.1,48.4 c 0,0.399 0,0.8 0,1.101 2.2,28.699 29.6,51.199 62.3,51.199 32.8,0 60.2,-22.5 62.3,-51.199 0,-0.4 0,-0.701 0,-1.101 l 0.1,-48.5 c 0.2,-7.601 -6,-13.8 -13.7,-13.8 z m -2.2,62.199 c -1.5,20.4 -21.9,36.4 -46.4,36.4 -24.4,0 -44.8,-16 -46.4,-36.4 l -0.1,-45.3 17.4,7.1 c 3.2,1.3 6.9,1.4 10.1,0.2 6,-2.2 12.3,-3.4 18.9,-3.4 6.6,0 13,1.1 19,3.4 3.199,1.2 6.899,1.2 10.1,-0.2 l 17.4,-7.1 z"
   id="path1198"
   style="fill:#006633;fill-opacity:1" />
	<circle
   cx="42.299999"
   cy="68.502998"
   r="10"
   id="circle1200"
   style="fill:#006633;fill-opacity:1" />
	<circle
   cx="82.699997"
   cy="68.502998"
   r="10"
   id="circle1202"
   style="fill:#006633;fill-opacity:1" />
</g>
<g
   id="g1206">
</g>
<g
   id="g1208">
</g>
<g
   id="g1210">
</g>
<g
   id="g1212">
</g>
<g
   id="g1214">
</g>
<g
   id="g1216">
</g>
<g
   id="g1218">
</g>
<g
   id="g1220">
</g>
<g
   id="g1222">
</g>
<g
   id="g1224">
</g>
<g
   id="g1226">
</g>
<g
   id="g1228">
</g>
<g
   id="g1230">
</g>
<g
   id="g1232">
</g>
<g
   id="g1234">
</g>
</svg>
