<?xml version="1.0" encoding="UTF-8" standalone="no"?>
<svg
   version="1.1"
   id="Layer_1"
   x="0px"
   y="0px"
   viewBox="0 0 330.02 330.02"
   style="enable-background:new 0 0 330.02 330.02;"
   xml:space="preserve"
   sodipodi:docname="ACC_ICON_TREES.svg"
   inkscape:version="1.1-dev (9017afb, 2021-01-01)"
   xmlns:inkscape="http://www.inkscape.org/namespaces/inkscape"
   xmlns:sodipodi="http://sodipodi.sourceforge.net/DTD/sodipodi-0.dtd"
   xmlns="http://www.w3.org/2000/svg"
   xmlns:svg="http://www.w3.org/2000/svg"><defs
   id="defs3287" /><sodipodi:namedview
   id="namedview3285"
   pagecolor="#ffffff"
   bordercolor="#666666"
   borderopacity="1.0"
   objecttolerance="10.0"
   gridtolerance="10.0"
   guidetolerance="10.0"
   inkscape:pageshadow="2"
   inkscape:pageopacity="0.0"
   inkscape:pagecheckerboard="0"
   showgrid="false"
   inkscape:zoom="2.1877463"
   inkscape:cx="164.78145"
   inkscape:cy="165.23854"
   inkscape:window-width="1296"
   inkscape:window-height="1003"
   inkscape:window-x="0"
   inkscape:window-y="25"
   inkscape:window-maximized="0"
   inkscape:current-layer="Layer_1" />
<path
   id="XMLID_240_"
   d="M315,270.01h-60v-60h60c0.006,0,0.014-0.001,0.02,0c8.285,0,15-6.716,15-15c0-2.691-0.709-5.218-1.95-7.401  L253.416,38.302c-2.54-5.082-7.734-8.292-13.416-8.292s-10.876,3.21-13.416,8.292l-75,150c-2.325,4.649-2.077,10.172,0.656,14.594  c2.733,4.422,7.562,7.114,12.76,7.114h60v60H80v-52.096c23.057-6.547,40-27.777,40-52.904v-40c0-30.327-24.673-55-55-55  s-55,24.673-55,55v40c0,25.127,16.943,46.356,40,52.904v52.096H15c-8.284,0-15,6.716-15,15c0,8.284,6.716,15,15,15h300  c8.284,0,15-6.716,15-15C330,276.726,323.284,270.01,315,270.01z M240,78.551l50.729,101.459H189.27L240,78.551z M40,165.01v-40  c0-13.785,11.215-25,25-25s25,11.215,25,25v40c0,13.785-11.215,25-25,25S40,178.795,40,165.01z"
   style="fill:#006633;fill-opacity:1" />
<g
   id="g3254">
</g>
<g
   id="g3256">
</g>
<g
   id="g3258">
</g>
<g
   id="g3260">
</g>
<g
   id="g3262">
</g>
<g
   id="g3264">
</g>
<g
   id="g3266">
</g>
<g
   id="g3268">
</g>
<g
   id="g3270">
</g>
<g
   id="g3272">
</g>
<g
   id="g3274">
</g>
<g
   id="g3276">
</g>
<g
   id="g3278">
</g>
<g
   id="g3280">
</g>
<g
   id="g3282">
</g>
</svg>
