<?xml version="1.0" encoding="UTF-8" standalone="no"?>
<svg
   version="1.1"
   id="Layer_1"
   x="0px"
   y="0px"
   viewBox="0 0 512 512"
   style="enable-background:new 0 0 512 512;"
   xml:space="preserve"
   sodipodi:docname="ACC_ICON_RUBIK.svg"
   inkscape:version="1.1-dev (9017afb, 2021-01-01)"
   xmlns:inkscape="http://www.inkscape.org/namespaces/inkscape"
   xmlns:sodipodi="http://sodipodi.sourceforge.net/DTD/sodipodi-0.dtd"
   xmlns="http://www.w3.org/2000/svg"
   xmlns:svg="http://www.w3.org/2000/svg"><defs
   id="defs911" /><sodipodi:namedview
   id="namedview909"
   pagecolor="#ffffff"
   bordercolor="#666666"
   borderopacity="1.0"
   objecttolerance="10.0"
   gridtolerance="10.0"
   guidetolerance="10.0"
   inkscape:pageshadow="2"
   inkscape:pageopacity="0.0"
   inkscape:pagecheckerboard="0"
   showgrid="false"
   inkscape:zoom="1.4101562"
   inkscape:cx="256"
   inkscape:cy="255.64543"
   inkscape:window-width="1359"
   inkscape:window-height="1003"
   inkscape:window-x="0"
   inkscape:window-y="25"
   inkscape:window-maximized="0"
   inkscape:current-layer="Layer_1" />
<g
   id="g828"
   transform="matrix(0.80747922,0,0,0.82132964,39.711911,48.221606)"
   style="fill:#006633;fill-opacity:1;opacity:0.14790997">
	<g
   id="g826"
   style="fill:#006633;fill-opacity:1">
		<rect
   y="182.04401"
   width="147.911"
   height="147.911"
   id="rect824"
   x="0"
   style="fill:#006633;fill-opacity:1" />
	</g>
</g>
<g
   id="g834"
   transform="matrix(0.80747922,0,0,0.82132964,39.711911,48.221606)"
   style="fill:#006633;fill-opacity:1;opacity:0.14790997">
	<g
   id="g832"
   style="fill:#006633;fill-opacity:1">
		<rect
   x="182.04401"
   width="147.911"
   height="147.911"
   id="rect830"
   y="0"
   style="fill:#006633;fill-opacity:1" />
	</g>
</g>
<g
   id="g840"
   transform="matrix(0.80747922,0,0,0.82132964,39.711911,48.221606)"
   style="fill:#006633;fill-opacity:1">
	<g
   id="g838"
   style="fill:#006633;fill-opacity:1">
		<rect
   x="182.04401"
   y="182.04401"
   width="147.911"
   height="147.911"
   id="rect836"
   style="fill:#006633;fill-opacity:1" />
	</g>
</g>
<g
   id="g846"
   transform="matrix(0.80747922,0,0,0.82132964,39.711911,48.221606)"
   style="fill:#006633;fill-opacity:1;opacity:0.14790997">
	<g
   id="g844"
   style="fill:#006633;fill-opacity:1">
		<rect
   x="182.04401"
   y="364.08899"
   width="147.911"
   height="147.911"
   id="rect842"
   style="fill:#006633;fill-opacity:1" />
	</g>
</g>
<g
   id="g852"
   transform="matrix(0.80747922,0,0,0.82132964,39.711911,48.221606)"
   style="fill:#006633;fill-opacity:1">
	<g
   id="g850"
   style="fill:#006633;fill-opacity:1">
		<path
   d="M 460.8,0 H 364.089 V 147.911 H 512 V 51.2 C 512,22.967 489.033,0 460.8,0 Z"
   id="path848"
   style="fill:#006633;fill-opacity:1" />
	</g>
</g>
<g
   id="g858"
   transform="matrix(0.80747922,0,0,0.82132964,39.711911,48.221606)"
   style="fill:#006633;fill-opacity:1;opacity:0.14790997">
	<g
   id="g856"
   style="fill:#006633;fill-opacity:1">
		<rect
   x="364.08899"
   y="182.04401"
   width="147.911"
   height="147.911"
   id="rect854"
   style="fill:#006633;fill-opacity:1" />
	</g>
</g>
<g
   id="g864"
   transform="matrix(0.80747922,0,0,0.82132964,39.711911,48.221606)"
   style="fill:#006633;fill-opacity:1">
	<g
   id="g862"
   style="fill:#006633;fill-opacity:1">
		<path
   d="M 0,364.089 V 460.8 C 0,489.033 22.967,512 51.2,512 h 96.711 V 364.089 Z"
   id="path860"
   style="fill:#006633;fill-opacity:1" />
	</g>
</g>
<g
   id="g870"
   transform="matrix(0.80747922,0,0,0.82132964,39.711911,48.221606)"
   style="fill:#006633;fill-opacity:1">
	<g
   id="g868"
   style="fill:#006633;fill-opacity:1">
		<path
   d="M 364.089,364.089 V 512 H 460.8 c 28.233,0 51.2,-22.967 51.2,-51.2 v -96.711 z"
   id="path866"
   style="fill:#006633;fill-opacity:1" />
	</g>
</g>
<g
   id="g876"
   transform="matrix(0.80747922,0,0,0.82132964,39.711911,48.221606)"
   style="fill:#006633;fill-opacity:1">
	<g
   id="g874"
   style="fill:#006633;fill-opacity:1">
		<path
   d="M 51.2,0 C 22.967,0 0,22.967 0,51.2 v 96.711 H 147.911 V 0 Z"
   id="path872"
   style="fill:#006633;fill-opacity:1" />
	</g>
</g>
<g
   id="g878"
   transform="matrix(0.80747922,0,0,0.82132964,39.711911,48.221606)">
</g>
<g
   id="g880"
   transform="matrix(0.80747922,0,0,0.82132964,39.711911,48.221606)">
</g>
<g
   id="g882"
   transform="matrix(0.80747922,0,0,0.82132964,39.711911,48.221606)">
</g>
<g
   id="g884"
   transform="matrix(0.80747922,0,0,0.82132964,39.711911,48.221606)">
</g>
<g
   id="g886"
   transform="matrix(0.80747922,0,0,0.82132964,39.711911,48.221606)">
</g>
<g
   id="g888"
   transform="matrix(0.80747922,0,0,0.82132964,39.711911,48.221606)">
</g>
<g
   id="g890"
   transform="matrix(0.80747922,0,0,0.82132964,39.711911,48.221606)">
</g>
<g
   id="g892"
   transform="matrix(0.80747922,0,0,0.82132964,39.711911,48.221606)">
</g>
<g
   id="g894"
   transform="matrix(0.80747922,0,0,0.82132964,39.711911,48.221606)">
</g>
<g
   id="g896"
   transform="matrix(0.80747922,0,0,0.82132964,39.711911,48.221606)">
</g>
<g
   id="g898"
   transform="matrix(0.80747922,0,0,0.82132964,39.711911,48.221606)">
</g>
<g
   id="g900"
   transform="matrix(0.80747922,0,0,0.82132964,39.711911,48.221606)">
</g>
<g
   id="g902"
   transform="matrix(0.80747922,0,0,0.82132964,39.711911,48.221606)">
</g>
<g
   id="g904"
   transform="matrix(0.80747922,0,0,0.82132964,39.711911,48.221606)">
</g>
<g
   id="g906"
   transform="matrix(0.80747922,0,0,0.82132964,39.711911,48.221606)">
</g>
</svg>
