<?xml version="1.0" encoding="UTF-8" standalone="no"?>
<svg
   version="1.1"
   id="Capa_1"
   x="0px"
   y="0px"
   viewBox="0 0 16 16"
   style="enable-background:new 0 0 16 16;"
   xml:space="preserve"
   sodipodi:docname="ACC_ICON_CLOCK.svg"
   inkscape:version="1.1-dev (9017afb, 2021-01-01)"
   xmlns:inkscape="http://www.inkscape.org/namespaces/inkscape"
   xmlns:sodipodi="http://sodipodi.sourceforge.net/DTD/sodipodi-0.dtd"
   xmlns="http://www.w3.org/2000/svg"
   xmlns:svg="http://www.w3.org/2000/svg"><defs
   id="defs865" /><sodipodi:namedview
   id="namedview863"
   pagecolor="#ffffff"
   bordercolor="#666666"
   borderopacity="1.0"
   objecttolerance="10.0"
   gridtolerance="10.0"
   guidetolerance="10.0"
   inkscape:pageshadow="2"
   inkscape:pageopacity="0.0"
   inkscape:pagecheckerboard="0"
   showgrid="false"
   inkscape:zoom="45.125"
   inkscape:cx="7.9889197"
   inkscape:cy="7.9889197"
   inkscape:window-width="1386"
   inkscape:window-height="1003"
   inkscape:window-x="0"
   inkscape:window-y="25"
   inkscape:window-maximized="0"
   inkscape:current-layer="Capa_1" />
<g
   id="g830"
   style="fill:#006633;fill-opacity:1">
	<g
   id="g828"
   style="fill:#006633;fill-opacity:1">
		<path
   d="M 8,0 C 3.589,0 0,3.589 0,8 c 0,4.411 3.589,8 8,8 4.411,0 8,-3.589 8,-8 C 16,3.589 12.411,0 8,0 Z M 8,14 C 4.691,14 2,11.309 2,8 2,4.691 4.691,2 8,2 c 3.309,0 6,2.691 6,6 0,3.309 -2.691,6 -6,6 z"
   id="path824"
   style="fill:#006633;fill-opacity:1" />
		<path
   d="M 7,7 H 4 V 9 H 8 C 8.552,9 9,8.552 9,8 V 3 H 7 Z"
   id="path826"
   style="fill:#006633;fill-opacity:1" />
	</g>
</g>
<g
   id="g832">
</g>
<g
   id="g834">
</g>
<g
   id="g836">
</g>
<g
   id="g838">
</g>
<g
   id="g840">
</g>
<g
   id="g842">
</g>
<g
   id="g844">
</g>
<g
   id="g846">
</g>
<g
   id="g848">
</g>
<g
   id="g850">
</g>
<g
   id="g852">
</g>
<g
   id="g854">
</g>
<g
   id="g856">
</g>
<g
   id="g858">
</g>
<g
   id="g860">
</g>
</svg>
