<svg width="24px" height="24px" viewBox="0 0 24 24" fill="none" xmlns="http://www.w3.org/2000/svg">
<path opacity="0.15" d="M4 10L12 3L20 10L20 20H15V16C15 15.2044 14.6839 14.4413 14.1213 13.8787C13.5587 13.3161 12.7957 13 12 13C11.2044 13 10.4413 13.3161 9.87868 13.8787C9.31607 14.4413 9 15.2043 9 16V20H4L4 10Z" fill="#006633"/>
<path d="M4 10L12 3L20 10L20 20H15V16C15 15.2044 14.6839 14.4413 14.1213 13.8787C13.5587 13.3161 12.7957 13 12 13C11.2044 13 10.4413 13.3161 9.87868 13.8787C9.31607 14.4413 9 15.2043 9 16V20H4L4 10Z" stroke="#006633" stroke-width="1.5" stroke-linecap="round" stroke-linejoin="round"/>
</svg>
