<?xml version="1.0" encoding="UTF-8" standalone="no"?>
<!-- Created with Inkscape (http://www.inkscape.org/) -->

<svg
   xmlns:dc="http://purl.org/dc/elements/1.1/"
   xmlns:cc="http://creativecommons.org/ns#"
   xmlns:rdf="http://www.w3.org/1999/02/22-rdf-syntax-ns#"
   xmlns:svg="http://www.w3.org/2000/svg"
   xmlns="http://www.w3.org/2000/svg"
   xmlns:xlink="http://www.w3.org/1999/xlink"
   xmlns:sodipodi="http://sodipodi.sourceforge.net/DTD/sodipodi-0.dtd"
   xmlns:inkscape="http://www.inkscape.org/namespaces/inkscape"
   id="svg2"
   sodipodi:docname="appstart.svg"
   inkscape:export-filename="C:\Dev\icons\graphics\png\appstart48.png"
   viewBox="0 0 256 256"
   sodipodi:version="0.32"
   inkscape:export-xdpi="16.879999"
   version="1.0"
   inkscape:output_extension="org.inkscape.output.svg.inkscape"
   inkscape:export-ydpi="16.879999"
   inkscape:version="0.48.4 r9939"
   width="100%"
   height="100%">
  <defs
     id="defs4">
    <filter
       id="filter3256"
       inkscape:collect="always">
      <feGaussianBlur
         id="feGaussianBlur3258"
         stdDeviation="0.49938219"
         inkscape:collect="always" />
    </filter>
    <filter
       id="filter3282"
       height="5.236"
       width="1.188"
       y="-2.118"
       x="-.093994"
       inkscape:collect="always">
      <feGaussianBlur
         id="feGaussianBlur3284"
         stdDeviation="7.0271068"
         inkscape:collect="always" />
    </filter>
    <linearGradient
       id="linearGradient3318"
       y2="236.49"
       gradientUnits="userSpaceOnUse"
       x2="139.16"
       y1="26.517"
       x1="139.16"
       inkscape:collect="always">
      <stop
         id="stop3190"
         style="stop-color:#e6e6e6"
         offset="0" />
      <stop
         id="stop3206"
         style="stop-color:#f4f4f4"
         offset=".5" />
      <stop
         id="stop3208"
         style="stop-color:#f4f4f4"
         offset=".75" />
      <stop
         id="stop3210"
         style="stop-color:#f4f4f4"
         offset=".875" />
      <stop
         id="stop3212"
         style="stop-color:#f4f4f4"
         offset=".9375" />
      <stop
         id="stop3214"
         style="stop-color:#f4f4f4"
         offset=".96875" />
      <stop
         id="stop3192"
         style="stop-color:#e6e6e6"
         offset="1" />
    </linearGradient>
    <linearGradient
       id="linearGradient3320"
       y2="70.476"
       gradientUnits="userSpaceOnUse"
       x2="173.57"
       gradientTransform="translate(-.13271 -.26542)"
       y1="43.542"
       x1="200.5"
       inkscape:collect="always">
      <stop
         id="stop3182"
         style="stop-color:#f2f2f2"
         offset="0" />
      <stop
         id="stop3184"
         style="stop-color:#999999"
         offset="1" />
    </linearGradient>
    <linearGradient
       id="linearGradient3322"
       y2="70.767"
       gradientUnits="userSpaceOnUse"
       x2="84.05"
       gradientTransform="matrix(.98320 0 0 .98320 1.4801 1.6871)"
       y1="40.896"
       x1="76.046"
       inkscape:collect="always">
      <stop
         id="stop3290"
         style="stop-color:#ffffff"
         offset="0" />
      <stop
         id="stop3292"
         style="stop-color:#ffffff;stop-opacity:0"
         offset="1" />
    </linearGradient>
    <linearGradient
       y2="84.874962"
       x2="182.68535"
       y1="279.71509"
       x1="182.68535"
       gradientUnits="userSpaceOnUse"
       id="linearGradient3966"
       xlink:href="#linearGradient3924"
       inkscape:collect="always" />
    <linearGradient
       y2="10.959585"
       x2="180.74648"
       y1="353.00354"
       x1="180.74648"
       gradientUnits="userSpaceOnUse"
       id="linearGradient3964"
       xlink:href="#linearGradient3905"
       inkscape:collect="always" />
    <linearGradient
       y2="11.779408"
       x2="180.49806"
       y1="353.25195"
       x1="180.49806"
       gradientUnits="userSpaceOnUse"
       id="linearGradient3962"
       xlink:href="#linearGradient3881"
       inkscape:collect="always" />
    <linearGradient
       y2="11.895205"
       x2="180.91829"
       y1="352.83173"
       x1="180.91829"
       gradientUnits="userSpaceOnUse"
       id="linearGradient3960"
       xlink:href="#linearGradient3895"
       inkscape:collect="always" />
    <linearGradient
       gradientUnits="userSpaceOnUse"
       y2="84.874962"
       x2="182.68535"
       y1="279.71509"
       x1="182.68535"
       id="linearGradient3930"
       xlink:href="#linearGradient3924"
       inkscape:collect="always" />
    <linearGradient
       gradientUnits="userSpaceOnUse"
       y2="10.959585"
       x2="180.74648"
       y1="353.00354"
       x1="180.74648"
       id="linearGradient3911"
       xlink:href="#linearGradient3905"
       inkscape:collect="always" />
    <linearGradient
       gradientUnits="userSpaceOnUse"
       y2="11.895205"
       x2="180.91829"
       y1="352.83173"
       x1="180.91829"
       id="linearGradient3901"
       xlink:href="#linearGradient3895"
       inkscape:collect="always" />
    <linearGradient
       y2="11.779408"
       x2="180.49806"
       y1="353.25195"
       x1="180.49806"
       gradientUnits="userSpaceOnUse"
       id="linearGradient3893"
       xlink:href="#linearGradient3881"
       inkscape:collect="always" />
    <linearGradient
       id="linearGradient3881">
      <stop
         id="stop3883"
         offset="0"
         style="stop-color:#4aa035;stop-opacity:1;" />
      <stop
         id="stop3885"
         offset="1"
         style="stop-color:#f8fad2;stop-opacity:1;" />
    </linearGradient>
    <linearGradient
       id="linearGradient3895">
      <stop
         id="stop3897"
         offset="0"
         style="stop-color:#256c32;stop-opacity:1;" />
      <stop
         id="stop3899"
         offset="1"
         style="stop-color:#4eb133;stop-opacity:1;" />
    </linearGradient>
    <linearGradient
       id="linearGradient3905">
      <stop
         id="stop3907"
         offset="0"
         style="stop-color:#49a035;stop-opacity:1;" />
      <stop
         id="stop3909"
         offset="1"
         style="stop-color:#8cc625;stop-opacity:1;" />
    </linearGradient>
    <linearGradient
       id="linearGradient3924">
      <stop
         id="stop3926"
         offset="0"
         style="stop-color:#284c27;stop-opacity:1;" />
      <stop
         id="stop3928"
         offset="1"
         style="stop-color:#2e5b2c;stop-opacity:1;" />
    </linearGradient>
  </defs>
  <sodipodi:namedview
     id="base"
     bordercolor="#666666"
     inkscape:pageshadow="2"
     inkscape:window-y="25"
     pagecolor="#ffffff"
     inkscape:window-height="900"
     inkscape:zoom="1.8837767"
     inkscape:window-x="0"
     showgrid="false"
     borderopacity="1.0"
     inkscape:current-layer="g3260"
     inkscape:cx="128"
     inkscape:cy="128"
     inkscape:window-width="1280"
     inkscape:pageopacity="0.0"
     inkscape:document-units="px"
     inkscape:window-maximized="0" />
  <g
     id="layer1"
     inkscape:label="Camada 1"
     inkscape:groupmode="layer">
    <g
       id="g3299"
       transform="translate(0 5.1953)">
      <g
         id="g3260"
         transform="matrix(1.1553699,0,0,1.1553699,-11.275421,-28.941345)">
        <path
           id="rect2385"
           sodipodi:nodetypes="ccccccc"
           style="fill:url(#linearGradient3318)"
           d="m 36.807,21.991 c 49.576,1.218 101.21332,5.694216 148.94032,1.371216 l 28.67946,-0.879565 c -0.93,61.22 -6.89978,149.657349 -0.52978,214.527349 -96.04,4.94 -184.4,7.18 -179.93,-2.03 2.162,-118.03 2.024,-125.96 2.837,-212.99 z"
           inkscape:connector-curvature="0" />
        <path
           id="path3196"
           style="fill:#cccccc;stroke:#999999;stroke-width:21.49965858;stroke-linecap:round;stroke-linejoin:round;stroke-dashoffset:0.774"
           d="M 63.144297,135.10309 H 190.20429"
           inkscape:connector-curvature="0" />
        <g
           transform="matrix(0.56780234,0,0,0.56780234,53.751239,-90.803258)"
           style="display:inline"
           inkscape:label="MMEx"
           id="layer2">
          <g
             id="g3973">
            <path
               sodipodi:type="arc"
               style="fill:url(#linearGradient3960);fill-opacity:1;stroke:none"
               id="path3879"
               sodipodi:cx="180.75"
               sodipodi:cy="182.25"
               sodipodi:rx="170.75"
               sodipodi:ry="170.75"
               d="M 351.5,182.25 C 351.5,276.55262 275.05262,353 180.75,353 86.447379,353 10,276.55262 10,182.25 10,87.947379 86.447379,11.5 180.75,11.5 c 94.30262,0 170.75,76.447379 170.75,170.75 z"
               transform="matrix(0.37481698,0,0,0.37481698,-3.7481692,227.6896)" />
            <path
               transform="matrix(0.35743416,0,0,0.35743416,-0.60622514,230.85762)"
               d="M 351.5,182.25 C 351.5,276.55262 275.05262,353 180.75,353 86.447379,353 10,276.55262 10,182.25 10,87.947379 86.447379,11.5 180.75,11.5 c 94.30262,0 170.75,76.447379 170.75,170.75 z"
               sodipodi:ry="170.75"
               sodipodi:rx="170.75"
               sodipodi:cy="182.25"
               sodipodi:cx="180.75"
               id="path3889"
               style="fill:url(#linearGradient3962);fill-opacity:1;stroke:none"
               sodipodi:type="arc" />
            <path
               transform="matrix(0.3378785,0,0,0.3378785,2.928462,234.42164)"
               d="M 351.5,182.25 C 351.5,276.55262 275.05262,353 180.75,353 86.447379,353 10,276.55262 10,182.25 10,87.947379 86.447379,11.5 180.75,11.5 c 94.30262,0 170.75,76.447379 170.75,170.75 z"
               sodipodi:ry="170.75"
               sodipodi:rx="170.75"
               sodipodi:cy="182.25"
               sodipodi:cx="180.75"
               id="path3903"
               style="fill:url(#linearGradient3964);fill-opacity:1;stroke:none"
               sodipodi:type="arc" />
            <g
               transform="matrix(0.35786444,0,0,0.38464775,-2.7826082,229.21739)"
               style="font-size:13.14225578px;font-style:normal;font-weight:normal;line-height:125%;letter-spacing:0px;word-spacing:0px;fill:#000000;fill-opacity:1;stroke:none;display:inline;font-family:Bitstream Vera Sans"
               id="text3913">
              <path
                 style="font-size:206.52116394px;font-variant:normal;font-weight:bold;font-stretch:normal;text-align:start;writing-mode:lr-tb;text-anchor:start;fill:url(#linearGradient3966);fill-opacity:1;font-family:FreeSans;-inkscape-font-specification:FreeSans Bold"
                 d="m 172,85 0,13.28125 c -15.31597,0.468778 -27.33609,3.57744 -36.21875,11.28125 -9.55493,8.28686 -13.40626,20.28945 -13.40625,35.5625 -1e-5,12.13301 4.19589,22.10799 10.4375,28.53125 6.24166,6.42331 15.67635,12.72996 30.40625,15.78125 L 172,191.25 l 0,44.09375 c -5.32532,-0.91406 -9.67517,-2.69521 -13.25,-5.53125 -5.57765,-4.42495 -8.28133,-13.2033 -8.8125,-21.625 l -31.8125,0 c 0.9296,16.70061 5.43356,32.46415 15.6875,41.28125 8.77607,7.54631 22.7747,11.9115 38.1875,13.0625 L 172,280 l 17,0 0,-17.4375 c 14.8881,-1.01688 27.8768,-4.27382 36.1875,-12.28125 10.52649,-10.14237 13.625,-23.18709 13.625,-39.03125 0,-12.27558 -4.17659,-21.00917 -10.25,-27.75 -6.14443,-6.81964 -12.17333,-12.07776 -27.84375,-16.34375 -5.02516,-1.36801 -8.62755,-2.30034 -11.71875,-3.0625 l 0,-38.90625 c 10.2914,2.53328 14.99086,9.02018 15.78125,21.125 l 31.90625,0 c -1.2e-4,-8.13607 -1.42565,-15.23366 -4,-21.40625 -2.60533,-6.24685 -7.74658,-13.09743 -11.5625,-16.5625 -3.88692,-3.52955 -8.21788,-5.79892 -13.75,-7.28125 -3.31238,-0.88755 -11.08929,-1.88905 -15.125,-2.5 -0.88232,-0.133571 -1.99502,-0.221897 -3.25,-0.28125 L 189,85 z m 0,39.15625 0,36.125 c -5.58102,-1.28494 -8.13676,-2.18063 -11,-4.25 -3.8854,-2.80812 -5.78125,-7.13405 -5.78125,-12.84375 0,-5.85222 0.30027,-10.4669 4.78125,-13.9375 3.60947,-2.7956 6.94036,-4.49855 12,-5.09375 z m 17,70.71875 c 6.10266,1.51703 8.91559,2.93882 12.21875,5.6875 4.11679,3.42573 5.81174,9.11888 5.59375,14.5625 -0.21799,5.44362 -2.0851,11.66369 -7.375,15.40625 -3.54833,2.51042 -6.2318,4.18827 -10.4375,5 z"
                 transform="scale(1.0367459,0.9645565)"
                 id="path3918"
                 inkscape:connector-curvature="0"
                 sodipodi:nodetypes="ccssscccsccsccccssssccccsssscccccsssccssscc" />
            </g>
          </g>
        </g>
        <path
           id="path3196-0"
           style="fill:#cccccc;stroke:#999999;stroke-width:21.49965858;stroke-linecap:round;stroke-linejoin:round;stroke-dashoffset:0.774"
           d="M 63.109995,166.32915 H 190.16999"
           inkscape:connector-curvature="0" />
        <path
           id="path3196-0-9"
           style="fill:#cccccc;stroke:#999999;stroke-width:21.49965858;stroke-linecap:round;stroke-linejoin:round;stroke-dashoffset:0.774"
           d="M 63.530103,199.09758 H 190.5901"
           inkscape:connector-curvature="0" />
        <path
           id="path3196-3"
           style="fill:#cccccc;stroke:#999999;stroke-width:21.17235947;stroke-linecap:round;stroke-linejoin:round;stroke-dashoffset:0.774"
           d="m 143.39946,104.05851 h 44.69405"
           inkscape:connector-curvature="0" />
        <path
           id="path3196-3-6"
           style="fill:#cccccc;stroke:#999999;stroke-width:21.17235947;stroke-linecap:round;stroke-linejoin:round;stroke-dashoffset:0.774"
           d="m 144.08863,73.504293 h 44.69405"
           inkscape:connector-curvature="0" />
      </g>
    </g>
  </g>
  <metadata
     id="metadata42">
    <rdf:RDF>
      <cc:Work>
        <dc:format>image/svg+xml</dc:format>
        <dc:type
           rdf:resource="http://purl.org/dc/dcmitype/StillImage" />
        <cc:license
           rdf:resource="http://creativecommons.org/licenses/publicdomain/" />
        <dc:publisher>
          <cc:Agent
             rdf:about="http://openclipart.org/">
            <dc:title>Openclipart</dc:title>
          </cc:Agent>
        </dc:publisher>
        <dc:title></dc:title>
        <dc:date>2009-10-11T21:37:14</dc:date>
        <dc:description>A simple New Document icon.</dc:description>
        <dc:source>https://openclipart.org/detail/27766/new-document-by-ronoaldo</dc:source>
        <dc:creator>
          <cc:Agent>
            <dc:title>ronoaldo</dc:title>
          </cc:Agent>
        </dc:creator>
        <dc:subject>
          <rdf:Bag>
            <rdf:li>colour</rdf:li>
            <rdf:li>icon</rdf:li>
            <rdf:li>new</rdf:li>
          </rdf:Bag>
        </dc:subject>
      </cc:Work>
      <cc:License
         rdf:about="http://creativecommons.org/licenses/publicdomain/">
        <cc:permits
           rdf:resource="http://creativecommons.org/ns#Reproduction" />
        <cc:permits
           rdf:resource="http://creativecommons.org/ns#Distribution" />
        <cc:permits
           rdf:resource="http://creativecommons.org/ns#DerivativeWorks" />
      </cc:License>
    </rdf:RDF>
  </metadata>
</svg>
