<?xml version="1.0" encoding="UTF-8" standalone="no"?>
<!-- Created with Inkscape (http://www.inkscape.org/) -->

<svg
   xmlns:dc="http://purl.org/dc/elements/1.1/"
   xmlns:cc="http://creativecommons.org/ns#"
   xmlns:rdf="http://www.w3.org/1999/02/22-rdf-syntax-ns#"
   xmlns:svg="http://www.w3.org/2000/svg"
   xmlns="http://www.w3.org/2000/svg"
   xmlns:xlink="http://www.w3.org/1999/xlink"
   xmlns:sodipodi="http://sodipodi.sourceforge.net/DTD/sodipodi-0.dtd"
   xmlns:inkscape="http://www.inkscape.org/namespaces/inkscape"
   id="svg249"
   inkscape:version="0.48.4 r9939"
   inkscape:export-filename="C:\Dev\icons\graphics\png\category_relocation32.png"
   viewBox="0 0 64 64"
   sodipodi:version="0.32"
   inkscape:export-xdpi="44.259998"
   version="1.0"
   inkscape:output_extension="org.inkscape.output.svg.inkscape"
   inkscape:export-ydpi="44.259998"
   sodipodi:docname="richardtallent-Blue-Tag.svg"
   width="100%"
   height="100%">
  <defs
     id="defs3">
    <clipPath
       id="clipPath2560"
       clipPathUnits="userSpaceOnUse">
      <path
         id="path2562"
         sodipodi:nodetypes="cccccc"
         style="color:#000000;fill:none;stroke:#ffffff;stroke-width:1.82509995;stroke-linecap:square"
         d="M 14.03,17.05 13.895,40.132 54.664,80.961 77.765,57.847 36.965,17.026 14.03,17.05 z"
         inkscape:connector-curvature="0" />
    </clipPath>
    <linearGradient
       id="linearGradient6553"
       y2="463.47"
       gradientUnits="userSpaceOnUse"
       x2="214.59"
       gradientTransform="matrix(0.47695,0,0,0.22498,-55.187,-42.253)"
       y1="183.48"
       x1="213.83"
       inkscape:collect="always">
      <stop
         id="stop1703"
         style="stop-color:#ffffff;stop-opacity:.69072"
         offset="0" />
      <stop
         id="stop1704"
         style="stop-color:#ffffff;stop-opacity:0"
         offset="1" />
    </linearGradient>
    <filter
       id="filter9056-2"
       inkscape:collect="always"
       color-interpolation-filters="sRGB">
      <feGaussianBlur
         id="feGaussianBlur9058-2"
         stdDeviation="1.6480425"
         inkscape:collect="always" />
    </filter>
    <linearGradient
       id="linearGradient6547-1"
       y2="42.070999"
       gradientUnits="userSpaceOnUse"
       x2="159.10001"
       gradientTransform="matrix(1.1301,0,0,1.1301,-90.544,0.42182)"
       y1="42.070999"
       x1="82.945999"
       inkscape:collect="always">
      <stop
         id="stop260-6"
         style="stop-color:#ffffff"
         offset="0" />
      <stop
         id="stop261-8"
         style="stop-color:#f2f2f2"
         offset="1" />
    </linearGradient>
    <linearGradient
       id="linearGradient6549-5"
       y2="42.070999"
       gradientUnits="userSpaceOnUse"
       x2="159.10001"
       gradientTransform="matrix(1.1301,0,0,1.1301,-90.544,0.42182)"
       y1="42.070999"
       x1="82.945999"
       inkscape:collect="always">
      <stop
         id="stop270-7"
         style="stop-color:#a0a0a0"
         offset="0" />
      <stop
         id="stop271-6"
         style="stop-color:#939393"
         offset="1" />
    </linearGradient>
    <linearGradient
       id="linearGradient6551-1"
       y2="-55.674999"
       gradientUnits="userSpaceOnUse"
       x2="140.49001"
       gradientTransform="matrix(1.0499,-4.6850999e-8,-3.2811e-8,0.98365,-56.167,56.11)"
       y1="-55.674999"
       x1="97.487999"
       inkscape:collect="always">
      <stop
         id="stop7022-8"
         style="stop-color:#c0e6ff"
         offset="0" />
      <stop
         id="stop7024-9"
         style="stop-color:#91d2ff"
         offset="1" />
    </linearGradient>
    <linearGradient
       id="linearGradient6553-2"
       y2="463.47"
       gradientUnits="userSpaceOnUse"
       x2="214.59"
       gradientTransform="matrix(0.47695,0,0,0.22498,-55.187,-42.253)"
       y1="183.48"
       x1="213.83"
       inkscape:collect="always">
      <stop
         id="stop1703-7"
         style="stop-color:#ffffff;stop-opacity:.69072"
         offset="0" />
      <stop
         id="stop1704-9"
         style="stop-color:#ffffff;stop-opacity:0"
         offset="1" />
    </linearGradient>
    <clipPath
       id="clipPath2560-5"
       clipPathUnits="userSpaceOnUse">
      <path
         id="path2562-4"
         sodipodi:nodetypes="cccccc"
         style="color:#000000;fill:none;stroke:#ffffff;stroke-width:1.82509995;stroke-linecap:square"
         d="M 14.03,17.05 13.895,40.132 54.664,80.961 77.765,57.847 36.965,17.026 14.03,17.05 z"
         inkscape:connector-curvature="0" />
    </clipPath>
    <linearGradient
       inkscape:collect="always"
       x1="691.98999"
       y1="527.35999"
       gradientTransform="translate(0,18)"
       x2="586.27002"
       gradientUnits="userSpaceOnUse"
       y2="873.22998"
       id="linearGradient3182">
      <stop
         offset="0"
         style="stop-color:#cdd5ff"
         id="stop3186" />
      <stop
         offset="1"
         style="stop-color:#7070e5"
         id="stop3188" />
    </linearGradient>
    <linearGradient
       inkscape:collect="always"
       x1="691.98999"
       y1="527.35999"
       gradientTransform="translate(0,18)"
       x2="586.27002"
       gradientUnits="userSpaceOnUse"
       y2="873.22998"
       id="linearGradient3166">
      <stop
         offset="0"
         style="stop-color:#edf0ff"
         id="stop3170" />
      <stop
         offset="1"
         style="stop-color:#00009c"
         id="stop3172" />
    </linearGradient>
    <linearGradient
       y2="873.22998"
       x2="586.27002"
       y1="527.35999"
       x1="691.98999"
       gradientTransform="translate(0,18)"
       gradientUnits="userSpaceOnUse"
       id="linearGradient4673"
       xlink:href="#linearGradient3166"
       inkscape:collect="always" />
    <filter
       id="filter9056-3"
       inkscape:collect="always"
       color-interpolation-filters="sRGB">
      <feGaussianBlur
         id="feGaussianBlur9058-8"
         stdDeviation="1.6480425"
         inkscape:collect="always" />
    </filter>
    <linearGradient
       id="linearGradient6547-7"
       y2="42.070999"
       gradientUnits="userSpaceOnUse"
       x2="159.10001"
       gradientTransform="matrix(1.1301,0,0,1.1301,-90.544,0.42182)"
       y1="42.070999"
       x1="82.945999"
       inkscape:collect="always">
      <stop
         id="stop260-4"
         style="stop-color:#ffffff"
         offset="0" />
      <stop
         id="stop261-2"
         style="stop-color:#f2f2f2"
         offset="1" />
    </linearGradient>
    <linearGradient
       id="linearGradient6549-7"
       y2="42.070999"
       gradientUnits="userSpaceOnUse"
       x2="159.10001"
       gradientTransform="matrix(1.1301,0,0,1.1301,-90.544,0.42182)"
       y1="42.070999"
       x1="82.945999"
       inkscape:collect="always">
      <stop
         id="stop270-79"
         style="stop-color:#a0a0a0"
         offset="0" />
      <stop
         id="stop271-3"
         style="stop-color:#939393"
         offset="1" />
    </linearGradient>
    <linearGradient
       id="linearGradient6551-19"
       y2="-55.674999"
       gradientUnits="userSpaceOnUse"
       x2="140.49001"
       gradientTransform="matrix(1.0499,-4.6851e-8,-3.2811e-8,0.98365,-56.167,56.11)"
       y1="-55.674999"
       x1="97.487999"
       inkscape:collect="always">
      <stop
         id="stop7022-86"
         style="stop-color:#c0e6ff"
         offset="0" />
      <stop
         id="stop7024-5"
         style="stop-color:#91d2ff"
         offset="1" />
    </linearGradient>
    <linearGradient
       id="linearGradient6553-0"
       y2="463.47"
       gradientUnits="userSpaceOnUse"
       x2="214.59"
       gradientTransform="matrix(0.47695,0,0,0.22498,-55.187,-42.253)"
       y1="183.48"
       x1="213.83"
       inkscape:collect="always">
      <stop
         id="stop1703-2"
         style="stop-color:#ffffff;stop-opacity:.69072"
         offset="0" />
      <stop
         id="stop1704-8"
         style="stop-color:#ffffff;stop-opacity:0"
         offset="1" />
    </linearGradient>
    <clipPath
       id="clipPath2560-6"
       clipPathUnits="userSpaceOnUse">
      <path
         id="path2562-0"
         sodipodi:nodetypes="cccccc"
         style="color:#000000;fill:none;stroke:#ffffff;stroke-width:1.82509995;stroke-linecap:square"
         d="M 14.03,17.05 13.895,40.132 54.664,80.961 77.765,57.847 36.965,17.026 14.03,17.05 z"
         inkscape:connector-curvature="0" />
    </clipPath>
    <linearGradient
       inkscape:collect="always"
       x1="691.98999"
       y1="527.35999"
       gradientTransform="translate(0,18)"
       x2="586.27002"
       gradientUnits="userSpaceOnUse"
       y2="873.22998"
       id="linearGradient3182-2">
      <stop
         offset="0"
         style="stop-color:#cdd5ff"
         id="stop3186-4" />
      <stop
         offset="1"
         style="stop-color:#7070e5"
         id="stop3188-8" />
    </linearGradient>
    <linearGradient
       y2="873.22998"
       x2="586.27002"
       y1="527.35999"
       x1="691.98999"
       gradientTransform="translate(0,18)"
       gradientUnits="userSpaceOnUse"
       id="linearGradient4673-6"
       xlink:href="#linearGradient3166-5"
       inkscape:collect="always" />
    <linearGradient
       inkscape:collect="always"
       x1="691.98999"
       y1="527.35999"
       gradientTransform="translate(0,18)"
       x2="586.27002"
       gradientUnits="userSpaceOnUse"
       y2="873.22998"
       id="linearGradient3166-5">
      <stop
         offset="0"
         style="stop-color:#edf0ff"
         id="stop3170-0" />
      <stop
         offset="1"
         style="stop-color:#00009c"
         id="stop3172-9" />
    </linearGradient>
    <linearGradient
       y2="873.22998"
       x2="586.27002"
       y1="527.35999"
       x1="691.98999"
       gradientTransform="translate(0,18)"
       gradientUnits="userSpaceOnUse"
       id="linearGradient4810"
       xlink:href="#linearGradient3166-5"
       inkscape:collect="always" />
    <linearGradient
       inkscape:collect="always"
       x1="11"
       y1="11"
       gradientTransform="translate(-0.49282,-0.49229)"
       x2="22"
       gradientUnits="userSpaceOnUse"
       y2="22"
       id="linearGradient2399">
      <stop
         offset="0"
         style="stop-color:#91b6da"
         id="stop2430" />
      <stop
         offset="1"
         style="stop-color:#6999cd"
         id="stop2432" />
    </linearGradient>
    <linearGradient
       inkscape:collect="always"
       x1="691.98999"
       y1="527.35999"
       gradientTransform="translate(0,18)"
       x2="586.27002"
       gradientUnits="userSpaceOnUse"
       y2="873.22998"
       id="linearGradient3182-2-6">
      <stop
         offset="0"
         style="stop-color:#cdd5ff"
         id="stop3186-4-1" />
      <stop
         offset="1"
         style="stop-color:#7070e5"
         id="stop3188-8-2" />
    </linearGradient>
    <linearGradient
       y2="873.22998"
       x2="586.27002"
       y1="527.35999"
       x1="691.98999"
       gradientTransform="translate(0,18)"
       gradientUnits="userSpaceOnUse"
       id="linearGradient4810-4"
       xlink:href="#linearGradient3166-5-2"
       inkscape:collect="always" />
    <linearGradient
       inkscape:collect="always"
       x1="691.98999"
       y1="527.35999"
       gradientTransform="translate(0,18)"
       x2="586.27002"
       gradientUnits="userSpaceOnUse"
       y2="873.22998"
       id="linearGradient3166-5-2">
      <stop
         offset="0"
         style="stop-color:#edf0ff"
         id="stop3170-0-5" />
      <stop
         offset="1"
         style="stop-color:#00009c"
         id="stop3172-9-8" />
    </linearGradient>
    <linearGradient
       y2="873.22998"
       x2="586.27002"
       y1="527.35999"
       x1="691.98999"
       gradientTransform="translate(0,18)"
       gradientUnits="userSpaceOnUse"
       id="linearGradient4904"
       xlink:href="#linearGradient3166-5-2"
       inkscape:collect="always" />
  </defs>
  <sodipodi:namedview
     id="base"
     bordercolor="#666666"
     inkscape:window-x="837"
     inkscape:window-y="211"
     pagecolor="#ffffff"
     inkscape:showpageshadow="false"
     inkscape:grid-bbox="true"
     width="96px"
     inkscape:zoom="5.12"
     inkscape:pageshadow="2"
     showgrid="false"
     borderopacity="0.25490196"
     inkscape:current-layer="layer3"
     inkscape:cx="32"
     inkscape:cy="32.334011"
     inkscape:window-width="612"
     height="96px"
     inkscape:pageopacity="0"
     inkscape:window-height="529"
     inkscape:document-units="px"
     inkscape:window-maximized="0" />
  <g
     id="layer3"
     inkscape:label="Page number"
     inkscape:groupmode="layer"
     transform="translate(0,-32)">
    <g
       id="g6530"
       transform="matrix(0.57714104,0,0,0.57714104,-2.1230135,43.752911)">
      <path
         id="path3997"
         d="m 38.979,35.641 18.023,48.981 c 0.184,0.184 0.568,0.12 0.844,-0.156 L 84.221,58.091 c 0.277,-0.276 0.371,-0.66 0.188,-0.844 L 39.885,14.674 38.979,35.641 z"
         sodipodi:nodetypes="ccccccc"
         style="opacity:0.38888999;color:#000000;fill:#ffffff;stroke:#7e7e7e;stroke-width:2.5;stroke-linecap:square;filter:url(#filter9056-3)"
         transform="matrix(1.1386,0,0,1.1386,-6.4962,-8.3629)"
         inkscape:connector-curvature="0" />
      <path
         id="rect3989"
         sodipodi:nodetypes="cccccccc"
         style="color:#000000;fill:url(#linearGradient6547-7);stroke:url(#linearGradient6549-7);stroke-width:4.52050018;stroke-linecap:square"
         d="m 6.1963,7.7539 -0.1766,30.937 49.337,49.372 c 0.207,0.208 0.641,0.136 0.953,-0.176 l 29.807,-29.807 c 0.313,-0.313 0.419,-0.746 0.212,-0.954 L 36.9567,7.7539 6.1957,7.7538 z"
         inkscape:connector-curvature="0" />
      <rect
         id="rect3006"
         ry="0.39919999"
         style="color:#000000;fill:url(#linearGradient6551-19);stroke:#3fbaff;stroke-width:3.33990002;stroke-linejoin:round"
         rx="0.31650999"
         transform="matrix(0.7068,0.70742,-0.70732,0.70689,0,0)"
         height="21.905001"
         width="42.354"
         y="-9.6070995"
         x="47.577999" />
      <path
         id="path14371"
         sodipodi:rx="7.125"
         sodipodi:ry="7.125"
         style="opacity:0.8;color:#000000;fill:#ffffff;stroke:#efefef;stroke-width:2.4000001;stroke-linejoin:round"
         sodipodi:type="arc"
         d="m 102.75,22.875002 c 0,3.935029 -3.189971,7.125 -7.125,7.125 -3.935029,0 -7.125,-3.189971 -7.125,-7.125 0,-3.935029 3.189971,-7.125 7.125,-7.125 3.935029,0 7.125,3.189971 7.125,7.125 z"
         transform="matrix(0.73398,0,0,0.71191,-49.873,6.2685)"
         sodipodi:cy="22.875002"
         sodipodi:cx="95.625" />
      <path
         id="path10033"
         style="fill:none;stroke:#65c7ff;stroke-width:1.13859999px"
         d="m 32.346,39.812 c 2.562,3.193 10.431,1.985 14.623,0.787 0.575,-0.165 1.153,-0.315 1.73,-0.472 1.167,-0.318 -2.326,0.676 -3.459,1.101 -1.684,0.631 -10.757,3.355 -3.932,2.673 0.106,-0.011 0.489,1.642 1.887,2.201 2.415,0.966 5.657,1.891 3.302,4.246 -1.617,1.617 6.058,3.315 6.762,3.616 0.596,0.256 0.112,1.348 0.472,1.887 1.98,2.971 1.249,3.855 3.459,3.302 2.758,-0.689 3.546,1.951 -5.975,2.202 -0.14,0.003 3.553,-1.251 5.661,-2.516 1.027,-0.617 -1.939,5.032 2.044,5.032"
         inkscape:connector-curvature="0" />
      <path
         id="path1713"
         style="opacity:0.76667026;fill:url(#linearGradient6553-0);fill-rule:evenodd"
         d="M 75.195,10.36 C 88.813,10.022 65.786,7.0806 27.946,6.8534 -13.356,6.6131 3.006,39.5694 9.567,40.2804 c 0,0 6.779,1.77 17.545,5.194 17.334,5.57 38.536,-4.569 46.891,-6.042 9.313,-1.643 -0.134,-28.317 1.192,-29.072 z"
         clip-path="url(#clipPath2560-6)"
         sodipodi:nodetypes="cccccc"
         transform="matrix(1.1386,0,0,1.1386,-6.4962,-8.3629)"
         inkscape:connector-curvature="0" />
      <path
         id="path3987"
         sodipodi:rx="7.125"
         sodipodi:ry="7.125"
         style="color:#000000;fill:none;stroke:#909090;stroke-width:2.4000001;stroke-linejoin:round"
         sodipodi:type="arc"
         d="m 102.75,22.875002 c 0,3.935029 -3.189971,7.125 -7.125,7.125 -3.935029,0 -7.125,-3.189971 -7.125,-7.125 0,-3.935029 3.189971,-7.125 7.125,-7.125 3.935029,0 7.125,3.189971 7.125,7.125 z"
         transform="matrix(0.81737,0,0,0.81737,-58.051,3.5255)"
         sodipodi:cy="22.875002"
         sodipodi:cx="95.625" />
    </g>
    <g
       inkscape:label="Calque 1"
       id="layer1"
       transform="matrix(1.6723727,0,0,1.6723727,15.734631,31.46165)">
      <path
         d="M 1.4134,0.47646 C 0.88163,0.52702 0.47573,0.9735 0.47593,1.50766 v 10 c 0.00186,0.271 0.12015,0.527 0.3125,0.718 l 17,17 c 0.404,0.398 1.034,0.398 1.438,0 l 10,-10 c 0.397,-0.403 0.397,-1.033 0,-1.437 l -17,-17 c -0.192,-0.1924 -0.447,-0.31068 -0.719,-0.31254 h -9.9998 c -0.0104,4.7e-4 -0.0209,4.7e-4 -0.0313,0 -0.031,-0.00141 -0.0314,-0.00141 -0.0625,0 z m 5.0938,4.0312 c 1.104,0 2,0.896 2,2 0,1.104 -0.896,2 -2,2 -1.104,0 -2,-0.896 -2,-2 0,-1.104 0.896,-2 2,-2 z"
         style="fill:#888a85"
         id="path2409"
         inkscape:connector-curvature="0" />
      <path
         d="m 1.5072,1.5077 v 10 l 17,17 10,-10 -17,-17 -9.9998,-3e-4 z m 5,3 c 1.104,0 2,0.896 2,2 0,1.104 -0.896,2 -2,2 -1.104,0 -2,-0.896 -2,-2 0,-1.104 0.896,-2 2,-2 z"
         style="fill:#eeeeec"
         id="rect2397"
         inkscape:connector-curvature="0" />
      <path
         d="m 6.5072,3.789 c -1.5014,0 -2.7188,1.2174 -2.7188,2.7187 0,1.5014 1.2174,2.7188 2.7188,2.7188 1.5013,0 2.7187,-1.2174 2.7187,-2.7188 0,-1.5013 -1.2174,-2.7187 -2.7187,-2.7187 z m 0,0.7187 c 1.104,0 2,0.896 2,2 0,1.104 -0.896,2 -2,2 -1.104,0 -2,-0.896 -2,-2 0,-1.104 0.896,-2 2,-2 z"
         style="fill:#888a85"
         id="path2417"
         inkscape:connector-curvature="0" />
      <path
         d="m 13.507,7.5077 11,11 -6,6 -11,-11 6,-6.0003 z"
         style="fill:url(#linearGradient2399)"
         sodipodi:nodetypes="ccccc"
         id="rect2419"
         inkscape:connector-curvature="0" />
      <path
         d="m 12.75,9.8703 c -0.275,0.031 -0.537,0.1747 -0.713,0.4067 l 0.741,0.458 c 0.042,-0.055 0.074,-0.046 0.114,-0.051 0.041,-0.004 0.091,-0.013 0.171,0.026 0.161,0.078 0.274,0.232 0.257,0.305 h 0.028 c -0.335,0.726 0.259,1.485 1.112,1.551 v 0.051 c 0.515,0.089 0.913,0.558 1.055,1.069 l 0.057,0.127 0.114,0.101 c 0.333,0.226 0.676,0.296 0.912,0.382 0.236,0.086 0.32,0.122 0.37,0.254 h 0.029 c -0.016,0.234 -0.028,0.46 0.085,0.687 0.132,0.265 0.398,0.486 0.741,0.61 v 0.026 c 0.021,0.007 0.036,0.019 0.057,0.025 0.192,0.083 0.405,0.188 0.513,0.28 0.119,0.102 0.14,0.131 0.114,0.254 v 0.051 0.051 c 0.01,0.294 0.156,0.532 0.399,0.712 0.243,0.181 0.619,0.287 0.969,0.153 l -0.342,-0.763 c -0.028,0.011 -0.021,0.026 -0.057,0 -0.035,-0.026 -0.056,-0.092 -0.057,-0.127 h -0.057 c 0.036,-0.368 -0.103,-0.712 -0.342,-0.916 -0.258,-0.22 -0.56,-0.359 -0.798,-0.458 H 18.194 18.165 C 18.012,15.09 17.961,15.011 17.909,14.906 17.856,14.801 17.823,14.662 17.852,14.499 l 0.028,-0.101 -0.028,-0.102 c -0.159,-0.424 -0.594,-0.647 -0.912,-0.763 -0.308,-0.112 -0.526,-0.199 -0.656,-0.28 -10e-4,-0.003 -0.027,0.004 -0.028,0 C 15.998,12.6 15.495,11.979 14.631,11.829 L 14.602,11.803 H 14.545 C 14.228,11.81 13.99,11.557 14.146,11.295 l 0.057,-0.051 V 11.193 C 14.323,10.669 13.958,10.212 13.519,9.9975 13.3,9.8905 13.024,9.8394 12.75,9.8703 z"
         style="fill:#ffffff;fill-rule:evenodd"
         id="path3236"
         inkscape:connector-curvature="0" />
      <path
         d="m 11.558,12.196 c -0.477,-0.22 -1.051,-0.247 -1.544,0.06 l 0.475,0.838 c 0.371,-0.231 1.007,0.083 1.099,0.509 l 0.03,0.09 0.059,0.09 c 0.094,0.128 0.102,0.334 0.089,0.688 -0.013,0.355 -0.024,0.866 0.357,1.287 l 0.029,0.06 0.06,0.03 c 0.499,0.343 1.04,0.477 1.484,0.659 0.445,0.181 0.749,0.379 0.951,0.718 l 0.059,0.09 0.089,0.06 c 0.866,0.572 1.443,1.568 1.871,2.604 l 0.03,0.03 v 0.03 c 0.261,0.432 0.681,0.629 1.009,0.778 0.329,0.15 0.583,0.276 0.743,0.419 l 0.059,-0.06 0.743,0.3 c 0.092,-0.252 0.094,-0.583 -0.09,-0.868 l -0.029,-0.06 -0.03,-0.03 C 18.762,20.213 18.377,20.079 18.091,19.949 17.805,19.819 17.634,19.706 17.527,19.53 17.093,18.493 16.466,17.442 15.478,16.716 15.42,16.674 15.39,16.607 15.33,16.566 l -0.03,0.03 C 14.947,16.131 14.499,15.821 14.053,15.639 13.569,15.44 13.13,15.277 12.806,15.07 12.724,14.953 12.705,14.809 12.717,14.501 12.727,14.208 12.68,13.79 12.479,13.393 h 0.059 c -0.008,-0.038 -0.048,-0.052 -0.059,-0.089 -0.02,-0.033 -0.006,-0.058 -0.03,-0.09 l -0.029,0.03 c -0.16,-0.457 -0.443,-0.855 -0.862,-1.048 z"
         style="fill:#ffffff;fill-rule:evenodd"
         id="path3238"
         inkscape:connector-curvature="0" />
    </g>
    <g
       transform="matrix(-0.04159587,0,0,0.04159587,55.058249,34.056625)"
       inkscape:label="Layer 1"
       id="layer1-3">
      <path
         d="M 422.86,613.22 330,520.36 V 878.93 H 680 L 567.14,766.08 c 0,0 43.13,-176.41 241.43,-104.29 C 644.2,481.11 538.68,586.52 422.86,613.22 z"
         style="fill:url(#linearGradient3182-2-6);fill-rule:evenodd"
         sodipodi:nodetypes="ccccccc"
         id="path2390"
         inkscape:connector-curvature="0" />
      <path
         d="m 416.09,638.05 -63.74,-63.91 v 284.05 l 273.76,-1.78 -83.21,-83.46 c 0,0 6.27,-41.18 33.57,-76.05 14.48,-18.5 32.99,-40.66 60.34,-54.05 12.13,-5.94 26.06,-12.16 42.38,-16.13 16.32,-3.97 34.04,-5.18 54.01,-2.88 -71.09,-52.65 -117.51,-47.06 -160.89,-36.95 -54.47,14.66 -101.82,38.73 -156.22,51.16 z"
         style="fill:none;stroke:#ffffff;stroke-width:19.29199982;stroke-opacity:0.17552999"
         sodipodi:nodetypes="cccccsssccc"
         id="path3190"
         inkscape:connector-curvature="0" />
      <path
         d="m 317.69,490.66 v 29.72 358.56 12.28 H 330 680 709.69 l -21,-20.97 -107.63,-107.66 c 4.16,-12.55 15.88,-42.09 41.06,-66.93 32.79,-32.34 86.4,-57.18 182.26,-22.32 L 817.66,653.5 C 733.79,561.31 660.98,540.02 596.09,547.53 533.71,554.75 479.68,585.75 426.5,599.47 l -87.81,-87.81 -21,-21 z m 24.62,59.4 71.85,71.85 4.81,4.84 6.65,-1.53 c 60.57,-13.96 115.37,-46.55 173.29,-53.25 49.87,-5.77 102.92,5.64 168.09,65.41 -77.03,-15.35 -129.85,8.88 -162.16,40.74 -38.35,37.84 -49.65,85.04 -49.65,85.04 l -1.63,6.72 4.88,4.9 91.87,91.84 h -308 V 550.06 z"
         style="fill:url(#linearGradient4904);fill-rule:evenodd"
         id="path2396"
         inkscape:connector-curvature="0" />
    </g>
  </g>
  <metadata
     id="metadata4564">
    <rdf:RDF>
      <cc:Work>
        <dc:format>image/svg+xml</dc:format>
        <dc:type
           rdf:resource="http://purl.org/dc/dcmitype/StillImage" />
        <cc:license
           rdf:resource="http://creativecommons.org/licenses/publicdomain/" />
        <dc:publisher>
          <cc:Agent
             rdf:about="http://openclipart.org/">
            <dc:title>Openclipart</dc:title>
          </cc:Agent>
        </dc:publisher>
        <dc:title></dc:title>
        <dc:date>2008-11-25T20:07:49</dc:date>
        <dc:description>This is a tag with a blue label. The design is inspired by the Mark James &quot;tag_blue&quot; icon from his Silk library. There are some light bevels, shadows, and a &quot;gloss&quot; layer, but it's a very simple design overall. Unfortunately, there are a few dozen unused gradient definitions that increase the file size a bit that I haven't had time to hand-edit out of the file (shakes fist at Inkscape devs). Attribution requested, but not required. I'm just curious to see if anyone else finds this icon useful.</dc:description>
        <dc:source>https://openclipart.org/detail/20404/blue-tag-by-richardtallent</dc:source>
        <dc:creator>
          <cc:Agent>
            <dc:title>richardtallent</dc:title>
          </cc:Agent>
        </dc:creator>
        <dc:subject>
          <rdf:Bag>
            <rdf:li>blue</rdf:li>
            <rdf:li>category</rdf:li>
            <rdf:li>color</rdf:li>
            <rdf:li>gloss</rdf:li>
            <rdf:li>how i did it</rdf:li>
            <rdf:li>icon</rdf:li>
            <rdf:li>price</rdf:li>
            <rdf:li>tag</rdf:li>
            <rdf:li>tagging</rdf:li>
          </rdf:Bag>
        </dc:subject>
      </cc:Work>
      <cc:License
         rdf:about="http://creativecommons.org/licenses/publicdomain/">
        <cc:permits
           rdf:resource="http://creativecommons.org/ns#Reproduction" />
        <cc:permits
           rdf:resource="http://creativecommons.org/ns#Distribution" />
        <cc:permits
           rdf:resource="http://creativecommons.org/ns#DerivativeWorks" />
      </cc:License>
    </rdf:RDF>
  </metadata>
</svg>
