<?xml version="1.0" encoding="UTF-8" standalone="no"?>
<!-- Created with Inkscape (http://www.inkscape.org/) -->

<svg
   xmlns:dc="http://purl.org/dc/elements/1.1/"
   xmlns:cc="http://creativecommons.org/ns#"
   xmlns:rdf="http://www.w3.org/1999/02/22-rdf-syntax-ns#"
   xmlns:svg="http://www.w3.org/2000/svg"
   xmlns="http://www.w3.org/2000/svg"
   xmlns:xlink="http://www.w3.org/1999/xlink"
   xmlns:sodipodi="http://sodipodi.sourceforge.net/DTD/sodipodi-0.dtd"
   xmlns:inkscape="http://www.inkscape.org/namespaces/inkscape"
   id="svg3723"
   sodipodi:docname="stocks.svg"
   viewBox="0 0 48 48"
   sodipodi:version="0.32"
   version="1.1"
   inkscape:version="0.48.4 r9939"
   width="100%"
   height="100%"
   inkscape:export-filename="C:\Dev\icons\graphics\png\stocks_closed.png"
   inkscape:export-xdpi="30"
   inkscape:export-ydpi="30">
  <defs
     id="defs16">
    <linearGradient
       y2="163.08"
       x2="285.26999"
       y1="31.128"
       x1="218.42999"
       gradientTransform="matrix(0.5796782,0,0,0.60249865,-45.674124,778.44188)"
       gradientUnits="userSpaceOnUse"
       id="linearGradient3007"
       xlink:href="#linearGradient3436"
       inkscape:collect="always" />
    <linearGradient
       id="linearGradient3436"
       y2="163.08"
       gradientUnits="userSpaceOnUse"
       x2="285.26999"
       gradientTransform="matrix(0.15612491,0,0,0.19662201,374.08034,201.87352)"
       y1="31.128"
       x1="218.42999"
       inkscape:collect="always">
      <stop
         id="stop3432"
         style="stop-color:#d20101"
         offset="0" />
      <stop
         id="stop3434"
         style="stop-color:#b50707"
         offset="1" />
    </linearGradient>
    <linearGradient
       y2="163.08"
       x2="285.26999"
       y1="31.128"
       x1="218.42999"
       gradientTransform="matrix(0.118324,0,0,0.12298213,-9.6263903,-26.128312)"
       gradientUnits="userSpaceOnUse"
       id="linearGradient7439"
       xlink:href="#linearGradient3436"
       inkscape:collect="always" />
  </defs>
  <sodipodi:namedview
     id="base"
     bordercolor="#666666"
     inkscape:pageshadow="2"
     inkscape:window-y="64"
     pagecolor="#ffffff"
     inkscape:window-maximized="0"
     inkscape:window-width="947"
     inkscape:zoom="7.9497037"
     inkscape:window-x="377"
     showgrid="false"
     borderopacity="1.0"
     inkscape:current-layer="layer1"
     inkscape:cx="43.050491"
     inkscape:cy="26.981968"
     inkscape:window-height="707"
     inkscape:pageopacity="0.0"
     inkscape:document-units="px"
     showguides="true"
     inkscape:guide-bbox="true" />
  <g
     id="layer1"
     inkscape:label="Layer 1"
     inkscape:groupmode="layer"
     transform="translate(0.26044,22.5711)">
    <g
       id="g9227"
       inkscape:export-ydpi="72.000000"
       inkscape:export-xdpi="72.000000"
       inkscape:export-filename="/home/chef/eclipse/devOO/ressources/btnStatistiques.png"
       transform="matrix(1.9776223,0,0,2.6897176,-42.909615,-684.79379)">
      <rect
         id="rect7981"
         style="fill:none"
         ry="0.76783001"
         height="24.319"
         width="24.281"
         y="241.86"
         x="21.829" />
      <path
         id="path8603"
         inkscape:connector-curvature="0"
         sodipodi:nodetypes="cccc"
         style="fill:none;stroke:#11ff00;stroke-width:1.25;stroke-linecap:round;stroke-linejoin:round"
         d="m 22.514,261.01 c 5.174,-2.52 5.734,-2.38 8.391,-5.32 3.915,-1.11 -0.14,-3.07 7.551,-6.15 4.335,6.71 2.237,7.83 6.293,6.57" />
      <path
         id="path8604"
         inkscape:connector-curvature="0"
         sodipodi:nodetypes="ccc"
         style="fill:none;stroke:#ff0010;stroke-width:1.25;stroke-linecap:round;stroke-linejoin:round"
         d="m 22.514,260.87 c 9.09,-3.22 11.048,-4.76 14.544,-3.92 3.356,1.12 0.978,2.94 7.97,3.5" />
      <path
         id="path8605"
         style="fill:none;stroke:#1100ff;stroke-width:1.25;stroke-linecap:round;stroke-linejoin:round"
         inkscape:connector-curvature="0"
         d="m 22.934,249.54 c 2.377,6.29 2.657,7.41 3.356,5.87 0.699,-1.53 5.733,4.76 7.272,3.64 1.538,-1.12 11.187,0.98 11.187,0.98" />
    </g>
    <g
       id="g7846">
      <circle
         sodipodi:ry="61.708626"
         sodipodi:rx="61.708626"
         sodipodi:cy="408.11639"
         sodipodi:cx="-489.10181"
         d="m -427.39318,408.11639 c 0,34.08074 -27.62789,61.70863 -61.70863,61.70863 -34.08073,0 -61.70862,-27.62789 -61.70862,-61.70863 0,-34.08073 27.62789,-61.70862 61.70862,-61.70862 34.08074,0 61.70863,27.62789 61.70863,61.70862 z"
         r="61.708626"
         cx="-489.10181"
         cy="408.11639"
         transform="matrix(0,-0.16580783,0.17713489,0,-36.040246,-66.381346)"
         id="path4187"
         style="color:#000000;fill:#ff181e;fill-opacity:1;fill-rule:nonzero;stroke:#000000;stroke-width:4.58274555;stroke-linecap:round;stroke-linejoin:round;stroke-miterlimit:4;stroke-opacity:1;stroke-dasharray:none;stroke-dashoffset:0;visibility:visible;display:inline;overflow:visible;enable-background:accumulate" />
      <path
         inkscape:connector-curvature="0"
         id="rect4138"
         d="m 29.237241,10.963782 4.008105,3.751801 -4.008105,3.751806 3.006075,2.813843 4.008108,-3.751797 4.008105,3.751797 3.006078,-2.813843 -4.008106,-3.751806 4.008106,-3.751801 -3.006078,-2.8138496 -4.008105,3.7517996 -4.008108,-3.7517996 -3.006075,2.8138496 z"
         style="color:#000000;fill:#ffffff;fill-opacity:1;fill-rule:nonzero;stroke:#000000;stroke-width:0.78542453;stroke-linecap:round;stroke-linejoin:round;stroke-miterlimit:10;stroke-opacity:1;stroke-dasharray:none;stroke-dashoffset:0;visibility:visible;display:inline;overflow:visible;enable-background:accumulate" />
      <path
         inkscape:connector-curvature="0"
         id="path4199"
         d="m 31.8817,12.830393 c -0.133041,-0.0022 -0.269166,-0.0015 -0.409849,0.0046 -3.30373,0.134519 -6.150859,1.881089 -6.150859,1.881089 A 10.930752,10.231775 0 0 0 36.251274,24.947374 10.930752,10.231775 0 0 0 47.182351,14.716042 c 0,0 -3.713988,2.016924 -7.232957,2.01465 -3.387944,-0.0022 -3.943464,-3.827728 -8.067694,-3.90019 z"
         style="color:#000000;fill:#ffffff;fill-opacity:0.19148937;fill-rule:nonzero;stroke:none;visibility:visible;display:inline;overflow:visible;enable-background:accumulate" />
      <circle
         sodipodi:ry="61.708626"
         sodipodi:rx="61.708626"
         sodipodi:cy="408.11639"
         sodipodi:cx="-489.10181"
         d="m -427.39318,408.11639 c 0,34.08074 -27.62789,61.70863 -61.70863,61.70863 -34.08073,0 -61.70862,-27.62789 -61.70862,-61.70863 0,-34.08073 27.62789,-61.70862 61.70862,-61.70862 34.08074,0 61.70863,27.62789 61.70863,61.70862 z"
         r="61.708626"
         style="color:#000000;fill:none;stroke:#000000;stroke-width:4.58274555;stroke-linecap:round;stroke-linejoin:round;stroke-miterlimit:4;stroke-opacity:1;stroke-dasharray:none;stroke-dashoffset:0;visibility:visible;display:inline;overflow:visible;enable-background:accumulate"
         id="circle4206"
         transform="matrix(0,-0.16580783,0.17713489,0,-36.040246,-66.381346)"
         cy="408.11639"
         cx="-489.10181" />
    </g>
    <path
       id="path12952"
       sodipodi:nodetypes="ccscs"
       style="fill:url(#linearGradient7439);stroke:#720000;stroke-width:0.21371195"
       d="m 0.1365387,-16.457207 c -0.76229,7.7036097 8.063243,11.4330237 14.2714083,14.8162817 6.820055,-3.894134 15.543327,-6.437228 14.26441,-14.8162817 -1.128258,-7.393214 -12.209766,-6.932937 -14.270619,-2.488621 -3.130876,-4.543107 -13.59817234,-4.191626 -14.2651993,2.488539 z"
       inkscape:connector-curvature="0" />
  </g>
  <metadata
     id="metadata15">
    <rdf:RDF>
      <cc:Work>
        <dc:format>image/svg+xml</dc:format>
        <dc:type
           rdf:resource="http://purl.org/dc/dcmitype/StillImage" />
        <cc:license
           rdf:resource="http://creativecommons.org/licenses/publicdomain/" />
        <dc:publisher>
          <cc:Agent
             rdf:about="http://openclipart.org/">
            <dc:title>Openclipart</dc:title>
          </cc:Agent>
        </dc:publisher>
      </cc:Work>
      <cc:License
         rdf:about="http://creativecommons.org/licenses/publicdomain/">
        <cc:permits
           rdf:resource="http://creativecommons.org/ns#Reproduction" />
        <cc:permits
           rdf:resource="http://creativecommons.org/ns#Distribution" />
        <cc:permits
           rdf:resource="http://creativecommons.org/ns#DerivativeWorks" />
      </cc:License>
    </rdf:RDF>
  </metadata>
</svg>
