<?xml version="1.0" encoding="UTF-8" standalone="no"?>
<svg
   xmlns:dc="http://purl.org/dc/elements/1.1/"
   xmlns:cc="http://creativecommons.org/ns#"
   xmlns:rdf="http://www.w3.org/1999/02/22-rdf-syntax-ns#"
   xmlns:svg="http://www.w3.org/2000/svg"
   xmlns="http://www.w3.org/2000/svg"
   xmlns:xlink="http://www.w3.org/1999/xlink"
   xmlns:sodipodi="http://sodipodi.sourceforge.net/DTD/sodipodi-0.dtd"
   xmlns:inkscape="http://www.inkscape.org/namespaces/inkscape"
   id="svg2"
   viewBox="0 0 48 48"
   version="1.1"
   inkscape:version="0.48.4 r9939"
   width="100%"
   height="100%"
   sodipodi:docname="term.svg"
   inkscape:export-filename="C:\Dev\icons\graphics\png\term_closed.png"
   inkscape:export-xdpi="30"
   inkscape:export-ydpi="30">
  <sodipodi:namedview
     pagecolor="#ffffff"
     bordercolor="#666666"
     borderopacity="1"
     objecttolerance="10"
     gridtolerance="10"
     guidetolerance="10"
     inkscape:pageopacity="0"
     inkscape:pageshadow="2"
     inkscape:window-width="1078"
     inkscape:window-height="662"
     id="namedview7652"
     showgrid="false"
     inkscape:zoom="10.758281"
     inkscape:cx="36.781287"
     inkscape:cy="33.695889"
     inkscape:window-x="0"
     inkscape:window-y="0"
     inkscape:window-maximized="0"
     inkscape:current-layer="layer1" />
  <title
     id="title7979">Briefcase Vector Design</title>
  <defs
     id="defs4">
    <linearGradient
       id="linearGradient4337">
      <stop
         id="stop4339"
         stop-color="#0c0c0c"
         offset="0" />
      <stop
         id="stop4341"
         stop-color="#d8d8d8"
         offset=".48631" />
      <stop
         id="stop4343"
         offset="1" />
    </linearGradient>
    <linearGradient
       id="linearGradient3090">
      <stop
         id="stop3092"
         stop-color="#5e2600"
         offset="0" />
      <stop
         id="stop3870"
         stop-color="#d45500"
         offset=".40276" />
      <stop
         id="stop3868"
         stop-color="#f95"
         offset=".66667" />
      <stop
         id="stop3872"
         stop-color="#f67a26"
         offset=".75627" />
      <stop
         id="stop3094"
         stop-color="#803300"
         offset="1" />
    </linearGradient>
    <filter
       id="filter4018"
       color-interpolation-filters="sRGB">
      <feGaussianBlur
         id="feGaussianBlur4020"
         stdDeviation="0.46063455" />
    </filter>
    <clipPath
       id="clipPath4082"
       clipPathUnits="userSpaceOnUse">
      <path
         id="path4084"
         d="m 163.18,177.56 c -10.238,0 -18.503,8.2276 -18.503,18.457 0,0.84851 0.0737,1.6883 0.1835,2.5058 -0.1099,0.48111 -0.1835,0.98204 -0.1835,1.4974 v 46.357 c 0,3.6874 3.2177,5.3209 6.6673,6.6312 71.487,27.153 150.32,24.982 234.85,0 3.539,-1.0459 6.6673,-2.9438 6.6673,-6.6312 v -46.357 c 0,-0.53857 -0.0944,-1.0576 -0.2141,-1.5585 0.10482,-0.79906 0.2141,-1.6161 0.2141,-2.4447 0,-10.23 -8.2651,-18.457 -18.503,-18.457 h -211.18 z"
         inkscape:connector-curvature="0"
         style="fill:url(#linearGradient4086)" />
    </clipPath>
    <linearGradient
       id="linearGradient4086"
       x1="270"
       xlink:href="#linearGradient3090"
       gradientUnits="userSpaceOnUse"
       y1="262.35999"
       gradientTransform="matrix(0.97869,0,0,0.97787,1.3477,3.9299)"
       x2="270"
       y2="172.36" />
    <filter
       id="filter4100"
       color-interpolation-filters="sRGB">
      <feGaussianBlur
         id="feGaussianBlur4102"
         stdDeviation="0.40331013" />
    </filter>
    <clipPath
       id="clipPath4113"
       clipPathUnits="userSpaceOnUse">
      <path
         id="path4115"
         d="m 164.61,177.56 c -10.047,0 -18.158,8.2276 -18.158,18.457 0,0.84851 0.0723,1.6883 0.18007,2.5058 -0.10785,0.48111 -0.18007,0.98204 -0.18007,1.4974 v 46.357 c 0,3.6874 3.1575,5.3209 6.5427,6.6312 70.151,27.153 147.51,24.982 230.47,0 3.4728,-1.0459 6.5427,-2.9438 6.5427,-6.6312 v -46.357 c 0,-0.53857 -0.0926,-1.0576 -0.21009,-1.5585 0.10286,-0.79906 0.21009,-1.6161 0.21009,-2.4447 0,-10.23 -8.1106,-18.457 -18.158,-18.457 h -207.24 z"
         inkscape:connector-curvature="0"
         style="fill:url(#linearGradient4117)" />
    </clipPath>
    <linearGradient
       id="linearGradient4117"
       x1="270"
       xlink:href="#linearGradient3090"
       gradientUnits="userSpaceOnUse"
       y1="262.35999"
       gradientTransform="matrix(0.9604,0,0,0.97787,5.7999,3.9299)"
       x2="270"
       y2="172.36" />
    <filter
       id="filter4135"
       width="1.2948999"
       y="-0.071520999"
       x="-0.14744"
       height="1.143"
       color-interpolation-filters="sRGB">
      <feGaussianBlur
         id="feGaussianBlur4137"
         stdDeviation="3.0704877" />
    </filter>
    <filter
       id="filter4239"
       width="1.2069"
       y="-0.11297"
       x="-0.10345"
       height="1.2259001"
       color-interpolation-filters="sRGB">
      <feGaussianBlur
         id="feGaussianBlur4241"
         stdDeviation="2.4168003" />
    </filter>
    <filter
       id="filter4303"
       width="1.0401"
       y="-0.1758"
       x="-0.020052999"
       height="1.3516001"
       color-interpolation-filters="sRGB">
      <feGaussianBlur
         id="feGaussianBlur4305"
         stdDeviation="1.1037076" />
    </filter>
    <filter
       id="filter7992"
       width="1.1847"
       y="-0.74261999"
       x="-0.092366003"
       height="2.4851999"
       color-interpolation-filters="sRGB">
      <feGaussianBlur
         id="feGaussianBlur7994"
         stdDeviation="11.050946" />
    </filter>
    <radialGradient
       id="radialGradient10287"
       gradientUnits="userSpaceOnUse"
       cy="123.31"
       cx="268.32999"
       gradientTransform="matrix(-1.2593,0.20489,-0.045006,-0.30341,620.19,121.56)"
       r="66.046997">
      <stop
         id="stop4309"
         stop-color="#ff7f2a"
         offset="0" />
      <stop
         id="stop4311"
         stop-color="#520"
         offset="1" />
    </radialGradient>
    <linearGradient
       id="linearGradient10289"
       x1="309.17001"
       xlink:href="#linearGradient4337"
       gradientUnits="userSpaceOnUse"
       y1="172.00999"
       gradientTransform="matrix(0.71532,0,0,1.1995,-18.371,-26.344)"
       x2="327.54001"
       y2="171.75999" />
    <linearGradient
       id="linearGradient10291"
       x1="309.17001"
       xlink:href="#linearGradient4337"
       gradientUnits="userSpaceOnUse"
       y1="172.00999"
       gradientTransform="matrix(0.71532,0,0,1.1995,114.41,-26.344)"
       x2="327.54001"
       y2="171.75999" />
    <radialGradient
       id="radialGradient10293"
       gradientUnits="userSpaceOnUse"
       cy="299.14999"
       cx="273.31"
       gradientTransform="matrix(1.369,0.02313,-0.01522,0.81464,-83.096,45.96)"
       r="120.71">
      <stop
         id="stop4090"
         stop-color="#fe893d"
         offset="0" />
      <stop
         id="stop4092"
         stop-color="#d25400"
         offset=".5" />
      <stop
         id="stop4094"
         stop-color="#5e2600"
         offset="1" />
    </radialGradient>
    <linearGradient
       id="linearGradient10295"
       y2="306.35999"
       gradientUnits="userSpaceOnUse"
       y1="246.36"
       x2="284"
       x1="284">
      <stop
         id="stop7973"
         stop-color="#1c0b00"
         offset="0" />
      <stop
         id="stop7975"
         stop-color="#1c0b00"
         stop-opacity="0"
         offset="1" />
    </linearGradient>
    <linearGradient
       id="linearGradient10297"
       x1="270"
       xlink:href="#linearGradient3090"
       gradientUnits="userSpaceOnUse"
       y1="262.35999"
       gradientTransform="matrix(1.0809,0,0,0.97787,-11.842,3.9299)"
       x2="270"
       y2="172.36" />
    <linearGradient
       id="linearGradient10299"
       x1="270"
       gradientUnits="userSpaceOnUse"
       y1="262.35999"
       gradientTransform="matrix(1.1254,0,0,0.98775,-18.37,3.3872)"
       x2="270"
       y2="174.36">
      <stop
         id="stop4036"
         stop-color="#5e2600"
         offset="0" />
      <stop
         id="stop4038"
         stop-color="#d45500"
         offset=".4664" />
      <stop
         id="stop4040"
         stop-color="#f95"
         offset=".77881" />
      <stop
         id="stop4042"
         stop-color="#f67a26"
         offset=".86738" />
      <stop
         id="stop4044"
         stop-color="#803300"
         offset="1" />
    </linearGradient>
    <linearGradient
       id="linearGradient10301"
       x1="299.76001"
       gradientUnits="userSpaceOnUse"
       y1="308.70999"
       gradientTransform="matrix(1.1254,0,0,0.96948,-18.37,7.7464)"
       x2="180.82001"
       y2="293.94">
      <stop
         id="stop4171"
         stop-color="#1a1a1a"
         offset="0" />
      <stop
         id="stop4173"
         stop-color="#999"
         offset="1" />
    </linearGradient>
    <linearGradient
       id="linearGradient10303"
       x1="300.92999"
       gradientUnits="userSpaceOnUse"
       y1="252.63"
       gradientTransform="matrix(1.1254,0,0,1,-18.37,0)"
       x2="228.84"
       y2="307.64001">
      <stop
         id="stop4155"
         stop-color="#fff"
         offset="0" />
      <stop
         id="stop4157"
         stop-color="#333"
         offset="1" />
    </linearGradient>
    <linearGradient
       id="linearGradient10305"
       x1="311.63"
       gradientUnits="userSpaceOnUse"
       y1="240.2"
       gradientTransform="matrix(1.1254,0,0,1,-18.37,0)"
       x2="237.64"
       y2="304.85001">
      <stop
         id="stop4163"
         stop-color="#4d4d4d"
         offset="0" />
      <stop
         id="stop4165"
         stop-color="#fff"
         offset="1" />
    </linearGradient>
    <linearGradient
       id="linearGradient10307"
       x1="270"
       gradientUnits="userSpaceOnUse"
       y1="273.69"
       gradientTransform="matrix(1.1254,0,0,2.1083,-18.37,-303.66)"
       x2="270"
       y2="279.39001">
      <stop
         id="stop4181"
         stop-color="#333"
         offset="0" />
      <stop
         id="stop4183"
         stop-color="#1a1a1a"
         stop-opacity="0"
         offset="1" />
    </linearGradient>
    <linearGradient
       id="linearGradient10309"
       x1="265.85001"
       gradientUnits="userSpaceOnUse"
       y1="280.92999"
       gradientTransform="matrix(1.1254,0,0,0.96948,-18.37,7.7464)"
       x2="286.94"
       y2="261.64999">
      <stop
         id="stop4009"
         stop-color="#fff"
         offset="0" />
      <stop
         id="stop4011"
         stop-color="#999"
         stop-opacity="0"
         offset="1" />
    </linearGradient>
    <linearGradient
       inkscape:collect="always"
       xlink:href="#linearGradient10309"
       id="linearGradient7706"
       gradientUnits="userSpaceOnUse"
       gradientTransform="matrix(1.5666577,0,0,1.349603,-223.72284,505.18687)"
       x1="265.85001"
       y1="280.92999"
       x2="286.94"
       y2="261.64999" />
    <linearGradient
       inkscape:collect="always"
       xlink:href="#linearGradient10307"
       id="linearGradient7709"
       gradientUnits="userSpaceOnUse"
       gradientTransform="matrix(1.5666577,0,0,2.9349426,-223.72284,71.681232)"
       x1="270"
       y1="273.69"
       x2="270"
       y2="279.39001" />
    <linearGradient
       inkscape:collect="always"
       xlink:href="#linearGradient10305"
       id="linearGradient7712"
       gradientUnits="userSpaceOnUse"
       gradientTransform="matrix(1.5666577,0,0,1.3920897,-223.72284,494.40318)"
       x1="311.63"
       y1="240.2"
       x2="237.64"
       y2="304.85001" />
    <linearGradient
       inkscape:collect="always"
       xlink:href="#linearGradient10303"
       id="linearGradient7715"
       gradientUnits="userSpaceOnUse"
       gradientTransform="matrix(1.5666577,0,0,1.3920897,-223.72284,494.40318)"
       x1="300.92999"
       y1="252.63"
       x2="228.84"
       y2="307.64001" />
    <linearGradient
       inkscape:collect="always"
       xlink:href="#linearGradient10301"
       id="linearGradient7718"
       gradientUnits="userSpaceOnUse"
       gradientTransform="matrix(1.5666577,0,0,1.349603,-223.72284,505.18687)"
       x1="299.76001"
       y1="308.70999"
       x2="180.82001"
       y2="293.94" />
    <linearGradient
       inkscape:collect="always"
       xlink:href="#linearGradient10299"
       id="linearGradient7721"
       gradientUnits="userSpaceOnUse"
       gradientTransform="matrix(1.5666577,0,0,1.3750365,-223.72284,499.11847)"
       x1="270"
       y1="262.35999"
       x2="270"
       y2="174.36" />
    <linearGradient
       inkscape:collect="always"
       xlink:href="#linearGradient3090"
       id="linearGradient7729"
       gradientUnits="userSpaceOnUse"
       gradientTransform="matrix(1.5047097,0,0,1.3612827,-214.63529,499.87396)"
       x1="270"
       y1="262.35999"
       x2="270"
       y2="172.36" />
    <linearGradient
       inkscape:collect="always"
       xlink:href="#linearGradient10295"
       id="linearGradient7735"
       gradientUnits="userSpaceOnUse"
       x1="284"
       y1="246.36"
       x2="284"
       y2="306.35999"
       gradientTransform="matrix(1.3920897,0,0,1.3920897,-198.15016,494.40318)" />
    <radialGradient
       inkscape:collect="always"
       xlink:href="#radialGradient10293"
       id="radialGradient7739"
       gradientUnits="userSpaceOnUse"
       gradientTransform="matrix(1.9057708,0.03219904,-0.02118761,1.1340519,-313.82724,558.38362)"
       cx="273.31"
       cy="299.14999"
       r="120.71" />
    <radialGradient
       inkscape:collect="always"
       xlink:href="#radialGradient10287"
       id="radialGradient7748"
       gradientUnits="userSpaceOnUse"
       gradientTransform="matrix(-1.2593,0.20489,-0.045006,-0.30341,620.19,121.56)"
       cx="268.32999"
       cy="123.31"
       r="66.046997" />
    <linearGradient
       inkscape:collect="always"
       xlink:href="#linearGradient4337"
       id="linearGradient7750"
       gradientUnits="userSpaceOnUse"
       gradientTransform="matrix(0.71532,0,0,1.1995,-18.371,-26.344)"
       x1="309.17001"
       y1="172.00999"
       x2="327.54001"
       y2="171.75999" />
    <linearGradient
       inkscape:collect="always"
       xlink:href="#linearGradient4337"
       id="linearGradient7752"
       gradientUnits="userSpaceOnUse"
       gradientTransform="matrix(0.71532,0,0,1.1995,114.41,-26.344)"
       x1="309.17001"
       y1="172.00999"
       x2="327.54001"
       y2="171.75999" />
    <linearGradient
       y2="163.08"
       x2="285.26999"
       y1="31.128"
       x1="218.42999"
       gradientTransform="matrix(0.118324,0,0,0.12298213,-9.6263903,-26.128312)"
       gradientUnits="userSpaceOnUse"
       id="linearGradient7439"
       xlink:href="#linearGradient3436"
       inkscape:collect="always" />
    <linearGradient
       id="linearGradient3436"
       y2="163.08"
       gradientUnits="userSpaceOnUse"
       x2="285.26999"
       gradientTransform="matrix(0.15612491,0,0,0.19662201,374.08034,201.87352)"
       y1="31.128"
       x1="218.42999"
       inkscape:collect="always">
      <stop
         id="stop3432"
         style="stop-color:#d20101"
         offset="0" />
      <stop
         id="stop3434"
         style="stop-color:#b50707"
         offset="1" />
    </linearGradient>
    <linearGradient
       y2="163.08"
       x2="285.26999"
       y1="31.128"
       x1="218.42999"
       gradientTransform="matrix(0.97980577,0,0,1.0183784,-79.56517,629.20881)"
       gradientUnits="userSpaceOnUse"
       id="linearGradient7794"
       xlink:href="#linearGradient3436"
       inkscape:collect="always" />
  </defs>
  <g
     id="layer1"
     transform="matrix(0.12076271,0,0,0.12076271,0.42372272,-79.506068)">
    <g
       id="g4349"
       transform="matrix(1.4448499,0,0,1.3920897,-201.06785,494.40318)">
      <path
         id="rect4275"
         d="m 275.95,144.08 c -20.868,-0.0181 -44.952,6.4895 -72.214,18.043 0,0 -1.5591,2.3927 -1.6687,3.7865 -0.14534,1.8485 1.3972,5.3554 1.3972,5.3554 l 10.159,-0.72193 c 0,0 1.3711,-1.6994 2.2626,-2.2396 12.311,-7.4598 34.49,-11.282 40.671,-12.65 31.961,-5.0173 61,4.9044 78.831,12.045 1.5624,0.61833 1.0919,5.2777 1.0919,5.2777 l 10.439,-1.7116 c 0,0 1.3047,-2.798 1.3274,-4.3135 0.025,-1.6792 -1.3274,-4.8284 -1.3274,-4.8284 -22.088,-8.6042 -44.138,-18.02 -70.968,-18.043 z"
         inkscape:connector-curvature="0"
         style="fill:url(#radialGradient7748)" />
      <path
         id="path4345"
         d="m 203.46,168.47 c 3.6129,-3.1647 7.2258,-3.1182 10.839,0 v 36.35 H 203.46 z"
         inkscape:connector-curvature="0"
         style="fill:url(#linearGradient7750)" />
      <path
         id="rect4243"
         d="m 336.25,168.47 c 3.6129,-3.1647 7.2258,-3.1182 10.839,0 v 36.35 H 336.25 z"
         inkscape:connector-curvature="0"
         style="fill:url(#linearGradient7752)" />
      <path
         id="path4288"
         transform="matrix(1.086,0,0,1.1995,-16.211,-26.344)"
         d="m 270.06,146.4 c -24.244,-0.0705 -31.054,2.8109 -52.524,10.43 l -14.529,5.4531 11.463,-2.959 c 25.106,-8.509 35.526,-11.062 55.622,-11.046 23.796,0.019 34.016,4.9111 53.86,11.733 l 9.6493,1.5719 c -24.646,-8.9952 -44.709,-15.128 -63.541,-15.183 z"
         inkscape:connector-curvature="0"
         style="fill:#ff9955;filter:url(#filter4303)" />
    </g>
    <rect
       id="rect3082"
       ry="13.612826"
       height="243.83842"
       width="363.26581"
       y="782.84412"
       x="14.86741"
       style="fill:url(#radialGradient7739)" />
    <rect
       id="rect4187"
       transform="matrix(1.5666577,0,0,1.3920897,-223.72284,494.40318)"
       ry="0"
       height="51.341999"
       width="56.070999"
       y="253.78999"
       x="238.39999"
       style="fill:#552200;filter:url(#filter4239)" />
    <path
       id="rect3920"
       d="m 30.18039,782.872 c -8.487432,0 -15.324123,6.03138 -15.324123,13.57287 v 144.20658 c 53.988022,-11.99411 115.851083,-18.79321 181.639853,-18.79321 65.77067,0 127.66298,6.8055 181.63987,18.79321 V 796.44487 c 0,-7.54149 -6.83684,-13.57287 -15.32413,-13.57287 z"
       inkscape:connector-curvature="0"
       style="fill:url(#linearGradient7735)" />
    <path
       id="path4022"
       d="m 368.33,217.71 c -68.844,1.3875 -137.72,-0.70968 -206.56,1.0312 -1.7011,6.8541 1.2014,13.946 -0.14121,20.875 0.43574,44.505 -1.2149,89.144 0.89121,133.56 7.2999,1.491 14.877,-1.2636 22.281,0.0615 62.873,-0.64758 125.78,1.4573 188.63,-1.0615 1.0784,-7.6881 -1.1313,-15.465 -0.0611,-23.187 -0.60003,-43.689 1.6897,-87.7 -1.1889,-131.19 -1.2671,-0.21523 -2.5643,-0.18506 -3.8438,-0.0937 z"
       transform="matrix(1.5666577,0,0,1.3920897,-223.72284,494.40318)"
       inkscape:connector-curvature="0"
       style="fill:none;stroke:#090909;stroke-width:1.29999995;stroke-dasharray:3.9, 3.9;filter:url(#filter4018)" />
    <path
       id="path4012"
       d="m 368.33,217.71 c -68.844,1.3875 -137.72,-0.70968 -206.56,1.0312 -1.7011,6.8541 1.2014,13.946 -0.14121,20.875 0.43574,44.505 -1.2149,89.144 0.89121,133.56 7.2999,1.491 14.877,-1.2636 22.281,0.0615 62.873,-0.64758 125.78,1.4573 188.63,-1.0615 1.0784,-7.6881 -1.1313,-15.465 -0.0611,-23.187 -0.60003,-43.689 1.6897,-87.7 -1.1889,-131.19 -1.2671,-0.21523 -2.5643,-0.18506 -3.8438,-0.0937 z"
       transform="matrix(1.5666577,0,0,1.3920897,-223.72284,494.40318)"
       inkscape:connector-curvature="0"
       style="fill:none;stroke:#090909;stroke-width:1.29999995;stroke-dasharray:3.9, 3.9;filter:url(#filter4018)" />
    <path
       id="rect3996"
       d="m 354.43984,796.22214 c -107.85772,1.93153 -215.75999,-0.98793 -323.619089,1.43553 -2.665016,9.54152 1.882245,19.41408 -0.221231,29.05987 0.682681,61.95495 -1.903265,124.09644 1.396266,185.92746 11.436852,2.0756 23.307757,-1.759 34.90804,0.086 98.502874,-0.9015 197.050294,2.0287 295.526714,-1.4777 1.68958,-10.7025 -1.77241,-21.52863 -0.0958,-32.27836 -0.94005,-60.819 2.6472,-122.08626 -1.86261,-182.62824 -1.98512,-0.29961 -4.01743,-0.25761 -6.02203,-0.13044 z"
       inkscape:connector-curvature="0"
       style="fill:none;stroke:#e1a357;stroke-width:1.9198308;stroke-dasharray:5.75959159, 5.75959159" />
    <path
       id="rect3084"
       d="m 34.161767,741.58262 c -15.740358,0 -28.4473531,11.45356 -28.4473531,25.6938 0,1.18121 0.113313,2.35027 0.282121,3.4883 -0.168972,0.66975 -0.282121,1.36709 -0.282121,2.08452 v 64.53309 c 0,5.13319 4.9469291,7.40718 10.2505131,9.23123 109.905483,37.79941 231.114723,34.77718 361.066293,0 5.44084,-1.45599 10.25052,-4.09804 10.25052,-9.23123 v -64.53309 c 0,-0.74974 -0.14509,-1.47228 -0.32916,-2.16958 0.16115,-1.11235 0.32916,-2.24975 0.32916,-3.40324 0,-14.24108 -12.70686,-25.6938 -28.44736,-25.6938 H 34.157312 z"
       inkscape:connector-curvature="0"
       style="fill:url(#linearGradient7729)" />
    <g
       id="g4106"
       transform="matrix(1.5666577,0,0,1.3920897,-223.72284,494.40318)"
       clip-path="url(#clipPath4113)"
       style="fill:none;stroke-dasharray:4, 4">
      <path
         id="path4098"
         d="m 169.05,176.49 c -9.5677,0 -17.291,7.8558 -17.291,17.623 0,0.81017 0.0689,1.612 0.17147,2.3926 -0.1027,0.45936 -0.17147,0.93766 -0.17147,1.4297 v 44.262 c 0,3.5208 3.0069,5.0805 6.2306,6.3315 66.805,25.926 140.48,23.853 219.47,0 3.3072,-0.99862 6.2306,-2.8107 6.2306,-6.3315 v -44.262 c 0,-0.51424 -0.0882,-1.0098 -0.20007,-1.488 0.098,-0.76295 0.20007,-1.5431 0.20007,-2.3342 0,-9.7674 -7.7237,-17.623 -17.291,-17.623 h -197.35 z"
         inkscape:connector-curvature="0"
         style="stroke:#160f04;filter:url(#filter4100)" />
      <path
         id="path4104"
         d="m 169.05,176.49 c -9.5677,0 -17.291,7.8558 -17.291,17.623 0,0.81017 0.0689,1.612 0.17147,2.3926 -0.1027,0.45936 -0.17147,0.93766 -0.17147,1.4297 v 44.262 c 0,3.5208 3.0069,5.0805 6.2306,6.3315 66.805,25.926 140.48,23.853 219.47,0 3.3072,-0.99862 6.2306,-2.8107 6.2306,-6.3315 v -44.262 c 0,-0.51424 -0.0882,-1.0098 -0.20007,-1.488 0.098,-0.76295 0.20007,-1.5431 0.20007,-2.3342 0,-9.7674 -7.7237,-17.623 -17.291,-17.623 h -197.35 z"
         inkscape:connector-curvature="0"
         style="stroke:#160f04;filter:url(#filter4100)" />
      <path
         id="path4096"
         d="m 169.55,175.79 c -9.5677,0 -17.291,7.8558 -17.291,17.623 0,0.81017 0.0689,1.612 0.17147,2.3926 -0.1027,0.45936 -0.17147,0.93766 -0.17147,1.4297 v 44.262 c 0,3.5208 3.0069,5.0805 6.2306,6.3315 66.805,25.926 140.48,23.853 219.47,0 3.3072,-0.99862 6.2306,-2.8107 6.2306,-6.3315 v -44.262 c 0,-0.51424 -0.0882,-1.0098 -0.20007,-1.488 0.098,-0.76295 0.20007,-1.5431 0.20007,-2.3342 0,-9.7674 -7.7237,-17.623 -17.291,-17.623 h -197.35 z"
         inkscape:connector-curvature="0"
         style="stroke:#e2a85d" />
    </g>
    <rect
       id="rect4046"
       transform="matrix(1.5374238,0,0,1.3920897,-216.70811,494.40318)"
       clip-path="url(#clipPath4082)"
       ry="2.9600999"
       height="103.04"
       width="49.981998"
       y="173.36"
       x="243.23"
       style="fill:#481d00;filter:url(#filter4135)" />
    <rect
       id="rect4024"
       ry="4.0703306"
       height="141.67296"
       width="66.436089"
       y="737.48987"
       x="163.29202"
       style="fill:url(#linearGradient7721)" />
    <rect
       id="rect4139"
       ry="0"
       height="66.998489"
       width="76.656815"
       y="847.70154"
       x="158.18303"
       style="fill:url(#linearGradient7718)" />
    <rect
       id="rect4149"
       ry="0"
       height="61.650082"
       width="76.656815"
       y="847.70154"
       x="158.18303"
       style="fill:url(#linearGradient7715)" />
    <rect
       id="rect4151"
       ry="0"
       height="55.538807"
       width="69.057388"
       y="850.76422"
       x="161.98344"
       style="fill:url(#linearGradient7712)" />
    <rect
       id="rect4177"
       ry="0"
       height="18.056795"
       width="76.656815"
       y="875.82178"
       x="158.18303"
       style="fill:url(#linearGradient7709)" />
    <path
       id="rect4000"
       d="m 162.79085,847.6877 c 6.10264,2.5297 12.20542,5.49806 18.27118,8.918 24.61493,13.87845 43.44712,32.38001 53.76946,50.85443 v -59.77355 h -72.04064 z"
       inkscape:connector-curvature="0"
       style="fill:url(#linearGradient7706)" />
    <path
       id="path12952"
       sodipodi:nodetypes="ccscs"
       style="fill:url(#linearGradient7794);stroke:#720000;stroke-width:1.76968491"
       d="M 1.2787307,709.29234 C -5.0335593,773.08364 68.048041,803.96581 119.45601,831.98156 175.93086,799.7354 248.16567,778.67679 237.57534,709.29234 228.23257,648.07134 136.46991,651.88276 119.4046,688.68482 93.478751,651.0647 6.8021807,653.97521 1.2787307,709.29167 z"
       inkscape:connector-curvature="0" />
    <g
       id="g7840"
       transform="translate(-178.54604,-33.020617)">
      <circle
         sodipodi:ry="61.708626"
         sodipodi:rx="61.708626"
         sodipodi:cy="408.11639"
         sodipodi:cx="-489.10181"
         d="m -427.39318,408.11639 c 0,34.08074 -27.62789,61.70863 -61.70863,61.70863 -34.08073,0 -61.70862,-27.62789 -61.70862,-61.70863 0,-34.08073 27.62789,-61.70862 61.70862,-61.70862 34.08074,0 61.70863,27.62789 61.70863,61.70862 z"
         r="61.708626"
         cx="-489.10181"
         cy="408.11639"
         transform="matrix(0,-1.3730052,1.4668012,0,-121.85363,327.16357)"
         id="path4187"
         style="color:#000000;fill:#ff181e;fill-opacity:1;fill-rule:nonzero;stroke:#000000;stroke-width:4.58274555;stroke-linecap:round;stroke-linejoin:round;stroke-miterlimit:4;stroke-opacity:1;stroke-dasharray:none;stroke-dashoffset:0;visibility:visible;display:inline;overflow:visible;enable-background:accumulate" />
      <path
         inkscape:connector-curvature="0"
         id="rect4138"
         d="m 418.68978,967.63551 33.18992,31.06755 -33.18992,31.06764 24.89241,23.3005 33.18995,-31.0675 33.18992,31.0675 24.89244,-23.3005 -33.18994,-31.06764 33.18994,-31.06755 -24.89244,-23.30065 -33.18992,31.06754 -33.18995,-31.06754 -24.89241,23.30065 z"
         style="color:#000000;fill:#ffffff;fill-opacity:1;fill-rule:nonzero;stroke:#000000;stroke-width:6.5038662;stroke-linecap:round;stroke-linejoin:round;stroke-miterlimit:10;stroke-opacity:1;stroke-dasharray:none;stroke-dashoffset:0;visibility:visible;display:inline;overflow:visible;enable-background:accumulate" />
      <path
         inkscape:connector-curvature="0"
         id="path4199"
         d="m 440.58775,983.09236 c -1.10167,-0.0182 -2.22888,-0.0124 -3.39384,0.0381 -27.3572,1.11391 -50.93343,15.57674 -50.93343,15.57674 a 90.514299,84.726279 0 0 0 90.51042,84.7223 90.514299,84.726279 0 0 0 90.51698,-84.72264 c 0,0 -30.75442,16.70154 -59.89396,16.68274 -28.05455,-0.018 -32.65464,-31.6963 -66.80617,-32.29634 z"
         style="color:#000000;fill:#ffffff;fill-opacity:0.19148937;fill-rule:nonzero;stroke:none;visibility:visible;display:inline;overflow:visible;enable-background:accumulate" />
      <circle
         sodipodi:ry="61.708626"
         sodipodi:rx="61.708626"
         sodipodi:cy="408.11639"
         sodipodi:cx="-489.10181"
         d="m -427.39318,408.11639 c 0,34.08074 -27.62789,61.70863 -61.70863,61.70863 -34.08073,0 -61.70862,-27.62789 -61.70862,-61.70863 0,-34.08073 27.62789,-61.70862 61.70862,-61.70862 34.08074,0 61.70863,27.62789 61.70863,61.70862 z"
         r="61.708626"
         style="color:#000000;fill:none;stroke:#000000;stroke-width:4.58274555;stroke-linecap:round;stroke-linejoin:round;stroke-miterlimit:4;stroke-opacity:1;stroke-dasharray:none;stroke-dashoffset:0;visibility:visible;display:inline;overflow:visible;enable-background:accumulate"
         id="circle4206"
         transform="matrix(0,-1.3730052,1.4668012,0,-121.85363,327.16357)"
         cy="408.11639"
         cx="-489.10181" />
    </g>
  </g>
  <metadata
     id="metadata7650">
    <rdf:RDF>
      <cc:Work>
        <dc:format>image/svg+xml</dc:format>
        <dc:type
           rdf:resource="http://purl.org/dc/dcmitype/StillImage" />
        <cc:license
           rdf:resource="http://creativecommons.org/licenses/publicdomain/" />
        <dc:publisher>
          <cc:Agent
             rdf:about="http://openclipart.org/">
            <dc:title>Openclipart</dc:title>
          </cc:Agent>
        </dc:publisher>
        <dc:title>Briefcase Vector</dc:title>
        <dc:date>2013-05-25T11:50:13</dc:date>
        <dc:description>This is a briefcase. I made in inkscape software.\nMy blog http://desainew.blogspot.com\nIrfan Prastiyanto</dc:description>
        <dc:source>https://openclipart.org/detail/178599/briefcase-vector-by-irfanow-178599</dc:source>
        <dc:creator>
          <cc:Agent>
            <dc:title>irfanow</dc:title>
          </cc:Agent>
        </dc:creator>
        <dc:subject>
          <rdf:Bag>
            <rdf:li>briefcase</rdf:li>
            <rdf:li>desainew</rdf:li>
            <rdf:li>design</rdf:li>
            <rdf:li>inkscape</rdf:li>
            <rdf:li>kantor</rdf:li>
            <rdf:li>tas</rdf:li>
            <rdf:li>vector</rdf:li>
          </rdf:Bag>
        </dc:subject>
      </cc:Work>
      <cc:License
         rdf:about="http://creativecommons.org/licenses/publicdomain/">
        <cc:permits
           rdf:resource="http://creativecommons.org/ns#Reproduction" />
        <cc:permits
           rdf:resource="http://creativecommons.org/ns#Distribution" />
        <cc:permits
           rdf:resource="http://creativecommons.org/ns#DerivativeWorks" />
      </cc:License>
    </rdf:RDF>
  </metadata>
</svg>
