<svg width="24px" height="24px" viewBox="0 0 24 24" fill="none" xmlns="http://www.w3.org/2000/svg">
<path opacity="0.15" d="M4 6C4 5.44771 4.44772 5 5 5H19C19.5523 5 20 5.44772 20 6V15C20 15.5523 19.5523 16 19 16H5C4.44772 16 4 15.5523 4 15V6Z" fill="#006633"/>
<path d="M12 16V20M12 20H16M12 20H8M5 16H19C19.5523 16 20 15.5523 20 15V6C20 5.44772 19.5523 5 19 5H5C4.44772 5 4 5.44771 4 6V15C4 15.5523 4.44772 16 5 16Z" stroke="#006633" stroke-width="1.5" stroke-linecap="round" stroke-linejoin="round"/>
</svg>
