<svg width="24px" height="24px" viewBox="0 0 24 24" fill="#006633" xmlns="http://www.w3.org/2000/svg">
  <path
     fill="#006633"
     d="M 6.221361,10 4.2464851,17.601108 V 8.099723 H 20.233575 A 1.8808342,1.9002771 0 0 0 18.352741,6.1994459 H 11.769822 L 9.888987,4.299169 H 4.2464851 A 1.8808342,1.9002771 0 0 0 2.365651,6.1994459 V 17.601108 a 1.8808342,1.9002771 0 0 0 1.8808341,1.900277 H 18.352741 c 0.846376,0 1.598709,-0.570083 1.786792,-1.425208 L 22.302493,10 H 6.221361 m 12.13138,7.601108 H 6.1273193 L 7.6319867,11.900277 H 19.857408 Z"
     style="stroke-width:0.945265" />
  <path
     style="opacity:0.15434084;fill:#006633;fill-opacity:1;stroke:none;stroke-width:0.0246245;stroke-opacity:1"
     d="m 6.1497356,17.592798 c 6.044e-4,-0.03324 1.4925198,-5.650566 1.5037184,-5.661764 0.00787,-0.0079 2.750704,-0.01054 6.095181,-0.0059 l 6.080866,0.0084 -0.747471,2.833795 -0.74747,2.833795 h -6.092488 c -3.3508681,0 -6.0924195,-0.0037 -6.0923364,-0.0083 z" />
</svg>
