<svg width="24px" height="24px" viewBox="0 0 24 24" fill="none" xmlns="http://www.w3.org/2000/svg">
<g
   id="g876"
   transform="matrix(0.04069706,0,0,0.04069706,1.7968687,1.5467678)"
   style="fill:#194f82;fill-opacity:1">
	<path
   style="fill:#194f82;fill-opacity:1"
   d="m 235.44,10.661 -73.984,102.444 c -8.43,11.67 -0.088,27.992 14.31,27.992 h 53.751 V 238.2 H 150.069 C 91.56,238.2 44.138,285.622 44.138,344.131 v 35.31 c -25.212,10.214 -43.202,33.315 -44.103,61.793 -1.103,34.86 24.241,64.018 58.668,69.641 44.27,7.239 82.538,-26.739 82.538,-69.641 0,-29.634 -18.273,-51.315 -44.138,-61.793 v -35.31 c 0,-29.255 23.711,-52.966 52.965,-52.966 h 79.448 v 88.276 c -25.212,10.214 -43.202,33.315 -44.103,61.793 -1.103,34.86 24.241,64.018 58.668,69.641 44.27,7.239 82.538,-26.739 82.538,-69.641 0,-29.634 -18.273,-51.315 -44.138,-61.793 v -88.276 h 79.448 c 29.255,0 52.966,23.711 52.966,52.966 v 35.31 c -25.212,10.214 -43.202,33.315 -44.103,61.793 -1.103,34.86 24.241,64.018 58.668,69.641 44.27,7.239 82.538,-26.739 82.538,-69.641 0,-29.634 -18.273,-51.315 -44.138,-61.793 v -35.31 C 467.86,285.622 420.429,238.2 361.929,238.2 H 291.31 v -97.103 h 44.915 c 14.407,0 22.749,-16.322 14.318,-27.992 L 276.559,10.661 c -10.125,-14.019 -30.994,-14.019 -41.119,0"
   id="path874" />
</g>
<g
   id="g878"
   transform="matrix(0.04069706,0,0,0.04069706,1.7968687,1.5467678)"
   style="fill:#194f82;fill-opacity:1">
</g>
<g
   id="g880"
   transform="matrix(0.04069706,0,0,0.04069706,1.7968687,1.5467678)"
   style="fill:#194f82;fill-opacity:1">
</g>
<g
   id="g882"
   transform="matrix(0.04069706,0,0,0.04069706,1.7968687,1.5467678)"
   style="fill:#194f82;fill-opacity:1">
</g>
<g
   id="g884"
   transform="matrix(0.04069706,0,0,0.04069706,1.7968687,1.5467678)"
   style="fill:#194f82;fill-opacity:1">
</g>
<g
   id="g886"
   transform="matrix(0.04069706,0,0,0.04069706,1.7968687,1.5467678)"
   style="fill:#194f82;fill-opacity:1">
</g>
<g
   id="g888"
   transform="matrix(0.04069706,0,0,0.04069706,1.7968687,1.5467678)"
   style="fill:#194f82;fill-opacity:1">
</g>
<g
   id="g890"
   transform="matrix(0.04069706,0,0,0.04069706,1.7968687,1.5467678)"
   style="fill:#194f82;fill-opacity:1">
</g>
<g
   id="g892"
   transform="matrix(0.04069706,0,0,0.04069706,1.7968687,1.5467678)"
   style="fill:#194f82;fill-opacity:1">
</g>
<g
   id="g894"
   transform="matrix(0.04069706,0,0,0.04069706,1.7968687,1.5467678)"
   style="fill:#194f82;fill-opacity:1">
</g>
<g
   id="g896"
   transform="matrix(0.04069706,0,0,0.04069706,1.7968687,1.5467678)"
   style="fill:#194f82;fill-opacity:1">
</g>
<g
   id="g898"
   transform="matrix(0.04069706,0,0,0.04069706,1.7968687,1.5467678)"
   style="fill:#194f82;fill-opacity:1">
</g>
<g
   id="g900"
   transform="matrix(0.04069706,0,0,0.04069706,1.7968687,1.5467678)"
   style="fill:#194f82;fill-opacity:1">
</g>
<g
   id="g902"
   transform="matrix(0.04069706,0,0,0.04069706,1.7968687,1.5467678)"
   style="fill:#194f82;fill-opacity:1">
</g>
<g
   id="g904"
   transform="matrix(0.04069706,0,0,0.04069706,1.7968687,1.5467678)"
   style="fill:#194f82;fill-opacity:1">
</g>
<g
   id="g906"
   transform="matrix(0.04069706,0,0,0.04069706,1.7968687,1.5467678)"
   style="fill:#194f82;fill-opacity:1">
</g>
</svg>
