<svg width="24px" height="24px" viewBox="0 0 24 24" fill="none" xmlns="http://www.w3.org/2000/svg">
<path opacity="0.15" d="M4 6C4 4.89543 4.89543 4 6 4H14.1716C14.702 4 15.2107 4.21071 15.5858 4.58579L19.4142 8.41421C19.7893 8.78929 20 9.29799 20 9.82843V18C20 19.1046 19.1046 20 18 20H6C4.89543 20 4 19.1046 4 18V6Z" fill="#194f82"/>
<path d="M15 20V15H9V20M20 9.82843V18C20 19.1046 19.1046 20 18 20H6C4.89543 20 4 19.1046 4 18V6C4 4.89543 4.89543 4 6 4H14.1716C14.702 4 15.2107 4.21071 15.5858 4.58579L19.4142 8.41421C19.7893 8.78929 20 9.29799 20 9.82843Z" stroke="#194f82" stroke-width="2.0" stroke-linecap="round" stroke-linejoin="round"/>
</svg>
