<svg width="24px" height="24px" viewBox="0 0 24 24" fill="none" xmlns="http://www.w3.org/2000/svg">
<path
   style="fill:#56ace0;stroke-width:0.05"
   d="m 4.348579,3.4438543 1.7752597,1.7615682 c 0.00363,0 0.014514,0 0.018102,0 h 5.4489033 c 0.336928,0 0.612265,0.2718212 0.612265,0.6125509 0,0.3370854 -0.271692,0.6125512 -0.612265,0.6125512 H 7.352011 l 1.2354018,1.2215138 h 1.7788462 c 0.336928,0 0.612264,0.2718213 0.612264,0.6125511 0,0.3370852 -0.271692,0.6125512 -0.612264,0.6125512 H 9.8155852 l 2.1774208,2.1493953 7.633555,-7.5791494 z"
   id="path1116" />
<path
   style="fill:#194f82;stroke-width:0.05"
   d="M 20.952582,1.0008266 H 3.0261991 c -1.7136687,0 -2.68824858,1.8775744 -1.5035092,3.0882108 l 7.9415084,7.8727256 v 10.43176 c 0.00363,0.398704 0.4239061,0.750312 0.8513987,0.561808 l 3.833084,-1.656438 c 0.22462,-0.09426 0.369546,-0.315332 0.369546,-0.561809 V 11.961763 L 22.456092,4.0890374 C 23.65529,2.8928667 22.745945,1.0008266 20.952582,1.0008266 Z m 0.64124,2.2183041 -8.115408,8.0539393 c -0.115953,0.112362 -0.181129,0.271822 -0.181129,0.434983 v 8.630271 l -2.612144,1.127262 v -9.757533 c 0,-0.163106 -0.06523,-0.318976 -0.181128,-0.434983 L 2.3885472,3.2191307 C 1.9212085,2.7261743 2.4501379,2.1933529 3.0297858,2.2223406 H 20.952527 c 0.641295,-0.01811 1.083302,0.5944408 0.641295,0.9967901 z"
   id="path1118" />
</svg>
