<svg width="24px" height="24px" viewBox="0 0 24 24" fill="none" xmlns="http://www.w3.org/2000/svg">
<g opacity="0.15">
<path d="M3 6C3 7.65685 4.34315 9 6 9H9V6C9 4.34315 7.65685 3 6 3C4.34315 3 3 4.34315 3 6Z" fill="#006633"/>
<path d="M18 3C16.3431 3 15 4.34315 15 6V9H18C19.6569 9 21 7.65685 21 6C21 4.34315 19.6569 3 18 3Z" fill="#006633"/>
<path d="M21 18C21 16.3431 19.6569 15 18 15H15V18C15 19.6569 16.3431 21 18 21C19.6569 21 21 19.6569 21 18Z" fill="#006633"/>
<path d="M6 21C7.65685 21 9 19.6569 9 18L9 15L6 15C4.34315 15 3 16.3431 3 18C3 19.6569 4.34315 21 6 21Z" fill="#006633"/>
</g>
<path d="M9 9H15M9 9V15M9 9V6C9 4.34315 7.65685 3 6 3C4.34315 3 3 4.34315 3 6C3 7.65685 4.34315 9 6 9H9ZM15 9V15M15 9H18C19.6569 9 21 7.65685 21 6C21 4.34315 19.6569 3 18 3C16.3431 3 15 4.34315 15 6V9ZM15 15H9M15 15V18C15 19.6569 16.3431 21 18 21C19.6569 21 21 19.6569 21 18C21 16.3431 19.6569 15 18 15H15ZM9 15L6 15C4.34315 15 3 16.3431 3 18C3 19.6569 4.34315 21 6 21C7.65685 21 9 19.6569 9 18L9 15Z" stroke="#006633" stroke-width="1.5"/>
</svg>
