<svg width="24px" height="24px" viewBox="0 0 24 24" fill="none" xmlns="http://www.w3.org/2000/svg">
<path opacity="0.2" fill-rule="evenodd" clip-rule="evenodd" d="M4 7C3.44772 7 3 7.44772 3 8V16C3 16.5523 3.44772 17 4 17H20C20.5523 17 21 16.5523 21 16V8C21 7.44772 20.5523 7 20 7H4ZM12 14.5C13.3807 14.5 14.5 13.3807 14.5 12C14.5 10.6193 13.3807 9.5 12 9.5C10.6193 9.5 9.5 10.6193 9.5 12C9.5 13.3807 10.6193 14.5 12 14.5Z" fill="#006633"/>
<path d="M18 9.5V14.5M6 9.5V14.5M4 17H20C20.5523 17 21 16.5523 21 16V8C21 7.44772 20.5523 7 20 7H4C3.44772 7 3 7.44772 3 8V16C3 16.5523 3.44772 17 4 17ZM14.5 12C14.5 13.3807 13.3807 14.5 12 14.5C10.6193 14.5 9.5 13.3807 9.5 12C9.5 10.6193 10.6193 9.5 12 9.5C13.3807 9.5 14.5 10.6193 14.5 12Z" stroke="#006633" stroke-width="1.5" stroke-linecap="round" stroke-linejoin="round"/>
</svg>
