<?xml version="1.0" encoding="UTF-8" standalone="no"?>
<svg
   xmlns:dc="http://purl.org/dc/elements/1.1/"
   xmlns:cc="http://creativecommons.org/ns#"
   xmlns:rdf="http://www.w3.org/1999/02/22-rdf-syntax-ns#"
   xmlns:svg="http://www.w3.org/2000/svg"
   xmlns="http://www.w3.org/2000/svg"
   xmlns:sodipodi="http://sodipodi.sourceforge.net/DTD/sodipodi-0.dtd"
   xmlns:inkscape="http://www.inkscape.org/namespaces/inkscape"
   version="1.1"
   id="Layer_1"
   x="0px"
   y="0px"
   viewBox="0 0 24 24"
   xml:space="preserve"
   sodipodi:docname="property.svg"
   width="24"
   height="24"
   inkscape:version="1.0.2-2 (e86c870879, 2021-01-15)"><metadata
   id="metadata11199"><rdf:RDF><cc:Work
       rdf:about=""><dc:format>image/svg+xml</dc:format><dc:type
         rdf:resource="http://purl.org/dc/dcmitype/StillImage" /><dc:title></dc:title></cc:Work></rdf:RDF></metadata><defs
   id="defs11197" /><sodipodi:namedview
   pagecolor="#ffffff"
   bordercolor="#666666"
   borderopacity="1"
   objecttolerance="10"
   gridtolerance="10"
   guidetolerance="10"
   inkscape:pageopacity="0"
   inkscape:pageshadow="2"
   inkscape:window-width="1686"
   inkscape:window-height="885"
   id="namedview11195"
   showgrid="false"
   inkscape:zoom="7.718061"
   inkscape:cx="46.435796"
   inkscape:cy="39.597878"
   inkscape:window-x="0"
   inkscape:window-y="0"
   inkscape:window-maximized="0"
   inkscape:current-layer="Layer_1" />
<path
   style="fill:#006633;stroke:none;stroke-width:1px;stroke-linecap:butt;stroke-linejoin:miter;stroke-opacity:1;fill-opacity:1;opacity:0.15"
   d="M 4.8476266,20.123161 V 8.4308479 L 12.121172,3.69838 19.394761,8.4308479 V 20.123161 Z"
   id="path11774" /><path
   style="fill:#ffffff;stroke:none;stroke-width:1px;stroke-linecap:butt;stroke-linejoin:miter;stroke-opacity:1;fill-opacity:1"
   d="m 8.4621117,11.591133 h 7.0066673 v 5.605335 H 8.4621117 Z"
   id="path11776" /><g
   id="g11156"
   transform="matrix(0.04464845,0,0,0.04464845,0.69107919,0.38046443)">
	<g
   id="g11154">
		<path
   d="M 488.727,442.181 H 465.454 V 210.59 l 10.58,6.884 c 3.919,2.551 8.319,3.769 12.671,3.769 7.609,0 15.068,-3.73 19.529,-10.583 7.01,-10.774 3.958,-25.19 -6.816,-32.2 L 268.694,27.041 c -7.719,-5.021 -17.669,-5.021 -25.384,0 L 56.825,148.374 c -0.008,0.005 -0.016,0.009 -0.023,0.016 l -46.219,30.071 c -10.774,7.01 -13.824,21.426 -6.814,32.2 7.01,10.772 21.428,13.827 32.2,6.814 l 10.58,-6.884 V 442.182 H 23.276 c -12.853,0 -23.273,10.42 -23.273,23.273 0,12.853 10.42,23.273 23.273,23.273 h 46.545 372.36 46.545 c 12.853,0 23.273,-10.42 23.273,-23.273 C 512,452.6 501.58,442.181 488.727,442.181 Z m -69.817,0 H 93.095 V 180.306 L 256.002,74.312 418.91,180.306 Z"
   id="path11152"
   style="fill:#006633;fill-opacity:1;stroke:#006633;stroke-opacity:1" />
	</g>
</g>

<g
   id="g11164"
   transform="matrix(0.04464845,0,0,0.04464845,0.69107919,0.38046443)">
</g>
<g
   id="g11166"
   transform="matrix(0.04464845,0,0,0.04464845,0.69107919,0.38046443)">
</g>
<g
   id="g11168"
   transform="matrix(0.04464845,0,0,0.04464845,0.69107919,0.38046443)">
</g>
<g
   id="g11170"
   transform="matrix(0.04464845,0,0,0.04464845,0.69107919,0.38046443)">
</g>
<g
   id="g11172"
   transform="matrix(0.04464845,0,0,0.04464845,0.69107919,0.38046443)">
</g>
<g
   id="g11174"
   transform="matrix(0.04464845,0,0,0.04464845,0.69107919,0.38046443)">
</g>
<g
   id="g11176"
   transform="matrix(0.04464845,0,0,0.04464845,0.69107919,0.38046443)">
</g>
<g
   id="g11178"
   transform="matrix(0.04464845,0,0,0.04464845,0.69107919,0.38046443)">
</g>
<g
   id="g11180"
   transform="matrix(0.04464845,0,0,0.04464845,0.69107919,0.38046443)">
</g>
<g
   id="g11182"
   transform="matrix(0.04464845,0,0,0.04464845,0.69107919,0.38046443)">
</g>
<g
   id="g11184"
   transform="matrix(0.04464845,0,0,0.04464845,0.69107919,0.38046443)">
</g>
<g
   id="g11186"
   transform="matrix(0.04464845,0,0,0.04464845,0.69107919,0.38046443)">
</g>
<g
   id="g11188"
   transform="matrix(0.04464845,0,0,0.04464845,0.69107919,0.38046443)">
</g>
<g
   id="g11190"
   transform="matrix(0.04464845,0,0,0.04464845,0.69107919,0.38046443)">
</g>
<g
   id="g11192"
   transform="matrix(0.04464845,0,0,0.04464845,0.69107919,0.38046443)">
</g>
<path
   style="opacity:1;fill:none;stroke:#006633;stroke-width:1.72;stroke-linecap:butt;stroke-linejoin:round;stroke-miterlimit:4;stroke-dasharray:none;stroke-opacity:1"
   d="m 8.4621117,11.591133 h 7.0066673 v 5.605335 H 8.4621117 Z"
   id="path11764" /></svg>
