/* XPM */
static const char * about_xpm[] = {
"16 16 75 1",
" 	c None",
".	c #000000",
"+	c #666666",
"@	c #FFF7B1",
"#	c #FFF3B0",
"$	c #FFED9A",
"%	c #FFEEA3",
"&	c #FFE889",
"*	c #FFE183",
"=	c #FFE189",
"-	c #FFE492",
";	c #FFD96C",
">	c #FFD972",
",	c #FFD978",
"'	c #FFDA7F",
")	c #FFD660",
"!	c #FFD258",
"~	c #FFD157",
"{	c #FFCE54",
"]	c #FFCD55",
"^	c #FFCD57",
"/	c #FFCC5A",
"(	c #FFCB5D",
"_	c #FFCB62",
":	c #FFCC67",
"<	c #FFCA68",
"[	c #FFCB6D",
"}	c #FFC442",
"|	c #FFC038",
"1	c #FFBF33",
"2	c #FFBD2F",
"3	c #FFBB2C",
"4	c #FFB82B",
"5	c #FFB62B",
"6	c #FFB32D",
"7	c #FFB230",
"8	c #FFB53D",
"9	c #FFB629",
"0	c #FFB527",
"a	c #FFB428",
"b	c #FFB327",
"c	c #FFB127",
"d	c #FFAE25",
"e	c #FFAB23",
"f	c #FFA822",
"g	c #FFAD26",
"h	c #FFAC25",
"i	c #FFAA25",
"j	c #FFA823",
"k	c #FFA622",
"l	c #FEAD2F",
"m	c #FFA723",
"n	c #FFA522",
"o	c #FFA322",
"p	c #FFA121",
"q	c #FF9F20",
"r	c #AB8147",
"s	c #FFA020",
"t	c #FFA021",
"u	c #FF9E20",
"v	c #FF9B1D",
"w	c #FF981D",
"x	c #AA7B45",
"y	c #FD9B1E",
"z	c #FF9C21",
"A	c #FF9921",
"B	c #FF9521",
"C	c #FF941E",
"D	c #FD8F19",
"E	c #FF9A29",
"F	c #EC8F2A",
"G	c #F08B27",
"H	c #FF9025",
"I	c #ABABAB",
"J	c #AAAAAA",
"       ++       ",
"       ++       ",
"      +@#+      ",
"      +$%+      ",
"     +&*=-+     ",
"++++++;>,'++++++",
" +)!~{]^/(_:<[+ ",
"  +}|12345678+  ",
"   +90abcdef+   ",
"    +gghijk+    ",
"    +lmnopq+    ",
"    rsstuvwx    ",
"   +yzA++BCD+   ",
"   +EF+  +GH+   ",
"   +++    +++   ",
"  II        JI  "};
