/* XPM */
static const char *accounttree_xpm[] = {
/* columns rows colors const chars-per-pixel */
"16 16 14 1",
". c Black",
"+ c #7D7042",
"% c #887948",
"X c #F9F3DD",
"* c #665B36",
"  c None",
"$ c #B4A160",
"& c #6D6139",
"O c #93844E",
"# c #F7ECC6",
"- c #F5E6B5",
"o c #EED680",
"= c #F8F0D3",
"@ c #52492B",
/* pixels */
"       ...      ",
"      .Xoo.     ",
"      .O+@...   ",
"      .#$.Xoo.  ",
"      .$%.O+&.  ",
"      .#$.#$%.  ",
"      .$%.$%*.  ",
"      .=$.#$%.  ",
"  ... .$%.$%*.  ",
" .Xoo..-$.=$%.  ",
" .O+&. ...%%*.  ",
"  ... .Xoo.$%.  ",
"      .O+&...   ",
"       ...      ",
"                ",
"                "
};
