/* XPM */
static const char * appstart_xpm[] = {
"16 16 67 1",
" 	c None",
".	c #7E1201",
"+	c #294E79",
"@	c #3B752E",
"#	c #666666",
"$	c #43782C",
"%	c #558929",
"&	c #637C91",
"*	c #6D8295",
"=	c #6D8298",
"-	c #6D8398",
";	c #6D839B",
">	c #4C9833",
",	c #6B869D",
"'	c #6D869B",
")	c #6D869D",
"!	c #509E33",
"~	c #7D8B98",
"{	c #5DA02F",
"]	c #7F8C9B",
"^	c #64A82F",
"/	c #7E95AB",
"(	c #8895A3",
"_	c #8B98A4",
":	c #6AAD5D",
"<	c #75B029",
"[	c #9E9E9E",
"}	c #A0A0A0",
"|	c #7BB829",
"1	c #A2A2A2",
"2	c #79B84E",
"3	c #A8A8A8",
"4	c #AAABAB",
"5	c #ABABAB",
"6	c #AEAEAE",
"7	c #8AC066",
"8	c #8CBD83",
"9	c #8DBF79",
"0	c #B1B1B1",
"a	c #B4B4B4",
"b	c #96C28F",
"c	c #A0C891",
"d	c #A3D15D",
"e	c #A6D07C",
"f	c #B4D695",
"g	c #B6D985",
"h	c #A3D5F0",
"i	c #BCDB92",
"j	c #C7D7C7",
"k	c #D3D3D3",
"l	c #CEDEC7",
"m	c #DADADA",
"n	c #DEDEDE",
"o	c #D6E2D3",
"p	c #DAE1DA",
"q	c #E1E1E1",
"r	c #E6E6E6",
"s	c #E9E9E9",
"t	c #ECECEC",
"u	c #EDEDED",
"v	c #F0F0EF",
"w	c #F0F0F0",
"x	c #F1F1F1",
"y	c #F4F4F2",
"z	c #F4F4F4",
"A	c #F5F5F6",
"B	c #F6F6F6",
"  |+++++++++++. ",
"  ~sssssssssss- ",
"  ]lgdio######- ",
"  (e<%|fqnsqss- ",
"  _2{$^74####m- ",
"  *9>@!cBwxtx1- ",
"  =j8:bp65066r- ",
"  -sss#####6ss- ",
"  ;sss[uwuA6ss- ",
"  'sss#####6ss- ",
"  )sss3zyv[ass- ",
"  )sss#####}ss- ",
"  ,rrsmmmkmqss- ",
"  /s#######qss- ",
"  &ssssssssshh- ",
"  ------------- "};
