/* XPM */
static const char * art_xpm[] = {
"14 16 161 2",
"  	c None",
". 	c #D58888",
"+ 	c #D68C8C",
"@ 	c #D9A2A2",
"# 	c #DEB4B4",
"$ 	c #E1C1C1",
"% 	c #E2D2D2",
"& 	c #ECECEC",
"* 	c #EAEAEA",
"= 	c #AC0606",
"- 	c #B72828",
"; 	c #C14646",
"> 	c #C55353",
", 	c #C34C4C",
"' 	c #BA3131",
") 	c #AF1010",
"! 	c #D58484",
"~ 	c #E3D2D2",
"{ 	c #B73131",
"] 	c #CD6F6F",
"^ 	c #DBA5A5",
"/ 	c #E3D8DB",
"( 	c #E3CDCD",
"_ 	c #CB7979",
": 	c #B92F2F",
"< 	c #D28888",
"[ 	c #BAD2B9",
"} 	c #8CBC8A",
"| 	c #85B982",
"1 	c #80B77E",
"2 	c #76B273",
"3 	c #5FA55C",
"4 	c #398F35",
"5 	c #1E8019",
"6 	c #BEBED3",
"7 	c #B0A8CA",
"8 	c #DDCCD2",
"9 	c #86B984",
"0 	c #187D13",
"a 	c #449540",
"b 	c #64A761",
"c 	c #72AF6F",
"d 	c #68AA65",
"e 	c #4A9946",
"f 	c #1F801A",
"g 	c #BABECE",
"h 	c #5757AB",
"i 	c #4444A1",
"j 	c #5050A8",
"k 	c #7A7ABC",
"l 	c #CCCCE0",
"m 	c #96C194",
"n 	c #358D31",
"o 	c #6AAB67",
"p 	c #96C494",
"q 	c #ACD0AB",
"r 	c #9CC79A",
"s 	c #3F933B",
"t 	c #BBC9C3",
"u 	c #9090C7",
"v 	c #7070B8",
"w 	c #4242A1",
"x 	c #0D0D86",
"y 	c #BCBCDB",
"z 	c #A9CAA7",
"A 	c #459641",
"B 	c #80B77D",
"C 	c #B9D7B8",
"D 	c #E5F0E5",
"E 	c #C4DDC3",
"F 	c #8BBE89",
"G 	c #519C4D",
"H 	c #B7CDB7",
"I 	c #C4C4E1",
"J 	c #9393C9",
"K 	c #5A5AAD",
"L 	c #2C2C96",
"M 	c #E7E7E9",
"N 	c #B3CCB2",
"O 	c #43953F",
"P 	c #7EB67B",
"Q 	c #B5D5B4",
"R 	c #DDECDD",
"S 	c #C0DBBF",
"T 	c #89BC87",
"U 	c #509C4C",
"V 	c #A6C6A4",
"W 	c #D6D6EA",
"X 	c #9B9BCD",
"Y 	c #5F5FAF",
"Z 	c #6969B4",
"` 	c #C8D7C8",
" .	c #308A2C",
"..	c #63A760",
"+.	c #8EBF8C",
"@.	c #A4CBA2",
"#.	c #6FAE6C",
"$.	c #3C9138",
"%.	c #93BE92",
"&.	c #ADADD5",
"*.	c #8383C1",
"=.	c #4E4EA7",
"-.	c #9898C8",
";.	c #DDE0DD",
">.	c #11790C",
",.	c #3B9037",
"'.	c #5BA358",
").	c #61A65E",
"!.	c #1C7F17",
"~.	c #7FB57D",
"{.	c #7B7BBA",
"].	c #5858AC",
"^.	c #2D2D96",
"/.	c #C1C1D3",
"(.	c #197D14",
"_.	c #0C7607",
":.	c #328B2D",
"<.	c #4F9C4B",
"[.	c #5BA257",
"}.	c #5EA45A",
"|.	c #6BAC68",
"1.	c #B4D5B3",
"2.	c #5353A0",
"3.	c #252592",
"4.	c #282894",
"5.	c #DADADA",
"6.	c #E8F2E8",
"7.	c #F8FBF8",
"8.	c #FFFFFF",
"9.	c #9B9BC4",
"0.	c #4141A0",
"a.	c #7373B9",
"b.	c #F9F9F9",
"c.	c #F3F3F3",
"d.	c #EEEEEE",
"e.	c #F1F1F1",
"f.	c #F2F2F2",
"g.	c #DDDDDC",
"h.	c #CECDCC",
"i.	c #B3B2B1",
"j.	c #9A9594",
"k.	c #77716C",
"l.	c #766D68",
"m.	c #B3B1AE",
"n.	c #DCDBDB",
"o.	c #F0F0F0",
"p.	c #FBFBFB",
"q.	c #DEDADA",
"r.	c #C5C1BE",
"s.	c #ADAAA7",
"t.	c #9D9894",
"u.	c #948F8C",
"v.	c #98938F",
"w.	c #A7A29E",
"x.	c #BCB7B6",
"y.	c #D7D7D6",
"z.	c #EDECEA",
"A.	c #DFDDDD",
"B.	c #D9D9D8",
"C.	c #DEDBDB",
"D.	c #E3E3E3",
"      . + @ # $ % &         ",
"    * = - ; > , ' ) !       ",
"    ~ { ] ^ / ( _ : <       ",
"[ } | 1 2 3 4 5 6 7 8       ",
"9 0 a b c d e f g h i j k l ",
"m n o p q r c s t u v w x y ",
"z A B C D E F G H I J K L M ",
"N O P Q R S T U V W X Y Z   ",
"`  ...+.@.p #.$.%.&.*.=.-.  ",
";.>.,.'.o ).A !.~.{.].^./.  ",
"  (._.:.<.[.}.|.1.2.3.4.5.  ",
"  6.7.8.8.8.8.8.8.9.0.a.    ",
"  8.8.8.8.b.c.d.* e.8.f.    ",
"  g.h.i.j.k.l.m.n.o.p.o.    ",
"    q.r.s.t.u.v.w.x.y.z.    ",
"          A.B.C.D.          "};
