/* XPM */
static const char *assets_xpm[] = {
/* columns rows colors const chars-per-pixel */
"16 16 48 1",
"  c Black",
"> c #EFC579",
"s c #C08030",
"9 c #181818",
"* c #617891",
"u c #467B46",
"0 c #F1CD8B",
". c None",
"1 c #78A978",
"= c #4D4D4D",
"e c #E9A43D",
"a c #E49D3C",
"q c #EAAB3D",
"y c #267726",
"w c #EAA83D",
"z c #1B561B",
"f c #1E601E",
": c #E6C076",
"i c #E6BD76",
"@ c #1A1A1A",
"; c #473512",
"h c #C88D32",
"g c #473212",
"& c #7590AE",
"l c #422B10",
"% c #C7D0D8",
"d c #226B22",
"8 c #4C8E4C",
"r c #D59336",
", c #E2B160",
"t c #82AA82",
"2 c #E8C889",
"4 c #EAAA3D",
"- c #9EB1C6",
"6 c #CC8F33",
"5 c #EAA73D",
"7 c #3A833A",
"3 c #EBB44B",
"k c #C08130",
"# c #8BA2BB",
"o c #E46143",
"$ c #5B1809",
"< c #473112",
"j c #CD8D34",
"O c #C2C8D0",
"X c #E87B61",
"p c #E9A53D",
"+ c #DF421E",
/* pixels */
"       .... ....",
" Xoooo ... O ...",
" o++++ ...@# ...",
" o++++ ..$%&* ..",
" o++++ ..=-&& ..",
" o++++ . %&&&* .",
"       .       .",
"................",
"..   ...... ....",
".;:>,<.... 1 ...",
" 23456 .. 1789..",
" 0qwer . t7yyu .",
" iwpas .. dyf ..",
".ghjkl.... z ...",
"..   ...... ....",
"................"
};
