/* XPM */
static const char * calculator_xpm[] = {
"16 16 175 2",
"  	c None",
". 	c #FFFFFF",
"+ 	c #C3CBCD",
"@ 	c #5D6C83",
"# 	c #5E6F85",
"$ 	c #5F6F87",
"% 	c #5F7086",
"& 	c #627187",
"* 	c #627389",
"= 	c #647388",
"- 	c #64738A",
"; 	c #65768C",
"> 	c #68788C",
", 	c #68788D",
"' 	c #AEB6BE",
") 	c #687B8B",
"! 	c #294C7D",
"~ 	c #385786",
"{ 	c #294B7D",
"] 	c #63748B",
"^ 	c #697B8B",
"/ 	c #7389A9",
"( 	c #DEDEDE",
"_ 	c #D8D8D8",
": 	c #BABABA",
"< 	c #BDBDBD",
"[ 	c #BEBEBE",
"} 	c #B9B9B9",
"| 	c #C0C0C0",
"1 	c #627C9E",
"2 	c #627289",
"3 	c #677B89",
"4 	c #536F95",
"5 	c #A9B7CB",
"6 	c #9FACBF",
"7 	c #98A4B6",
"8 	c #97A4B5",
"9 	c #97A3B6",
"0 	c #9CA9BB",
"a 	c #96A2B4",
"b 	c #9BA7BA",
"c 	c #4A6790",
"d 	c #5E7085",
"e 	c #667A8A",
"f 	c #214478",
"g 	c #5E6F86",
"h 	c #677B8A",
"i 	c #627BA0",
"j 	c #97A7BF",
"k 	c #577498",
"l 	c #97A8C0",
"m 	c #557297",
"n 	c #557294",
"o 	c #485278",
"p 	c #A33A50",
"q 	c #50416A",
"r 	c #5A6C84",
"s 	c #657988",
"t 	c #9AA9C1",
"u 	c #EAEAEA",
"v 	c #8DA2B8",
"w 	c #D9D9D9",
"x 	c #889EB4",
"y 	c #DDDDDD",
"z 	c #849BB2",
"A 	c #C5C5C5",
"B 	c #6E5C76",
"C 	c #FF8F8F",
"D 	c #7C3F5E",
"E 	c #5A6B83",
"F 	c #657887",
"G 	c #4D6993",
"H 	c #6E86A5",
"I 	c #42618C",
"J 	c #7188A7",
"K 	c #405E8A",
"L 	c #7289A8",
"M 	c #3D5E89",
"N 	c #7288A9",
"O 	c #3B5886",
"P 	c #726687",
"Q 	c #3A5380",
"R 	c #586981",
"S 	c #657788",
"T 	c #99A8BF",
"U 	c #E0E0E0",
"V 	c #8FA3B8",
"W 	c #8AA0B4",
"X 	c #869DB2",
"Y 	c #DCDCDC",
"Z 	c #839BB0",
"` 	c #607E97",
" .	c #576881",
"..	c #647787",
"+.	c #526D96",
"@.	c #778DAC",
"#.	c #48648F",
"$.	c #798EAD",
"%.	c #45638D",
"&.	c #7A8FAE",
"*.	c #45628D",
"=.	c #44618C",
"-.	c #3C5B87",
";.	c #55667F",
">.	c #627586",
",.	c #8498B4",
"'.	c #D5DAE2",
").	c #7B91AB",
"!.	c #D4D8DF",
"~.	c #758EA8",
"{.	c #D4D8DE",
"].	c #728BA6",
"^.	c #E1E6ED",
"/.	c #65819F",
"(.	c #C7CCD2",
"_.	c #5A749B",
":.	c #53667E",
"<.	c #647686",
"[.	c #8598B5",
"}.	c #D4D9E1",
"|.	c #7B91AC",
"1.	c #758EA9",
"2.	c #D2D6DC",
"3.	c #728BA7",
"4.	c #DBE0E6",
"5.	c #66829F",
"6.	c #C5CAD0",
"7.	c #597499",
"8.	c #52637C",
"9.	c #627585",
"0.	c #7086A8",
"a.	c #AEBBCC",
"b.	c #657FA0",
"c.	c #B3C0D0",
"d.	c #627C9D",
"e.	c #B2BFCF",
"f.	c #607A9C",
"g.	c #B4C0D1",
"h.	c #587595",
"i.	c #B5C1D2",
"j.	c #4E6A94",
"k.	c #52627A",
"l.	c #95A6BD",
"m.	c #E1E1E1",
"n.	c #899FB4",
"o.	c #FBFBFB",
"p.	c #849BB1",
"q.	c #F6F6F6",
"r.	c #8098AE",
"s.	c #F3F3F3",
"t.	c #768FA7",
"u.	c #667EA1",
"v.	c #4E6078",
"w.	c #627584",
"x.	c #2D517E",
"y.	c #284F78",
"z.	c #294C7B",
"A.	c #284E77",
"B.	c #2A4C7C",
"C.	c #284F77",
"D.	c #2A4B7C",
"E.	c #284F76",
"F.	c #2A4B7D",
"G.	c #2D4F7F",
"H.	c #4E6079",
"I.	c #DFE2E5",
"J.	c #738492",
"K.	c #738592",
"L.	c #738591",
"M.	c #758793",
"N.	c #738693",
"O.	c #758792",
"P.	c #768794",
"Q.	c #758693",
"R.	c #CED6D8",
". + @ # $ % & * = - ; > , ' . . ",
". ) ! ~ ~ ~ ~ ~ ~ ~ ~ ~ { ] . . ",
". ^ / . . ( _ : < [ } | 1 2 . . ",
". 3 4 5 5 6 7 8 9 0 a b c d . . ",
". e f f f f f f f f f f f g . . ",
". h i j k l m l n l o p q r . . ",
". s t u v w x y z A B C D E . . ",
". F G H I J K L M N O P Q R . . ",
". S T U V _ W y X Y Z | `  .. . ",
". ..+.@.#.$.%.&.*.&.=.&.-.;.. . ",
". >.,.'.).!.~.{.].^./.(._.:.. . ",
". <.[.}.|.!.1.2.3.4.5.6.7.8.. . ",
". 9.0.a.b.c.d.e.f.g.h.i.j.k.. . ",
". 9.l.m.n.o.p.q.r.s.t.u u.v.. . ",
". w.x.y.z.A.B.C.D.E.F.E.G.H.. . ",
". I.J.K.K.L.M.K.N.O.P.P.Q.R.. . "};
