/* XPM */
static const char * calendar_xpm[] = {
"16 16 116 2",
"  	c None",
". 	c #FF0000",
"+ 	c #1456AA",
"@ 	c #2866B4",
"# 	c #2A68B6",
"$ 	c #2C68B8",
"% 	c #2D6AB9",
"& 	c #316DBB",
"* 	c #346DB8",
"= 	c #336DBC",
"- 	c #356DB7",
"; 	c #3870B8",
"> 	c #3871BB",
", 	c #3772BE",
"' 	c #3874BE",
") 	c #3D77C2",
"! 	c #3E79C2",
"~ 	c #437CC6",
"{ 	c #467EC6",
"] 	c #4B80C8",
"^ 	c #4C83CA",
"/ 	c #5086CC",
"( 	c #5289CD",
"_ 	c #538ACD",
": 	c #5A8DD1",
"< 	c #5A8ED0",
"[ 	c #5D8FD3",
"} 	c #5F93D5",
"| 	c #6194D5",
"1 	c #6495D7",
"2 	c #6698D8",
"3 	c #FF7D3B",
"4 	c #6A9ADA",
"5 	c #6B9BDB",
"6 	c #FF7F3D",
"7 	c #709EDC",
"8 	c #FF8442",
"9 	c #709FDD",
"0 	c #74A2DF",
"a 	c #75A3E0",
"b 	c #FF8B47",
"c 	c #79A5E1",
"d 	c #7AA5E1",
"e 	c #FF904D",
"f 	c #7CA9E4",
"g 	c #7FA9E4",
"h 	c #FF9452",
"i 	c #FF9554",
"j 	c #81ACE6",
"k 	c #FF9654",
"l 	c #83ADE6",
"m 	c #FF9857",
"n 	c #85AEE6",
"o 	c #FF9958",
"p 	c #86AFE7",
"q 	c #FF9A5A",
"r 	c #88B1E9",
"s 	c #FF9D5C",
"t 	c #8AB2EA",
"u 	c #8BB2EB",
"v 	c #FF9E5D",
"w 	c #FF9F5F",
"x 	c #FFA060",
"y 	c #FFA161",
"z 	c #FFA262",
"A 	c #FFA364",
"B 	c #FFA464",
"C 	c #FFA465",
"D 	c #FFA754",
"E 	c #FFAB5A",
"F 	c #FFB061",
"G 	c #FFB368",
"H 	c #A6C3E9",
"I 	c #A9C4E8",
"J 	c #FFB86D",
"K 	c #AAC6E9",
"L 	c #FFB971",
"M 	c #ACC6E9",
"N 	c #ACC7EA",
"O 	c #ADC7E9",
"P 	c #ADC7EA",
"Q 	c #FFBB75",
"R 	c #AEC9EA",
"S 	c #FFBD79",
"T 	c #B2CBEA",
"U 	c #B3CBE9",
"V 	c #B7CEEA",
"W 	c #BAD0EB",
"X 	c #C8D6EA",
"Y 	c #CAD8EA",
"Z 	c #CBD8EB",
"` 	c #CCD9EB",
" .	c #CDD9EC",
"..	c #D8E2F0",
"+.	c #DBE4F1",
"@.	c #DBE5F1",
"#.	c #DCE5F2",
"$.	c #DEE7F2",
"%.	c #DEE7F3",
"&.	c #E2EAF4",
"*.	c #E6EDF6",
"=.	c #EAF0F7",
"-.	c #EBF1F7",
";.	c #EDF2F8",
">.	c #EFF2F9",
",.	c #EEF3F9",
"'.	c #EFF3F9",
").	c #F0F3F9",
"!.	c #F0F4FA",
"~.	c #F1F4FA",
"{.	c #F2F5FA",
"].	c #F1F6FA",
"^.	c #F2F6FA",
"/.	c #F2F6FB",
"(.	c #F4F7FB",
"_.	c #FFFFFF",
"  u r n j f c a 9 5 2 | [ [ [ : ",
"t (.(.(.(.(.(.(.(.(.(.(.(.(.(.( ",
"p (.C A x A x v o k e b 8 6 (.^ ",
"l (.B S Q S Q L J G F E D 3 (.{ ",
"g (.C A z A z y w s q m i h (.! ",
"d (.H _.I _.K _.T _.N _.N _.-.' ",
"0 ^.K M N O T T T T N T . $.$.& ",
"7 ].H _.I _.K _.T _.. . N _.@.$ ",
"4 !.K M N O T T N . N T N Y Y # ",
"1 '.R _.T _.U _.N . N _.N _.).> ",
"} '.T T . N N N . N N N ` ~.~.* ",
"< ,.V . T . T _.. /.` /.` Z >.; ",
"_ ;.W . T T . N . N N !.` +.{.- ",
"/ ;.. _.T _.T . P  .+. .+.).;.- ",
"_ ;.=.*.&.%.+...X #.~.#.~.).;.- ",
"/ ] / ] ~ ) , = % @ @ @ @ @ @ + "};
