/* XPM */
static const char *car_xpm[] = {
/* columns rows colors const chars-per-pixel */
"16 16 97 2",
"|  c #282C31",
"}  c #3C3C3C",
"3  c #9EBFE6",
"C  c #79A6DB",
"l  c #74A2DA",
"J  c #245399",
"Y  c #A8C4E8",
"r  c #6581A3",
"v  c #9CBCE5",
"0  c #81ABD7",
"7  c #86AFDF",
"*  c #BAD1EC",
"Q  c #424A55",
"{  c #292A2B",
"(  c #292A2C",
"M  c #9ABCE5",
"^  c #314459",
":  c #AEC9E7",
"~  c #2A589C",
"-  c #B3CDEA",
"&  c #B8D1EB",
"1  c #909FAF",
"g  c #8EB4E1",
"G  c #5A8FD3",
"5  c #6B86A6",
"R  c #9DBDE5",
"s  c #23549A",
"@  c #3F78B8",
"n  c #1E4D95",
"x  c #7DA8DC",
"j  c #82ACDE",
"K  c #BBD2ED",
"W  c #3E444C",
"   c None",
"P  c #43484E",
">  c #8CAED8",
")  c #3E3E3E",
"O. c #5C5C5C",
"2  c #5F7286",
"+  c #427CBC",
"[  c #28313D",
"X  c #4A87C4",
"D  c #6094D4",
"y  c #496280",
"O  c #4580BF",
"X. c #646464",
"%  c #88B1DA",
"=  c #B7CFEA",
"m  c #BCD3ED",
"9  c #1A3860",
"L  c #8FA0B5",
"o  c #4884C2",
"o. c #6C6C6C",
"Z  c #72A1DA",
"]  c #29323E",
"e  c #90B6E2",
"`  c #292C30",
".. c #292929",
"w  c #6D88A6",
"V  c #7FAADD",
"_  c #404040",
"t  c #4D6481",
"4  c #7089A7",
"z  c #6E9ED9",
"E  c #7A91AF",
"q  c #707D8B",
"N  c #8CB3E1",
",  c #3065A9",
".  c #4C89C6",
"!  c #7D98BB",
"8  c #647587",
"k  c #7BA7DC",
"/  c #2D3742",
"B  c #85AFDF",
";  c #B4CDEA",
"a  c #1C4073",
"p  c #354E6E",
"#  c #3B74B4",
"i  c #627287",
"U  c #7B8CA1",
"h  c #88B0DF",
"f  c #C1D6EE",
"I  c #494F56",
"u  c #77A4DB",
"F  c #5C90D3",
"<  c #508BC6",
"S  c #6698D6",
"T  c #A4C2E7",
"'  c #2A3B52",
" . c #25344C",
"d  c #87AED9",
"b  c #648CC2",
"6  c #506782",
"A  c #6C9DD8",
"H  c #96B7E2",
"c  c #A0BFE5",
"$  c #386FB0",
/* pixels */
"                                ",
"                                ",
"                                ",
"                                ",
"      . X o O + @ # $           ",
"    . % & * = - ; : > ,         ",
"    < 1 2 3 4 5 6 7 8 9         ",
"  X 0 q w e r t y u i p a s     ",
"X d f 3 g h j k l z x c v b n   ",
"o m M N B V C Z A S D F G H J   ",
"O K L P I U Y T c R E W Q ! ~   ",
"^ / ( ) _ ` ' ] [ [ { ) } |  .  ",
"    ..X.o...        ..X.O...    ",
"      ....            ....      ",
"                                ",
"                                "
};
