/* XPM */ 
static const char * card_acc_closed_xpm[] = {
"16 16 110 2",
"  	c None",
"! 	c #4581AA",
"# 	c black",
"$ 	c #FF0000",
"% 	c #8A8A8A",
"& 	c #8B8B8B",
"' 	c #929292",
"( 	c #DFDFDF",
") 	c #D6D6D6",
"* 	c #CACACA",
"+ 	c #C1C1C1",
", 	c #B8B8B8",
"- 	c #B9B9B9",
". 	c #727272",
"0 	c #7D7E7E",
"1 	c #D2D2D2",
"2 	c #C0C0C0",
"3 	c #A9A8A9",
"4 	c #9C9B9C",
"5 	c #AAA9AA",
"6 	c #B8B8B7",
"7 	c #C1C1C0",
"8 	c #777777",
"9 	c #C1C2C3",
": 	c #AEAFB0",
"; 	c #AFB5B1",
"< 	c #BBC4BB",
"= 	c #CFCDCF",
"> 	c #CACFD3",
"? 	c #6F7373",
"@ 	c #D9D9DC",
"A 	c #C9C9CB",
"B 	c #ECF1F3",
"C 	c #EEF4F8",
"D 	c #F3F9FA",
"E 	c #E4DFDA",
"F 	c #71706B",
"G 	c #DBDCDD",
"H 	c #DFE1E4",
"I 	c #A6CCE6",
"J 	c #5389C8",
"K 	c #6997C7",
"L 	c #BEDAE0",
"M 	c #86827E",
"N 	c #A6A6A6",
"O 	c #CBCCCE",
"P 	c #D6D8DA",
"Q 	c #B5CAE2",
"R 	c #658EBE",
"S 	c #7CA5C5",
"T 	c #CEDEE2",
"U 	c #7B7B80",
"V 	c #757575",
"W 	c #EEEEEE",
"X 	c #DADADA",
"Y 	c #C7C7C7",
"Z 	c #E6E6E6",
"[ 	c #CFD0D2",
"] 	c #C3C4C6",
"^ 	c #C8C9CA",
"_ 	c #DFE0E2",
"` 	c #CFD1D3",
"a 	c #DCDADC",
"b 	c #DF7E85",
"c 	c #D42C2A",
"d 	c #FDC518",
"e 	c #EDD891",
"f 	c #727E88",
"g 	c #6C6C6C",
"h 	c #CFCFCF",
"i 	c #AAAAAA",
"j 	c #A1A1A1",
"k 	c #A0A2A3",
"l 	c #B8B8BA",
"m 	c #BFC0C1",
"n 	c #E3E4E6",
"o 	c #D6D7D9",
"p 	c #E1E1E3",
"q 	c #EAA9B2",
"r 	c #E47276",
"s 	c #FEDE61",
"t 	c #EDE5B8",
"u 	c #757C84",
"v 	c #C4C4C4",
"w 	c #C6C6C6",
"x 	c #C8C8C8",
"y 	c #CECECE",
"z 	c #D1D2D2",
"{ 	c #D2D2D3",
"| 	c #D6D6D7",
"} 	c #DADADB",
"~ 	c #DDDEDE",
" !	c #DEDFDF",
"!!	c #E7ECEC",
"#!	c #EAEBEB",
"$!	c #E6EAEC",
"%!	c #DDDDDD",
"&!	c #79777A",
"'!	c #787878",
"(!	c #7B7B7B",
")!	c #7A7A79",
"*!	c #7C7C7C",
"+!	c #727372",
",!	c #797979",
"-!	c #7D7D7D",
".!	c #E7E7E7",
"0!	c #E4E4E4",
"1!	c #E1E1E1",
"2!	c #DEDEDE",
"3!	c #E0E0E0",
"! ! ! !   ! ! ! !               ",
"! $ $ ! ! ! $ $ !               ",
"! $ $ $ ! $ $ $ ! % % % & & '   ",
"! ! $ $ $ $ $ ! ! ( ) * + , - . ",
"0 ! ! $ $ $ ! ! 1 2 3 4 5 6 7 8 ",
"! ! $ $ $ $ $ ! ! 9 : ; < = > ? ",
"! $ $ $ ! $ $ $ ! @ A B C D E F ",
"! $ $ ! ! ! $ $ ! G H I J K L M ",
"! ! ! ! N ! ! ! ! O P Q R S T U ",
"V W X Y Z [ ] ^ _ ` a b c d e f ",
"g h i i j k l m n o p q r s t u ",
". v w x y z { | } ~  !!!#!$!%!&!",
"  V . '!(!V 8 )!*!*!(!'!+!,!-!  ",
"  .!0!1!2!%!3!3!( ( 2!1!1!Z     ",
"                                ",
"                                "};