/* XPM */ 
static const char * card_acc_favorite_xpm[] = {
"16 16 159 2",
"  	c None",
"! 	c black",
"# 	c #FFAFAF",
"$ 	c white",
"% 	c #FF9797",
"& 	c #FF7E7E",
"' 	c #020301",
"( 	c #FF5050",
") 	c #FEF2F2",
"* 	c #FF9D9D",
"+ 	c #FF9C9C",
", 	c #FA9696",
"- 	c #FE8484",
". 	c #FE6969",
"0 	c #FE5050",
"1 	c #0E140D",
"2 	c #8A8A8A",
"3 	c #8B8B8B",
"4 	c #929292",
"5 	c #FF3A3A",
"6 	c #FF8989",
"7 	c #FF9696",
"8 	c #FF9B9B",
"9 	c #FF7F7F",
": 	c #FF5E5E",
"; 	c #080D07",
"< 	c #D6D6D6",
"= 	c #CACACA",
"> 	c #C1C1C1",
"? 	c #B8B8B8",
"@ 	c #B9B9B9",
"A 	c #727272",
"B 	c #7D7E7E",
"C 	c #FF7D7D",
"D 	c #FE8080",
"E 	c #FF8A8A",
"F 	c #FF6C6C",
"G 	c #FE4444",
"H 	c #010301",
"I 	c #C0C0C0",
"J 	c #A9A8A9",
"K 	c #9C9B9C",
"L 	c #AAA9AA",
"M 	c #B8B8B7",
"N 	c #C1C1C0",
"O 	c #777777",
"P 	c #7A7A7A",
"Q 	c #E9EAE9",
"R 	c #FF5454",
"S 	c #FE7373",
"T 	c #FF6F6F",
"U 	c #FE4F4F",
"V 	c #DFE0E2",
"W 	c #C1C2C3",
"X 	c #AEAFB0",
"Y 	c #AFB5B1",
"Z 	c #BBC4BB",
"[ 	c #CFCDCF",
"] 	c #CACFD3",
"^ 	c #6F7373",
"_ 	c #7E7E7E",
"` 	c #D2D2D2",
"a 	c #E2E1E1",
"b 	c #000100",
"c 	c #FF5656",
"d 	c #FE5151",
"e 	c #060706",
"f 	c #F2F3F4",
"g 	c #D9D9DC",
"h 	c #C9C9CB",
"i 	c #ECF1F3",
"j 	c #EEF4F8",
"k 	c #F3F9FA",
"l 	c #E4DFDA",
"m 	c #71706B",
"n 	c #757575",
"o 	c #D7D7D7",
"p 	c #F3F3F3",
"q 	c #121B11",
"r 	c #0C160B",
"s 	c #E5E6E9",
"t 	c #D6D7D9",
"u 	c #F4F5F5",
"v 	c #DBDCDD",
"w 	c #DFE1E4",
"x 	c #A6CCE6",
"y 	c #5389C8",
"z 	c #6997C7",
"{ 	c #BEDAE0",
"| 	c #86827E",
"} 	c #EAEAEA",
"~ 	c #9D9D9D",
" !	c #979797",
"!!	c #A6A6A6",
"#!	c #9C9D9F",
"$!	c #A0A1A3",
"%!	c #CBCCCE",
"&!	c #D6D8DA",
"'!	c #B5CAE2",
"(!	c #658EBE",
")!	c #7CA5C5",
"*!	c #CEDEE2",
"+!	c #7B7B80",
",!	c #EEEEEE",
"-!	c #DADADA",
".!	c #C7C7C7",
"0!	c #E6E6E6",
"1!	c #CFD0D2",
"2!	c #C3C4C6",
"3!	c #C8C9CA",
"4!	c #CFD1D3",
"5!	c #DCDADC",
"6!	c #DF7E85",
"7!	c #D42C2A",
"8!	c #FDC518",
"9!	c #EDD891",
":!	c #727E88",
";!	c #6C6C6C",
"<!	c #CFCFCF",
"=!	c #AAAAAA",
">!	c #A1A1A1",
"?!	c #A0A2A3",
"@!	c #B8B8BA",
"A!	c #BFC0C1",
"B!	c #E3E4E6",
"C!	c #E1E1E3",
"D!	c #EAA9B2",
"E!	c #E47276",
"F!	c #FEDE61",
"G!	c #EDE5B8",
"H!	c #757C84",
"I!	c #C4C4C4",
"J!	c #C6C6C6",
"K!	c #C8C8C8",
"L!	c #CECECE",
"M!	c #D1D2D2",
"N!	c #D2D2D3",
"O!	c #D6D6D7",
"P!	c #DADADB",
"Q!	c #DDDEDE",
"R!	c #DEDFDF",
"S!	c #E7ECEC",
"T!	c #EAEBEB",
"U!	c #E6EAEC",
"V!	c #DDDDDD",
"W!	c #79777A",
"X!	c #787878",
"Y!	c #7B7B7B",
"Z!	c #7A7A79",
"[!	c #7C7C7C",
"]!	c #727372",
"^!	c #797979",
"_!	c #7D7D7D",
"`!	c #E7E7E7",
"a!	c #E4E4E4",
"b!	c #E1E1E1",
"c!	c #DEDEDE",
"d!	c #E0E0E0",
"e!	c #DFDFDF",
"    ! !     ! !                 ",
"  ! # $ ! ! % & '               ",
"! ( ) * + , - . 0 1 2 2 3 3 4   ",
"! 5 6 7 8 7 9 : 5 ; < = > ? @ A ",
"B ! C D E 6 F G H I J K L M N O ",
"P Q ! R S T U H V W X Y Z [ ] ^ ",
"_ ` a b c d e V f g h i j k l m ",
"n o = p q r s t u v w x y z { | ",
"n } ~  !!!X #!$!$!%!&!'!(!)!*!+!",
"n ,!-!.!0!1!2!3!V 4!5!6!7!8!9!:!",
";!<!=!=!>!?!@!A!B!t C!D!E!F!G!H!",
"A I!J!K!L!M!N!O!P!Q!R!S!T!U!V!W!",
"  n A X!Y!n O Z![![!Y!X!]!^!_!  ",
"  `!a!b!c!V!d!d!e!e!c!b!b!0!    ",
"                                ",
"                                "};