/* XPM */ 
static const char * card_acc_xpm[] = {
"16 16 149 2",
"  	c None",
"! 	c black",
"# 	c #848584",
"$ 	c #888A89",
"% 	c #878887",
"& 	c #878787",
"' 	c #878888",
"( 	c #8A8A8A",
") 	c #8B8B8B",
"* 	c #929292",
"+ 	c #7A7A7A",
", 	c white",
"- 	c #F7FCFB",
". 	c #EDEFEE",
"0 	c #EDEDED",
"1 	c #E7E6E6",
"2 	c #E0E0E0",
"3 	c #E1E1E1",
"4 	c #E3E3E3",
"5 	c #DFDFDF",
"6 	c #D6D6D6",
"7 	c #CACACA",
"8 	c #C1C1C1",
"9 	c #B8B8B8",
": 	c #B9B9B9",
"; 	c #727272",
"< 	c #7D7E7E",
"= 	c #F1F4F3",
"> 	c #C3C7C6",
"? 	c #C6C9C7",
"@ 	c #C2C1C1",
"A 	c #CCCCCB",
"B 	c #CBCBCB",
"C 	c #CFCFCF",
"D 	c #D2D2D2",
"E 	c #C0C0C0",
"F 	c #A9A8A9",
"G 	c #9C9B9C",
"H 	c #AAA9AA",
"I 	c #B8B8B7",
"J 	c #C1C1C0",
"K 	c #777777",
"L 	c #E9EAE9",
"M 	c #C0C1C1",
"N 	c #E7E7E7",
"O 	c #E4E4E4",
"P 	c #E2E3E3",
"Q 	c #D6D7D7",
"R 	c #FEFFFF",
"S 	c #DFE0E2",
"T 	c #C1C2C3",
"U 	c #AEAFB0",
"V 	c #AFB5B1",
"W 	c #BBC4BB",
"X 	c #CFCDCF",
"Y 	c #CACFD3",
"Z 	c #6F7373",
"[ 	c #7E7E7E",
"] 	c #E2E1E1",
"^ 	c #D4D4D4",
"_ 	c #E2E2E2",
"` 	c #C2C3C5",
"a 	c #FAFBFA",
"b 	c #F2F3F4",
"c 	c #D9D9DC",
"d 	c #C9C9CB",
"e 	c #ECF1F3",
"f 	c #EEF4F8",
"g 	c #F3F9FA",
"h 	c #E4DFDA",
"i 	c #71706B",
"j 	c #757575",
"k 	c #D7D7D7",
"l 	c #F3F3F3",
"m 	c #D5D5D5",
"n 	c #F8F9FA",
"o 	c #E5E6E9",
"p 	c #D6D7D9",
"q 	c #F4F5F5",
"r 	c #DBDCDD",
"s 	c #DFE1E4",
"t 	c #A6CCE6",
"u 	c #5389C8",
"v 	c #6997C7",
"w 	c #BEDAE0",
"x 	c #86827E",
"y 	c #EAEAEA",
"z 	c #9D9D9D",
"{ 	c #979797",
"| 	c #A6A6A6",
"} 	c #9C9D9F",
"~ 	c #A0A1A3",
" !	c #CBCCCE",
"!!	c #D6D8DA",
"#!	c #B5CAE2",
"$!	c #658EBE",
"%!	c #7CA5C5",
"&!	c #CEDEE2",
"'!	c #7B7B80",
"(!	c #EEEEEE",
")!	c #DADADA",
"*!	c #C7C7C7",
"+!	c #E6E6E6",
",!	c #CFD0D2",
"-!	c #C3C4C6",
".!	c #C8C9CA",
"0!	c #CFD1D3",
"1!	c #DCDADC",
"2!	c #DF7E85",
"3!	c #D42C2A",
"4!	c #FDC518",
"5!	c #EDD891",
"6!	c #727E88",
"7!	c #6C6C6C",
"8!	c #AAAAAA",
"9!	c #A1A1A1",
":!	c #A0A2A3",
";!	c #B8B8BA",
"<!	c #BFC0C1",
"=!	c #E3E4E6",
">!	c #E1E1E3",
"?!	c #EAA9B2",
"@!	c #E47276",
"A!	c #FEDE61",
"B!	c #EDE5B8",
"C!	c #757C84",
"D!	c #C4C4C4",
"E!	c #C6C6C6",
"F!	c #C8C8C8",
"G!	c #CECECE",
"H!	c #D1D2D2",
"I!	c #D2D2D3",
"J!	c #D6D6D7",
"K!	c #DADADB",
"L!	c #DDDEDE",
"M!	c #DEDFDF",
"N!	c #E7ECEC",
"O!	c #EAEBEB",
"P!	c #E6EAEC",
"Q!	c #DDDDDD",
"R!	c #79777A",
"S!	c #787878",
"T!	c #7B7B7B",
"U!	c #7A7A79",
"V!	c #7C7C7C",
"W!	c #727372",
"X!	c #797979",
"Y!	c #7D7D7D",
"Z!	c #DEDEDE",
"                                ",
"                                ",
"  # $ % & ' & & & ( ( ( ) ) *   ",
"+ , - . 0 1 2 3 4 5 6 7 8 9 : ; ",
"< = > ? @ A B C D E F G H I J K ",
"+ L M N O P Q R S T U V W X Y Z ",
"[ D ] ^ _ ` a S b c d e f g h i ",
"j k 7 l m n o p q r s t u v w x ",
"j y z { | U } ~ ~  !!!#!$!%!&!'!",
"j (!)!*!+!,!-!.!S 0!1!2!3!4!5!6!",
"7!C 8!8!9!:!;!<!=!p >!?!@!A!B!C!",
"; D!E!F!G!H!I!J!K!L!M!N!O!P!Q!R!",
"  j ; S!T!j K U!V!V!T!S!W!X!Y!  ",
"  N O 3 Z!Q!2 2 5 5 Z!3 3 +!    ",
"                                ",
"                                "};