/* XPM */
static const char* cat_xpm[] = {
"48 48 348 2",
"  	c None",
". 	c #1F1800",
"+ 	c #1C1500",
"@ 	c #1C1600",
"# 	c #1C1400",
"$ 	c #493800",
"% 	c #CE9D00",
"& 	c #4B3900",
"* 	c #775B00",
"= 	c #DAA600",
"- 	c #503D00",
"; 	c #1B1500",
"> 	c #231B00",
", 	c #BA8E00",
"' 	c #FFCD2F",
") 	c #FFC200",
"! 	c #2B2100",
"~ 	c #403100",
"{ 	c #FFC305",
"] 	c #FFD03B",
"^ 	c #BE9100",
"/ 	c #251C00",
"( 	c #040200",
"_ 	c #100D00",
": 	c #120E00",
"< 	c #171300",
"[ 	c #604900",
"} 	c #F7BC01",
"| 	c #FFDD6F",
"1 	c #FFE9A3",
"2 	c #EFB600",
"3 	c #1F1700",
"4 	c #FCC000",
"5 	c #FFEFBE",
"6 	c #FFE180",
"7 	c #F8BE03",
"8 	c #644C00",
"9 	c #1A1400",
"0 	c #0F0C00",
"a 	c #090600",
"b 	c #443400",
"c 	c #816200",
"d 	c #967200",
"e 	c #AA8100",
"f 	c #957100",
"g 	c #423300",
"h 	c #080600",
"i 	c #110D00",
"j 	c #715600",
"k 	c #FCC515",
"l 	c #FFEEB6",
"m 	c #FFFFFF",
"n 	c #FFD759",
"o 	c #A98100",
"p 	c #161000",
"q 	c #1D1600",
"r 	c #C39400",
"s 	c #FFDE73",
"t 	c #C99E14",
"u 	c #1E1600",
"v 	c #2E2300",
"w 	c #AE8400",
"x 	c #FBBF00",
"y 	c #AB8200",
"z 	c #322600",
"A 	c #292517",
"B 	c #CBCBCB",
"C 	c #FFFEFA",
"D 	c #FFC610",
"E 	c #392C00",
"F 	c #523E00",
"G 	c #FFCA23",
"H 	c #908F8B",
"I 	c #120F05",
"J 	c #9F7900",
"K 	c #9B7500",
"L 	c #100D02",
"M 	c #938248",
"N 	c #E2AC00",
"O 	c #8D7B42",
"P 	c #171101",
"Q 	c #D8A400",
"R 	c #D6A300",
"S 	c #3E2F00",
"T 	c #0B0800",
"U 	c #D7A400",
"V 	c #D4A100",
"W 	c #090700",
"X 	c #0B0700",
"Y 	c #997400",
"Z 	c #F7BC00",
"` 	c #ECB400",
" .	c #F3B900",
"..	c #FEC100",
"+.	c #D2A000",
"@.	c #AE8506",
"#.	c #B78C03",
"$.	c #E8B100",
"%.	c #957000",
"&.	c #211900",
"*.	c #D8A503",
"=.	c #796629",
"-.	c #635837",
";.	c #312C1E",
">.	c #4F472F",
",.	c #7D6B33",
"'.	c #B68E0F",
").	c #81691D",
"!.	c #867C5D",
"~.	c #23211D",
"{.	c #3C3931",
"].	c #84774B",
"^.	c #B58D0F",
"/.	c #FDC000",
"(.	c #1E1700",
"_.	c #0D0900",
":.	c #886700",
"<.	c #BB910A",
"[.	c #817345",
"}.	c #4C483D",
"|.	c #1D1C18",
"1.	c #25231E",
"2.	c #96895F",
"3.	c #907317",
"4.	c #836A1C",
"5.	c #71684C",
"6.	c #1A1916",
"7.	c #211F1A",
"8.	c #7E7044",
"9.	c #B8900F",
"0.	c #856400",
"a.	c #0C0A00",
"b.	c #0A0700",
"c.	c #C89800",
"d.	c #D3A100",
"e.	c #F0B700",
"f.	c #7A5E06",
"g.	c #A37D04",
"h.	c #E4AD00",
"i.	c #D7A300",
"j.	c #856603",
"k.	c #9F7901",
"l.	c #EBB300",
"m.	c #F6BB00",
"n.	c #916E00",
"o.	c #3C2E00",
"p.	c #C69700",
"q.	c #0A0800",
"r.	c #000000",
"s.	c #E7B000",
"t.	c #8B6A00",
"u.	c #947100",
"v.	c #EAB200",
"w.	c #DAA703",
"x.	c #6D5E2E",
"y.	c #C79A0A",
"z.	c #F4BA00",
"A.	c #8D6B00",
"B.	c #382B00",
"C.	c #987400",
"D.	c #B98D00",
"E.	c #E5AE00",
"F.	c #010100",
"G.	c #BD8F00",
"H.	c #C59600",
"I.	c #D09E00",
"J.	c #D3A000",
"K.	c #846400",
"L.	c #6F6544",
"M.	c #FCFCFC",
"N.	c #7E7760",
"O.	c #E3AD01",
"P.	c #392B00",
"Q.	c #463500",
"R.	c #A27B00",
"S.	c #B88C00",
"T.	c #CF9D00",
"U.	c #C49500",
"V.	c #8F6D00",
"W.	c #765A00",
"X.	c #9C7C14",
"Y.	c #BDBDBC",
"Z.	c #EEEEEE",
"`.	c #DADADA",
" +	c #937618",
".+	c #967300",
"++	c #3A2C00",
"@+	c #876700",
"#+	c #E1AB00",
"$+	c #0B0A00",
"%+	c #836400",
"&+	c #C99900",
"*+	c #806100",
"=+	c #4D3B00",
"-+	c #614A00",
";+	c #B18700",
">+	c #F5BA00",
",+	c #81650D",
"'+	c #40330C",
")+	c #947617",
"!+	c #F2B800",
"~+	c #B58A00",
"{+	c #4C3A00",
"]+	c #806200",
"^+	c #DBA600",
"/+	c #826300",
"(+	c #CB9A00",
"_+	c #A07A00",
":+	c #594400",
"<+	c #5A4400",
"[+	c #A47D00",
"}+	c #705500",
"|+	c #241B00",
"1+	c #AF8500",
"2+	c #130F00",
"3+	c #0D0A00",
"4+	c #916F00",
"5+	c #DDA800",
"6+	c #F8BD00",
"7+	c #745800",
"8+	c #896800",
"9+	c #8E6C00",
"0+	c #2D2200",
"a+	c #FABE00",
"b+	c #483700",
"c+	c #0F0B00",
"d+	c #0E0B00",
"e+	c #554000",
"f+	c #0E0A00",
"g+	c #211A00",
"h+	c #DBA700",
"i+	c #281E00",
"j+	c #151000",
"k+	c #9C7700",
"l+	c #0B0900",
"m+	c #5E4700",
"n+	c #957200",
"o+	c #926F00",
"p+	c #9B7600",
"q+	c #100B00",
"r+	c #6F5400",
"s+	c #0C0900",
"t+	c #A17A00",
"u+	c #312500",
"v+	c #9D7700",
"w+	c #231A00",
"x+	c #CA9A00",
"y+	c #201800",
"z+	c #100C00",
"A+	c #060500",
"B+	c #755900",
"C+	c #906E00",
"D+	c #785B00",
"E+	c #433300",
"F+	c #B28700",
"G+	c #191400",
"H+	c #040300",
"I+	c #634B00",
"J+	c #5D4700",
"K+	c #6E5400",
"L+	c #B08600",
"M+	c #E9B100",
"N+	c #E8B000",
"O+	c #050400",
"P+	c #2A2000",
"Q+	c #3A2D00",
"R+	c #302500",
"S+	c #271D00",
"T+	c #4A3800",
"U+	c #AD8300",
"V+	c #533F00",
"W+	c #937000",
"X+	c #7A5E00",
"Y+	c #D9A500",
"Z+	c #B48900",
"`+	c #150F00",
" @	c #1B1400",
".@	c #181200",
"+@	c #DFAA00",
"@@	c #BD9000",
"#@	c #3D2E00",
"$@	c #1A1500",
"%@	c #7C5E00",
"&@	c #695000",
"*@	c #544000",
"=@	c #5F4800",
"-@	c #221A00",
";@	c #DEA900",
">@	c #6C5200",
",@	c #CD9C00",
"'@	c #130E00",
")@	c #6D5300",
"!@	c #332700",
"~@	c #191300",
"{@	c #342800",
"]@	c #564100",
"^@	c #7C5F00",
"/@	c #040400",
"(@	c #4E3B00",
"_@	c #171100",
":@	c #5B4500",
"<@	c #B78B00",
"[@	c #9E7800",
"}@	c #554100",
"|@	c #F1B700",
"1@	c #EEB500",
"2@	c #674E00",
"3@	c #5E4800",
"4@	c #E0AA00",
"5@	c #020200",
"6@	c #2C2100",
"7@	c #221B00",
"8@	c #3C2D00",
"9@	c #4F3D00",
"0@	c #352800",
"a@	c #463600",
"b@	c #F9BD00",
"c@	c #BB8E00",
"d@	c #987300",
"e@	c #030200",
"f@	c #7E6000",
"g@	c #936F00",
"h@	c #E6AF00",
"i@	c #C79700",
"j@	c #141000",
"k@	c #6A5100",
"l@	c #362900",
"m@	c #281F00",
"n@	c #3B2D00",
"o@	c #292000",
"p@	c #110C00",
"q@	c #453400",
"r@	c #473600",
"s@	c #251D00",
"t@	c #171200",
"u@	c #7E5F00",
"v@	c #110E00",
"w@	c #241A00",
"x@	c #413200",
"y@	c #6A5000",
"z@	c #120D00",
"A@	c #0C0800",
"B@	c #8B6900",
"C@	c #B38800",
"D@	c #C19300",
"E@	c #513D00",
"F@	c #070500",
"G@	c #120F00",
"                                                        . +                                     ",
"        @ .                                         # $ % &                                     ",
"        * = - ;                                   > , ' ) !                                     ",
"        ~ { ] ^ /             ( _ : _ (       < [ } | 1 2 .                                     ",
"        3 4 5 6 7 8 9   0 a b c d e f c g h i j k l m n o p                                     ",
"        q r s m 5 t u v w x ) ) ) ) ) ) ) x y z A B C D E                                       ",
"          F G m H I J ) ) ) ) ) ) ) ) ) ) ) ) ) K L M N 3                                       ",
"          @ 2 O P Q ) ) ) ) ) ) ) ) ) ) ) ) ) ) ) R : z                                         ",
"            S T U ) ) ) ) ) ) ) ) ) ) ) ) ) ) ) ) ) V W                                         ",
"            X Y ) ) ) ) Z `  .) ) ) ..+.@.#.$.) ) ) ) %.T                                       ",
"            &...) ) *.=.-.;.>.,.'.) ).!.~.{.].^.) ) ) /.(.                                      ",
"          _.:.) ) ) <.[.}.|.1.2.3.) 4.5.6.7.8.9.) ) /.) 0.a.                                    ",
"          b.c.) d.4 ) e.#.f.g.h.) ) ) i.j.k.l.) m.n.o.Z p.q.                                    ",
"          r.s.) U t.u.v.) ) ) ) w.x.y.) ) ) z.A.B.C.s.D.E.F.                                    ",
"          F.G.D.H.I.J.n.K.m.)  .L.M.N.O.) H.P.Y e F Q.R.h.F.                                    ",
"          q.S.T.U.S.e V.W.) ) X.Y.Z.`. +) Z .+++@+#+) ) U.b.                                    ",
"          $+%+/.&+*+=+-+;+) ) >+,+'+)+!+) ) ~+S {+V.d.) ]+i 0                                   ",
"            q ^+/+(+/.) ) _+8 :+~ <+[+>+) ) ) ) l.o }+x |+1+1+2+3+                              ",
"            q.4+) ) ) ) )  .5+E.) 6+7+8+) ) ) ) ) ) ) 9+0+a+) e.b+c+                # 9         ",
"              h I.) ) ) ) ) ) ) ) ) ) ) ) ) ) ) ) ) % d+c.) ) ) x e+f+            g+h+i+        ",
"                d++.) ) ) ) ) ) ) ) ) ) ) ) ) ) ) I.j+k+) ) ) ) ) /.o.l+          q v.m+        ",
"                  W n+..) ) ) ) ) ) ) ) ) ) ) ..o+i p+) ) ) ) ) ) ) E.q+            r+p+        ",
"                    s+/ [+6+) ) ) ) ) ) ) Z t+0+u++.) ) ) ) ) ) ) ) ) v+c+          w+x+y+      ",
"                        z+A+++B+C+J V.D+E+s+~ F+..) ) ) ) ) ) ) ) ) ) a+G+          3 l.3       ",
"                              H+I+J+K+%+L+2 ) ) ) ) ) ) ) ) ) ) ) ) ) ) f 0         &.M+|+      ",
"                              z+) ) ) ) ) ) ) ) ) ) ) ) ) ) ) ) ) ) ) ) N+O+        (.x P+      ",
"                              Q+) ) ) ) ) ) ) ) ) ) ) ) ) ) ) ) ) ) ) ) ) 0+        R+) S+      ",
"                              T+) ) ) ) ) ) ) ) ) ) ) ) ) ) ) ) ) ) ) ) ) }+      9 U+l.3       ",
"                              V+) ) ) ) ) ) ) ) ) ) ) ) ) ) ) ) ) ) ) ) ) W+0   9 X+) -+        ",
"                              b l.Y+/.) ) ) ) ) ) ) ) ) ) ) ) ) ) ) ) ) ) Z+`+g p.) K. @        ",
"                            r.: T .@i++@) ) ) ) ) ) ) @@c v+>+) ) ) ) ) ) S.++) R #@$@          ",
"                            h %@ ...&@*@) ) ) ) ) /.=@. %@$ -@;@) ) ) ) ) L+|+>@+               ",
"                          h o ) ) ) ,@'@) ) ) ) ) 9+> ` ) ) )@!@/.) ) ) ) _+z+                  ",
"                        q.v+) ) ) ) U s+) ) ) ) >+: F+) ) ) m.~@y ) ) ) ) )@g+                  ",
"                      T $ ) ) ) ) ) 1+{@) ) ) ) 1+9 /.) ) ) ) 7+V+) ) ) ) P.$                   ",
"                      H+#+) ) ) ) ) * I+) ) ) ) D+]@) ) ) ) ) F++ ) ) ) N '@^@                  ",
"                    /@(@) ) ) ) ) 6+_@r ) ) ) ) :@W.) ) ) ) ) d.F.4 ) ) *+>@K+                  ",
"                    l+<@) ) ) ) ) [@; ) ) ) ) ) }@%@) ) ) ) ) = r.m.) ` 9 R (@                  ",
"                    r.|@>+Y+1@) E.z+3+~+) ) ) ) 2@&@) ) ) ) ) p.q.) ) m+3@4@:                   ",
"                    5@6@5@.@A+ @7@8@9@T <@) ) ) o+P.) ) ) ) ) f 0@) 4+: a@/ i                   ",
"                  T y+;+b@) /.p.S #@m.c@l+d@..) = e@5+, v+n.w o.f@g@-@h@) ) i@j@                ",
"                  W ` ) ) ) ) ) a+!@_+) k@a.l@,@/.m@s+n@-+K+{+T .@o@N ) ) ) ) 8+h               ",
"                  p@a+) ) ) ) ) ) q@u.I.j@    q+2+0+h+) ) ) ) Z D+3+s.) ) ) b@l@                ",
"                  _.r@4@) ) ) 1@)@z+s@q+        5@c.) ) ) ) ) ) ) / t@@+_+u@~@v@                ",
"                    $+A+w@x@P+A+3+              T y@/.) ) ) ) ) p.O+    z@                      ",
"                                                  A@/ B@C@D@t+E@F@                              ",
"                                                      3+j+G@2+                                  ",
"                                                                                                "};
