/* XPM */
static const char * cat_xpm[] = {
"16 16 93 2",
"  	c None",
". 	c #7E6108",
"+ 	c #957200",
"@ 	c #EECF6A",
"# 	c #675003",
"$ 	c #7B5D00",
"% 	c #926F00",
"& 	c #8C6B00",
"* 	c #634B01",
"= 	c #E7CF84",
"- 	c #B59426",
"; 	c #9A802E",
"> 	c #D1A001",
", 	c #FFC200",
"' 	c #FEC100",
") 	c #9E7A03",
"! 	c #5C4700",
"~ 	c #B48800",
"{ 	c #DEAE17",
"] 	c #756636",
"^ 	c #DAAD1D",
"/ 	c #927C35",
"( 	c #A28732",
"_ 	c #7A5D00",
": 	c #D9A600",
"< 	c #CB9A00",
"[ 	c #D4A200",
"} 	c #D6AE31",
"| 	c #DDAB0E",
"1 	c #C19300",
"2 	c #947100",
"3 	c #876800",
"4 	c #B68A00",
"5 	c #AD8400",
"6 	c #CE9C00",
"7 	c #967C28",
"8 	c #DAAD1E",
"9 	c #B28800",
"0 	c #8B6A00",
"a 	c #735700",
"b 	c #FCC000",
"c 	c #FDC000",
"d 	c #E7B000",
"e 	c #DCA700",
"f 	c #EDB400",
"g 	c #654C00",
"h 	c #6B5000",
"i 	c #6B5200",
"j 	c #A17B00",
"k 	c #D09E00",
"l 	c #C49500",
"m 	c #AA8100",
"n 	c #C29400",
"o 	c #D8A400",
"p 	c #624B00",
"q 	c #E5AE00",
"r 	c #745900",
"s 	c #644D00",
"t 	c #C39500",
"u 	c #8A6900",
"v 	c #4F3D00",
"w 	c #A27C00",
"x 	c #AB8200",
"y 	c #A77F00",
"z 	c #CD9C00",
"A 	c #9C7600",
"B 	c #806200",
"C 	c #BC9000",
"D 	c #A47D00",
"E 	c #9B7600",
"F 	c #9C7700",
"G 	c #674E00",
"H 	c #F8BD00",
"I 	c #D3A100",
"J 	c #9A7600",
"K 	c #F0B700",
"L 	c #967300",
"M 	c #A87F00",
"N 	c #7C5E00",
"O 	c #795B00",
"P 	c #CC9B00",
"Q 	c #896800",
"R 	c #A98100",
"S 	c #745800",
"T 	c #7F6000",
"U 	c #A57D00",
"V 	c #735800",
"W 	c #816200",
"X 	c #6D5300",
"Y 	c #7C5F00",
"Z 	c #5C4600",
"` 	c #916E00",
" .	c #695000",
"                  .             ",
"  + @ # $ % & * = -             ",
"    ; > , , , ' ) !             ",
"    ~ { ] ^ / ( , _             ",
"    : < [ } | 1 2 3             ",
"    4 5 6 7 8 1 9 0             ",
"    a b , c d , e 1 f g     h   ",
"      i j k l m n , , o     p   ",
"          2 q , , , , , r   s   ",
"          t , , , , , , u & %   ",
"        v w x , o y z , A B     ",
"        C , D , E , E , F       ",
"      G H I J , E , E K L       ",
"      a M N O P Q R S T U       ",
"      V 4 W X   Y , f Z `       ",
"                   .            "};
