/* XPM */
static const char *categoryedit_xpm[] = {
/* columns rows colors const chars-per-pixel */
"16 16 121 2",
";  c #CACACA",
"Z  c #E8E8E8",
"1  c #F7F7F7",
"O. c #BBB2A7",
"p  c #89CEFE",
"~  c #BBAFA1",
"|  c #FDF6C2",
"H  c #FDF6C4",
"5  c #C3C3C3",
"c  c #98D4FF",
"X  c #D2D2D2",
"J  c #F6DD6C",
"9. c #BD8849",
"x  c #D3EBFB",
"V  c #FCE0C4",
"2. c #F9C794",
"j  c #FFF3E5",
"a  c #96D4FF",
"^  c #BCBCBC",
"`  c #F7E15A",
"-  c #CBCBCB",
"{  c #B7A683",
"o. c #DB9748",
"z  c #E9E9E9",
"8  c #8ACFFE",
"Y  c #A0C4BE",
")  c #E7CB77",
"A  c #D6ECFB",
"h  c #F0D2B4",
"$  c #D3D3D3",
"*  c #E2E2E2",
"L  c #D7A363",
":. c #BE7A1A",
"n  c #A8C6B5",
"F  c #B2CEC1",
"#  c None",
".. c #F8E25D",
"}  c #D6B976",
"]  c #DC984A",
"5. c #AA6723",
"(  c #E5D4B0",
"%. c #EDD078",
"2  c #E8F3FB",
"0  c #BCE2FD",
"K  c #EDCA6D",
".  c #D4D4D4",
"#. c #E4C955",
"*. c #BBB1A5",
"<. c #BBAEA0",
"7. c #553D11",
">. c #C59849",
"@  c #CDCDCD",
"q  c #DCDCDC",
"y  c #EBEBEB",
"r  c #DBB185",
"u  c #FAFAFA",
"3. c #F9C991",
"3  c #BDE3FD",
"l  c #C78C48",
"-. c #FFF2E0",
"   c #D5D5D5",
"8. c #875F28",
"&  c #E4E4E4",
":  c #F3F3F3",
"6. c #B7AB9D",
"+  c #CECECE",
"1. c #83652B",
">  c #FBFBFB",
"7  c #EAF5FD",
",  c #C7C7C7",
"m  c #EDD581",
"g  c #E7BE77",
"/  c #E5E5E5",
"Q  c #F2D67A",
"M  c #F9E3B2",
"d  c #8BCFFF",
"@. c #D1B790",
"&. c #DA9A4E",
"I  c #C0C0C0",
"B  c #F6D3AE",
"s  c #9AD5FF",
"4  c #DEDEDE",
"6  c #FCFCFC",
"X. c #F0D379",
"k  c #EFD2AC",
"C  c #D39F66",
"D  c #98D5FF",
";. c #D89A54",
"R  c #FDF7C7",
"<  c #C8C8C8",
"=. c #AA8943",
"T  c #EED379",
"4. c #C98541",
"[  c #BEAE9D",
"W  c #F7E25B",
"b  c #9BD6FF",
"O  c #D0D0D0",
"%  c #FDFDFD",
"'  c #F1D47B",
"i  c #E7F3FB",
"+. c #D5B67A",
" . c #F7DF63",
"!  c #DE9F4E",
"9  c #83CCFF",
"$. c #F5DF5B",
"U  c #E7E7E7",
"v  c #9ED7FF",
"0. c #BC8D42",
"t  c #D09D46",
",. c #C38B45",
"S  c #88CDFD",
"_  c #F5DC5E",
"f  c #F4E4AF",
"E  c #F5DC5F",
"o  c #D1D1D1",
"G  c #EDD47D",
"=  c #E0E0E0",
"P  c #D09D64",
"N  c #E7C08B",
"e  c #D8A558",
"w  c #CABB92",
/* pixels */
"  . X o O + @ # # # # # # # # # ",
"$ % % % % % & @ # # # # # # # # ",
"X % * + = % % * - # # # # # # # ",
"O % @ # ; : > % = , # # # # # # ",
"+ % = ; < 1 2 3 % 4 5 # # # # # ",
"@ % % 6 1 7 8 9 0 % q w e r t # ",
"- y % u i p a s d 0 f g h j k l ",
"# , z % x 9 c v b n m M N B V C ",
"# # 5 Z % A S D F G H J K L P # ",
"# # # I U % A Y T R E W Q ! ~ # ",
"# # # # ^ / ( ) R _ ` ' ] [ # # ",
"# # # # # { } |  ...X.o.O.# # # ",
"# # # # # +.@.#.$.%.&.*.# # # # ",
"# # # # =.-.;.:.>.,.<.# # # # # ",
"# # # # 1.2.3.4.5.6.# # # # # # ",
"# # # # 7.8.9.0.# # # # # # # # "
};
