/* XPM */
static const char * chartpiereport_xpm[] = {
"16 16 184 2",
"  	c None",
". 	c #000000",
"+ 	c #00000C",
"@ 	c #070000",
"# 	c #00001A",
"$ 	c #000924",
"% 	c #000D27",
"& 	c #4A0000",
"* 	c #610000",
"= 	c #680000",
"- 	c #6B0000",
"; 	c #001A3B",
"> 	c #001A3D",
", 	c #720000",
"' 	c #7D0000",
") 	c #7F0000",
"! 	c #002047",
"~ 	c #880000",
"{ 	c #8C0000",
"] 	c #00244A",
"^ 	c #00244D",
"/ 	c #970000",
"( 	c #00274B",
"_ 	c #A50000",
": 	c #9D0700",
"< 	c #B50000",
"[ 	c #B60700",
"} 	c #7A1B00",
"| 	c #093A60",
"1 	c #842300",
"2 	c #093E66",
"3 	c #AD1800",
"4 	c #0C3E64",
"5 	c #B51A00",
"6 	c #BC2001",
"7 	c #314156",
"8 	c #234463",
"9 	c #2C445A",
"0 	c #833A00",
"a 	c #0F517D",
"b 	c #3A4859",
"c 	c #10517C",
"d 	c #3E4B5D",
"e 	c #884400",
"f 	c #C8310C",
"g 	c #435063",
"h 	c #1E5D87",
"i 	c #BA3A38",
"j 	c #405D75",
"k 	c #465C6F",
"l 	c #9F4E00",
"m 	c #2A6891",
"n 	c #266B96",
"o 	c #266D97",
"p 	c #346B91",
"q 	c #DC4A00",
"r 	c #356D93",
"s 	c #AA5153",
"t 	c #8E6400",
"u 	c #2F719A",
"v 	c #2C729B",
"w 	c #2D729B",
"x 	c #F04800",
"y 	c #2F729A",
"z 	c #8D603D",
"A 	c #E94B00",
"B 	c #D85100",
"C 	c #F14A00",
"D 	c #31749B",
"E 	c #2F759D",
"F 	c #F14D00",
"G 	c #F24D00",
"H 	c #F24E00",
"I 	c #B9565A",
"J 	c #C75457",
"K 	c #3579A1",
"L 	c #CC5656",
"M 	c #E35900",
"N 	c #3A7CA4",
"O 	c #F95400",
"P 	c #996B3B",
"Q 	c #F95700",
"R 	c #447DA1",
"S 	c #F35A00",
"T 	c #B46E00",
"U 	c #F35D00",
"V 	c #BD6F00",
"W 	c #4184AB",
"X 	c #4384AB",
"Y 	c #4A83A6",
"Z 	c #F36600",
"` 	c #4E87A8",
" .	c #F96600",
"..	c #E36A1B",
"+.	c #488BB1",
"@.	c #5189AB",
"#.	c #4E8BAF",
"$.	c #4E8CAE",
"%.	c #508CB1",
"&.	c #A58700",
"*.	c #568DAE",
"=.	c #5D8BAF",
"-.	c #C97D00",
";.	c #FF6D00",
">.	c #CC7D01",
",.	c #FF6F00",
"'.	c #80878D",
").	c #618EB4",
"!.	c #B18900",
"~.	c #6893B3",
"{.	c #FF7C00",
"].	c #C9882C",
"^.	c #CD8B07",
"/.	c #BA9300",
"(.	c #BF8B47",
"_.	c #CF8C17",
":.	c #E58148",
"<.	c #8E939B",
"[.	c #F2831A",
"}.	c #719CB3",
"|.	c #6E9CC1",
"1.	c #C89047",
"2.	c #D39121",
"3.	c #FA880C",
"4.	c #959AA0",
"5.	c #D99900",
"6.	c #D39A4A",
"7.	c #C6A700",
"8.	c #DA9D2D",
"9.	c #D8A050",
"0.	c #E2A80D",
"a.	c #A6ABAF",
"b.	c #A1ADB5",
"c.	c #AAAFB5",
"d.	c #C2AF9D",
"e.	c #F1B400",
"f.	c #C6B4A7",
"g.	c #E9BB00",
"h.	c #F3BB00",
"i.	c #D9B2B3",
"j.	c #E6B4B4",
"k.	c #F0BF32",
"l.	c #FCC200",
"m.	c #FDC300",
"n.	c #F9C500",
"o.	c #FDC400",
"p.	c #FFC400",
"q.	c #FEC500",
"r.	c #FFC500",
"s.	c #FBC603",
"t.	c #FEC600",
"u.	c #FFC600",
"v.	c #FFC800",
"w.	c #FEC900",
"x.	c #FFCA00",
"y.	c #F3C744",
"z.	c #F2C960",
"A.	c #FFCF17",
"B.	c #E3C9AC",
"C.	c #FFD300",
"D.	c #FFD01E",
"E.	c #FFD400",
"F.	c #EBC6C6",
"G.	c #E9C7C7",
"H.	c #FFD600",
"I.	c #FFD22F",
"J.	c #FFD904",
"K.	c #FFDA00",
"L.	c #EBD0AE",
"M.	c #F2D478",
"N.	c #D4D4D4",
"O.	c #FFDE00",
"P.	c #D5D5D5",
"Q.	c #FCD763",
"R.	c #FFDE21",
"S.	c #EFDAC4",
"T.	c #EFDCC4",
"U.	c #FFE65A",
"V.	c #E5E2E0",
"W.	c #E5E5E6",
"X.	c #FAF3F3",
"Y.	c #FBF6F1",
"Z.	c #FBF6F2",
"`.	c #FBF6F6",
"      Z.B.(.l 1 } 0 P d.V.      ",
"    S.1.V ^.0.h.e.5.T e z f.    ",
"  T.]._.k.s.m.r.r.l.n.g.t # '.  ",
"Y.6.2.y.A.v.r.p.p.q.K.7.+ 8 7 N.",
"L.>.z.I.x.t.q.p.o.C./.+ ~.m > <.",
"9.8.Q.D.w.u.r.o.E.!.+ =.$.K 4 b ",
"-.M.U.R.J.H.E.O.&.+ ).*.o X r $ ",
"' _ _ / { ) ~ ~ @ |.` n w +.%.. ",
"< :.3. .Q O {.{.@ ` Y y v +.#.. ",
"< :.3. .Q O {.{.= ` ` y w W p % ",
"L f [.U F C ,.,.* ` ` u E N | d ",
"j.[ ..Z H x ,.,.* ` ` D v h ; 4.",
"X.J 6 M S G ,.,.* ` @.y a ] g P.",
"  F.i 5 q A ;.;.* ` R c ! 9 a.  ",
"    G.I : 3 B B & }.2 ( k c.    ",
"      `.i.s , - . ^ j b.W.      "};
