/* XPM */
static const char * clearlist_xpm[] = {
"16 16 27 1",
" 	c None",
".	c #2C364B",
"+	c #FF0000",
"@	c #38455E",
"#	c #3A749C",
"$	c #5E6C84",
"%	c #4581AA",
"&	c #5A89A6",
"*	c #538DB3",
"=	c #6591AE",
"-	c #6B98B8",
";	c #5F9BC8",
">	c #749BB4",
",	c #839CB5",
"'	c #72A8D2",
")	c #85A7BC",
"!	c #8EA9BC",
"~	c #85BBE2",
"{	c #A2B5D4",
"]	c #97C4E7",
"^	c #A5CCEA",
"/	c #B6D5EE",
"(	c #BDD9F1",
"_	c #C4D8F0",
":	c #C2DDF1",
"<	c #E9F3FB",
"[	c #FFFFFF",
"   !&-==*%#!    ",
"   !:(/^]~=';   ",
"%%%%<%%%%]=[]-  ",
"%++%%%++%@=[[]- ",
"%+++%+++%_==-=* ",
"%%+++++%%{{{{_* ",
" %%+++%%....@{* ",
"%%+++++%%_____= ",
"%+++%+++%{_{{_= ",
"%++%%%++%...@{- ",
"%%%%[%%%%{{{{_> ",
"   ![_________> ",
"   ![${@.....{, ",
"   ![___{{{{{{) ",
"   ![________{) ",
"   !!!!!!!!!!!! "};
