/* XPM */
static const char* clock_xpm[] = {
"48 48 232 2",
"  	c None",
". 	c #292929",
"+ 	c #3A3A3A",
"@ 	c #4A4A4A",
"# 	c #515151",
"$ 	c #505050",
"% 	c #494949",
"& 	c #3C3C3C",
"* 	c #262626",
"= 	c #0C0C0C",
"- 	c #373737",
"; 	c #636363",
"> 	c #868686",
", 	c #8D8D8D",
"' 	c #616161",
") 	c #3B3B3B",
"! 	c #0B0B0B",
"~ 	c #121212",
"{ 	c #4C4C4C",
"] 	c #828282",
"^ 	c #888888",
"/ 	c #898989",
"( 	c #818181",
"_ 	c #4D4D4D",
": 	c #040404",
"< 	c #3F3F3F",
"[ 	c #7E7E7E",
"} 	c #838383",
"| 	c #757575",
"1 	c #626262",
"2 	c #595959",
"3 	c #585858",
"4 	c #5B5B5B",
"5 	c #646464",
"6 	c #797979",
"7 	c #848484",
"8 	c #7F7F7F",
"9 	c #434343",
"0 	c #060606",
"a 	c #141414",
"b 	c #676767",
"c 	c #787878",
"d 	c #4E4E4E",
"e 	c #151515",
"f 	c #313131",
"g 	c #525252",
"h 	c #5E5E5E",
"i 	c #2E2E2E",
"j 	c #545454",
"k 	c #7C7C7C",
"l 	c #808080",
"m 	c #6B6B6B",
"n 	c #1B1B1B",
"o 	c #000000",
"p 	c #242424",
"q 	c #737373",
"r 	c #6E6E6E",
"s 	c #343434",
"t 	c #212121",
"u 	c #6D6D6D",
"v 	c #AFAFAF",
"w 	c #DADADA",
"x 	c #DDDDDD",
"y 	c #D5D5D5",
"z 	c #D9D9D9",
"A 	c #AAAAAA",
"B 	c #656565",
"C 	c #202020",
"D 	c #7B7B7B",
"E 	c #777777",
"F 	c #2D2D2D",
"G 	c #3D3D3D",
"H 	c #979797",
"I 	c #DCDCDC",
"J 	c #DEDEDE",
"K 	c #E1E1E1",
"L 	c #E8E8E8",
"M 	c #ECECEC",
"N 	c #EFEFEF",
"O 	c #232323",
"P 	c #E7E7E7",
"Q 	c #DBDBDB",
"R 	c #282828",
"S 	c #474747",
"T 	c #767676",
"U 	c #363636",
"V 	c #222222",
"W 	c #6F6F6F",
"X 	c #707070",
"Y 	c #DFDFDF",
"Z 	c #E0E0E0",
"` 	c #EBEBEB",
" .	c #F5F5F5",
"..	c #F9F9F9",
"+.	c #F4F4F4",
"@.	c #747474",
"#.	c #252525",
"$.	c #6A6A6A",
"%.	c #727272",
"&.	c #333333",
"*.	c #BDBDBD",
"=.	c #E9E9E9",
"-.	c #F6F6F6",
";.	c #F8F8F8",
">.	c #B2B2B2",
",.	c #2B2B2B",
"'.	c #5C5C5C",
").	c #6C6C6C",
"!.	c #050505",
"~.	c #565656",
"{.	c #666666",
"].	c #D3D3D3",
"^.	c #E3E3E3",
"/.	c #F3F3F3",
"(.	c #CCCCCC",
"_.	c #696969",
":.	c #101010",
"<.	c #393939",
"[.	c #D8D8D8",
"}.	c #E6E6E6",
"|.	c #F7F7F7",
"1.	c #F1F1F1",
"2.	c #A9A9A9",
"3.	c #2F2F2F",
"4.	c #020202",
"5.	c #5D5D5D",
"6.	c #D2D2D2",
"7.	c #E5E5E5",
"8.	c #8A8A8A",
"9.	c #C8C8C8",
"0.	c #5F5F5F",
"a.	c #2A2A2A",
"b.	c #404040",
"c.	c #B4B4B4",
"d.	c #E2E2E2",
"e.	c #E4E4E4",
"f.	c #EEEEEE",
"g.	c #A3A3A3",
"h.	c #555555",
"i.	c #070707",
"j.	c #0F0F0F",
"k.	c #535353",
"l.	c #F0F0F0",
"m.	c #9E9E9E",
"n.	c #464646",
"o.	c #303030",
"p.	c #4F4F4F",
"q.	c #F2F2F2",
"r.	c #CFCFCF",
"s.	c #1E1E1E",
"t.	c #030303",
"u.	c #454545",
"v.	c #7A7A7A",
"w.	c #B7B7B7",
"x.	c #3E3E3E",
"y.	c #5A5A5A",
"z.	c #B3B3B3",
"A.	c #191919",
"B.	c #131313",
"C.	c #D4D4D4",
"D.	c #949494",
"E.	c #C6C6C6",
"F.	c #484848",
"G.	c #181818",
"H.	c #414141",
"I.	c #353535",
"J.	c #272727",
"K.	c #444444",
"L.	c #C5C5C5",
"M.	c #EDEDED",
"N.	c #010101",
"O.	c #1D1D1D",
"P.	c #A0A0A0",
"Q.	c #0D0D0D",
"R.	c #323232",
"S.	c #C2C2C2",
"T.	c #A5A5A5",
"U.	c #D6D6D6",
"V.	c #ADADAD",
"W.	c #171717",
"X.	c #EAEAEA",
"Y.	c #F2F0F0",
"Z.	c #F2E9E9",
"`.	c #2C2C2C",
" +	c #CBCBCB",
".+	c #606060",
"++	c #8C8C8C",
"@+	c #F2E2E2",
"#+	c #F3C8C8",
"$+	c #F5B0B0",
"%+	c #F69898",
"&+	c #F78888",
"*+	c #F78D8D",
"=+	c #F78C8C",
"-+	c #F78989",
";+	c #E5B9B9",
">+	c #CACACA",
",+	c #F3CDCD",
"'+	c #F69E9E",
")+	c #D86E6E",
"!+	c #740505",
"~+	c #EF8484",
"{+	c #F78B8B",
"]+	c #F78A8A",
"^+	c #F69999",
"/+	c #F5B3B3",
"(+	c #F3CACA",
"_+	c #F2E5E5",
":+	c #1A1A1A",
"<+	c #F2DBDB",
"[+	c #686868",
"}+	c #161616",
"|+	c #CECECE",
"1+	c #0A0A0A",
"2+	c #BABABA",
"3+	c #A4A4A4",
"4+	c #0E0E0E",
"5+	c #090909",
"6+	c #B8B8B8",
"7+	c #383838",
"8+	c #989898",
"9+	c #B5B5B5",
"0+	c #D1D1D1",
"a+	c #C7C7C7",
"b+	c #9D9D9D",
"c+	c #AEAEAE",
"d+	c #9A9A9A",
"e+	c #D0D0D0",
"f+	c #CDCDCD",
"g+	c #C3C3C3",
"h+	c #BEBEBE",
"i+	c #1C1C1C",
"                                      . + @ # # $ % & *                                         ",
"                              = - ; > , , , , , , , , , > ' ) !                                 ",
"                          ~ { ] ^ ^ ^ ^ ^ ^ ^ ^ ^ ^ ^ / / / / ( _ ~                             ",
"                      : < [ } } } } } } | 1 2 3 4 5 6 7 7 7 7 7 7 8 9 0                         ",
"                    a b [ [ [ [ c d . e f g h b h $ i e i j k 8 l l l m n                       ",
"                o p q 6 6 6 r s t u v w x x x y x x x z A B C & q D D D E F                     ",
"              o . q | | q G F H I J J K L M N O N M P K J J Q , R S T T T E U o                 ",
"            o V W X X 1 t ( I Y Z `  .........p ........+.` Z Y w @.#.$.%.%.%.&.o               ",
"          o e b m m g i *.Y Z =.-.;.;.;.;.;.;. .;.;.;.;.;.;.-.` Z Y >.,.'.u u ).p               ",
"          !.~.{.{.d + ].Z ^./.;.;.;.;.;.;.;.;.;.;.;.;.;.;.;.;.;./.^.Z (.&.~._._.B :.            ",
"        o + 1 1 g <.[.Z }. .|.|.|.|.|.|.|.|.|.|.|.|.|.|.|.1.2.|.|. .}.K ].3.2 5 5 $ 4.          ",
"      o ~ '.5.~.. 6.K 7. .-.-.-.-.-.-.-.-.-.-.-.-.-.-.-.-.8.> -.-.-. .7.K 9.#.5.0.0.a.o         ",
"      o b.3 3 O c.d.e./. . . . . .-.-.-.-.-.-.-.-.-.-.-.P f f.-.-.-.-./.e.d.g.F 4 4 h.i.        ",
"    o j.k.k.) m d.d.l. . . . . . . . . . . . . . . . . .%.m. . . . . . .l.^.^.~.n.~.~.,.o       ",
"    o o.p.d t z ^.=.+.+.+.+.+.+.+.7.[.+.+.+.+.+.+.+.+.w - q.+.+.+.+.+.+.+.=.^.r.s.# # { t.      ",
"  o 4.u.@ o.v.e.e.1.+.+.+.+.+.+.+.w.x./.+.+.+.+.+.+.+.y.z.+.+.+.+.+.+.+.+.1.e.e.B ) _ _ A.o     ",
"  o B.u.u.a C.e.=./././././././././.h D././././././.E.F././././././././.+.+.=.7.E.G.F.F.f o     ",
"  o V H.I.% 7.7.f./././././././././.7.J.z /././././.K.L././././././././././.M.7.7.s x.9 b.N.    ",
"  o F & O.8.}.}.1.q.q.q.q.q.q.q.q.q.q.P.$ q.q.q.q.v 5./././././././././././.1.}.}.@.J.< < Q.    ",
"o o R.- ! S.}.P q.q.q.q.q.q.q.q.q.q.q.q.{ T.q.q.l.- U.q.q.q.q.q.q.q.q.q.q.q.q.P }.V.a + + W.o   ",
"o 4.&.f 0 ^.P X.1.1.1.1.1.1.1.1.1.1.1.q.z J.^.q.H | q.q.q.q.q.q.q.q.q.q.q.q.q.=.P ].!.I.U O.o   ",
"o !.i p C L L ` 1.1.1.1.1.1.1.1.1.1.1.1.1., ; =.o.e.1.1.1.1.1.1.q.q.q.q.q.Y.Z.X.L L ! F f t o   ",
"o 0 . n `.L ]. +}.1.1.1.1.1.1.1.1.1.1.1.1.N ) .+++1.1.1.@+#+$+%+&+*+&+=+-+*+;+>+U.L G.V `.C o   ",
"o !.p a R.=.E H.>.1.1.1.1.1.1.1.1.1.1.1.,+'+)+!+~+-+{+]+^+/+(+_+1.1.1.1.1.1.P.H.^ =.C :+J.s.o   ",
"o t.C :.a.X.X.` 1.1.1.1.1.1.1.1.1.1.1.1.<+<+[+g T 1.1.1.1.1.1.1.1.1.1.1.1.1.1.X.X.X.e }+O A.o   ",
"o N.n Q.:+X.X.X.N l.l.l.l.l.l.l.l.l.l.l.l.e.u.=.j M l.l.l.l.l.l.l.l.l.l.l.l.N X.X.L 0 ~ s.a o   ",
"o o B.! N.^.` ` f.l.l.l.l.l.l.l.l.l.l.l.l.l.N l.l.l.l.l.l.l.l.l.l.l.l.l.l.l.f.` ` |+o :.A.j.o   ",
"o o Q.1+o 2+M M M.l.l.l.l.l.l.l.l.l.l.l.l.l.l.l.l.l.l.l.l.l.l.l.l.l.1.1.1.1.M.M M 3+o 4+e 5+o   ",
"  o 0 5+o 8 M M M N l.l.l.l.l.l.l.l.l.l.l.l.l.l.l.l.l.l.l.l.l.l.l.l.l.l.l.N M M M _.o Q.:.: o   ",
"  o 4.0 o U M.M.M.f.l.l.l.l.l.l.l.l.l.l.l.l.l.l.l.l.l.l.l.l.l.l.l.l.l.l.l.f.M.M.M.V o 1+! o     ",
"  o o : o N. +M.M.M.N N N N l.l.l.l.l.l.l.l.l.l.l.l.l.l.l.l.l.1.1.1.1.1.l.f.f.f.6+o N.i.!.o     ",
"  o o o o o ; f.f.f.f.l.l.l.l.l.l.l.l.l.l.l.l.l.l.l.l.l.l.l.l.l.l.l.l.l.f.f.f.f._ o N.4.N.o     ",
"    o o o o i.6.N N N N l.l.l.l.l.l.l.l.l.l.l.l.l.l.l.l.l.l.l.l.l.l.l.N N N N S.4.o o o o       ",
"    o o o o o { N N N N N l.l.l.l.l.l.l.l.l.l.l.1.1.1.1.1.1.1.1.1.1.l.l.l.l.N 7+o o o o o       ",
"      o o o o o 8+l.l.l.l.l.l.l.l.l.l.l.l.l.l.l.l.l.l.l.l.l.l.l.l.l.l.l.l.l.] o o o o o         ",
"      o o o o o ! L.1.1.1.1.1.1.1.1.1.1.1.1.1.1.1.1.1.1.1.1.1.1.1.1.1.1.1.9+!.o o o o o         ",
"        o o o o o A.0+1.1.1.1.1.1.1.1.1.1.1.1.1.1.1.1.1.1.1.1.1.1.1.1.q.E.j.o o o o o           ",
"          o o o o o A.a+q.q.q.q.q.q.q.q.q.q.q.q.q.q.q.q.q.q.q.q.q.q.q.2+:.o o o o o o           ",
"          o o o o o o ! b+/./././././././././.c+/./././././././././.d+5+o o o o o o             ",
"            o o o o o o o $ [././././././././.O /./././././././.e+9 o o o o o o o               ",
"              o o o o o o o 5+_.C.+.+.+.+.+.+.5.+.+.+.+.+.+.f+h !.o o o o o o o                 ",
"                o o o o o o o o N.& > g+f. . . . . .` h+l s o o o o o o o o o                   ",
"                    o o o o o o o o o o 4.i+3.s i :+N.o o o o o o o o o o o                     ",
"                      o o o o o o o o o o o o o o o o o o o o o o o o o                         ",
"                          o o o o o o o o o o o o o o o o o o o o o o                           ",
"                              o o o o o o o o o o o o o o o o o                                 ",
"                                  o o o o o o o o o o o o o                                     ",
"                                                                                                "};
