/* XPM */
static const char* coins_xpm[] = {
"48 48 672 2",
"  	c None",
". 	c #000000",
"+ 	c #080602",
"@ 	c #0F0D03",
"# 	c #0E0D02",
"$ 	c #0B0A02",
"% 	c #070601",
"& 	c #060601",
"* 	c #030301",
"= 	c #010100",
"- 	c #060501",
"; 	c #0D0B02",
"> 	c #0E0D03",
", 	c #0C0A01",
"' 	c #020200",
") 	c #070500",
"! 	c #0D0C02",
"~ 	c #2C2707",
"{ 	c #594E0E",
"] 	c #786913",
"^ 	c #8B7916",
"/ 	c #A28E1A",
"( 	c #B79F1D",
"_ 	c #BFA61E",
": 	c #C6AC1F",
"< 	c #CFB321",
"[ 	c #CCB120",
"} 	c #BDA51E",
"| 	c #AA941B",
"1 	c #978318",
"2 	c #817115",
"3 	c #695C11",
"4 	c #3F360A",
"5 	c #181504",
"6 	c #020100",
"7 	c #090701",
"8 	c #0B0A01",
"9 	c #040301",
"0 	c #221E05",
"a 	c #A38E1A",
"b 	c #D9BD22",
"c 	c #EFD026",
"d 	c #EECF26",
"e 	c #EECE26",
"f 	c #EDCD26",
"g 	c #EDCC26",
"h 	c #ECCB26",
"i 	c #ECCA26",
"j 	c #EECD26",
"k 	c #EFCF26",
"l 	c #E8CA25",
"m 	c #B9A11E",
"n 	c #827215",
"o 	c #433A0A",
"p 	c #050401",
"q 	c #0C0B02",
"r 	c #0A0A01",
"s 	c #766813",
"t 	c #CAB121",
"u 	c #F0D126",
"v 	c #EBC926",
"w 	c #EBC826",
"x 	c #EAC726",
"y 	c #E9C625",
"z 	c #E9C525",
"A 	c #E9C425",
"B 	c #EAC626",
"C 	c #E5C825",
"D 	c #9B8819",
"E 	c #312B08",
"F 	c #080601",
"G 	c #675910",
"H 	c #E3C725",
"I 	c #F0D227",
"J 	c #EDCB26",
"K 	c #E8C325",
"L 	c #E7C225",
"M 	c #E7C125",
"N 	c #E6C025",
"O 	c #E6BF25",
"P 	c #E8C425",
"Q 	c #AA961C",
"R 	c #080802",
"S 	c #0D0C01",
"T 	c #716412",
"U 	c #F1D327",
"V 	c #E5BF25",
"W 	c #E5BD25",
"X 	c #E4BC25",
"Y 	c #E3BB25",
"Z 	c #E3BA24",
"` 	c #E2B924",
" .	c #E4BB25",
"..	c #E4BD25",
"+.	c #E5BE25",
"@.	c #CEB421",
"#.	c #A8941B",
"$.	c #F0D127",
"%.	c #EAC826",
"&.	c #E1B724",
"*.	c #E1B624",
"=.	c #E2B824",
"-.	c #EFD126",
";.	c #F0D327",
">.	c #161304",
",.	c #1C1905",
"'.	c #CEB521",
").	c #E6C125",
"!.	c #EFD127",
"~.	c #655910",
"{.	c #090802",
"].	c #030300",
"^.	c #4E430C",
"/.	c #746613",
"(.	c #E0C424",
"_.	c #E8C225",
":.	c #A8931B",
"<.	c #2D2707",
"[.	c #2B2507",
"}.	c #040401",
"|.	c #958218",
"1.	c #BDA41E",
"2.	c #433A0B",
"3.	c #070701",
"4.	c #4C420C",
"5.	c #9D8A1A",
"6.	c #DBBF23",
"7.	c #E9CB25",
"8.	c #BAA31E",
"9.	c #6F6112",
"0.	c #191504",
"a.	c #8C7A17",
"b.	c #EBCF26",
"c.	c #907E17",
"d.	c #CDB021",
"e.	c #7A6914",
"f.	c #2E2707",
"g.	c #030200",
"h.	c #241F06",
"i.	c #5A4F0F",
"j.	c #827115",
"k.	c #A7911B",
"l.	c #CCB220",
"m.	c #E7C925",
"n.	c #D9BC22",
"o.	c #B69E1D",
"p.	c #927F17",
"q.	c #6D6012",
"r.	c #3A3309",
"s.	c #080701",
"t.	c #161303",
"u.	c #594D0E",
"v.	c #AC951B",
"w.	c #ECCE25",
"x.	c #ECD026",
"y.	c #080801",
"z.	c #070501",
"A.	c #8C7A16",
"B.	c #DDBC24",
"C.	c #A78D1B",
"D.	c #746212",
"E.	c #4F420C",
"F.	c #2B2407",
"G.	c #383009",
"H.	c #3F370A",
"I.	c #4B400C",
"J.	c #4F450D",
"K.	c #54490D",
"L.	c #4F450C",
"M.	c #41390B",
"N.	c #171404",
"O.	c #1C1804",
"P.	c #40360B",
"Q.	c #645510",
"R.	c #937D18",
"S.	c #C9AD20",
"T.	c #E7CB25",
"U.	c #231F06",
"V.	c #9A8519",
"W.	c #E9CA25",
"X.	c #D1AE22",
"Y.	c #BE9C1F",
"Z.	c #AA8B1B",
"`.	c #977B18",
" +	c #876E16",
".+	c #876D16",
"++	c #7A6314",
"@+	c #786213",
"#+	c #796313",
"$+	c #856D15",
"%+	c #897116",
"&+	c #927918",
"*+	c #A2871A",
"=+	c #B5971D",
"-+	c #CDAC21",
";+	c #E0BC24",
">+	c #9E8B1A",
",+	c #191704",
"'+	c #6C5D11",
")+	c #C3A71F",
"!+	c #E0B624",
"~+	c #E0C324",
"{+	c #8A7816",
"]+	c #292407",
"^+	c #0B0902",
"/+	c #0F0D02",
"(+	c #211C05",
"_+	c #665711",
":+	c #A58C1A",
"<+	c #DAB823",
"[+	c #CCAF21",
"}+	c #8E7A17",
"|+	c #453C0B",
"1+	c #3E360A",
"2+	c #1A1704",
"3+	c #342E08",
"4+	c #121103",
"5+	c #807014",
"6+	c #D9BB23",
"7+	c #665810",
"8+	c #141203",
"9+	c #1B1704",
"0+	c #292307",
"a+	c #51440D",
"b+	c #736013",
"c+	c #957C18",
"d+	c #B6961D",
"e+	c #D6AF22",
"f+	c #D7B422",
"g+	c #B4971D",
"h+	c #907A17",
"i+	c #6D5C12",
"j+	c #383109",
"k+	c #3A330A",
"l+	c #282306",
"m+	c #9C8919",
"n+	c #EFD227",
"o+	c #0F0E02",
"p+	c #7D6C14",
"q+	c #E3C325",
"r+	c #9B8519",
"s+	c #4E420D",
"t+	c #131103",
"u+	c #1C1805",
"v+	c #211D05",
"w+	c #171304",
"x+	c #201A05",
"y+	c #2D2507",
"z+	c #382E09",
"A+	c #3D320A",
"B+	c #392F09",
"C+	c #2E2607",
"D+	c #151103",
"E+	c #0A0802",
"F+	c #221D05",
"G+	c #2B2607",
"H+	c #2D2808",
"I+	c #1D1905",
"J+	c #6D5F11",
"K+	c #C0A61F",
"L+	c #F1D427",
"M+	c #0A0902",
"N+	c #090801",
"O+	c #776813",
"P+	c #C5A71F",
"Q+	c #927B17",
"R+	c #6B5A11",
"S+	c #483D0B",
"T+	c #231D06",
"U+	c #141103",
"V+	c #161404",
"W+	c #151204",
"X+	c #191604",
"Y+	c #121003",
"Z+	c #332B08",
"`+	c #584B0E",
" @	c #7C6A14",
".@	c #A88F1B",
"+@	c #DEBF24",
"@@	c #110F03",
"#@	c #776713",
"$@	c #D9BC23",
"%@	c #D9B323",
"&@	c #C4A11F",
"*@	c #AF901C",
"=@	c #A5871A",
"-@	c #9F8019",
";@	c #957918",
">@	c #977C18",
",@	c #A78A1B",
"'@	c #A98B1B",
")@	c #BC9D1E",
"!@	c #CFAC21",
"~@	c #E2BE24",
"{@	c #EBCE26",
"]@	c #938218",
"^@	c #151203",
"/@	c #A38B1A",
"(@	c #E3C125",
"_@	c #E3BB24",
":@	c #E1B824",
"<@	c #E0B524",
"[@	c #D3B722",
"}@	c #786813",
"|@	c #262106",
"1@	c #332E09",
"2@	c #7A6B14",
"3@	c #473C0B",
"4@	c #877215",
"5@	c #BEA11E",
"6@	c #E5C025",
"7@	c #E6C525",
"8@	c #B59C1D",
"9@	c #796813",
"0@	c #312A08",
"a@	c #423A0B",
"b@	c #7F6E14",
"c@	c #8A7917",
"d@	c #8D7B16",
"e@	c #100E03",
"f@	c #0E0C02",
"g@	c #362D09",
"h@	c #57490E",
"i@	c #796514",
"j@	c #9A7F19",
"k@	c #BA991E",
"l@	c #D3AD22",
"m@	c #E4BE25",
"n@	c #D7B323",
"o@	c #C0A11F",
"p@	c #9C8419",
"q@	c #7A6813",
"r@	c #574A0E",
"s@	c #322B08",
"t@	c #1E1A05",
"u@	c #554A0E",
"v@	c #2F2908",
"w@	c #B39D1D",
"x@	c #DABD23",
"y@	c #826F15",
"z@	c #302A08",
"A@	c #393209",
"B@	c #726413",
"C@	c #7E6E14",
"D@	c #695B11",
"E@	c #453B0B",
"F@	c #110E03",
"G@	c #1E1905",
"H@	c #292207",
"I@	c #1F1905",
"J@	c #141003",
"K@	c #584C0E",
"L@	c #5C500F",
"M@	c #221E06",
"N@	c #53490D",
"O@	c #A9941B",
"P@	c #7A6A13",
"Q@	c #CDAE21",
"R@	c #5B4E0F",
"S@	c #282206",
"T@	c #2C2607",
"U@	c #493F0C",
"V@	c #5D500F",
"W@	c #645610",
"X@	c #655810",
"Y@	c #635610",
"Z@	c #685A10",
"`@	c #5F530F",
" #	c #5D510F",
".#	c #564A0E",
"+#	c #554A0D",
"@#	c #5B4F0E",
"##	c #584D0E",
"$#	c #4E450D",
"%#	c #483F0C",
"&#	c #3E350A",
"*#	c #3D350A",
"=#	c #756413",
"-#	c #AB931B",
";#	c #E5C625",
">#	c #49400C",
",#	c #E3BF24",
"'#	c #C5A41F",
")#	c #A0851A",
"!#	c #846E15",
"~#	c #715D12",
"{#	c #5D4D0F",
"]#	c #483C0C",
"^#	c #3D330A",
"/#	c #3C320A",
"(#	c #40360A",
"_#	c #52450E",
":#	c #655510",
"<#	c #796613",
"[#	c #907917",
"}#	c #B0951C",
"|#	c #D7B623",
"1#	c #E9CD26",
"2#	c #050501",
"3#	c #5E510F",
"4#	c #B69D1D",
"5#	c #DEC123",
"6#	c #847315",
"7#	c #181604",
"8#	c #151303",
"9#	c #221D06",
"0#	c #6D5D12",
"a#	c #B2971D",
"b#	c #E6C325",
"c#	c #E0C124",
"d#	c #9E8919",
"e#	c #52470D",
"f#	c #292406",
"g#	c #D1B521",
"h#	c #574B0E",
"i#	c #070702",
"j#	c #252006",
"k#	c #0C0A02",
"l#	c #41370A",
"m#	c #766313",
"n#	c #9F8419",
"o#	c #C1A01F",
"p#	c #E0BA24",
"q#	c #E3C024",
"r#	c #C2A41F",
"s#	c #9E871A",
"t#	c #705F12",
"u#	c #362E09",
"v#	c #1E1B05",
"w#	c #131003",
"x#	c #857516",
"y#	c #938217",
"z#	c #766613",
"A#	c #1A1604",
"B#	c #1F1A05",
"C#	c #3F340A",
"D#	c #59490E",
"E#	c #655310",
"F#	c #6E5912",
"G#	c #776113",
"H#	c #866D15",
"I#	c #8C7316",
"J#	c #887016",
"K#	c #7B6614",
"L#	c #665511",
"M#	c #5C4D0F",
"N#	c #42380B",
"O#	c #272206",
"P#	c #918017",
"Q#	c #40380A",
"R#	c #EACB25",
"S#	c #CAAD21",
"T#	c #947D18",
"U#	c #5C4E0F",
"V#	c #2F2807",
"W#	c #171303",
"X#	c #1D1A05",
"Y#	c #0F0C02",
"Z#	c #1D1904",
"`#	c #726212",
" $	c #A9921B",
".$	c #DFC124",
"+$	c #8B7A16",
"@$	c #807015",
"#$	c #8C7916",
"$$	c #E7C825",
"%$	c #CCAA21",
"&$	c #AC8E1C",
"*$	c #947A18",
"=$	c #816A15",
"-$	c #6D5A11",
";$	c #5A4A0E",
">$	c #57470E",
",$	c #4B3E0C",
"'$	c #4B3D0C",
")$	c #41360A",
"!$	c #4C3F0C",
"~$	c #4F410D",
"{$	c #5C4C0F",
"]$	c #625210",
"^$	c #746113",
"/$	c #8A7316",
"($	c #9F8519",
"_$	c #B89B1D",
":$	c #DCBA23",
"<$	c #706312",
"[$	c #050400",
"}$	c #292306",
"|$	c #5C510F",
"1$	c #6E5E12",
"2$	c #C5AA20",
"3$	c #050500",
"4$	c #867515",
"5$	c #736213",
"6$	c #B89B1E",
"7$	c #E6C625",
"8$	c #60530F",
"9$	c #100D03",
"0$	c #A28D1A",
"a$	c #282307",
"b$	c #685B11",
"c$	c #8D7B17",
"d$	c #665910",
"e$	c #715F12",
"f$	c #D7B223",
"g$	c #B99D1D",
"h$	c #978119",
"i$	c #706012",
"j$	c #393109",
"k$	c #CBB221",
"l$	c #917E17",
"m$	c #EBCB26",
"n$	c #B1981C",
"o$	c #5F520F",
"p$	c #645810",
"q$	c #61550F",
"r$	c #352B08",
"s$	c #46390B",
"t$	c #4F400D",
"u$	c #5A480E",
"v$	c #665310",
"w$	c #705B12",
"x$	c #745F12",
"y$	c #6A5711",
"z$	c #52440D",
"A$	c #473B0B",
"B$	c #382F09",
"C$	c #181404",
"D$	c #837315",
"E$	c #DFC223",
"F$	c #EDD126",
"G$	c #0A0901",
"H$	c #8D7A16",
"I$	c #C3A620",
"J$	c #8C7616",
"K$	c #594C0E",
"L$	c #2A2407",
"M$	c #201C05",
"N$	c #120F03",
"O$	c #030201",
"P$	c #40370A",
"Q$	c #AE961C",
"R$	c #E2C224",
"S$	c #E8CC25",
"T$	c #A3901A",
"U$	c #2F2907",
"V$	c #090702",
"W$	c #060401",
"X$	c #362F09",
"Y$	c #B79E1D",
"Z$	c #D2AF22",
"`$	c #B7981E",
" %	c #A2851A",
".%	c #8E7517",
"+%	c #7B6514",
"@%	c #715C12",
"#%	c #695511",
"$%	c #645110",
"%%	c #5A4A0F",
"&%	c #5F4E0F",
"*%	c #6C5912",
"=%	c #7A6514",
"-%	c #867016",
";%	c #9D8319",
">%	c #B1941C",
",%	c #C6A720",
"'%	c #E4C124",
")%	c #B8A21E",
"!%	c #B59E1D",
"~%	c #B39E1D",
"{%	c #887516",
"]%	c #DABB23",
"^%	c #ECCE26",
"/%	c #A8921B",
"(%	c #443C0B",
"_%	c #D7BC23",
":%	c #040300",
"<%	c #C3A51F",
"[%	c #E7C325",
"}%	c #61540F",
"|%	c #B29B1D",
"1%	c #CFB521",
"2%	c #4B420C",
"3%	c #AF971C",
"4%	c #463B0B",
"5%	c #8F7617",
"6%	c #B0921C",
"7%	c #D1AD22",
"8%	c #CFAE21",
"9%	c #AD921B",
"0%	c #8B7516",
"a%	c #352E09",
"b%	c #322C08",
"c%	c #7E6D14",
"d%	c #A9941C",
"e%	c #615510",
"f%	c #897816",
"g%	c #A7901B",
"h%	c #50450D",
"i%	c #231E06",
"j%	c #201B05",
"k%	c #292206",
"l%	c #322908",
"m%	c #3C310A",
"n%	c #493B0C",
"o%	c #51420D",
"p%	c #54450D",
"q%	c #4A3C0C",
"r%	c #302808",
"s%	c #262006",
"t%	c #372F09",
"u%	c #645710",
"v%	c #948117",
"w%	c #A6921A",
"x%	c #4A410C",
"y%	c #1F1B05",
"z%	c #716312",
"A%	c #D0B622",
"B%	c #8E7D17",
"C%	c #E0C024",
"D%	c #A48C1B",
"E%	c #1A1705",
"F%	c #302908",
"G%	c #373008",
"H%	c #332D08",
"I%	c #2E2807",
"J%	c #473E0B",
"K%	c #4D420C",
"L%	c #53480D",
"M%	c #63570F",
"N%	c #625610",
"O%	c #564B0E",
"P%	c #3A3209",
"Q%	c #4E430D",
"R%	c #857215",
"S%	c #BEA41E",
"T%	c #EDCE26",
"U%	c #887716",
"V%	c #B39B1C",
"W%	c #CDAB21",
"X%	c #A98D1B",
"Y%	c #877016",
"Z%	c #5E4D0F",
"`%	c #2F2708",
" &	c #221C06",
".&	c #282106",
"+&	c #342C09",
"@&	c #40350A",
"#&	c #7A6613",
"$&	c #B99C1D",
"%&	c #7D6E14",
"&&	c #947F18",
"*&	c #C1A91F",
"=&	c #D9B823",
"-&	c #CCB121",
";&	c #837215",
">&	c #645410",
",&	c #957D18",
"'&	c #B89A1E",
")&	c #D8B423",
"!&	c #B99E1E",
"~&	c #937E18",
"{&	c #5C4F0F",
"]&	c #332A08",
"^&	c #695611",
"/&	c #735D12",
"(&	c #7B6314",
"_&	c #947818",
":&	c #806915",
"<&	c #766213",
"[&	c #6B5911",
"}&	c #594A0E",
"                            . + @ # $ % & * . = & - $ ; > , '                                   ",
"                  ) ! = $ ~ { ] ^ / ( _ : < < < [ _ } | 1 2 3 4 5 6 7 8                         ",
"            8 9 0 3 a b c d e f g g h i i i i i i i h h g f j e k l m n o p q                   ",
"        r $ s t u c e f g h v w x x y z z A A A z z y B x w v i h f e k c C D E %               ",
"      F G H I c e f J i v x y A K L M N N O O O O N M L K P z x w v h g e k u I Q # R           ",
"    S T U I c d f h i w B z K L N V W X Y Z ` Z Z  ...+.N M K P y x v h g e k u U @.-           ",
"    q #.U $.c e f h v %.y A K M O +.X Z ` &.*.&.=.Z  ...V N L P z x w i g j k -.I ;.>.          ",
"    * ,.'.I -.k j g i v x y P K M N +.W X X  .X X ..+.O ).L K z B w v h f e c $.!.~.{.          ",
"    ].^.q /.(.u k e g h i w x y z P K L M M M M M L _.K A z x %.v i g j d c !.:.<.[.}.          ",
"    }.|.1.2.3.4.5.6.c e j g h i v w %.x x B B B x x x w v i h g f e k 7.8.9.,.0.a.b.=           ",
"    p c.e f d.e.f.g.h.i.j.k.l.m.e j f g g g g g g g f f e e n.o.p.q.r.s.t.u.v.w.U x.. y.        ",
"    z.A.e f h i w B.C.D.E.F.% . ; h.G.H.I.J.K.L.J.M.4 [.N.9 = O.P.Q.R.S.g e c u U T.. q         ",
"    }.U.V.W.h i w x z P L ).+.X.Y.Z.`. +.+++@+#+$+%+&+*+=+-+;+z B w v h g e c u I >+. ,+.       ",
"      9 ' >.'+)+w x z P L ).O +.X Z ` &.*.!+&.` Z X W V N L K z B w v h g e ~+{+]+g.U.^+        ",
"      s.L.- /+. (+_+:+<+L ).O +.X Z ` &.*.!+&.` Z X W V N L K z B w v [+}+|+3.; 1+2+3+4+        ",
"      s.5+6+7+{.8+9+= ' 0+a+b+c+d+e+` &.*.!+&.` Z X W V N f+g+h+i+I.0.. q j+k+; l+m+n+o+        ",
"      s.p+e f q+r+s+t+- u+v+2+p . . ; w+x+y+z+A+B+C+x+D+^+. . E+F+G+H+I+' [.J+K+u I L+M+        ",
"      N+O+e f h i w x P+Q+R+S+T+% . }./+U+V+W+X+X+V+0.Y+q . . t+Z+`+ @.@+@g e k u I L+-         ",
"      % @@#@$@h i w x z P L M O +.%@&@*@=@-@;@;@`.>@,@'@)@!@~@K z B %.v h g e k u {@]@= .       ",
"      3.v+^@- I./@(@x z P L M O +.X _@` :@*.<@&.` Z X W V N L K z B %.v h g e [@}@2+& ]..       ",
"      3.|@1@2@2.g.N+3@4@5@6@M O +.X _@` :@*.<@&.` Z X W V N L K z B %.7@8@9@0@= 5 a@! /+        ",
"      s.b@#@; a@c@d@^.e@. f@g@h@i@j@k@l@:@*.<@&.` Z X W m@n@o@p@q@r@s@N+. t@K.u@2+v@w@Y+        ",
"      s.b@e x@y@z@% A@B@A.C@D@E@v+9 . . . s.F@G@H@I@J@N+. . . 9 v+E@K@L@J.M@M+N@O@!.L+;         ",
"      s.P@e f h i Q@R.R@S@p s.T@U@V@W@X@Y@Z@`@ #.#+#@#L@##$#%#&#I+= F@*#=#-#;#k u I L+s.-       ",
"      s.>#x@f h i w x z P ,#'#)#!#~#{#]#^#/#C+C+f.Z+^#(#_#:#<#[#}#|#%.v h g e k u I 1#}.s.      ",
"      . 2#% 3#4#i w x z P L M O +.X _@` :@*.<@&.` Z X W V N L K z B %.v h g e k 5#6#7#- 2#      ",
"        p $ 8#. 9#0#a#b#P L M O +.X _@` :@*.<@&.` Z X W V N L K z B %.v h c#d#e#s.q t.f#g.      ",
"        g.g#h#i#j#I+. k#l#m#n#o#p#X _@` :@*.<@&.` Z X W V N L K q#r#s#t#u#p 2#|@v#w#x#y#}.      ",
"      3.. e e [+z#h.- 0 [.A#' . g.B#C#D#E#F#G#H#I#J#K#~#L#M#N#B#g.. * O.O#0.9 a@|.C U P#2#      ",
"    8 Q#. R#e g h v S#T#U#V#^+* W#t@t@X#t@O.U+Y#^+; U+2+Z#O.9+2+f@. 5 &#`# $.$d c I U +$z.      ",
"    ! @$. #$$$g h v %.B z K L %$&$*$=$-$;$>$,$'$)$!$~${$]$^$/$($_$:$x w i g f d c I U <$s.      ",
"    [$}$|$N+8#1$2$v %.B z K L N +... .Z =.&.<@*.=.` Y X +.O M L P z x w i g f d l 5.z@. 3$      ",
"    g.*#A#4$] v+. <.5$6$b#K L N +... .Z =.&.<@*.=.` Y X +.O M L P z x w i 7$ $8$9$' }.          ",
"    9 |.0$a$5 b$c$d$(+. k#(#e$c+=+f$ .Z =.&.<@*.=.` Y X +.O M L :$g$h$i$j$& = % *#k$' .         ",
"    p l$e m$n$o$w#$ H.p$q$>#0+% . . J@r$s$t$u$v$w$x$y${$z$A$B$C$. . }.$ ' O#D$E$U F$. @ G$      ",
"    - H$e f h i x I$J$K$s@/+= ^@h.f.s@L$j#|@M$I+C$U+N.t.N$^+].O$A#P$=#Q$R$e c u U S$. T$U$V$    ",
"    W$X$Y$f h i w x z P L ).Z$`$ %.%+%@%#%$%%%&%y$*%=%-%;%>%,%'%B w v h g e c u U )%. !%~%f@    ",
"      - . T@{%]%w x z P L ).O +.X Z ` &.*.!+&.` Z X W V N L K z B w v h g e ^%/%(%= A@_%|$N+    ",
"        . :%}.9 *#y@<%[%L ).O +.X Z ` &.*.!+&.` Z X W V N L K z B w v q+-#}%N.' (%|%1%2%I+*     ",
"          2#3%M$^+k#. @@4%i+5%6%7%Z ` &.*.!+&.` Z X W V N L 8%9%0%_+a%p = b%c%1%d%u@{.e%f%p     ",
"          ' k f g%h%i#8#i%j%^+. . f@k%l%m%n%o%;$p%q%A+r%s%k#. . w#t%u%v%w%2 x%e@y%z%A%U B%-     ",
"          . f e g h C%D%1$t%$ 9 E%[.F%G%X$j+H%I%j+P$J%K%L%|$M%N%O%P%^@. 2+Q%R%S%T%c I U U%3.    ",
"          . V%e g h v %.B z K W%X%Y%~#Z%]#^#`%C+ &B#.&f.+&@&_#:##&T#$&B.v i g f d c I U %&s.    ",
"          z.. F%&&c#v %.B z K M N +... .Z =.&.<@*.=.` Y X +.O M _.P z x v i g f d c *&O%' p     ",
"              ].' % h%h$=&z K M N +... .Z =.&.<@*.=.` Y X +.O M _.P z x v i g -&;&T@. &         ",
"                    p ' 6 }$>&,&'&)&.. .Z =.&.<@*.=.` Y X +.O M _.P :$!&~&{&t@. p '             ",
"                          . - ' . . 9$]&>$^&/&(&.+_&`.%+:&<&[&}&B$@@. . g.z..                   ",
"                                      . 9 % F % 9 ' = 9 % s.% }..                               "};
