/* XPM */
static const char * coin_xpm[] = {
"16 16 166 2",
"  	c None",
". 	c #8A7D4D",
"+ 	c #9E915B",
"@ 	c #A2945D",
"# 	c #A4965E",
"$ 	c #9F925B",
"% 	c #8C7E4F",
"& 	c #9B8A55",
"* 	c #AA9D61",
"= 	c #CFC17B",
"- 	c #D0C27B",
"; 	c #CABC78",
"> 	c #AA9D63",
", 	c #978753",
"' 	c #9D8F58",
") 	c #C3B673",
"! 	c #CEC288",
"~ 	c #D2CCA8",
"{ 	c #D3CEB4",
"] 	c #CFCAB1",
"^ 	c #D0C9A4",
"/ 	c #C0B47F",
"( 	c #BAAE6F",
"_ 	c #BDB270",
": 	c #A09259",
"< 	c #A2925A",
"[ 	c #C6B975",
"} 	c #CEC07B",
"| 	c #D5CEAC",
"1 	c #CCCBC6",
"2 	c #B4B2AD",
"3 	c #C6C4BD",
"4 	c #D7D5CB",
"5 	c #D5D2C7",
"6 	c #CECCBF",
"7 	c #B8B290",
"8 	c #A49962",
"9 	c #C4B875",
"0 	c #9E8F58",
"a 	c #B6A76A",
"b 	c #D9D2AF",
"c 	c #D3D2CF",
"d 	c #B4B3AF",
"e 	c #969591",
"f 	c #D2D1C9",
"g 	c #CECBBE",
"h 	c #B7B5A8",
"i 	c #B5AE8D",
"j 	c #ACA066",
"k 	c #BBAD6C",
"l 	c #A6965A",
"m 	c #CEC07A",
"n 	c #D1C58A",
"o 	c #E3E2DF",
"p 	c #E1E0DC",
"q 	c #B6B5B1",
"r 	c #A5A39F",
"s 	c #D9D7CF",
"t 	c #D4D1C6",
"u 	c #BFBCB1",
"v 	c #BCBAAD",
"w 	c #B8B6A7",
"x 	c #AAA16F",
"y 	c #A9995D",
"z 	c #B7A566",
"A 	c #D7D1AE",
"B 	c #E3E2E0",
"C 	c #A2A19D",
"D 	c #B6B4AF",
"E 	c #CBC9BF",
"F 	c #C7C4BA",
"G 	c #C8C5B9",
"H 	c #BDBCAE",
"I 	c #B8B7A8",
"J 	c #B2AB89",
"K 	c #C6B875",
"L 	c #BCAD6B",
"M 	c #BEAE6D",
"N 	c #DDD8C1",
"O 	c #D9D8D4",
"P 	c #989793",
"Q 	c #C8C6C0",
"R 	c #C7C5BC",
"S 	c #AFACA4",
"T 	c #B0ADA2",
"U 	c #B3B1A5",
"V 	c #AEAC9E",
"W 	c #B0AA90",
"X 	c #B8AC6E",
"Y 	c #C2B270",
"Z 	c #C0AF6C",
"` 	c #C6C5C2",
" .	c #9A9996",
"..	c #D9D7D1",
"+.	c #CFCDC4",
"@.	c #A09D96",
"#.	c #9E9C93",
"$.	c #A5A496",
"%.	c #99988C",
"&.	c #9F9A81",
"*.	c #B9AD6E",
"=.	c #B7A86A",
"-.	c #B6A667",
";.	c #B2B1AE",
">.	c #AAAAA6",
",.	c #DBD9D3",
"'.	c #CAC8C0",
").	c #C0BEB5",
"!.	c #A5A39A",
"~.	c #AFACA2",
"{.	c #AFADA0",
"].	c #A9A89A",
"^.	c #A8A17F",
"/.	c #C1B472",
"(.	c #B8A76A",
"_.	c #A49459",
":.	c #CDBF7A",
"<.	c #C8BD82",
"[.	c #B7B6B4",
"}.	c #979694",
"|.	c #9D9C98",
"1.	c #C0BEBA",
"2.	c #C4C2BC",
"3.	c #BDBBB2",
"4.	c #D2CFC4",
"5.	c #CDCABD",
"6.	c #C0BDAE",
"7.	c #B8AE79",
"8.	c #A7975E",
"9.	c #B4A568",
"0.	c #D8D1AF",
"a.	c #DDDCD7",
"b.	c #C0BDB1",
"c.	c #C6C4B6",
"d.	c #ACA685",
"e.	c #B4A86A",
"f.	c #B7A96B",
"g.	c #A4945C",
"h.	c #BDAF6E",
"i.	c #D6D0AC",
"j.	c #DBDAD5",
"k.	c #BEBCB0",
"l.	c #BDB593",
"m.	c #ACA168",
"n.	c #B7AB6E",
"o.	c #A19258",
"p.	c #A5945A",
"q.	c #BDAF6F",
"r.	c #CDC288",
"s.	c #D2CDB4",
"t.	c #D2CDB2",
"u.	c #BEB37E",
"v.	c #BAAE6E",
"w.	c #B6A96C",
"x.	c #9B8A57",
"y.	c #A4975F",
"z.	c #C8BA77",
"A.	c #C3B774",
"B.	c #A59860",
"C.	c #978954",
"D.	c #8C804D",
"E.	c #998C57",
"F.	c #A0935B",
"G.	c #9F915A",
"H.	c #9A8D57",
"I.	c #8B7F4D",
"          . + @ # $ %           ",
"      & * = - - - - ; > ,       ",
"    ' ) - ! ~ { ] ^ / ( _ :     ",
"  < [ } | 1 2 3 4 5 6 7 8 9 0   ",
"  a - b c d e f 4 5 g h i j k   ",
"l m n o p q r s 4 t u v w x } y ",
"z - A B p C D s E F G H I J K L ",
"M - N B O P Q s R S T U V W X Y ",
"Z - N B `  ...s +.@.#.$.%.&.*.=.",
"-.- A B ;.>.,.'.).!.~.{.].^./.(.",
"_.:.<.[.}.|.1.2.3.4.5.H 6.7.= 8.",
"  9.- 0.p a.,.s 4 5 b.c.d.e.f.  ",
"  g.h.} i.j.,.s 4 5 k.l.m.n.o.  ",
"    p.q.- r.~ s.t.^ u.v.w.0     ",
"      x.y.z.- - - - A.B.C.      ",
"          D.E.F.G.H.I.          "};
