/* XPM */
static const char *currency_xpm[] = {
/* columns rows colors const chars-per-pixel */
"16 16 111 2",
"]  c #5A5D58",
">. c #E9E096",
"R  c #D57871",
"@  c #245091",
"<. c #F1E895",
">  c #535651",
"%  c #C3C3C3",
"m  c #8A2121",
"+  c #DB8C8C",
"L  c #791816",
"=. c #C9C286",
"A  c #E09090",
"b  c #882727",
"Y  c #B43B38",
"M  c #992A2A",
"o  c #92A8C8",
"4  c #CBCBCB",
"C  c #C84B47",
"t  c #3D3D39",
"0  c #1F1F1F",
"r  c #383939",
"g  c #2E2B28",
"z  c #5B5853",
"=  c #B3191B",
"$  c #B5B5B5",
"@. c #F2E999",
":  c #545752",
":. c #E3DA93",
"3  c #F1F1F1",
"(  c #B7A827",
"-  c #B81717",
"H  c #C0605E",
"a  c #454240",
"^  c #948613",
"k  c #403B38",
"~  c #A39524",
"&  c #CCCCCC",
".  c None",
"*  c #EAEAEA",
"w  c #2F2F2F",
"x  c #DC8181",
"n  c #781616",
"6  c #5C5C5C",
"Z  c #5C5954",
"D  c #CF605C",
";  c #555853",
"+. c #E0CF3D",
"o. c #C7B831",
"q  c #282828",
"X. c #B8A92A",
"G  c #E59F9E",
"N  c #A73131",
"j  c #3C3835",
" . c #958716",
"|  c #A49627",
"1  c #535551",
"'  c #EFE484",
"c  c #BF5E5E",
"2  c #565953",
"   c #565954",
"J  c #A44442",
"*. c #D1C98E",
"$. c #F9F2B7",
"[  c #F9F2B9",
"P  c #8B2421",
"7  c #404040",
"l  c #454138",
"I  c #9A2D2A",
"S  c #BC3C3C",
"h  c #36322F",
"i  c #7C7977",
"y  c #575A52",
"X  c #575A55",
"Q  c #DACC5B",
"{  c #DACC5D",
"u  c #E5E5E5",
"s  c #2A2725",
"B  c #B33838",
"`  c #E0CE39",
"T  c #BD403D",
"9  c #141414",
")  c #C7B72E",
"W  c #F8F0AA",
"v  c #A34242",
"e  c #353636",
"-. c #D3CB8B",
"/  c #A7991E",
"%. c #ECE5A9",
"<  c #51544F",
"O  c #D98D8E",
",. c #EFE698",
";. c #DBD390",
"d  c #1A1614",
"F  c #5B5955",
"!  c #BEB03F",
"E  c #595C57",
"#. c #595C58",
"_  c #D5C434",
"O. c #D5C437",
"K  c #892927",
".. c #A89A21",
"&. c #DED79C",
"V  c #BC3B3B",
"5  c #777777",
",  c #525550",
"8  c #252525",
"f  c #25221F",
"p  c #615E5C",
"#  c #A2A4A6",
"}  c #BFB142",
"U  c #A73531",
/* pixels */
"                          . . . ",
"X o o o o o o O + + + +   . . . ",
"X o @ @ @ @ @ # $ % & *   . . . ",
"X o @ @ @ @ @ = - - - +   . . . ",
"X o @ @ @ @ @ # $ % & *   . . . ",
"X o @   ; : > , < 1 1 1 > : : 2 ",
"X 3 4 ; 5 6 7 8 9 0 q w e r t y ",
"X + - ; 5 6 7 8 9 0 q w e r t y ",
"X 3 u ; i p a s d f g h j k l y ",
"X - - z x c v b n m M N B V C y ",
"      Z A c v b n m M N B S D y ",
". . . F G H J K L P I U Y T R y ",
". . . E W Q ! ~ ^ / ( ) _ ` ' y ",
". . . ] [ { } |  ...X.o.O.+.@.y ",
". . . #.$.%.&.*.=.-.;.:.>.,.<.y ",
". . .                         2 "
};
