/* XPM */
static const char * customsql_xpm[] = {
"16 16 64 1",
" 	c None",
".	c #000000",
"+	c #848484",
"@	c #858585",
"#	c #77A2D7",
"$	c #78A3D8",
"%	c #7AA4D8",
"&	c #7BA5D9",
"*	c #7DA6D9",
"=	c #7EA7DA",
"-	c #80A9DA",
";	c #80A9DB",
">	c #83ABDB",
",	c #83ABDC",
"'	c #86ADDC",
")	c #86ADDD",
"!	c #89AFDD",
"~	c #89AFDE",
"{	c #8BB1DF",
"]	c #8CB1DE",
"^	c #8EB3E0",
"/	c #8FB4DF",
"(	c #91B5E1",
"_	c #93B6E0",
":	c #94B7E2",
"<	c #96B8E1",
"[	c #97B9E3",
"}	c #99BAE2",
"|	c #99BBE3",
"1	c #9BBCE4",
"2	c #9CBCE3",
"3	c #9FBEE4",
"4	c #9FBFE6",
"5	c #A2C1E5",
"6	c #A3C2E7",
"7	c #A4C2E6",
"8	c #A7C5E8",
"9	c #ABC7E9",
"0	c #AFC9EB",
"a	c #AFCAEA",
"b	c #B3CCEC",
"c	c #B4CDEB",
"d	c #B7CFED",
"e	c #B8D0ED",
"f	c #BAD1EF",
"g	c #BBD2EE",
"h	c #D0D0CE",
"i	c #BDD4EF",
"j	c #BFD5F0",
"k	c #C2D7F1",
"l	c #C4D8F1",
"m	c #C5D9F0",
"n	c #C7DBF3",
"o	c #C9DCF3",
"p	c #CBDEF4",
"q	c #CDDFF4",
"r	c #D0E1F5",
"s	c #D1E1F6",
"t	c #D3E3F6",
"u	c #D3E4F7",
"v	c #E1EDFB",
"w	c #F4FAFE",
"x	c #FEFEFE",
"y	c #FFFFFF",
" urpnljgec098641",
"t++++h+++++++++|",
"s+.++h+....++++[",
"q++++h++++@++++:",
"ovvvvvvvvvvvvvv(",
"myyyyyyyyyyyyyy^",
"kx.+.w..+++++.y{",
"iyyyxyyyyyyyyyy~",
"fvvvvvvvvvvvvvv)",
"dv.+.v.++++++.v,",
"bvvvvvvvvvvvvvv;",
"ayyyyyyyyyyyyyy=",
"9y..++++++++..y&",
"8yyyyyyyyyyyyyy$",
"8vvvvvvvvvvvvvv$",
"7532}<_/]!'>-*%#"};
