/* XPM */
static const char *delete_account_xpm[] = {
"16 16 34 1",
" 	c None",
".	c #8EA9BC",
"+	c #5A89A6",
"@	c #6B98B8",
"#	c #6591AE",
"$	c #538DB3",
"%	c #4581AA",
"&	c #3A749C",
"*	c #B7D3E9",
"=	c #B4D1E9",
"-	c #B6D5EE",
";	c #A5CCEA",
">	c #97C4E7",
",	c #85BBE2",
"'	c #72A8D2",
")	c #5F9BC8",
"!	c #E4F0F9",
"~	c #FFFFFF",
"{	c #FF0000",
"]	c #C3DDF1",
"^	c #D6E8F6",
"/	c #D1E5F5",
"(	c #DAEAF7",
"_	c #E2EFF8",
":	c #E9F3FA",
"<	c #F7FAFB",
"[	c #EFF6FC",
"}	c #749BB4",
"|	c #FDFDFE",
"1	c #FAFCFE",
"2	c #F7FBFD",
"3	c #F4F9FD",
"4	c #839CB5",
"5	c #85A7BC",
"   .+@##$%&.    ",
"   .*=-;>,#')   ",
"%%%%!%%%%>#~>@  ",
"%{{%%%{{%;#~~>@ ",
"%{{{%{{{%-##@#$ ",
"%%{{{{{%%]-;>,$ ",
" %%{{{%%^/]-;>$ ",
"%%{{{{{%%(/]-;# ",
"%{{{%{{{%_(/]-# ",
"%{{%%%{{%:_(/]@ ",
"%%%%<%%%%[:_(/} ",
"   .~~|123[:_(} ",
"   .~~~|123[:_4 ",
"   .~~~~|123[:5 ",
"   .~~~~|123[:5 ",
"   ............ "};
