/* XPM */
static const char * delete_custom_sql_xpm[] = {
"16 16 56 1",
" 	c None",
".	c #000000",
"+	c #FF0000",
"@	c #135DBA",
"#	c #145FBB",
"$	c #1861BB",
"%	c #1A63BD",
"&	c #1D64BD",
"*	c #1F66BF",
"=	c #226ABF",
"-	c #226AC1",
";	c #276DC1",
">	c #276DC2",
",	c #2D71C2",
"'	c #2D71C4",
")	c #3274C4",
"!	c #3274C6",
"~	c #3577C7",
"{	c #3777C6",
"]	c #3B7BC9",
"^	c #3C7DC7",
"/	c #407ECB",
"(	c #4581AA",
"_	c #4380C9",
":	c #4582CD",
"<	c #4984CB",
"[	c #4A85CE",
"}	c #4E87CD",
"|	c #4E89CE",
"1	c #518BD0",
"2	c #538BCE",
"3	c #848484",
"4	c #858585",
"5	c #588ED0",
"6	c #5890D4",
"7	c #5D93D2",
"8	c #5F95D5",
"9	c #6195D4",
"0	c #669AD7",
"a	c #6D9ED9",
"b	c #74A1DC",
"c	c #74A3DB",
"d	c #7BA6DE",
"e	c #7DA8DC",
"f	c #84ADE0",
"g	c #89B1E2",
"h	c #90B6E5",
"i	c #99BBE7",
"j	c #9ABDE5",
"k	c #9EC1EA",
"l	c #A5C6EC",
"m	c #ADCBEE",
"n	c #B3D0F1",
"o	c #E1EDFB",
"p	c #FEFEFE",
"q	c #FFFFFF",
" nmlkihgfeba0861",
"((((4((((333333|",
"(++(((++(..3333[",
"(+++(+++(343333:",
"((+++++((oooooo/",
"j((+++((pqqqqqq]",
"((+++++((3333.q~",
"(+++(+++(qqqqqq!",
"(++(((++(oooooo'",
"((((.((((3333.o>",
"doooooooooooooo-",
"cqqqqqqqqqqqqqq*",
"aq..33333333..q%",
"0qqqqqqqqqqqqqq#",
"0oooooooooooooo#",
"9752}<_^{),;=&$@"};
