/* XPM */
static const char * dog_xpm[] = {
"16 16 106 2",
"  	c None",
". 	c #8E695D",
"+ 	c #8B665E",
"@ 	c #876258",
"# 	c #7E5950",
"$ 	c #58362C",
"% 	c #79554B",
"& 	c #AB8477",
"* 	c #5B382E",
"= 	c #846155",
"- 	c #70493E",
"; 	c #A0766A",
"> 	c #CBA094",
", 	c #875D51",
"' 	c #775043",
") 	c #7A5349",
"! 	c #7A5145",
"~ 	c #8F6356",
"{ 	c #A27366",
"] 	c #C99E93",
"^ 	c #D9B3A7",
"/ 	c #E4CAC3",
"( 	c #D8B5A9",
"_ 	c #D4AB9F",
": 	c #D5AC9F",
"< 	c #AC7F72",
"[ 	c #996C5F",
"} 	c #906357",
"| 	c #8B6054",
"1 	c #986B5E",
"2 	c #A17165",
"3 	c #AE7F71",
"4 	c #B59890",
"5 	c #E0D8D5",
"6 	c #FFFFFF",
"7 	c #EDE6E4",
"8 	c #C39B8F",
"9 	c #C59C90",
"0 	c #AC7C70",
"a 	c #A47566",
"b 	c #9E6F61",
"c 	c #9B6E62",
"d 	c #A57769",
"e 	c #A77769",
"f 	c #967B74",
"g 	c #858483",
"h 	c #F5F2F1",
"i 	c #E3DFDD",
"j 	c #919191",
"k 	c #7E7573",
"l 	c #B28C81",
"m 	c #AE8274",
"n 	c #A8786A",
"o 	c #A47466",
"p 	c #A37567",
"q 	c #A07165",
"r 	c #3D3A39",
"s 	c #868585",
"t 	c #F5F5F5",
"u 	c #CECAC9",
"v 	c #606060",
"w 	c #3A3A3A",
"x 	c #90827E",
"y 	c #A47A6E",
"z 	c #A57568",
"A 	c #A37465",
"B 	c #766764",
"C 	c #DAD9D8",
"D 	c #E7E7E7",
"E 	c #E6E5E5",
"F 	c #878787",
"G 	c #777777",
"H 	c #82726D",
"I 	c #966B5F",
"J 	c #805E53",
"K 	c #6C463B",
"L 	c #B4A6A2",
"M 	c #DCDCDC",
"N 	c #D7D7D7",
"O 	c #858585",
"P 	c #656565",
"Q 	c #696463",
"R 	c #855A50",
"S 	c #302B2A",
"T 	c #27211F",
"U 	c #727070",
"V 	c #CFCFCF",
"W 	c #D2D2D2",
"X 	c #ACACAC",
"Y 	c #545454",
"Z 	c #5D514D",
"` 	c #656464",
" .	c #616161",
"..	c #828282",
"+.	c #9E9E9E",
"@.	c #BABABA",
"#.	c #6A6A6A",
"$.	c #48403E",
"%.	c #5D3932",
"&.	c #6D554F",
"*.	c #948D8B",
"=.	c #ABABAB",
"-.	c #A39D9B",
";.	c #785D57",
">.	c #4F281E",
",.	c #51271D",
"                                ",
"  . +                     @     ",
"  # $ %                 & * #   ",
"  = $ - ;             > , ' )   ",
"    ! ~ { ] ^ / ( _ : < [ } |   ",
"    1 2 3 4 5 6 7 8 9 0 a b c   ",
"    d e f g h i j k l m n o p   ",
"      q r s t u v w x y z A     ",
"        B C D E F G G H I       ",
"        J K L M N O P Q R       ",
"        S T U V W X Y Z         ",
"        `  ...+.@.#.$.%.        ",
"        &.*.=.-.;.>.,.          ",
"                                ",
"                                ",
"                                "};
