/* XPM */
static const char* dog_xpm[] = {
"48 48 667 2",
"  	c None",
". 	c #977268",
"+ 	c #9B766C",
"@ 	c #B28A80",
"# 	c #644236",
"$ 	c #5E3B31",
"% 	c #58362C",
"& 	c #745146",
"* 	c #A37B71",
"= 	c #CCA398",
"- 	c #624036",
"; 	c #805D51",
"> 	c #825D53",
", 	c #D8AFA3",
"' 	c #765349",
") 	c #8F6A5F",
"! 	c #775449",
"~ 	c #6B483D",
"{ 	c #B08A7E",
"] 	c #DAB1A5",
"^ 	c #987267",
"/ 	c #69473D",
"( 	c #765348",
"_ 	c #5C3A30",
": 	c #A88276",
"< 	c #BF978B",
"[ 	c #654035",
"} 	c #603C32",
"| 	c #5B392F",
"1 	c #8A655C",
"2 	c #5F3B31",
"3 	c #AB8579",
"4 	c #D4ABA0",
"5 	c #7D564A",
"6 	c #6C463B",
"7 	c #684338",
"8 	c #644035",
"9 	c #613D32",
"0 	c #5D3A30",
"a 	c #59372D",
"b 	c #704D43",
"c 	c #835E53",
"d 	c #724B3F",
"e 	c #BC9387",
"f 	c #9C7368",
"g 	c #774F44",
"h 	c #734C40",
"i 	c #714A3E",
"j 	c #6D473C",
"k 	c #694439",
"l 	c #664136",
"m 	c #613E33",
"n 	c #613D33",
"o 	c #8B685C",
"p 	c #5C392F",
"q 	c #7C5347",
"r 	c #875D51",
"s 	c #DBB1A5",
"t 	c #BC9287",
"u 	c #82584C",
"v 	c #7F5549",
"w 	c #7D5447",
"x 	c #785044",
"y 	c #754D42",
"z 	c #724A3E",
"A 	c #6E483D",
"B 	c #6A453A",
"C 	c #664237",
"D 	c #70493D",
"E 	c #7E5548",
"F 	c #865C4F",
"G 	c #8C6154",
"H 	c #A17568",
"I 	c #D9B0A4",
"J 	c #D2A89D",
"K 	c #91685A",
"L 	c #895E51",
"M 	c #875C50",
"N 	c #83594D",
"O 	c #80564A",
"P 	c #7C5448",
"Q 	c #795145",
"R 	c #764E42",
"S 	c #734B40",
"T 	c #6F493C",
"U 	c #664339",
"V 	c #633F34",
"W 	c #6B463B",
"X 	c #7B5246",
"Y 	c #82584B",
"Z 	c #885D50",
"` 	c #8F6357",
" .	c #95685B",
"..	c #9C6E61",
"+.	c #C09487",
"@.	c #DAB1A4",
"#.	c #DAB0A4",
"$.	c #A77B6E",
"%.	c #94665A",
"&.	c #906557",
"*.	c #8D6255",
"=.	c #8B5F52",
"-.	c #845A4E",
";.	c #82574B",
">.	c #7D5549",
",.	c #774F43",
"'.	c #80594C",
").	c #855F54",
"!.	c #674237",
"~.	c #6E483C",
"{.	c #906457",
"].	c #97695C",
"^.	c #A27466",
"/.	c #AA7C6D",
"(.	c #D2A99C",
"_.	c #D5ACA0",
":.	c #BF9386",
"<.	c #9D6F62",
"[.	c #9A6C5F",
"}.	c #976B5D",
"|.	c #94675A",
"1.	c #916558",
"2.	c #8F6356",
"3.	c #8C6053",
"4.	c #885D51",
"5.	c #855B4E",
"6.	c #845A4F",
"7.	c #9A7367",
"8.	c #855A4E",
"9.	c #8C5F53",
"0.	c #916458",
"a.	c #976A5D",
"b.	c #9D6E61",
"c.	c #A27365",
"d.	c #A7786B",
"e.	c #AC7C6E",
"f.	c #C39689",
"g.	c #D0A79B",
"h.	c #D1A79C",
"i.	c #D1A99C",
"j.	c #D2A79B",
"k.	c #D1A89C",
"l.	c #D5AFA4",
"m.	c #D6B0A5",
"n.	c #D3AA9F",
"o.	c #D3A99E",
"p.	c #D3AA9E",
"q.	c #D4AB9F",
"r.	c #CCA295",
"s.	c #A57668",
"t.	c #A17365",
"u.	c #9E7063",
"v.	c #966A5C",
"w.	c #94675B",
"x.	c #8F6256",
"y.	c #845B4F",
"z.	c #80574A",
"A.	c #875C4F",
"B.	c #936658",
"C.	c #986A5C",
"D.	c #9E6F61",
"E.	c #A37365",
"F.	c #A7776A",
"G.	c #AF8072",
"H.	c #C59A8E",
"I.	c #CBA296",
"J.	c #CCA397",
"K.	c #D0AA9F",
"L.	c #E7D4CE",
"M.	c #F9F3F2",
"N.	c #FFFFFF",
"O.	c #FBF8F7",
"P.	c #E8D4CF",
"Q.	c #CFA79B",
"R.	c #CEA599",
"S.	c #CFA59A",
"T.	c #CFA69A",
"U.	c #D0A69B",
"V.	c #BC9083",
"W.	c #A47568",
"X.	c #A07264",
"Y.	c #9E6F62",
"Z.	c #9B6D60",
"`.	c #996B5E",
" +	c #96685B",
".+	c #916557",
"++	c #8E6254",
"@+	c #8B6053",
"#+	c #9E7165",
"$+	c #885C50",
"%+	c #8E6154",
"&+	c #936558",
"*+	c #996B5D",
"=+	c #9D6E60",
"-+	c #AB7A6C",
";+	c #AE7F71",
">+	c #B58578",
",+	c #C69D91",
"'+	c #C79D92",
")+	c #C29F94",
"!+	c #B6A29C",
"~+	c #DCD3D0",
"{+	c #F1E7E4",
"]+	c #CAA397",
"^+	c #C9A094",
"/+	c #CAA095",
"(+	c #CAA195",
"_+	c #CBA196",
":+	c #BA8D80",
"<+	c #A97A6C",
"[+	c #A7786A",
"}+	c #A57669",
"|+	c #A37466",
"1+	c #9E6F63",
"2+	c #9A6D5F",
"3+	c #986B5C",
"4+	c #906456",
"5+	c #906455",
"6+	c #946658",
"7+	c #996A5D",
"8+	c #A17264",
"9+	c #A67667",
"0+	c #A8796B",
"a+	c #AE7D6F",
"b+	c #C1988C",
"c+	c #B79B94",
"d+	c #A3A1A1",
"e+	c #A5A5A5",
"f+	c #EDEDED",
"g+	c #E2CEC9",
"h+	c #C59B90",
"i+	c #C59C90",
"j+	c #C69C91",
"k+	c #BA8F82",
"l+	c #AB7B6D",
"m+	c #A8786A",
"n+	c #A47566",
"o+	c #A07063",
"p+	c #9B6D5F",
"q+	c #996C60",
"r+	c #9E7164",
"s+	c #98695B",
"t+	c #9D6D60",
"u+	c #A17163",
"v+	c #A47467",
"w+	c #AC7B6E",
"x+	c #AF7E71",
"y+	c #B18275",
"z+	c #BC9286",
"A+	c #B4938B",
"B+	c #999898",
"C+	c #9B9B9B",
"D+	c #FEFEFE",
"E+	c #FBFBFB",
"F+	c #DFDDDD",
"G+	c #D0BCB6",
"H+	c #C0968B",
"I+	c #C0978B",
"J+	c #C1978C",
"K+	c #BB9184",
"L+	c #AC7D6E",
"M+	c #A9796B",
"N+	c #A27265",
"O+	c #A17164",
"P+	c #9F7062",
"Q+	c #9C6E60",
"R+	c #9B6C5F",
"S+	c #9A6C5E",
"T+	c #9B6C5E",
"U+	c #A06F63",
"V+	c #A47366",
"W+	c #A67668",
"X+	c #A97A6B",
"Y+	c #AC7C6F",
"Z+	c #AF7E72",
"`+	c #B4877A",
" @	c #B38D82",
".@	c #958E8D",
"+@	c #909090",
"@@	c #939393",
"#@	c #BCBCBC",
"$@	c #DEDEDE",
"%@	c #A9A9A9",
"&@	c #A3A3A3",
"*@	c #AF9B96",
"=@	c #BA9287",
"-@	c #BB9286",
";@	c #AE7E6F",
">@	c #AB7B6E",
",@	c #AA796C",
"'@	c #A77769",
")@	c #A67569",
"!@	c #A57466",
"~@	c #9F6F62",
"{@	c #9E6E60",
"]@	c #A47468",
"^@	c #A27164",
"/@	c #A47466",
"(@	c #AA7A6D",
"_@	c #AC7E71",
":@	c #93837F",
"<@	c #838382",
"[@	c #868686",
"}@	c #898989",
"|@	c #8C8C8C",
"1@	c #DCDCDC",
"2@	c #D3D3D3",
"3@	c #9D9D9D",
"4@	c #A29A98",
"5@	c #B38F85",
"6@	c #B78D82",
"7@	c #B78E82",
"8@	c #B08275",
"9@	c #AA7B6C",
"0@	c #A67669",
"a@	c #A57568",
"b@	c #A47465",
"c@	c #A27364",
"d@	c #A07163",
"e@	c #A7796D",
"f@	c #A57467",
"g@	c #A6776A",
"h@	c #A97B6E",
"i@	c #857571",
"j@	c #797979",
"k@	c #7C7C7C",
"l@	c #7E7E7E",
"m@	c #818181",
"n@	c #8A8A8A",
"o@	c #FAFAFA",
"p@	c #989898",
"q@	c #737373",
"r@	c #484848",
"s@	c #6C6C6C",
"t@	c #999796",
"u@	c #AC8C83",
"v@	c #B2887D",
"w@	c #B2897D",
"x@	c #B2877C",
"y@	c #AA7B6E",
"z@	c #A8786B",
"A@	c #A47365",
"B@	c #A27264",
"C@	c #A37568",
"D@	c #94746A",
"E@	c #6C6968",
"F@	c #2F2F2F",
"G@	c #4A4A4A",
"H@	c #777777",
"I@	c #7A7A7A",
"J@	c #B0B0B0",
"K@	c #FCFCFC",
"L@	c #FDFDFD",
"M@	c #E8E7E7",
"N@	c #616161",
"O@	c #010101",
"P@	c #363636",
"Q@	c #060606",
"R@	c #3B3B3B",
"S@	c #939191",
"T@	c #A7867D",
"U@	c #AD8478",
"V@	c #AE8479",
"W@	c #AB7E72",
"X@	c #A87769",
"Y@	c #A57667",
"Z@	c #A57566",
"`@	c #A27467",
" #	c #A47669",
".#	c #7E6A64",
"+#	c #070707",
"@#	c #5D5D5D",
"##	c #E1E1E1",
"$#	c #F8F8F8",
"%#	c #F9F9F9",
"&#	c #E7E7E7",
"*#	c #8E8E8E",
"=#	c #0C0C0C",
"-#	c #454545",
";#	c #090909",
">#	c #040404",
",#	c #918C8B",
"'#	c #A68074",
")#	c #A97F74",
"!#	c #A7796B",
"~#	c #A37366",
"{#	c #A07366",
"]#	c #9F7367",
"^#	c #766561",
"/#	c #4C4C4C",
"(#	c #131313",
"_#	c #646464",
":#	c #8F8F8F",
"<#	c #F3F3F3",
"[#	c #F4F4F4",
"}#	c #F5F5F5",
"|#	c #F6F6F6",
"1#	c #888888",
"2#	c #020202",
"3#	c #000000",
"4#	c #626262",
"5#	c #94827D",
"6#	c #A47A6F",
"7#	c #A4786C",
"8#	c #A37467",
"9#	c #9A6E63",
"0#	c #75615C",
"a#	c #434343",
"b#	c #242424",
"c#	c #545454",
"d#	c #D1D1D1",
"e#	c #EFEFEF",
"f#	c #F0F0F0",
"g#	c #F1F1F1",
"h#	c #F2F2F2",
"i#	c #B1B1B1",
"j#	c #838383",
"k#	c #727272",
"l#	c #606060",
"m#	c #858282",
"n#	c #9E766B",
"o#	c #9F756A",
"p#	c #9E766A",
"q#	c #A17367",
"r#	c #A07265",
"s#	c #A07164",
"t#	c #A07064",
"u#	c #83635B",
"v#	c #505050",
"w#	c #535353",
"x#	c #5C5C5C",
"y#	c #EAEAEA",
"z#	c #EBEBEB",
"A#	c #ECECEC",
"B#	c #EEEEEE",
"C#	c #E2E2E2",
"D#	c #828282",
"E#	c #807E7D",
"F#	c #8B7873",
"G#	c #9A7065",
"H#	c #9B7166",
"I#	c #9B7165",
"J#	c #9D6E62",
"K#	c #9D7064",
"L#	c #8E655A",
"M#	c #524D4B",
"N#	c #C4C4C4",
"O#	c #E5E5E5",
"P#	c #E6E6E6",
"Q#	c #E8E8E8",
"R#	c #E9E9E9",
"S#	c #B4B4B4",
"T#	c #85746F",
"U#	c #966C61",
"V#	c #976C60",
"W#	c #976D62",
"X#	c #8B6056",
"Y#	c #72564F",
"Z#	c #A0A0A0",
"`#	c #E3E3E3",
" $	c #E4E4E4",
".$	c #919191",
"+$	c #747474",
"@$	c #757474",
"#$	c #8D695F",
"$$	c #91675C",
"%$	c #865B51",
"&$	c #98776E",
"*$	c #CBB7B1",
"=$	c #C2A399",
"-$	c #C2A298",
";$	c #C9B0A9",
">$	c #DBD5D4",
",$	c #E0E0E0",
"'$	c #D9D9D9",
")$	c #9C9C9C",
"!$	c #717171",
"~$	c #6E6E6E",
"{$	c #816760",
"]$	c #8C6257",
"^$	c #8D6258",
"/$	c #8B685F",
"($	c #865040",
"_$	c #875141",
":$	c #885241",
"<$	c #8A5242",
"[$	c #8C5545",
"}$	c #B09890",
"|$	c #DDDDDD",
"1$	c #DFDFDF",
"2$	c #CFCFCF",
"3$	c #696969",
"4$	c #79635D",
"5$	c #875D52",
"6$	c #9B807A",
"7$	c #705249",
"8$	c #683E32",
"9$	c #693F32",
"0$	c #623A2F",
"a$	c #693E32",
"b$	c #6D4134",
"c$	c #6F4336",
"d$	c #B6AEAC",
"e$	c #DADADA",
"f$	c #DBDBDB",
"g$	c #D8D8D8",
"h$	c #7B7B7B",
"i$	c #755C56",
"j$	c #82584D",
"k$	c #83584E",
"l$	c #45332E",
"m$	c #281813",
"n$	c #492D24",
"o$	c #4C2D24",
"p$	c #231511",
"q$	c #20130F",
"r$	c #3B231C",
"s$	c #503026",
"t$	c #8D8684",
"u$	c #D2D2D2",
"v$	c #D6D6D6",
"w$	c #D7D7D7",
"x$	c #C6C6C6",
"y$	c #5F5F5F",
"z$	c #74564F",
"A$	c #7D5348",
"B$	c #4D413D",
"C$	c #372723",
"D$	c #2D1B15",
"E$	c #2E1B16",
"F$	c #32201A",
"G$	c #483A35",
"H$	c #3B2C28",
"I$	c #321F19",
"J$	c #868484",
"K$	c #BABABA",
"L$	c #D4D4D4",
"M$	c #D5D5D5",
"N$	c #6B6B6B",
"O$	c #595959",
"P$	c #754F45",
"Q$	c #784E43",
"R$	c #635C5B",
"S$	c #1A1413",
"T$	c #0F0907",
"U$	c #100A08",
"V$	c #110A08",
"W$	c #1C1513",
"X$	c #160F0C",
"Y$	c #36302F",
"Z$	c #848484",
"`$	c #CECECE",
" %	c #D0D0D0",
".%	c #5B514F",
"+%	c #73493E",
"@%	c #754940",
"#%	c #807A78",
"$%	c #393939",
"%%	c #1E1E1E",
"&%	c #151515",
"*%	c #0E0E0E",
"=%	c #2D2D2D",
"-%	c #808080",
";%	c #C9C9C9",
">%	c #CBCBCB",
",%	c #CCCCCC",
"'%	c #CDCDCD",
")%	c #4F4F4F",
"!%	c #604943",
"~%	c #6E4439",
"{%	c #757271",
"]%	c #474747",
"^%	c #414141",
"/%	c #4B4B4B",
"(%	c #585858",
"_%	c #656565",
":%	c #7F7F7F",
"<%	c #8D8D8D",
"[%	c #BDBDBD",
"}%	c #C7C7C7",
"|%	c #C8C8C8",
"1%	c #CACACA",
"2%	c #4F4847",
"3%	c #674036",
"4%	c #6B4035",
"5%	c #777271",
"6%	c #5B5B5B",
"7%	c #515151",
"8%	c #555555",
"9%	c #6A6A6A",
"0%	c #767676",
"a%	c #959595",
"b%	c #BFBFBF",
"c%	c #C3C3C3",
"d%	c #BEBEBE",
"e%	c #C1C1C1",
"f%	c #444444",
"g%	c #4C4240",
"h%	c #613B31",
"i%	c #633A2F",
"j%	c #7A6A65",
"k%	c #686868",
"l%	c #636363",
"m%	c #5A5A5A",
"n%	c #676767",
"o%	c #AEAEAE",
"p%	c #ACACAC",
"q%	c #AAAAAA",
"r%	c #C2C2C2",
"s%	c #3F3F3F",
"t%	c #403F3F",
"u%	c #4D3A36",
"v%	c #5E342A",
"w%	c #5F352A",
"x%	c #8D8381",
"y%	c #464646",
"z%	c #494949",
"A%	c #525252",
"B%	c #7D7D7D",
"C%	c #8B807C",
"D%	c #403835",
"E%	c #3E3837",
"F%	c #413734",
"G%	c #4A3530",
"H%	c #563128",
"I%	c #5A2F25",
"J%	c #572F26",
"K%	c #8F8482",
"L%	c #878787",
"M%	c #929292",
"N%	c #B7B7B7",
"O%	c #B8B8B8",
"P%	c #B9B9B9",
"Q%	c #8C7A75",
"R%	c #542A1F",
"S%	c #54291F",
"T%	c #552A20",
"U%	c #4E241B",
"V%	c #7B655F",
"W%	c #AAA8A8",
"X%	c #AFAFAF",
"Y%	c #B2B2B2",
"Z%	c #B3B3B3",
"`%	c #A49D9C",
" &	c #765C55",
".&	c #4E2319",
"+&	c #4F241A",
"@&	c #50251B",
"#&	c #50261C",
"$&	c #532E25",
"%&	c #79625D",
"&&	c #8F827E",
"*&	c #9E9795",
"=&	c #A19B9A",
"-&	c #9A9290",
";&	c #8E807D",
">&	c #7B6560",
",&	c #5D3B33",
"'&	c #491E14",
")&	c #4A1F15",
"!&	c #4A2016",
"~&	c #471E14",
"{&	c #491D13",
"]&	c #481C12",
"^&	c #481D14",
"/&	c #481E13",
"(&	c #471C13",
"                                                                                                ",
"                                                                                                ",
"                                                                                                ",
"                                                                                                ",
"    . +                                                                           @ #           ",
"    $ % & *                                                                     = - % &         ",
"  ; % % % % >                                                                 , ' % % % )       ",
"  ! % % % % % ~ {                                                           ] ^ % % % % /       ",
"  ( % % % % % % _ :                                                       ] < [ } | % % % 1     ",
"  ( % % % % % % % 2 3                                                   ] 4 5 6 7 8 9 0 a b     ",
"  c % % % % % % 9 7 d e                                               ] ] f g h i j k l m n     ",
"  o % % % % p 8 j h q r =                                           s ] t u v w x y z A B C     ",
"    % % % } 7 D g E F G H I                                         ] J K L M N O P Q R S T     ",
"    U | V W d X Y Z `  ...+.]                                     @.#.$.%.&.*.=.M -.;.>.X ,.'.  ",
"    ).!.~.R P N =.{.]...^./.(._.                                  ] :.<.[.}.|.1.2.3.4.5.u v 6.  ",
"    7.z x v 8.9.0.a.b.c.d.e.f.g.h.i.j.k.J l.m.n.o.p.p.p.p.q.q.q.q.r.s.t.u...[.v.w.1.x.G Z F     ",
"      y.z.A.3.B.C.D.E.F.e.G.H.I.J.J.K.L.M.N.N.O.P.Q.R.R.S.T.T.T.U.V.F.W.^.X.Y.Z.`. +|..+++@+    ",
"      #+$+%+&+*+=+t.s.-+;+>+,+'+)+!+~+N.N.N.N.N.N.{+]+^+/+(+(+(+_+:+<+[+}+|+t.1+..2+3+ +B.4+    ",
"        5+6+7+b.8+9+0+a+G.V.b+c+d+e+f+N.N.N.N.N.N.N.g+h+h+i+i+i+j+k+l+0+m+s.n+c.o+D.p+`.].q+    ",
"        r+s+t+u+v+m+w+x+y+z+A+B+C+e+D+N.N.N.N.N.E+F+G+H+I+I+I+J+J+K+L+l+M+m+s.n+N+O+P+Q+R+S+    ",
"          T+U+V+W+X+Y+Z+`+ @.@+@@@#@N.N.N.N.N.$@%@&@&@*@=@-@-@t e z+;@>@,@M+'@)@!@c.O+~@{@Y.    ",
"          ]@^@/@'@(@Y+_@:@<@[@}@|@1@N.N.N.N.2@3@3@3@3@3@4@5@6@6@7@7@8@w+9@M+m+0@a@b@c@u+~@d@    ",
"          e@E.f@g@<+h@i@j@k@l@m@n@E+N.N.N.o@3@p@p@p@q@r@s@t@u@v@w@w@x@y@(@0+z@0@W+n+A@B@o+      ",
"            C@v+s.d.D@E@F@G@H@I@J@K@L@L@D+M@@@@@@@N@O@P@Q@R@S@T@U@U@V@W@0+m+X@W+Y@Z@A@B@`@      ",
"              ^.]@ #.#r@+#O@@#q@##$#%#%#o@&#*#*#n@=#O@-#;#>#j@,#'#)#)#)#!#0@)@a@n+~#E.E.        ",
"                {#]#^#/#O@(#_#:#<#[#}#}#|#}#*#1#1#G@2#3#=#4#1#1#5#6#6#6#7#W.v+8#c.N+B@          ",
"                  9#0#a#b#c#4#d#e#f#g#g#h#<#i#j#j#j#k#l#k@j#j#j#m#n#o#o#p#q#r#s#X.t#            ",
"                    u#v#w#x#i#y#z#A#f+f+B#e#C#D#l@l@l@l@l@l@l@l@l@E#F#G#H#I#<.J#K#              ",
"                    L#M#v#N#O#P#&#Q#Q#R#y#z#A#S#j@j@j@j@j@j@j@j@j@j@j@T#U#U#V#V#W#              ",
"                    X#Y#Z#####C#`# $ $O#P#&#Q#P#.$+$+$+$+$+$+$+$+$+$+$@$#$$$$$$$                ",
"                    %$&$*$=$-$;$>$,$,$##C#`# $ $'$)$!$~$~$~$~$~$~$~$~$~${$]$]$^$                ",
"                      /$($_$:$<$[$}$1@|$$@1$,$,$##C#2$m@3$3$3$3$3$3$3$3$4$5$5$                  ",
"                    6$7$8$9$0$a$b$c$d$'$e$f$1@1@|$$@1$g$h$_#_#_#_#_#_#_#i$j$k$                  ",
"                    l$m$n$o$p$q$r$s$t$u$v$w$g$g$'$e$f$f$x$y$y$y$y$y$y$y$z$A$                    ",
"                    B$C$D$E$F$G$H$I$J$K$u$2@L$L$M$v$w$w$g$N$O$O$O$O$O$O$P$Q$                    ",
"                    R$S$T$U$V$W$X$Y$Z$Z#`$2$ % %d#u$2@2@L$s@c#c#c#c#c#.%+%@%                    ",
"                    #%$%%%&%=#*%=%~$-%:#;%>%>%,%'%`$2$2$,%c#)%)%)%)%)%!%~%                      ",
"                    {%w#]%^%/%(%_%k#:%<%[%}%}%|%;%1%>%>%3@G@G@G@G@G@2%3%4%                      ",
"                    5%6%w#7%8%y$9%0%j#a%b%c%c%N#d%#@}%e%c#f%f%f%f%g%h%i%                        ",
"                    j%k%l%N@(%m%_%n%+$|@o%d%p%+@q%r%c%k#s%s%s%t%u%v%w%                          ",
"                      x%x#G@y%z%/#)%A%8%(%x#B%i#[%d%C%D%E%F%G%H%I%I%                            ",
"                      J%K%[@j@k@:%j#L%M%Z#i#N%O%P%Q%R%S%S%S%R%T%T%                              ",
"                        U%V%W%o%X%J@J@i#Y%Z%Z%`% &.&+&+&+&+&@&@&#&                              ",
"                            $&%&&&*&=&-&;&>&,&'&'&'&)&)&)&)&!&                                  ",
"                                        ~&{&]&^&/&{&(&                                          ",
"                                                                                                ",
"                                                                                                ",
"                                                                                                "};
