/* XPM */
static const char* dollar_xpm[] = {
"48 48 539 2",
"  	c None",
". 	c #F8EFA3",
"+ 	c #F8F0AB",
"@ 	c #F8F0AA",
"# 	c #F7EE9F",
"$ 	c #F8EFA7",
"% 	c #EFE697",
"& 	c #F7EFA4",
"* 	c #F2E99B",
"= 	c #F7EEA1",
"- 	c #F7EEA0",
"; 	c #EADF85",
"> 	c #F6EB8F",
", 	c #F7ED9B",
"' 	c #F7EEA2",
") 	c #F7EE9E",
"! 	c #F7EE9D",
"~ 	c #F7ED9C",
"{ 	c #F6ED9C",
"] 	c #F7EDA0",
"^ 	c #F6EC98",
"/ 	c #F5EA8C",
"( 	c #F5E986",
"_ 	c #F6ED9B",
": 	c #F6EC9A",
"< 	c #F6EC95",
"[ 	c #F5E881",
"} 	c #F3E467",
"| 	c #F0DB2B",
"1 	c #F2E14F",
"2 	c #F4E779",
"3 	c #F6EB90",
"4 	c #F6EC99",
"5 	c #F5E985",
"6 	c #F6EC97",
"7 	c #F5EA88",
"8 	c #F1DF46",
"9 	c #EFDA24",
"0 	c #EED710",
"a 	c #EDD401",
"b 	c #EED715",
"c 	c #EFD81A",
"d 	c #EDD400",
"e 	c #EED60C",
"f 	c #EFD921",
"g 	c #F1DE3C",
"h 	c #F5E880",
"i 	c #F6EC94",
"j 	c #F6EB92",
"k 	c #F6EB91",
"l 	c #F5E983",
"m 	c #EDD504",
"n 	c #F0DC35",
"o 	c #F4E66F",
"p 	c #F5EA8B",
"q 	c #F6EB93",
"r 	c #F4E776",
"s 	c #F4E777",
"t 	c #F1E04A",
"u 	c #EED711",
"v 	c #EDD403",
"w 	c #F1DE3E",
"x 	c #F5EA91",
"y 	c #F5E98A",
"z 	c #F5EB8E",
"A 	c #F5E982",
"B 	c #EED610",
"C 	c #F3E465",
"D 	c #F5EA90",
"E 	c #F5EA8F",
"F 	c #F4E884",
"G 	c #EFDA2A",
"H 	c #EFD91E",
"I 	c #F5E989",
"J 	c #F5EA8D",
"K 	c #F4E882",
"L 	c #F4E77A",
"M 	c #F5EA8E",
"N 	c #F4E986",
"O 	c #EED81A",
"P 	c #F3E56C",
"Q 	c #F4E98D",
"R 	c #CCC165",
"S 	c #847C3C",
"T 	c #312E1B",
"U 	c #E9DD81",
"V 	c #9E9655",
"W 	c #AAA256",
"X 	c #E8DD82",
"Y 	c #EFDB2B",
"Z 	c #F3E570",
"` 	c #F5EA8A",
" .	c #F0DB2F",
"..	c #F3E88A",
"+.	c #7B7543",
"@.	c #000000",
"#.	c #E8DD7E",
"$.	c #F5E988",
"%.	c #F5E987",
"&.	c #7B7439",
"*.	c #1D1C13",
"=.	c #D3C972",
"-.	c #F3E671",
";.	c #EDD402",
">.	c #F2E35F",
",.	c #F4E778",
"'.	c #F0DB2E",
").	c #C1B766",
"!.	c #E9DE7C",
"~.	c #A59C4B",
"{.	c #25241D",
"].	c #E9DF86",
"^.	c #F4E883",
"/.	c #EED713",
"(.	c #EFDA25",
"_.	c #F1E154",
":.	c #F3E782",
"<.	c #EED714",
"[.	c #F3E77B",
"}.	c #736D37",
"|.	c #E9DD79",
"1.	c #F4E881",
"2.	c #A49D61",
"3.	c #F4E880",
"4.	c #F4E77F",
"5.	c #EDD506",
"6.	c #E9DD76",
"7.	c #F4E77E",
"8.	c #272517",
"9.	c #F1E479",
"0.	c #F3E77C",
"a.	c #F3E67D",
"b.	c #EADE79",
"c.	c #DCD06D",
"d.	c #C9BE61",
"e.	c #B8AE5A",
"f.	c #F4E77D",
"g.	c #EDD507",
"h.	c #F3E46A",
"i.	c #E8DC73",
"j.	c #F3E77A",
"k.	c #736B28",
"l.	c #5D5728",
"m.	c #191810",
"n.	c #F2E57B",
"o.	c #F3E679",
"p.	c #EED712",
"q.	c #F1DF4B",
"r.	c #F3E678",
"s.	c #EFE275",
"t.	c #E7DB70",
"u.	c #F3E677",
"v.	c #E3D670",
"w.	c #F3E576",
"x.	c #EFDA30",
"y.	c #EDD300",
"z.	c #EED71C",
"A.	c #F3E573",
"B.	c #F3E575",
"C.	c #F2E46F",
"D.	c #E7DA6D",
"E.	c #F3E574",
"F.	c #B3A752",
"G.	c #F2E273",
"H.	c #F1DF60",
"I.	c #ECD106",
"J.	c #ECD000",
"K.	c #EED82F",
"L.	c #F2E372",
"M.	c #F2E371",
"N.	c #F1E166",
"O.	c #E6D86B",
"P.	c #F2E370",
"Q.	c #443F22",
"R.	c #E9D96D",
"S.	c #F1E06F",
"T.	c #EFDB4F",
"U.	c #EBCD01",
"V.	c #EBCD00",
"W.	c #EDD42A",
"X.	c #F0DE62",
"Y.	c #F1E16E",
"Z.	c #F1E06D",
"`.	c #DACB62",
" +	c #706732",
".+	c #EEDB6C",
"++	c #F0DE6C",
"@+	c #EED63F",
"#+	c #EACA02",
"$+	c #EACA00",
"%+	c #EBCB04",
"&+	c #EDD32C",
"*+	c #EFDA51",
"=+	c #F1DE6A",
"-+	c #F0DD64",
";+	c #F1DF6A",
">+	c #F1DF6B",
",+	c #F0DE63",
"'+	c #F0DD5E",
")+	c #998C42",
"!+	c #F0DC69",
"~+	c #F0DC68",
"{+	c #EFD959",
"]+	c #ECCE23",
"^+	c #EAC700",
"/+	c #EAC800",
"(+	c #EBCA09",
"_+	c #EACA08",
":+	c #EAC907",
"<+	c #EED74A",
"[+	c #F0DC62",
"}+	c #F0DC66",
"|+	c #F0DD67",
"1+	c #A59542",
"2+	c #EAD563",
"3+	c #EFD965",
"4+	c #EED54F",
"5+	c #EBCD29",
"6+	c #EAC70C",
"7+	c #E9C501",
"8+	c #E9C500",
"9+	c #E9C600",
"0+	c #E9C602",
"a+	c #EACB19",
"b+	c #ECD135",
"c+	c #EED651",
"d+	c #EFDA62",
"e+	c #EFDA61",
"f+	c #2C2913",
"g+	c #BBA84A",
"h+	c #EBD461",
"i+	c #EED660",
"j+	c #EED760",
"k+	c #EDD556",
"l+	c #EDD24B",
"m+	c #EAC81B",
"n+	c #E8C200",
"o+	c #E8C300",
"p+	c #E9C300",
"q+	c #EAC50A",
"r+	c #ECCE32",
"s+	c #EED75A",
"t+	c #EED85F",
"u+	c #EED75C",
"v+	c #433C1C",
"w+	c #B5A142",
"x+	c #DCC556",
"y+	c #EED45E",
"z+	c #EED45D",
"A+	c #ECCE41",
"B+	c #EBCB33",
"C+	c #EBCD39",
"D+	c #EAC720",
"E+	c #E8C105",
"F+	c #E8C000",
"G+	c #E8C100",
"H+	c #E8C307",
"I+	c #EBCC31",
"J+	c #EDD457",
"K+	c #EED55B",
"L+	c #EDD24E",
"M+	c #3B3417",
"N+	c #9D8C3E",
"O+	c #CAB450",
"P+	c #EACF5B",
"Q+	c #EDD25A",
"R+	c #ECD258",
"S+	c #ECD156",
"T+	c #EBCB3E",
"U+	c #E9C31A",
"V+	c #E7BE01",
"W+	c #E7BE00",
"X+	c #E8C318",
"Y+	c #ECD256",
"Z+	c #ECD257",
"`+	c #ECD04A",
" @	c #DCC051",
".@	c #ECCE56",
"+@	c #ECCF56",
"@@	c #CDB44D",
"#@	c #E0C554",
"$@	c #ECCF55",
"%@	c #EBCC48",
"&@	c #E7BD09",
"*@	c #E7BB00",
"=@	c #E9C21E",
"-@	c #ECCF53",
";@	c #ECD054",
">@	c #DBBE4E",
",@	c #EBCC53",
"'@	c #6A5C24",
")@	c #030303",
"!@	c #5D5225",
"~@	c #BFA540",
"{@	c #E9CA51",
"]@	c #EBCD52",
"^@	c #EAC945",
"/@	c #E6BA06",
"(@	c #E6B800",
"_@	c #E9C32A",
":@	c #EBCD51",
"<@	c #EBCE53",
"[@	c #DDBD4C",
"}@	c #EBC950",
"|@	c #736226",
"1@	c #4D4218",
"2@	c #E3C34D",
"3@	c #EACA4E",
"4@	c #E9C439",
"5@	c #E5B500",
"6@	c #E6B809",
"7@	c #EACA4D",
"8@	c #DCBA49",
"9@	c #E9C64D",
"0@	c #695A26",
"a@	c #E9C64B",
"b@	c #E9C649",
"c@	c #E4B303",
"d@	c #E4B200",
"e@	c #E4B300",
"f@	c #E8C43E",
"g@	c #E9C74A",
"h@	c #E8C043",
"i@	c #E8C147",
"j@	c #DBB746",
"k@	c #E8C349",
"l@	c #E2BF48",
"m@	c #E8C448",
"n@	c #E4B411",
"o@	c #E4AF00",
"p@	c #E4B000",
"q@	c #E8BF35",
"r@	c #E9C447",
"s@	c #DEBB43",
"t@	c #E7BE45",
"u@	c #E8BE47",
"v@	c #E8BF49",
"w@	c #E8BF48",
"x@	c #E8C049",
"y@	c #D9B443",
"z@	c #E7BF46",
"A@	c #E7C046",
"B@	c #CFAC3E",
"C@	c #E8C145",
"D@	c #E5B51D",
"E@	c #E3AC00",
"F@	c #E3AD00",
"G@	c #E6BB2F",
"H@	c #E8C144",
"I@	c #CFAC3B",
"J@	c #E7BC45",
"K@	c #E6BA3E",
"L@	c #E6BC42",
"M@	c #E7BC44",
"N@	c #D8B140",
"O@	c #E7BD43",
"P@	c #DAB33F",
"Q@	c #E7BD41",
"R@	c #E3AF14",
"S@	c #E2A900",
"T@	c #E2AA00",
"U@	c #E6BB37",
"V@	c #E7BD40",
"W@	c #B29231",
"X@	c #DFB340",
"Y@	c #E5B842",
"Z@	c #E3AF27",
"`@	c #E0A506",
" #	c #E0A300",
".#	c #E4B22E",
"+#	c #E5B941",
"@#	c #E5B942",
"##	c #D8AE3D",
"$#	c #E6B940",
"%#	c #E6B93F",
"&#	c #E1A806",
"*#	c #E1A600",
"=#	c #E1A802",
"-#	c #E6BA3D",
";#	c #A2802D",
">#	c #E4B53E",
",#	c #E3B02E",
"'#	c #DFA000",
")#	c #E0A000",
"!#	c #E1A30A",
"~#	c #E5B53C",
"{#	c #E5B53D",
"]#	c #E5B843",
"^#	c #D6AA3A",
"/#	c #E5B63C",
"(#	c #E5B83E",
"_#	c #E5B73B",
":#	c #E4B433",
"<#	c #E1A80C",
"[#	c #E6B73A",
"}#	c #E1B43A",
"|#	c #50401B",
"1#	c #E4B13B",
"2#	c #E4B23A",
"3#	c #E0A310",
"4#	c #DF9D00",
"5#	c #E1A71C",
"6#	c #E4B33A",
"7#	c #E4B43D",
"8#	c #D5A737",
"9#	c #E4B339",
"0#	c #E4B43B",
"a#	c #E4B338",
"b#	c #E4B336",
"c#	c #E1A40B",
"d#	c #E0A100",
"e#	c #E3AE26",
"f#	c #E4B437",
"g#	c #CCA133",
"h#	c #B78E32",
"i#	c #E3AF38",
"j#	c #E3AD34",
"k#	c #DF9D08",
"l#	c #DE9A00",
"m#	c #DE9A01",
"n#	c #E1A51D",
"o#	c #E3AF37",
"p#	c #E3AF36",
"q#	c #DAA936",
"r#	c #D6A636",
"s#	c #E4B037",
"t#	c #E4B038",
"u#	c #E3AF35",
"v#	c #E3B035",
"w#	c #E3B034",
"x#	c #E1A413",
"y#	c #E1A415",
"z#	c #E2AF34",
"A#	c #624D1A",
"B#	c #110E08",
"C#	c #CB9B32",
"D#	c #E2AB34",
"E#	c #E1A82C",
"F#	c #DD9904",
"G#	c #DD9700",
"H#	c #DE9D0C",
"I#	c #E1A92C",
"J#	c #E2AB33",
"K#	c #E2AB32",
"L#	c #E2AC32",
"M#	c #E1A723",
"N#	c #DF9E0B",
"O#	c #DFA00F",
"P#	c #E2AC2F",
"Q#	c #E2AD30",
"R#	c #9E7A26",
"S#	c #332710",
"T#	c #D7A131",
"U#	c #E1A731",
"V#	c #E0A62F",
"W#	c #DF9E19",
"X#	c #DD9503",
"Y#	c #DD9500",
"Z#	c #DE9807",
"`#	c #DF9C13",
" $	c #E0A11E",
".$	c #E0A220",
"+$	c #DF9D11",
"@$	c #DFA019",
"#$	c #E0A322",
"$$	c #DFA01B",
"%$	c #DF9D12",
"&$	c #DE9908",
"*$	c #DE9B0B",
"=$	c #E0A424",
"-$	c #E1A82D",
";$	c #C5952B",
">$	c #060503",
",$	c #523D15",
"'$	c #CA942C",
")$	c #E0A32D",
"!$	c #E0A22B",
"~$	c #DE9C18",
"{$	c #DD9810",
"]$	c #DD9609",
"^$	c #DC9303",
"/$	c #DC9200",
"($	c #DC9300",
"_$	c #DC9403",
":$	c #DD970A",
"<$	c #DE9A11",
"[$	c #DE9D18",
"}$	c #DFA121",
"|$	c #E0A52B",
"1$	c #E1A52B",
"2$	c #DDA32B",
"3$	c #A77C23",
"4$	c #21190A",
"5$	c #78581C",
"6$	c #CF952A",
"7$	c #DFA02B",
"8$	c #DFA02A",
"9$	c #DF9F26",
"0$	c #DE9C1F",
"a$	c #DC9610",
"b$	c #DE9B1B",
"c$	c #DF9F25",
"d$	c #DFA128",
"e$	c #E0A128",
"f$	c #DFA028",
"g$	c #B28222",
"h$	c #36290D",
"i$	c #080705",
"j$	c #805C1B",
"k$	c #AE7C21",
"l$	c #C48C25",
"m$	c #D69827",
"n$	c #DE9C27",
"o$	c #DF9C26",
"p$	c #DF9D26",
"q$	c #D59626",
"r$	c #C28922",
"s$	c #AB791E",
"t$	c #8E651A",
"u$	c #47330F",
"v$	c #010101",
"w$	c #261B09",
"x$	c #5D4010",
"y$	c #D09122",
"z$	c #DD9923",
"A$	c #815B18",
"B$	c #1D1508",
"C$	c #C9881E",
"D$	c #DC9520",
"E$	c #583B0E",
"F$	c #C9861C",
"G$	c #DB911C",
"H$	c #CA8319",
"I$	c #DA8D19",
"J$	c #DB8D19",
"K$	c #C97E16",
"L$	c #D98916",
"M$	c #2A1A06",
"N$	c #2A1A05",
"                                            . + @                                               ",
"                                            # $ $                                               ",
"                                            % & &                                               ",
"                                            * = - ;                                             ",
"                                > , ' ) ! ! ~ ~ ~ ~ ~ { ] ^ /                                   ",
"                            ( _ : : : : < [ } | 1 2 3 ^ ^ ^ ^ 4 5                               ",
"                          6 6 6 7 8 9 0 a b c d d e d e f g h i i j                             ",
"                        k i l g m d n o p q q r h j s t u d v w ( x y                           ",
"                      z k A 0 d B C D D D E E E E E E E F G d d H I J K                         ",
"                    L M N O d d P J Q R S T U / / V W X p y Y d d n I I                         ",
"                    Z ` t d d  .I ..+.@.@.@.#.$.%.&.@.*.=.%.-.;.d d >.( 2                       ",
"                    ,.( '.d d } ( ).@.      !.F F ~.    {.].^.n /.(._.K :.                      ",
"                    ^.^.<.d d [.K }.        |.1.1.        2.3.3.4.4.4.4.4.                      ",
"                    3.4.a d 5.4.4.          6.7.7.        8.9.0.a.b.c.d.e.                      ",
"                    f.f.g.d d h.0.          i.j.j.          k.l.m.@.@.@.@.                      ",
"                    n.o.p.d d q.r.s.        t.u.u.            @.@.@.                            ",
"                    v.w.x.y.y.z.A.B.C.      D.E.E.                                              ",
"                    F.G.H.I.J.J.K.L.L.M.N.  O.M.P.                                              ",
"                    Q.R.S.T.U.V.V.W.X.Y.Y.Y.Y.Z.Z.`.                                            ",
"                       +.+++@+#+$+$+%+&+*+=+=+-+;+;+>+,+'+                                      ",
"                        )+!+~+{+]+^+^+/+/+(+_+:+<+[+}+}+}+}+|+                                  ",
"                        @.1+2+3+3+4+5+6+7+8+8+8+9+0+a+b+c+d+e+e+d+                              ",
"                          @.f+g+h+i+j+j+k+l+m+n+o+p+p+p+p+q+r+s+t+t+u+                          ",
"                            @.@.v+w+x+y+y+z+z+A+B+C+D+E+F+F+G+H+I+J+K+L+                        ",
"                                @.@.@.M+N+O+P+Q+Q+R+R+S+T+U+V+W+W+X+Y+Z+`+                      ",
"                                      @.@.@. @.@+@@@#@+@+@$@%@&@*@*@=@-@;@                      ",
"                                            >@,@,@'@)@!@~@{@]@^@/@(@(@_@:@<@                    ",
"                                            [@}@}@|@@.@.@.1@2@3@4@5@5@6@7@7@                    ",
"                                            8@9@9@        @.0@a@b@c@d@e@f@g@                    ",
"                            h@i@            j@k@k@            l@m@n@o@p@q@r@s@                  ",
"                  t@u@v@w@w@w@x@            y@z@A@            B@C@D@E@F@G@H@I@                  ",
"                  J@J@J@J@K@L@M@            N@O@O@            P@Q@R@S@T@U@V@W@                  ",
"                  X@Y@Z@`@ #.#+#@#          ##$#%#            K@K@&#*#=#-#-#                    ",
"                  ;#>#,#'#)#!#~#{#]#        ^#/#/#          (#_#:# # #<#[#}#                    ",
"                  |#1#2#3#4#4#5#2#6#7#      8#9#9#        0#a#b#c#)#d#e#f#g#                    ",
"                    h#i#j#k#l#m#n#o#p#o#i#i#q#p#p#r#s#t#u#v#w#x#4#4#y#w#z#A#                    ",
"                    B#C#D#E#F#G#G#H#I#J#J#J#K#L#L#L#L#L#L#M#N#l#l#O#P#Q#R#                      ",
"                      S#T#U#V#W#X#Y#Y#Z#`# $.$+$@$#$$$%$&$G#G#*$=$-$-$;$>$                      ",
"                        ,$'$)$)$!$~${$]$^$/$/$($($($_$:$<$[$}$|$1$2$3$4$                        ",
"                          )@5$6$7$7$8$8$8$9$0$a$b$c$d$e$e$e$e$f$g$h$@.                          ",
"                            @.i$j$k$l$m$n$n$o$p$p$p$p$q$r$s$t$u$@.@.                            ",
"                                @.@.@.v$w$x$y$z$z$A$B$v$@.@.@.@.                                ",
"                                      @.@.@.C$D$D$E$@.@.                                        ",
"                                            F$G$G$                                              ",
"                                            H$I$J$                                              ",
"                                            K$L$L$                                              ",
"                                              M$N$                                              ",
"                                              @.@.                                              "};
