/* XPM */
static const char * downarrow_red_xpm[] = {
"16 16 21 1",
" 	c None",
".	c #272727",
"+	c #E11313",
"@	c #D21212",
"#	c #CD1111",
"$	c #9B0D0D",
"%	c #990D0D",
"&	c #DF1313",
"*	c #D61212",
"=	c #D41212",
"-	c #900C0C",
";	c #870B0B",
">	c #D01212",
",	c #AB0F0F",
"'	c #D81212",
")	c #770909",
"!	c #A50D0D",
"~	c #CF1111",
"{	c #560000",
"]	c #AE0E0E",
"^	c #A00E0E",
"                ",
"                ",
"    .......     ",
"    .+@#$%.     ",
"    .&*=-;.     ",
"    .+=>-;.     ",
"    .+=>-;.     ",
"    .+@@-;.     ",
" ....+>=-;....  ",
"  .,='*=---).   ",
"   .!===--).    ",
"    .!~*-).     ",
"     {]#).      ",
"      .^.       ",
"       .        ",
"                "};
