/* XPM */
static const char *duplicate_xpm[] = {
/* columns rows colors const chars-per-pixel */
"16 16 18 1",
"  c Black",
"= c #5A5A5A",
"$ c #696969",
"% c #787878",
"o c #FFFFFF",
"- c #535353",
"& c #4C4C4C",
". c None",
"@ c #4D4D4D",
"> c #5C5C5C",
"* c #E3E3E3",
"+ c #646464",
"; c #919191",
"O c #D6D6D6",
", c #666666",
": c #A2A2A2",
"# c #505050",
"X c #B3B3B3",
/* pixels */
"          ......",
" XooooooO ......",
" oooooooo ......",
" o+@#o$%o ......",
" oooooooo ......",
" o#&o#         .",
" oooo XooooooO .",
" *=-; oooooooo .",
" oooo o+@#o$%o .",
" Oooo oooooooo .",
"      o#&o:$Xo .",
"..... oooooooo .",
"..... *=-;o>,o .",
"..... oooooooo .",
"..... OooooooO .",
".....         .."
};
