/* XPM */
static const char * edit_custom_sql_xpm[] = {
"16 16 125 2",
"  	c None",
". 	c #000000",
"+ 	c #020702",
"@ 	c #135DBA",
"# 	c #145FBB",
"$ 	c #1861BB",
"% 	c #1A63BD",
"& 	c #1D64BD",
"* 	c #1F66BF",
"= 	c #226ABF",
"- 	c #226AC1",
"; 	c #276DC1",
"> 	c #276DC2",
", 	c #2D71C2",
"' 	c #2D71C4",
") 	c #3274C4",
"! 	c #976A1E",
"~ 	c #B6670D",
"{ 	c #3B7BC9",
"] 	c #407ECB",
"^ 	c #4582CD",
"/ 	c #B6731E",
"( 	c #BC7421",
"_ 	c #4A85CE",
": 	c #B87725",
"< 	c #4D89BE",
"[ 	c #4E89CE",
"} 	c #BE7A1A",
"| 	c #BE792A",
"1 	c #C4792E",
"2 	c #518BD0",
"3 	c #538BCE",
"4 	c #848484",
"5 	c #858585",
"6 	c #588ED0",
"7 	c #5890D4",
"8 	c #AB8557",
"9 	c #AA8943",
"0 	c #5D93D2",
"a 	c #D48222",
"b 	c #D48223",
"c 	c #CE8429",
"d 	c #5F95D5",
"e 	c #D38520",
"f 	c #D38521",
"g 	c #6195D4",
"h 	c #D48521",
"i 	c #C78921",
"j 	c #D48623",
"k 	c #C08F39",
"l 	c #669AD7",
"m 	c #D88C2A",
"n 	c #D88D2C",
"o 	c #6D9ED9",
"p 	c #CD9332",
"q 	c #74A1DC",
"r 	c #74A3DB",
"s 	c #7BA6DE",
"t 	c #D89A54",
"u 	c #7DA8DC",
"v 	c #D59F5C",
"w 	c #C3A378",
"x 	c #82ACE0",
"y 	c #84ADE0",
"z 	c #87AFE3",
"A 	c #89B1E2",
"B 	c #8CB4E3",
"C 	c #90B6E5",
"D 	c #95BAE7",
"E 	c #D4B375",
"F 	c #99BBE7",
"G 	c #D5B772",
"H 	c #9ABDE5",
"I 	c #9EC1EA",
"J 	c #A1C2EA",
"K 	c #E6BB70",
"L 	c #E6BB72",
"M 	c #A5C6EC",
"N 	c #A8C7EC",
"O 	c #E7C08B",
"P 	c #E4C955",
"Q 	c #ADCBEE",
"R 	c #AFCBEF",
"S 	c #B3CEEF",
"T 	c #EDCA6D",
"U 	c #ECCC6D",
"V 	c #B3D0F1",
"W 	c #E8CE7B",
"X 	c #F9C794",
"Y 	c #F9C991",
"Z 	c #EFD070",
"` 	c #D0D0CE",
" .	c #EBD178",
"..	c #EDD174",
"+.	c #EBD27B",
"@.	c #F0D273",
"#.	c #EECFA7",
"$.	c #F1D472",
"%.	c #F0D2B4",
"&.	c #F6D3AE",
"*.	c #D2D9E1",
"=.	c #F5DC5E",
"-.	c #F5DC5F",
";.	c #F5DF5B",
">.	c #F6DD6C",
",.	c #F7DF63",
"'.	c #F7E15A",
").	c #F7E25B",
"!.	c #F8E25D",
"~.	c #FCDFC2",
"{.	c #F9E3B2",
"].	c #F7E3C9",
"^.	c #F7E5D0",
"/.	c #DCEAF5",
"(.	c #E1EDFB",
"_.	c #FFF2E0",
":.	c #FDF6C2",
"<.	c #FDF6C4",
"[.	c #FDF7C7",
"}.	c #F2F8F2",
"|.	c #F4FAFE",
"1.	c #FCFCFB",
"2.	c #FDFDFD",
"3.	c #FEFEFE",
"4.	c #FFFFFF",
"  V Q M I F C A y u q o l d 7 2 ",
"S 4 4 4 4 ` 4 4 4 4 4 4 4 4 4 [ ",
"R 4 . 4 4 ` 4 . . . . 4 4 4 4 _ ",
"N 4 4 4 4 ` 4 4 4 4 5 4 4 4 4 ^ ",
"J (.(.(.(.(.(.(.(.(.(.(.n i (.] ",
"H 4.4.4.4.4.4.4.4.4.4.f K ^.p { ",
"D 3.. 4 . |.. . 4 4 f L %.].#.| ",
"B 4.4.4.3.4.4.4.}.f +.{.O &.~.~ ",
"z (.(.(.(.(.(./.f  .<.>.T v ( ' ",
"x (.. 4 . (.. e ..[.-.).$.b *.> ",
"s (.(.(.(.(.h W [.=.'.@.b (.(.- ",
"r 4.4.4.4.j G :.,.!.Z a 2.4.4.* ",
"o 4.. + m E w P ;.U c 4 . . 4.% ",
"l 4.4.4.9 _.t } k : 1.4.4.4.4.# ",
"l (.(.(.. X Y 1 / (.(.(.(.(.(.# ",
"g 0 6 3 . . 8 ! < ) , ; = & $ @ "};
