/* XPM */
static const char *edit_account_xpm[] = {
"16 16 110 2",
"  	c None",
". 	c #000000",
"+ 	c #8EA9BC",
"@ 	c #5A89A6",
"# 	c #6B98B8",
"$ 	c #6591AE",
"% 	c #538DB3",
"& 	c #4581AA",
"* 	c #3A749C",
"= 	c #B7D3E9",
"- 	c #B4D1E9",
"; 	c #B6D5EE",
"> 	c #A5CCEA",
", 	c #97C4E7",
"' 	c #85BBE2",
") 	c #72A8D2",
"! 	c #5F9BC8",
"~ 	c #E4F0F9",
"{ 	c #C4DDF1",
"] 	c #BAD8F0",
"^ 	c #FFFFFF",
"/ 	c #DFEDF8",
"( 	c #BFDBF1",
"_ 	c #C3DDF1",
": 	c #DBEAF7",
"< 	c #D6E8F6",
"[ 	c #DE9F4E",
"} 	c #D09D46",
"| 	c #5F8EA8",
"1 	c #EDF5FB",
"2 	c #DDECF8",
"3 	c #D1E5F5",
"4 	c #DC9E4E",
"5 	c #E7BE77",
"6 	c #F7E6D2",
"7 	c #D6A759",
"8 	c #EAF3F9",
"9 	c #F0D2B4",
"0 	c #F7E3C9",
"a 	c #EFD2AC",
"b 	c #C78C48",
"c 	c #EEF6FB",
"d 	c #D0E5E5",
"e 	c #ECD480",
"f 	c #F9E3B2",
"g 	c #E7C08B",
"h 	c #F6D3AE",
"i 	c #FCE0C4",
"j 	c #D39F66",
"k 	c #DAEAE3",
"l 	c #ECD37D",
"m 	c #FDF6C4",
"n 	c #F6DD6C",
"o 	c #EDCA6D",
"p 	c #D7A363",
"q 	c #CF9C64",
"r 	c #F7FBFD",
"s 	c #EED379",
"t 	c #FDF7C7",
"u 	c #F5DC5F",
"v 	c #F7E25B",
"w 	c #F2D67A",
"x 	c #DD9F4E",
"y 	c #798F9D",
"z 	c #E9CF7F",
"A 	c #F5DC5E",
"B 	c #F7E15A",
"C 	c #F1D47B",
"D 	c #DA984C",
"E 	c #DAEAF7",
"F 	c #749BB4",
"G 	c #DA9D4E",
"H 	c #D6B976",
"I 	c #FDF6C2",
"J 	c #F7DF63",
"K 	c #F8E25D",
"L 	c #F0D379",
"M 	c #DA9748",
"N 	c #D9E9F5",
"O 	c #7FA3A5",
"P 	c #D5B67A",
"Q 	c #C3A378",
"R 	c #E4C955",
"S 	c #F5DF5B",
"T 	c #EDD078",
"U 	c #D99A4E",
"V 	c #E8F3FA",
"W 	c #E2EFF8",
"X 	c #839CB5",
"Y 	c #AA8943",
"Z 	c #FFF2E0",
"` 	c #D89A54",
" .	c #BE7A1A",
"..	c #C59849",
"+.	c #C28B45",
"@.	c #FCFCFB",
"#.	c #F4F9FD",
"$.	c #EFF6FC",
"%.	c #E9F3FA",
"&.	c #85A7BC",
"*.	c #000000",
"=.	c #F9C794",
"-.	c #F9C991",
";.	c #C98541",
">.	c #A96723",
",.	c #17130B",
"'.	c #21190E",
").	c #BB884B",
"!.	c #BA8D44",
"~.	c #82ABB5",
"      + @ # $ $ % & * +         ",
"      + = - ; > , ' $ ) !       ",
"      + ~ { ] ; > , $ ^ , #     ",
"      + ^ / ( _ ; > $ ^ ^ , #   ",
"      + ^ ^ : < _ ; $ $ [ } |   ",
"      + ^ ^ 1 2 3 _ ; 4 5 6 7   ",
"      + ^ ^ ^ 8 < 3 4 5 9 0 a b ",
"      + ^ ^ ^ c d 4 e f g h i j ",
"      + ^ ^ ^ k 4 l m n o p q   ",
"      + ^ ^ r 4 s t u v w x y   ",
"      + ^ ^ 4 z t A B C D E F   ",
"      + ^ G H I J K L M N E F   ",
"      O [ P Q R S T U ^ V W X   ",
"      + Y Z `  ...+.@.#.$.%.&.  ",
"      + *.=.-.;.>.^ r #.$.%.&.  ",
"      + ,.'.).!.~.+ + + + + +   "};
