/* XPM */
static const char *encrypt_db_xpm[] = {
"16 16 120 2",
"  	c None",
". 	c #2C1E2C",
"+ 	c #4A3640",
"@ 	c #393967",
"# 	c #463E4D",
"$ 	c #454567",
"% 	c #45456B",
"& 	c #46525E",
"* 	c #505071",
"= 	c #485560",
"- 	c #4A5662",
"; 	c #4C5965",
"> 	c #4E5B68",
", 	c #505D6A",
"' 	c #525F6C",
") 	c #54626F",
"! 	c #615F6F",
"~ 	c #9A571D",
"{ 	c #685F67",
"] 	c #9A581D",
"^ 	c #576471",
"/ 	c #9A591E",
"( 	c #696169",
"_ 	c #9A5B1F",
": 	c #8E5E2D",
"< 	c #9A5C1F",
"[ 	c #596773",
"} 	c #9A5D20",
"| 	c #5B6976",
"1 	c #9A5F21",
"2 	c #9A6021",
"3 	c #9A6122",
"4 	c #646788",
"5 	c #5D6B78",
"6 	c #676884",
"7 	c #5E6C79",
"8 	c #9A6323",
"9 	c #2C76AC",
"0 	c #2E77AD",
"a 	c #616F7D",
"b 	c #716D79",
"c 	c #6C6D8B",
"d 	c #707081",
"e 	c #6D708D",
"f 	c #777584",
"g 	c #7C7C8D",
"h 	c #8589A0",
"i 	c #88899C",
"j 	c #8989A4",
"k 	c #878BA1",
"l 	c #8F90AB",
"m 	c #8C959F",
"n 	c #9393A8",
"o 	c #8D95AF",
"p 	c #FF8C05",
"q 	c #A99984",
"r 	c #FF9007",
"s 	c #9D9DB2",
"t 	c #FF9308",
"u 	c #FF950A",
"v 	c #FF970B",
"w 	c #FF9A0C",
"x 	c #FF9A0D",
"y 	c #A4A4B8",
"z 	c #A5A5B4",
"A 	c #FF9C0E",
"B 	c #A7A7BC",
"C 	c #FF9F0F",
"D 	c #FFA110",
"E 	c #FFA411",
"F 	c #FFA412",
"G 	c #FFA512",
"H 	c #FFA613",
"I 	c #AFAFAF",
"J 	c #FFA814",
"K 	c #BFB09B",
"L 	c #FFAB15",
"M 	c #FFAC16",
"N 	c #FFAD16",
"O 	c #FFAF17",
"P 	c #FFAF18",
"Q 	c #FFB219",
"R 	c #FFB41A",
"S 	c #FFB61B",
"T 	c #FFB71C",
"U 	c #BBBBBE",
"V 	c #FFB91D",
"W 	c #FFBC1E",
"X 	c #FFBD1F",
"Y 	c #FFBF20",
"Z 	c #FFC423",
"` 	c #C6C6CE",
" .	c #FFC725",
"..	c #FFC825",
"+.	c #FFC926",
"@.	c #FFCB26",
"#.	c #CFCFCF",
"$.	c #FFD72D",
"%.	c #D3D3DA",
"&.	c #FFD92E",
"*.	c #FFDA2F",
"=.	c #DADADE",
"-.	c #DFDFDF",
";.	c #FFE836",
">.	c #FFE936",
",.	c #D9E3EC",
"'.	c #E3E3E6",
").	c #DCE5EE",
"!.	c #E6E6EA",
"~.	c #E0E8F0",
"{.	c #E8E8EB",
"].	c #EBEBEB",
"^.	c #E6ECF3",
"/.	c #FFF64E",
"(.	c #FFF74F",
"_.	c #FFF750",
":.	c #FFF75C",
"<.	c #EFEFEF",
"[.	c #EDF1F6",
"}.	c #F4F7FA",
"m a a a a a a a 4 j j e         ",
"7 }.}.}.}.}.l B {.<.].'.y @     ",
"5 ,.,.,.,.o s !.z c 6 i =.n d   ",
"| ).9 9 9 k %.o 9 9 ).| d ` %   ",
"[ ~.~.~.~.g -.h ~.~.~.[ ! U *   ",
"^ ^.0 0 0 b #.f 0 0 ^.^ # I $   ",
") ~.~.~.~.{ K ( ~.~.~.) . q +   ",
"' ^.0 0 O ....................~ ",
", [.[.[.O :._.(.(.(.(.(.(.(./.~ ",
"> ^.0 0 O >.>.>.>.>.>.>.>.;.$.~ ",
"; ~.~.~.O *.*.*.*.*.*.*.&.@.O ~ ",
"- ).9 9 O +.+.+..... .Z V H D ~ ",
"= ~.~.~.O X Y X V S Q M E C w ~ ",
"= ).9 9 O W V R P L G D A v t ~ ",
"& }.}.}.O T Q N J F C x u r p ~ ",
"m & & & : 8 3 2 1 } < _ / ] ~ ~ "};
