/* XPM */
static const char *encrypt_db_edit_xpm[] = {
"16 16 160 2",
"  	c None",
". 	c #8C959F",
"+ 	c #616F7D",
"@ 	c #646788",
"# 	c #8989A4",
"$ 	c #6D708D",
"% 	c #5E6C79",
"& 	c #F4F7FA",
"* 	c #8F90AB",
"= 	c #A7A7BC",
"- 	c #E8E8EB",
"; 	c #EFEFEF",
"> 	c #EBEBEB",
", 	c #E3E3E6",
"' 	c #A4A4B8",
") 	c #393967",
"! 	c #5D6B78",
"~ 	c #D9E3EC",
"{ 	c #8D95AF",
"] 	c #9D9DB2",
"^ 	c #E6E6EA",
"/ 	c #A5A5B4",
"( 	c #6C6D8B",
"_ 	c #676884",
": 	c #88899C",
"< 	c #DADADE",
"[ 	c #9393A8",
"} 	c #707081",
"| 	c #5B6976",
"1 	c #DCE5EE",
"2 	c #2C76AC",
"3 	c #878BA1",
"4 	c #D3D3DA",
"5 	c #C6C6CE",
"6 	c #45456B",
"7 	c #596773",
"8 	c #E0E8F0",
"9 	c #7C7C8D",
"0 	c #DFDFDF",
"a 	c #8589A0",
"b 	c #DCE3EA",
"c 	c #615F6F",
"d 	c #BBBBBE",
"e 	c #505071",
"f 	c #576471",
"g 	c #E6ECF3",
"h 	c #2E77AD",
"i 	c #716D79",
"j 	c #CFCFCF",
"k 	c #777584",
"l 	c #3179AE",
"m 	c #E3E7EC",
"n 	c #BEAE9D",
"o 	c #D8A558",
"p 	c #DBB185",
"q 	c #D09D46",
"r 	c #54626F",
"s 	c #685F67",
"t 	c #BFB09B",
"u 	c #696169",
"v 	c #DEE7F0",
"w 	c #D4E6F4",
"x 	c #E7BE77",
"y 	c #F0D2B4",
"z 	c #FFF3E5",
"A 	c #EFD2AC",
"B 	c #C78C48",
"C 	c #525F6C",
"D 	c #FFAF17",
"E 	c #FFC825",
"F 	c #FEC826",
"G 	c #EECA48",
"H 	c #EDD581",
"I 	c #F9E3B2",
"J 	c #E7C08B",
"K 	c #F6D3AE",
"L 	c #FCE0C4",
"M 	c #D39F66",
"N 	c #505D6A",
"O 	c #EDF1F6",
"P 	c #FFF75C",
"Q 	c #FDF652",
"R 	c #E5EE79",
"S 	c #EDD47D",
"T 	c #FDF6C4",
"U 	c #F6DD6C",
"V 	c #EDCA6D",
"W 	c #D7A363",
"X 	c #D09D64",
"Y 	c #9A571D",
"Z 	c #4E5B68",
"` 	c #FEE937",
" .	c #F9E94F",
"..	c #EED379",
"+.	c #FDF7C7",
"@.	c #F5DC5F",
"#.	c #F7E25B",
"$.	c #F2D67A",
"%.	c #DE9F4E",
"&.	c #BBAFA1",
"*.	c #4C5965",
"=.	c #FDAF19",
"-.	c #FBDB49",
";.	c #E7CB77",
">.	c #F5DC5E",
",.	c #F7E15A",
"'.	c #F1D47B",
").	c #DC984A",
"!.	c #4A5662",
"~.	c #D6B976",
"{.	c #FDF6C2",
"].	c #F7DF63",
"^.	c #F8E25D",
"/.	c #F0D379",
"(.	c #DB9748",
"_.	c #BBB2A7",
":.	c #FFA613",
"<.	c #FFA110",
"[.	c #485560",
"}.	c #D5B67A",
"|.	c #D1B790",
"1.	c #E4C955",
"2.	c #F5DF5B",
"3.	c #EDD078",
"4.	c #DA9A4E",
"5.	c #BBB1A5",
"6.	c #FFA411",
"7.	c #FF9F0F",
"8.	c #FF9A0C",
"9.	c #AA8943",
"0.	c #FFF2E0",
"a.	c #D89A54",
"b.	c #BE7A1A",
"c.	c #C59849",
"d.	c #C38B45",
"e.	c #BBAEA0",
"f.	c #FF9C0E",
"g.	c #FF970B",
"h.	c #FF9308",
"i.	c #46525E",
"j.	c #83652B",
"k.	c #F9C794",
"l.	c #F9C991",
"m.	c #C98541",
"n.	c #AA6723",
"o.	c #B7AB9D",
"p.	c #FF9A0D",
"q.	c #FF950A",
"r.	c #FF9007",
"s.	c #FF8C05",
"t.	c #553D11",
"u.	c #875F28",
"v.	c #BD8849",
"w.	c #BC8D42",
"x.	c #9A5F21",
"y.	c #9A5D20",
"z.	c #9A5C1F",
"A.	c #9A5B1F",
"B.	c #9A591E",
"C.	c #9A581D",
". + + + + + + + @ # # $         ",
"% & & & & & * = - ; > , ' )     ",
"! ~ ~ ~ ~ { ] ^ / ( _ : < [ }   ",
"| 1 2 2 2 3 4 { 2 2 1 | } 5 6   ",
"7 8 8 8 8 9 0 a 8 8 b 7 c d e   ",
"f g h h h i j k h l m n o p q   ",
"r 8 8 8 8 s t u v w n x y z A B ",
"C g h h D E E F G n H I J K L M ",
"N O O O D P Q R n S T U V W X Y ",
"Z g h h D `  .n ..+.@.#.$.%.&.Y ",
"*.8 8 8 =.-.n ;.+.>.,.'.).n D Y ",
"!.1 2 2 D n ~.{.].^./.(._.:.<.Y ",
"[.8 8 8 D }.|.1.2.3.4.5.6.7.8.Y ",
"[.1 2 2 9.0.a.b.c.d.e.<.f.g.h.Y ",
"i.& & & j.k.l.m.n.o.7.p.q.r.s.Y ",
". i.i.i.t.u.v.w.x.y.z.A.B.C.Y Y "};
