/* XPM */
static const char *error_xpm[] = {
/* columns rows colors const chars-per-pixel */
"16 16 103 2",
"4  c Black",
"X  c #D53718",
"]  c #860400",
"9  c #71453F",
"+. c #7A0200",
"c  c #AD1106",
"o. c #670200",
"$  c #F0BBB0",
"m  c #B01B0B",
"x  c #B32B20",
"0  c #B16C64",
"'  c #710401",
"z  c #90382F",
",  c #FFFFFF",
"i  c #4A2621",
"7  c #E58E80",
"d  c #AB0E05",
"C  c #A41006",
"_  c #8C0903",
"Q  c #610803",
"R  c #960E06",
"&. c #680000",
"E  c #9B0F07",
"(  c #8A0904",
"1  c #D3958C",
"b  c #A51408",
"u  c #D4705F",
"L  c #510903",
"q  c #D2796F",
"<  c #BD857D",
";  c #DB6854",
"g  c #B41D0C",
"k  c #C75242",
"2  c #CC594D",
"   c None",
"~  c #940802",
")  c #8D0A04",
"F  c #A31409",
"=  c #BE1F0D",
"Y  c #990602",
"M  c #B52415",
"|  c #7F0501",
"U  c #9C0A03",
"3  c #B7180A",
"@  c #E16A52",
"P  c #820C04",
".  c #D83A1A",
"8  c #E08C7D",
"5  c #C42710",
"@. c #780100",
"!  c #820903",
"6  c #E08677",
"r  c #BD230E",
"V  c #83160C",
"^  c #930602",
"G  c #A71609",
"t  c #D66C5C",
"H  c #A51608",
"y  c #D97363",
"h  c #C13727",
"J  c #861107",
">  c #ECA89B",
"D  c #9E1207",
"j  c #CC5545",
"A  c #A00903",
"Z  c #A50D05",
"*  c #D1594A",
"N  c #B52F1F",
"w  c #B41609",
"[  c #880200",
"O. c #7C0000",
"/  c #860803",
"e  c #B71D0C",
"#  c #EFA695",
"&  c #E0978B",
"#. c #6E0100",
"o  c #D03116",
"`  c #480401",
"I  c #9C0C04",
"B  c #3F0F0B",
"n  c #AB180A",
":  c #EDA99C",
"S  c #9A0F06",
"a  c #C65E54",
"-  c #C92A12",
" . c #6A0401",
"l  c #401915",
"f  c #AE190A",
"W  c #980F06",
"p  c #9B4E46",
"{  c #800502",
"$. c #610000",
"O  c #CA2B13",
"v  c #A70C04",
"%  c #EAB6AC",
"K  c #510A04",
"s  c #B11408",
"%. c #5F0000",
"X. c #450200",
"+  c #D23317",
".. c #450201",
"T  c #920C05",
"}  c #810602",
/* pixels */
"                                ",
"                                ",
"                . X o O         ",
"            + @ # $ % & * =     ",
"          - ; : > , , < 1 2 3   ",
"4         5 6 7 8 , , 9 0 q w   ",
"4 4     e r t y u , , i p a s d ",
"4 4 4   f g h j k , , l z x c v ",
"4 4     b n m M N , , B V C Z A ",
"4       S D F G H J K L P I U Y ",
"          T R E W , , Q ! ~ ^   ",
"          / ( ) _ , , ` ' ] [   ",
"            { } |  ...X.o.O.    ",
"              +.@.#.$.%.&.      ",
"                                ",
"                                "
};
