/* XPM */
static const char* euro_xpm[] = {
"48 48 388 2",
"  	c None",
". 	c #544403",
"+ 	c #5E4B04",
"@ 	c #675204",
"# 	c #695504",
"$ 	c #635003",
"% 	c #5D4901",
"& 	c #473A02",
"* 	c #5E4C08",
"= 	c #826A0A",
"- 	c #A78A0D",
"; 	c #CAA40E",
"> 	c #D6AE0F",
", 	c #D8AF0D",
"' 	c #D5AC0B",
") 	c #D3AA0A",
"! 	c #D1A808",
"~ 	c #CEA606",
"{ 	c #C49D04",
"] 	c #B39002",
"^ 	c #8A6F01",
"/ 	c #675200",
"( 	c #403400",
"_ 	c #745E0C",
": 	c #B29111",
"< 	c #DFB615",
"[ 	c #E2B915",
"} 	c #E0B713",
"| 	c #DEB512",
"1 	c #DBB210",
"2 	c #D9B00E",
"3 	c #D7AE0C",
"4 	c #D4AC0B",
"5 	c #D2A909",
"6 	c #D0A707",
"7 	c #CDA505",
"8 	c #CBA203",
"9 	c #C8A002",
"0 	c #C69E00",
"a 	c #B99400",
"b 	c #6C5600",
"c 	c #67540A",
"d 	c #B99615",
"e 	c #EAC01B",
"f 	c #E8BF19",
"g 	c #E6BC18",
"h 	c #E4BA16",
"i 	c #E2B814",
"j 	c #DFB613",
"k 	c #DDB411",
"l 	c #DBB10F",
"m 	c #D6AD0C",
"n 	c #D3AB0A",
"o 	c #CCA404",
"p 	c #CAA103",
"q 	c #C79F01",
"r 	c #BF9900",
"s 	c #4A3A00",
"t 	c #9B8113",
"u 	c #E9C01E",
"v 	c #EEC41E",
"w 	c #ECC21C",
"x 	c #E8BE19",
"y 	c #E5BC17",
"z 	c #E3BA15",
"A 	c #E1B714",
"B 	c #DCB310",
"C 	c #DAB00E",
"D 	c #D7AE0D",
"E 	c #D2AA09",
"F 	c #CBA304",
"G 	c #796000",
"H 	c #514309",
"I 	c #BB9A19",
"J 	c #F4CA22",
"K 	c #F2C821",
"L 	c #F0C61F",
"M 	c #EEC41D",
"N 	c #E9BF1A",
"O 	c #E7BD18",
"P 	c #E5BB16",
"Q 	c #E0B613",
"R 	c #DBB20F",
"S 	c #D8AF0E",
"T 	c #B79203",
"U 	c #322800",
"V 	c #58490A",
"W 	c #D6B120",
"X 	c #F8CD25",
"Y 	c #F6CC23",
"Z 	c #F2C720",
"` 	c #EFC51F",
" .	c #EDC31D",
"..	c #EBC11B",
"+.	c #E6BC17",
"@.	c #E3BA16",
"#.	c #E1B814",
"$.	c #DAB10E",
"%.	c #CCA405",
"&.	c #634F01",
"*.	c #4F4008",
"=.	c #CEAB1F",
"-.	c #FBD027",
";.	c #FACF26",
">.	c #F6CB23",
",.	c #F3C921",
"'.	c #F1C720",
").	c #EAC01A",
"!.	c #E2B917",
"~.	c #BB9912",
"{.	c #88700C",
"].	c #6D5909",
"^.	c #615006",
"/.	c #5F4C06",
"(.	c #6A5606",
"_.	c #745E05",
":.	c #967806",
"<.	c #C29C07",
"[.	c #A58405",
"}.	c #1F1800",
"|.	c #BE9D1B",
"1.	c #FCD128",
"2.	c #FDD229",
"3.	c #F9CF26",
"4.	c #F7CC24",
"5.	c #F5CA22",
"6.	c #F0C51F",
"7.	c #E0B81B",
"8.	c #8F760F",
"9.	c #4C3E07",
"0.	c #130F02",
"a.	c #352A02",
"b.	c #413502",
"c.	c #8D7312",
"d.	c #F8CE26",
"e.	c #FED329",
"f.	c #F8CE25",
"g.	c #F1C721",
"h.	c #AC8D16",
"i.	c #463A08",
"j.	c #61500B",
"k.	c #EAC021",
"l.	c #FAD027",
"m.	c #FDD228",
"n.	c #F9CE25",
"o.	c #F0C723",
"p.	c #866E11",
"q.	c #191602",
"r.	c #B09115",
"s.	c #F5CB24",
"t.	c #7D6610",
"u.	c #090900",
"v.	c #5F4F0A",
"w.	c #F3C821",
"x.	c #F5CA23",
"y.	c #F9CE26",
"z.	c #907714",
"A.	c #0C0800",
"B.	c #675406",
"C.	c #655107",
"D.	c #655207",
"E.	c #665308",
"F.	c #675309",
"G.	c #635109",
"H.	c #A68812",
"I.	c #EFC51E",
"J.	c #F6CC24",
"K.	c #F7CD24",
"L.	c #DFB920",
"M.	c #5E4D0B",
"N.	c #5F4E0B",
"O.	c #66530C",
"P.	c #69560C",
"Q.	c #6A560B",
"R.	c #69560B",
"S.	c #68550A",
"T.	c #68530A",
"U.	c #695609",
"V.	c #524506",
"W.	c #8B7007",
"X.	c #E4BB16",
"Y.	c #E6BD18",
"Z.	c #F5CB23",
"`.	c #DBB415",
" +	c #524406",
".+	c #BE9A0A",
"++	c #DCB210",
"@+	c #E3B915",
"#+	c #E5BB17",
"$+	c #EBC11C",
"%+	c #F4C922",
"&+	c #F2C820",
"*+	c #F1C61F",
"=+	c #A8890F",
"-+	c #665104",
";+	c #DAB10F",
">+	c #DCB311",
",+	c #DFB512",
"'+	c #EDC21C",
")+	c #675308",
"!+	c #967A05",
"~+	c #D4AB0A",
"{+	c #D1AB15",
"]+	c #302803",
"^+	c #4C3D02",
"/+	c #C49E07",
"(+	c #DEB411",
"_+	c #E2B815",
":+	c #8E740D",
"<+	c #544302",
"[+	c #775F04",
"}+	c #715B03",
"|+	c #715904",
"1+	c #705B05",
"2+	c #725B07",
"3+	c #725C07",
"4+	c #725D08",
"5+	c #776108",
"6+	c #D7B012",
"7+	c #E7BE19",
"8+	c #C3A115",
"9+	c #745F0C",
"0+	c #7A630D",
"a+	c #7B640D",
"b+	c #7A640C",
"c+	c #7A630C",
"d+	c #79630B",
"e+	c #7C640B",
"f+	c #4E3E06",
"g+	c #352B03",
"h+	c #D0AA11",
"i+	c #9E8110",
"j+	c #050300",
"k+	c #342D03",
"l+	c #CCA60F",
"m+	c #A78910",
"n+	c #080600",
"o+	c #3C3202",
"p+	c #3A2F04",
"q+	c #3D3203",
"r+	c #C6A10D",
"s+	c #B89611",
"t+	c #2D2503",
"u+	c #3A3004",
"v+	c #403504",
"w+	c #423604",
"x+	c #403604",
"y+	c #735C01",
"z+	c #BB9604",
"A+	c #BE9805",
"B+	c #C09A07",
"C+	c #C19C08",
"D+	c #C39D0A",
"E+	c #C59F0B",
"F+	c #D6AE0E",
"G+	c #DEB514",
"H+	c #D0A913",
"I+	c #D1AA14",
"J+	c #D1AB14",
"K+	c #D2AB15",
"L+	c #D0AA14",
"M+	c #CFA913",
"N+	c #CEA812",
"O+	c #CBA511",
"P+	c #604D06",
"Q+	c #A68302",
"R+	c #CDA405",
"S+	c #CFA607",
"T+	c #D3AA09",
"U+	c #B7950E",
"V+	c #554600",
"W+	c #C39C01",
"X+	c #C9A102",
"Y+	c #CFA707",
"Z+	c #D6AE0C",
"`+	c #745D08",
" @	c #7D6400",
".@	c #DDB311",
"+@	c #DFB612",
"@@	c #D3AC10",
"#@	c #413404",
"$@	c #B28E00",
"%@	c #C9A103",
"&@	c #9E810B",
"*@	c #5E4B00",
"=@	c #9F8000",
"-@	c #9E7E00",
";@	c #9D7E00",
">@	c #9D7D00",
",@	c #9F7E01",
"'@	c #A08002",
")@	c #A08203",
"!@	c #A28404",
"~@	c #A48406",
"{@	c #B18E07",
"]@	c #D7AF0D",
"^@	c #BF9A0D",
"/@	c #AB8C0B",
"(@	c #AB8C0C",
"_@	c #AD8D0C",
":@	c #AD8E0C",
"<@	c #AD8E0B",
"[@	c #302501",
"}@	c #BC9906",
"|@	c #D5AD0B",
"1@	c #B08F0A",
"2@	c #2A2201",
"3@	c #060500",
"4@	c #070600",
"5@	c #715A03",
"6@	c #A48509",
"7@	c #332901",
"8@	c #AE8B05",
"9@	c #D0A807",
"0@	c #D1A908",
"a@	c #B18F08",
"b@	c #4F4004",
"c@	c #524101",
"d@	c #C49D05",
"e@	c #D0A808",
"f@	c #CAA209",
"g@	c #7D6606",
"h@	c #3B2F02",
"i@	c #6F5801",
"j@	c #CAA204",
"k@	c #C19B08",
"l@	c #836B06",
"m@	c #5D4A04",
"n@	c #3D3002",
"o@	c #786101",
"p@	c #C9A104",
"q@	c #CFA606",
"r@	c #CFA708",
"s@	c #C29D07",
"t@	c #AF8D06",
"u@	c #A18005",
"v@	c #9B7C05",
"w@	c #A28304",
"x@	c #B69305",
"y@	c #967903",
"z@	c #312A00",
"A@	c #796101",
"B@	c #C8A003",
"C@	c #CEA506",
"D@	c #947602",
"E@	c #302700",
"F@	c #625001",
"G@	c #BE9702",
"H@	c #CAA203",
"I@	c #CCA304",
"J@	c #967801",
"K@	c #342900",
"L@	c #4C3C00",
"M@	c #A18001",
"N@	c #C89F02",
"O@	c #C79F00",
"P@	c #937600",
"Q@	c #312800",
"R@	c #1B1700",
"S@	c #5D4B00",
"T@	c #AE8B01",
"U@	c #C8A001",
"V@	c #967800",
"W@	c #382D00",
"X@	c #2C2200",
"Y@	c #5C4A00",
"Z@	c #937700",
"`@	c #BF9901",
" #	c #C59D00",
".#	c #B49000",
"+#	c #826700",
"@#	c #4C3D00",
"##	c #3D3000",
"$#	c #584700",
"%#	c #745C00",
"&#	c #917500",
"*#	c #A28100",
"=#	c #AE8B00",
"-#	c #B18E00",
";#	c #A38200",
">#	c #846A00",
",#	c #6B5600",
"'#	c #4E3E00",
")#	c #292000",
"!#	c #120F00",
"~#	c #201900",
"{#	c #100D00",
"]#	c #0A0800",
"                                                                                                ",
"                                                                                                ",
"                                                                                                ",
"                                                            . + @ # $ % &                       ",
"                                                    * = - ; > , ' ) ! ~ { ] ^ / (               ",
"                                                _ : < [ } | 1 2 3 4 5 6 7 8 9 0 a b             ",
"                                            c d e f g h i j k l , m n ! ~ o p q r s             ",
"                                          t u v w e x y z A | B C D ' E 6 7 F 9 G               ",
"                                      H I J K L M w N O P [ Q k R S m n ! ~ o T U               ",
"                                    V W X Y J Z `  ...x +.@.#.| B $.D ' 5 6 %.&.                ",
"                                  *.=.-.;.X >.,.'.v w ).!.~.{.].^./.(._.:.<.[.}.                ",
"                                  |.1.2.1.3.4.5.K 6.7.8.9.0.              a.b.                  ",
"                                c.d.1.e.2.-.f.>.g.h.i.                                          ",
"                              j.k.X l.m.m.-.n.o.p.q.                                            ",
"                              r.J 4.n.l.-.l.s.t.u.                                              ",
"                            v.u w.x.4.f.3.y.z.A.                                                ",
"              B.C.C.D.E.F.G.H.I.'.,.x.J.K.L.M.N.O.P.Q.R.S.T.c U.V.                              ",
"            W.l k j i X.Y.N .. .I.'.,.J Z.>.Z.J ,.'.6. ...N O `. +                              ",
"            .+2 ++| } @+#+O N $+ .I.'.K ,.%+%+,.&+*+I. ...N O =+                                ",
"          -+4 , ;+>+,+#.@.y x ).w  .I.L '.Z &+Z '.6.v '+..N O )+                                ",
"          !+~+m 2 R k j i h +.x )... .v I.L L L I.v  .w e x {+]+                                ",
"        ^+/+E ' D 2 1 (+Q _+h +.x N ..w  .M v v M  .w ..N x :+                                  ",
"        <+[+}+|+1+2+3+4+5+6+[ h +.7+N 8+9+0+a+a+a+a+b+c+d+e+f+                                  ",
"                        g+h+} [ h y O i+j+                                                      ",
"                        k+l+| } i @.#+m+n+                                                      ",
"                  o+o+p+q+r+B | Q #.@+s+t+u+v+w+w+w+w+w+w+x+                                    ",
"            y+z+A+B+C+D+E+F+;+B (+j A G+H+I+J+K+K+K+K+I+L+M+N+O+P+                              ",
"            Q+8 R+S+! T+' 3 S ;+B k ,+Q A i [ @+z z @+[ _+#.} U+                                ",
"          V+W+X+F 7 Y+! T+' Z+, $.1 >+(+,+Q } A #.#.#.A } Q ,+`+                                ",
"           @0 q X+F 7 Y+! T+4 m , 2 ;+++.@(+| +@j j j +@,+| @@#@                                ",
"          $@0 0 q %@F 7 Y+! E ~+m D S C l 1 B k k k k k k .@&@                                  ",
"        *@=@-@;@>@,@'@)@!@~@{@5 ~+' m ]@2 2 ^@/@(@_@:@_@_@<@^.                                  ",
"                          n+[@}@5 ) ~+|@Z+D 1@2@3@4@n+                                          ",
"                              5@6 ! E n 4 |@m 6@7@                                              ",
"                              U 8@S+9@0@E n ~+' a@b@                                            ",
"                                c@d@~ Y+e@0@5 T+n f@g@h@                                        ",
"                                  i@j@7 ~ Y+6 ! 0@5 5 k@l@m@n@                                  ",
"                                    o@p@%.7 ~ q@Y+6 9@e@! r@s@t@u@v@w@x@y@z@                    ",
"                                      A@B@F o R+7 C@~ ~ q@q@q@~ C@7 R+o F D@E@                  ",
"                                        F@G@H@8 F o %.R+R+R+R+R+%.I@F 8 H@X+J@K@                ",
"                                          L@M@N@X+H@H@8 F F F F H@H@p X+9 q O@P@Q@              ",
"                                            R@S@T@U@9 X+X+X+X+X+X+9 U@q q 0 0 0 V@W@            ",
"                                                X@Y@Z@`@q q q q q q 0 0 0 0  #.#+#@#            ",
"                                                      ##$#%#&#*#=#-#=#;#>#,#'#)#                ",
"                                                                !#~#{#]#                        ",
"                                                                                                ",
"                                                                                                ",
"                                                                                                "};
