/* XPM */
static const char * export_import_xpm[] = {
"48 48 387 2",
"  	c None",
". 	c #B6B6B6",
"+ 	c #CDCDCD",
"@ 	c #C6C6C6",
"# 	c #C7C7C7",
"$ 	c #FFFFFF",
"% 	c #E8E8E8",
"& 	c #CACACA",
"* 	c #B5B5B5",
"= 	c #FCFCFC",
"- 	c #FBFBFB",
"; 	c #FEFEFE",
"> 	c #E7E7E7",
", 	c #CECECE",
"' 	c #B1B1B1",
") 	c #FAFAFA",
"! 	c #F2F2F2",
"~ 	c #EFEFEF",
"{ 	c #EBEBEB",
"] 	c #E4E4E4",
"^ 	c #E0E0E0",
"/ 	c #DBDBDB",
"( 	c #D6D6D6",
"_ 	c #D8D8D9",
": 	c #DCDCDC",
"< 	c #E1E1E1",
"[ 	c #EBEBEC",
"} 	c #E6E6E6",
"| 	c #D2D2D2",
"1 	c #CCCCCC",
"2 	c #AEAEAE",
"3 	c #FDFDFD",
"4 	c #E3E3E3",
"5 	c #DFDFDF",
"6 	c #DADADA",
"7 	c #D5D5D5",
"8 	c #CFCFD0",
"9 	c #CACACB",
"0 	c #C5C5C6",
"a 	c #C0C0C1",
"b 	c #BABABC",
"c 	c #B5B5B7",
"d 	c #B0B0B2",
"e 	c #B8B8BA",
"f 	c #E5E5E5",
"g 	c #ABABAB",
"h 	c #DEDEDE",
"i 	c #D9D9D9",
"j 	c #D4D4D4",
"k 	c #CECECF",
"l 	c #C9C9CA",
"m 	c #C4C4C5",
"n 	c #BFBFC0",
"o 	c #B9B9BB",
"p 	c #B4B4B6",
"q 	c #AFAFB1",
"r 	c #AAAAAC",
"s 	c #A5A5A8",
"t 	c #D1D1D1",
"u 	c #DFDFE0",
"v 	c #D3D3D4",
"w 	c #CDCDCF",
"x 	c #C8C8CA",
"y 	c #C3C3C5",
"z 	c #BEBEC0",
"A 	c #B8B8BB",
"B 	c #B3B3B5",
"C 	c #AEAEB0",
"D 	c #A9A9AB",
"E 	c #A8A8AB",
"F 	c #AFAFB2",
"G 	c #C3C3C4",
"H 	c #E2E2E2",
"I 	c #DDDDDD",
"J 	c #D8D8D8",
"K 	c #C9C9C9",
"L 	c #DEDEDF",
"M 	c #D2D2D4",
"N 	c #CFCFD1",
"O 	c #C7C7C9",
"P 	c #B7B7BA",
"Q 	c #B9B9BC",
"R 	c #BCBCBE",
"S 	c #C0C0C2",
"T 	c #CBCBCD",
"U 	c #D0D0D0",
"V 	c #D7D7D8",
"W 	c #C5C5C7",
"X 	c #BDBDBF",
"Y 	c #BBBBBD",
"Z 	c #BEBEBF",
"` 	c #C1C1C3",
" .	c #BCBCBD",
"..	c #CCCCCD",
"+.	c #D4D4D5",
"@.	c #DDDDDE",
"#.	c #C4C4C4",
"$.	c #ABABAD",
"%.	c #B1B1B3",
"&.	c #C1C1C1",
"*.	c #C5C5C5",
"=.	c #B0B0B0",
"-.	c #ECECEC",
";.	c #E9E9E9",
">.	c #D7D7D7",
",.	c #BEBEBE",
"'.	c #8A8A8A",
").	c #858585",
"!.	c #B3B3B4",
"~.	c #C8C8C9",
"{.	c #BDBDBE",
"].	c #929292",
"^.	c #838383",
"/.	c #BBBBBB",
"(.	c #C3C3C3",
"_.	c #C2C2C2",
":.	c #BFBFBF",
"<.	c #AAAAAA",
"[.	c #D3D3D3",
"}.	c #B0B0B1",
"|.	c #9E9E9F",
"1.	c #969697",
"2.	c #959595",
"3.	c #949495",
"4.	c #949494",
"5.	c #939394",
"6.	c #959596",
"7.	c #969696",
"8.	c #979797",
"9.	c #9B9B9C",
"0.	c #AAAAAB",
"a.	c #C7C7C8",
"b.	c #A9A9A9",
"c.	c #ABABAC",
"d.	c #EEEEEE",
"e.	c #BABABA",
"f.	c #919191",
"g.	c #9F9F9F",
"h.	c #CFCFCF",
"i.	c #A1A1A1",
"j.	c #8E8E8E",
"k.	c #989898",
"l.	c #979798",
"m.	c #9A9A9B",
"n.	c #9D9D9F",
"o.	c #9D9DA0",
"p.	c #979799",
"q.	c #999999",
"r.	c #939393",
"s.	c #F9F9F9",
"t.	c #B4B4B5",
"u.	c #A0A0A0",
"v.	c #9F9FA1",
"w.	c #A8A8A8",
"x.	c #B2B2B4",
"y.	c #EDEDED",
"z.	c #F7F7F7",
"A.	c #F5F5F5",
"B.	c #F8F8F8",
"C.	c #F0F0F0",
"D.	c #9EA1A1",
"E.	c #B9BABA",
"F.	c #D1D1D2",
"G.	c #888A8B",
"H.	c #EBECEC",
"I.	c #F6F6F6",
"J.	c #CDCECE",
"K.	c #585B5C",
"L.	c #696B6B",
"M.	c #8B8D8E",
"N.	c #ABACAE",
"O.	c #BFBFC1",
"P.	c #C1C1C2",
"Q.	c #B5B6B7",
"R.	c #999B9C",
"S.	c #737575",
"T.	c #57595A",
"U.	c #A4A6A7",
"V.	c #F1F1F1",
"W.	c #F3F3F3",
"X.	c #DEE0E0",
"Y.	c #A1A3A4",
"Z.	c #6F7274",
"`.	c #585C5E",
" +	c #4A4E4F",
".+	c #4C5051",
"++	c #555859",
"@+	c #5C5F60",
"#+	c #5E6162",
"$+	c #585A5B",
"%+	c #4F5253",
"&+	c #484C4D",
"*+	c #545758",
"=+	c #666A6B",
"-+	c #8E9192",
";+	c #D1D2D2",
">+	c #EEEFEF",
",+	c #F1F1F2",
"'+	c #EDEDEE",
")+	c #E9E9EA",
"!+	c #D9DADA",
"~+	c #C3C4C5",
"{+	c #AEB0B1",
"]+	c #A9ABAC",
"^+	c #BCBEBE",
"/+	c #D2D4D4",
"(+	c #E6E6E7",
"_+	c #ECEDED",
":+	c #F4F4F4",
"<+	c #DEE5D8",
"[+	c #A6BDA5",
"}+	c #457D27",
"|+	c #EAEAEA",
"1+	c #A3B9A2",
"2+	c #36538C",
"3+	c #486D69",
"4+	c #9EB59E",
"5+	c #35528F",
"6+	c #9B9BFF",
"7+	c #466C69",
"8+	c #AECB96",
"9+	c #CBDCBE",
"0+	c #9BB29C",
"a+	c #344F92",
"b+	c #8E8EFF",
"c+	c #B0B0FF",
"d+	c #466B69",
"e+	c #7DAE56",
"f+	c #5AA320",
"g+	c #C4D8B5",
"h+	c #97B098",
"i+	c #334C94",
"j+	c #7A7AFF",
"k+	c #9999FF",
"l+	c #9595FF",
"m+	c #466B68",
"n+	c #E8ECE5",
"o+	c #E9EDE6",
"p+	c #7DAE57",
"q+	c #86E03E",
"r+	c #5EA822",
"s+	c #BCD2A9",
"t+	c #95AE96",
"u+	c #2F4A96",
"v+	c #6565FF",
"w+	c #7D7DFF",
"x+	c #2134B1",
"y+	c #3A5B79",
"z+	c #3B6651",
"A+	c #D5DFCC",
"B+	c #7CAC56",
"C+	c #A9E976",
"D+	c #B5ED88",
"E+	c #5EA921",
"F+	c #ACC598",
"G+	c #91AB92",
"H+	c #2D4898",
"I+	c #5050FF",
"J+	c #6161FF",
"K+	c #5252FF",
"L+	c #6271C5",
"M+	c #D9E3D0",
"N+	c #9FE767",
"O+	c #CCF3AD",
"P+	c #AEEC7C",
"Q+	c #5EAC20",
"R+	c #6C944C",
"S+	c #8EA88F",
"T+	c #2B439A",
"U+	c #3939FF",
"V+	c #4545FF",
"W+	c #434CDD",
"X+	c #426C6B",
"Y+	c #497952",
"Z+	c #7CAA56",
"`+	c #89B368",
" @	c #579128",
".@	c #96E558",
"+@	c #BBEF92",
"@@	c #A5EA6F",
"#@	c #57AA15",
"$@	c #8BA68C",
"%@	c #27409C",
"&@	c #2222FF",
"*@	c #2929FF",
"=@	c #2D3FB7",
"-@	c #5DB718",
";@	c #74D626",
">@	c #77D72A",
",@	c #77D92A",
"'@	c #96E656",
")@	c #ABEB78",
"!@	c #9BE75E",
"~@	c #56AE0F",
"{@	c #3E8508",
"]@	c #88A489",
"^@	c #243D9E",
"/@	c #0B0BFF",
"(@	c #0D0DFF",
"_@	c #1829BE",
":@	c #7EC845",
"<@	c #9AE75D",
"[@	c #90E54C",
"}@	c #58B210",
"|@	c #3F8507",
"1@	c #D9E1D3",
"2@	c #37605C",
"3@	c #0000FF",
"4@	c #18339C",
"5@	c #76CC30",
"6@	c #8AE342",
"7@	c #84E239",
"8@	c #5AB60F",
"9@	c #9BB299",
"0@	c #2B4593",
"a@	c #21477B",
"b@	c #6DD11D",
"c@	c #79DF28",
"d@	c #77DE24",
"e@	c #5AB90D",
"f@	c #3F8506",
"g@	c #9AB298",
"h@	c #29575F",
"i@	c #66D60D",
"j@	c #69DB0D",
"k@	c #58BA09",
"l@	c #408608",
"m@	c #99B197",
"n@	c #2A4494",
"o@	c #2A595C",
"p@	c #66D70C",
"q@	c #68DB0C",
"r@	c #5CC10A",
"s@	c #3F8708",
"t@	c #98B096",
"u@	c #2A4495",
"v@	c #295661",
"w@	c #65D50C",
"x@	c #5ABE0A",
"y@	c #3F8508",
"z@	c #97B095",
"A@	c #1829BD",
"B@	c #2E4B89",
"C@	c #397138",
"D@	c #64D30C",
"E@	c #5ABD0B",
"F@	c #408406",
"G@	c #96AE94",
"H@	c #294396",
"I@	c #456B66",
"J@	c #D8E0D2",
"K@	c #7FAC5B",
"L@	c #63D00B",
"M@	c #58B90A",
"N@	c #3F8407",
"O@	c #294397",
"P@	c #456A68",
"Q@	c #97BA7B",
"R@	c #60CB0B",
"S@	c #57B60A",
"T@	c #408607",
"U@	c #95AE93",
"V@	c #294297",
"W@	c #C3D3B5",
"X@	c #6AA23C",
"Y@	c #6CA43F",
"Z@	c #549322",
"`@	c #67D90C",
" #	c #58B40E",
".#	c #94AD92",
"+#	c #294298",
"@#	c #78A852",
"##	c #66D80C",
"$#	c #5DB418",
"%#	c #5F8F38",
"&#	c #93AC91",
"*#	c #42762C",
"=#	c #5DB119",
"-#	c #90B474",
";#	c #CCD7C4",
">#	c #5CAF1A",
",#	c #99BB7E",
"'#	c #B2B2B2",
")#	c #699A43",
"!#	c #55A515",
"~#	c #86A76C",
"{#	c #408508",
"      . + + + + + + + + + + + + + + + + + + + + + + + + + @ .                                   ",
"      # $ $ $ $ $ $ $ $ $ $ $ $ $ $ $ $ $ $ $ $ $ $ $ $ $ % & *                                 ",
"      # $ $ $ $ $ $ $ $ $ $ $ $ = - ; $ $ $ $ $ $ $ $ $ $ > , + '                               ",
"      # $ $ $ $ $ $ ) ! ~ { > ] ^ / ( ( _ : < [ $ $ $ $ $ } | | 1 2                             ",
"      # $ $ $ $ 3 { 4 4 4 4 5 6 7 8 9 0 a b c d e [ $ $ $ f 7 7 | 1 g                           ",
"      # ; ; ; ; { 4 4 4 h i j k l m n o p q r s s p ; ; ; 4 i i 7 t &                           ",
"      # ; ; ; ; / ] u _ v w x y z A B C D s s E F G ; ; ; H I : J 7 t K                         ",
"      # 3 3 3 3 6 i L _ M N k O z P Q R R R S T 6 U 3 3 3 ^ ^ 5 : J j t @                       ",
"      # 3 3 3 3 6 i ^ V k W X Y Z ` Y  .G ..+.@.I U 3 3 3 5 ] 4 5 / J j t #.                    ",
"      @ = = = = 6 i ^ V k W R p $.E %.b G ..+.@.I U = = = I % } H 5 / J j U &.                  ",
"      @ = = = = &.*.^ V k W R p $.E %.b G ..+.@.( =.= = = : -.;.} H 5 / >.j U ,.                ",
"      @ = = = = 7 '.).!.~.W R p $.E %.b G l {.].^./.= = = 4 # # @ @ *.#.(.(._.:.<.              ",
"      @ - - - - i i [.}.|.1.2.3.4.5.6.7.8.9.0.a.I U - - - - - - - - - - - - - ~ b.              ",
"      @ - - - - i i ^ V k W R p c.E %.b G ..+.@.I U - - - - - - - - - - - - - ~ b.              ",
"      @ ) ) ) ) j i ^ V k W R p $.E %.b G ..+.@.I + ) ) ) ) ) ) ) ) ) ) ) ) ) d.b.              ",
"      @ ) ) ) ) &.^.e.V k W R p $.E %.b G ..+.l f.g.) ) ) ) ) ) ) ) ) ) ) ) ) d.b.              ",
"      @ ) ) ) ) i h.i.j.k.l.l.m.n.o.9.p.q.q.2.r.*.U ) ) ) ) ) ) ) ) ) ) ) ) ) d.b.              ",
"      *.s.s.s.s.J i ^ V k ` t.0.u.v.w.x.{...+.@.I h.s.s.s.s.s.s.s.s.s.s.s.s.s.y.b.              ",
"      *.s.s.s.z.[.i ^ V k W R p $.E %.b G ..+.@.I + A.s.s.s.s.s.s.s.s.s.s.s.s.y.b.              ",
"      *.B.B.B.C.D.E.^ V k W R p $.E %.b G ..+.@.F.G.H.B.B.B.B.B.B.B.B.B.B.B.B.-.b.              ",
"      *.B.B.B.I.J.K.L.M.N.O.R p $.E %.b P.Q.R.S.T.U.V.B.B.B.B.B.B.B.B.B.B.B.B.-.b.              ",
"      *.z.z.z.z.W.X.Y.Z.`. +.+++@+#+$+%+&+*+=+-+;+>+I.z.z.z.z.z.z.z.z.z.z.z.z.{ b.              ",
"      *.z.z.z.z.z.I.,+'+{ )+!+~+{+]+^+/+(+{ _+C.:+z.z.z.z.z.z.z.z.z.z.z.z.z.z.{ b.              ",
"      *.z.z.z.z.z.z.z.z.z.z.A.:+<+V.W.A.z.z.z.z.z.z.z.z.z.z.z.z.z.z.z.z.z.z.z.{ b.              ",
"      #.I.I.I.I.I.I.I.I.I.I.I.[+}+I.I.I.I.I.I.I.I.I.I.I.I.I.I.I.I.I.I.I.I.I.I.|+b.              ",
"      #.I.I.I.I.I.I.I.I.I.I.1+2+3+I.I.I.I.I.I.I.I.I.I.I.I.I.I.I.I.I.I.I.I.I.I.|+b.              ",
"      #.A.A.A.A.A.A.A.A.A.4+5+6+7+A.A.A.A.A.A.A.A.A.A.A.A.A.A.A.A.B.B.8+9+A.A.|+b.              ",
"      #.A.A.A.A.A.A.A.A.0+a+b+c+d+A.A.A.A.A.A.A.A.A.A.A.A.A.A.A.A.B.= e+f+g+A.|+b.              ",
"      #.:+:+:+:+:+:+:+h+i+j+k+l+m+n+n+n+n+n+n+n+n+n+n+n+n+n+n+n+o+I.- p+q+r+s+;.b.              ",
"      #.:+:+:+:+:+:+t+u+v+w+w+j+x+y+y+y+y+y+y+y+y+y+y+y+y+y+y+y+z+A+s.B+C+D+E+F+b.              ",
"      #.:+:+:+:+:+G+H+I+J+J+J+J+K+K+K+K+K+K+K+K+K+K+K+K+K+K+K+K+L+M+B.B+N+O+P+Q+R+              ",
"      (.W.W.W.W.S+T+U+V+V+V+V+V+V+V+W+X+X+X+X+X+X+X+X+X+X+X+X+X+Y+Z+`+ @.@+@+@@@#@              ",
"      (.W.W.W.$@%@&@*@*@*@*@*@*@*@*@=@-@;@>@>@>@>@>@>@>@>@>@>@>@>@>@>@,@'@)@)@)@!@~@{@          ",
"      (.! ! ]@^@/@(@(@(@(@(@(@(@(@(@_@:@<@<@<@<@<@<@<@<@<@<@<@<@<@<@<@<@<@<@<@<@<@[@}@|@        ",
"      (.! 1@2@3@3@3@3@3@3@3@3@3@3@3@4@5@6@6@6@6@6@6@6@6@6@6@6@6@6@6@6@6@6@6@6@6@6@6@7@8@|@      ",
"      (.! ! 9@0@3@3@3@3@3@3@3@3@3@3@a@b@c@c@c@c@c@c@c@c@c@c@c@c@c@c@c@c@c@c@c@c@c@c@c@d@e@f@    ",
"      (.V.V.V.g@0@3@3@3@3@3@3@3@3@3@h@i@j@j@j@j@j@j@j@j@j@j@j@j@j@j@j@j@j@j@j@j@j@j@j@j@j@k@l@  ",
"      (.V.V.V.V.m@n@3@3@3@3@3@3@3@3@o@p@q@q@q@q@q@q@q@q@q@q@q@q@q@q@q@q@q@q@q@q@q@q@q@q@q@r@s@  ",
"      _.C.C.C.C.C.t@u@3@3@3@3@3@3@3@v@w@q@q@q@q@q@q@q@q@q@q@q@q@q@q@q@q@q@q@q@q@q@q@q@q@x@y@    ",
"      _.C.C.C.C.C.C.z@u@3@3@3@3@A@B@C@D@q@q@q@q@q@q@q@q@q@q@q@q@q@q@q@q@q@q@q@q@q@q@q@E@F@      ",
"      _.~ ~ ~ ~ ~ ~ ~ G@H@3@3@3@I@J@K@L@q@q@q@q@q@q@q@q@q@q@q@q@q@q@q@q@q@q@q@q@q@q@M@N@        ",
"      _.~ ~ ~ ~ ~ ~ ~ ~ G@O@3@3@P@~ Q@R@q@q@q@q@q@q@q@q@q@q@q@q@q@q@q@q@q@q@q@q@q@S@T@          ",
"      _.~ ~ ~ ~ ~ ~ ~ ~ ~ U@V@3@P@~ W@X@Y@Y@Y@Y@Y@Y@Y@Y@Y@Y@Y@Y@Y@Y@Y@Z@`@q@q@q@ #|@            ",
"      &.d.d.d.d.d.d.d.d.d.d..#+#P@d.d.d.d.d.d.d.d.d.d.d.d.d.d.d.d.d.d.@###q@q@$#%#              ",
"      &.d.d.d.d.d.d.d.d.d.d.d.&#*#d.d.d.d.d.d.d.d.d.d.d.d.d.d.d.d.d.d.@###q@=#-#b.              ",
"      &.y.y.y.y.y.y.y.y.y.y.y.y.;#y.y.y.y.y.y.y.y.y.y.y.y.y.y.y.y.y.y.@###>#,#4 b.              ",
"      '#(.(.(.(.(.(.(.(.(.(.(.(.(.(.(.(.(.(.(.(.(.(.(.(.(.(.(.(.(.(.(.)#!#~#(.,.                ",
"                                                                      {#                        "};
