/* XPM */
static const char * facebook_xpm[] = {
"16 16 245 2",
"  	c None",
". 	c #475577",
"+ 	c #435372",
"@ 	c #495777",
"# 	c #4A587A",
"$ 	c #4B5B7A",
"% 	c #485679",
"& 	c #4A5A81",
"* 	c #495C84",
"= 	c #415076",
"- 	c #4F5878",
"; 	c #5F657F",
"> 	c #676F86",
", 	c #646884",
"' 	c #4B5377",
") 	c #434F6E",
"! 	c #253662",
"~ 	c #30456D",
"{ 	c #33446E",
"] 	c #314470",
"^ 	c #334973",
"/ 	c #344C72",
"( 	c #324A70",
"_ 	c #2E446A",
": 	c #52607D",
"< 	c #B9BDCC",
"[ 	c #EBEDF3",
"} 	c #F6F9F7",
"| 	c #F6FAFF",
"1 	c #7985A5",
"2 	c #353F63",
"3 	c #414D68",
"4 	c #32446C",
"5 	c #374B70",
"6 	c #394C72",
"7 	c #3D507B",
"8 	c #3B5279",
"9 	c #3D517D",
"0 	c #3E527D",
"a 	c #425071",
"b 	c #BBC4D2",
"c 	c #FFFFFF",
"d 	c #FFFFFE",
"e 	c #F7F8FA",
"f 	c #F4F7F9",
"g 	c #798896",
"h 	c #34445B",
"i 	c #49526F",
"j 	c #36456E",
"k 	c #3A4C73",
"l 	c #405178",
"m 	c #435481",
"n 	c #41577D",
"o 	c #415585",
"p 	c #415481",
"q 	c #53617D",
"r 	c #E8EFF3",
"s 	c #FFFFFD",
"t 	c #E3E9E8",
"u 	c #848FA3",
"v 	c #717D9E",
"w 	c #495874",
"x 	c #415266",
"y 	c #4C5677",
"z 	c #384976",
"A 	c #445685",
"B 	c #435587",
"C 	c #465C8B",
"D 	c #465E95",
"E 	c #3D5389",
"F 	c #445478",
"G 	c #E1E7F4",
"H 	c #C1CCD8",
"I 	c #293C64",
"J 	c #17215C",
"K 	c #333F72",
"L 	c #415172",
"M 	c #4E5C7B",
"N 	c #3E517D",
"O 	c #425985",
"P 	c #475C89",
"Q 	c #475F90",
"R 	c #476391",
"S 	c #456086",
"T 	c #5F759D",
"U 	c #8793B4",
"V 	c #EAECF4",
"W 	c #FFFFF8",
"X 	c #D9DFE3",
"Y 	c #7E8EAD",
"Z 	c #7684A7",
"` 	c #4F5F88",
" .	c #46557D",
"..	c #4E5F82",
"+.	c #3E5A88",
"@.	c #48608F",
"#.	c #4C6295",
"$.	c #4C6895",
"%.	c #4F699B",
"&.	c #445B8C",
"*.	c #A2B2C2",
"=.	c #F0F6F4",
"-.	c #FCFAFB",
";.	c #FDFBFA",
">.	c #FAFDF3",
",.	c #F2F5F6",
"'.	c #F5F8FA",
").	c #6D7E98",
"!.	c #44537B",
"~.	c #44577E",
"{.	c #365486",
"].	c #466093",
"^.	c #4E659E",
"/.	c #4D6B9C",
"(.	c #526EA4",
"_.	c #48639C",
":.	c #9FB1CC",
"<.	c #E4EEF7",
"[.	c #FFFCFF",
"}.	c #FFFDFC",
"|.	c #F7FAF5",
"1.	c #E7ECFB",
"2.	c #D3DEEE",
"3.	c #5D7093",
"4.	c #3D4D78",
"5.	c #435883",
"6.	c #315086",
"7.	c #3A5790",
"8.	c #405C9A",
"9.	c #41639B",
"0.	c #4767A5",
"a.	c #4867A4",
"b.	c #506A9C",
"c.	c #65789C",
"d.	c #E5E6EF",
"e.	c #D1D5D9",
"f.	c #536891",
"g.	c #465B86",
"h.	c #384E80",
"i.	c #3E5181",
"j.	c #4A5D8D",
"k.	c #395893",
"l.	c #3F5C9C",
"m.	c #4463A6",
"n.	c #456BA7",
"o.	c #446AAB",
"p.	c #476CAA",
"q.	c #4464A8",
"r.	c #5470A9",
"s.	c #E5EBF6",
"t.	c #D0D5E3",
"u.	c #4666A5",
"v.	c #36528F",
"w.	c #3D5695",
"x.	c #41588D",
"y.	c #4A6090",
"z.	c #3A5B96",
"A.	c #43619E",
"B.	c #4666A7",
"C.	c #466CA7",
"D.	c #466BAC",
"E.	c #486EAB",
"F.	c #4A6AB2",
"G.	c #5674B3",
"H.	c #E5EEF8",
"I.	c #D1D9E9",
"J.	c #476AAD",
"K.	c #36589B",
"L.	c #3D5B9D",
"M.	c #405C8F",
"N.	c #516795",
"O.	c #4C6BA4",
"P.	c #5975AE",
"Q.	c #5977B2",
"R.	c #597CB1",
"S.	c #5C7EB7",
"T.	c #5E81BA",
"U.	c #5F7EBB",
"V.	c #6B86B9",
"W.	c #E6EDF5",
"X.	c #D2DAE9",
"Y.	c #5C7BB3",
"Z.	c #4E6EAB",
"`.	c #4E6DAA",
" +	c #496592",
".+	c #6A7FAC",
"++	c #7797CC",
"@+	c #849FD4",
"#+	c #849DD4",
"$+	c #86A7D4",
"%+	c #89A6D8",
"&+	c #87A8DC",
"*+	c #8CA9D8",
"=+	c #96ADD1",
"-+	c #EAF0F6",
";+	c #DCE4EF",
">+	c #8AA4CA",
",+	c #7D9CCB",
"'+	c #7B9BD1",
")+	c #647EA7",
"!+	c #7487AA",
"~+	c #88A7D5",
"{+	c #87A7DB",
"]+	c #8BA9DF",
"^+	c #90AEDF",
"/+	c #93AFE1",
"(+	c #93B2E8",
"_+	c #93AEE2",
":+	c #9FB2D6",
"<+	c #F0F4FB",
"[+	c #FFFFFB",
"}+	c #DFE8F0",
"|+	c #90ABD6",
"1+	c #7EA1DB",
"2+	c #88A9E0",
"3+	c #748BB5",
"4+	c #788DAB",
"5+	c #86A4D1",
"6+	c #88AADF",
"7+	c #8BACE1",
"8+	c #8FAEE1",
"9+	c #92B1E1",
"0+	c #95B5E4",
"a+	c #95B2E1",
"b+	c #A4B9DC",
"c+	c #EFF6FF",
"d+	c #E0EBF4",
"e+	c #90ADD9",
"f+	c #85A7E1",
"g+	c #86A3D5",
"h+	c #778CAE",
"i+	c #7B92BF",
"j+	c #7D98CB",
"k+	c #87A0D3",
"l+	c #8CA4D5",
"m+	c #8CA5D4",
"n+	c #8CA7D8",
"o+	c #8DA7DC",
"p+	c #92A7DA",
"q+	c #BBC7E9",
"r+	c #C7CEE3",
"s+	c #B3BFDE",
"t+	c #88A0D7",
"u+	c #7D96C9",
"v+	c #8094B7",
"  . + @ # $ % & * = - ; > , '   ",
") ! ~ { ] ^ / ( _ : < [ } | 1 2 ",
"3 4 5 6 7 8 9 0 a b c d e f g h ",
"i j k l m n o p q r s t u v w x ",
"y z p A B C D E F G c H I J K L ",
"M N O P Q R S T U V W X Y Z `  .",
"..+.@.#.$.%.&.*.=.-.;.>.,.'.).!.",
"~.{.].^./.(._.:.<.[.}.|.1.2.3.4.",
"5.6.7.8.9.0.a.b.c.d.c e.f.g.h.i.",
"j.k.l.m.n.o.p.q.r.s.d t.u.v.w.x.",
"y.z.A.B.C.D.E.F.G.H.s I.J.K.L.M.",
"N.O.P.Q.R.S.T.U.V.W.c X.Y.Z.`. +",
".+++@+#+$+%+&+*+=+-+c ;+>+,+'+)+",
"!+~+{+]+^+/+(+_+:+<+[+}+|+1+2+3+",
"4+5+6+7+8+9+0+a+b+c+c d+e+f+g+h+",
"  i+j+k+l+m+n+o+p+q+r+s+t+u+v+  "};
