/* XPM */
static const char *filter_xpm[] = {
/* columns rows colors const chars-per-pixel */
"16 16 48 1",
". c Black",
"3 c #E8E8E8",
"9 c #C3C3C3",
"= c #D2D2D2",
"f c #D1E5D1",
"0 c #ADADAD",
"g c #B9D8B9",
"% c #BCBCBC",
"h c #7FB97F",
"O c #596D83",
"4 c #C4C4C4",
"2 c #D3D3D3",
"e c #D2E6D2",
"* c #CCCCCC",
"  c None",
"7 c #F2F8F2",
"l c #C4DEC4",
"; c #B6B6B6",
"< c #E3E3E3",
"a c #AAD1AA",
"p c #BBDABB",
"z c #92C492",
"t c #F3F9F3",
"6 c #E7F1E7",
"8 c #FDFEFD",
"+ c #637A90",
"1 c #BFBFBF",
": c #DDDDDD",
"j c #D7E9D7",
"$ c #C7C7C7",
"# c #283F59",
"q c #B1B1B1",
"i c #EBF3EB",
"o c #627890",
"y c #D8EAD8",
"- c #D7D7D7",
"@ c #314E6C",
"X c #92A3B2",
"& c #C1C1C1",
"d c #DBEBDB",
", c #D0D0D0",
"r c #ECF4EC",
"s c #73B273",
"w c #C9C9C9",
"5 c #CDE3CD",
"k c #8CC08C",
"u c #EDF5ED",
"> c #BBBBBB",
/* pixels */
"      ..........",
"      .XooooooO.",
"      .+@@@@@@#.",
"      .$%&$*=-;.",
"      .*&$*=-:>.",
"      .,$*=-:<1.",
" ......2*=-:<34.",
" .5678.90q;>14w.",
"  .ert..........",
"   .yui5pas.    ",
"    .difgh.     ",
"     .djk.      ",
"      .5.       ",
"      .l.       ",
"      .z.       ",
"      ...       "
};
