/* XPM */
static const char *flag_xpm[] = {
/* columns rows colors const chars-per-pixel */
"16 16 51 1",
"7 c #C0BFBD",
". c Black",
"w c #D2C07B",
"f c #D2C07D",
"O c #F5E8B8",
"l c #7D5806",
"d c #D5D3CC",
"y c #CEBA73",
"8 c #E4E2DD",
"@ c #BAAA73",
"> c #B8A769",
"3 c #BDBDBB",
"s c #A29156",
"  c None",
"z c #D1940C",
"< c #EDEBE5",
"o c #F0E3B1",
"- c #FAF4DF",
"i c #C8C6C2",
"X c #BCAF80",
"$ c #F8EECC",
"g c #C4B169",
"= c #E2CF8B",
"t c #F1DE9A",
"j c #E4C37B",
"r c #BAB8B4",
"c c #E7CA8A",
"+ c #EFDEA6",
"0 c #C7C1A9",
", c #EAE9E1",
"x c #B8820A",
"5 c #F2E2A5",
"k c #A27208",
"u c #F5E9BB",
"p c #C3BEAA",
"q c #B4B2AE",
"% c #F8F0D2",
"2 c #E9E7DF",
"h c #D3C283",
"e c #BFB594",
"& c #F6EABF",
"; c #FBF7E8",
"a c #EFDA8E",
"# c #E5D8A7",
"* c #F4E4AE",
"9 c #A4A4A1",
"4 c #E0DDD5",
"6 c #CFBC79",
": c #F2E1A2",
"1 c #ACACAC",
"v c #8E6407",
/* pixels */
"      .....     ",
"     .XoO+@.    ",
"    .#$%$&*=.   ",
"   .X$-;-$O:>.  ",
"   .o,<123456.  ",
"   .O$7890q:w.  ",
"   .+&$%$erty.  ",
"   .@*OuOipas.  ",
"    .=:5:dfg.   ",
"     .>6whs.    ",
"      .jkl.     ",
"     .jzzxk.    ",
"      .ckl.     ",
"     .jzzxv.    ",
"      .zxv.     ",
"       .v.      "
};
