/* XPM */
static const char *google_play_xpm[] = {
/* columns rows colors chars-per-pixel */
"16 16 132 2",
"   c #DE1755",
".  c #D81D5D",
"X  c #D93E5D",
"o  c #E3374C",
"O  c #CC056E",
"+  c #C4007E",
"@  c #DC4058",
"#  c #E5424E",
"$  c #EC5A49",
"%  c #D34168",
"&  c #D4416D",
"*  c #C74079",
"=  c #D3437D",
"-  c #E64762",
";  c #F99A6C",
":  c #FF9F73",
">  c #FF9B78",
",  c #FFB16F",
"<  c #FEA775",
"1  c #FFAD76",
"2  c #FFAC7C",
"3  c #FEB175",
"4  c #FFBA77",
"5  c #FFBF76",
"6  c #FFBD78",
"7  c #FFCA74",
"8  c #FDCD74",
"9  c #FFCC74",
"0  c #FFCC75",
"q  c #FFD17B",
"w  c #207EB2",
"e  c #B73F94",
"r  c #A900AC",
"t  c #BB00A6",
"y  c #C20094",
"u  c #C8428B",
"i  c #2282AF",
"p  c #258BB5",
"a  c #2A8EB4",
"s  c #2D97B7",
"d  c #2D92B8",
"f  c #2C9AB9",
"g  c #3198B5",
"h  c #319BB8",
"j  c #33A2BA",
"k  c #34A5BB",
"l  c #39A5B9",
"z  c #33A8BD",
"x  c #38A9BB",
"c  c #39ADBD",
"v  c #38AEBD",
"b  c #3AB0BE",
"n  c #3CB2BE",
"m  c #3FB6BF",
"M  c #47B8AE",
"N  c #5EC9B2",
"B  c #70D5AA",
"V  c #7FD4AC",
"C  c #76DAB6",
"Z  c #3BB7C1",
"A  c #3EB8C0",
"S  c #40BBC1",
"D  c #40BCC0",
"F  c #41BEC2",
"G  c #7DBBCC",
"H  c #43C0C3",
"J  c #44C3C3",
"K  c #47C4C3",
"L  c #42C5C5",
"P  c #46C6C4",
"I  c #47C8C5",
"U  c #48C9C4",
"Y  c #49CCC5",
"T  c #4ACEC6",
"R  c #4ACEC7",
"E  c #4BD1C7",
"W  c #4FD1C7",
"Q  c #4AD3C9",
"!  c #4DD4C8",
"~  c #4ED7C9",
"^  c #42DDC9",
"/  c #50D9C9",
"(  c #50D9CA",
")  c #51DCCB",
"_  c #53DFCB",
"`  c #54DCCA",
"'  c #42E5CF",
"]  c #55E2CC",
"[  c #56E5CC",
"{  c #58E5CC",
"}  c #57E8CE",
"|  c #59EACE",
" . c #5CEDCF",
".. c #48EED1",
"X. c #50F6D3",
"o. c #5CF0D0",
"O. c #5DF3D0",
"+. c #57FFD5",
"@. c #5BFFD6",
"#. c #5BFFD7",
"$. c #61F6D1",
"%. c #62FBD3",
"&. c #63FFD3",
"*. c #64FDD3",
"=. c #65FFDE",
"-. c #96A6A3",
";. c #94ADAA",
":. c #8EB8B7",
">. c #8ABCBD",
",. c #90B2B0",
"<. c #84DBA9",
"1. c #83DEA8",
"2. c #8FDCAC",
"3. c #95E3A7",
"4. c #9FE8A6",
"5. c #A2E6AC",
"6. c #B0EFA4",
"7. c #B3EFAB",
"8. c #AFF1A5",
"9. c #B4FAAF",
"0. c #A0F3B0",
"q. c #D6CB93",
"w. c #E3CC8E",
"e. c #E6D38F",
"r. c #FFD280",
"t. c #C3F7A1",
"y. c #C3F9A7",
"u. c #CDFFAF",
"i. c #D3FFA2",
"p. c #8ABDC7",
"a. c #8BBFD3",
"s. c None",
/* pixels */
"i M s.s.s.s.s.s.s.s.s.s.s.s.s.s.",
"w d N B s.s.s.s.s.s.s.s.s.s.s.s.",
"a p g C 1.<.s.s.s.s.s.s.s.s.s.s.",
"s h f l V 0.3.5.s.s.s.s.s.s.s.s.",
"j k x z c 2.8.9.6.s.s.s.s.s.s.s.",
"c b n m A A 5.t.y.u.w.s.s.s.s.s.",
"A S F H P L U 7.i.e.> 2 1 s.s.s.",
"J P I Y Y ! Q ^ q.: < 3 4 r.9 s.",
"Y Y ! ~ / ` ' -.  ; 5 5 q 8 s.s.",
"/ _ _ ] { ..;.. @ # 3 9 8 s.s.s.",
"[ } |  .X.,.O % - o $ s.s.s.s.s.",
"O.O.$.@.:.+ = & X s.s.s.s.s.s.s.",
"%.&.#.>.y u * s.s.s.s.s.s.s.s.s.",
"%.#.p.t e s.s.s.s.s.s.s.s.s.s.s.",
"=.a.r s.s.s.s.s.s.s.s.s.s.s.s.s.",
"G s.s.s.s.s.s.s.s.s.s.s.s.s.s.s."
};
