/* XPM */
static const char * help_xpm[] = {
"16 16 130 2",
"  	c None",
". 	c #05124F",
"+ 	c #051766",
"@ 	c #051C7F",
"# 	c #051D7A",
"$ 	c #051D7F",
"% 	c #051F86",
"& 	c #072180",
"* 	c #06228C",
"= 	c #062597",
"- 	c #06269C",
"; 	c #072896",
"> 	c #06289F",
", 	c #072999",
"' 	c #062AA3",
") 	c #062AA6",
"! 	c #092B95",
"~ 	c #062BA7",
"{ 	c #0C2E95",
"] 	c #092EA0",
"^ 	c #092EA3",
"/ 	c #183371",
"( 	c #0A34B1",
"_ 	c #0D39AE",
": 	c #0C39B6",
"< 	c #0C3AB8",
"[ 	c #0F3CB1",
"} 	c #193D95",
"| 	c #0E3DBA",
"1 	c #1242BA",
"2 	c #1244BD",
"3 	c #1144C1",
"4 	c #1345C0",
"5 	c #1A45AD",
"6 	c #1346C1",
"7 	c #1A46B0",
"8 	c #1348C2",
"9 	c #1448C4",
"0 	c #1548C2",
"a 	c #1449C5",
"b 	c #1449C6",
"c 	c #154BC7",
"d 	c #154CC7",
"e 	c #154CC9",
"f 	c #164CC7",
"g 	c #1E4DB5",
"h 	c #174FCB",
"i 	c #194FC7",
"j 	c #1950C9",
"k 	c #1952C9",
"l 	c #1C53CA",
"m 	c #1B53CF",
"n 	c #1B54D0",
"o 	c #2254C4",
"p 	c #2654B9",
"q 	c #1C56D1",
"r 	c #2357C4",
"s 	c #2359CA",
"t 	c #2359CB",
"u 	c #2459C9",
"v 	c #1F5AD5",
"w 	c #3A5997",
"x 	c #3C5A99",
"y 	c #2F5CBD",
"z 	c #2460D9",
"A 	c #2960CB",
"B 	c #3166D0",
"C 	c #2A67DE",
"D 	c #3966C1",
"E 	c #2C6AE0",
"F 	c #4167C2",
"G 	c #2E6ADF",
"H 	c #3D69C2",
"I 	c #2E6BE1",
"J 	c #366BD4",
"K 	c #2F6DE2",
"L 	c #526BA2",
"M 	c #476BC3",
"N 	c #3170E4",
"O 	c #536DA4",
"P 	c #3371E5",
"Q 	c #5370A9",
"R 	c #5370AA",
"S 	c #5270AE",
"T 	c #4273D1",
"U 	c #4476D1",
"V 	c #5277C2",
"W 	c #487AD8",
"X 	c #537CCA",
"Y 	c #537CCB",
"Z 	c #3E7FEC",
"` 	c #547DCC",
" .	c #567FD1",
"..	c #587FCC",
"+.	c #5180D7",
"@.	c #5880D1",
"#.	c #5483D8",
"$.	c #5C82CD",
"%.	c #5B87D7",
"&.	c #5989DC",
"*.	c #5B8ADD",
"=.	c #618FDE",
"-.	c #5E95EA",
";.	c #5D96F0",
">.	c #799FDF",
",.	c #92B1E5",
"'.	c #99B8E7",
").	c #A6B6D9",
"!.	c #A6B9E1",
"~.	c #9FBDEA",
"{.	c #A6BCE6",
"].	c #A6C0E9",
"^.	c #A6C1EC",
"/.	c #C5D8F1",
"(.	c #CBDAF0",
"_.	c #CADBF1",
":.	c #CCDBF0",
"<.	c #D4E0F2",
"[.	c #D4E1F2",
"}.	c #D6E2F2",
"|.	c #DDE7F4",
"1.	c #DFE7F4",
"2.	c #EBF0F7",
"3.	c #F7F8FA",
"4.	c #F9F9FB",
"5.	c #FAFAFB",
"6.	c #F6FBFF",
"7.	c #FBFBFB",
"8.	c #FCFCFC",
"9.	c #FFFFFF",
"        {...7 - - 7 $.{.        ",
"      Y g y  .F M @.D p `       ",
"    H _ T +.&.*.*.&.#.U [ H     ",
"  X ) u =._.8.8.8.2./.W A ) X   ",
"!.> < s ~.7.7.3.4.7.7.~.t < > !.",
"V ~ 3 k |.5.,.o r :.7.[.k 3 ~ V ",
"5 ( b c 2 1 6 d a '.7.}.b b ( 5 ",
"= : e h h h c l ^.7.7.>.c e : = ",
"* : e h h h f <.7.7.].0 h e : * ",
"} ( b h h e J 7.7.%.4 e h b ( } ",
"S ' 3 h h e B 1.(.8 h h h 3 ' S ",
"  # | n v v m i j n v v q 3 &   ",
"  Q % e C K -.9.9.E N I z ! R   ",
"    w @ 9 P ;.9.6.Z Z G { x     ",
"      O + $ ; ] ^ , $ + O       ",
"          L / . . / L ).        "};
