/* XPM */
static const char *homepagetree_xpm[] = {
/* columns rows colors const chars-per-pixel */
"16 16 82 1",
"G c #6E7681",
"4 c #A79F9D",
"S c #8A8865",
"; c #C4A1A1",
"n c #F0F0F0",
"^ c #999A96",
"B c #4A76AE",
"X c #EF2929",
"6 c #DADADA",
"8 c #E9E9E9",
"j c #7E807B",
"h c #F1F1F1",
"A c #868883",
"V c #72757A",
": c #A38D8B",
"L c #B8BCC1",
"* c #B8B9B8",
"  c None",
"7 c #EAEAEA",
"k c #7F817C",
"@ c #848582",
"f c #757676",
"w c #A2A3A1",
"y c #E3E3E3",
"Y c #F2F2F2",
"H c #878984",
"I c #B9BDC1",
"o c #7B4C4A",
"l c #80827D",
"x c #7999C3",
"t c #E4E4E4",
"0 c #DCD0D0",
"C c #F3F3F3",
"F c #3465A4",
"R c #888A85",
"! c #979994",
"P c #BABBBC",
", c #BFBFBE",
"1 c #DDDDDD",
"/ c #FBFBFB",
"% c #9D7573",
"a c #77787A",
". c #A40000",
"N c #5F86B7",
"b c #F4F4F4",
"M c #75787B",
"v c #75787C",
"d c #757575",
"E c #A2A2A2",
"3 c #C9B5B5",
"p c #555753",
"< c #DEDEDD",
"# c #9B9B9A",
"2 c #D7D7D7",
"r c #E6E6E6",
"g c #F5F5F5",
"D c #717881",
"z c #76797C",
"s c #76797D",
"& c #8F908D",
"O c #885A58",
"5 c #A3A3A2",
"W c #A3A3A3",
"+ c #995D5B",
"Q c #656763",
"J c #88897E",
"T c #EEEEEE",
"c c #7798C2",
"- c #BABAB9",
"i c #E2E3E2",
"e c #D8D8D8",
"9 c #E7E7E7",
"u c #E7E4E4",
"> c #9FA09E",
"U c #A4A4A4",
"q c #B3B3B1",
"= c #C2C2C1",
"Z c #EFEFEF",
"m c #848681",
"~ c #989996",
"K c #B1B3B6",
"$ c #C08A8A",
/* pixels */
"       ..X      ",
"      .XX.      ",
"     .XoOX.     ",
"    .X+@#$X.    ",
"   .X%&*=-;X.   ",
"  .X:>,<<123X.  ",
" .X4567778890X. ",
".Xqwer999rttyuX.",
" Xipppp9asdsfgX ",
" phpjkl9zxdcvbp ",
" pnpmmm9MNdBVCp ",
" pZpAAS9DFdFGCp ",
" pZpHHJ9KLPIUYp ",
" pTpRRR9EWWWWYp ",
" pgQ!~^Yggggg/p ",
" pppppppppppppp "
};
