/* XPM */
static const char* hourglass_xpm[] = {
"46 46 746 2",
"  	c None",
". 	c #583628",
"+ 	c #5A392A",
"@ 	c #5C3B2D",
"# 	c #5D3D2D",
"$ 	c #5E3D2E",
"% 	c #5F3E2F",
"& 	c #5D3C2D",
"* 	c #5B3B2B",
"= 	c #59382A",
"- 	c #563426",
"; 	c #4F2D22",
"> 	c #513023",
", 	c #563527",
"' 	c #603F30",
") 	c #624232",
"! 	c #644434",
"~ 	c #654536",
"{ 	c #664737",
"] 	c #674737",
"^ 	c #664637",
"/ 	c #654535",
"( 	c #634334",
"_ 	c #614131",
": 	c #5C3B2C",
"< 	c #583729",
"[ 	c #543325",
"} 	c #4E2E21",
"| 	c #4F2E21",
"1 	c #533225",
"2 	c #604031",
"3 	c #694A3A",
"4 	c #6C4C3D",
"5 	c #6D4E3E",
"6 	c #6E4F3F",
"7 	c #6E5040",
"8 	c #6B4C3C",
"9 	c #684939",
"0 	c #664636",
"a 	c #624233",
"b 	c #5B3A2B",
"c 	c #4F2D21",
"d 	c #593829",
"e 	c #6A4A3B",
"f 	c #6F5141",
"g 	c #715343",
"h 	c #725545",
"i 	c #735747",
"j 	c #735646",
"k 	c #705242",
"l 	c #6C4D3D",
"m 	c #644435",
"n 	c #573627",
"o 	c #462C21",
"p 	c #4F3225",
"q 	c #523123",
"r 	c #583728",
"s 	c #755A4A",
"t 	c #775C4C",
"u 	c #785D4D",
"v 	c #785E4E",
"w 	c #765B4B",
"x 	c #745949",
"y 	c #604030",
"z 	c #553426",
"A 	c #4F2F22",
"B 	c #3E2D26",
"C 	c #4A3426",
"D 	c #60483A",
"E 	c #65483B",
"F 	c #624333",
"G 	c #715444",
"H 	c #745848",
"I 	c #795E4E",
"J 	c #7A6151",
"K 	c #7C6353",
"L 	c #7C6454",
"M 	c #7B6252",
"N 	c #7A6050",
"O 	c #684839",
"P 	c #634333",
"Q 	c #5E4031",
"R 	c #593F32",
"S 	c #4D3B31",
"T 	c #322823",
"U 	c #483225",
"V 	c #604C3F",
"W 	c #786459",
"X 	c #877267",
"Y 	c #8D766A",
"Z 	c #90786C",
"` 	c #886F62",
" .	c #7F6657",
"..	c #795D4D",
"+.	c #7B6151",
"@.	c #7D6555",
"#.	c #7E6656",
"$.	c #7E6757",
"%.	c #775D4D",
"&.	c #715545",
"*.	c #705445",
"=.	c #705547",
"-.	c #6D5447",
";.	c #614C41",
">.	c #534137",
",.	c #46372E",
"'.	c #312622",
").	c #352820",
"!.	c #5F4B3F",
"~.	c #8F7D73",
"{.	c #A6958D",
"].	c #BDADA6",
"^.	c #C3B4AD",
"/.	c #B9A9A1",
"(.	c #AB998F",
"_.	c #A28F83",
":.	c #9A8678",
"<.	c #927D6F",
"[.	c #8B7567",
"}.	c #856E5F",
"|.	c #765D4C",
"1.	c #725948",
"2.	c #705645",
"3.	c #705646",
"4.	c #6B5142",
"5.	c #654C3C",
"6.	c #695042",
"7.	c #6F564A",
"8.	c #6B5549",
"9.	c #5F4B40",
"0.	c #41332B",
"a.	c #61534E",
"b.	c #50433C",
"c.	c #7D6D65",
"d.	c #AF9D94",
"e.	c #A08D82",
"f.	c #917D70",
"g.	c #826C5E",
"h.	c #745C4C",
"i.	c #654C3A",
"j.	c #563B28",
"k.	c #4F331F",
"l.	c #523623",
"m.	c #583D2B",
"n.	c #5E4333",
"o.	c #634A3A",
"p.	c #695448",
"q.	c #4B3D35",
"r.	c #40332F",
"s.	c #645043",
"t.	c #806D64",
"u.	c #4B3628",
"v.	c #4F4643",
"w.	c #62554F",
"x.	c #776A65",
"y.	c #887C77",
"z.	c #91827B",
"A.	c #8D7C73",
"B.	c #867368",
"C.	c #7E695B",
"D.	c #4E331F",
"E.	c #4C311F",
"F.	c #4C3222",
"G.	c #4E3728",
"H.	c #4E392E",
"I.	c #4E3D33",
"J.	c #4F4037",
"K.	c #50433E",
"L.	c #5E5A5A",
"M.	c #5F4C40",
"N.	c #715B4B",
"O.	c #9596A6",
"P.	c #CED1E3",
"Q.	c #C0BDC4",
"R.	c #AEA6A6",
"S.	c #A59893",
"T.	c #94847B",
"U.	c #806D61",
"V.	c #6F5D50",
"W.	c #614C3F",
"X.	c #523D31",
"Y.	c #4D372B",
"Z.	c #543E31",
"`.	c #5E493D",
" +	c #6E5A4F",
".+	c #86766F",
"++	c #A29794",
"@+	c #B7B0B2",
"#+	c #CAC9D1",
"$+	c #CCCFE2",
"%+	c #AEB3C4",
"&+	c #715C4B",
"*+	c #806D65",
"=+	c #888C99",
"-+	c #CDD2E3",
";+	c #DDDFEE",
">+	c #E1E3EF",
",+	c #E1E4EF",
"'+	c #E2E4EF",
")+	c #E8E9F3",
"!+	c #EDEEF4",
"~+	c #EFF0F4",
"{+	c #ECEDF3",
"]+	c #E6E8F2",
"^+	c #E0E2EE",
"/+	c #D8DBE9",
"(+	c #D2D5E8",
"_+	c #D3D7EA",
":+	c #DDE0EF",
"<+	c #DCDFEE",
"[+	c #E1E3F0",
"}+	c #C9CDE0",
"|+	c #AAADC0",
"1+	c #7E7E8D",
"2+	c #CACEE1",
"3+	c #DCDFED",
"4+	c #E0E2EF",
"5+	c #E2E5F0",
"6+	c #E8EAF3",
"7+	c #EDEFF4",
"8+	c #EBEDF3",
"9+	c #E5E7F2",
"0+	c #DFE1ED",
"a+	c #D7DAE9",
"b+	c #D1D5E8",
"c+	c #D5D9EB",
"d+	c #DEE1EE",
"e+	c #C6CADE",
"f+	c #A0A5B7",
"g+	c #725C4B",
"h+	c #747481",
"i+	c #B9BCCF",
"j+	c #D9DBEA",
"k+	c #DFE1EF",
"l+	c #E3E5F0",
"m+	c #E2E4EE",
"n+	c #E6E8F3",
"o+	c #EBEDF4",
"p+	c #ECEEF4",
"q+	c #E2DFE1",
"r+	c #DECDBB",
"s+	c #DCC19E",
"t+	c #DEB988",
"u+	c #E7C798",
"v+	c #ECCC9D",
"w+	c #EDD2A9",
"x+	c #E3C49B",
"y+	c #C1C1CC",
"z+	c #705A4A",
"A+	c #818392",
"B+	c #CACFE2",
"C+	c #DDE0EE",
"D+	c #E3E4F0",
"E+	c #E5E6F1",
"F+	c #E8E7ED",
"G+	c #DEC7A8",
"H+	c #D3A667",
"I+	c #CF9540",
"J+	c #D59A44",
"K+	c #DBA14A",
"L+	c #E3AB55",
"M+	c #EDC486",
"N+	c #EFC98C",
"O+	c #EFC482",
"P+	c #E9B058",
"Q+	c #AEA8A6",
"R+	c #725B4B",
"S+	c #806C63",
"T+	c #9192A3",
"U+	c #D0D4E7",
"V+	c #E6E9F1",
"W+	c #E5D2BA",
"X+	c #D39D4F",
"Y+	c #BE8231",
"Z+	c #C58A37",
"`+	c #CE933E",
" @	c #D69C45",
".@	c #E3B268",
"+@	c #ECC587",
"@@	c #EEC380",
"#@	c #E7B05C",
"$@	c #BDA58B",
"%@	c #9A9DB0",
"&@	c #C6C9DA",
"*@	c #E8D0AE",
"=@	c #EBBE7A",
"-@	c #C68A38",
";@	c #BC802F",
">@	c #C08432",
",@	c #CB903B",
"'@	c #D69F4E",
")@	c #E5BB78",
"!@	c #E7B76D",
"~@	c #D0AA74",
"{@	c #B5A69A",
"]@	c #715B4A",
"^@	c #806C64",
"/@	c #BC9F79",
"(@	c #E1BB81",
"_@	c #D3A35E",
":@	c #BE863C",
"<@	c #BF8A44",
"[@	c #C4914C",
"}@	c #CC9D5D",
"|@	c #CBA26A",
"1@	c #C19D6F",
"2@	c #AD9C8F",
"3@	c #715A4B",
"4@	c #8F8B95",
"5@	c #AC895B",
"6@	c #BF822F",
"7@	c #BF8333",
"8@	c #B39A81",
"9@	c #715A4A",
"0@	c #AD8C63",
"a@	c #C58630",
"b@	c #C58732",
"c@	c #B8A89C",
"d@	c #99959C",
"e@	c #C48530",
"f@	c #C9A06D",
"g@	c #715B4C",
"h@	c #8D919E",
"i@	c #C48D45",
"j@	c #D0BAA3",
"k@	c #705B4A",
"l@	c #806D63",
"m@	c #AEB2C4",
"n@	c #C49458",
"o@	c #CDBBAD",
"p@	c #C7CAD3",
"q@	c #8E8F9E",
"r@	c #BBBDD0",
"s@	c #CED2E7",
"t@	c #C49862",
"u@	c #CBBCB3",
"v@	c #DCDFEC",
"w@	c #CDCED7",
"x@	c #725C4C",
"y@	c #A3A8B9",
"z@	c #C7CAE0",
"A@	c #D9DCEC",
"B@	c #C39C6C",
"C@	c #CABEB9",
"D@	c #D3D6EA",
"E@	c #DCDEE8",
"F@	c #BDC0CC",
"G@	c #8C8E9C",
"H@	c #B4B8CB",
"I@	c #CCCFE3",
"J@	c #DBDEED",
"K@	c #D6D9EB",
"L@	c #D0D3E8",
"M@	c #C4A075",
"N@	c #CCC1BF",
"O@	c #CFD3E8",
"P@	c #E3E5F1",
"Q@	c #DDE0EB",
"R@	c #BDC0CF",
"S@	c #8A8D9C",
"T@	c #C1C5D9",
"U@	c #DBDEEC",
"V@	c #D4D7E9",
"W@	c #D2D6E9",
"X@	c #C5A47F",
"Y@	c #CBC3C5",
"Z@	c #D9DCED",
"`@	c #D3D7E9",
" #	c #C2C6D8",
".#	c #838191",
"+#	c #BBBFD1",
"@#	c #D5D8EA",
"##	c #D9DCEA",
"$#	c #DADDEA",
"%#	c #D6D5E2",
"&#	c #C49E6E",
"*#	c #CAB5A1",
"=#	c #D0D4E9",
"-#	c #E0E2F0",
";#	c #D3D6E8",
">#	c #C6C9DB",
",#	c #A6AABA",
"'#	c #D4D7EA",
")#	c #DDE0EC",
"!#	c #DFE1EB",
"~#	c #D4C6B6",
"{#	c #C99A55",
"]#	c #C5985D",
"^#	c #CEC6C8",
"/#	c #D8DBEC",
"(#	c #D3D6E9",
"_#	c #B9BDD0",
":#	c #705B4B",
"<#	c #7F808C",
"[#	c #CDD1E5",
"}#	c #DEE0EE",
"|#	c #E4E6F0",
"1#	c #E8E9F2",
"2#	c #E3E4EF",
"3#	c #E3DEDE",
"4#	c #E0C8A6",
"5#	c #DCB16B",
"6#	c #CF9842",
"7#	c #C48A3A",
"8#	c #C69B64",
"9#	c #CCB8A7",
"0#	c #D0CFDD",
"a#	c #CFD2E3",
"b#	c #9093A4",
"c#	c #E1E1E6",
"d#	c #E6E0DB",
"e#	c #E8D9C6",
"f#	c #E4C69A",
"g#	c #E7BE7E",
"h#	c #E6B666",
"i#	c #E3AD53",
"j#	c #D89F49",
"k#	c #CE933F",
"l#	c #C58A38",
"m#	c #C28F4B",
"n#	c #C59D6B",
"o#	c #CAB095",
"p#	c #DCD3CB",
"q#	c #E0DBDE",
"r#	c #E7E8EF",
"s#	c #D5D8E8",
"t#	c #A8AAB9",
"u#	c #A39180",
"v#	c #DFC29C",
"w#	c #EACEA3",
"x#	c #EDCE9E",
"y#	c #EBC487",
"z#	c #E8B360",
"A#	c #E8B057",
"B#	c #E9B256",
"C#	c #E7AF55",
"D#	c #E3A951",
"E#	c #DBA14B",
"F#	c #C38733",
"G#	c #BE8331",
"H#	c #C08A42",
"I#	c #D2AE7F",
"J#	c #D5B58C",
"K#	c #DEC7A6",
"L#	c #CDAE85",
"M#	c #AC9E93",
"N#	c #876E56",
"O#	c #E6BD7E",
"P#	c #EFC788",
"Q#	c #ECBC71",
"R#	c #EAB158",
"S#	c #EAB157",
"T#	c #E9B157",
"U#	c #E9B057",
"V#	c #E8AF56",
"W#	c #E4AA53",
"X#	c #D79D46",
"Y#	c #C88D38",
"Z#	c #BF8430",
"`#	c #BE822F",
" $	c #CEA265",
".$	c #D0A66B",
"+$	c #D9B484",
"@$	c #C59A61",
"#$	c #A08B77",
"$$	c #5A3F30",
"%$	c #967258",
"&$	c #C4A88E",
"*$	c #DDC09A",
"=$	c #E7C28A",
"-$	c #EABA6D",
";$	c #E9B766",
">$	c #EAB45F",
",$	c #E9B35C",
"'$	c #EAB159",
")$	c #E7B058",
"!$	c #E0A853",
"~$	c #D5A050",
"{$	c #CF9A51",
"]$	c #C89855",
"^$	c #CEAE83",
"/$	c #C4A988",
"($	c #C1AA95",
"_$	c #866243",
":$	c #816B5B",
"<$	c #715C4A",
"[$	c #56463E",
"}$	c #724627",
"|$	c #A48066",
"1$	c #B6926E",
"2$	c #BF945E",
"3$	c #C69347",
"4$	c #CE9D51",
"5$	c #D3A55B",
"6$	c #D4A85F",
"7$	c #D6A962",
"8$	c #D6A960",
"9$	c #D3A55C",
"0$	c #CA9B52",
"a$	c #BB8941",
"b$	c #A57634",
"c$	c #B08E66",
"d$	c #A68766",
"e$	c #A18265",
"f$	c #7C5839",
"g$	c #7C695F",
"h$	c #5F4B46",
"i$	c #5A3B29",
"j$	c #7C4824",
"k$	c #945E2B",
"l$	c #AB7533",
"m$	c #B68137",
"n$	c #B88438",
"o$	c #B88539",
"p$	c #B9853A",
"q$	c #BA853A",
"r$	c #BA863A",
"s$	c #B27E34",
"t$	c #A7732C",
"u$	c #996727",
"v$	c #AA875F",
"w$	c #9C7954",
"x$	c #7A5029",
"y$	c #795F4D",
"z$	c #58392D",
"A$	c #7E6A61",
"B$	c #543429",
"C$	c #604C48",
"D$	c #633F28",
"E$	c #885227",
"F$	c #A36E2E",
"G$	c #B27D34",
"H$	c #B58136",
"I$	c #B68136",
"J$	c #B68237",
"K$	c #B37F34",
"L$	c #AC792F",
"M$	c #A16E29",
"N$	c #916021",
"O$	c #82521C",
"P$	c #784A1E",
"Q$	c #7E614D",
"R$	c #60463A",
"S$	c #503023",
"T$	c #4A2D1F",
"U$	c #6F5747",
"V$	c #4D2E22",
"W$	c #7D6960",
"X$	c #50382A",
"Y$	c #583D30",
"Z$	c #5E4135",
"`$	c #6C4E3F",
" %	c #85624F",
".%	c #987255",
"+%	c #A57D53",
"@%	c #AB8450",
"#%	c #AE824C",
"$%	c #AC8148",
"%%	c #AD8147",
"&%	c #AC8046",
"*%	c #A97F48",
"=%	c #A47B48",
"-%	c #9D774C",
";%	c #93704E",
">%	c #8B6A4E",
",%	c #7E5E4B",
"'%	c #644737",
")%	c #55392D",
"!%	c #48352A",
"~%	c #4A2E20",
"{%	c #695142",
"]%	c #492E21",
"^%	c #4E2F22",
"/%	c #674D42",
"(%	c #4D3325",
"_%	c #543B2E",
":%	c #5B4538",
"<%	c #78655A",
"[%	c #8A766B",
"}%	c #947F74",
"|%	c #8F796F",
"1%	c #836C5F",
"2%	c #7E6658",
"3%	c #7C6456",
"4%	c #7B6251",
"5%	c #745B4B",
"6%	c #705746",
"7%	c #6E5344",
"8%	c #6A4F42",
"9%	c #6B5042",
"0%	c #6E5447",
"a%	c #644F43",
"b%	c #524137",
"c%	c #44362D",
"d%	c #503225",
"e%	c #583E32",
"f%	c #5C4031",
"g%	c #422D23",
"h%	c #56392C",
"i%	c #533427",
"j%	c #57392A",
"k%	c #664E42",
"l%	c #7A665C",
"m%	c #99877E",
"n%	c #B8A9A1",
"o%	c #B6A59D",
"p%	c #A29085",
"q%	c #8E7A6D",
"r%	c #7D6657",
"s%	c #5B402D",
"t%	c #513521",
"u%	c #593F2D",
"v%	c #614738",
"w%	c #70584C",
"x%	c #655045",
"y%	c #604D43",
"z%	c #5D4337",
"A%	c #553527",
"B%	c #523326",
"C%	c #4F362B",
"D%	c #352A25",
"E%	c #493325",
"F%	c #735D51",
"G%	c #745B4F",
"H%	c #6F5448",
"I%	c #6B5043",
"J%	c #6D5245",
"K%	c #836C61",
"L%	c #968379",
"M%	c #9D8A81",
"N%	c #958278",
"O%	c #897569",
"P%	c #7B6557",
"Q%	c #6C5344",
"R%	c #5D4231",
"S%	c #5C4231",
"T%	c #5F4636",
"U%	c #664E3F",
"V%	c #6F574B",
"W%	c #6E5548",
"X%	c #64483A",
"Y%	c #624638",
"Z%	c #62473A",
"`%	c #60483C",
" &	c #564339",
".&	c #433A35",
"+&	c #FFFFFF",
"@&	c #E7E7E7",
"#&	c #443228",
"$&	c #B5A49C",
"%&	c #B19E96",
"&&	c #A28E84",
"*&	c #957E72",
"=&	c #8D776A",
"-&	c #897264",
";&	c #856E60",
">&	c #836C5D",
",&	c #826A5B",
"'&	c #7D6655",
")&	c #775F4E",
"!&	c #745A4A",
"~&	c #6D5343",
"{&	c #6D5443",
"]&	c #6F5647",
"^&	c #705749",
"/&	c #6F574A",
"(&	c #635D5B",
"_&	c #E9E9E9",
":&	c #F5F5F5",
"<&	c #DDDFDF",
"[&	c #A9AAAB",
"}&	c #564B47",
"|&	c #6C5A51",
"1&	c #593E2C",
"2&	c #604636",
"3&	c #674E3F",
"4&	c #6E5649",
"5&	c #5E4A40",
"6&	c #473A34",
"7&	c #5F5A5A",
"8&	c #C2C4C6",
"9&	c #DCDFE1",
"0&	c #FDFDFD",
"a&	c #E3E3E4",
"b&	c #CACBCE",
"c&	c #B3B5B7",
"d&	c #909195",
"e&	c #676362",
"f&	c #736967",
"g&	c #918481",
"h&	c #AEA09B",
"i&	c #BCACA5",
"j&	c #5E4435",
"k&	c #584439",
"l&	c #574740",
"m&	c #564B48",
"n&	c #6B696A",
"o&	c #97999E",
"p&	c #B4B6B7",
"q&	c #CBCDCE",
"r&	c #FDFEFE",
"s&	c #F5F5F8",
"t&	c #E3E5E6",
"u&	c #CECED0",
"v&	c #B9BBBE",
"w&	c #A3A5A5",
"x&	c #919193",
"y&	c #848487",
"z&	c #747476",
"A&	c #6F6A6C",
"B&	c #6B6665",
"C&	c #665F5D",
"D&	c #605754",
"E&	c #5A4F4A",
"F&	c #52463F",
"G&	c #4B3F39",
"H&	c #4C403A",
"I&	c #4F4540",
"J&	c #534A47",
"K&	c #59524F",
"L&	c #625E5F",
"M&	c #78787A",
"N&	c #88898C",
"O&	c #A3A7A8",
"P&	c #BCBDBE",
"Q&	c #CECECF",
"R&	c #E0E2E2",
"S&	c #F7F7F7",
"T&	c #ECECEC",
"U&	c #DDE0E1",
"V&	c #D3D3D4",
"W&	c #C4C6C7",
"X&	c #BCBEC4",
"Y&	c #B9B9BB",
"Z&	c #B4B6BA",
"`&	c #B1B2B2",
" *	c #ADAEAE",
".*	c #ABADAD",
"+*	c #AFB2B6",
"@*	c #B3B6BB",
"#*	c #BABBBD",
"$*	c #B8BCC3",
"%*	c #C6C6C6",
"&*	c #D2D3D4",
"**	c #DDDDE0",
"=*	c #EBEBEB",
"                                    . + @ # $ % % $ & * = -                                 ",
"                          ; > , + & ' ) ! ~ { ] ] ^ / ( _ % : < [ } |                       ",
"                      | | 1 < & 2 ! ] 3 4 5 6 7 7 6 5 8 9 0 a % b , > | c                   ",
"                    } | 1 d $ ) ^ e 5 f g h i i i j h k 7 l 9 m 2 : n > | o                 ",
"                    p q r # ) ] 8 7 g i s t u v v u w x h k 5 3 / y b z A B                 ",
"                    C D E F ~ e 6 G H t I J K L L M N u s j k 5 O P Q R S T                 ",
"                    U V W X Y Z `  ...v +.@.#.$.$.#.K N %.i &.*.=.-.;.>.,.'.                ",
"                    ).!.W ~.{.].^./.(._.:.<.[.}.@.|.1.2.3.4.5.6.7.8.9.>.0.                  ",
"                      a.b.c.{.].^.].d.e.f.g.h.i.j.k.k.l.m.n.o.6.7.p.q.r.s.                  ",
"                      t.u.  v.w.x.y.z.A.B.C.h.i.j.D.E.F.G.H.I.J.K.L.  M.N.                  ",
"                      t.u.  O.P.Q.R.S.T.U.V.W.X.Y.Z.`. +.+++@+#+$+%+  M.&+                  ",
"                      *+u.  =+-+;+>+,+'+)+!+~+{+]+^+/+(+_+:+<+[+}+|+  M.&+                  ",
"                      t.u.  1+2+3+4+5+'+6+7+~+8+9+0+a+b+c+:+<+d+e+f+  M.g+                  ",
"                      t.u.  h+i+j+k+l+m+n+o+p+6+q+r+s+t+u+v+w+x+y+    M.z+                  ",
"                      t.u.    A+B+C+D+E+9+F+G+H+I+J+K+L+M+N+O+P+Q+    M.R+                  ",
"                      S+u.      T+U+4+V+W+X+Y+Y+Z+`+ @.@+@@@#@$@      M.N.                  ",
"                      t.u.        %@&@*@=@-@;@;@>@,@'@)@!@~@{@        M.]@                  ",
"                      ^@u.            /@(@_@:@<@[@}@|@1@2@            M.3@                  ",
"                      *+u.              4@5@6@6@6@7@8@                M.9@                  ",
"                      t.u.                  0@a@b@c@                  M.z+                  ",
"                      t.u.                  d@e@f@                    M.g@                  ",
"                      *+u.                  h@i@j@                    M.k@                  ",
"                      l@u.                  m@n@o@p@                  M.g@                  ",
"                      ^@u.              q@r@s@t@u@v@w@                M.x@                  ",
"                      l@u.            y@z@A@s@B@C@D@D+E@F@            M.g@                  ",
"                      l@u.        G@H@I@J@K@L@M@N@O@K@P@Q@R@          M.&+                  ",
"                      t.u.      S@T@b+J@U@V@W@X@Y@O@O@Z@4+`@ #        M.&+                  ",
"                      t.u.    .#+#@#:+d+##$#%#&#*#O@O@=#;+-#;#>#      M.3@                  ",
"                      t.u.    ,#'#4+>+)#^+!#~#{#]#^#O@O@/#4+[+(#_#    M.:#                  ",
"                      t.u.  <#[#}#|#1#2#3#4#5#6#7#8#9#0#_+k+P@d+a#    M.R+                  ",
"                      t.u.  b#W@c#d#e#f#g#h#i#j#k#l#m#n#o#p#q#r#s#t#  M.g@                  ",
"                      t.u.  u#v#w#x#y#z#A#B#C#D#E#`+F#G#H#I#J#K#L#M#  M.&+                  ",
"                      t.u.  N#O#P#P#Q#R#S#T#U#V#W#X#Y#Z#`# $.$+$@$#$  M.N.                  ",
"                      ^@u.  $$%$&$*$=$-$;$>$,$'$)$!$~${$]$^$/$($_$:$  M.<$                  ",
"                      t.u.  [$}$|$1$2$3$4$5$6$7$8$9$0$a$b$c$d$e$f$g$  M.N.                  ",
"                      t.u.  h$i$j$k$l$m$n$o$p$q$r$n$s$t$u$v$w$x$y$z$  M.N.                  ",
"                      A$u.p B$C$D$E$F$G$H$I$J$J$H$K$L$M$N$O$P$Q$R$S$T$M.U$                  ",
"                    V$W$u.X$Y$Z$`$ %.%+%@%#%$%%%&%*%=%-%;%>%,%'%)%!%~%M.{%]%                ",
"                    ^%/%(%_%:%<%[%}%|%1%2%3%L 4%v 5%6%7%8%9%0%a%b%c%d%e%f%g%                ",
"                    G.h%i%j%k%l%m%n%^.o%p%q%r%6%s%t%l.u%v%6.w%x%y%z%A%B%C%D%                ",
"                    E%V F%G%H%I%J%K%L%M%N%O%P%Q%R%S%T%U%-.V%W%X%Y%Z%`% &,..&                ",
"                +&@&#&V W ~.{.$&%&&&*&=&-&;&>&,&'&)&!&3.~&{&]&^&/&8.9.>.,.(&_&+&            ",
"                :&<&[&}&|&~.{.].^.].d.e.f.g.h.i.j.k.k.k.l.1&2&3&4&8.5&6&7&8&9&:&            ",
"                0&a&b&c&d&e&f&g&h&i&d.e.f.g.h.i.j.k.k.k.l.1&j&k&l&m&n&o&p&q&a&r&            ",
"                    s&t&u&v&w&x&y&z&A&B&C&D&E&F&G&H&I&J&K&L&M&N&x&O&P&Q&R&S&                ",
"                            S&T&U&V&W&X&Y&Z&`& *.*+*@*#*$*%*&***=*:&                        "};
