/* XPM */
static const char * hourglass_xpm[] = {
"12 16 63 1",
" 	c None",
".	c #774B06",
"+	c #7C4F06",
"@	c #7C4F07",
"#	c #3E2703",
"$	c #537DBB",
"%	c #76A5E4",
"&	c #84B4F6",
"*	c #7DADEF",
"=	c #5E88C1",
"-	c #1E3351",
";	c #8BB9FD",
">	c #8EBBFC",
",	c #5C85BF",
"'	c #67A0F0",
")	c #6D9DE0",
"!	c #789DCE",
"~	c #98B8E6",
"{	c #91B9F5",
"]	c #93AED5",
"^	c #334D71",
"/	c #7E8FA0",
"(	c #BBA782",
"_	c #A69F8F",
":	c #2F3F55",
"<	c #929EA9",
"[	c #29415E",
"}	c #96AFD2",
"|	c #6087C2",
"1	c #70A6F0",
"2	c #8DBAFC",
"3	c #A2ACB9",
"4	c #8FBAF7",
"5	c #75A1E0",
"6	c #93B5E4",
"7	c #9FADBD",
"8	c #B39A6F",
"9	c #A7A194",
"0	c #91AEDA",
"a	c #6992C9",
"b	c #A9936E",
"c	c #A98E61",
"d	c #9F855B",
"e	c #8E744E",
"f	c #755E3E",
"g	c #5E6E87",
"h	c #6B778C",
"i	c #7C6747",
"j	c #745D3C",
"k	c #654F32",
"l	c #675D53",
"m	c #283851",
"n	c #8A5608",
"o	c #865408",
"p	c #855308",
"q	c #7A5319",
"r	c #79551D",
"s	c #76531A",
"t	c #724A0C",
"u	c #805007",
"v	c #281903",
"w	c #251703",
"x	c #0D0901",
"            ",
" .+++@++++# ",
"   $%&*=-   ",
"   ;>>>>,   ",
"  '>>>>>)   ",
"   !~>{]^   ",
"    /(_:    ",
"     <[     ",
"     }|     ",
"   12345    ",
"   67890a   ",
"   bcdefg   ",
"   hijklm   ",
" nopqrstuo  ",
" vwwwwwwwwx ",
"            "};
