/* XPM */
static const char *issues_xpm[] = {
/* columns rows colors const chars-per-pixel */
"16 16 105 2",
".  c Black",
"|  c #D06B53",
"K  c #CAC7C5",
"R  c #3C3C3B",
"-  c #E8E5E1",
"y  c #D76348",
"@. c #C8C7C3",
"#. c #AD7868",
"J  c #F0EDEB",
"j  c #E6E2E1",
"n  c #D0CFCB",
"r  c #51504E",
"*. c #7E7D77",
"S  c #D8D7D3",
"G  c #DDDBD8",
"N  c #E2DFDB",
"P  c #E3BAAE",
"=  c #F0D2C7",
"o. c #DCBCB1",
")  c #454242",
"=. c #595552",
".. c #912D16",
"9  c #E4512F",
"   c None",
"Q  c #EE977F",
"~  c #D69383",
"D  c #75736E",
"m  c #A68E85",
"6  c #C0BEB7",
"M  c #F4E9E3",
"k  c #DEA191",
"T  c #B6B3AF",
"C  c #D4D1CF",
"}  c #F4E3DD",
"5  c #B4B3AD",
"x  c #C4624B",
"I  c #9B5B4C",
"7  c #E1E0DA",
"_  c #A8351B",
"^  c #D36E56",
" . c #D44929",
"i  c #645551",
"H  c #CBCAC6",
"w  c #010000",
"'  c #E96C4A",
"p  c #1F1E1E",
"V  c #F3F0EA",
"&. c #7E7C75",
"8  c #E8C9BF",
"]  c #EEA895",
"E  c #E38166",
"z  c #3B3938",
"F  c #E7E2DE",
"q  c #6F2312",
"4  c #C9BBB4",
"t  c #F1A998",
"X  c #0C0C0C",
"0  c #DF4926",
"X. c #CA5535",
"L  c #EAE6E3",
"1  c #E8B1A5",
"%. c #84817D",
"v  c #E1B3A6",
"u  c #943019",
"Z  c #B1AEA8",
"+. c #D4D3CF",
"@  c #F2F1EB",
"+  c #F2F1ED",
"a  c #903F2D",
">  c #EDEAE6",
"[  c #F2EEEB",
"%  c #646361",
"*  c #E8A291",
"d  c #E86141",
"$. c #080605",
"<  c #A83419",
"3  c #D67D69",
"{  c #F5F2EE",
"W  c #E97454",
"2  c #F0AA97",
"o  c #767371",
",  c #E38C74",
";  c #E4E3DF",
"&  c #0B0A0A",
"A  c #F3F2EE",
"g  c #644E47",
"h  c #2E2C2B",
"l  c #BA4429",
"Y  c #D9B9B0",
"b  c #65615C",
"c  c #ED917C",
"!  c #C87561",
"O. c #DDDCD6",
"e  c #1D1D1C",
":  c #ECEBE7",
"$  c #BAB7B5",
"U  c #D39382",
"s  c #EA7B61",
"#  c #E7E4DE",
"O  c #D8D5D1",
"`  c #DF5130",
"B  c #86837D",
"(  c #935D4E",
"f  c #CC4B2D",
"/  c #CC4829",
/* pixels */
"  . .   . . . . . . X   . .     ",
".     . o O + @ # $ % &     .   ",
".   . * = - ; - : > , < .   .   ",
"  . 1 2 3 4 5 6 7 8 9 0 q w     ",
"e r t y u i p . r a s d f g h   ",
". j k l z .       . x c v b .   ",
". + n m z           z M N B .   ",
". V C Z .           . A S D .   ",
". F G H z           z J K D .   ",
". $ L P I .       . U Y T R .   ",
"& r E W Q ! . . . ~ ^ / ( ) X   ",
"  . _ ` ' ] [ { } |  ...... .   ",
".   . q X.o.O.+.@.#...... . .   ",
".   $.. r %.&.*.o =.. . .   .   ",
"  . .     . . . . .     . .     ",
"                                "
};
