/* XPM */
static const char * led_off_xpm[] = {
"16 16 53 1",
" 	c None",
".	c #A4A5A4",
"+	c #5A5D5A",
"@	c #292829",
"#	c #080C08",
"$	c #292C29",
"%	c #6A656A",
"&	c #5A595A",
"*	c #9C9D9C",
"=	c #C5C6C5",
"-	c #D5D6D5",
";	c #CDCACD",
">	c #A4A1A4",
",	c #4A484A",
"'	c #6A6D6A",
")	c #737573",
"!	c #ACAAAC",
"~	c #DEDEDE",
"{	c #EEEAEE",
"]	c #FFFAFF",
"^	c #EEEEEE",
"/	c #DEDADE",
"(	c #ACAEAC",
"_	c #414041",
":	c #7B797B",
"<	c #BDBABD",
"[	c #D5D2D5",
"}	c #414441",
"|	c #949594",
"1	c #4A4C4A",
"2	c #B4B2B4",
"3	c #B4B6B4",
"4	c #C5C2C5",
"5	c #737173",
"6	c #9C999C",
"7	c #8B8D8B",
"8	c #CDCECD",
"9	c #626562",
"0	c #E6E2E6",
"a	c #E6E6E6",
"b	c #626162",
"c	c #F6F2F6",
"d	c #F6F6F6",
"e	c #7B7D7B",
"f	c #FFFFFF",
"g	c #8B898B",
"h	c #838583",
"i	c #6A696A",
"j	c #949194",
"k	c #525552",
"l	c #8B8D94",
"m	c #7B8183",
"n	c #8B9194",
"                ",
"    .+@#$+      ",
"   %&*=-;>,'    ",
"  )&!~{]^/(+)   ",
" *_:<-//-[<)}|  ",
" 1'!>2<34<.!51  ",
" }6!244=433.7,  ",
" &2!;8-//8822+  ",
" 94;//{0a0[[4b  ",
" '<[0^cdd^a/3)  ",
" e!0a]f]f]^^.:  ",
" gg8dfffdff;h7  ",
"  i7/]ffffaj'*  ",
"  :k).[{[*5&e   ",
"   gb1___,9     ",
"     lm)en      "};

/* XPM */
static const char * led_red_xpm[] = {
"16 16 65 1",
" 	c None",
".	c #121212",
"+	c #AEA6A6",
"@	c #7C2F2A",
"#	c #8A6662",
"$	c #9B7F7A",
"%	c #A61E22",
"&	c #222622",
"*	c #BB7A75",
"=	c #AE9696",
"-	c #E6CECE",
";	c #9E4A42",
">	c #524A4A",
",	c #DE9A96",
"'	c #E0655A",
")	c #CEBEC6",
"!	c #D69690",
"~	c #222222",
"{	c #7A5252",
"]	c #D13E35",
"^	c #726662",
"/	c #D6CAD6",
"(	c #421E1A",
"_	c #4A2622",
":	c #C0483C",
"<	c #FB897B",
"[	c #F47A74",
"}	c #D34C40",
"|	c #9E3636",
"1	c #DEC6C6",
"2	c #EE6656",
"3	c #724E4A",
"4	c #E6A6A6",
"5	c #C2382E",
"6	c #523A32",
"7	c #8A8286",
"8	c #42413A",
"9	c #904544",
"0	c #5A0E0A",
"a	c #F68E7A",
"b	c #9E969E",
"c	c #FDA299",
"d	c #DA574A",
"e	c #FEB09E",
"f	c #FBB9A4",
"g	c #96544E",
"h	c #C6554A",
"i	c #B62622",
"j	c #5A5E5A",
"k	c #AE3833",
"l	c #551A17",
"m	c #96322A",
"n	c #FBE1E3",
"o	c #661E16",
"p	c #D66E62",
"q	c #B63E3E",
"r	c #F47166",
"s	c #5E4E46",
"t	c #6A5E5E",
"u	c #664642",
"v	c #7F726A",
"w	c #72766A",
"x	c #FE9589",
"y	c #4F534A",
"z	c #E66D5A",
"                ",
"     j&.~y      ",
"   ^8b)/)7>t    ",
"  wu=1nnn-$uv   ",
" +_9*!44,!*g(   ",
" u@k|::hh:|k@{  ",
" l|%5}}}d}5%|l  ",
" 0k]d'rzz'd]k0  ",
" oqd2ra<<[zd]o  ",
" @:2r<xxx<r2]@  ",
" #mr[xcccx<rkg  ",
"  9dacfffea'9$  ",
"  $|[xeffcpk{   ",
"   v6#*[';us7   ",
"     t88y>      ",
"                "};

/* XPM */
static const char * led_green_xpm[] = {
"16 16 65 1",
" 	c None",
".	c #0A0A02",
"+	c #42822A",
"@	c #9DDE58",
"#	c #6AC22E",
"$	c #163E16",
"%	c #969296",
"&	c #2C5E26",
"*	c #BEBEC6",
"=	c #4A9322",
"-	c #D2FD88",
";	c #46573E",
">	c #729642",
",	c #9EC656",
"'	c #A3EE5A",
")	c #528642",
"!	c #4F6547",
"~	c #559B37",
"{	c #E6E6DE",
"]	c #62666A",
"^	c #223E1E",
"/	c #222622",
"(	c #859D82",
"_	c #93D054",
":	c #B2E66A",
"<	c #52A925",
"[	c #7E8487",
"}	c #3A7A2A",
"|	c #75AE42",
"1	c #BEDE6A",
"2	c #BDF478",
"3	c #9EC262",
"4	c #D6E2CE",
"5	c #C6B2C6",
"6	c #5AA622",
"7	c #7FCF40",
"8	c #424242",
"9	c #C6FA9A",
"0	c #68B334",
"a	c #5E6462",
"b	c #CBD3CB",
"c	c #C4FE7E",
"d	c #A6C687",
"e	c #577947",
"f	c #12360A",
"g	c #7A9C6A",
"h	c #B6D69E",
"i	c #1A5212",
"j	c #558835",
"k	c #5A5A5A",
"l	c #5A9642",
"m	c #BEDA9E",
"n	c #426A3A",
"o	c #7AAA6A",
"p	c #7AC040",
"q	c #5AAE36",
"r	c #253627",
"s	c #9E9E9A",
"t	c #EEFAE6",
"u	c #3B4E3A",
"v	c #67A93D",
"w	c #52703E",
"x	c #878D8A",
"y	c #6A7272",
"z	c #326A2A",
"                ",
"     k/./k      ",
"   a8[*b5%ry    ",
"  y8(b4t{b(u]   ",
" s^wgdmdhdon^%  ",
" u&=~v>||v~l&u  ",
" f+=<00p00~=}$  ",
" f=<qp@7_7#6~f  ",
" &q#__@@@@7pqi  ",
" &q7@:222:@7vz  ",
" ej@@'c99c'@le  ",
" g+p29c9cccp)x  ",
"  wj,c---2_jws  ",
"  [!w>313>e![   ",
"   xauu8;u![    ",
"     [yyyx      "};

/* XPM */
static const char * led_yellow_xpm[] = {
"16 16 65 1",
" 	c None",
".	c #351F1D",
"+	c #969E22",
"@	c #CED64A",
"#	c #B64E32",
"$	c #464A42",
"%	c #F6B022",
"&	c #C6903E",
"*	c #D9C3C1",
"=	c #7A7222",
"-	c #AE8A8A",
";	c #6A5E37",
">	c #FEE3DB",
",	c #423652",
"'	c #F1C69B",
")	c #D6E652",
"!	c #C28E82",
"~	c #BED242",
"{	c #AE5E42",
"]	c #7A4E52",
"^	c #9E7E3A",
"/	c #4A4252",
"(	c #E99215",
"_	c #EEBC8A",
":	c #D6C65A",
"<	c #7A644A",
"[	c #80321C",
"}	c #7C7C78",
"|	c #CE622A",
"1	c #DEAA42",
"2	c #8A963A",
"3	c #FEEA76",
"4	c #DE9A72",
"5	c #9E7A42",
"6	c #D2742E",
"7	c #FCDC61",
"8	c #E6CA62",
"9	c #9E521D",
"0	c #96727A",
"a	c #8A8C8A",
"b	c #FBBF3D",
"c	c #E4993A",
"d	c #924E3E",
"e	c #5F5D50",
"f	c #FDF77A",
"g	c #FEE66F",
"h	c #F6D0C6",
"i	c #E9812D",
"j	c #F99332",
"k	c #A67232",
"l	c #E6A682",
"m	c #906962",
"n	c #967652",
"o	c #6A4242",
"p	c #F6A826",
"q	c #948480",
"r	c #DEAE42",
"s	c #FEFB8E",
"t	c #F3B33A",
"u	c #B09A9E",
"v	c #D6863A",
"w	c #962E02",
"x	c #D69D3D",
"y	c #9E5C42",
"z	c #FDCD52",
"                ",
"     e...e      ",
"   mo-***-om    ",
"  md!h>>>h!]0   ",
" u[{4_'''_lyou  ",
" d#ivcxx1&v69d  ",
" [|ivxtp%pii|w  ",
" [ij%tbtbb%jiw  ",
" dj%bbzz7zbpc9  ",
" 9jb77gg37zbc9  ",
" n&b7gfssggz&m  ",
" qkt7fssffgr^q  ",
"  <^:ffssf8^<u  ",
"  };;2@)~+=;}   ",
"   aee,/$$eq    ",
"     }}}}a      "};
