/* XPM */
static const char * magic_wand_xpm[] = {
"16 16 79 1",
" 	c None",
".	c #555A5B",
"+	c #E5E5E4",
"@	c #C0B160",
"#	c #C6AD2B",
"$	c #6D7273",
"%	c #8E9090",
"&	c #CECFCF",
"*	c #E5D36C",
"=	c #DFC93B",
"-	c #525557",
";	c #CCC597",
">	c #D1BF58",
",	c #B7A73F",
"'	c #DCC940",
")	c #FBE84D",
"!	c #E8D032",
"~	c #E5CA2E",
"{	c #D2B314",
"]	c #646664",
"^	c #9E9D91",
"/	c #C0AE46",
"(	c #EAD442",
"_	c #FCE94F",
":	c #F9E44A",
"<	c #DDBE22",
"[	c #646762",
"}	c #636561",
"|	c #535654",
"1	c #4B4F4D",
"2	c #A49225",
"3	c #F5DF45",
"4	c #626461",
"5	c #585A56",
"6	c #474A47",
"7	c #766C26",
"8	c #DBC123",
"9	c #ECD63B",
"0	c #D6B81B",
"a	c #E8CF32",
"b	c #DABD1E",
"c	c #5C605C",
"d	c #494C49",
"e	c #4B4831",
"f	c #D9BB1B",
"g	c #F1DB3F",
"h	c #D7B91C",
"i	c #E0C529",
"j	c #E8CE32",
"k	c #D6B719",
"l	c #5B6060",
"m	c #4A4C49",
"n	c #7F732A",
"o	c #DEC225",
"p	c #F8E449",
"q	c #F9E449",
"r	c #DEC226",
"s	c #EAD236",
"t	c #D5B719",
"u	c #8D9090",
"v	c #ADAEAE",
"w	c #555856",
"x	c #4B4C4A",
"y	c #353B3A",
"z	c #EAD034",
"A	c #ECD437",
"B	c #D6B717",
"C	c #515656",
"D	c #CBCBCA",
"E	c #AAABA9",
"F	c #777877",
"G	c #383D3D",
"H	c #E2C92C",
"I	c #D9BA1B",
"J	c #E4C82B",
"K	c #656868",
"L	c #727472",
"M	c #3A3D3D",
"N	c #333638",
"                ",
"                ",
"                ",
"         .+@#   ",
"        $%&*=   ",
"       -;>,')!~{",
"       ]^/(__:< ",
"      [}|12__3  ",
"     4}567890ab ",
"    c}5defghijk ",
"   l}5mnop_qrst ",
"  uvwxy  z_AB   ",
" CDEFG   HIJ    ",
"  KLM           ",
"   N            ",
"                "};
