/* XPM */
static const char * magic_wand_xpm[] = {
"16 16 125 2",
"  	c None",
". 	c #6C7070",
"+ 	c #696959",
"@ 	c #C6A60C",
"# 	c #363C3F",
"$ 	c #717575",
"% 	c #F3F3F1",
"& 	c #DCD7BB",
"* 	c #D8BE25",
"= 	c #B9BBBC",
"- 	c #636769",
"; 	c #F0F1F2",
"> 	c #E3D79A",
", 	c #F9E64A",
"' 	c #C1A109",
") 	c #919496",
"! 	c #D4D1C2",
"~ 	c #94927C",
"{ 	c #7D7A62",
"] 	c #D4BB3C",
"^ 	c #FDEA4F",
"/ 	c #E5CC2F",
"( 	c #C5A203",
"_ 	c #424748",
": 	c #DDD5B4",
"< 	c #D4B61A",
"[ 	c #E6CD2F",
"} 	c #F0D737",
"| 	c #F9E54A",
"1 	c #FCE94F",
"2 	c #FDEA50",
"3 	c #FFEC53",
"4 	c #4A4D4C",
"5 	c #606360",
"6 	c #777A7B",
"7 	c #A39F89",
"8 	c #C1AB35",
"9 	c #F4DE43",
"0 	c #FBE84E",
"a 	c #F2DC41",
"b 	c #434948",
"c 	c #70726D",
"d 	c #646661",
"e 	c #4D514E",
"f 	c #565857",
"g 	c #40474D",
"h 	c #A4890F",
"i 	c #FFED53",
"j 	c #FCEA50",
"k 	c #E5CC2E",
"l 	c #3F4342",
"m 	c #6A6C68",
"n 	c #636560",
"o 	c #5A5C58",
"p 	c #525450",
"q 	c #3A3F41",
"r 	c #877618",
"s 	c #D0AF10",
"t 	c #DFC326",
"u 	c #E2C72B",
"v 	c #3C4242",
"w 	c #6D6F6A",
"x 	c #636561",
"y 	c #5B5D58",
"z 	c #434645",
"A 	c #E0C01A",
"B 	c #D9BC1F",
"C 	c #E8CE32",
"D 	c #C9A405",
"E 	c #DABD1F",
"F 	c #DABD1E",
"G 	c #3A4040",
"H 	c #666864",
"I 	c #404345",
"J 	c #474528",
"K 	c #F2DC42",
"L 	c #C4A000",
"M 	c #CCAC0D",
"N 	c #DBBE21",
"O 	c #E8D034",
"P 	c #4E5456",
"Q 	c #505455",
"R 	c #454846",
"S 	c #AC9110",
"T 	c #E3C623",
"U 	c #EED63B",
"V 	c #FBE94E",
"W 	c #FEEC53",
"X 	c #EFD73C",
"Y 	c #DCBF21",
"Z 	c #F3DE43",
"` 	c #44494C",
" .	c #C8CACA",
"..	c #4B5050",
"+.	c #484947",
"@.	c #313739",
"#.	c #DABC1E",
"$.	c #FEEB51",
"%.	c #D9BC1E",
"&.	c #989A9B",
"*.	c #D5D5D4",
"=.	c #9FA1A0",
"-.	c #4D4F4D",
";.	c #464947",
">.	c #313837",
",.	c #CBA909",
"'.	c #FDEB51",
").	c #F3DE44",
"!.	c #D3B616",
"~.	c #C5A101",
"{.	c #CCCCCC",
"].	c #B4B5B3",
"^.	c #969795",
"/.	c #747573",
"(.	c #343A3A",
"_.	c #DFC529",
":.	c #D4B516",
"<.	c #D2B213",
"[.	c #656969",
"}.	c #8B8C8A",
"|.	c #6C6D6B",
"1.	c #383C3B",
"2.	c #BD9D08",
"3.	c #3D4143",
"4.	c #363A3A",
"                      . + @     ",
"                  # $ % & *     ",
"                  = - ; > , '   ",
"                ) ! ~ { ] ^ / ( ",
"              _ : < [ } | 1 2 3 ",
"            4 5 6 7 8 9 1 0 1 a ",
"          b c d e f g h i j 2 k ",
"        l m n o p q r s i t u j ",
"      v w x y p z   A B C D E F ",
"    G H x o p I J   E K L M N O ",
"  P Q d y p R S T U V 1 W X Y Z ",
"`  ...o p +.@.    #.$.1 9   %.  ",
"&.*.=.-.;.>.      ,.'.a ).!.~.  ",
"{.].^./.(.        _.#.  :.<.    ",
"[.}.|.1.          2.            ",
"  3.4.                          "};
