/* XPM */
static const char * main_setup_xpm[] = {
"48 48 707 2",
"  	c None",
". 	c #A5A5A5",
"+ 	c #CACACA",
"@ 	c #BCBCBC",
"# 	c #AAAAAA",
"$ 	c #FFFFFF",
"% 	c #C4C4C4",
"& 	c #C8C8C8",
"* 	c #C5C5C5",
"= 	c #D0D0D0",
"- 	c #C6C6C6",
"; 	c #D4D4D4",
"> 	c #C7C7C7",
", 	c #D7D7D7",
"' 	c #FEFEFE",
") 	c #DADADA",
"! 	c #C9C9C9",
"~ 	c #DDDDDD",
"{ 	c #FDFDFD",
"] 	c #CBCBCB",
"^ 	c #E0E0E0",
"/ 	c #D1D1D1",
"( 	c #C3C3C3",
"_ 	c #E4E4E4",
": 	c #C2C2C2",
"< 	c #CDCDCD",
"[ 	c #E8E8E8",
"} 	c #FCFCFC",
"| 	c #EBEBEB",
"1 	c #CFCFCF",
"2 	c #C1C1C1",
"3 	c #C0C0C0",
"4 	c #BEBEBE",
"5 	c #B2B2B2",
"6 	c #FBFBFB",
"7 	c #F8F8F8",
"8 	c #F7F7F7",
"9 	c #F6F6F6",
"0 	c #BDBDBD",
"a 	c #FAFAFA",
"b 	c #A9ACB8",
"c 	c #8C91A2",
"d 	c #747992",
"e 	c #4B4F7A",
"f 	c #3F4376",
"g 	c #3D3F7B",
"h 	c #4A4A92",
"i 	c #6868A4",
"j 	c #D8D9DE",
"k 	c #616881",
"l 	c #B0BCCC",
"m 	c #B6C2D1",
"n 	c #B3BECD",
"o 	c #ADB7C6",
"p 	c #444A68",
"q 	c #010266",
"r 	c #010167",
"s 	c #EEEEF3",
"t 	c #B1B3BE",
"u 	c #96A1B3",
"v 	c #DDEEF9",
"w 	c #DCEDF9",
"x 	c #DFEEF9",
"y 	c #E5F2FB",
"z 	c #5F6583",
"A 	c #0B0C65",
"B 	c #000066",
"C 	c #C4C4DA",
"D 	c #F9F9F9",
"E 	c #878C9E",
"F 	c #B2C0D1",
"G 	c #D2E8F8",
"H 	c #D0E7F7",
"I 	c #D3E8F7",
"J 	c #DFEEFA",
"K 	c #848EA5",
"L 	c #161864",
"M 	c #9797BF",
"N 	c #BFC1CA",
"O 	c #F3F3F4",
"P 	c #BBBBD5",
"Q 	c #C3C3D9",
"R 	c #5F667E",
"S 	c #CADBEA",
"T 	c #CBE4F6",
"U 	c #CEE5F7",
"V 	c #D8EBF8",
"W 	c #A9B6C7",
"X 	c #272B68",
"Y 	c #6B6BA5",
"Z 	c #CECFD6",
"` 	c #C1C3CB",
" .	c #DCDCE8",
"..	c #7474AB",
"+.	c #ECECF2",
"@.	c #A8A8A8",
"#.	c #757B90",
"$.	c #6F7990",
"%.	c #4F5673",
"&.	c #131567",
"*.	c #030368",
"=.	c #7171A8",
"-.	c #EFEFF3",
";.	c #F2F2F3",
">.	c #4F5671",
",.	c #D5E9F8",
"'.	c #C4E0F5",
").	c #C7E1F5",
"!.	c #C9E3F6",
"~.	c #D1E7F7",
"{.	c #C1D0DE",
"].	c #3B406D",
"^.	c #353585",
"/.	c #EAEAF0",
"(.	c #ECEDEF",
"_.	c #878C9D",
":.	c #636981",
"<.	c #626880",
"[.	c #2B2E6B",
"}.	c #303082",
"|.	c #E1E1EA",
"1.	c #BBBBBB",
"2.	c #7E818B",
"3.	c #A4B2C5",
"4.	c #C4D6E6",
"5.	c #535C7B",
"6.	c #292E68",
"7.	c #020366",
"8.	c #25257C",
"9.	c #BEBED6",
"0.	c #E6E6E9",
"a.	c #A2A5B3",
"b.	c #585F79",
"c.	c #7886A0",
"d.	c #CEE6F7",
"e.	c #BFDEF4",
"f.	c #C2DFF5",
"g.	c #C5E0F5",
"h.	c #CAE3F6",
"i.	c #D5E6F4",
"j.	c #4D5573",
"k.	c #3C426C",
"l.	c #181A65",
"m.	c #0C0C6B",
"n.	c #565698",
"o.	c #B0B0CE",
"p.	c #B6B8C3",
"q.	c #555B74",
"r.	c #A3ABBA",
"s.	c #EBF3F9",
"t.	c #E9F0F7",
"u.	c #71778F",
"v.	c #2F3369",
"w.	c #010166",
"x.	c #1F1F78",
"y.	c #D2D2E2",
"z.	c #A2AAB1",
"A.	c #D8EBF9",
"B.	c #CDE5F7",
"C.	c #D7EAF8",
"D.	c #DAEBF8",
"E.	c #90A0B8",
"F.	c #3E4568",
"G.	c #1B1E64",
"H.	c #383E6B",
"I.	c #646B84",
"J.	c #A0ADC1",
"K.	c #B4CDE2",
"L.	c #CCE4F6",
"M.	c #C3E0F5",
"N.	c #BADBF3",
"O.	c #BDDDF4",
"P.	c #C0DEF4",
"Q.	c #C3DFF5",
"R.	c #D2E8F7",
"S.	c #D9EAF8",
"T.	c #BACBDB",
"U.	c #78829C",
"V.	c #434A69",
"W.	c #34396B",
"X.	c #3A3F6B",
"Y.	c #686F8A",
"Z.	c #D5DFEA",
"`.	c #E5F2FA",
" +	c #E2EFFA",
".+	c #E6F2FA",
"++	c #ECF4FA",
"@+	c #8A90A5",
"#+	c #373C6A",
"$+	c #151573",
"%+	c #EBEBF1",
"&+	c #B4BCC2",
"*+	c #DDEDF9",
"=+	c #C4D7E8",
"-+	c #8D9BB3",
";+	c #C8D7E5",
">+	c #B7D9F3",
",+	c #B1D6F2",
"'+	c #B3D7F2",
")+	c #B6D9F2",
"!+	c #B8DAF3",
"~+	c #BBDCF3",
"{+	c #BEDDF4",
"]+	c #C1DEF4",
"^+	c #C4E1F5",
"/+	c #CEE5F6",
"(+	c #D8E8F5",
"_+	c #ADBDCD",
":+	c #B1BFCF",
"<+	c #E1EFFA",
"[+	c #DBECF9",
"}+	c #DAEBF9",
"|+	c #E5F1FA",
"1+	c #DEE5ED",
"2+	c #4A506D",
"3+	c #050666",
"4+	c #8585B4",
"5+	c #9CA4AD",
"6+	c #D3E8F8",
"7+	c #C8E2F6",
"8+	c #CAE4F6",
"9+	c #CCE5F6",
"0+	c #D6EAF8",
"a+	c #BBDBF3",
"b+	c #A6D0F0",
"c+	c #A9D2F0",
"d+	c #ABD3F1",
"e+	c #AED5F1",
"f+	c #B4D8F2",
"g+	c #B6D9F3",
"h+	c #B9DAF3",
"i+	c #BCDCF4",
"j+	c #BFDDF4",
"k+	c #C1DFF4",
"l+	c #D4E8F8",
"m+	c #D0E6F7",
"n+	c #D8EAF8",
"o+	c #E2EEF6",
"p+	c #5E6580",
"q+	c #181A66",
"r+	c #555598",
"s+	c #797D88",
"t+	c #BFD4E5",
"u+	c #C7E2F6",
"v+	c #CCE4F7",
"w+	c #A4CFEF",
"x+	c #A7D1F0",
"y+	c #ACD4F1",
"z+	c #AFD5F1",
"A+	c #B2D7F2",
"B+	c #BDDCF4",
"C+	c #C5E1F5",
"D+	c #D4E9F7",
"E+	c #7A839B",
"F+	c #2A2E68",
"G+	c #2E2E81",
"H+	c #ECECF0",
"I+	c #9E9FA1",
"J+	c #5C647D",
"K+	c #CEE3F2",
"L+	c #C6E1F5",
"M+	c #C8E3F6",
"N+	c #9FCDEF",
"O+	c #A2CEEF",
"P+	c #A5D0F0",
"Q+	c #AAD3F0",
"R+	c #ADD4F1",
"S+	c #B0D6F1",
"T+	c #B5D8F2",
"U+	c #9CA8BB",
"V+	c #393E69",
"W+	c #121270",
"X+	c #D7D7E4",
"Y+	c #A9A9A9",
"Z+	c #A3A6B3",
"`+	c #8696AE",
" @	c #C7E2F5",
".@	c #9CCBEE",
"+@	c #9BCBEE",
"@@	c #9ACAEE",
"#@	c #9DCCEE",
"$@	c #A0CDEF",
"%@	c #A3CFEF",
"&@	c #A8D2F0",
"*@	c #AED4F1",
"=@	c #D2E5F3",
"-@	c #404664",
";@	c #060666",
">@	c #0D0D6D",
",@	c #E5E5EC",
"'@	c #878D9F",
")@	c #A3B9CF",
"!@	c #C1DFF5",
"~@	c #B5D8F3",
"{@	c #90C5EC",
"]@	c #93C6ED",
"^@	c #96C8ED",
"/@	c #A0CDEE",
"(@	c #C2DFF4",
"_@	c #CFE6F7",
":@	c #BDDCF3",
"<@	c #B0D5F2",
"[@	c #5E6986",
"}@	c #141664",
"|@	c #7575AA",
"1@	c #F5F5F5",
"2@	c #A4A4A6",
"3@	c #606881",
"4@	c #CFE4F5",
"5@	c #B4D7F2",
"6@	c #CDE1F1",
"7@	c #A0B3C9",
"8@	c #7986A0",
"9@	c #5C637E",
"0@	c #6A738C",
"a@	c #8E9BB0",
"b@	c #AEBFD1",
"c@	c #D8EAF7",
"d@	c #B7DAF3",
"e@	c #B7CADD",
"f@	c #3E4569",
"g@	c #000166",
"h@	c #0C0C6D",
"i@	c #E3E3EA",
"j@	c #8B8D94",
"k@	c #A5B8CD",
"l@	c #C6E2F5",
"m@	c #BBDBF4",
"n@	c #A4D0EF",
"o@	c #A5BAD0",
"p@	c #495170",
"q@	c #3A3E74",
"r@	c #A9ABBE",
"s@	c #EBECED",
"t@	c #DEDFE2",
"u@	c #BBBCC5",
"v@	c #808699",
"w@	c #616A82",
"x@	c #C0D2E2",
"y@	c #CFE5F7",
"z@	c #AAD3F1",
"A@	c #B9DBF3",
"B@	c #5F6A88",
"C@	c #7373A9",
"D@	c #F4F4F4",
"E@	c #787B87",
"F@	c #C9E0F2",
"G@	c #BBDCF4",
"H@	c #7DBBE9",
"I@	c #80BCE9",
"J@	c #8DA1BB",
"K@	c #353C69",
"L@	c #1B1B71",
"M@	c #E0E0E8",
"N@	c #CDCED4",
"O@	c #575E77",
"P@	c #B9CCDE",
"Q@	c #D7EAF9",
"R@	c #B4CADD",
"S@	c #404668",
"T@	c #181969",
"U@	c #535493",
"V@	c #7E7EB0",
"W@	c #A7A7C7",
"X@	c #D1D1DF",
"Y@	c #909BA7",
"Z@	c #B7D9F2",
"`@	c #82BDEA",
" #	c #9FCDEE",
".#	c #B0CBE1",
"+#	c #3D456A",
"@#	c #030366",
"##	c #A8A8C8",
"$#	c #D8D9DD",
"%#	c #565E78",
"&#	c #D0E2F1",
"*#	c #B1D6F1",
"=#	c #AAD2F0",
"-#	c #D2E7F8",
";#	c #DAECF9",
">#	c #D3E7F8",
",#	c #A7BCD1",
"'#	c #8796AE",
")#	c #646F8C",
"!#	c #484F6F",
"~#	c #414866",
"{#	c #3D446C",
"]#	c #262A69",
"^#	c #08086A",
"/#	c #44448E",
"(#	c #ACB8C1",
"_#	c #8BC2EB",
":#	c #75B7E7",
"<#	c #76B8E8",
"[#	c #5C6B8B",
"}#	c #101165",
"|#	c #0A0A6C",
"1#	c #EFEFF1",
"2#	c #F3F3F3",
"3#	c #A2A5B2",
"4#	c #93A4BA",
"5#	c #C1DEF5",
"6#	c #CDE5F6",
"7#	c #CFE4F4",
"8#	c #BDD1E1",
"9#	c #454A68",
"0#	c #09096B",
"a#	c #BABABA",
"b#	c #A1B2BF",
"c#	c #A7D0F0",
"d#	c #66AFE5",
"e#	c #68B0E5",
"f#	c #6BB2E6",
"g#	c #6FB4E6",
"h#	c #C5E0F4",
"i#	c #414969",
"j#	c #3A3A88",
"k#	c #D4D5DA",
"l#	c #6D7890",
"m#	c #CDE4F6",
"n#	c #B0D6F2",
"o#	c #BDDDF3",
"p#	c #4D5472",
"q#	c #040566",
"r#	c #AFAFB5",
"s#	c #88A5BB",
"t#	c #59A8E3",
"u#	c #74B6E7",
"v#	c #92C6ED",
"w#	c #63ADE4",
"x#	c #64AEE4",
"y#	c #67AFE5",
"z#	c #78B9E8",
"A#	c #B5D3E9",
"B#	c #3A436A",
"C#	c #363685",
"D#	c #F2F2F2",
"E#	c #F0F0F0",
"F#	c #474E6A",
"G#	c #A5D0EF",
"H#	c #ACD3F1",
"I#	c #57607F",
"J#	c #0A0B65",
"K#	c #A5A5B0",
"L#	c #7EA0B9",
"M#	c #54A5E2",
"N#	c #57A7E2",
"O#	c #5AA8E3",
"P#	c #5CAAE3",
"Q#	c #5FABE4",
"R#	c #62ADE4",
"S#	c #67B0E6",
"T#	c #C1DEF3",
"U#	c #3F4767",
"V#	c #060669",
"W#	c #EBEBEE",
"X#	c #D9DADE",
"Y#	c #646E87",
"Z#	c #A1CEEF",
"`#	c #B5D9F3",
" $	c #BCDCF3",
".$	c #586180",
"+$	c #0B0C66",
"@$	c #1A1A75",
"#$	c #AEAEB4",
"$$	c #84A3BA",
"%$	c #53A5E2",
"&$	c #52A4E1",
"*$	c #55A6E2",
"=$	c #5AA9E3",
"-$	c #5DAAE3",
";$	c #60ACE4",
">$	c #566384",
",$	c #0C0D65",
"'$	c #9D9DC0",
")$	c #F1F1F1",
"!$	c #AFB1BB",
"~$	c #95A5BA",
"{$	c #DBEDF9",
"]$	c #95C7ED",
"^$	c #97C9ED",
"/$	c #9DCBEE",
"($	c #AFD5F2",
"_$	c #BBD7ED",
":$	c #A7BED5",
"<$	c #95AAC1",
"[$	c #7F8FA9",
"}$	c #6C7791",
"|$	c #575F79",
"1$	c #4E5570",
"2$	c #DDDDE3",
"3$	c #889DAD",
"4$	c #65AFE5",
"5$	c #4DA2E1",
"6$	c #50A3E1",
"7$	c #58A8E2",
"8$	c #5BA9E3",
"9$	c #93C7EC",
"0$	c #92B0CD",
"a$	c #343D69",
"b$	c #10106F",
"c$	c #D6D6E1",
"d$	c #E4E5E7",
"e$	c #545D77",
"f$	c #C9DDEC",
"g$	c #92C6EC",
"h$	c #95C8ED",
"i$	c #98C9ED",
"j$	c #566585",
"k$	c #353B6A",
"l$	c #292D69",
"m$	c #AAADB9",
"n$	c #C9CAD0",
"o$	c #E2E3E5",
"p$	c #7B828F",
"q$	c #7AB9E8",
"r$	c #489FE0",
"s$	c #4BA1E0",
"t$	c #4EA2E1",
"u$	c #51A4E1",
"v$	c #56A7E2",
"w$	c #5CAAE4",
"x$	c #6C82A2",
"y$	c #292E67",
"z$	c #020266",
"A$	c #2A2A7E",
"B$	c #BEBED4",
"C$	c #E1E1E4",
"D$	c #686F86",
"E$	c #97AFC8",
"F$	c #88C1EB",
"G$	c #8DC4EC",
"H$	c #ACD0EC",
"I$	c #404768",
"J$	c #4A4A91",
"K$	c #777B87",
"L$	c #75AFDD",
"M$	c #469EDF",
"N$	c #49A0E0",
"O$	c #4CA1E0",
"P$	c #4FA3E1",
"Q$	c #54A6E2",
"R$	c #B9D9F1",
"S$	c #7A91B0",
"T$	c #3C4469",
"U$	c #080966",
"V$	c #5B5B9A",
"W$	c #A2A2C3",
"X$	c #B9BACB",
"Y$	c #9A9DAD",
"Z$	c #4E5673",
"`$	c #B0C2D4",
" %	c #83BEEA",
".%	c #86C0EA",
"+%	c #89C1EB",
"@%	c #8CC3EB",
"#%	c #83A4C4",
"$%	c #32396B",
"%%	c #A0A0C2",
"&%	c #8B8E95",
"*%	c #5B82AA",
"=%	c #6DB2E6",
"-%	c #429CDF",
";%	c #449DDF",
">%	c #479FE0",
",%	c #4AA0E0",
"'%	c #52A5E1",
")%	c #61ACE4",
"!%	c #ADCBE4",
"~%	c #6F82A1",
"{%	c #535D7C",
"]%	c #3F4769",
"^%	c #424A6A",
"/%	c #596583",
"(%	c #7C90AD",
"_%	c #BED8ED",
":%	c #88C0EB",
"<%	c #7FBCE9",
"[%	c #81BDE9",
"}%	c #84BFEA",
"|%	c #485577",
"1%	c #0F1165",
"2%	c #2B2B7F",
"3%	c #EFEFEF",
"4%	c #A5A5A6",
"5%	c #4B5571",
"6%	c #71ADDB",
"7%	c #50A4E1",
"8%	c #409BDE",
"9%	c #439CDF",
"0%	c #459EDF",
"a%	c #98C9EE",
"b%	c #BCDBF1",
"c%	c #BCDBF2",
"d%	c #7BBAE8",
"e%	c #92C5EC",
"f%	c #79B9E8",
"g%	c #7CBBE9",
"h%	c #98CAEE",
"i%	c #88ACCC",
"j%	c #363E6A",
"k%	c #7F7FAF",
"l%	c #B9B9B9",
"m%	c #547397",
"n%	c #76B7E8",
"o%	c #3E9ADE",
"p%	c #439DDF",
"q%	c #64AEE5",
"r%	c #67B0E5",
"s%	c #72B5E7",
"t%	c #78B8E8",
"u%	c #9BCAEE",
"v%	c #80A4C5",
"w%	c #363E69",
"x%	c #0F0F6F",
"y%	c #D0D0DD",
"z%	c #A7A7A8",
"A%	c #626B84",
"B%	c #5887B3",
"C%	c #73B6E7",
"D%	c #419BDE",
"E%	c #3F9ADE",
"F%	c #419CDF",
"G%	c #4CA2E0",
"H%	c #76B8E7",
"I%	c #9ACBEE",
"J%	c #70B4E7",
"K%	c #7BBBE9",
"L%	c #5F7496",
"M%	c #252A68",
"N%	c #313182",
"O%	c #E9E9EC",
"P%	c #888A93",
"Q%	c #537196",
"R%	c #3F9BDE",
"S%	c #5CA9E3",
"T%	c #7DBBE8",
"U%	c #6EB3E6",
"V%	c #71B5E7",
"W%	c #80BDEA",
"X%	c #9FCAEB",
"Y%	c #495576",
"Z%	c #121465",
"`%	c #6666A0",
" &	c #EEEEEE",
".&	c #777F8C",
"+&	c #78B6E5",
"@&	c #459DDF",
"#&	c #8FC5EC",
"$&	c #85BFEA",
"%&	c #6CB2E6",
"&&	c #87C1EA",
"*&	c #93BDDE",
"=&	c #3F486A",
"-&	c #070865",
";&	c #A1A1C2",
">&	c #88A2B6",
",&	c #56A6E2",
"'&	c #79B7E5",
")&	c #72ADDB",
"!&	c #58A7E2",
"~&	c #96C8EC",
"{&	c #7FA5C9",
"]&	c #6C88AB",
"^&	c #92C1E6",
"/&	c #6AB1E6",
"(&	c #6DB3E6",
"_&	c #7796B6",
":&	c #2F376A",
"<&	c #050569",
"[&	c #EDEDED",
"}&	c #92A1AC",
"|&	c #769CB8",
"1&	c #7199B7",
"2&	c #739AB7",
"3&	c #85A3BA",
"4&	c #879DAF",
"5&	c #747988",
"6&	c #707483",
"7&	c #798493",
"8&	c #849CB0",
"9&	c #8BA7BB",
"0&	c #83A3BA",
"a&	c #7B9EB8",
"b&	c #729AB8",
"c&	c #739BB8",
"d&	c #749BB8",
"e&	c #779CB8",
"f&	c #80A1BA",
"g&	c #89A7BC",
"h&	c #91AABC",
"i&	c #8A9EAF",
"j&	c #777D8C",
"k&	c #707486",
"l&	c #7D808D",
"m&	c #787C89",
"n&	c #8FA1B0",
"o&	c #92ABBE",
"p&	c #85A4BC",
"q&	c #8AA7BD",
"r&	c #96A8B7",
"s&	c #757987",
"t&	c #5B5C81",
"u&	c #90909F",
"v&	c #ACACAC",
"w&	c #ADADAD",
"x&	c #A6A6A6",
"        . + + + + + + + + + + + + + + + + + + + + + + + + + + + + @                             ",
"        # $ $ $ $ $ $ $ $ $ $ $ $ $ $ $ $ $ $ $ $ $ $ $ $ $ $ $ $ % &                           ",
"        # $ $ $ $ $ $ $ $ $ $ $ $ $ $ $ $ $ $ $ $ $ $ $ $ $ $ $ $ * = -                         ",
"        # $ $ $ $ $ $ $ $ $ $ $ $ $ $ $ $ $ $ $ $ $ $ $ $ $ $ $ $ - ; = >                       ",
"        # $ $ $ $ $ $ $ $ $ $ $ $ $ $ $ $ $ $ $ $ $ $ $ $ $ $ $ $ > , ; = -                     ",
"        # ' ' ' ' ' ' ' ' ' ' ' ' ' ' ' ' ' ' ' ' ' ' ' ' ' ' ' ' & ) , ; = *                   ",
"        # ' ' ' ' ' ' ' ' ' ' ' ' ' ' ' ' ' ' ' ' ' ' ' ' ' ' ' ' ! ~ ) , ; = *                 ",
"        # { { { { { { { { { { { { { { { { { { { { { { { { { { { { ] ^ ~ ) , ; / (               ",
"        # { { { { { { { { { { { { { { { { { { { { { { { { { { { { ] _ ^ ~ ) , ; / :             ",
"        # { { { { { { { { { { { { { { { { { { { { { { { { { { { { < [ _ ^ ~ ) , ; / :           ",
"        # } } } } } } } } } } } } } } } } } } } } } } } } } } } } = | [ _ ^ ~ ) , ; 1 2         ",
"        # } } } } } } } } } } } } } } } } } } } } } } } } } } } } @ & > - % ( : 2 3 4 @ 5       ",
"        # 6 6 6 6 6 6 6 6 6 6 6 6 6 6 6 6 6 6 6 6 6 6 6 6 6 6 6 6 7 7 7 7 7 8 8 8 8 9 9 @       ",
"        # 6 6 6 6 6 6 6 6 6 6 6 6 6 6 6 6 6 6 6 6 6 6 6 6 6 6 6 6 6 6 6 6 6 6 6 6 6 6 6 0       ",
"        # 6 6 6 6 6 6 6 6 6 6 6 a b c d e f g h i 6 6 6 6 6 6 6 6 6 6 6 6 6 6 6 6 6 6 6 0       ",
"        # a a a a a a a a a a a j k l m n o p q r s a a a a a a a a a a a a a a a a a a 0       ",
"        # a a a a a a a a a a a t u v w x y z A B C a a a a a a a a a a a a a a a a a a 0       ",
"        # D D D D D D D D D D D E F G H I J K L B M D D D D D D D D D D D D D D D D D D 0       ",
"        # 7 N O P Q D D D D D D R S T T U V W X B Y D D D D D D Z `  ...+.D D D D D D D 0       ",
"        @.#.$.%.&.*.=.-.7 7 7 ;.>.,.'.).!.~.{.].B ^./.7 7 7 (._.:.<.[.B }.|.7 7 7 7 7 7 1.      ",
"        2.3.x 4.5.6.7.8.9.0.a.b.c.d.e.f.g.h.i.j.k.l.m.n.o.p.q.r.s.t.u.v.w.x.y.7 7 7 7 7 1.      ",
"        z.A.B.C.D.E.F.G.H.I.J.K.L.M.N.O.P.Q.R.S.T.U.V.W.X.Y.Z.`. +.+++@+#+q $+%+7 7 7 7 1.      ",
"        &+h.h.T ~.*+=+-+;+D.!.>+,+'+)+!+~+{+]+^+/+V (+_+:+<+[+}+w J |+1+2+3+4+8 8 8 8 8 1.      ",
"        5+6+7+!.8+9+C.[+0+a+b+c+d+e+,+f+g+h+i+j+k+'.8+l+C.m+R.,.n+w o+p+q+r+8 8 8 8 8 8 1.      ",
"        s+t+B.u+7+!.T v+U {+c+w+x+c+y+z+A+f+>+N.B+e.f.C+7+T B.m+D+ +E+F+G+H+9 9 9 9 9 9 1.      ",
"        I+J+K+u+L+u+M+h.T B.'.N+O+P+x+Q+R+S+A+T+!+a+{+P.M.L+7+T [+U+V+W+X+9 9 9 9 9 9 9 1.      ",
"        Y+Z+`+6+M.C+L+u+ @.@+@@@#@$@%@P+&@d+*@,+'+g+h+~+{+k+'.m+=@-@;@>@,@9 9 9 9 9 9 9 1.      ",
"        Y+'@)@U !@f.'.C+~@{@]@^@/@T+(@_@/+g.:@<@e+,+f+>+N.i+e.'.C.[@}@B |@1@1@1@1@1@1@1@1.      ",
"        2@3@4@P.j+P.!@M.'.w+{@5@6@7@8@9@0@a@b@c@{+R+z+A+T+d@N.B+L.e@f@g@h@i@1@1@1@1@1@1@1.      ",
"        j@k@l@m@i+{+e.x+n@.@7+o@p@q@r@s@t@u@v@w@x@y@z@R+S+'+)+A@/+C.B@L B C@D@D@D@D@D@D@1.      ",
"        E@F@N.!+N.G@*@H@I@N.J@K@L@M@D@D@D@D@D@N@O@P@f.&@d+e+,+T+Q@*+R@S@G.T@U@V@W@X@;.D@1.      ",
"        Y@7+T+g+d@!+Z@`@ #.#+#@###D@D@D@D@D@D@D@$#%#&#*#=#R+y+f+-#;#>#,#'#)#!#~#{#]#^#/#1.      ",
"        (#A@A+,+_#:#^@<#!+[#}#|#1#2#2#2#2#2#2#2#2#3#4#5#L+d.e.I 0+n+R.'.u+6#R.7#8#9#B 0#a#      ",
"        b#c#d+w+d#e#f#g#h#i#w.j#2#2#2#2#2#2#2#2#2#k#l#L.e+m+~.G m#h+R+n#'+)+h+o#~.p#q#B r#      ",
"        s#t#u#v#w#x#y#z#A#B#B C#D#D#D#D#D#D#D#D#D#E#F#0+z+B._@M.G#b+c+H#e+,+f+>+9+I#J#B K#      ",
"        L#M#N#O#P#Q#R#S#T#U#g@V#W#D#D#D#D#D#D#D#D#X#Y#C.M+T G@#@N+Z#w+&@z+`# $M.6#.$+$@$#$      ",
"        $$%$&$*$N#=$-$;$'+>$,$B '$)$)$)$)$)$)$)$)$!$~${$u+j+]$^$@@/$($_$:$<$[$}$|$1$2$)$a#      ",
"        3$4$5$6$%$*$7$8$9$0$a$w.b$c$)$)$)$)$)$)$d$e$f$_@C+/${@g$h$i$h+j$k$l$m$n$o$)$)$)$a#      ",
"        p$q$r$s$t$u$M#v$w$S+x$y$z$A$B$)$)$)$)$C$D$E$_@!@,+F$_#G${@N+H$I$g@J$)$)$)$)$)$)$a#      ",
"        K$L$6$M$N$O$P$u$Q$d#R$S$T$L U$V$W$X$Y$Z$`$R.{+j+^$ %.%+%@%z@#%$%B %%E#E#E#E#E#E#a#      ",
"        &%*%=%-%;%>%,%5$6$'%)%Z#!%~%{%]%^%/%(%_%B.G@m@i+:%<%[%}%@%H#|%1%2%3%E#E#E#E#E#E#a#      ",
"        4%5%6%7%8%9%0%r$s$5$7%%$u#a%H#b%c%R+.@d%=%e%h+h+f%q$g%<%h%i%j%B k%3%3%3%3%3%3%3%l%      ",
"        @.Z+m%n%8%o%8%p%M$N$O$t$u$M#N#t#P#Q#R#q%r%F$g+A+s%:#t%d%u%v%w%w.x%y%3%3%3%3%3%3%l%      ",
"        z%A%B%C%D%o%o%E%F%;%>%,%G%P$&$*$N#=$-$)%H%I%f+~@u#J%C%n%K%O+L%M%B N%O%3%3%3%3%3%l%      ",
"        P%Q%t%0%o%o%o%o%o%R%-%0%r$,%5$6$%$*$7$S%y+n#,+'+T%f#U%V%u#W%X%Y%Z%B `% & & & & &l%      ",
"        .&+&O$o%o%o%@&5$o%o%o%8%9%M$r$s$t$u$%$v$f#V%z@n##&$&U%%&g#s%&&*&=&-&B ;& & & & &l%      ",
"        >&*$o%o%o%,&'&)&C%,&R%o%o%D%p%M$N$O$P$u$Q$!&_#~&{&]&^&d%/&(&J%]@_&:&<&;&[&[&[&[&l%      ",
"        }&|&1&2&3&4&5&6&7&8&9&0&a&2&b&c&d&d&e&f&g&h&i&j&k&l&m&n&o&p&q&r&s&t&u&v&w&w&w&v&x&      "};
