/* XPM */
static const char * mmex_xpm[] = {
"32 32 330 2",
"  	c None",
". 	c #4EAE33",
"+ 	c #56B43B",
"@ 	c #6DBD4F",
"# 	c #72BE55",
"$ 	c #6CBC4E",
"% 	c #57B43A",
"& 	c #4DAF31",
"* 	c #4CAD32",
"= 	c #70BC52",
"- 	c #ABD78B",
"; 	c #DAECB5",
"> 	c #E4F0B4",
", 	c #D8EAA2",
"' 	c #CCE58F",
") 	c #D9EBB5",
"! 	c #A9D789",
"~ 	c #6EBB51",
"{ 	c #4CAD33",
"] 	c #49AB33",
"^ 	c #73BC57",
"/ 	c #C9E4A7",
"( 	c #CEE494",
"_ 	c #ADD661",
": 	c #92C832",
"< 	c #89C425",
"[ 	c #91C833",
"} 	c #AED662",
"| 	c #CEE495",
"1 	c #C8E4A6",
"2 	c #72BC57",
"3 	c #4AAC32",
"4 	c #50AB39",
"5 	c #ADD68C",
"6 	c #C7E28E",
"7 	c #95CA3E",
"8 	c #87C326",
"9 	c #96CA3F",
"0 	c #C7E18E",
"a 	c #AAD58A",
"b 	c #50AD3A",
"c 	c #5DB146",
"d 	c #C6E2A4",
"e 	c #AAD362",
"f 	c #84C126",
"g 	c #AAD364",
"h 	c #C5E0A3",
"i 	c #5DB045",
"j 	c #59AE43",
"k 	c #C7E1A1",
"l 	c #99CB4D",
"m 	c #82C027",
"n 	c #9ACC4E",
"o 	c #C8E1A2",
"p 	c #58AE42",
"q 	c #4FA73B",
"r 	c #BDDC9B",
"s 	c #94C947",
"t 	c #80BF27",
"u 	c #94C948",
"v 	c #BEDC9B",
"w 	c #4FA83B",
"x 	c #44A032",
"y 	c #A2CE86",
"z 	c #9ECC5B",
"A 	c #7EBE28",
"B 	c #4A7E2A",
"C 	c #44752A",
"D 	c #9FCD5D",
"E 	c #A0CD83",
"F 	c #44A033",
"G 	c #67B152",
"H 	c #B2D781",
"I 	c #7BBC28",
"J 	c #79B928",
"K 	c #639D29",
"L 	c #578E29",
"M 	c #37652B",
"N 	c #32602B",
"O 	c #548A29",
"P 	c #659F29",
"Q 	c #7ABA28",
"R 	c #B3D784",
"S 	c #439E34",
"T 	c #A9D18B",
"U 	c #84C03C",
"V 	c #79BB29",
"W 	c #6AA82A",
"X 	c #36642B",
"Y 	c #2D592B",
"Z 	c #3B6B2B",
"` 	c #73B429",
" .	c #87C13F",
"..	c #A8D18A",
"+.	c #429E33",
"@.	c #5EAA4C",
"#.	c #A8D27A",
"$.	c #77BA2A",
"%.	c #77B92B",
"&.	c #37662B",
"*.	c #2C582B",
"=.	c #2E5B2B",
"-.	c #2E5C2A",
";.	c #2C592A",
">.	c #467A2A",
",.	c #AAD37B",
"'.	c #5EAA4B",
").	c #87BF70",
"!.	c #8CC451",
"~.	c #74B82A",
"{.	c #65A42A",
"].	c #2C572A",
"^.	c #325E2A",
"/.	c #6BAC2A",
"(.	c #3F702A",
"_.	c #38672A",
":.	c #629F2A",
"<.	c #2C582A",
"[.	c #6FB12A",
"}.	c #8DC452",
"|.	c #85BE6D",
"1.	c #3C9633",
"2.	c #A1CC84",
"3.	c #76B931",
"4.	c #72B72B",
"5.	c #5B982B",
"6.	c #2C562A",
"7.	c #3E702A",
"8.	c #3F6F2A",
"9.	c #38662A",
"0.	c #43752A",
"a.	c #35632A",
"b.	c #65A52B",
"c.	c #76B932",
"d.	c #A0CC84",
"e.	c #3C9532",
"f.	c #449939",
"g.	c #A4CE7E",
"h.	c #6FB62B",
"i.	c #60A12B",
"j.	c #2B552A",
"k.	c #305D2A",
"l.	c #65A62B",
"m.	c #3D6E2A",
"n.	c #36652A",
"o.	c #A2CF7D",
"p.	c #429737",
"q.	c #4F9E43",
"r.	c #99C970",
"s.	c #6DB42C",
"t.	c #6BB02C",
"u.	c #325E29",
"v.	c #2B5429",
"w.	c #2B5529",
"x.	c #2D5729",
"y.	c #305D29",
"z.	c #5A982B",
"A.	c #6BB22C",
"B.	c #95C76B",
"C.	c #4F9C42",
"D.	c #549E45",
"E.	c #8EC463",
"F.	c #6BB32C",
"G.	c #5A9A2B",
"H.	c #2E5A2A",
"I.	c #315D29",
"J.	c #4D872A",
"K.	c #6AB32C",
"L.	c #8CC361",
"M.	c #539E46",
"N.	c #509C44",
"O.	c #8BC261",
"P.	c #69B22D",
"Q.	c #62A72D",
"R.	c #43792B",
"S.	c #315D2A",
"T.	c #2A5329",
"U.	c #43792A",
"V.	c #89C260",
"W.	c #519B45",
"X.	c #4A9640",
"Y.	c #8AC165",
"Z.	c #66B02D",
"`.	c #396B2A",
" +	c #305B29",
".+	c #41762A",
"++	c #2A5229",
"@+	c #5C9F2C",
"#+	c #88C061",
"$+	c #49973F",
"%+	c #3B8B35",
"&+	c #89C16A",
"*+	c #64AF2E",
"=+	c #53942D",
"-+	c #4D892C",
";+	c #5EA62D",
">+	c #39692A",
",+	c #336129",
"'+	c #3C6E2A",
")+	c #2A5128",
"!+	c #4C882B",
"~+	c #88C067",
"{+	c #3B8B36",
"]+	c #348633",
"^+	c #7FB868",
"/+	c #65AF34",
"(+	c #62AE2F",
"_+	c #3D722B",
":+	c #295028",
"<+	c #4B882C",
"[+	c #37682A",
"}+	c #326029",
"|+	c #41772B",
"1+	c #4A872C",
"2+	c #66AF35",
"3+	c #7EB865",
"4+	c #368632",
"5+	c #63A653",
"6+	c #6EB346",
"7+	c #5FAC2F",
"8+	c #48842C",
"9+	c #294F28",
"0+	c #305A29",
"a+	c #58A12E",
"b+	c #559C2E",
"c+	c #2D5629",
"d+	c #50922D",
"e+	c #6EB446",
"f+	c #62A452",
"g+	c #44903E",
"h+	c #76B655",
"i+	c #5DAB30",
"j+	c #5AA530",
"k+	c #295128",
"l+	c #2A5028",
"m+	c #2A4F28",
"n+	c #2F5A29",
"o+	c #5CAA30",
"p+	c #76B656",
"q+	c #448F3D",
"r+	c #318032",
"s+	c #68AA55",
"t+	c #62AD3A",
"u+	c #5BAA30",
"v+	c #4F952E",
"w+	c #2E5828",
"x+	c #284E27",
"y+	c #2D5728",
"z+	c #50972E",
"A+	c #62AE3B",
"B+	c #67AA55",
"C+	c #328032",
"D+	c #3C893A",
"E+	c #6EB351",
"F+	c #58A931",
"G+	c #56A630",
"H+	c #488B2E",
"I+	c #3F7A2C",
"J+	c #2D5628",
"K+	c #2B5327",
"L+	c #56A531",
"M+	c #6EB352",
"N+	c #3D893A",
"O+	c #2F7A32",
"P+	c #579E49",
"Q+	c #61AC41",
"R+	c #56A731",
"S+	c #34632A",
"T+	c #2F5B29",
"U+	c #61AC42",
"V+	c #579E48",
"W+	c #2F7B32",
"X+	c #2F7C33",
"Y+	c #5DA44A",
"Z+	c #5BA93B",
"`+	c #54A632",
" @	c #4C9430",
".@	c #4A9230",
"+@	c #5BA93C",
"@@	c #5BA349",
"#@	c #2F7933",
"$@	c #327E34",
"%@	c #5EA848",
"&@	c #56A739",
"*@	c #51A532",
"=@	c #56A73A",
"-@	c #5EA849",
";@	c #327D35",
">@	c #2E7935",
",@	c #529D42",
"'@	c #56A53C",
")@	c #4FA333",
"!@	c #56A63B",
"~@	c #529D43",
"{@	c #2E7A35",
"]@	c #2B7634",
"^@	c #47943D",
"/@	c #56A63F",
"(@	c #50A337",
"_@	c #4DA233",
":@	c #56A73F",
"<@	c #46943C",
"[@	c #2B7632",
"}@	c #2F7A34",
"|@	c #44933A",
"1@	c #51A33B",
"2@	c #4EA237",
"3@	c #4CA235",
"4@	c #4BA134",
"5@	c #4CA135",
"6@	c #4EA238",
"7@	c #51A33A",
"8@	c #287032",
"9@	c #266E33",
"0@	c #2E7932",
"a@	c #3C8B36",
"b@	c #499A37",
"c@	c #4DA137",
"d@	c #4CA137",
"e@	c #489A37",
"f@	c #3D8B35",
"g@	c #2E7933",
"h@	c #276E32",
"i@	c #246C33",
"j@	c #276F32",
"k@	c #2C7632",
"l@	c #2D7732",
"m@	c #2B7532",
"n@	c #276F31",
"o@	c #256C31",
"                        . + @ # # $ % &                         ",
"                  * = - ; > , ' ' , > ) ! ~ {                   ",
"              ] ^ / ( _ : < < < < < < [ } | 1 2 3               ",
"            4 5 6 7 8 8 8 8 8 8 8 8 8 8 8 8 9 0 a b             ",
"          c d e f f f f f f f f f f f f f f f f g h i           ",
"        j k l m m m m m m m m m m m m m m m m m m n o p         ",
"      q r s t t t t t t t t t t t t t t t t t t t t u v w       ",
"    x y z A A A A A A A A A A B C A A A A A A A A A A D E F     ",
"    G H I I I I I I I I J K L M N O P Q I I I I I I I I R G     ",
"  S T U V V V V V V V W X Y Y Y Y Y Y Z ` V V V V V V V  ...+.  ",
"  @.#.$.$.$.$.$.$.$.%.&.*.*.=.-.;.*.*.*.>.$.$.$.$.$.$.$.$.,.'.  ",
"  ).!.~.~.~.~.~.~.~.{.].].^./.(._.:.<.].<.[.~.~.~.~.~.~.~.}.|.  ",
"1.2.3.4.4.4.4.4.4.4.5.6.6.7.4.8.9.4.0.a.a.b.4.4.4.4.4.4.4.c.d.e.",
"f.g.h.h.h.h.h.h.h.h.i.j.j.k.l.m.n.h.h.h.h.h.h.h.h.h.h.h.h.h.o.p.",
"q.r.s.s.s.s.s.s.s.s.t.u.v.v.w.x.y.z.A.s.s.s.s.s.s.s.s.s.s.s.B.C.",
"D.E.F.F.F.F.F.F.F.F.F.G.H.v.v.v.v.v.I.J.K.F.F.F.F.F.F.F.F.F.L.M.",
"N.O.P.P.P.P.P.P.P.P.P.P.Q.R.S.T.T.T.T.T.U.P.P.P.P.P.P.P.P.P.V.W.",
"X.Y.Z.Z.Z.Z.Z.Z.Z.Z.Z.Z.Z.Z.Z.`. +.+++++T.@+Z.Z.Z.Z.Z.Z.Z.Z.#+$+",
"%+&+*+*+*+*+*+*+*+*+=+-+-+;+*+>+,+*+'+)+)+!+*+*+*+*+*+*+*+*+~+{+",
"]+^+/+(+(+(+(+(+(+(+_+:+:+<+(+[+}+(+|+:+:+1+(+(+(+(+(+(+(+2+3+4+",
"  5+6+7+7+7+7+7+7+7+8+9+9+0+a+[+u.b+c+9+9+d+7+7+7+7+7+7+7+e+f+  ",
"  g+h+i+i+i+i+i+i+i+j+c+9+9+:+k+l+m+9+9+n+o+i+i+i+i+i+i+i+p+q+  ",
"  r+s+t+u+u+u+u+u+u+u+v+w+x+x+x+x+x+x+y+z+u+u+u+u+u+u+u+A+B+C+  ",
"    D+E+F+F+F+F+F+F+F+F+G+H+I+J+K+I+H+L+F+F+F+F+F+F+F+F+M+N+    ",
"    O+P+Q+R+R+R+R+R+R+R+R+R+R+S+T+R+R+R+R+R+R+R+R+R+R+U+V+W+    ",
"      X+Y+Z+`+`+`+`+`+`+`+`+`+ @.@`+`+`+`+`+`+`+`+`++@@@#@      ",
"        $@%@&@*@*@*@*@*@*@*@*@*@*@*@*@*@*@*@*@*@*@=@-@;@        ",
"          >@,@'@)@)@)@)@)@)@)@)@)@)@)@)@)@)@)@)@!@~@{@          ",
"            ]@^@/@(@_@_@_@_@_@_@_@_@_@_@_@_@(@:@<@[@            ",
"                }@|@1@2@3@4@4@4@4@4@4@5@6@7@|@#@8@              ",
"                  9@0@a@b@c@d@d@d@d@c@e@f@g@h@                  ",
"                        i@j@k@l@l@m@n@o@                        "};
