/* XPM */
static const char * mmexico_xpm[] = {
"32 32 237 2",
"  	c None",
". 	c #4DB032",
"+ 	c #4EB135",
"@ 	c #60B745",
"# 	c #6FC054",
"$ 	c #4CAE33",
"% 	c #6EBD52",
"& 	c #A0D380",
"* 	c #D2E9AE",
"= 	c #E1EFB0",
"- 	c #D7EAA0",
"; 	c #CCE58D",
"> 	c #A0D381",
", 	c #4BAC32",
"' 	c #6FBC55",
") 	c #C6E3A5",
"! 	c #D0E798",
"~ 	c #AFD762",
"{ 	c #91C832",
"] 	c #8AC526",
"^ 	c #52AD3A",
"/ 	c #B0D890",
"( 	c #CEE599",
"_ 	c #9ACC45",
": 	c #87C326",
"< 	c #5BB044",
"[ 	c #C4E0A2",
"} 	c #ABD464",
"| 	c #85C227",
"1 	c #59AE43",
"2 	c #C9E3A4",
"3 	c #9ACC4C",
"4 	c #83C127",
"5 	c #4DA73A",
"6 	c #BADB9A",
"7 	c #96CA4C",
"8 	c #80BF28",
"9 	c #44A032",
"0 	c #9FCD83",
"a 	c #A0CE5E",
"b 	c #7EBE28",
"c 	c #4D812A",
"d 	c #477A2B",
"e 	c #61AE4D",
"f 	c #B6D987",
"g 	c #7CBD29",
"h 	c #7BBC29",
"i 	c #649E2A",
"j 	c #568D2A",
"k 	c #36642C",
"l 	c #33602C",
"m 	c #558C2A",
"n 	c #66A12A",
"o 	c #429D33",
"p 	c #A6D089",
"q 	c #89C341",
"r 	c #7ABC29",
"s 	c #6FAD29",
"t 	c #39692B",
"u 	c #2D592B",
"v 	c #3D6D2B",
"w 	c #76B729",
"x 	c #5BA749",
"y 	c #ABD27C",
"z 	c #77BA2A",
"A 	c #76B92A",
"B 	c #2D582B",
"C 	c #2F5B2B",
"D 	c #4A7E2B",
"E 	c #7DB967",
"F 	c #8FC554",
"G 	c #75B92B",
"H 	c #6AAA2B",
"I 	c #2D572B",
"J 	c #2E582B",
"K 	c #69A82B",
"L 	c #3F6F2B",
"M 	c #38662B",
"N 	c #5E992B",
"O 	c #2F5A2B",
"P 	c #74B72B",
"Q 	c #3E9532",
"R 	c #9DCA82",
"S 	c #78BA33",
"T 	c #73B82B",
"U 	c #5E9B2B",
"V 	c #2C572B",
"W 	c #3B6B2B",
"X 	c #3E6F2B",
"Y 	c #37662B",
"Z 	c #40722B",
"` 	c #35632B",
" .	c #69AA2B",
"..	c #3E9535",
"+.	c #A4CE7F",
"@.	c #70B62C",
"#.	c #62A22C",
"$.	c #2C562A",
"%.	c #2D572A",
"&.	c #63A42C",
"*.	c #3D6E2A",
"=.	c #36652A",
"-.	c #46993D",
";.	c #9ACA71",
">.	c #6EB52C",
",.	c #6CB22C",
"'.	c #34602A",
").	c #2C552A",
"!.	c #2E572A",
"~.	c #325D2A",
"{.	c #5B992B",
"].	c #4F9D45",
"^.	c #8EC564",
"/.	c #6CB42D",
"(.	c #5B9C2C",
"_.	c #2F5A2A",
":.	c #2B542A",
"<.	c #305C2A",
"[.	c #4C852C",
"}.	c #6BB32D",
"|.	c #4D9A43",
"1.	c #8AC261",
"2.	c #69B22D",
"3.	c #62A72D",
"4.	c #48802B",
"5.	c #335F2A",
"6.	c #2B5329",
"7.	c #447A2B",
"8.	c #43933B",
"9.	c #8BC267",
"0.	c #67B12E",
"a.	c #3A692A",
"b.	c #305B29",
"c.	c #3E702B",
"d.	c #2B5229",
"e.	c #5DA12D",
"f.	c #378B34",
"g.	c #8BC26A",
"h.	c #65B02E",
"i.	c #55972D",
"j.	c #4F8D2C",
"k.	c #5FA62D",
"l.	c #39692A",
"m.	c #33602A",
"n.	c #2A5229",
"o.	c #4E8B2C",
"p.	c #368632",
"q.	c #7CB764",
"r.	c #65AF34",
"s.	c #62AE2F",
"t.	c #41772B",
"u.	c #2A5129",
"v.	c #42782C",
"w.	c #38682A",
"x.	c #3E722B",
"y.	c #4C8A2D",
"z.	c #5DA24F",
"A.	c #6EB446",
"B.	c #60AD30",
"C.	c #4B892D",
"D.	c #2A5028",
"E.	c #2D5528",
"F.	c #569C2F",
"G.	c #37672A",
"H.	c #325E29",
"I.	c #559B2E",
"J.	c #2B5228",
"K.	c #53962E",
"L.	c #428E3D",
"M.	c #77B856",
"N.	c #5EAC30",
"O.	c #5CA930",
"P.	c #305C29",
"Q.	c #294F28",
"R.	c #33612A",
"S.	c #5DAB30",
"T.	c #318033",
"U.	c #6AAC56",
"V.	c #61AD3B",
"W.	c #5BAA31",
"X.	c #51972F",
"Y.	c #294E28",
"Z.	c #2F5829",
"`.	c #51982F",
" +	c #408A3C",
".+	c #6EB351",
"++	c #59A931",
"@+	c #58A831",
"#+	c #4A8C2E",
"$+	c #40792C",
"%+	c #2C5228",
"&+	c #3F762C",
"*+	c #47872D",
"=+	c #57A631",
"-+	c #2E7C32",
";+	c #59A04A",
">+	c #61AD41",
",+	c #57A832",
"'+	c #34632A",
")+	c #2F5B29",
"!+	c #307D34",
"~+	c #5FA64C",
"{+	c #5AA93A",
"]+	c #54A632",
"^+	c #4B9330",
"/+	c #4A912F",
"(+	c #337E36",
"_+	c #5EA849",
":+	c #57A73A",
"<+	c #52A533",
"[+	c #317C35",
"}+	c #56A144",
"|+	c #56A73B",
"1+	c #50A433",
"2+	c #2B7732",
"3+	c #49953D",
"4+	c #56A73F",
"5+	c #50A437",
"6+	c #4DA334",
"7+	c #297032",
"8+	c #327D35",
"9+	c #49983B",
"0+	c #51A43B",
"a+	c #4EA238",
"b+	c #4CA135",
"c+	c #4BA134",
"d+	c #276F33",
"e+	c #2F7933",
"f+	c #3A8835",
"g+	c #469838",
"h+	c #4DA138",
"i+	c #4CA137",
"j+	c #3B8936",
"k+	c #276D32",
"l+	c #266E32",
"m+	c #2A7233",
"n+	c #2D7833",
"                        . + @ # # @ + .                         ",
"                  $ % & * = - ; ; - = * > % $                   ",
"              , ' ) ! ~ { ] ] ] ] ] ] { ~ ! ) ' ,               ",
"            ^ / ( _ : : : : : : : : : : : : _ ( / ^             ",
"          < [ } | | | | | | | | | | | | | | | | } [ <           ",
"        1 2 3 4 4 4 4 4 4 4 4 4 4 4 4 4 4 4 4 4 4 3 2 1         ",
"      5 6 7 8 8 8 8 8 8 8 8 8 8 8 8 8 8 8 8 8 8 8 8 7 6 5       ",
"    9 0 a b b b b b b b b b b c d b b b b b b b b b b a 0 9     ",
"    e f g g g g g g g g h i j k l m n g g g g g g g g g f e     ",
"  o p q r r r r r r r s t u u u u u u v w r r r r r r r q p o   ",
"  x y z z z z z z z A v B B B C B B B B D z z z z z z z z y x   ",
"  E F G G G G G G G H I I J K L M N I I O P G G G G G G G F E   ",
"Q R S T T T T T T T U V V W T X Y T Z ` `  .T T T T T T T S R Q ",
"..+.@.@.@.@.@.@.@.@.#.$.$.%.&.*.=.@.@.@.@.@.@.@.@.@.@.@.@.@.+...",
"-.;.>.>.>.>.>.>.>.>.,.'.).).).!.~.{.,.>.>.>.>.>.>.>.>.>.>.>.;.-.",
"].^./././././././././.(._.:.:.:.:.:.<.[.}./././././././././.^.].",
"|.1.2.2.2.2.2.2.2.2.2.2.3.4.5.6.6.6.6.6.7.2.2.2.2.2.2.2.2.2.1.|.",
"8.9.0.0.0.0.0.0.0.0.0.0.0.0.0.a.b.c.d.d.d.e.0.0.0.0.0.0.0.0.9.8.",
"f.g.h.h.h.h.h.h.h.h.i.j.j.k.h.l.m.h.=.n.n.o.h.h.h.h.h.h.h.h.g.f.",
"p.q.r.s.s.s.s.s.s.s.t.u.u.v.s.w.5.s.x.u.u.y.s.s.s.s.s.s.s.r.q.p.",
"  z.A.B.B.B.B.B.B.B.C.D.D.E.F.G.H.I.J.D.D.K.B.B.B.B.B.B.B.A.z.  ",
"  L.M.N.N.N.N.N.N.N.O.P.Q.Q.Q.D.D.Q.Q.Q.R.S.N.N.N.N.N.N.N.M.L.  ",
"  T.U.V.W.W.W.W.W.W.W.X.P.Y.Y.Y.Y.Y.Y.Z.`.W.W.W.W.W.W.W.V.U.T.  ",
"     +.+++++++++++++++++@+#+$+E.%+&+*+=+++++++++++++++++.+ +    ",
"    -+;+>+,+,+,+,+,+,+,+,+,+,+'+)+,+,+,+,+,+,+,+,+,+,+>+;+-+    ",
"      !+~+{+]+]+]+]+]+]+]+]+]+^+/+]+]+]+]+]+]+]+]+]+{+~+!+      ",
"        (+_+:+<+<+<+<+<+<+<+<+<+<+<+<+<+<+<+<+<+<+:+_+(+        ",
"          [+}+|+1+1+1+1+1+1+1+1+1+1+1+1+1+1+1+1+|+}+[+          ",
"            2+3+4+5+6+6+6+6+6+6+6+6+6+6+6+6+5+4+3+2+            ",
"              7+8+9+0+a+b+c+c+c+c+c+c+b+a+0+9+8+7+              ",
"                  d+e+f+g+h+h+i+i+h+h+g+j+e+d+                  ",
"                        k+l+m+n+n+m+l+k+                        "};
