/* XPM */
static const char * money_euro_xpm[] = {
"15 16 96 2",
"  	c None",
". 	c #95790D",
"+ 	c #A2840B",
"@ 	c #A68507",
"# 	c #9A7C04",
"$ 	c #836900",
"% 	c #9F8313",
"& 	c #DFB71B",
"* 	c #E6BD18",
"= 	c #E0B613",
"- 	c #D8AF0D",
"; 	c #D1A908",
"> 	c #C59F03",
", 	c #483A00",
"' 	c #A88B18",
") 	c #F6CC25",
"! 	c #F2C720",
"~ 	c #D7B119",
"{ 	c #93780E",
"] 	c #7B6408",
"^ 	c #826806",
"/ 	c #6C5703",
"( 	c #927712",
"_ 	c #F7CC26",
": 	c #FCD127",
"< 	c #AB8C17",
"[ 	c #90740C",
"} 	c #95790F",
"| 	c #C4A318",
"1 	c #F4C922",
"2 	c #E6BF21",
"3 	c #927914",
"4 	c #997D13",
"5 	c #957A10",
"6 	c #A78609",
"7 	c #DCB310",
"8 	c #E2B915",
"9 	c #E9BF19",
"0 	c #EEC41D",
"a 	c #F1C720",
"b 	c #F1C71F",
"c 	c #EDC31D",
"d 	c #DBB317",
"e 	c #7A6305",
"f 	c #7D6506",
"g 	c #91760B",
"h 	c #E3B915",
"i 	c #E6BD19",
"j 	c #866E0F",
"k 	c #886F0F",
"l 	c #876F0F",
"m 	c #6D590A",
"n 	c #775F05",
"o 	c #876E08",
"p 	c #DDB411",
"q 	c #E2B814",
"r 	c #78620B",
"s 	c #826B0C",
"t 	c #80690B",
"u 	c #967700",
"v 	c #CCA405",
"w 	c #D2AA09",
"x 	c #D7AE0D",
"y 	c #DCB210",
"z 	c #DFB612",
"A 	c #E1B714",
"B 	c #D6AF11",
"C 	c #856A00",
"D 	c #866B00",
"E 	c #896E03",
"F 	c #AE8D06",
"G 	c #D6AD0B",
"H 	c #D8AF0E",
"I 	c #957A09",
"J 	c #93780B",
"K 	c #776108",
"L 	c #C7A007",
"M 	c #A78708",
"N 	c #705901",
"O 	c #C7A005",
"P 	c #CFA606",
"Q 	c #CCA407",
"R 	c #9F8004",
"S 	c #917505",
"T 	c #8E7004",
"U 	c #654F00",
"V 	c #A58502",
"W 	c #CAA203",
"X 	c #CBA203",
"Y 	c #C8A002",
"Z 	c #A08000",
"` 	c #604E00",
" .	c #7A6300",
"..	c #836700",
"+.	c #7C6200",
"@.	c #655200",
"                              ",
"                . + @ # $     ",
"            % & * = - ; > ,   ",
"          ' ) ! ~ { ] ^ /     ",
"        ( _ : <               ",
"    [ } | 1 2 3 4 5           ",
"  6 7 8 9 0 a b c d           ",
"  e f g h i j k l m           ",
"    n o p q r s s t           ",
"  u v w x y z A A B           ",
"  C D E F G H I J K           ",
"          L w M               ",
"          N O P Q R S T       ",
"            U V W X W Y Z     ",
"                `  ...+.@.    ",
"                              "};
