/* XPM */
static const char *money_dollar_xpm[] = {
/* columns rows colors const chars-per-pixel */
"16 16 83 1",
"R c #99CC96",
"9 c #75BA6E",
"W c #58AC56",
"t c #AFD6AA",
"8 c #9CCD96",
"S c #90C88C",
"E c #84C381",
"U c #6CB667",
", c #95C990",
"J c #9ACD96",
"F c #4FA54C",
"h c #8EC588",
"< c #59AA53",
"m c #59AA54",
"f c #6FB768",
"6 c #8CC585",
"d c #8CC587",
"a c #9DCE98",
"~ c #91C98E",
"b c #96CA91",
"$ c #B3D8AD",
"Y c #8AC586",
"  c None",
"c c #72B86B",
"= c #ACD4A7",
"y c #5AAB54",
"e c #5AAB55",
"* c #A5D09D",
"w c #99CB91",
"B c #70B86C",
"G c #64B05D",
"+ c #92C78A",
"n c #58AB55",
"j c #92C78C",
"M c #86C281",
"2 c #AFD5A9",
"k c #97CB91",
"r c #9CCC95",
"Q c #56AB54",
"H c #90C78B",
"4 c #89C381",
"# c #B2D6AC",
"z c #9ACC96",
"D c #8EC78B",
"X c #8EC485",
"- c #B0D6AB",
"1 c #98C990",
"! c #91C88D",
": c #AED6A8",
"L c #85C382",
"V c #79BB73",
"% c #96C98E",
"O c #B3D7AC",
"T c #9BCD97",
"o c #B1D7AA",
"q c #B1D7AC",
"3 c #A5D29F",
"N c #99CD96",
"( c #3F963D",
"g c #70B767",
"p c #AAD3A5",
"7 c #9ECE99",
"i c #9ECE9A",
"/ c #6EB768",
"I c #7FC07B",
"P c #90C98E",
"0 c #A1CF9B",
"s c #95CA8F",
"v c #95CA90",
". c #9ACB92",
"; c #ABD4A5",
"^ c #59AE56",
"l c #9FCF9B",
"x c #8CC688",
"& c #63B05A",
"@ c #91C789",
"C c #96CB90",
"> c #A2D09D",
"K c #96CB93",
"A c #61B05B",
"u c #77BA6E",
"5 c #77BA6F",
"Z c #5FB059",
/* pixels */
"       ..       ",
"      XoO+      ",
"      @#$%&     ",
"     *=-;:>,<   ",
"    123456789   ",
"    0qw    e    ",
"    rt0y        ",
"    uipasdf     ",
"     ghjklzx    ",
"         cvbn   ",
"    m     MNB   ",
"   VCjZ  ASDF   ",
"   GHJKdLPSI    ",
"     UYTREW     ",
"      Q!~^      ",
"       /U(      "
};
