/* XPM */
static const char *new_xpm[] = {
"16 16 52 1",
" 	c None",
".	c #000000",
"+	c #061017",
"@	c #101820",
"#	c #181818",
"$	c #1A2429",
"%	c #1D272C",
"&	c #2A2A2A",
"*	c #2F363C",
"=	c #363A3F",
"-	c #3A3A3A",
";	c #3F3F3F",
">	c #3F4449",
",	c #474C51",
"'	c #4E4E4E",
")	c #4C5158",
"!	c #535353",
"~	c #585858",
"{	c #5B5B5B",
"]	c #606060",
"^	c #5D6166",
"/	c #5E6368",
"(	c #666666",
"_	c #656A6E",
":	c #656B6E",
"<	c #6B6B6B",
"[	c #6D6D6D",
"}	c #777777",
"|	c #7B7B7B",
"1	c #7D7D7D",
"2	c #7F7F7F",
"3	c #808080",
"4	c #8A8A8A",
"5	c #ABAEB1",
"6	c #B4B4B4",
"7	c #BBBCBE",
"8	c #C6C6C6",
"9	c #CBCBCD",
"0	c #CDCED0",
"a	c #D0D2D3",
"b	c #D3D3D3",
"c	c #D3D3D5",
"d	c #DADADB",
"e	c #EFEFEF",
"f	c #F4F5F5",
"g	c #F7F7F7",
"h	c #F7F9F9",
"i	c #F9F9FA",
"j	c #F9FAFA",
"k	c #FAFAFA",
"l	c #FCFCFC",
"m	c #FFFFFF",
"  33333331b     ",
"  4mmmmm862b    ",
"  4mmmmm86m|b   ",
"  4mmmmm86gm}b  ",
"  4mmmmm86eem3  ",
"  4mmmmm81<<<;  ",
"  4mmmmmmmlll[  ",
"  <mmmmmmmmmm<  ",
"  (mma^$.%dmm(  ",
"  ]mm/0gmf:mm]  ",
"  {mm,7hmi)mm{  ",
"  ~mm*_@.+=mm~  ",
"  !mm>5jmk,mm!  ",
"  'mm9>...cmm'  ",
"  -mmmmmmmmmm-  ",
"  &##########&  "};
