/* XPM */
static const char * new_transaction_xpm[] = {
"16 16 108 2",
"  	c None",
". 	c #1EA70F",
"+ 	c #2FBB1E",
"@ 	c #2FB91E",
"# 	c #1EA10C",
"$ 	c #47CD37",
"% 	c #B0FFA5",
"& 	c #44C634",
"* 	c #47CA36",
"= 	c #A7FB9B",
"- 	c #40BF2F",
"; 	c #45C635",
"> 	c #A2F996",
", 	c #98F48C",
"' 	c #3BBA2B",
") 	c #40C130",
"! 	c #93F286",
"~ 	c #8AEC7D",
"{ 	c #35B427",
"] 	c #85EB77",
"^ 	c #7CE66E",
"/ 	c #32AF22",
"( 	c #1EA10B",
"_ 	c #43C831",
": 	c #41C430",
"< 	c #3DC02C",
"[ 	c #39BC2A",
"} 	c #36B827",
"| 	c #4CCA3B",
"1 	c #78E36A",
"2 	c #6EDE60",
"3 	c #3DBD2D",
"4 	c #28A419",
"5 	c #25A016",
"6 	c #239D13",
"7 	c #219810",
"8 	c #1F930E",
"9 	c #137606",
"0 	c #2EB31A",
"a 	c #A6FA9A",
"b 	c #9CF58F",
"c 	c #91F184",
"d 	c #86EB7A",
"e 	c #7DE66F",
"f 	c #73E166",
"g 	c #6BDC5D",
"h 	c #62D753",
"i 	c #59D14A",
"j 	c #51CC42",
"k 	c #4BC73B",
"l 	c #43C233",
"m 	c #3CBC2D",
"n 	c #37B626",
"o 	c #147E07",
"p 	c #2BAE19",
"q 	c #96F48A",
"r 	c #8DEE80",
"s 	c #82EA76",
"t 	c #79E46B",
"u 	c #6FDF62",
"v 	c #67D958",
"w 	c #5FD44F",
"x 	c #57D047",
"y 	c #4FCA3F",
"z 	c #47C537",
"A 	c #40BF30",
"B 	c #39B929",
"C 	c #33B423",
"D 	c #2EAF1E",
"E 	c #127A06",
"F 	c #1B950A",
"G 	c #34B324",
"H 	c #2FAE20",
"I 	c #2CAB1E",
"J 	c #2AA71B",
"K 	c #38B728",
"L 	c #53CC43",
"M 	c #4BC83C",
"N 	c #2BA91B",
"O 	c #1E930E",
"P 	c #1B900D",
"Q 	c #1A8A0C",
"R 	c #178709",
"S 	c #168208",
"T 	c #0E6904",
"U 	c #269E16",
"V 	c #49C539",
"W 	c #41C031",
"X 	c #1E920E",
"Y 	c #229811",
"Z 	c #3FBE2F",
"` 	c #38B828",
" .	c #1A8D0C",
"..	c #1E930F",
"+.	c #36B625",
"@.	c #30B01F",
"#.	c #1B8E0C",
"$.	c #2DAE1D",
"%.	c #27A917",
"&.	c #148107",
"*.	c #17870A",
"=.	c #25A715",
"-.	c #20A110",
";.	c #127B05",
">.	c #0F6B04",
",.	c #107303",
"'.	c #0F7002",
").	c #0E6301",
"            . + @ #             ",
"            $ % % &             ",
"            * % = -             ",
"            ; > , '             ",
"            ) ! ~ {             ",
"            ' ] ^ /             ",
"( _ : < [ } | 1 2 3 4 5 6 7 8 9 ",
"0 a b c d e f g h i j k l m n o ",
"p q r s t u v w x y z A B C D E ",
"F } G H I J K L M N O P Q R S T ",
"            U V W X             ",
"            Y Z `  .            ",
"            ..+.@.R             ",
"            #.$.%.&.            ",
"            *.=.-.;.            ",
"            >.,.'.).            "};
