/* XPM */
static const char * new_custom_sql_xpm[] = {
"16 16 59 1",
" 	c None",
".	c #000000",
"+	c #135DBA",
"@	c #145FBB",
"#	c #1861BB",
"$	c #1A63BD",
"%	c #1D64BD",
"&	c #1F66BF",
"*	c #226ABF",
"=	c #226AC1",
"-	c #276DC1",
";	c #276DC2",
">	c #2D71C2",
",	c #2D71C4",
"'	c #3274C4",
")	c #3274C6",
"!	c #3577C7",
"~	c #3777C6",
"{	c #3B7BC9",
"]	c #3C7DC7",
"^	c #407ECB",
"/	c #4581AA",
"(	c #4380C9",
"_	c #4582CD",
":	c #4984CB",
"<	c #4A85CE",
"[	c #4E87CD",
"}	c #4E89CE",
"|	c #518BD0",
"1	c #538BCE",
"2	c #848484",
"3	c #858585",
"4	c #588ED0",
"5	c #5890D4",
"6	c #5D93D2",
"7	c #5F95D5",
"8	c #6195D4",
"9	c #669AD7",
"0	c #6D9ED9",
"a	c #74A1DC",
"b	c #74A3DB",
"c	c #7BA6DE",
"d	c #7DA8DC",
"e	c #82ACE0",
"f	c #84ADE0",
"g	c #87AFE3",
"h	c #89B1E2",
"i	c #8CB4E3",
"j	c #90B6E5",
"k	c #99BBE7",
"l	c #9EC1EA",
"m	c #A5C6EC",
"n	c #ADCBEE",
"o	c #AFCBEF",
"p	c #B3CEEF",
"q	c #B3D0F1",
"r	c #ACE95B",
"s	c #E1EDFB",
"t	c #FFFFFF",
" qnmlkjhfda0975|",
"p2////222222222}",
"o2/rr/2....2222<",
"///rr///2232222_",
"/rrrrrr/sssssss^",
"/rrrrrr/ttttttt{",
"///rr///22222.t!",
"it/rr/ttttttttt)",
"gs////sssssssss,",
"es.2.s.222222.s;",
"cssssssssssssss=",
"btttttttttttttt&",
"0t..22222222..t$",
"9tttttttttttttt@",
"9ssssssssssssss@",
"8641[:(]~'>-*%#+"};
