/* XPM */
static const char* newacct_xpm[] = {
"16 16 29 1",
" 	c None",
".	c #8EA9BC",
"+	c #5A89A6",
"@	c #6B98B8",
"#	c #6591AE",
"$	c #538DB3",
"%	c #4581AA",
"&	c #3A749C",
"*	c #C3DDF1",
"=	c #B6D5EE",
"-	c #A5CCEA",
";	c #97C4E7",
">	c #85BBE2",
",	c #72A8D2",
"'	c #5F9BC8",
")	c #FFFFFF",
"!	c #ACE95B",
"~	c #D1E5F5",
"{	c #DAEAF7",
"]	c #E2EFF8",
"^	c #F4F9FD",
"/	c #EFF6FC",
"(	c #E9F3FA",
"_	c #F7FBFD",
":	c #FDFDFE",
"<	c #FAFCFE",
"[	c #749BB4",
"}	c #839CB5",
"|	c #85A7BC",
"                ",
"   .+@##$%&.    ",
"   .**=-;>#,'   ",
"  %%%%*=-;#);@  ",
"  %!!%**=-#));@ ",
"%%%!!%%%*=##@#$ ",
"%!!!!!!%~*=-;>$ ",
"%!!!!!!%{~*=-;$ ",
"%%%!!%%%]{~*=-# ",
"  %!!%^/(]{~*=# ",
"  %%%%_^/(]{~*@ ",
"   .):<_^/(]{~[ ",
"   .)):<_^/(]{[ ",
"   .))):<_^/(]} ",
"   .)))):<_^/(| ",
"   ............ "};
