/* XPM */
static const char *notify_xpm[] = {
/* columns rows colors const chars-per-pixel */
"16 16 86 1",
"d c #D6BD9E",
"c c #E8E8E8",
"5 c #F7F7F7",
"` c #BA781D",
"h c #F2EAE1",
"* c #73716E",
"k c #F0F0EE",
": c #FFFFFF",
"P c #DAD7D1",
"a c #DFDEDD",
"Q c #D5D3D3",
"4 c #F8F8F8",
"@ c #83817C",
". c #92908C",
"S c #D3D0CA",
"K c #FFD8AF",
"9 c #DDDBDB",
"n c #AB9E8D",
"- c #6D6B67",
"/ c #FFA819",
"z c #FFA205",
"! c #FFB138",
"$ c #7C7A76",
"R c #FFC67F",
"3 c #B8B6B5",
"  c None",
"D c #C7C5C5",
"1 c #F9F9F9",
"i c #F4F2F2",
"_ c #CB7A00",
"u c #F2F2F2",
"W c #EDE5DC",
"o c #8C8A85",
"v c #AAA8A5",
"j c #AAA8A6",
"< c #FAFAFA",
"A c #E1D7C9",
"& c #767470",
"; c #94928D",
"N c #DAD9D7",
"y c #F3F3F3",
"B c #797873",
"O c #888782",
") c #D29233",
"t c #BAB2A7",
"r c #D3CCC0",
"V c #DC8800",
"+ c #86847F",
"q c #F4F4F4",
"L c #E5DFD6",
"= c #706E6A",
"M c #A2A29D",
"g c #B6B5B3",
", c #FCFCFC",
"G c #73726D",
"Z c #C97900",
"f c #CFC3B5",
"e c #878580",
"m c #A5A3A0",
"7 c #B4B2B1",
"0 c #F5F5F5",
"l c #7B7A75",
"# c #807E79",
"8 c #8F8D88",
"C c #CDBDAA",
"X c #8F8D89",
"F c #D5D4D3",
"2 c #FDFDFD",
"H c #D98600",
"U c #CF7E00",
"% c #797773",
"6 c #F6F6F6",
"b c #EB9300",
"E c #FFD3A5",
"Y c #FFA610",
"( c #FFAF30",
"^ c #FFAC27",
"~ c #FFA613",
"x c #FFBB59",
"s c #817F7A",
"J c #FFC478",
"T c #FFC784",
"p c #B3B3B2",
"I c #BDBBBA",
"w c #E5E4E4",
"> c #FEFEFE",
/* pixels */
"                ",
"  .XoO+@#$%&*=- ",
" ;::::::>,,<121;",
" ;3:145445565:7;",
" 893:6000q05:3w8",
" e1rt:yyuiy:pa1e",
" s1dfg:h:::jak1s",
" l1zxcvbnmMNak1l",
" B1VbC7ZZASDFk1B",
" G1HJZZZKZLPIF1G",
" G1UYTTTREZW1QQG",
"  GZ!~^/z(KZGGG ",
"   )Z!!!b!Z     ",
"    )ZZZ!_      ",
"       ZZ       ",
"       `        "
};
