/* XPM */
static const char *open_xpm[] = {
"16 16 79 1",
" 	c None",
".	c #BD8855",
"+	c #B15A00",
"@	c #B77A6C",
"#	c #A41C00",
"$	c #AE5800",
"%	c #EFCF91",
"&	c #FFEBB4",
"*	c #9D1900",
"=	c #FBD9BD",
"-	c #B88455",
";	c #A95500",
">	c #FFDA6D",
",	c #FFD65F",
"'	c #931500",
")	c #F69347",
"!	c #A35100",
"~	c #FFE497",
"{	c #FFCF45",
"]	c #CCB679",
"^	c #870F00",
"/	c #F8AB6F",
"(	c #F3730F",
"_	c #9D4D00",
":	c #FFD146",
"<	c #790900",
"[	c #F7A666",
"}	c #F26A00",
"|	c #964800",
"1	c #FFD448",
"2	c #6D0400",
"3	c #F8A767",
"4	c #F46C02",
"5	c #8F4400",
"6	c #FFD74C",
"7	c #610000",
"8	c #FF8016",
"9	c #CCAC3D",
"0	c #805557",
"a	c #883F00",
"b	c #FFDB4F",
"c	c #8B521D",
"d	c #560000",
"e	c #CCAF3F",
"f	c #6D3200",
"g	c #813A00",
"h	c #FFDE53",
"i	c #E3C64A",
"j	c #CCB242",
"k	c #7A3600",
"l	c #FFE257",
"m	c #C9871F",
"n	c #AA5300",
"o	c #733100",
"p	c #FFE75B",
"q	c #D4AF40",
"r	c #6F2C00",
"s	c #FFE979",
"t	c #6C2D00",
"u	c #FFED61",
"v	c #7B4A15",
"w	c #CDA44D",
"x	c #F8C529",
"y	c #66341E",
"z	c #662900",
"A	c #FFF266",
"B	c #936925",
"C	c #7D4618",
"D	c #F1B72F",
"E	c #F0B01C",
"F	c #561C00",
"G	c #8B6C64",
"H	c #602500",
"I	c #FFF66B",
"J	c #EDB94C",
"K	c #E8A517",
"L	c #826055",
"M	c #775444",
"N	c #581E00",
"                ",
" .++++.  @#####@",
" $%&&%$  *=====*",
"-;>,,>;;;''')))'",
"!~{{{{~~~]^/(((^",
"_::::::::<[}}<}<",
"|111111123442242",
"5666666678879770",
"abbbbbbbcddebf  ",
"ghhhhhhhijjhhg  ",
"klllmnnnnnnnnnnn",
"oppqrssssssssssr",
"tuuvwxxxxxxxxxxy",
"zABCDEEEEEEEEEFG",
"HIFJKKKKKKKKKFL ",
"MNFFFFFFFFFFNM  "};
