/* XPM */
static const char * preferences_attachments_xpm[] = {
"48 48 256 2",
"   c #270E7C8ED5D5",
".  c #25087F0EDB85",
"X  c #6CD885559A37",
"o  c #6DE88F85ADE1",
"O  c #6C40914DB2C9",
"+  c #7D3C9F95BE2E",
"@  c #76109804B7FD",
"#  c #32A58311D5CD",
"$  c #3ACA84DFD1ED",
"%  c #1C348041E721",
"&  c #0A7C8361FCA9",
"*  c #0EAE8869FFFF",
"=  c #120585DAFCF9",
"-  c #139C8A90FFFF",
";  c #1BA08CFEFFAE",
":  c #17558493F452",
">  c #1E8290B7FFFF",
",  c #2112878DEEFF",
"<  c #2BE989B9E9AF",
"1  c #3F848F65E17D",
"2  c #3BF39325EC67",
"3  c #3FB09103E411",
"4  c #22AB8EF8FE12",
"5  c #29F48ED5F5BB",
"6  c #24E09240FFFF",
"7  c #2BDF9562FFDD",
"8  c #2E5A9967FFFF",
"9  c #30CD979FFFFF",
"0  c #34559A02FFFD",
"q  c #3BBC9D4FFFFF",
"w  c #3F88A1B1FFFF",
"e  c #41688785D00F",
"r  c #49D78A1ECC59",
"t  c #564F8E05C7B9",
"y  c #58109025C833",
"u  c #568892C9CE77",
"i  c #41B88F4FDEF5",
"p  c #5F3A9B7FD859",
"a  c #60FE9172C54F",
"s  c #67F09449C155",
"d  c #6BBC9AE2C9FB",
"f  c #748699A1C214",
"g  c #7AD79D4AC285",
"h  c #7AA3A116C430",
"j  c #7CFFA573CB72",
"k  c #6400A1D3DED4",
"l  c #6B08A374DC53",
"z  c #6E3CA2F9D71D",
"x  c #769EA7B5D835",
"c  c #7CC2A706D134",
"v  c #7946A8BBD66D",
"b  c #7FA2AFF9DC11",
"n  c #7596A8CBD9F7",
"m  c #403A91A1E5B7",
"M  c #42CC9871EF43",
"N  c #412C9519EA35",
"B  c #45ED9B11F180",
"V  c #40959FCAFFFF",
"C  c #5EA6A33DE821",
"Z  c #4495A1C1FFA7",
"A  c #4BDDA5DBFFF4",
"S  c #4C78A899FFFF",
"D  c #4BA0A08DF5E1",
"F  c #5153A78DFDE5",
"G  c #546DAA0DFF69",
"H  c #5BB7ADCDFF71",
"J  c #5A5EA61FF165",
"K  c #5B52B133FFFF",
"L  c #62B3A348E450",
"P  c #6EF3A9C7E3C2",
"I  c #6323A951EEB3",
"U  c #6AE4AC89EA99",
"Y  c #73D6AD7CE49F",
"T  c #704EAE73EB55",
"R  c #7DF2B26CE566",
"E  c #784CB4B1EF0D",
"W  c #7FB2B8D3EFE7",
"Q  c #6336ACCAF565",
"!  c #6095AEDEFC48",
"~  c #6BC5B0F8F4EA",
"^  c #6451B2BFFF5B",
"/  c #6B05B623FF33",
"(  c #6F02B8B7FFFF",
")  c #7F1ABBFDF7DD",
"_  c #720AB80BFC56",
"`  c #7467BAF3FF44",
"'  c #7AB1BE3FFF50",
"]  c #70EAB4EBF749",
"[  c #7EC8C147FFFF",
"{  c #81C589238D57",
"}  c #882B908B92F3",
"|  c #8E8795EB983F",
" . c #8F9999599DB5",
".. c #945C95CA92AE",
"X. c #99109AD79686",
"o. c #94F99AF99BBB",
"O. c #9AB09DA99C02",
"+. c #97D99A1594ED",
"@. c #A079A2229DE4",
"#. c #8E0C9BACA3EE",
"$. c #940D9E7AA38C",
"%. c #99AC9F57A04E",
"&. c #81959FEFB687",
"*. c #8B4F9F9FB211",
"=. c #9D88A292A2EC",
"-. c #9496A20CA9B0",
";. c #995AA53CAB47",
":. c #9FB1A8ADAA5F",
">. c #8E60A3F9B538",
",. c #8BE3A614BBF5",
"<. c #9222A4E2B4F5",
"1. c #97B8A959B5C5",
"2. c #94E5A9DABA92",
"3. c #9CA8AE70BA62",
"4. c #9A73AA07B461",
"5. c #A32FA534A33C",
"6. c #A71EA8EBA742",
"7. c #A876A9DEA638",
"8. c #A51AAB38AC2E",
"9. c #AAA5AB27AA30",
"0. c #B016B1A6AE36",
"q. c #B156B233AFE3",
"w. c #A518AE75B344",
"e. c #A13DADC7B923",
"r. c #AD96B2DDB3FE",
"t. c #B327B418B26A",
"y. c #B744B971B491",
"u. c #B9A3BB8AB76A",
"i. c #B0F1B661B8A1",
"p. c #B65AB9EABA1E",
"a. c #BBACBC15BB53",
"s. c #BFA2C0F1BDDC",
"d. c #8CF2AA37C5A3",
"f. c #87C5A6D3CA0B",
"g. c #8D8CAD99CAB4",
"h. c #885BA66BC52A",
"j. c #92FEACD4C1E0",
"k. c #93CBAF47C9C6",
"l. c #9B33AFEBC5CB",
"z. c #97ABB127C29B",
"x. c #9AB9B0E5C453",
"c. c #9638B2F7CBC1",
"v. c #9B50B3B4CBBD",
"b. c #9F1FB9ADCE9F",
"n. c #820CACA5D46E",
"m. c #8B77AFEDD462",
"M. c #85F9B2BBDCD0",
"N. c #8B3CB38ED63F",
"B. c #94CAB5C9D269",
"V. c #9B66B718D218",
"C. c #9BFEBA98D4F6",
"Z. c #9101B7D1D985",
"A. c #9FB6BCEAD8B2",
"S. c #A253B662CC47",
"D. c #A4D8B9FECDC4",
"F. c #A72EBC10CAF1",
"G. c #A4E5BCC4D327",
"H. c #AC78BDF0D1A2",
"J. c #B227BF41D167",
"K. c #8430B48CE3B2",
"L. c #8FFBB9F5E125",
"P. c #872FB959E90B",
"I. c #8BABBCBBE97D",
"U. c #939FBD4EE320",
"Y. c #9885BFB7E195",
"T. c #81B1BF05F8FD",
"R. c #B966C410C94F",
"E. c #A46BC2CADC27",
"W. c #AE83C9EFDF7B",
"Q. c #AA95C323D5A1",
"!. c #B493C43CD518",
"~. c #B9BDC6B3D3DF",
"^. c #BFD7C929D3F9",
"/. c #B5D1CE0EDF6E",
"(. c #BC08CAEFD92B",
"). c #B72BCAFFD753",
"_. c #BD01D1ABDF2F",
"`. c #9A98C144E3FE",
"'. c #8CE3C2D0F546",
"]. c #83E8C39BFFAE",
"[. c #8A0DC5F8FE79",
"{. c #8E06C94EFFCE",
"}. c #860FC13BF737",
"|. c #90D0C3EDF416",
" X c #96A1C923F72F",
".X c #9CE5CC26F521",
"XX c #906BC779FD0B",
"oX c #945DCC40FF84",
"OX c #9A24CE17FE32",
"+X c #9D99D163FFC5",
"@X c #AD95CB41E396",
"#X c #A0C7C776E99E",
"$X c #A033CA17EF09",
"%X c #AB80CDB2EAB8",
"&X c #A746C6F0E332",
"*X c #B556D44DED9D",
"=X c #BEA9DA6BEF47",
"-X c #A212CDECF4FA",
";X c #AC8BD391F5C0",
":X c #A3F2D3C5FED4",
">X c #A9EBD71EFF95",
",X c #A827D8FFFFFF",
"<X c #AD5DD977FFE2",
"1X c #A717D187F61F",
"2X c #BBB8DB8CF533",
"3X c #B1C5D835F8C7",
"4X c #B3B3DC5FFF56",
"5X c #B9BADF61FFA3",
"6X c #B404D810F5DE",
"7X c #B64DE087FFFF",
"8X c #BD61E21CFF9F",
"9X c #C3FBC45DC3CD",
"0X c #C69AC920C3F4",
"qX c #C939CAEAC710",
"wX c #C6EECA0ECADD",
"eX c #CB20CB53CAD7",
"rX c #CF23D104CCEC",
"tX c #C51DCFADDACD",
"yX c #C6AFD27DDEED",
"uX c #CBD3D4BFDE88",
"iX c #D418D42DD3F7",
"pX c #D82ED8AFD750",
"aX c #D8B3D947D815",
"sX c #DBC4DBE3DB82",
"dX c #D613D895D9FD",
"fX c #E0A7E101DFAD",
"gX c #C5FFDDEBEEF1",
"hX c #C882D713E389",
"jX c #D42ADBE9E444",
"kX c #DA24DEF0E44F",
"lX c #C2B3DF6CF489",
"zX c #CD33E1D2EE37",
"xX c #DD28E172E672",
"cX c #DE04E2B8E93F",
"vX c #C36AE4CAFFA2",
"bX c #CA39E6EFFCD9",
"nX c #CD19EB8FFFBA",
"mX c #C6BFE2F6F6B9",
"MX c #D4E6EDC7FD84",
"NX c #DBF1EE9DF2CB",
"BX c #D5F4F19FFFFF",
"VX c #DBD6F32CFF77",
"CX c #E2DFE314E2D1",
"ZX c #E84FE89FE7CD",
"AX c #E48BE765EA4D",
"SX c #E5E1E945ED1B",
"DX c #EEEEEEFDEF04",
"FX c #F063F0AFF039",
"GX c #EC3AEE9EF15F",
"HX c #EFA1F123F375",
"JX c #E5C5FC5BFFFF",
"KX c #F3A3F3A6F3A0",
"LX c #F875F883F85B",
"PX c #F683F7A3F8E3",
"IX c #FD98FD99FD98",
"UX c None",
"UXUXUXUX5.eXeXeXeXeXeXeXeXeXeXeXeXeXeXeXeXeXeXeXeXeXeXeXeXeXeXeXeXa.UXUXUXUXUXUXUXUXUXUXUXUXUXUX",
"UXUXUXUX9.IXIXIXIXIXIXIXIXIXIXIXIXIXIXIXIXIXIXIXIXIXIXIXIXIXIXIXIX9XeXUXUXUXUXUXUXUXUXUXUXUXUXUX",
"UXUXUXUX9.IXIXIXIXIXIXIXIXIXIXIXIXIXIXIXIXIXIXIXIXIXIXIXIXIXIXIXIX9XrX9XUXUXUXUXUXUXUXUXUXUXUXUX",
"UXUXUXUX9.IXIXIXIXIXIXIXIXIXIXIXIXIXIXIXIXIXLX0Xt.y.sXLXIXIXIXIXIXwXiXiXwXUXUXUXUXUXUXUXUXUXUXUX",
"UXUXUXUX9.IXIXIXIXIXIXIXIXIXIXIXIXIXIXIXIXCX+.y.rX0X9.q.LXIXIXIXIXwXpXiXiXwXUXUXUXUXUXUXUXUXUXUX",
"UXUXUXUX9.IXIXIXIXIXIXIXIXIXIXIXIXIXIXIXLX@.0X9.@.@.0.y.9XIXIXIXIXwXsXpXiXiX9XUXUXUXUXUXUXUXUXUX",
"UXUXUXUX9.IXIXIXIXIXIXIXIXIXIXIXIXIXIXIX9.0X+.FXIXIXqXu.9.CXIXIXIXeXsXsXiXiXiX9XUXUXUXUXUXUXUXUX",
"UXUXUXUX9.IXIXIXIXIXIXIXIXIXIXIXIXIXIXZXy.0.aXIXIXIXIXs.s.a.IXIXIXeXCXsXsXpXiXiX9XUXUXUXUXUXUXUX",
"UXUXUXUX9.IXIXIXIXIXIXIXIXIXIXIXIXIXIXeX9XX.LXIXIXIXIXaXu.q.KXIXIXeXCXfXsXsXpXiXiXs.UXUXUXUXUXUX",
"UXUXUXUX9.IXIXIXIXIXIXIXIXIXIXIXIXKXIX9Xu.u.LXIXIXIXIXCXs.@.FXIXIXeXDXCXfXkXsXpXiXiX9XUXUXUXUXUX",
"UXUXUXUX9.IXIXIXIXIXIXIXIXIXIXLXpXq.KXs.0X9XLXIXIXIXIXaX0X9.DXIXIXiXDXZXCXfXsXsXpXiXrX9XUXUXUXUX",
"UXUXUXUX9.IXLXIXIXIXIXIXIXIXIXKX7.s.eXqX0Xu.LXIXIXIXIXsXrX9.DXIXIXa.9XwXqX9X9X9Xs.s.9Xa.t.UXUXUX",
"UXUXUXUX9.IXIXIXLXIXIXLXIXIXLXPXy.0XeXrXa.u.LXLXLXIXIXfXrX9.DXLXIXLXIXIXIXLXLXIXLXPXPXPXa.UXUXUX",
"UXUXUXUX9.IXLXIXLXIXIXLXIXLXIXKX7.0XiXrXs.s.LXIXIXIXLXaXqX@.FXIXIXIXIXLXIXIXIXIXIXIXIXLXs.UXUXUX",
"UXUXUXUX9.IXLXIXIXLXIXIXLXSXhXl.O.s.pXrX9XqXLXIXIXKXIXpXs.5.ZXxX(.c.f.S.LXIXLXIXLXIXIXLXs.UXUXUX",
"UXUXUXUX9.IXIXLXSXhX!.k.d.C.*X=X=.qX<.9X9XqXLXLXCX0.R.3.9X6.h K.I.XXOXK.GXLXIXLXIXIXLXIXs.UXUXUX",
"UXUXUXUX9.LX(.v.V.@XmXMXBXBXnXlXr.rX,.r.qXw.D.c.*.q.<.B.wX=..X+XoXoX{.W jXIXLXIXLXLXIXLXJ.UXUXUX",
"UXUXUXUX9.LXV.JXVXBXMXnXvXvXvX2X8.0XE.>.wX3.-X,XG.a.z.Y.p.O.|.{.{.[.{.) ).PXIXLXLXIXLXIXs.UXUXUX",
"UXUXUXUX9.LXV.BXnXvXvXvX8X8X8X6X:.wX&XD.qX3.1X+Xc.y.z.I.i.-.'.[.].].].[ b.PXIXSXjXkXLXLXa.UXUXUX",
"UXUXUXUX9.LXc.nXvXvX8X8X8X4X4X;X:.wX`.v.a.z.+XOX2.a.g.I.i.$.}.].[ ' ~ U @ H.G.A.@XA.IXLXa.UXUXUX",
"UXUXUXUX9.LXG.vXvX8X4X4X4X<X<X1X%.R.`.z.i.B.oXoX2.u.g.M.0.-.Y l x x L.`.%XmXMXMXnX&XLXLXa.UXUXUX",
"UXUXUXUX9.LX(.;X8X4X4X4X,X>X>X.X5.0XZ.2.u.c.{.[.,.t.+ h t.%.E.*X2XvXvX8X4XvXvX5X8XA.LXLXa.UXUXUX",
"UXUXUXUX9.PXxXY.4X,X,X>X:X:X+X.X8.wXN.g.y.>.n n.2.0.3.).0.=.mX8X5X4X4X>X1X4X5X4X,XD.LXLXa.UXUXUX",
"UXUXUXUX6.PXHXN.4X>X:X:X+X+XoXP.%.y.+ <.t.4.mXMXR.0.R./.8.O.6X7X<X>X:X:XOX1X<X>XOX(.LXLXa.UXUXUX",
"UXUXUXUX9.PXLXg.,X+X+X+XoX{.b b.O.r.hXR.9.r.MXbXo.0.Q.Q.9.O.1X,X:X+XOXoX{.OX>X:XI.hXKXLXa.UXUXUX",
"UXUXUXUX9.PXPXv.+X+XoXoXoXR gXNXO.p.zXhX9.@.bX2X+.r.%Xb.0.;.-X+XoXoXoX[.[.T.OXoXP.kXLXLXa.UXUXUX",
"UXUXUXUX9.PXPXJ.|.oXoX{.[.R MXzX@.y._.bXw.5.F.$.0.-.>Xd.r.;. XoX{.[.].].' ) '.{.M.KXLXPXa.UXUXUX",
"UXUXUXUX9.PXKXjXR {.[.].[ M.VXzX=.0./.vXF.5.5.9.o..X+Xz.9.$.'.].].' ' ` _ / T.].m.PXKXLXa.UXUXUX",
"UXUXUXUX6.KXPXSXn [.[ [ _ L.MXmX..8.W.7X;Xb.4.1.Y.OXoXg.9.-.) [ ' _ ( / ! ! _ _ V.PXPXKXa.UXUXUX",
"UXUXUXUX9.KXPXKXj ].[ ` ~ `.bX2X%.5.E.,X>X:X.X XoX{.[.,.6.n.` _ ( ^ ! ! H G ~ ^ J.PXKXPXa.UXUXUX",
"UXUXUXUX9.PXKXKXg.[ ` ` I .X8X3X-.9.4..X+XoXoX{.].].b =...Y / / ! H H G F A J I jXKXPXKXa.UXUXUX",
"UXUXUXUX9.KXKXPXG.( ( / L %X4X>XC.X.6.$.m.'.].].[ j ..O.o ^ K H H G A A V V V L cXKXPXKXa.UXUXUX",
"UXUXUXUX9.KXKXKXyXQ / ^ L -X>XOXOXd.=.9.=.#.#. .} o.O.X Q H G G A Z Z q q 0 0 z GXFXKXKXa.UXUXUX",
"UXUXUXUX6.KXKXKXkXC ^ H k :XOXoX{.[.M.o.5.0.t.6.X.{ s H G F A Z V q q 0 9 6 4 n.KXKXKXKXa.UXUXUX",
"UXUXUXUX9.KXFXKXSXp ! G P oX{.].].[ ' E c g @ o k J G F A Z V q 0 0 8 6 4 ; ; c.KXFXKXKXa.UXUXUX",
"UXUXUXUX6.KXKXKXKXd G B P [.].[ ` _ ( / ^ ^ H G S A A Z q q 0 9 7 6 4 ; = - = H.KXKXKXKXa.UXUXUX",
"UXUXUXUX9.KXFXKXFXg.S B T [ ' _ ( / ^ ^ H G G A Z Z q q 0 8 7 6 4 ; * * & &   dXFXKXGXKXa.UXUXUX",
"UXUXUXUX7.KXKXFXKXD.Z B ~ _ / / ^ H G G F A Z V q 0 9 8 6 4 ; - - = . . t c.uXKXKXFXKXFXa.UXUXUX",
"UXUXUXUX9.KXFXKXFXtX2 M ~ / K H H G A A Z q q 0 9 7 6 6 ; ; = . $ f D.kXFXKXKXFXFXKXFXKXa.UXUXUX",
"UXUXUXUX9.FXFXFXKXkXi N H H G G A Z Z q q 0 9 6 6 6 ; : . r d.~.AXGXFXFXFXFXFXFXFXFXKXDXa.UXUXUX",
"UXUXUXUX9.KXDXKXFXGXu N G G A Z V q q 0 9 6 6 4 <   a S.tXDXFXFXFXKXDXKXFXKXFXFXFXFXFXFXa.UXUXUX",
"UXUXUXUX6.DXDXFXFXFXg N A V V q q 9 7 4 5 < r f J.kXDXFXFXFXFXDXDXDXDXDXDXDXFXDXFXFXFXDXp.UXUXUX",
"UXUXUXUX6.DXDXDXFXFXl.$ Z q 0 9 7 5   t h.wXSXGXKXFXFXDXDXFXDXFXDXKXDXDXDXFXDXDXFXDXFXFXa.UXUXUX",
"UXUXUXUX9.HXDXDXFXFX~.2 0 9 < e s S.dXDXGXFXGXFXDXFXDXFXDXFXDXDXDXDXKXDXFXDXDXDXFXFXFXDXa.UXUXUX",
"UXUXUXUX6.DXDXDXDXDXAXa u + Q.xXDXDXDXDXDXDXDXDXDXDXDXDXDXDXDXDXDXDXDXDXDXDXDXDXDXDXDXDXp.UXUXUX",
"UXUXUXUX6.GXDXDXDXDXDXDXFXDXDXDXDXDXDXDXDXDXDXDXDXDXDXDXDXDXDXDXDXDXDXDXDXDXDXDXDXDXDXDXu.UXUXUX",
"UXUXUXUX6.DXDXDXDXDXDXZXDXDXDXZXDXDXDXDXDXDXDXZXDXDXDXDXDXDXDXFXDXDXDXDXDXDXDXDXDXDXDXDXa.UXUXUX",
"UXUXUXUX6.9Xs.9X9X9X9X9X9X9X9X9X9X9Xs.9X9X9X9X9X9X9X9X9X9X9X9X9X9X9X9X9X9X9Xs.9X9Xs.9X9Xq.UXUXUX"
};
