/* XPM */
static char * preferences_network_xpm[] = {
"48 48 256 2",
"   c #4FC64FC650CA",
".  c #4BFF52765AA8",
"X  c #543C543C553E",
"o  c #46CC4CE468A0",
"O  c #455453BF6757",
"+  c #4F605BEB6CCF",
"@  c #478D5586681B",
"#  c #52215DA26CFB",
"$  c #5BB05F506390",
"%  c #43A84B167BC6",
"&  c #44AC572E7008",
"*  c #47A15BAB759C",
"=  c #51F652B07F1C",
"-  c #556363AD75E5",
";  c #638163D664ED",
":  c #67A067A06848",
">  c #6B5A6B5A6B5A",
",  c #67966734771E",
"<  c #65D66C9D74C9",
"1  c #64926DAE7B35",
"2  c #699972DE7E1A",
"3  c #746C74727489",
"4  c #77C477C478C4",
"5  c #7BA47BE17C33",
"6  c #74D877FC7B5E",
"7  c #80337FB07E44",
"8  c #FF66CC123AB0",
"9  c #9C4B8BA35E8C",
"0  c #FFFFD3A943D2",
"q  c #FFFFD9635752",
"w  c #FEBDD0BB5470",
"e  c #E2D5C049630E",
"r  c #F595CFD56A6E",
"t  c #FFFFD707675A",
"y  c #1C6C4D068C5F",
"u  c #229E4F9E8B53",
"i  c #3D694E0E8194",
"p  c #250452BD8F17",
"a  c #2CA556FE8E72",
"s  c #3AC25DF08BAB",
"d  c #26CB55349182",
"f  c #28EC566991D6",
"g  c #260058689673",
"h  c #2D255A96954B",
"j  c #31915DA196D7",
"k  c #33985F7B9862",
"l  c #35A161BB9A8A",
"z  c #3B6065629C44",
"x  c #3DE768759E55",
"c  c #355C60CC96E7",
"v  c #3C046B0DA3A1",
"b  c #3CB26F1CA907",
"n  c #4D7C531681FC",
"m  c #49F15D548B96",
"M  c #423C5F2A84DF",
"N  c #51F7563E83BF",
"B  c #5B965D568675",
"V  c #56285C6387A7",
"C  c #5D21612F8BC5",
"Z  c #503A6CBE8FBF",
"A  c #5BEC702A8779",
"S  c #412C676C921F",
"D  c #4AA2644D94A9",
"F  c #43BA66BC9879",
"G  c #42626B009F1A",
"H  c #4DA56C419914",
"J  c #543F6CDA9C7C",
"K  c #5E3B6BFF9879",
"L  c #59D679AA9CE9",
"P  c #6900680A87BD",
"I  c #638363E38C65",
"U  c #684E68E68E5B",
"Y  c #6433746985C2",
"T  c #6B4577CE8AAA",
"R  c #6DAC6F0F94BF",
"E  c #64D46CBC965C",
"W  c #70486FCE9537",
"Q  c #6BB6707297AD",
"!  c #615974839CF1",
"~  c #6F5678589F99",
"^  c #6986772E96BE",
"/  c #70F2720F95F0",
"(  c #748875B699C4",
")  c #7BB17BE69CFE",
"_  c #43256D29A29A",
"`  c #483C6FAAA389",
"'  c #4AAC72A8A595",
"]  c #4DCF790FADAC",
"[  c #4891745FA9DE",
"{  c #51FD7665A450",
"}  c #58F277B6A04D",
"|  c #54AF7AD7ABC1",
" . c #5C117E80AC79",
".. c #593A7B3AA4B4",
"X. c #55E47F66B085",
"o. c #7C4C81F3890D",
"O. c #6F82819B94C7",
"+. c #77C4873B9BF3",
"@. c #5D6680A4AE72",
"#. c #5641813AB276",
"$. c #5C0284B1B5FE",
"%. c #5FCB8AE8BC75",
"&. c #63118253A9C2",
"*. c #6BE5852DAA3F",
"=. c #76048091A6A3",
"-. c #7EF88823A09F",
";. c #77EA883FAF05",
":. c #713C82DFAB31",
">. c #63A1857FB12B",
",. c #6486894FB6C8",
"<. c #6A428AA0B4A9",
"1. c #6A198DE2BA86",
"2. c #7DE08DA2B2C6",
"3. c #6B9C9146BEA3",
"4. c #74A093DCBBE9",
"5. c #7A68971BBCB0",
"6. c #7BE29935BE9D",
"7. c #676A932FC367",
"8. c #72B89911C559",
"9. c #7C839DC0C4F8",
"0. c #73FA9E03CB91",
"q. c #7E96A515CF99",
"w. c #7D55A630D18C",
"e. c #84EF84AA83EC",
"r. c #87A187A188A3",
"t. c #8D008CD48C87",
"y. c #92FD9239900D",
"u. c #86E88A5294B3",
"i. c #947A948D94A5",
"p. c #96C597639908",
"a. c #9BEE9BE49C7A",
"s. c #BE4FB53F9C99",
"d. c #832E8384A385",
"f. c #8AFE89E6A261",
"g. c #8B8B8B9BA935",
"h. c #90858FB1ACD3",
"j. c #90F78F0DA285",
"k. c #941693AFAECA",
"l. c #87ED9551B6ED",
"z. c #81299C65C011",
"x. c #8A369412B48C",
"c. c #9357962CB289",
"v. c #9AF69A4CB266",
"b. c #9F2DA301BCB5",
"n. c #A3AEA3AEA3E4",
"m. c #AA7DAA7BAA7B",
"M. c #A301A1CBA905",
"N. c #A86FA83DBCD1",
"B. c #A679A5E7BBED",
"V. c #B06DAFA7BAF1",
"C. c #ABCBB359BDBB",
"Z. c #B43BB440B44B",
"A. c #B0DFB069BEB5",
"S. c #BB8DBB8DBB9A",
"D. c #FBBAE560A7BA",
"F. c #FDB2ECDABB9D",
"G. c #FC57E9BDB723",
"H. c #81B59CC0C062",
"J. c #8E5D9FE1C099",
"K. c #86B3A124C374",
"L. c #8D31A57DC5CE",
"P. c #8052A1ECCA2E",
"I. c #8901A662CAFA",
"U. c #8E04AB0BCDD0",
"Y. c #94A3AC32CB53",
"T. c #9A12AD8ECC2F",
"R. c #9360A82AC575",
"E. c #9C55B1E2CDFE",
"W. c #8C0BADA5D2CF",
"Q. c #9007B127D6B1",
"!. c #8EB4B269D8E6",
"~. c #948DB256D4D2",
"^. c #9B10B472D3ED",
"/. c #9C59B859D777",
"(. c #93F0B5AFDA88",
"). c #95EFB9E5DE08",
"_. c #9B95BAD4DC8A",
"`. c #AB0CADB0C3F1",
"'. c #A7C5AC41C3B3",
"]. c #AD0DB2FBC94D",
"[. c #BBE0BB52CC07",
"{. c #B157B603CB27",
"}. c #A2F9B921D4BC",
"|. c #AB26BD97D58A",
" X c #A48ABE39DB99",
".X c #A9EBBF8DD9CA",
"XX c #A640B6D4D146",
"oX c #97F3BB8BE0B9",
"OX c #9C4BBE22E1AC",
"+X c #A0F8BFABE0FE",
"@X c #A60DC11EDF2A",
"#X c #AAABC1EFDCC4",
"$X c #B419C4FADA97",
"%X c #B73DC9E7DEE5",
"&X c #BD51CC21DF06",
"*X c #BD07C409D6C5",
"=X c #A49DC455E5E1",
"-X c #AA75C6A9E548",
";X c #AE71C977E5EC",
":X c #ADC1CBABEAFA",
">X c #B3D0CBA8E503",
",X c #BC19CEC8E49E",
"<X c #B2D4CEF2EBB9",
"1X c #BC3FD14BE7C4",
"2X c #B6A8D237EED9",
"3X c #BD36D43BECBC",
"4X c #BAE2D624F248",
"5X c #BF09D92AF41B",
"6X c #C413C413C416",
"7X c #CB09CB07CB17",
"8X c #CB42CB3ED69E",
"9X c #CDBECECBDB2E",
"0X c #C59BC52BD4A3",
"qX c #CECBD0B1D5D9",
"wX c #D433D434D439",
"eX c #D522D5C6DA6C",
"rX c #DBE9DBC8DC5A",
"tX c #FFFFF52BCC97",
"yX c #FEBDF53DD83B",
"uX c #C29FCFB6E0E4",
"iX c #C5ECD26AE2E7",
"pX c #CBD9D743E5E7",
"aX c #CC49D8ECE80D",
"sX c #C2E5D611EB4A",
"dX c #CC13DC0BEDD5",
"fX c #DD30DD15E35B",
"gX c #D277DF04ED95",
"hX c #C400DC7AF59C",
"jX c #CA42DF1CF4B2",
"kX c #C4A7DE6FF8A9",
"lX c #D5D1E15CEE8D",
"zX c #DB57E3A1EE1B",
"xX c #CCCEE128F64E",
"cX c #CB7AE315FAF0",
"vX c #D418E408F4C3",
"bX c #DAA2E66AF2BA",
"nX c #DE98E9CCF5AF",
"mX c #D2ACE6F5FB75",
"MX c #D4E8E9F9FF00",
"NX c #DDC7EDE0FDD2",
"BX c #DF01F0B3FFFF",
"VX c #E372E370E3DF",
"CX c #E2CCE2A3E980",
"ZX c #EE7EEE7DEE8D",
"AX c #FAA7F65AEA89",
"SX c #E382EB2AF418",
"DX c #EAD9EE23F38D",
"FX c #E2D8EE48FA3C",
"GX c #EDA9F218F79D",
"HX c #E4EFF1FFFE47",
"JX c #EDCAF669FEF4",
"KX c #F48EF48DF49D",
"LX c #F17FF6DFFC97",
"PX c #F621FA28FE3F",
"IX c #FDC5FDD5FDE5",
"UX c None",
"UXUXUXUXn.7X7X7X7X7X7X7X7X7X7X7X7X7X7X7X7X7X7X7X7X7X7X7X7X7X7X7X7XS.UXUXUXUXUXUXUXUXUXUXUXUXUXUX",
"UXUXUXUXm.IXIXIXIXIXIXIXIXIXIXIXIXIXIXIXIXIXIXIXIXIXIXIXIXIXIXIXIX6X7XUXUXUXUXUXUXUXUXUXUXUXUXUX",
"UXUXUXUXm.IXIXIXIXIXIXIXIXIXIXIXIXIXIXIXIXIXIXIXIXIXIXIXIXIXIXIXIX6XwX7XUXUXUXUXUXUXUXUXUXUXUXUX",
"UXUXUXUXm.IXIXIXIXIXIXIXIXIXIXIXIXIXIXIXIXIXIXIXIXIXIXIXIXIXIXIXIX6XwX7X7XUXUXUXUXUXUXUXUXUXUXUX",
"UXUXUXUXm.IXIXIXIXIXIXIXIXIXIXIXIXIXIXIXIXIXIXIXIXIXIXIXIXIXIXIXIX7XwXwXwX6XUXUXUXUXUXUXUXUXUXUX",
"UXUXUXUXm.IXIXIXIXIXIXIXIXIXIXIXIXIXIXIXIXIXIXIXIXIXIXIXIXIXIXIXIX6XrXrXwXwX6XUXUXUXUXUXUXUXUXUX",
"UXUXUXUXm.IXIXIXIXIXIXIXIXIXIXIXIXIXIXIXIXIXIXIXIXIXIXIXIXIXIXIXIX7XrXrXeXwXwX6XUXUXUXUXUXUXUXUX",
"UXUXUXUXm.IXIXIXIXIXIXIXIXIXIXIXIXIXIXIXIXIXIXIXIXIXIXIXIXIXIXIXIX7XVXrXrXrXwXwX6XUXUXUXUXUXUXUX",
"UXUXUXUXm.IXIXIXIXIXIXIXIXIXIXIXIXIXIXIXIXIXIXIXIXIXIXIXIXIXIXIXIX7XVXrXrXrXwXwX7X6XUXUXUXUXUXUX",
"UXUXUXUXn.IXIXIXIXIXIXIXIXIXIXIXIXIXIXIXIXIXIXIXIXIXIXIXIXIXIXIXIX7XZXVXVXrXrXeXwXwX6XUXUXUXUXUX",
"UXUXUXUXm.IXIXIXIXIXIXIXIXIXIXIXIXIXzX`.d.W I B I I ( c.0XKXIXIXIXwXZXCXVXVXrXrXrXwX7X6XUXUXUXUX",
"UXUXUXUXm.IXIXIXIXIXIXIXKXIXIXIX[.W N ) T.T.Y.K.Y.^.L.2.E B h.CXIXS.6X7X7X6X6X6XS.6X6XS.Z.UXUXUX",
"UXUXUXUXm.IXKXIXIXKXIXIXIXKXCXI Q J.-XU.,. .| ..| W.oX).).W.:.N c.KXPXIXKXIXIXKXIXKXIXKXS.UXUXUX",
"UXUXUXUXm.IXIXIXIXIXIXIXIX8X( XX/._.4X-X8.<.4.4.5.-X+X!.w.w.w.9.K B eXIXIXIXIXIXIXKXIXIXS.UXUXUX",
"UXUXUXUXm.IXIXIXIXIXIXKX[.c.#X X~.1.P.cX XH.T.$X1X1X>X_.(.+X.X,XbX*Xd.9XIXIXIXIXIXIXIXIX6XUXUXUX",
"UXUXUXUXm.IXKXIXKXIXIX[.`.iX,XsXvX.X>XMX.X.XnXFXvX,XjXbXbX$X}.L.&.9.E.c.ZXKXIXKXIXKXIXKXS.UXUXUX",
"UXUXUXUXm.IXIXIXIXPX8X{.nXGXLXlXT.1XNXNXNXnXPXIXLXLXLXlX/.` ] $.h d l  .R ZXIXPXIXIXIXKXS.UXUXUX",
"UXUXUXUXm.IXKXKXIXfXB.zXIXIXIXSXaXaXLXPXPXIXIXIXIXIXlX/.(.1.,.b k l h x H = KXKXKXIXKXIXS.UXUXUX",
"UXUXUXUXm.KXIXIXKXk.iXDXIXIXIXSXaXuXjXJXJXIXIXIXIXPXJXSXgXE.>.l h h j h _ m c.PXIXKXIXKX6XUXUXUX",
"UXUXUXUXm.IXIXKX8X].aXaXPXIXKX$X#XmXxXNXLXIXIXIXIXHXbX}.6.R.&X,XR.` d f h ' % CXKXIXKXIXS.UXUXUX",
"UXUXUXUXm.IXIXKXd.XXL.XX&XpX*X1XvXNXBXJXPXJXJXJXFXnX>X5.<.$.`  .Y.pX}.G y z S h.IXKXKXIXS.UXUXUX",
"UXUXUXUXm.KXIX[.E 8.4.U.E.E.sXHXHXMXJXJXBXHXHXHXNXvXH.4.=X).8.#.[ l K.gXL.d G = ZXIXIXKXS.UXUXUX",
"UXUXUXUXm.IXPXW *.| @.4.5.^.BXNXMXLXJXMXBXBXNXMXvXjX.X8.$.$.w.w.0.%.l z |.$X' i [.IXKXIXS.UXUXUX",
"UXUXUXUXm.KXPX`.&.G G | 3.xXMXMXLXJXMXMXMXMXcXxXhX<X,.z z l ' ] [ ] l d u 5.$XD f.KXPXKXS.UXUXUX",
"UXUXUXUXm.KX9XeX<.| !.OX(.kXkXJXJXMXMXMXcXcXcX5X4X7.k _ F _ k k c h v h f g 5.R.R KXIXKXS.UXUXUX",
"UXUXUXUXm.KXN.x.%X~.2X3XhXhXnXJXcXcXcXcXcXkX4X4X/._ _ G _ k _ k l j b v p h c z./ KXKXKXS.UXUXUX",
"UXUXUXUXm.KXv.! pXdX/.sXdXbXLXxX5XcXkX5X5X4X2X2XH.z _ _ v F k k c h h b h p p @./ PXIXKXS.UXUXUX",
"UXUXUXUXm.KXc.2.U.zX#XsXbXPXNXjXhX2X4X2X2X2X:X:X7.G _ z k _ k k c h h v l h c L V KXKXKXS.UXUXUX",
"UXUXUXUXm.KXv.l.;X3XGXzXPXGXsXjX5X2X2X:X:X-X=X=X8.z G z F z k k j h h h k c l ..V KXKXKXS.UXUXUX",
"UXUXUXUXm.KX'.g.<X1XSXIXIXPX9XE.}.2X-X=X=X=XOXOX(.| k z k k k k j h h p p a x O.B KXKXKXS.UXUXUX",
"UXUXUXUXm.KXpX( >X,XSXIXIXIX9XY.9.U.=XOX_.2 < < Y ^ Z  .>.[ k k j h h p p c @.! U KXKXKXS.UXUXUX",
"UXUXUXUXm.KXKXQ #X>XvXIXIXPXzXY.<.' 8.).O.e.VXrX6XZ.a.r.6 , + * * M s a p ..*.C g.KXKXKXS.UXUXUX",
"UXUXUXUXm.KXKX) T. XbXSX$X#XpXzX9.x c Z ; p.wXZXKXKXKXKXKXZXVXwX6Xm.i.5 1 < # o A.KXKXKXS.UXUXUX",
"UXUXUXUXn.KXKXv.;._.SX>XR.K.5.K.9XY.G 1 n.n.6XVXVXVXZXZXZXZXZXKXKXIXIXIXKXZXzXm.n.KXKXKXS.UXUXUX",
"UXUXUXUXm.KXKXrXn _.lXQ.H.>. .G x K.C.S.IXIXPXKXZXZXZXZXKXKXKXKXKXKXKXKXKXt 0 r t.KXGXKXS.UXUXUX",
"UXUXUXUXm.KXZXKX) l.1X7.8.' z c c h +.S.IXIXIXIXIXIXIXIXKXIXKXKXKXKXKXKXKXG.D.F.9 HXZXKXS.UXUXUX",
"UXUXUXUXm.KXZXKXrX/ #XX.L A - # + O 2 n.rXKXIXIXIXIXIXIXKXIXKXKXKXKXKXIXPXD.8 q 9 eXKXZXS.UXUXUX",
"UXUXUXUXm.DXKXKXKXN.-.T o.a.n.t.4 ; X r.i.n.n.S.6X7XwXwXVXVXKXKXKXKXKXKXIXAXF.F.s.Z.ZXKXS.UXUXUX",
"UXUXUXUXm.KXZXZXKXVXu.T u.p.a.t.4 ; X   X 3 5 S.ZXZXZXZXZXZXZXKXKXKXIXKXIXAXw 8 e y.ZXKXS.UXUXUX",
"UXUXUXUXm.ZXZXKXZXZX7X, Y A - & & O @   : e.4 m.KXZXZXZXKXKXKXKXPXKXIXIXIXIXyXtXZX9 KXZXS.UXUXUX",
"UXUXUXUXm.KXZXKXZXZXrXqXP K X.j p g b s 4 a.4 p.KXKXKXKXKXKXKXKXZXZXVXVXrXwX8XeX8XT KXZXS.UXUXUX",
"UXUXUXUXm.ZXZXZXZXZXZXZXZXu.C F x [ b x $ a.5 e.7XwX6X6X6XZ.Z.m.m.m.n.n.n.n.n.S.4 wXZXZXS.UXUXUX",
"UXUXUXUXm.ZXZXZXZXZXZXZXKXZXM.B % J { G . p.7 t.n.n.n.n.n.n.n.n.n.m.m.Z.m.Z.6X5 S.ZXZXZXS.UXUXUX",
"UXUXUXUXm.ZXZXZXKXZXZXKXZXDXfX7Xj.B V ! - y.y.n.m.m.m.Z.Z.Z.S.Z.Z.Z.m.n.a.p.e.n.AXZXZXKXS.UXUXUX",
"UXUXUXUXm.ZXZXZXZXZXZXZXZXZXZXZXrXrXeXrXa.5 S.m.m.n.a.y.r.5 5 4 5 9 u.k.m.S.7XZXZXZXKXZXZ.UXUXUX",
"UXUXUXUXm.ZXZXZXZXZXZXZXZXZXZXZXZXZXZXZXwX> 4 4 e.i.n.Z.6X7XrXZXZXZXZXGXZXZXZXZXZXZXZXZXS.UXUXUX",
"UXUXUXUXn.ZXZXZXZXZXZXZXZXZXZXZXZXZXZXZXZXZXZXZXZXZXZXZXZXZXZXZXZXAXZXZXZXZXZXZXZXZXZXZXS.UXUXUX",
"UXUXUXUXn.6X6X6X6X6X6X6X6X6X6X6X6X6X6X6X6X6X6X6X6X6X6X6X6X6X6X6X6X6XS.*X6X6X6X6X6X6X6X6Xm.UXUXUX"
};
