/* XPM */
static const char * preferences_other_xpm[] = {
"48 48 526 2",
"  	c None",
". 	c #A5A5A5",
"+ 	c #CACACA",
"@ 	c #BCBCBC",
"# 	c #AAAAAA",
"$ 	c #FFFFFF",
"% 	c #C4C4C4",
"& 	c #C8C8C8",
"* 	c #C5C5C5",
"= 	c #D0D0D0",
"- 	c #C6C6C6",
"; 	c #D4D4D4",
"> 	c #C7C7C7",
", 	c #D7D7D7",
"' 	c #FEFEFE",
") 	c #DADADA",
"! 	c #C9C9C9",
"~ 	c #DDDDDD",
"{ 	c #FDFDFD",
"] 	c #CBCBCB",
"^ 	c #E0E0E0",
"/ 	c #D1D1D1",
"( 	c #C3C3C3",
"_ 	c #E4E4E4",
": 	c #C2C2C2",
"< 	c #DEDFDD",
"[ 	c #A9ABA7",
"} 	c #F0F1F0",
"| 	c #9FA19C",
"1 	c #EEEEED",
"2 	c #CDCDCD",
"3 	c #E8E8E8",
"4 	c #D8CDC1",
"5 	c #D6CDC5",
"6 	c #D4D3D1",
"7 	c #FCFCFC",
"8 	c #F6F6F6",
"9 	c #ADAFAB",
"0 	c #B3B5B0",
"a 	c #E8E9E8",
"b 	c #C1C4BF",
"c 	c #ADAFAC",
"d 	c #FAFAFA",
"e 	c #EBEBEB",
"f 	c #E4E2E0",
"g 	c #D7AA75",
"h 	c #DEAD66",
"i 	c #DBA25C",
"j 	c #D29455",
"k 	c #D4D2CF",
"l 	c #CFCFCF",
"m 	c #C1C1C1",
"n 	c #C4C6C3",
"o 	c #D7D9D5",
"p 	c #C2C4C0",
"q 	c #EAEAE9",
"r 	c #DADCD8",
"s 	c #E2E3E1",
"t 	c #D5D6D3",
"u 	c #D0A16B",
"v 	c #ECCC87",
"w 	c #DFAA46",
"x 	c #BE822E",
"y 	c #DD8C38",
"z 	c #C79869",
"A 	c #BEBEBE",
"B 	c #B2B2B2",
"C 	c #FBFBFB",
"D 	c #ABADA8",
"E 	c #DFE0DD",
"F 	c #C5C6C2",
"G 	c #F9F9F9",
"H 	c #ECECEC",
"I 	c #DBDCD9",
"J 	c #F3F4F3",
"K 	c #B5B6B3",
"L 	c #F8F8F8",
"M 	c #F0DFCD",
"N 	c #E6BF81",
"O 	c #EABF61",
"P 	c #B68230",
"Q 	c #E08E2D",
"R 	c #CC7B28",
"S 	c #DEAD7E",
"T 	c #ADAEAA",
"U 	c #D6D8D4",
"V 	c #D5D6D2",
"W 	c #B9BAB7",
"X 	c #E2E2E1",
"Y 	c #E0E0DF",
"Z 	c #B2B4B0",
"` 	c #EFEFEE",
" .	c #F7F8F7",
"..	c #B3B5B1",
"+.	c #FBFBFA",
"@.	c #DCA96B",
"#.	c #F0D28B",
"$.	c #D39D3E",
"%.	c #C5832C",
"&.	c #DB8125",
"*.	c #C4782E",
"=.	c #E9CCB3",
"-.	c #BDBDBD",
";.	c #D2D3D1",
">.	c #B2B3B0",
",.	c #C2C4C1",
"'.	c #CBCCC9",
").	c #D6D8D3",
"!.	c #D4D5D1",
"~.	c #E1E3E0",
"{.	c #E6E7E5",
"].	c #F2F2F1",
"^.	c #F5F5F4",
"/.	c #B9BBB7",
"(.	c #E9CBA8",
"_.	c #EDD097",
":.	c #E9B754",
"<.	c #AE792C",
"[.	c #E18B2A",
"}.	c #C4772A",
"|.	c #D28C4B",
"1.	c #FBFAFA",
"2.	c #F2F2F2",
"3.	c #D1D1CF",
"4.	c #D7D8D5",
"5.	c #D8D9D7",
"6.	c #B5B7B3",
"7.	c #E2E3E0",
"8.	c #DCDDDA",
"9.	c #EAEBE9",
"0.	c #F3F4F2",
"a.	c #FBFCFB",
"b.	c #C8C9C6",
"c.	c #F1F1F1",
"d.	c #F7F3EE",
"e.	c #E0B276",
"f.	c #EFD184",
"g.	c #C79137",
"h.	c #D48A2E",
"i.	c #D47E28",
"j.	c #C97F3A",
"k.	c #EEDAC8",
"l.	c #C2C2C0",
"m.	c #F7F7F7",
"n.	c #BABCB7",
"o.	c #E5E6E5",
"p.	c #EAECE9",
"q.	c #EBECE9",
"r.	c #E7E9E5",
"s.	c #DFE1DD",
"t.	c #AFB1AC",
"u.	c #F5F5F5",
"v.	c #EFEFEF",
"w.	c #E0B480",
"x.	c #F1D9A4",
"y.	c #E0AC47",
"z.	c #B47B2B",
"A.	c #E18828",
"B.	c #C2792F",
"C.	c #D59761",
"D.	c #B9BBB8",
"E.	c #FCFDFC",
"F.	c #F4F4F3",
"G.	c #BABCB8",
"H.	c #B6B7B4",
"I.	c #DBDDD9",
"J.	c #CCCFC8",
"K.	c #C5C8C1",
"L.	c #D2D5CE",
"M.	c #D3D3D3",
"N.	c #E5E5E5",
"O.	c #E1E1E1",
"P.	c #BABABA",
"Q.	c #F1E4D7",
"R.	c #E3BB81",
"S.	c #EDC670",
"T.	c #BA8531",
"U.	c #DD8D2D",
"V.	c #C27F3A",
"W.	c #C77F3D",
"X.	c #F4ECE5",
"Y.	c #D8D8D7",
"Z.	c #E3E3E1",
"`.	c #BBBCB9",
" +	c #ACAEAA",
".+	c #DADDD8",
"++	c #AFB2AB",
"@+	c #ADB0AA",
"#+	c #A8A8A7",
"$+	c #B5B5B5",
"%+	c #B7B7B7",
"&+	c #AFAFAF",
"*+	c #B4B4B4",
"=+	c #E6E6E6",
"-+	c #D8A164",
";+	c #F1D593",
">+	c #D7A040",
",+	c #B6833E",
"'+	c #A79780",
")+	c #9D9D95",
"!+	c #C7A586",
"~+	c #C8C9C7",
"{+	c #DADBD9",
"]+	c #E4E4E2",
"^+	c #A0A29D",
"/+	c #C9CAC8",
"(+	c #C8CAC7",
"_+	c #9C9E98",
":+	c #9E9E9D",
"<+	c #E3E3E3",
"[+	c #F0F0F0",
"}+	c #DCDCDC",
"|+	c #EDEDED",
"1+	c #EAEAEA",
"2+	c #D6D6D6",
"3+	c #B1B1B1",
"4+	c #E2E2E2",
"5+	c #EAD2BA",
"6+	c #E5C080",
"7+	c #EABC5C",
"8+	c #A68247",
"9+	c #C4C2B9",
"0+	c #F0F1EF",
"a+	c #A19787",
"b+	c #F7F5F3",
"c+	c #BBBBBB",
"d+	c #B4B5B2",
"e+	c #F1F2F0",
"f+	c #CECFCD",
"g+	c #9FA09F",
"h+	c #EEEEEE",
"i+	c #B6B6B6",
"j+	c #B9B9B9",
"k+	c #DEDEDE",
"l+	c #ACACAC",
"m+	c #DCB080",
"n+	c #E9C272",
"o+	c #D6A147",
"p+	c #CBC8BF",
"q+	c #D1D1CA",
"r+	c #D3BEAC",
"s+	c #CCCCCA",
"t+	c #A4A6A2",
"u+	c #D4D4D3",
"v+	c #E0E1DE",
"w+	c #A1A39E",
"x+	c #A7A9A5",
"y+	c #A6A7A5",
"z+	c #D7A16B",
"A+	c #A79879",
"B+	c #939188",
"C+	c #F6F7F6",
"D+	c #A29685",
"E+	c #B5B7B2",
"F+	c #B0B1AD",
"G+	c #B3B4B1",
"H+	c #B0B1AC",
"I+	c #C9C5BC",
"J+	c #EAE3D8",
"K+	c #CBC6BD",
"L+	c #B4B4B2",
"M+	c #A4A4A4",
"N+	c #E7E7E7",
"O+	c #BFBFBF",
"P+	c #D9D9D9",
"Q+	c #D5D5D5",
"R+	c #B7B6B5",
"S+	c #C5C1BA",
"T+	c #BDB5A9",
"U+	c #D2CFCB",
"V+	c #989993",
"W+	c #FCFCFB",
"X+	c #F5F6F5",
"Y+	c #BCBDB8",
"Z+	c #E9EAE7",
"`+	c #B1B3AE",
" @	c #DFDEDC",
".@	c #D4D3D0",
"+@	c #DCDEDA",
"@@	c #96948B",
"#@	c #AD9B82",
"$@	c #9F9D9A",
"%@	c #C2C2C1",
"&@	c #A7A5A3",
"*@	c #9C9790",
"=@	c #9C968C",
"-@	c #9E9C99",
";@	c #A7A7A6",
">@	c #C2C3C0",
",@	c #8F8F88",
"'@	c #D1D3CF",
")@	c #AEB0AC",
"!@	c #B0B2AE",
"~@	c #CFD1CC",
"{@	c #DEE0DC",
"]@	c #AAACA7",
"^@	c #A9A9A9",
"/@	c #DACBB8",
"(@	c #ACA9A1",
"_@	c #ECECEB",
":@	c #A0A19A",
"<@	c #8B7F6C",
"[@	c #B7B5B3",
"}@	c #CECECE",
"|@	c #887F71",
"1@	c #7A684D",
"2@	c #7A674C",
"3@	c #7E705C",
"4@	c #B1B0AE",
"5@	c #8A8B88",
"6@	c #C8C9C5",
"7@	c #CBCEC8",
"8@	c #EBECEA",
"9@	c #E5E6E4",
"0@	c #DDDEDB",
"a@	c #D3D5D0",
"b@	c #C4C5C2",
"c@	c #F5F4F4",
"d@	c #C5AC8A",
"e@	c #C4B69E",
"f@	c #CDCCC9",
"g@	c #C5C7C2",
"h@	c #7D7C74",
"i@	c #B4B3B1",
"j@	c #D2D2D2",
"k@	c #B1B1B0",
"l@	c #837561",
"m@	c #7D6A50",
"n@	c #7B684F",
"o@	c #7C6A54",
"p@	c #CCCCCC",
"q@	c #979895",
"r@	c #BEC1BC",
"s@	c #B9BBB5",
"t@	c #CCCFC9",
"u@	c #E4E6E3",
"v@	c #CFD1CD",
"w@	c #BBBCB8",
"x@	c #D9CDBB",
"y@	c #D0BA9D",
"z@	c #B39B78",
"A@	c #939088",
"B@	c #C5C6C4",
"C@	c #7B7B76",
"D@	c #AAA9A7",
"E@	c #DBDBDB",
"F@	c #918E89",
"G@	c #887860",
"H@	c #88765E",
"I@	c #8D877E",
"J@	c #969795",
"K@	c #989995",
"L@	c #B1B3AD",
"M@	c #CBCDC8",
"N@	c #B6B5AF",
"O@	c #B2B4AF",
"P@	c #D1D1D0",
"Q@	c #B89D7A",
"R@	c #D1BBA0",
"S@	c #8E7758",
"T@	c #81715B",
"U@	c #A9A8A5",
"V@	c #91918E",
"W@	c #7D7C78",
"X@	c #948F88",
"Y@	c #A6A5A4",
"Z@	c #A5A3A0",
"`@	c #9F9D99",
" #	c #DFDFDF",
".#	c #929292",
"+#	c #90908F",
"@#	c #7D7F7B",
"##	c #999B95",
"$#	c #D0D2CE",
"%#	c #B5B6B0",
"&#	c #9D9688",
"*#	c #BCA383",
"=#	c #EFEDE9",
"-#	c #EAE4DD",
";#	c #CCB393",
">#	c #D6BE96",
",#	c #C7B08C",
"'#	c #C8B28F",
")#	c #BEAF96",
"!#	c #CFC2AC",
"~#	c #C1B49D",
"{#	c #CBBBA2",
"]#	c #C9BDA8",
"^#	c #D8CCB8",
"/#	c #DACEBA",
"(#	c #D7CCB8",
"_#	c #D5C9B5",
":#	c #D7CBB7",
"<#	c #DACFBB",
"[#	c #CEC2AE",
"}#	c #CDC1AC",
"|#	c #C6BAA3",
"1#	c #C4B79F",
"2#	c #CFC2A9",
"3#	c #C1B297",
"4#	c #C4AF8D",
"5#	c #CEB68F",
"6#	c #D6C09D",
"7#	c #DCCFBE",
"8#	c #F4F4F4",
"9#	c #E9E3DB",
"0#	c #DCC7A6",
"a#	c #DBC399",
"b#	c #DAC197",
"c#	c #E1CCAA",
"d#	c #DDD0BE",
"e#	c #E8E2DA",
"f#	c #D8C2A1",
"g#	c #D9C197",
"h#	c #D7BD93",
"i#	c #D6BD93",
"j#	c #DDC8A7",
"k#	c #DBCFBD",
"l#	c #E7E1DA",
"m#	c #D4BF9C",
"n#	c #D5BD93",
"o#	c #D3B98F",
"p#	c #D2B98F",
"q#	c #D9C4A2",
"r#	c #DACDBC",
"s#	c #F3F3F3",
"t#	c #E6E0D8",
"u#	c #D2BB98",
"v#	c #D1B88F",
"w#	c #CFB58B",
"x#	c #CEB58B",
"y#	c #CEB58A",
"z#	c #D5BF9C",
"A#	c #D8CBBA",
"B#	c #E5DFD8",
"C#	c #CEB894",
"D#	c #CDB38B",
"E#	c #CBB187",
"F#	c #CAB187",
"G#	c #CAB186",
"H#	c #D1BB97",
"I#	c #D6CAB9",
"J#	c #E3DED6",
"K#	c #CAB38F",
"L#	c #C9AF87",
"M#	c #C7AD83",
"N#	c #C7AD82",
"O#	c #C6AD82",
"P#	c #CCB792",
"Q#	c #D3C7B7",
"R#	c #E3DDD6",
"S#	c #C6AE8A",
"T#	c #C5AB82",
"U#	c #C3A97F",
"V#	c #C3A97E",
"W#	c #C8B28D",
"X#	c #D2C6B5",
"Y#	c #E2DDD5",
"Z#	c #C1A985",
"`#	c #C0A77E",
" $	c #BFA57B",
".$	c #BFA57A",
"+$	c #C4AD87",
"@$	c #D1C5B4",
"#$	c #E1DCD5",
"$$	c #BDA480",
"%$	c #BDA37A",
"&$	c #BCA177",
"*$	c #BBA177",
"=$	c #BBA176",
"-$	c #C0A882",
";$	c #CFC3B3",
">$	c #E1DBD4",
",$	c #B9A07B",
"'$	c #B99F75",
")$	c #B89D73",
"!$	c #B79D72",
"~$	c #BBA37C",
"{$	c #CDC2B2",
"]$	c #DFDAD3",
"^$	c #B39A75",
"/$	c #B59A71",
"($	c #B4996F",
"_$	c #B4996E",
":$	c #B3996E",
"<$	c #B69E76",
"[$	c #CBC0B0",
"}$	c #DED9D2",
"|$	c #AE9670",
"1$	c #B1966C",
"2$	c #B0956A",
"3$	c #AF956A",
"4$	c #B19970",
"5$	c #C8BDAD",
"6$	c #A8A8A8",
"7$	c #CBC6BE",
"8$	c #A99069",
"9$	c #AD9267",
"0$	c #AC9166",
"a$	c #AB9166",
"b$	c #AB9066",
"c$	c #AC926B",
"d$	c #B8AD9D",
"e$	c #BBB6AF",
"f$	c #A48A64",
"g$	c #A88D63",
"h$	c #A88D62",
"i$	c #A78C62",
"j$	c #A78D63",
"k$	c #AA9E8F",
"l$	c #E9E9E9",
"m$	c #B7B3AD",
"n$	c #9D835C",
"o$	c #A78C61",
"p$	c #A3885E",
"q$	c #A69B8D",
"r$	c #CBCACA",
"s$	c #9D8E78",
"t$	c #988870",
"u$	c #988770",
"v$	c #9D8D76",
"w$	c #BCB9B4",
"x$	c #9F9F9F",
"y$	c #ABABAB",
"z$	c #ADADAD",
"A$	c #A6A6A6",
"        . + + + + + + + + + + + + + + + + + + + + + + + + + + + + @                             ",
"        # $ $ $ $ $ $ $ $ $ $ $ $ $ $ $ $ $ $ $ $ $ $ $ $ $ $ $ $ % &                           ",
"        # $ $ $ $ $ $ $ $ $ $ $ $ $ $ $ $ $ $ $ $ $ $ $ $ $ $ $ $ * = -                         ",
"        # $ $ $ $ $ $ $ $ $ $ $ $ $ $ $ $ $ $ $ $ $ $ $ $ $ $ $ $ - ; = >                       ",
"        # $ $ $ $ $ $ $ $ $ $ $ $ $ $ $ $ $ $ $ $ $ $ $ $ $ $ $ $ > , ; = -                     ",
"        # ' ' ' ' ' ' ' ' ' ' ' ' ' ' ' ' ' ' ' ' ' ' ' ' ' ' ' ' & ) , ; = *                   ",
"        # ' ' ' ' ' ' ' ' ' ' ' ' ' ' ' ' ' ' ' ' ' ' ' ' ' ' ' ' ! ~ ) , ; = *                 ",
"        # { { { { { { { { { { { { { { { { { { { { { { { { { { { { ] ^ ~ ) , ; / (               ",
"        # { { { { { { { { { { { { { { { { { { { { { { { { { { { { ] _ ^ ~ ) , ; / :             ",
"        # { { { { { < [ { { { } | 1 { { { { { { { { { { { { { { { 2 3 _ ^ ~ 4 5 6 / :           ",
"        # 7 7 7 7 8 9 0 7 7 7 a b c d 7 7 7 7 7 7 7 7 7 7 7 7 7 7 = e 3 f g h i j k l m         ",
"        # 7 7 7 7 n o p 7 7 7 q r s t 7 7 7 7 7 7 7 7 7 7 7 7 7 7 @ & > u v w x y z A @ B       ",
"        # C C C C D E F G C C H I J K C C C C C C C C C C C C C C L L M N O P Q R S 8 8 @       ",
"        # C C C C T U V W X Y Z `  ...C C C C C C C C C C C C C C C +.@.#.$.%.&.*.=.C C -.      ",
"        # C ;.>.,.'.).!.~.s {.].^.G /.C C C C C C C C C C C C C C C (._.:.<.[.}.|.1.C C -.      ",
"        # 2.3.' 4.5.6.7.8.7.9.0.a.b.c.d d d d d d d d d d d d d d d.e.f.g.h.i.j.k.d d d -.      ",
"        # d l.' m.n.o.Z 7.p.q.r.s.t.d d u.l > > ] v.d d d d d d d w.x.y.z.A.B.C.d d d d -.      ",
"        # G D.E.F.q G.G H.I.J.K.L./.m.G ] M.N.N.O.P.G G G G G G Q.R.S.T.U.V.W.X.G G G G -.      ",
"        # G Y.{.d Z.`.G ]. +.+++@+#+$+%+&+e 2.2.2.&+% *+&+=+G G -+;+>+,+'+)+!+G G G G G -.      ",
"        # L L ~+{+]+^+m.L /+(+_+:+<+[+~ }+|+~ ) 1+_ 2+[+H 3+4+5+6+7+8+9+0+a+b+L L L L L c+      ",
"        # L L L d+e+0 f+L m.| g+<+h+h+=+P.i+* & j+$+k+h+h+e l+m+n+o+p+m.q+r+L L L s+t+L c+      ",
"        # L L L <+u+v+w+L L x+y+! H }+c+) ^ ^ ^ ^ ~ m = H }+&+z+A+B+C+0.D+L L L [+E+F+L c+      ",
"        # m.m.m.m.G+} H+I+J+K+L+M+N+O+~ k+k+P+Q+k+k+k+% ^ R+S+T+U+V+W+X+Y+_ m.m.G+Z+`+m.c+      ",
"        # m.m.m.m. @.@+@@@#@$@%@P+M.; }+~ &@*@=@-@) }+) + ^ %@;@>@,@^.0.].'@)@!@~@{@]@m.c+      ",
"        ^@8 8 8 8 /@(@_@:@<@[@=+=+}@P+) - |@1@2@3@4@) ) }@=+=+}@5@6@7@h+8@{.9@0@a@'@b@8 c+      ",
"        ^@8 8 8 c@d@e@f@g@h@i@<+<+j@, , k@l@m@n@o@-@, , M.<+<+p@q@r@s@t@u@8@9@E v@w@8 8 c+      ",
"        ^@8 8 8 x@y@z@A@B@C@D@O.O.E@2+2+j@F@G@H@I@> 2+2+) O.O.* J@K@L@M@r N@O@ +P@8 8 8 c+      ",
"        ^@u.u.u.Q@R@S@T@U@V@W@X@Y@E@P+= / & Z@`@( j@M.P+ #@ .#+#@###$#%#&#*#=#u.u.u.u.u.c+      ",
"        ^@u.u.-#;#>#,#'#)#!#~#{#]#^#/#(#_#_#_#_#_#_#:#<#^#[#}#|#1#2#3#4#5#6#7#u.u.u.u.u.c+      ",
"        ^@8#8#9#0#a#b#b#b#b#b#b#b#b#b#b#b#b#b#b#b#b#b#b#b#b#b#b#b#b#b#b#b#c#d#8#8#8#8#8#c+      ",
"        ^@8#8#e#f#g#h#h#h#h#h#h#h#i#i#i#i#i#i#i#i#i#i#i#i#i#i#i#i#i#i#i#i#j#k#8#8#8#8#8#c+      ",
"        ^@8#8#l#m#n#o#o#o#o#o#o#o#o#o#p#p#p#p#p#p#p#p#p#p#p#p#p#p#p#p#p#p#q#r#8#8#8#8#8#c+      ",
"        ^@s#s#t#u#v#w#w#w#w#w#w#w#w#w#w#w#w#w#w#x#x#x#x#x#x#x#x#x#x#y#y#y#z#A#s#s#s#s#s#P.      ",
"        ^@s#s#B#C#D#E#E#E#E#E#E#E#E#E#E#E#E#E#E#E#E#E#E#F#F#F#G#G#G#G#G#G#H#I#s#s#s#s#s#P.      ",
"        ^@2.2.J#K#L#M#M#M#M#M#M#M#M#M#M#M#M#M#M#M#M#M#M#N#N#N#N#N#O#O#O#O#P#Q#2.2.2.2.2.P.      ",
"        ^@2.2.R#S#T#U#U#U#U#U#U#U#U#U#U#U#U#U#U#U#V#V#V#V#V#V#V#V#V#V#V#V#W#X#2.2.2.2.2.P.      ",
"        ^@c.c.Y#Z#`# $ $ $ $ $ $ $ $ $ $ $ $.$.$.$.$.$.$.$.$.$.$.$.$.$.$.$+$@$c.c.c.c.c.P.      ",
"        ^@c.c.#$$$%$&$&$*$*$*$*$*$*$*$=$=$=$=$=$=$=$=$=$=$=$=$=$=$=$=$=$=$-$;$c.c.c.c.c.P.      ",
"        ^@c.c.>$,$'$)$)$)$)$)$)$!$!$!$!$!$!$!$!$!$!$!$!$!$!$!$!$!$!$!$!$!$~${$c.c.c.c.c.P.      ",
"        ^@[+[+]$^$/$($($($_$_$_$_$_$_$_$_$:$:$:$:$:$:$:$:$:$:$:$:$:$:$:$:$<$[$[+[+[+[+[+P.      ",
"        ^@[+[+}$|$1$2$2$2$2$2$2$2$2$2$2$2$2$2$2$2$3$3$3$3$3$3$3$3$3$3$3$3$4$5$[+[+[+[+[+P.      ",
"        6$v.v.7$8$9$0$0$0$0$0$0$0$0$0$0$0$0$0$0$0$0$0$0$0$0$a$a$a$a$a$b$b$c$d$v.v.v.v.v.j+      ",
"        6$v.v.e$f$g$h$h$h$h$h$h$h$h$h$h$h$h$h$h$h$h$h$h$h$h$h$h$h$h$i$i$i$j$k$l$v.v.v.v.j+      ",
"        6$v.v.m$n$o$o$o$o$o$o$o$o$o$o$o$o$o$o$o$o$o$o$o$o$o$o$o$o$o$o$o$o$p$q$3 v.v.v.v.j+      ",
"        6$h+h+r$s$t$u$u$u$u$u$u$u$u$u$u$u$u$u$u$u$u$u$u$u$u$u$u$u$u$u$u$t$v$w$H h+h+h+h+j+      ",
"        6$h+h+<+; j@j@j@j@j@j@j@j@j@j@j@j@j@j@j@j@j@j@j@j@j@j@j@j@j@j@j@j@; ~ h+h+h+h+h+j+      ",
"        6$|+|+|+|+|+|+|+|+|+|+|+|+|+|+|+|+|+|+|+|+|+|+|+|+|+|+|+|+|+|+|+|+|+|+|+|+|+|+|+j+      ",
"        x$y$y$y$y$y$y$y$y$y$y$y$y$y$l+l+l+y$y$y$l+l+l+l+l+l+l+l+l+l+l+l+l+l+l+l+z$z$z$l+A$      "};
