/* XPM */
static const char *printpreview_xpm[] = {
/* columns rows colors const chars-per-pixel */
"16 16 134 2",
".  c Black",
"^  c #D9D9D8",
"N  c #4B4B43",
"c  c #878779",
"3  c #C3C3AE",
"|  c #DEDDDD",
"R  c #F7F7F7",
"S  c #878787",
"e. c #AAA9A6",
"F  c #A5A5A5",
"4. c #B9B8B5",
"7  c #080807",
"@  c #353530",
"g  c #ADAD9B",
"a. c #3A3936",
":  c #FFFFFF",
"U  c #9E9E9E",
"n  c #010101",
";  c #4C4C44",
" . c #DFDEDD",
"p  c #E9E9E9",
"5  c #A6A695",
"4  c #B5B5A2",
"O  c #C4C4AF",
"%  c #E2E2D0",
"0. c #A6A6A4",
"C  c #979797",
"q. c #ABAAA7",
"M  c #A6A6A6",
"H  c #B5B5B5",
"8. c #B0AEAC",
"<  c #090908",
"q  c #090909",
"k  c #727266",
"~  c #E2E2E2",
"j  c #909081",
"h  c #9F9F8E",
"u. c #454542",
"Q  c #F1F1F1",
"{  c #DDDBDA",
"I  c #363636",
">. c #4F4D49",
"&. c #54514E",
"_  c #A4A3A1",
"X. c #DBDBD9",
"   c None",
"s  c #DBDBDB",
"[  c #D6D4D2",
"/  c #898988",
"1. c #8E8D8A",
"i  c #0A0A09",
"A  c #D4D4D3",
"b  c #737367",
"-  c #828274",
"f. c #1E1D1B",
"8  c #E3E3E3",
"v  c #A0A090",
"#  c #828282",
"]  c #969594",
"!  c #A0A0A0",
"2. c #B4B3B1",
"9  c #CDCDCD",
"}  c #DCDCDB",
"a  c #EBEBEB",
"r  c #B7B7A4",
"1  c #D5D5BF",
"L  c #FAFAFA",
"y. c #444341",
"<. c #535251",
"P  c #999999",
"$. c #9E9D9C",
"Z  c #BCBBBB",
"d  c #929283",
"O. c #383838",
"=. c #514F4B",
",. c #514F4C",
"e  c #DDDDD0",
"Y  c #ECECEB",
",  c #ECECEC",
"2  c #FBFBFA",
"K  c #FBFBFB",
"@. c #9F9E9A",
"w. c #AEADAA",
"T  c #AEADAB",
"5. c #B3B1AF",
"(  c #0C0C0C",
"'  c #1B1B1B",
"E  c #E5E5E4",
"r. c #201F1E",
"*  c #C0C0AC",
"o  c #CFCFB9",
"-. c #52504C",
"m  c #575757",
"6. c #B1B1AE",
"&  c #EDEDE7",
"u  c #8C8C7D",
"y  c #9B9B8B",
"t  c #AAAA98",
"D  c #323232",
"B  c #414141",
"+. c #555453",
";. c #504D49",
"7. c #AFAEAC",
"0  c #D7D7D7",
"=  c #B2B29F",
"p. c #3F3E3C",
")  c #302F2F",
"#. c #A8A7A6",
"G  c #D0D0CF",
"$  c #9C9C8C",
"+  c #8D8D7F",
"i. c #42423F",
"f  c #BABAA7",
"o. c #7E7E7D",
"W  c #8D8D8D",
".. c #DDDCDB",
"6  c #959586",
"d. c #31302D",
"t. c #403F3D",
"*. c #54524E",
"V  c #777777",
"z  c #A4A4A4",
"J  c #C2C2C2",
"`  c #CCCAC6",
"x  c #34342F",
"l  c #52524C",
"X  c #9D9D8D",
"w  c #CACAB5",
">  c #EFEFEF",
"s. c #393835",
":. c #4D4B47",
"%. c #615E59",
"9. c #ACACA9",
"3. c #C0BFBC",
/* pixels */
"      . . . .                   ",
"    . X o O + @ # . . . .       ",
"  . $ % & * = - ; : > , .       ",
"  < 1 2 3 4 5 6 7 8 9 0 .       ",
"  q w e r t y u i p a s .       ",
"  . d f g h j k l . z s .       ",
"    x c v d b n m M a s .       ",
"      N i i B V n . C s . .     ",
"    . Z A : p p S n D F G H .   ",
"  . J K : L : L K P n I U Y T . ",
"  . L R E W Q ! ~ ^ / ( ) _ ` ' ",
"  . ] [ { } |  ...^ X.o.O.+.@.. ",
"  . #.$.%.&.*.=.-.;.:.>.,.<.1.. ",
"  . 2.3.4.5.6.7.8.9.0.q.w.7.e.. ",
"  . r.t.y.u.u.u.i.t.p.a.s.d.f.. ",
"    . . . . . . . . . . . . .   "
};
