/* XPM */
static const char *print_xpm[] = {
/* columns rows colors const chars-per-pixel */
"16 16 88 1",
". c Black",
"y c #D9D9D8",
"u c #DEDDDC",
"k c #DEDDDD",
"0 c #F7F7F7",
"H c #9B9A97",
"Q c #AAA9A6",
"L c #B9B8B5",
"_ c #3A3936",
"O c #353535",
"X c #FFFFFF",
"l c #DFDEDD",
"& c #E9E9E9",
"6 c #F8F8F8",
"R c #A6A6A4",
"> c #979797",
"E c #ABAAA7",
"2 c #B5B5B5",
"Y c #B0AEAC",
"p c #D8D7D4",
"+ c #D3D3D3",
"t c #E2E2E2",
"/ c #454542",
"e c #F1F1F1",
"h c #DDDBDA",
"D c #4F4D49",
"B c #54514E",
"a c #B3B2B0",
"x c #DBDBD9",
"  c None",
"* c #DBDBDB",
"g c #D6D4D2",
"= c #4D4D4D",
"< c #D4D4D3",
"v c #D9D8D6",
"] c #1E1D1B",
"f c #969594",
"r c #A0A0A0",
"J c #B4B3B1",
"i c #DCDCDA",
"j c #DCDCDB",
"% c #EBEBEB",
"5 c #FAFAFA",
"^ c #444341",
"M c #9E9D9C",
", c #BCBBBB",
"c c #DAD9D7",
"C c #514F4B",
"F c #514F4C",
"@ c #131313",
"8 c #ECECEB",
"o c #ECECEC",
"4 c #FBFBFB",
"b c #81807E",
"n c #9F9E9A",
"W c #AEADAA",
"9 c #AEADAB",
"P c #B3B1AF",
"# c #C7C7C7",
"d c #1B1B1B",
"q c #E5E5E4",
"! c #201F1E",
"7 c #F4F4F3",
"Z c #52504C",
"I c #B1B1AE",
"; c #414141",
"A c #504D49",
": c #8C8C8C",
"U c #AFAEAC",
"$ c #D7D7D7",
") c #3F3E3C",
"m c #A8A7A6",
"1 c #D0D0CF",
"( c #42423F",
"w c #8D8D8D",
"z c #DDDCDB",
"' c #31302D",
"~ c #403F3D",
"V c #54524E",
"- c #A4A4A4",
"3 c #C2C2C2",
"s c #CCCAC6",
"` c #393835",
"S c #4D4B47",
"N c #615E59",
"T c #ACACA9",
"G c #939291",
"K c #C0BFBC",
/* pixels */
"                ",
"    .........   ",
"    .XXXXXXo.   ",
"    .XO+.@#$.   ",
"    .X%&&&%*.   ",
"    .X=.%.-*.   ",
"    .X%%%%%*.   ",
"   ..X;%:.>*..  ",
"  .,<X&&&&&&12. ",
" .34X5X54456789.",
" .50qwertyuipasd",
" .fghjklzyxcvbn.",
" .mMNBVCZASDFGH.",
" .JKLPIUYTREWUQ.",
" .!~^///(~)_`'].",
"  ............. "
};
