/* XPM */
static const char *relocate_categories_xpm[] = {
"16 16 44 1",
" 	c None",
".	c #3D3D3D",
"+	c #4B4B4B",
"@	c #794A00",
"#	c #565656",
"$	c #825200",
"%	c #875500",
"&	c #646464",
"*	c #0074FF",
"=	c #666666",
"-	c #0079FE",
";	c #007DFE",
">	c #6D6D6D",
",	c #707070",
"'	c #777777",
")	c #797979",
"!	c #808080",
"~	c #848484",
"{	c #868686",
"]	c #898989",
"^	c #8D8D8D",
"/	c #8E8E8E",
"(	c #3DB3FB",
"_	c #3EB3FB",
":	c #40B7FB",
"<	c #AEAEAE",
"[	c #E2B125",
"}	c #B3B3B3",
"|	c #B9B9B9",
"1	c #89CDF6",
"2	c #E9C45A",
"3	c #C7C7C7",
"4	c #EBC967",
"5	c #CDCDCD",
"6	c #EFD489",
"7	c #C2E1F6",
"8	c #C5E1F6",
"9	c #E1E1E1",
"0	c #CAE7FB",
"a	c #EBEBEB",
"b	c #F3F3F3",
"c	c #F6F6F6",
"d	c #F8F8F8",
"e	c #FBFBFB",
"/^{~!)'         ",
"]eeeee|'        ",
"{e})<ee},%%     ",
"!e' >9ce%66%    ",
")e<>=a8:%226%   ",
"'eeda0;*(%226%  ",
",5eb7-%%%%%[[4% ",
" &3e1$44444[[[4$",
"  #3e@[[[[[[[[[%",
"   +3e%%%%%[[[% ",
"    .3e_*%4[[%  ",
"     .3e%4[[%   ",
"      .3%22%    ",
"       .3%%     ",
"        ..      ",
"                "};
