/* XPM */
static const char *relocate_payees_xpm[] = {
"16 16 92 2",
"  	c None",
". 	c #55315F",
"+ 	c #5A3464",
"@ 	c #5C3566",
"# 	c #5C3B59",
"$ 	c #6C3F3B",
"% 	c #624F0D",
"& 	c #794A00",
"* 	c #465440",
"= 	c #3D538B",
"- 	c #3E558E",
"; 	c #864F06",
"> 	c #815107",
", 	c #825200",
"' 	c #885106",
") 	c #8E5105",
"! 	c #875500",
"~ 	c #955104",
"{ 	c #30609D",
"] 	c #815330",
"^ 	c #32629E",
"/ 	c #32629F",
"( 	c #9F5203",
"_ 	c #3263A1",
": 	c #3364A2",
"< 	c #3364A3",
"[ 	c #485F99",
"} 	c #616519",
"| 	c #A35403",
"1 	c #596921",
"2 	c #3467A7",
"3 	c #9E5807",
"4 	c #616B09",
"5 	c #4F649A",
"6 	c #366AAC",
"7 	c #7E6040",
"8 	c #366BAD",
"9 	c #6A6A2B",
"0 	c #386DB1",
"a 	c #3B6EAE",
"b 	c #687214",
"c 	c #4071AF",
"d 	c #6D712F",
"e 	c #6F7131",
"f 	c #4172AF",
"g 	c #CD5C00",
"h 	c #6E771D",
"i 	c #4576B2",
"j 	c #4A78B2",
"k 	c #C16710",
"l 	c #C4680A",
"m 	c #767B35",
"n 	c #D56402",
"o 	c #D16604",
"p 	c #BF6C10",
"q 	c #797F37",
"r 	c #547FB5",
"s 	c #5680B5",
"t 	c #AA7722",
"u 	c #5E83B2",
"v 	c #BC7625",
"w 	c #5F86B7",
"x 	c #AF7D2E",
"y 	c #6087B9",
"z 	c #AF8033",
"A 	c #C77D28",
"B 	c #B68134",
"C 	c #868F41",
"D 	c #B88530",
"E 	c #B98633",
"F 	c #B78940",
"G 	c #C2893C",
"H 	c #BC8E43",
"I 	c #C38F44",
"J 	c #C29142",
"K 	c #B99355",
"L 	c #C0934B",
"M 	c #C49A52",
"N 	c #CB9A51",
"O 	c #D8994A",
"P 	c #CF9D51",
"Q 	c #8DA7C8",
"R 	c #DDA053",
"S 	c #D1A55F",
"T 	c #E2B125",
"U 	c #EBAA5B",
"V 	c #B0B6CB",
"W 	c #ECBD74",
"X 	c #E9C45A",
"Y 	c #EBC967",
"Z 	c #F9C780",
"` 	c #EFD489",
"        ; ~ ) |                 ",
"      o O S P I (               ",
"    3 R M L E v k ! ! g         ",
"    ' N H K A l ! ` ` ! g       ",
"    > J D F p U ! X X ` ! g     ",
"    % G z t n Z W ! X X ` !     ",
"    $ ] B x ! ! ! ! ! T T Y !   ",
"  * d } 7 , Y Y Y Y Y T T T Y , ",
"* m h C C & T T T T T T T T T ! ",
"* m b C 9 @ ! ! ! ! ! T T T ! @ ",
"* m b b @ Q 6 0 V ! Y T T ! y @ ",
"* m 1 4 # y 2 8 ! Y T T ! { a @ ",
"* m q e @ w < 2 ! X X ! _ _ a @ ",
"  * * * @ u < - : ! ! ^ = / a @ ",
"        @ s r 5 j c c c [ f i @ ",
"        . @ @ @ @ @ @ @ @ @ @ + "};
