/* XPM */
static const char *rightarrow_xpm[] = {
/* columns rows colors const chars-per-pixel */
"16 16 52 1",
". c Black",
"f c #CACACA",
"b c #5A5A5A",
"s c #C3C3C3",
"i c #D2D2D2",
"; c #E1E1E1",
"* c #F0F0F0",
"9 c #FFFFFF",
"> c #ADADAD",
"d c #BCBCBC",
"2 c #E9E9E9",
"1 c #F8F8F8",
"k c #5B5B5B",
"v c #A6A6A6",
"+ c #E2E2E2",
"& c #F1F1F1",
"8 c #727272",
"y c #AEAEAE",
"p c #CCCCCC",
"  c None",
"@ c #DBDBDB",
"q c #EAEAEA",
"g c #A7A7A7",
"a c #C5C5C5",
": c #D4D4D4",
"3 c #E3E3E3",
"X c #737373",
"4 c #DCDCDC",
", c #C6C6C6",
"O c #E4E4E4",
"u c #BFBFBF",
"t c #CECECE",
"w c #DDDDDD",
"= c #ECECEC",
"z c #9A9A9A",
"7 c #A9A9A9",
"% c #C7C7C7",
"5 c #D6D6D6",
"h c #666666",
"6 c #CFCFCF",
"- c #E6E6E6",
"< c #F5F5F5",
"0 c #314E6C",
"j c #C1C1C1",
"o c #D0D0D0",
"x c #606060",
"l c #ABABAB",
"e c #C9C9C9",
"$ c #686868",
"# c #C2C2C2",
"r c #616161",
"c c #BBBBBB",
/* pixels */
"     .....      ",
"   .XoO+@#$.    ",
"  .%&*=-;@:>.   ",
" .,<1<*234567.  ",
" 8&1910qOw5oer  ",
".t*<10003456ey. ",
".3=*&*000@:t%u. ",
".+-2q2-000ipau. ",
".@;3O3000:tesd. ",
".u@4w000:6faug. ",
" h:5550itf,jdk  ",
" .l6o6tpeajdz.  ",
"  .gee%asudz.   ",
"   .x>uucvb.    ",
"     .....      ",
"                "
};
