/* XPM */
static const char * rt_exec_user_xpm[] = {
"16 16 43 1",
" 	c None",
".	c #010101",
"+	c #000000",
"@	c #0C0C0C",
"#	c #040404",
"$	c #464646",
"%	c #060606",
"&	c #BAB9B6",
"*	c #0B0B0B",
"=	c #8C8C8C",
"-	c #727270",
";	c #484641",
">	c #9F9D96",
",	c #888781",
"'	c #C8C7C2",
")	c #B6B5AF",
"!	c #908E86",
"~	c #97958E",
"{	c #807D74",
"]	c #E9E9E9",
"^	c #B9B9B9",
"/	c #595854",
"(	c #605E57",
"_	c #898883",
":	c #76746B",
"<	c #43423F",
"[	c #282724",
"}	c #363430",
"|	c #6D6B63",
"1	c #8C8B89",
"2	c #21201E",
"3	c #181816",
"4	c #E6E6E4",
"5	c #161614",
"6	c #DFDEDC",
"7	c #65635C",
"8	c #969696",
"9	c #090909",
"0	c #B0AFA9",
"a	c #D5D4D1",
"b	c #93918B",
"c	c #ABA9A3",
"d	c #5D5C55",
"                ",
"                ",
"                ",
"                ",
"                ",
"                ",
"           ..+  ",
"        @#$%&+ +",
"       *=-*;>;+,",
"       #')>>>!~{",
"      ]^*>>/(_{:",
"      +.;>(<[}>|",
"      .1)>/2 34{",
"      .%;>_}5167",
"       890{)4ab7",
"       +)c>{{::d"};
