/* XPM */
static const char * rt_exec_auto_xpm[] = {
"16 16 56 1",
" 	c None",
".	c #2AF638",
"+	c #2DF63B",
"@	c #29F638",
"#	c #34F742",
"$	c #010101",
"%	c #000000",
"&	c #3CF649",
"*	c #2CF63A",
"=	c #0C0C0C",
"-	c #040404",
";	c #464646",
">	c #060606",
",	c #BAB9B6",
"'	c #43F750",
")	c #33F641",
"!	c #0B0B0B",
"~	c #8C8C8C",
"{	c #727270",
"]	c #484641",
"^	c #9F9D96",
"/	c #888781",
"(	c #4AF756",
"_	c #3AF648",
":	c #2AF639",
"<	c #C8C7C2",
"[	c #B6B5AF",
"}	c #908E86",
"|	c #97958E",
"1	c #807D74",
"2	c #52F85D",
"3	c #41F74F",
"4	c #E9E9E9",
"5	c #B9B9B9",
"6	c #595854",
"7	c #605E57",
"8	c #898883",
"9	c #76746B",
"0	c #43423F",
"a	c #282724",
"b	c #363430",
"c	c #6D6B63",
"d	c #8C8B89",
"e	c #21201E",
"f	c #181816",
"g	c #E6E6E4",
"h	c #161614",
"i	c #DFDEDC",
"j	c #65635C",
"k	c #969696",
"l	c #090909",
"m	c #B0AFA9",
"n	c #D5D4D1",
"o	c #93918B",
"p	c #ABA9A3",
"q	c #5D5C55",
"                ",
"                ",
"                ",
"                ",
".               ",
"+@              ",
"#@.        $$%  ",
"&*@@    =-;>,% %",
"').@   !~{!]^]%/",
"(_:    -<[^^^}|1",
"23    45!^^67819",
"@     %$]^70ab^c",
"      $d[^6e fg1",
"      $>]^8bhdij",
"       klm1[gnoj",
"       %[p^1199q"};
