/* XPM */
static const char * rubik_cube_xpm[] = {
"15 16 142 2",
"  	c None",
". 	c #0A840A",
"+ 	c #05A905",
"@ 	c #088A08",
"# 	c #137213",
"$ 	c #0B680B",
"% 	c #02B202",
"& 	c #00C900",
"* 	c #008200",
"= 	c #007A00",
"- 	c #008000",
"; 	c #00CA00",
"> 	c #02AF02",
", 	c #0B630B",
"' 	c #176217",
") 	c #126F4D",
"! 	c #01A503",
"~ 	c #00C800",
"{ 	c #009C00",
"] 	c #007F00",
"^ 	c #007C00",
"/ 	c #00A600",
"( 	c #00CE00",
"_ 	c #00A200",
": 	c #007900",
"< 	c #007200",
"[ 	c #009600",
"} 	c #029E02",
"| 	c #446112",
"1 	c #04A6A6",
"2 	c #00B4B4",
"3 	c #005A39",
"4 	c #008A05",
"5 	c #00AE00",
"6 	c #008400",
"7 	c #008300",
"8 	c #008500",
"9 	c #00B100",
"0 	c #00C700",
"a 	c #058400",
"b 	c #314B00",
"c 	c #B3B400",
"d 	c #9F9F05",
"e 	c #059D9D",
"f 	c #00D0D0",
"g 	c #009292",
"h 	c #00C5C5",
"i 	c #005C57",
"j 	c #006123",
"k 	c #00CF00",
"l 	c #01A100",
"m 	c #356900",
"n 	c #545A00",
"o 	c #C6C600",
"p 	c #828200",
"q 	c #D0D000",
"r 	c #9A9A05",
"s 	c #087A7A",
"t 	c #00CFCF",
"u 	c #009696",
"v 	c #008686",
"w 	c #00A2A2",
"x 	c #30531A",
"y 	c #B0B000",
"z 	c #838300",
"A 	c #7F7F00",
"B 	c #CFCF00",
"C 	c #7E7E08",
"D 	c #0A7E7E",
"E 	c #007474",
"F 	c #007070",
"G 	c #008B8B",
"H 	c #567C26",
"I 	c #878700",
"J 	c #CECE00",
"K 	c #626200",
"L 	c #757500",
"M 	c #727209",
"N 	c #098888",
"O 	c #008282",
"P 	c #007676",
"Q 	c #005D5D",
"R 	c #00C9C9",
"S 	c #567822",
"T 	c #C8C800",
"U 	c #535300",
"V 	c #777700",
"W 	c #0B7979",
"X 	c #008E8E",
"Y 	c #007373",
"Z 	c #007979",
"` 	c #45621D",
" .	c #717100",
"..	c #797900",
"+.	c #909000",
"@.	c #7C7C00",
"#.	c #78780A",
"$.	c #0F5E5E",
"%.	c #006464",
"&.	c #008181",
"*.	c #009191",
"=.	c #445C18",
"-.	c #CDCD00",
";.	c #939300",
">.	c #707000",
",.	c #60600E",
"'.	c #0E7D7D",
").	c #00CDCD",
"!.	c #006161",
"~.	c #007171",
"{.	c #008F8F",
"].	c #567923",
"^.	c #BFBF00",
"/.	c #737300",
"(.	c #73730D",
"_.	c #137373",
":.	c #008989",
"<.	c #005C5C",
"[.	c #00CECE",
"}.	c #C1C100",
"|.	c #656500",
"1.	c #696900",
"2.	c #7D7D00",
"3.	c #6C6C13",
"4.	c #126F6F",
"5.	c #057878",
"6.	c #00C3C3",
"7.	c #2D4B1E",
"8.	c #ADAD00",
"9.	c #ABAB00",
"0.	c #6F6F04",
"a.	c #737310",
"b.	c #0A8181",
"c.	c #028F8F",
"d.	c #5A7F25",
"e.	c #B3B300",
"f.	c #84840B",
"g.	c #079292",
"h.	c #878707",
"i.	c #1B6D6D",
"j.	c #496C2D",
"k.	c #656516",
"            . + @             ",
"    # $ % & * = - ; > , '     ",
") ! ~ { ] ^ / ( _ : < [ & } | ",
"1 2 3 4 ~ 5 6 7 8 9 0 a b c d ",
"e f g h i j / k l m n o p q r ",
"s t u f v f w x y q z q A B C ",
"D E F t G f f H q q I J K L M ",
"N f O P Q R f S q T U V V q C ",
"W f X f X Y Z `  ...+.q @.q #.",
"$.%.&.f *.f h =.-.T ;.q >.V ,.",
"'.).!.~.{.f f ].q ^.z /.K q (.",
"_.f :.R <.O [.H }.|.1.-.2.q 3.",
"  4.5.f g 6.P 7.2.8.9.q 0.a.  ",
"      b.c.f f d.q 9.e.f.      ",
"          g.[.H B h.          ",
"            i.j.k.            "};
