/* XPM */
static const char* save_xpm[] = {
"16 16 4 1",
" 	c None",
".	c #000000",
"+	c #808000",
"@	c #808080",
"                ",
"                ",
" .............. ",
" .+.        . . ",
" .+.        ... ",
" .+.        .+. ",
" .+.        .+. ",
" .+.        .+. ",
" .+.        .+. ",
" .++........@+. ",
" .++++++++++++. ",
" .++.........+. ",
" .++......  .+. ",
" .++......  .+. ",
" .++......  .+. ",
"  ............. "};
