/* XPM */
static const char * saveas_xpm[] = {
"16 16 123 2",
"  	c None",
". 	c #000000",
"+ 	c #1B3485",
"@ 	c #1A3586",
"# 	c #8592B8",
"$ 	c #1C3889",
"% 	c #2969C0",
"& 	c #273F8C",
"* 	c #ECECEA",
"= 	c #1D3888",
"- 	c #203B8B",
"; 	c #2D6DC2",
"> 	c #2951A2",
", 	c #1F3B8A",
"' 	c #243F8F",
") 	c #3271C4",
"! 	c #2B53A2",
"~ 	c #274494",
"{ 	c #3876C7",
"] 	c #2E55A4",
"^ 	c #DE9F4E",
"/ 	c #D09D46",
"( 	c #467EBB",
"_ 	c #2A4A98",
": 	c #3E7BCA",
"< 	c #C9D5E4",
"[ 	c #EAEBEA",
"} 	c #DC9E4E",
"| 	c #E7BE77",
"1 	c #F7E6D2",
"2 	c #D6A759",
"3 	c #2E4F9C",
"4 	c #4481CD",
"5 	c #4B86CF",
"6 	c #F0D2B4",
"7 	c #F7E3C9",
"8 	c #EFD2AC",
"9 	c #C1894A",
"0 	c #33549F",
"a 	c #4B87D0",
"b 	c #518DC8",
"c 	c #ECD480",
"d 	c #F9E3B2",
"e 	c #E7C08B",
"f 	c #F6D3AE",
"g 	c #FCE0C4",
"h 	c #CD9C67",
"i 	c #375AA4",
"j 	c #528DD4",
"k 	c #BAD1EE",
"l 	c #FFFFFF",
"m 	c #F4F8F4",
"n 	c #ECD37D",
"o 	c #FDF6C4",
"p 	c #F6DD6C",
"q 	c #EDCA6D",
"r 	c #D7A363",
"s 	c #CF9C64",
"t 	c #3A60A9",
"u 	c #5893D7",
"v 	c #FCFDFE",
"w 	c #EED379",
"x 	c #FDF7C7",
"y 	c #F5DC5F",
"z 	c #F7E25B",
"A 	c #F2D67A",
"B 	c #DD9F4E",
"C 	c #698FB8",
"D 	c #3E64AD",
"E 	c #5E98DA",
"F 	c #DCEAF8",
"G 	c #D6E6F6",
"H 	c #E9CF7F",
"I 	c #F5DC5E",
"J 	c #F7E15A",
"K 	c #F1D47B",
"L 	c #DB994E",
"M 	c #7AA6D7",
"N 	c #4169B0",
"O 	c #649DDD",
"P 	c #DA9D4E",
"Q 	c #D6B976",
"R 	c #FDF6C2",
"S 	c #F7DF63",
"T 	c #F8E25D",
"U 	c #F0D379",
"V 	c #DA9748",
"W 	c #FDFDFD",
"X 	c #466EB4",
"Y 	c #69A1DF",
"Z 	c #ECF3ED",
"` 	c #D5B67A",
" .	c #C3A378",
"..	c #E4C955",
"+.	c #F5DF5B",
"@.	c #EDD078",
"#.	c #D89A4E",
"$.	c #D6E3EB",
"%.	c #4972B7",
"&.	c #6DA5E1",
"*.	c #F8FAFB",
"=.	c #AA8943",
"-.	c #FFF2E0",
";.	c #D89A54",
">.	c #BE7A1A",
",.	c #C59849",
"'.	c #C28B45",
").	c #FCFCFB",
"!.	c #4B75BB",
"~.	c #000000",
"{.	c #F9C794",
"].	c #F9C991",
"^.	c #C98541",
"/.	c #A96723",
"(.	c #4B77BD",
"_.	c #4D77BD",
":.	c #85A2D0",
"<.	c #100E0A",
"[.	c #1C1610",
"}.	c #BA894E",
"|.	c #B88D47",
"1.	c #81A7C1",
"2.	c #85A2D1",
"+ @ @ @ # # # # # # # # @ +     ",
"$ % % & * * * * * * * * % $ =   ",
"- ; ; & * * * * * > > * ; ; - , ",
"' ) ) & * * * * * ! ! * ) ) ) ' ",
"~ { { & * * * * * ] ] * ^ / ( ~ ",
"_ : : & < * * * * * [ } | 1 2 _ ",
"3 4 4 4 4 4 4 4 4 5 } | 6 7 8 9 ",
"0 a a a a a a a b } c d e f g h ",
"i j j k l l l m } n o p q r s i ",
"t u u l l l v } w x y z A B C t ",
"D E E l F G } H x I J K L M E D ",
"N O O l l P Q R S T U V W O O N ",
"X Y Y Z ^ `  ...+.@.#.$.l Y Y X ",
"%.&.&.*.=.-.;.>.,.'.).l l &.&.%.",
"!.&.&.*.~.{.].^./.l l l l &.&.!.",
"(._._.:.<.[.}.|.1.2.2.2.2._._.(."};
