/* XPM */
static const char * savings_acc_favorite_xpm[] = {
"16 16 131 2",
"  	c None",
". 	c #000000",
"+ 	c #000100",
"@ 	c #010301",
"# 	c #020301",
"$ 	c #060706",
"% 	c #080D07",
"& 	c #0E140D",
"* 	c #0C160B",
"= 	c #121B11",
"- 	c #256323",
"; 	c #286625",
"> 	c #296727",
", 	c #296927",
"' 	c #2A6A27",
") 	c #2A6A28",
"! 	c #2B6B29",
"~ 	c #2D6C2A",
"{ 	c #2E6F2C",
"] 	c #2F702C",
"^ 	c #30712D",
"/ 	c #31722E",
"( 	c #32742F",
"_ 	c #FF3A3A",
": 	c #377933",
"< 	c #3A7E37",
"[ 	c #FE4444",
"} 	c #378133",
"| 	c #3C8138",
"1 	c #388335",
"2 	c #3E833B",
"3 	c #42873E",
"4 	c #FE4F4F",
"5 	c #42893E",
"6 	c #FE5050",
"7 	c #FF5050",
"8 	c #438A3E",
"9 	c #FE5151",
"0 	c #458C42",
"a 	c #FF5454",
"b 	c #3E913A",
"c 	c #488E44",
"d 	c #FF5656",
"e 	c #498E44",
"f 	c #499045",
"g 	c #4A9045",
"h 	c #4A9146",
"i 	c #449441",
"j 	c #4B9347",
"k 	c #50914E",
"l 	c #4D9348",
"m 	c #4D9449",
"n 	c #FF5E5E",
"o 	c #4E9549",
"p 	c #4E954A",
"q 	c #4E954B",
"r 	c #4F954B",
"s 	c #4F974B",
"t 	c #51984D",
"u 	c #529A4E",
"v 	c #519C4D",
"w 	c #509D4C",
"x 	c #519D4C",
"y 	c #529E4D",
"z 	c #FE6969",
"A 	c #559E4F",
"B 	c #55A04F",
"C 	c #FF6C6C",
"D 	c #59A154",
"E 	c #5AA155",
"F 	c #FF6F6F",
"G 	c #5FA359",
"H 	c #66A064",
"I 	c #FE7373",
"J 	c #61A65A",
"K 	c #61A75B",
"L 	c #62A95C",
"M 	c #63A95D",
"N 	c #64AA5E",
"O 	c #66AD5F",
"P 	c #FF7D7D",
"Q 	c #67AD62",
"R 	c #FF7E7E",
"S 	c #FF7F7F",
"T 	c #FE8080",
"U 	c #6BB065",
"V 	c #6CB266",
"W 	c #71B06C",
"X 	c #FE8484",
"Y 	c #6DB665",
"Z 	c #FF8989",
"` 	c #FF8A8A",
" .	c #7AB576",
"..	c #6DBD65",
"+.	c #6FBE66",
"@.	c #70C067",
"#.	c #71C069",
"$.	c #74C06C",
"%.	c #75C16D",
"&.	c #FA9696",
"*.	c #FF9696",
"=.	c #77C370",
"-.	c #FF9797",
";.	c #7AC472",
">.	c #7BC474",
",.	c #FF9B9B",
"'.	c #89C183",
").	c #FF9C9C",
"!.	c #FF9D9D",
"~.	c #8DC489",
"{.	c #85C87E",
"].	c #86C97E",
"^.	c #86C97F",
"/.	c #87CB7F",
"(.	c #89CB81",
"_.	c #89CC81",
":.	c #8ACC82",
"<.	c #8CCC85",
"[.	c #8DCC85",
"}.	c #8ECE86",
"|.	c #95CB90",
"1.	c #9ACE93",
"2.	c #FFAFAF",
"3.	c #A3D49E",
"4.	c #A9D9A1",
"5.	c #A9D9A3",
"6.	c #CCE4C9",
"7.	c #FEF2F2",
"8.	c #F3F9F1",
"9.	c #F5FBF3",
"0.	c #FFFFFF",
"    . .     . .   D             ",
"  . 2.0.. . -.R # U u           ",
". 7 7.!.).&.X z 6 & Q g         ",
". _ Z *.,.*.S n _ % }.J 3       ",
"  . P T ` Z C [ @ Y 0 <.E <     ",
"    . a I F 4 @ v #.@.=._.q ^   ",
"      + d 9 $ 9. .x =.(.o ]     ",
"    s N = * 8.H 6.B /.m ^ /     ",
"  r M }.>.y  .6.k /.l ] 5.h ,   ",
"o L [.;.@.+.w A ^.j 1 5.3.1.'   ",
"t t V :.8 ..%.].h i 4.~.b {     ",
"  o g O /.$.].g } '.G ; -       ",
"  c W 5 K {.e ! f )             ",
"    p |.| c > ~                 ",
"    < : 2 ;                     ",
"      (                         "};
