/* XPM */
static const char * savings_acc_closed_xpm[] = {
"16 16 86 1",
" 	c None",
".	c #FF0000",
"+	c #256323",
"@	c #286625",
"#	c #296727",
"$	c #296927",
"%	c #2A6A27",
"&	c #2A6A28",
"*	c #2B6B29",
"=	c #2D6C2A",
"-	c #2E6F2C",
";	c #2F702C",
">	c #30712D",
",	c #31722E",
"'	c #32742F",
")	c #377933",
"!	c #3A7E37",
"~	c #378133",
"{	c #3C8138",
"]	c #388335",
"^	c #3E833B",
"/	c #42873E",
"(	c #42893E",
"_	c #438A3E",
":	c #4581AA",
"<	c #458C42",
"[	c #3E913A",
"}	c #488E44",
"|	c #498E44",
"1	c #499045",
"2	c #4A9045",
"3	c #4A9146",
"4	c #449441",
"5	c #4B9347",
"6	c #4D9348",
"7	c #4D9449",
"8	c #4E9549",
"9	c #4E954A",
"0	c #4E954B",
"a	c #51984D",
"b	c #529A4E",
"c	c #509D4C",
"d	c #519D4C",
"e	c #559E4F",
"f	c #55A04F",
"g	c #59A154",
"h	c #5AA155",
"i	c #5FA359",
"j	c #61A65A",
"k	c #61A75B",
"l	c #62A95C",
"m	c #66AD5F",
"n	c #67AD62",
"o	c #6BB065",
"p	c #6CB266",
"q	c #71B06C",
"r	c #6DBD65",
"s	c #6FBE66",
"t	c #70C067",
"u	c #71C069",
"v	c #74C06C",
"w	c #74C16B",
"x	c #75C16D",
"y	c #77C370",
"z	c #7AC472",
"A	c #7BC474",
"B	c #89C183",
"C	c #7DC675",
"D	c #7EC875",
"E	c #8DC489",
"F	c #85C87E",
"G	c #86C97E",
"H	c #86C97F",
"I	c #87CB7F",
"J	c #89CB81",
"K	c #89CC81",
"L	c #8ACC82",
"M	c #8CCC85",
"N	c #8DCC85",
"O	c #8ECE86",
"P	c #95CB90",
"Q	c #90D18A",
"R	c #9ACE93",
"S	c #A3D49E",
"T	c #A9D9A1",
"U	c #A9D9A3",
":::: ::::g      ",
":..:::..:ob     ",
":...:...:Qn2    ",
"::.....::DOj/   ",
" ::...::Cw<Mh!  ",
"::.....::utyK0> ",
":...:...:dyJ8;  ",
":..:::..:fI7>,  ",
"::::A::::I6;U3$ ",
"8lNztsceH5]USR% ",
"aapL_rxG34TE[-  ",
" 82mIvG2~Bi@+   ",
" }q(kF|*1&      ",
"  9P{}#=        ",
"  !)^@          ",
"   '            "};
