/* XPM */
static const char * schedule_xpm[] = {
"16 16 117 2",
"  	c None",
". 	c #7E1201",
"+ 	c #FF0000",
"@ 	c #1657AB",
"# 	c #2A67B5",
"$ 	c #2C6AB6",
"% 	c #2E6AB9",
"& 	c #2F6BBA",
"* 	c #336FBB",
"= 	c #366FB9",
"- 	c #356FBC",
"; 	c #376FB8",
"> 	c #3A71B9",
", 	c #3A73BB",
"' 	c #3974BF",
") 	c #3A75BF",
"! 	c #3F79C3",
"~ 	c #407AC3",
"{ 	c #457EC6",
"] 	c #477FC6",
"^ 	c #4C81C9",
"/ 	c #4E84CA",
"( 	c #5188CC",
"_ 	c #548ACE",
": 	c #558BCE",
"< 	c #5B8ED1",
"[ 	c #5B8FD0",
"} 	c #5F90D4",
"| 	c #6094D5",
"1 	c #6395D5",
"2 	c #6596D8",
"3 	c #6799D9",
"4 	c #FF7D3B",
"5 	c #6B9BDA",
"6 	c #FF7F3D",
"7 	c #6C9CDB",
"8 	c #FF8442",
"9 	c #719FDD",
"0 	c #71A0DE",
"a 	c #75A3DF",
"b 	c #76A4E0",
"c 	c #FF8B47",
"d 	c #7AA6E1",
"e 	c #7BA6E1",
"f 	c #FF904D",
"g 	c #7EAAE4",
"h 	c #80AAE4",
"i 	c #FF9452",
"j 	c #FF9554",
"k 	c #83ACE6",
"l 	c #FF9654",
"m 	c #84AEE6",
"n 	c #FF9857",
"o 	c #FF9958",
"p 	c #86AFE6",
"q 	c #FF9A5A",
"r 	c #88B0E8",
"s 	c #89B1E9",
"t 	c #FF9D5C",
"u 	c #FF9E5D",
"v 	c #8BB3EA",
"w 	c #8CB3EB",
"x 	c #FF9F5F",
"y 	c #FFA060",
"z 	c #FFA161",
"A 	c #FFA262",
"B 	c #FFA364",
"C 	c #FFA464",
"D 	c #FFA465",
"E 	c #FFA754",
"F 	c #FFAB5A",
"G 	c #FFB061",
"H 	c #FFB368",
"I 	c #A6C3E9",
"J 	c #A9C4E8",
"K 	c #FFB86D",
"L 	c #AAC6E9",
"M 	c #FFB971",
"N 	c #ACC7EA",
"O 	c #ADC7E9",
"P 	c #ADC7EA",
"Q 	c #FFBB75",
"R 	c #AEC9EA",
"S 	c #FFBD79",
"T 	c #B2CBEA",
"U 	c #B3CBE9",
"V 	c #B7CEEA",
"W 	c #B8CEEA",
"X 	c #C8D6EA",
"Y 	c #CAD8EA",
"Z 	c #CBD8EB",
"` 	c #CCD9EB",
" .	c #CDD9EC",
"..	c #D8E2F0",
"+.	c #DBE4F1",
"@.	c #DBE5F1",
"#.	c #DCE5F2",
"$.	c #DEE7F2",
"%.	c #DEE7F3",
"&.	c #E2EAF4",
"*.	c #E6EDF6",
"=.	c #EAF0F7",
"-.	c #EBF1F7",
";.	c #EDF2F8",
">.	c #EFF2F9",
",.	c #EEF3F9",
"'.	c #EFF3F9",
").	c #F0F3F9",
"!.	c #FFF0F0",
"~.	c #F0F4FA",
"{.	c #F1F4FA",
"].	c #F2F5FA",
"^.	c #F1F6FA",
"/.	c #F2F6FA",
"(.	c #F2F6FB",
"_.	c #F4F7FB",
":.	c #FFFFFF",
"  w s p k g d b 0 7 3 1 } } } < ",
"v _._._._._._._._._._._._._._._ ",
"r _.D B y B y u o l f c 8 6 _./ ",
"m _.C S Q S Q M K H G F E 4 _.] ",
"h _.D B A B A z x t q n j i _.~ ",
"e _.I :.J :.L :.T :.N :.N :.-.) ",
"a /.. . . O T T T T N T V $.$.* ",
"9 ^.. + . :.L :.T :.V :.N :.@.% ",
"5 ~.. . . O T T N V N T N Y Y $ ",
"2 '.R :.T :.U :.N :.N :.N :.)., ",
"| '.T T V N N N . . . N ` {.{.= ",
"[ ,.V :.T :.T :.. + . (.` Z >.> ",
": ;.W V T T V N . . . ~.` +.].; ",
"( ;.V !.T :.T :.P  .+. .+.).;.; ",
": ;.=.*.&.%.+...X #.{.#.{.).;.; ",
"( ^ ( ^ { ! ' - & # # # # # # @ "};
