/* XPM */
static const char * stock_acc_xpm[] = {
"16 16 36 1",
" 	c None",
".	c #000000",
"+	c #ADB7E8",
"@	c #0033B2",
"#	c #8B9EDB",
"$	c #005BDB",
"%	c #94A4DB",
"&	c #92A2DE",
"*	c #91A2DB",
"=	c #97A7DE",
"-	c #F90000",
";	c #F30000",
">	c #C20000",
",	c #97A6E1",
"'	c #8CA0DB",
")	c #0031B1",
"!	c #F80000",
"~	c #F50000",
"{	c #AC0000",
"]	c #950000",
"^	c #A9B8E9",
"/	c #8B9DD8",
"(	c #F40000",
"_	c #A4B3E7",
":	c #8A9CD5",
"<	c #F20000",
"[	c #6997EE",
"}	c #076CEA",
"|	c #0047C4",
"1	c #003AB6",
"2	c #D70000",
"3	c #F60000",
"4	c #D00000",
"5	c #650000",
"6	c #120000",
"7	c #DA0000",
"          ..    ",
"         .+@.   ",
"        .+#$@.  ",
"       .+%&$$@. ",
"  .....+*=*$$$@.",
"  .-;>...,'$)...",
"  .!~{]..^/$).  ",
"  .-({]..,/$).  ",
"  .-({].._'$).  ",
"  .-;{]..*:$).  ",
"...-<{]..[}|1.  ",
".2(3~{{{......  ",
" .4(({{5.       ",
"  .4<{5.        ",
"   675.         ",
"    ..          "};
