/* XPM */
static const char *stock_curve_xpm[] = {
/* columns rows colors const chars-per-pixel */
"16 16 89 1",
"1 c #1B76E1",
"X c #4F92DD",
"K c #418932",
"% c #F05153",
"4 c #F63639",
"y c #F63336",
"7 c #3982DF",
"F c #459D36",
"+ c #3475C5",
"Z c #2F6EBB",
"T c #37752D",
"8 c #3C86DF",
"d c #0A61E0",
"R c #38822C",
"i c #3272C0",
"] c #2864AC",
"U c #2D6BB7",
"' c #2864AD",
"= c #3081E0",
"o c #EF585A",
"L c #408A31",
"m c #306FBD",
"! c #2B68B3",
"b c #0357E0",
"j c #F72B2E",
"D c #469B38",
"l c #FD0D11",
"p c #FB161A",
"  c None",
"5 c #337FE0",
"a c #F9191C",
"< c #3373C3",
"_ c #2965AE",
"2 c #6760AF",
"J c #418832",
"9 c #3E88DF",
"& c #3474C4",
"( c #2A66AF",
"/ c #2A66B0",
"g c #1161DE",
"z c #FC0E12",
"> c #EE4A50",
"6 c #3781DF",
"x c #0058E0",
"P c #408F31",
"[ c #2863AB",
"W c #2D6AB6",
"E c #36842B",
"I c #3E922F",
"@ c #3F89DE",
"O c #EF5759",
"h c #F92A2D",
"S c #489A37",
"B c #4BA43C",
"k c #3071BE",
": c #F1484B",
"n c #F92124",
"Y c #38752B",
"V c #49A43A",
"r c #2472DE",
"f c #1062DF",
"s c #3D4EBA",
"$ c #F24F52",
"t c #2773DE",
"; c #F44043",
"u c #A65B88",
"e c #206FE0",
". c #3476C6",
"^ c #2A68B1",
"~ c #2A68B2",
"v c #0257E0",
"N c #4AA240",
", c #4B93E0",
"c c #0057E0",
"0 c #3273C2",
"` c #2865AE",
"w c #E13145",
"- c #F53E41",
"# c #F14D50",
"A c #489939",
"Q c #2B69B4",
"C c #FB171B",
"3 c #F53238",
"G c #449F35",
"q c #EB2A39",
"M c #FF0206",
"H c #2E6DB9",
"* c #2C7FE0",
") c #2966AF",
/* pixels */
"                ",
" .              ",
" . X   ooO      ",
" + @  #$$%%%    ",
" & *=-;    :>,  ",
" < 1234   56789 ",
" 0  qw   ert yu ",
" i pasd fg   hj ",
" k lzxcvb     n ",
" m M    NBV   C ",
" Z     ASDFG    ",
" H   JKL   PI   ",
" U YTY      RE  ",
" W              ",
" Q!~^/()_`''][[ ",
"                "
};
