/* XPM */
static const char * stock_acc_favorite_xpm[] = {
"16 16 70 1",
" 	c None",
".	c #000000",
"+	c #FFAFAF",
"@	c #FFFFFF",
"#	c #FF9797",
"$	c #FF7E7E",
"%	c #020301",
"&	c #ADB7E8",
"*	c #0033B2",
"=	c #FF5050",
"-	c #FEF2F2",
";	c #FF9D9D",
">	c #FF9C9C",
",	c #FA9696",
"'	c #FE8484",
")	c #FE6969",
"!	c #FE5050",
"~	c #0E140D",
"{	c #8B9EDB",
"]	c #005BDB",
"^	c #FF3A3A",
"/	c #FF8989",
"(	c #FF9696",
"_	c #FF9B9B",
":	c #FF7F7F",
"<	c #FF5E5E",
"[	c #080D07",
"}	c #92A2DE",
"|	c #FF7D7D",
"1	c #FE8080",
"2	c #FF8A8A",
"3	c #FF6C6C",
"4	c #FE4444",
"5	c #010301",
"6	c #97A7DE",
"7	c #91A2DB",
"8	c #FF5454",
"9	c #FE7373",
"0	c #FF6F6F",
"a	c #FE4F4F",
"b	c #97A6E1",
"c	c #8CA0DB",
"d	c #0031B1",
"e	c #000100",
"f	c #FF5656",
"g	c #FE5151",
"h	c #060706",
"i	c #A9B8E9",
"j	c #8B9DD8",
"k	c #F90000",
"l	c #121B11",
"m	c #0C160B",
"n	c #950000",
"o	c #F40000",
"p	c #AC0000",
"q	c #A4B3E7",
"r	c #F30000",
"s	c #8A9CD5",
"t	c #F20000",
"u	c #6997EE",
"v	c #076CEA",
"w	c #0047C4",
"x	c #003AB6",
"y	c #D70000",
"z	c #F60000",
"A	c #F50000",
"B	c #D00000",
"C	c #650000",
"D	c #120000",
"E	c #DA0000",
"  ..  ..  ..    ",
" .+@..#$%.&*.   ",
".=-;>,')!~{]*.  ",
".^/(_(:<^[}]]*. ",
" .|12/34567]]]*.",
"  .890a5.bc]d...",
"  .efgh..ij]d.  ",
"  .klmn..bj]d.  ",
"  .kopn..qc]d.  ",
"  .krpn..7s]d.  ",
"...ktpn..uvwx.  ",
".yozAppp......  ",
" .BooppC.       ",
"  .BtpC.        ",
"   DEC.         ",
"    ..          "};
