/* XPM */
static const char * term_acc_closed_xpm[] = {
"16 16 87 1",
" 	c None",
".	c #000000",
"+	c #532E11",
"@	c #FF0000",
"#	c #286625",
"$	c #296727",
"%	c #2A6A28",
"&	c #2B6B29",
"*	c #2D6C2A",
"=	c #2F702C",
"-	c #30712D",
";	c #32742F",
">	c #377933",
",	c #666666",
"'	c #3A7E37",
")	c #378133",
"!	c #3C8138",
"~	c #3E833B",
"{	c #42873E",
"]	c #42893E",
"^	c #438A3E",
"/	c #4581A7",
"(	c #4581AA",
"_	c #458C42",
":	c #4782AA",
"<	c #488E44",
"[	c #498E44",
"}	c #499045",
"|	c #4A9045",
"1	c #4A9146",
"2	c #449441",
"3	c #4B9347",
"4	c #4E9549",
"5	c #4E954A",
"6	c #4E954B",
"7	c #51984D",
"8	c #529A4E",
"9	c #509D4C",
"0	c #519D4C",
"a	c #559E4F",
"b	c #59A154",
"c	c #5AA155",
"d	c #5FA359",
"e	c #61A65A",
"f	c #61A75B",
"g	c #62A95C",
"h	c #66AD5F",
"i	c #67AD62",
"j	c #6BB065",
"k	c #6CB266",
"l	c #71B06C",
"m	c #6DBD65",
"n	c #6FBE66",
"o	c #70C067",
"p	c #71C069",
"q	c #74C06C",
"r	c #74C16B",
"s	c #75C16D",
"t	c #BAA999",
"u	c #77C370",
"v	c #7AC472",
"w	c #7BC474",
"x	c #89C183",
"y	c #7DC676",
"z	c #7EC875",
"A	c #C0B2A2",
"B	c #85C87E",
"C	c #86C97E",
"D	c #86C97F",
"E	c #87CB7F",
"F	c #89CB81",
"G	c #89CC81",
"H	c #8ACC82",
"I	c #8CCC85",
"J	c #8DCC85",
"K	c #C7B8A6",
"L	c #8ECE86",
"M	c #95CB90",
"N	c #C5BBAA",
"O	c #90D18A",
"P	c #CFC1B2",
"Q	c #D5C4B2",
"R	c #CFCAB6",
"S	c #A9D9A1",
"T	c #ECE4CC",
"U	c #FFFF00",
"V	c #FAF3D8",
"(((( ((((b      ",
"(@@(((@@(j8     ",
"(@@@(@@@(Oi|    ",
"((@@@@@((zLe{   ",
" ((@@@((yr_Ic'  ",
"((@@@@@((pouG6- ",
"(@@@(@@@(0uF4=  ",
"(@@(((@@:+++++++",
"((((w(((/.PNRAP.",
"4gJvon9aD3.tQt. ",
"77kH^msC12S.T.  ",
" 4|hEqC|)xd,V,  ",
" <l]fB[&}% .U.  ",
"  5M!<$*  .KUt. ",
"  '>~#   .UUUUU.",
"   ;     +++++++"};
