/* XPM */
static const char * term_acc_favorite_xpm[] = {
"16 16 129 2",
"  	c None",
". 	c #000000",
"+ 	c #000100",
"@ 	c #010301",
"# 	c #020301",
"$ 	c #060706",
"% 	c #080D07",
"& 	c #0E140D",
"* 	c #0C160B",
"= 	c #121B11",
"- 	c #532E11",
"; 	c #286625",
"> 	c #296727",
", 	c #2A6A28",
"' 	c #2B6B29",
") 	c #2D6C2A",
"! 	c #2F702C",
"~ 	c #30712D",
"{ 	c #32742F",
"] 	c #FF3A3A",
"^ 	c #377933",
"/ 	c #666666",
"( 	c #3A7E37",
"_ 	c #FE4444",
": 	c #378133",
"< 	c #3C8138",
"[ 	c #3E833B",
"} 	c #42873E",
"| 	c #FE4F4F",
"1 	c #42893E",
"2 	c #FE5050",
"3 	c #FF5050",
"4 	c #438A3E",
"5 	c #FE5151",
"6 	c #458C42",
"7 	c #FF5454",
"8 	c #488E44",
"9 	c #FF5656",
"0 	c #498E44",
"a 	c #499045",
"b 	c #4A9045",
"c 	c #4A9146",
"d 	c #449441",
"e 	c #4B9347",
"f 	c #50914E",
"g 	c #FF5E5E",
"h 	c #4E9549",
"i 	c #4E954A",
"j 	c #4E954B",
"k 	c #4F954B",
"l 	c #4F974B",
"m 	c #51984D",
"n 	c #529A4E",
"o 	c #519C4D",
"p 	c #509D4C",
"q 	c #519D4C",
"r 	c #529E4D",
"s 	c #FE6969",
"t 	c #559E4F",
"u 	c #FF6C6C",
"v 	c #59A154",
"w 	c #5AA155",
"x 	c #FF6F6F",
"y 	c #5FA359",
"z 	c #66A064",
"A 	c #FE7373",
"B 	c #61A65A",
"C 	c #61A75B",
"D 	c #62A95C",
"E 	c #63A95D",
"F 	c #64AA5E",
"G 	c #66AD5F",
"H 	c #FF7D7D",
"I 	c #67AD62",
"J 	c #FF7E7E",
"K 	c #FF7F7F",
"L 	c #FE8080",
"M 	c #6BB065",
"N 	c #6CB266",
"O 	c #71B06C",
"P 	c #FE8484",
"Q 	c #6DB665",
"R 	c #FF8989",
"S 	c #FF8A8A",
"T 	c #7AB576",
"U 	c #6DBD65",
"V 	c #6FBE66",
"W 	c #70C067",
"X 	c #71C069",
"Y 	c #74C06C",
"Z 	c #75C16D",
"` 	c #FA9696",
" .	c #BAA999",
"..	c #FF9696",
"+.	c #77C370",
"@.	c #FF9797",
"#.	c #7AC472",
"$.	c #7BC474",
"%.	c #FF9B9B",
"&.	c #89C183",
"*.	c #FF9C9C",
"=.	c #FF9D9D",
"-.	c #C0B2A2",
";.	c #85C87E",
">.	c #86C97E",
",.	c #86C97F",
"'.	c #87CB7F",
").	c #89CB81",
"!.	c #89CC81",
"~.	c #8ACC82",
"{.	c #8CCC85",
"].	c #8DCC85",
"^.	c #C7B8A6",
"/.	c #8ECE86",
"(.	c #95CB90",
"_.	c #C5BBAA",
":.	c #FFAFAF",
"<.	c #CFC1B2",
"[.	c #D5C4B2",
"}.	c #CFCAB6",
"|.	c #A9D9A1",
"1.	c #CCE4C9",
"2.	c #ECE4CC",
"3.	c #FFFF00",
"4.	c #FAF3D8",
"5.	c #FEF2F2",
"6.	c #F3F9F1",
"7.	c #F5FBF3",
"8.	c #FFFFFF",
"    . .     . .   v             ",
"  . :.8.. . @.J # M n           ",
". 3 5.=.*.` P s 2 & I b         ",
". ] R ..%...K g ] % /.B }       ",
"  . H L S R u _ @ Q 6 {.w (     ",
"    . 7 A x | @ o X W +.!.j ~   ",
"      + 9 5 $ 7.T q +.).h !     ",
"    l F = * 6.z 1.- - - - - - - ",
"  k E /.$.r T 1.f . <._.}.-.<.. ",
"h D ].#.W V p t ,.e .  .[. ..   ",
"m m N ~.4 U Z >.c d |.. 2..     ",
"  h b G '.Y >.b : &.y / 4./     ",
"  8 O 1 C ;.0 ' a ,   . 3..     ",
"    i (.< 8 > )     . ^.3. ..   ",
"    ( ^ [ ;       . 3.3.3.3.3.. ",
"      {           - - - - - - - "};
