/* XPM */
static const char * termaccount_xpm[] = {
"16 16 112 2",
"  	c None",
". 	c #000000",
"+ 	c #532E11",
"@ 	c #286625",
"# 	c #296727",
"$ 	c #2A6A28",
"% 	c #2B6B29",
"& 	c #2D6C2A",
"* 	c #2F702C",
"= 	c #30712D",
"- 	c #32742F",
"; 	c #377933",
"> 	c #666666",
", 	c #3A7E37",
"' 	c #378133",
") 	c #3C8138",
"! 	c #3E833B",
"~ 	c #42873E",
"{ 	c #42893E",
"] 	c #438A3E",
"^ 	c #458C42",
"/ 	c #488E44",
"( 	c #498E44",
"_ 	c #499045",
": 	c #4A9045",
"< 	c #4A9146",
"[ 	c #449441",
"} 	c #4B9347",
"| 	c #50914E",
"1 	c #4E9549",
"2 	c #4E954A",
"3 	c #4E954B",
"4 	c #4F954B",
"5 	c #4F974B",
"6 	c #50984C",
"7 	c #51984D",
"8 	c #529A4D",
"9 	c #529A4E",
"0 	c #549B4E",
"a 	c #509D4C",
"b 	c #519D4C",
"c 	c #529E4D",
"d 	c #559D4F",
"e 	c #529E4E",
"f 	c #559E4F",
"g 	c #569E50",
"h 	c #58A051",
"i 	c #58A052",
"j 	c #58A152",
"k 	c #59A154",
"l 	c #5AA155",
"m 	c #5FA359",
"n 	c #66A064",
"o 	c #61A65A",
"p 	c #61A75B",
"q 	c #62A95C",
"r 	c #63A95D",
"s 	c #64AA5E",
"t 	c #65AC5F",
"u 	c #66AD5F",
"v 	c #66AD61",
"w 	c #67AD62",
"x 	c #67AF62",
"y 	c #69AF63",
"z 	c #6AB063",
"A 	c #6BB065",
"B 	c #6CB266",
"C 	c #71B06C",
"D 	c #7AB576",
"E 	c #6DBD65",
"F 	c #6FBE66",
"G 	c #70C067",
"H 	c #71C069",
"I 	c #74C06C",
"J 	c #74C16B",
"K 	c #75C16D",
"L 	c #BAA999",
"M 	c #77C370",
"N 	c #7AC472",
"O 	c #7BC474",
"P 	c #89C183",
"Q 	c #7DC675",
"R 	c #7EC875",
"S 	c #C0B2A2",
"T 	c #85C87E",
"U 	c #86C97E",
"V 	c #86C97F",
"W 	c #87CB7F",
"X 	c #89CB81",
"Y 	c #89CC81",
"Z 	c #8ACC82",
"` 	c #8CCC85",
" .	c #8DCC85",
"..	c #C7B8A6",
"+.	c #8ECE86",
"@.	c #95CB90",
"#.	c #8ECE87",
"$.	c #C5BBAA",
"%.	c #8ECF87",
"&.	c #90CF87",
"*.	c #90D189",
"=.	c #90D18A",
"-.	c #CFC1B2",
";.	c #D5C4B2",
">.	c #CFCAB6",
",.	c #A9D9A1",
"'.	c #CCE4C9",
").	c #C9EDC3",
"!.	c #ECE4CC",
"~.	c #FFFF00",
"{.	c #FAF3D8",
"].	c #F5FBF3",
"                  k             ",
"                h A 9           ",
"              g z =.w :         ",
"            d y *.R +.o ~       ",
"          0 x &.Q J ^ ` l ,     ",
"        8 v %.j e H G M Y 3 =   ",
"      6 t #.).].D b M X 1 *     ",
"    5 s +.i ].n '.+ + + + + + + ",
"  4 r +.O c D '.| . -.$.>.S -.. ",
"1 q  .N G F a f V } . L ;.L .   ",
"7 7 B Z ] E K U < [ ,.. !..     ",
"  1 : u W I U : ' P m > {.>     ",
"  / C { p T ( % _ $   . ~..     ",
"    2 @.) / # &     . ..~.L .   ",
"    , ; ! @       . ~.~.~.~.~.. ",
"      -           + + + + + + + "};
