/* XPM */
static const char *tipicon_xpm[] = {
/* columns rows colors const chars-per-pixel */
"16 16 31 1",
"w c Black",
"> c #FFFFFF",
"& c #EDF010",
"8 c #808080",
"% c #BFBF50",
"0 c #909090",
", c #F3F520",
"< c #D8DB01",
": c #C9CC01",
"= c #000080",
"4 c #959640",
"1 c #BFC101",
"9 c #A0A0A0",
"6 c #D9DA70",
"; c #F9FA30",
"3 c #DEE010",
"  c None",
"7 c #A5A650",
"+ c #CFD110",
"5 c #DFDF80",
"O c #FFFF40",
"@ c #D5D620",
"$ c #FFFF6F",
". c #ABAD01",
"o c #EAEA30",
"X c #C7C816",
"# c #FFFF9F",
"2 c #C0C110",
"- c #7F7F60",
"q c #959595",
"* c #FFFFCF",
/* pixels */
"      ...       ",
"    .XoOO+.     ",
"    @#$%OO&.    ",
"   .#*O=-O;:    ",
"   @>$O=-OO,.   ",
"   @OOO=-OO;.   ",
"   XOOO=-OO<.   ",
"   .oOO%OO;1    ",
"    XOO=-;<.    ",
"     2OOO3.     ",
"     45567      ",
"     89990      ",
"     89990      ",
"      89q8      ",
"       ww       ",
"                "
};
