/* XPM */
static const char * trans_into_xpm[] = {
"16 16 20 1",
" 	c None",
".	c #A7A7A7",
"+	c #949495",
"@	c #FEFED3",
"#	c #828382",
"$	c #FDFEBA",
"%	c #FDFEBB",
"&	c #707071",
"*	c #FDFEA1",
"=	c #FDFEA2",
"-	c #5E5E5E",
";	c #FDFE89",
">	c #FCFE89",
",	c #4C4C4C",
"'	c #FCFF00",
")	c #3A3A3B",
"!	c #292929",
"~	c #171717",
"{	c #060606",
"]	c #000000",
"                ",
"                ",
"     .          ",
"    +@          ",
"   #$%          ",
"  &*==          ",
" -;>>>          ",
",'''''          ",
" )''''          ",
"  !'''          ",
"   ~''          ",
"    {'          ",
"     ]          ",
"                ",
"                ",
"                "};
