/* XPM */
static const char * trans_from_xpm[] = {
"16 16 20 1",
" 	c None",
".	c #A7A7A7",
"+	c #FEFED3",
"@	c #949495",
"#	c #FDFEBB",
"$	c #FDFEBA",
"%	c #828382",
"&	c #FDFEA2",
"*	c #FDFEA1",
"=	c #707071",
"-	c #FCFE89",
";	c #FDFE89",
">	c #5E5E5E",
",	c #FCFF00",
"'	c #4C4C4C",
")	c #3A3A3B",
"!	c #292929",
"~	c #171717",
"{	c #060606",
"]	c #000000",
"                ",
"                ",
".               ",
"+@              ",
"#$%             ",
"&&*=            ",
"---;>           ",
",,,,,'          ",
",,,,)           ",
",,,!            ",
",,~             ",
",{              ",
"]               ",
"                ",
"                ",
"                "};
