/* XPM */
static const char * trash_xpm[] = {
"12 16 141 2",
"  	c None",
". 	c #3E4D64",
"+ 	c #647591",
"@ 	c #7C8CA8",
"# 	c #ACB1B9",
"$ 	c #CCCDCE",
"% 	c #C2C2C2",
"& 	c #ABB3C2",
"* 	c #8A9EC0",
"= 	c #6C80A3",
"- 	c #3E5681",
"; 	c #516980",
"> 	c #96ABCE",
", 	c #ADBDD8",
"' 	c #AFB3B8",
") 	c #DFE0E2",
"! 	c #E0E0E0",
"~ 	c #F1F1F1",
"{ 	c #D4D5D5",
"] 	c #CBD3DD",
"^ 	c #CDD9E7",
"/ 	c #C0CEE2",
"( 	c #355392",
"_ 	c #88ACC3",
": 	c #9AC8E9",
"< 	c #A4C2E5",
"[ 	c #ADB8C7",
"} 	c #C2C2C4",
"| 	c #D1D1D3",
"1 	c #DDDFDF",
"2 	c #C7D0E0",
"3 	c #91A5CD",
"4 	c #7D9EE2",
"5 	c #4976E0",
"6 	c #4B67B0",
"7 	c #A3AFB8",
"8 	c #9DCDEE",
"9 	c #6BADE5",
"0 	c #62A1E4",
"a 	c #5A96E4",
"b 	c #528DE2",
"c 	c #4981E1",
"d 	c #3F74E0",
"e 	c #3669DD",
"f 	c #4771DF",
"g 	c #7F9DE2",
"h 	c #656F7E",
"i 	c #87898C",
"j 	c #FCFCFD",
"k 	c #F8FBFD",
"l 	c #DAE7F5",
"m 	c #B9CBE1",
"n 	c #AEC1DF",
"o 	c #A2B3D3",
"p 	c #B1BED8",
"q 	c #D1DBEC",
"r 	c #D8E0EB",
"s 	c #D0DAE7",
"t 	c #60656C",
"u 	c #636567",
"v 	c #F8F9FC",
"w 	c #F9FAFC",
"x 	c #FAFBFC",
"y 	c #F7F7F9",
"z 	c #E6E6E7",
"A 	c #D8DCDE",
"B 	c #DADFE4",
"C 	c #DFE6EF",
"D 	c #585D63",
"E 	c #F5F6FA",
"F 	c #F6F7FA",
"G 	c #F2EEF0",
"H 	c #DD9A95",
"I 	c #F7F7FA",
"J 	c #EDECF1",
"K 	c #D28D8A",
"L 	c #DEE4ED",
"M 	c #505459",
"N 	c #E5E8EC",
"O 	c #F2F5F9",
"P 	c #F4F6FA",
"Q 	c #DD9791",
"R 	c #DA8983",
"S 	c #D57F78",
"T 	c #D69C9C",
"U 	c #CCCFD4",
"V 	c #EFF2F7",
"W 	c #F1F4F8",
"X 	c #F0F2F8",
"Y 	c #D5726B",
"Z 	c #D16E67",
"` 	c #E1E5EB",
" .	c #DCE2EB",
"..	c #D6DEE9",
"+.	c #B0B4B9",
"@.	c #E9EEF5",
"#.	c #EAEDF4",
"$.	c #D89794",
"%.	c #D4817D",
"&.	c #D2817B",
"*.	c #D5918D",
"=.	c #E3E7ED",
"-.	c #DBE0E7",
";.	c #CDD6E2",
">.	c #93969D",
",.	c #E4E9F1",
"'.	c #DBDEE3",
").	c #D59B98",
"!.	c #E7E6E9",
"~.	c #DCDBDE",
"{.	c #CF908B",
"].	c #DFE3E7",
"^.	c #D7DBE1",
"/.	c #CCD4DF",
"(.	c #84888D",
"_.	c #E4E8EF",
":.	c #DFE3E5",
"<.	c #E0E2E5",
"[.	c #EAECF0",
"}.	c #DDDFE2",
"|.	c #E6E9ED",
"1.	c #D3D6DB",
"2.	c #D4D8DD",
"3.	c #C0C8D1",
"4.	c #74777B",
"5.	c #D8DEE6",
"6.	c #D9DCE2",
"7.	c #E5E8EE",
"8.	c #DADDE0",
"9.	c #E7EAED",
"0.	c #E2E5E9",
"a.	c #D2D5DA",
"b.	c #B4BBC3",
"c.	c #85898E",
"d.	c #C5C9D0",
"e.	c #D6DAE0",
"f.	c #DEE3EA",
"g.	c #DBE3EC",
"h.	c #D8DEE5",
"i.	c #C1C7CF",
"j.	c #93989F",
"                        ",
"  . + @ # $ % & * = -   ",
"; > , ' ) ! ~ { ] ^ / ( ",
"_ : < [ } | 1 2 3 4 5 6 ",
"7 8 9 0 a b c d e f g h ",
"i j k l m n o p q r s t ",
"u v w x y z A B C r s D ",
"  E F G H I J K L r s M ",
"  N O P Q R S T C r s   ",
"  U V W X Y Z `  ...s   ",
"  +.@.#.$.%.&.*.=.-.;.  ",
"  >.,.'.).!.~.{.].^./.  ",
"  (._.:.<.[.}.|.1.2.3.  ",
"  4.5.6.7.8.}.9.0.a.b.  ",
"    c.d.e.f.g.h.i.j.    ",
"                        "};
