/* XPM */
static const char * trees_xpm[] = {
"15 16 58 1",
" 	c None",
".	c #2D4A10",
"+	c #253E0C",
"@	c #568F1D",
"#	c #477618",
"$	c #1B2C08",
"%	c #5C981F",
"&	c #61A121",
"*	c #5D9B20",
"=	c #29440E",
"-	c #58921D",
";	c #5B971F",
">	c #2F4F0F",
",	c #5E9C20",
"'	c #609F21",
")	c #467418",
"!	c #51871B",
"~	c #619F21",
"{	c #375B12",
"]	c #355612",
"^	c #5A971F",
"/	c #4C7E1B",
"(	c #5B961F",
"_	c #57911E",
":	c #50841B",
"<	c #315310",
"[	c #365912",
"}	c #477518",
"|	c #51881B",
"1	c #59941E",
"2	c #538A1C",
"3	c #5C991F",
"4	c #4E811A",
"5	c #5E9D20",
"6	c #4B7D1A",
"7	c #355812",
"8	c #335411",
"9	c #5D931E",
"0	c #758D21",
"a	c #5E9B20",
"b	c #467417",
"c	c #5F9D20",
"d	c #395E13",
"e	c #9F6021",
"f	c #477718",
"g	c #60A021",
"h	c #548B1C",
"i	c #975B1F",
"j	c #453B0F",
"k	c #2E4D11",
"l	c #5E9820",
"m	c #619820",
"n	c #3C6515",
"o	c #006C00",
"p	c #814F1A",
"q	c #005000",
"r	c #005B00",
"s	c #6E5B16",
"    .          ",
"   +@#$        ",
"   %&&*=       ",
"  -&&&&;       ",
" >,&&&&')      ",
" !&&&&&&~{]    ",
" ^&&&&&&&/%(.  ",
" _&&&&&&:&&&'< ",
"[&&&&&&'}&&&&| ",
" 1&&&&&23&&&&& ",
"  45&&&6;&&&&&7",
"   890abc&&&&&d",
"     e  fg&&&h ",
"     ij  klmn  ",
"   o       p   ",
"         qrs   "};
