/* XPM */
static const char * trees_xpm[] = {
"48 48 337 2",
"  	c None",
". 	c #74D216",
"+ 	c #73D216",
"@ 	c #76D519",
"# 	c #7BD620",
"$ 	c #7DDA23",
"% 	c #7DD924",
"& 	c #74D318",
"* 	c #78D61C",
"= 	c #7AD71F",
"- 	c #7CD923",
"; 	c #83DD2B",
"> 	c #8AE233",
", 	c #83DC2B",
"' 	c #73D316",
") 	c #76D419",
"! 	c #80DB26",
"~ 	c #83DE2B",
"{ 	c #73D215",
"] 	c #78D61D",
"^ 	c #7ED924",
"/ 	c #75D31B",
"( 	c #73D116",
"_ 	c #77D51B",
": 	c #79D61E",
"< 	c #76D51B",
"[ 	c #73D217",
"} 	c #76CF16",
"| 	c #75D016",
"1 	c #73D317",
"2 	c #9EA414",
"3 	c #AF9415",
"4 	c #A89914",
"5 	c #B58C15",
"6 	c #76D41A",
"7 	c #7CD822",
"8 	c #80DB27",
"9 	c #86DF2E",
"0 	c #83DD2C",
"a 	c #78D51C",
"b 	c #B38D13",
"c 	c #BC8517",
"d 	c #73D315",
"e 	c #74D116",
"f 	c #79D51D",
"g 	c #82DC29",
"h 	c #79D61F",
"i 	c #72D015",
"j 	c #71CF15",
"k 	c #BD8314",
"l 	c #C18014",
"m 	c #71CD15",
"n 	c #70CE15",
"o 	c #71CE15",
"p 	c #72D116",
"q 	c #75D319",
"r 	c #7BD821",
"s 	c #7AD720",
"t 	c #77D41A",
"u 	c #74D218",
"v 	c #71CE16",
"w 	c #7AD520",
"x 	c #72CE18",
"y 	c #6ECA14",
"z 	c #71C614",
"A 	c #C28016",
"B 	c #C17E12",
"C 	c #73C313",
"D 	c #6DC913",
"E 	c #6DC914",
"F 	c #6ECB14",
"G 	c #6FCC14",
"H 	c #70CD15",
"I 	c #77D41D",
"J 	c #7BD720",
"K 	c #77D51C",
"L 	c #75D218",
"M 	c #6FCB14",
"N 	c #6DC813",
"O 	c #6EC814",
"P 	c #71CB19",
"Q 	c #6AC512",
"R 	c #75BB12",
"S 	c #C17D11",
"T 	c #72BD13",
"U 	c #69C412",
"V 	c #6AC412",
"W 	c #6BC512",
"X 	c #6BC613",
"Y 	c #6CC813",
"Z 	c #71D015",
"` 	c #74D217",
" .	c #75D419",
"..	c #6FCD14",
"+.	c #6CC713",
"@.	c #69C312",
"#.	c #68C211",
"$.	c #6AC312",
"%.	c #67C011",
"&.	c #79B111",
"*.	c #71B611",
"=.	c #66BE10",
"-.	c #66BF11",
";.	c #68C111",
">.	c #72D216",
",.	c #69C212",
"'.	c #66BF10",
").	c #65BD10",
"!.	c #64BC10",
"~.	c #64BB0F",
"{.	c #7FA911",
"].	c #C27F15",
"^.	c #C27F14",
"/.	c #70B10F",
"(.	c #63B90F",
"_.	c #63BA0F",
":.	c #65BC10",
"<.	c #72D016",
"[.	c #62B80F",
"}.	c #61B70E",
"|.	c #60B60E",
"1.	c #83A110",
"2.	c #C17E13",
"3.	c #6EAB0E",
"4.	c #5FB40E",
"5.	c #60B50E",
"6.	c #61B60E",
"7.	c #62B80E",
"8.	c #67BF11",
"9.	c #6DCA14",
"0.	c #75B710",
"a.	c #82AB13",
"b.	c #5FB40D",
"c.	c #5EB20D",
"d.	c #5DB10C",
"e.	c #889B10",
"f.	c #6DA60D",
"g.	c #5CB00C",
"h.	c #67B70F",
"i.	c #83AA10",
"j.	c #C07F15",
"k.	c #A68D0F",
"l.	c #71AE0F",
"m.	c #5CAF0C",
"n.	c #5BAD0C",
"o.	c #5AAC0B",
"p.	c #8F9510",
"q.	c #6BA30C",
"r.	c #59AB0B",
"s.	c #5BAE0C",
"t.	c #5DB00C",
"u.	c #66AC0D",
"v.	c #938B12",
"w.	c #9D8110",
"x.	c #69C211",
"y.	c #89A211",
"z.	c #BE7E10",
"A.	c #BE8015",
"B.	c #90960E",
"C.	c #5FAC0D",
"D.	c #58A90A",
"E.	c #57A70A",
"F.	c #968F10",
"G.	c #699E0B",
"H.	c #56A70A",
"I.	c #5BAA0B",
"J.	c #819410",
"K.	c #AA750F",
"L.	c #AA7914",
"M.	c #6EA90E",
"N.	c #77A60F",
"O.	c #B78414",
"P.	c #C07C10",
"Q.	c #B38514",
"R.	c #749D0B",
"S.	c #56A609",
"T.	c #54A309",
"U.	c #9C8A10",
"V.	c #689B0B",
"W.	c #6A9B0B",
"X.	c #9F7D0F",
"Y.	c #B07313",
"Z.	c #9F7E0F",
"`.	c #6AAA0E",
" +	c #70CD14",
".+	c #6BC612",
"++	c #5FB30D",
"@+	c #63AD0C",
"#+	c #9A8F0E",
"$+	c #C17F15",
"%+	c #A38912",
"&+	c #70970A",
"*+	c #A58711",
"=+	c #73930A",
"-+	c #8E8410",
";+	c #AF7210",
">+	c #AE7413",
",+	c #868D0E",
"'+	c #5EAE0C",
")+	c #72D215",
"!+	c #789C0E",
"~+	c #B78112",
"{+	c #C07E15",
"]+	c #B47511",
"^+	c #B17414",
"/+	c #A07B0F",
"(+	c #6A9F0D",
"_+	c #5AAD0B",
":+	c #5EB30D",
"<+	c #62B90F",
"[+	c #5EB10D",
"}+	c #61A70C",
"|+	c #A58710",
"1+	c #B47614",
"2+	c #8D860E",
"3+	c #5BA90B",
"4+	c #73D115",
"5+	c #64BB10",
"6+	c #5DB10D",
"7+	c #5BAD0B",
"8+	c #5DAB0B",
"9+	c #A78913",
"0+	c #9D8511",
"a+	c #5BAB0B",
"b+	c #68C011",
"c+	c #6AA80E",
"d+	c #7D9F0F",
"e+	c #65BE10",
"f+	c #60B40E",
"g+	c #6AAD0E",
"h+	c #80A310",
"i+	c #69C111",
"j+	c #8F9F12",
"k+	c #C37F13",
"l+	c #C28012",
"m+	c #C27D14",
"n+	c #C07F13",
"o+	c #C17E14",
"p+	c #C07E12",
"q+	c #C27E13",
"r+	c #BE7C12",
"s+	c #BF7C12",
"t+	c #BC7A12",
"u+	c #BF7E15",
"v+	c #BB790F",
"w+	c #B97913",
"x+	c #C27C12",
"y+	c #BE7B10",
"z+	c #BC7C14",
"A+	c #B8760E",
"B+	c #B67712",
"C+	c #BB7A10",
"D+	c #B97A13",
"E+	c #B5750E",
"F+	c #B0720C",
"G+	c #C17D12",
"H+	c #BD7B13",
"I+	c #BA7911",
"J+	c #B67710",
"K+	c #B37410",
"L+	c #B0720F",
"M+	c #AD7010",
"N+	c #BD7C15",
"O+	c #B97810",
"P+	c #B77813",
"Q+	c #B2730E",
"R+	c #B17311",
"S+	c #AC6F0C",
"T+	c #AB6F0F",
"U+	c #BA7A14",
"V+	c #B6760F",
"W+	c #B47612",
"X+	c #AF710D",
"Y+	c #AE7110",
"Z+	c #A96D0B",
"`+	c #A76B0D",
" @	c #A5680A",
".@	c #B77712",
"+@	c #B4740F",
"@@	c #B17310",
"#@	c #AE6F0D",
"$@	c #AA6E0D",
"%@	c #A76C0C",
"&@	c #A4680A",
"*@	c #A2670B",
"=@	c #B1720E",
"-@	c #AE700E",
";@	c #AB6E0D",
">@	c #A46A0B",
",@	c #A16609",
"'@	c #9F650A",
")@	c #976006",
"!@	c #B37613",
"~@	c #B3740E",
"{@	c #B27411",
"]@	c #AD700C",
"^@	c #AB6E0E",
"/@	c #A86B0B",
"(@	c #A46A0C",
"_@	c #9E6509",
":@	c #9B6308",
"<@	c #985E06",
"[@	c #7E5209",
"}@	c #B57612",
"|@	c #B1720D",
"1@	c #AA6E0B",
"2@	c #A96D0E",
"3@	c #A46909",
"4@	c #A3690C",
"5@	c #9D6407",
"6@	c #9C640A",
"7@	c #976005",
"8@	c #965F08",
"9@	c #865503",
"0@	c #B2720E",
"a@	c #AF710F",
"b@	c #AB6E0C",
"c@	c #A86C0D",
"d@	c #A56A0B",
"e@	c #A2680A",
"f@	c #9F6609",
"g@	c #9B6207",
"h@	c #996208",
"i@	c #955E05",
"j@	c #935D07",
"k@	c #8F5A03",
"l@	c #7B4D05",
"m@	c #6A4507",
"n@	c #8C5B0E",
"o@	c #825309",
"p@	c #7C510B",
"q@	c #784D06",
"r@	c #7F520A",
"s@	c #855505",
"t@	c #945F0A",
"u@	c #6A4303",
"v@	c #492E02",
"                                          . + . @ # $ %                                         ",
"                                      + + + + & * = - ; > ,                                     ",
"                                  ' + + + + + + + + + + ) ! ~ =                                 ",
"                                { + + + + + + + + + + + + + ] ^ /                               ",
"                              ( + + + + + + + + + + + + + + + _ : .                             ",
"                            + + + + + + + + + + + + + + + + + + < [ (                           ",
"                            + + + + + + + + } | + + + + + + + + 1 [ +                           ",
"                          + + + + + + + + + 2 3 + + + + + + + + + + + +                         ",
"                        ( + & + + + + + + + 4 5 + + + + + + + + + + + +                         ",
"                    + + 6 7 8 9 0 a + + + + b c + + + + + + + + + + + + d                       ",
"                e + + + + + + + f g h i j j k l m n n o j i p + + q r 7 s t u                   ",
"                + + + + + + + i j v w x y z A B C D D E y F G H I J : K : s h L                 ",
"              + + + + + p j H M y N O P Q R A S T U V Q W X Y D y G n Z + + `  .(               ",
"            d + + + p j ..F D +.Q @.#.$.%.&.A B *.=.-.%.;.#.@.Q X N y G o p + + + >.            ",
"            + + + i H F D X V ,.%.'.).!.~.{.].^./.(._.~.:.).-.;.@.Q +.D M n <.+ + +             ",
"            + + j ..y +.Q @.%.=.!._.[.}.|.1.2.A 3.4.5.6.7.(.~.).8.#.V X D M n p + + >.          ",
"            + j G 9.+.V 0.a.)._.[.|.b.c.d.e.B A f.g.d.c.b.|.7.h.:.-.;.V +.E G j + + +           ",
"            i H y +.V ;.i.j.k.l.b.c.m.n.o.p.2.^.q.r.o.s.t.u.v.w._.).8.x.Q Y F n p + +           ",
"            n F Y Q #.8.:.y.z.A.B.C.o.D.E.F.^.^.G.H.D.I.J.K.L.M.[.~.=.;.V +.y H i + +           ",
"            ..9.X @.%.)._.}.N.O.P.Q.R.S.T.U.2.^.V.T.W.X.Y.Z.`.5.7.~.=.;.V +.y  +i + +           ",
"              D .+@.%.:.(.6.++@+#+$+P.%+&+*+B A =+-+;+>+,+'+c.5.7.~.=.;.V +.y H i + )+          ",
"              N W ,.8.:.(.6.++t.n.!+~+2.2.{+2.].]+^+/+(+_+g.:+|.<+!.'.#.Q Y F n p +             ",
"                X @.%.)._.}.b.[+m.o.}+|+$+B ].B 1+2+3+_+m.c.5.7._.).%.@.X D G j + 4+            ",
"                  V ;.=.5+<+6.b.6+m.7+8+9+S A S 0+a+s.t.:+5.7._.).%.@.W N F n p +               ",
"                    ,.b+=.~.<+}.5.  6+t.c+S A S d+6+:+5.}.<+~.e+%.@.W Y F n <.+                 ",
"                                      f+g+B ].2.h+6.}.(.~.    i+U X N F n p                     ",
"                                          ^.^.].j+~.                                            ",
"                                          A B A                                                 ",
"                                          ].2.].k+                                              ",
"                                        l+^.2.^.m+                                              ",
"                                        n+].2.^.o+                                              ",
"                                        p+A B ].B                                               ",
"                                        q+].B A r+                                              ",
"                                        ].2.].s+t+                                              ",
"                                        A S u+v+w+                                              ",
"                                      x+A y+z+A+B+                                              ",
"                                      B {+C+D+E+]+F+                                            ",
"                                      G+H+I+J+K+L+M+                                            ",
"                                      N+O+P+Q+R+S+T+                                            ",
"                                    C+U+V+W+X+Y+Z+`+ @                                          ",
"                                    O+.@+@@@#@$@%@&@*@                                          ",
"                                    V+]+=@-@;@%@>@,@'@)@                                        ",
"                                  !@~@{@]@^@/@(@,@_@:@<@                                        ",
"                                [@}@|@;+1@2@3@4@5@6@7@8@9@                                      ",
"                                R+0@a@b@c@d@e@f@g@h@i@j@k@l@                                    ",
"                              m@n@o@p@q@r@s@t@u@          v@                                    ",
"                                                                                                ",
"                                                                                                "};
