/* XPM */
static const char *unreconciled_xpm[] = {
/* columns rows colors const chars-per-pixel */
"16 16 156 2",
"D. c #4C291B",
"d. c #0A0803",
"3. c #191407",
">. c #D9D9D9",
"D  c #E8E8E8",
"n. c #783D2C",
"@  c #5E4239",
"-. c #9E6C61",
"U  c #C3C3C3",
" . c #C0B3B0",
"i. c #D2D2D2",
"_  c #E1E1E1",
"r. c #914E3F",
"N  c #F0F0F0",
"2. c #603023",
"(  c #444444",
"*. c #21190C",
"1  c #AD7568",
"o. c #8F8F8F",
"m  c #964C3B",
"H  c #4D2D21",
"A. c #372013",
"*  c #151106",
"Z. c #1A1508",
"]  c #B77767",
"<. c #DADADA",
"^  c #945243",
"S  c #E9E9E9",
"l. c #D5D3D3",
"3  c #AF604D",
"2  c #B27061",
"O  c #5A423C",
"K  c #C0A199",
":. c #C4C4C4",
"'  c #E2E2E2",
"F  c #DFD2CF",
"T  c #363636",
"F. c #2E1C0F",
":  c #9C5747",
"b. c #22170C",
"f  c #974D3B",
"d  c #492A1F",
"Y  c #AEAEAE",
"}  c #5D3A2C",
"   c None",
"w. c #27180D",
"f. c #2C1C10",
"e  c #EAEAEA",
"=. c #95503F",
"M  c #D3C4C1",
"V. c #4E281C",
"0  c #955040",
"h. c #9A5443",
"G  c #251B0C",
"u. c #7A7A7A",
"B. c #954A38",
")  c #8E8D8D",
",  c #A26558",
"M. c #AE6453",
"g. c #894837",
";. c #D4D4D4",
"5  c #844131",
".. c #E3E3E3",
"v. c #1E1709",
"<  c #AA7366",
"$  c #4A3129",
"I  c #555555",
"$. c #D6C5C1",
"+  c #5E443C",
"C  c #828282",
"k  c #919191",
"q  c #A6827A",
"7. c #A0A0A0",
"6  c #402017",
"k. c #CDCDCD",
"{  c #1C1709",
"@. c #DCDCDC",
"i  c #CEA89F",
"/  c #9E685C",
"L  c #EBEBEB",
"[  c #4F291C",
"l  c #8A8A8A",
"j. c #B19A95",
"p  c #AA6150",
";  c #995B4C",
"9. c #D5D5D5",
"&  c #0B0802",
"E  c #E4E4E4",
"y  c #F3F3F3",
"S. c #572E1F",
"0. c #CAABA4",
"m. c #A5513D",
"w  c #D5C9C6",
"z  c #DDDDDD",
">  c #975242",
"A  c #4F4F4F",
"6. c #B29E99",
"J  c #974F3F",
"W  c #CDA9A1",
"v  c #813F2F",
"a  c #5A2C20",
"X. c #E5E5E5",
"=  c #110D06",
"%  c #1D0F09",
"r  c #F4F4F4",
"8. c #575757",
"7  c #160E06",
"Z  c #757575",
"Q  c #7A3B2C",
"y. c #B1B1B1",
"5. c #954938",
"x. c #A45846",
"j  c #DEDEDE",
"P  c #EDEDED",
"%. c #894433",
"O. c #414141",
"#  c #543B33",
"z. c #C9ACA6",
"1. c #B97E70",
"|  c #934938",
"s  c #080600",
"o  c #57423B",
"R  c #E6E6E6",
"#. c #DCDBDB",
"&. c #2D1C0F",
"t  c #F5F5F5",
"V  c #494949",
"t. c #B9B0AE",
"u  c #E6DDDC",
"-  c #57362C",
"e. c #7E4636",
"q. c #854131",
"x  c #EEEEEE",
".  c #100B04",
"C. c #1A1308",
"4  c #A04F3C",
"9  c #7C493D",
"s. c #462419",
"8  c #4B281C",
",. c #D8D8D8",
"+. c #DDDCDC",
"h  c #F6F6F6",
"b  c #181006",
"~  c #5A3122",
"!  c #271C0D",
"a. c #9C5241",
"c. c #552A1E",
"N. c #B06554",
"`  c #E0E0E0",
"B  c #EFEFEF",
"X  c #513931",
"p. c #D3C2BE",
"c  c #DDCDCA",
"4. c #513326",
"g  c #B59E98",
"n  c #4C2C21",
/* pixels */
"                                ",
"      . X o O + @ # $ % & *     ",
"  = - ; : > , < 1 2 3 4 5 6 7   ",
"8 9 0 q w e r t r r y u i p a s ",
"d f g r r h j k l z x x x c v b ",
"n m M N B h V C Z A e S D F 5 G ",
"H J K x L P I U Y T R R E W Q ! ",
"~ ^ / E D R z z ( ) _ ` ' ] [ { ",
"{ } |  ..._ X.o.O.+.@.#.$.%.&.  ",
"  *.=.-.;.j #.:.C >.,.<.1.2.3.  ",
"    4.5.6.>.@.7.8.9.9.0.q.w.    ",
"    { e.r.t.;.y.u.i.p.a.s.d.    ",
"      f.g.h.j.k.l.z.x.c.v.      ",
"        b.n.m.M.N.B.V.C.        ",
"          Z.A.S.D.F.Z.          ",
"                                "
};
