/* XPM */
static const char * update_currency_xpm[] = {
"16 16 123 2",
"  	c None",
". 	c #004900",
"+ 	c #004A00",
"@ 	c #005500",
"# 	c #006400",
"$ 	c #006700",
"% 	c #006B00",
"& 	c #007C00",
"* 	c #017F00",
"= 	c #0C8000",
"- 	c #3465A4",
"; 	c #3565A4",
"> 	c #088300",
", 	c #3566A4",
"' 	c #3566A5",
") 	c #088500",
"! 	c #3667A5",
"~ 	c #3767A5",
"{ 	c #3767A6",
"] 	c #3768A5",
"^ 	c #3768A6",
"/ 	c #3868A6",
"( 	c #3869A6",
"_ 	c #3969A6",
": 	c #3969A7",
"< 	c #3A69A7",
"[ 	c #3A6AA6",
"} 	c #3A6AA7",
"| 	c #128701",
"1 	c #3B6BA7",
"2 	c #158704",
"3 	c #3C6BA8",
"4 	c #3C6BA9",
"5 	c #118908",
"6 	c #3C6CA9",
"7 	c #3D6DA9",
"8 	c #4170AB",
"9 	c #1D8B0C",
"0 	c #1C8B11",
"a 	c #4371AB",
"b 	c #1C8D0E",
"c 	c #228B11",
"d 	c #1C8D11",
"e 	c #1D8D12",
"f 	c #209012",
"g 	c #249012",
"h 	c #269015",
"i 	c #4B77AF",
"j 	c #26911D",
"k 	c #4C77AF",
"l 	c #4C78AF",
"m 	c #2A911C",
"n 	c #4C78B0",
"o 	c #4D79B0",
"p 	c #4E7AB1",
"q 	c #2A941D",
"r 	c #2D9522",
"s 	c #4F7CB6",
"t 	c #2E9524",
"u 	c #2E9526",
"v 	c #537FB7",
"w 	c #319828",
"x 	c #5580B5",
"y 	c #359828",
"z 	c #389B2D",
"A 	c #5B84B7",
"B 	c #3D9B2D",
"C 	c #3D9F31",
"D 	c #49A03D",
"E 	c #4AA33D",
"F 	c #4DA342",
"G 	c #6890C0",
"H 	c #6990C0",
"I 	c #6891C7",
"J 	c #54A546",
"K 	c #51A744",
"L 	c #54A749",
"M 	c #55A74A",
"N 	c #6D94C2",
"O 	c #59A74D",
"P 	c #6C95C9",
"Q 	c #58A949",
"R 	c #58A94D",
"S 	c #5CA94D",
"T 	c #7298C5",
"U 	c #5CAC4E",
"V 	c #82A5CE",
"W 	c #84A6CE",
"X 	c #88ABD2",
"Y 	c #8AACD3",
"Z 	c #8FACD0",
"` 	c #8CADD3",
" .	c #8FADD2",
"..	c #8EAED3",
"+.	c #8FB0D3",
"@.	c #95B2D4",
"#.	c #97B6D8",
"$.	c #9CB7D7",
"%.	c #99B9DB",
"&.	c #9DBDDC",
"*.	c #A0BEDE",
"=.	c #A1BEDD",
"-.	c #B0C9E3",
";.	c #B4CAE3",
">.	c #BCD1E7",
",.	c #C1D2E6",
"'.	c #C4D7EB",
").	c #C6D8EB",
"!.	c #C8D8EA",
"~.	c #C9D9EA",
"{.	c #C9DAEC",
"].	c #CCDCED",
"^.	c #D8E4F1",
"/.	c #DBE6F2",
"(.	c #DDE8F3",
"_.	c #E0E9F4",
":.	c #E3ECF5",
"<.	c #E4ECF5",
"[.	c #E4EDF5",
"}.	c #E5EDF5",
"|.	c #E5EDF6",
"1.	c #E6EEF6",
"2.	c #E7EEF6",
"        < } ! h h               ",
"      / G +.= Q S 2 ~       -   ",
"    _ ` &.=.| O U 9 @ i ! a ,   ",
"  : H T 3 B F M E K z 0 . !.}   ",
"  / 8 6 c J C * % > t q % 1.}   ",
"  ; } I y R g       , + ).:.[   ",
"  -     m L y +   / Z 2./.1.[   ",
"        % u D r b > # k k l -   ",
"  - - - - - - - f w j )         ",
"  - }.|.<.$.^     $ d e +   -   ",
"  , 1.'.~.-         & ' P v -   ",
"  ~ 1.:.[.,.o (   @ 5 4 s } ]   ",
"  / ^.@._.(.]. .n ' _ _ 7 n }   ",
"  ~ A ! p ;.{.>.-.*.X V ../     ",
"  - !     { x W #.%.Y N /       ",
"  -           } ( , } 1         "};
