/* XPM */
static const char *user_edit_xpm[] = {
/* columns rows colors const chars-per-pixel */
"16 16 152 2",
"B  c #F6CFA5",
":  c #8A4A0F",
"e  c #F1C597",
"d  c #925B2A",
"i. c #616186",
";. c #FDF6C2",
"I  c #FDF6C4",
"w  c #F7E8D9",
"U  c #F6DD6C",
"J  c #A97B4E",
"C. c #BD8849",
"{  c #98D1FF",
"!  c #72D4FF",
"t. c #EFBC83",
"9  c #6B4522",
"G  c #1C48BC",
"D  c #FCE0C4",
"0  c #663B11",
"2  c #5C330F",
"v. c #F9C794",
"c  c #FFF3E5",
".  c #8D4812",
"1. c #EAB275",
"6. c #84BBF5",
"o. c #F7E15A",
"#. c #CE7C28",
"[  c #ABC8FC",
"m. c #A46223",
"5. c #58669F",
".. c #E7CB77",
"1  c #754112",
";  c #9F5812",
"}  c #6DC7FE",
"E  c #1F4CC4",
"r. c #5D6496",
"x  c #F0D2B4",
"-. c #D3B876",
"%  c #935311",
"7  c #6E4015",
"T  c #D7A363",
"f. c #BE7A1A",
"3. c #D17D29",
"x. c #2050B3",
"M. c #3D4989",
"h. c #B78849",
">  c #874B0F",
"e. c #D29651",
"*. c #63B6FF",
"q  c #9B5E1F",
",  c #874B11",
"n  c #253C6A",
"   c None",
">. c #F8E25D",
"Q  c #A4E4FF",
"#  c #9B5812",
"V  c #BF8A2E",
"L  c #BA8C42",
"*  c #713E0E",
"w. c #EDD078",
"4. c #EEBA82",
"@. c #726668",
"Y  c #EDCA6D",
"@  c #964E11",
"$  c #995812",
"'  c #DF9940",
"C  c #EBD37E",
"0. c #E4C955",
"g  c #EACCAB",
"7. c #7492A7",
"B. c #553D11",
"g. c #C59849",
"t  c #D1A97F",
"<. c #D89547",
"P  c #EED47D",
"a  c #DBB185",
"b. c #F9C991",
"%. c #949EB3",
"b  c #C78C48",
"s. c #FFF2E0",
"N. c #244FB2",
"V. c #875F28",
"l. c #CE7E2E",
"&. c #60B7FF",
"X  c #904B10",
"i  c #A76823",
"l  c #B78428",
"|  c #68BFFE",
"6  c #C89C71",
"2. c #C77429",
"R  c #D29B5D",
"&  c #874A0F",
"~  c #69C9FF",
"O  c #7D4211",
"K  c #A87B4D",
"z  c #E7BE77",
"`  c #F2D67A",
"Z  c #F9E3B2",
"5  c #E4B78A",
"H  c #D4E2F4",
"9. c #D1B790",
"+  c #5B3315",
"S  c #F6D3AE",
"h  c #F6D0A7",
"j  c #F6D0A8",
"k. c #6D647A",
"3  c #873E0C",
"u. c #CD7925",
",. c #F0D379",
"v  c #EFD2AC",
"z. c #D3A26D",
"o  c #8A480F",
"F  c #D39F66",
"4  c #B8977C",
"d. c #D89A54",
"(  c #FDF7C7",
"p. c #3560BF",
"8  c #724419",
"a. c #AA8943",
"/  c #EED379",
"r  c #E5BB8E",
"n. c #C98541",
"$. c #EAB378",
"_  c #F7E25B",
"=  c #4B2E13",
"]  c #44548A",
"N  c #F7D4AF",
"-  c #974B0F",
"O. c #F1D47B",
"8. c #D5B67A",
":. c #F7DF63",
"=. c #7DA3B3",
"m  c #A76D34",
"u  c #EEDFCD",
"q. c #F5DF5B",
"+. c #D49146",
"Z. c #BC8D42",
"s  c #D09D46",
"j. c #42549C",
" . c #80A7B0",
"W  c #D6E4F6",
"X. c #F5DC5E",
")  c #F5DC5F",
"k  c #EECDA7",
"^  c #86BBBF",
"f  c #EECAA6",
"c. c #81642D",
"y  c #DFB589",
"M  c #F8CC9C",
"y. c #CA772A",
"A  c #E7C08B",
"<  c #854C15",
"p  c #D8A558",
/* pixels */
"                                ",
"          . X o O +             ",
"        @ # $ % & * =           ",
"      - ; : > , < 1 2           ",
"      3 4 5 6 7 8 9 0           ",
"      q w e r t y u i   p a s   ",
"      d f g h j g k l z x c v b ",
"      n m M N N B V C Z A S D F ",
"      G H J K K L P I U Y T R   ",
"    E W Q ! ~ ^ / ( ) _ ` '     ",
"  ] [ { } |  ...( X.o.O.+.@.    ",
"#.$.%.&.*.=.-.;.:.>.,.<.1.2.    ",
"3.4.5.6.7.8.9.0.q.w.e.r.t.y.    ",
"  u.i.p.a.s.d.f.g.h.j.k.l.z.    ",
"      x.c.v.b.n.m.M.N.          ",
"        B.V.C.Z.                "
};
