/* XPM */
static const char * view_xpm[] = {
"48 48 482 2",
"  	c None",
". 	c #A5A5A5",
"+ 	c #CACACA",
"@ 	c #BCBCBC",
"# 	c #AAAAAA",
"$ 	c #FFFFFF",
"% 	c #FBFBFB",
"& 	c #C4C4C4",
"* 	c #C8C8C8",
"= 	c #C4C5C5",
"- 	c #999999",
"; 	c #989899",
"> 	c #979798",
", 	c #949494",
"' 	c #A8A8A8",
") 	c #F3F3F3",
"! 	c #C5C5C5",
"~ 	c #D0D0D0",
"{ 	c #C6C6C6",
"] 	c #BABABA",
"^ 	c #8E8E8F",
"/ 	c #939393",
"( 	c #959596",
"_ 	c #969696",
": 	c #8A8A8B",
"< 	c #B9B9B9",
"[ 	c #D4D4D4",
"} 	c #C7C7C7",
"| 	c #A2A2A1",
"1 	c #BFBFBF",
"2 	c #A9A9AA",
"3 	c #979797",
"4 	c #848484",
"5 	c #8C8C8C",
"6 	c #959695",
"7 	c #D7D7D7",
"8 	c #FEFEFE",
"9 	c #FDFDFD",
"0 	c #E7E7E4",
"a 	c #838482",
"b 	c #2D2D2D",
"c 	c #A1A1A1",
"d 	c #C3C3C3",
"e 	c #7F7F7F",
"f 	c #1E1E1E",
"g 	c #9D9E9B",
"h 	c #EDEEEB",
"i 	c #DADADA",
"j 	c #FCFCFC",
"k 	c #F2F2F1",
"l 	c #E8E9E6",
"m 	c #D9DAD6",
"n 	c #D9DAD5",
"o 	c #979795",
"p 	c #030303",
"q 	c #2A2A2A",
"r 	c #626262",
"s 	c #B7B8B5",
"t 	c #D7D8D4",
"u 	c #EBECE9",
"v 	c #F5F6F4",
"w 	c #C9C9C9",
"x 	c #DDDDDD",
"y 	c #F6F6F5",
"z 	c #ECECEA",
"A 	c #E2E3E0",
"B 	c #DBDCD8",
"C 	c #DADBD6",
"D 	c #DADCD8",
"E 	c #B3B4AF",
"F 	c #020202",
"G 	c #1B1B1B",
"H 	c #464646",
"I 	c #525252",
"J 	c #4B4B4B",
"K 	c #383838",
"L 	c #D7D7D3",
"M 	c #D9DBD5",
"N 	c #DBDBD7",
"O 	c #E5E6E2",
"P 	c #F0F0EE",
"Q 	c #F9FAF9",
"R 	c #CBCBCB",
"S 	c #E0E0E0",
"T 	c #D1D1D1",
"U 	c #AEAEAD",
"V 	c #DCDDD9",
"W 	c #D2D3CE",
"X 	c #DADBD5",
"Y 	c #DADCD7",
"Z 	c #CACBC7",
"` 	c #0D0D0D",
" .	c #323232",
"..	c #494949",
"+.	c #4F4F4F",
"@.	c #4D4D4D",
"#.	c #333333",
"$.	c #2F2F2E",
"%.	c #D7D8D3",
"&.	c #D4D5D0",
"*.	c #D5D6D0",
"=.	c #D1D2CC",
"-.	c #CECFCB",
";.	c #D6D6D1",
">.	c #DEDFDB",
",.	c #F8F8F7",
"'.	c #E4E4E4",
").	c #C2C2C2",
"!.	c #B1B2B0",
"~.	c #A8A9A7",
"{.	c #767675",
"].	c #696968",
"^.	c #676767",
"/.	c #676766",
"(.	c #6F6F6F",
"_.	c #888887",
":.	c #CACBC6",
"<.	c #3F3F3F",
"[.	c #3B3B3B",
"}.	c #4C4C4C",
"|.	c #2E2E2E",
"1.	c #797A77",
"2.	c #D5D6D1",
"3.	c #D1D2CD",
"4.	c #CFCFCB",
"5.	c #CDCEC9",
"6.	c #CFD0CC",
"7.	c #F3F3F1",
"8.	c #CDCDCD",
"9.	c #E8E8E8",
"0.	c #A0A09F",
"a.	c #717170",
"b.	c #6C6C6C",
"c.	c #6A6A69",
"d.	c #656565",
"e.	c #696969",
"f.	c #6E6E6E",
"g.	c #757474",
"h.	c #9C9D9B",
"i.	c #6F706E",
"j.	c #555555",
"k.	c #5D5D5D",
"l.	c #595959",
"m.	c #3D3D3D",
"n.	c #9A9B98",
"o.	c #D3D4CF",
"p.	c #CCCDC8",
"q.	c #DBDCD7",
"r.	c #EDEEEC",
"s.	c #EBEBEB",
"t.	c #CFCFCF",
"u.	c #C1C1C1",
"v.	c #9A9A9A",
"w.	c #5B5B5B",
"x.	c #454545",
"y.	c #565656",
"z.	c #686868",
"A.	c #777777",
"B.	c #727272",
"C.	c #ACACAB",
"D.	c #8F908D",
"E.	c #646464",
"F.	c #606060",
"G.	c #535353",
"H.	c #B3B4B0",
"I.	c #D0D1CC",
"J.	c #CBCCC8",
"K.	c #D8DAD5",
"L.	c #D6D7D2",
"M.	c #EAEBE8",
"N.	c #C0C0C0",
"O.	c #BEBEBE",
"P.	c #B2B2B2",
"Q.	c #8F8E8F",
"R.	c #D6D6D6",
"S.	c #424242",
"T.	c #3E3E3E",
"U.	c #717171",
"V.	c #DCDDDC",
"W.	c #909091",
"X.	c #7C7C7C",
"Y.	c #A2A29F",
"Z.	c #636363",
"`.	c #666666",
" +	c #515151",
".+	c #BABAB7",
"++	c #CECFCA",
"@+	c #C9CAC6",
"#+	c #D4D6D1",
"$+	c #D3D4D0",
"%+	c #E3E3E0",
"&+	c #F8F8F8",
"*+	c #F7F7F7",
"=+	c #F6F6F6",
"-+	c #848385",
";+	c #E1E1E1",
">+	c #B2B3B2",
",+	c #68676B",
"'+	c #26252A",
")+	c #444346",
"!+	c #656567",
"~+	c #6D6D6D",
"{+	c #929291",
"]+	c #BDBEBB",
"^+	c #CFD0CB",
"/+	c #FAFAFA",
"(+	c #BDBDBD",
"_+	c #707072",
":+	c #EFEFEF",
"<+	c #BBBBBB",
"[+	c #AEAEAE",
"}+	c #B7B7B7",
"|+	c #353539",
"1+	c #252529",
"2+	c #29282C",
"3+	c #353538",
"4+	c #4C4C4E",
"5+	c #C9C9C5",
"6+	c #BCBCB7",
"7+	c #202120",
"8+	c #20201F",
"9+	c #353534",
"0+	c #F3F3F2",
"a+	c #676769",
"b+	c #E6E6E6",
"c+	c #B1B1B1",
"d+	c #E7E7E6",
"e+	c #E7E7E7",
"f+	c #28272C",
"g+	c #2B2A2F",
"h+	c #29292D",
"i+	c #2D2C30",
"j+	c #313034",
"k+	c #2A2A2E",
"l+	c #27262B",
"m+	c #3F3F42",
"n+	c #B0B1AE",
"o+	c #777774",
"p+	c #494948",
"q+	c #61615F",
"r+	c #D8D9D4",
"s+	c #EAEAE8",
"t+	c #C2C2C3",
"u+	c #ECEDEC",
"v+	c #DEDEDD",
"w+	c #B9B9B8",
"x+	c #B1B1B3",
"y+	c #2A292E",
"z+	c #2D2C31",
"A+	c #323136",
"B+	c #27252B",
"C+	c #252429",
"D+	c #949392",
"E+	c #D6D8D4",
"F+	c #D0D1CD",
"G+	c #E2E3DF",
"H+	c #68686A",
"I+	c #8E8E90",
"J+	c #E8E8E7",
"K+	c #B0B0B0",
"L+	c #A4A4A4",
"M+	c #D3D3D3",
"N+	c #858487",
"O+	c #302F33",
"P+	c #333237",
"Q+	c #2C2A2E",
"R+	c #242328",
"S+	c #29282D",
"T+	c #828182",
"U+	c #D6D7D3",
"V+	c #F9F9F9",
"W+	c #69696B",
"X+	c #6B6A6C",
"Y+	c #9B9B9B",
"Z+	c #9F9F9F",
"`+	c #ABABAB",
" @	c #B4B4B4",
".@	c #626263",
"+@	c #2F2E33",
"@@	c #353438",
"#@	c #303034",
"$@	c #25252A",
"%@	c #242428",
"&@	c #717071",
"*@	c #D5D6D2",
"=@	c #6A6A6B",
"-@	c #525254",
";@	c #9E9E9E",
">@	c #989898",
",@	c #AFAFAF",
"'@	c #565558",
")@	c #313135",
"!@	c #2C2B2F",
"~@	c #4F4E51",
"{@	c #D5D5D1",
"]@	c #6A6A6C",
"^@	c #4D4D4F",
"/@	c #777678",
"(@	c #7B7B7C",
"_@	c #4D4C4F",
":@	c #302F34",
"<@	c #262529",
"[@	c #DEDEDA",
"}@	c #D4D5D1",
"|@	c #F4F4F3",
"1@	c #6B6B6D",
"2@	c #3D3C40",
"3@	c #606061",
"4@	c #949495",
"5@	c #A2A2A2",
"6@	c #5C5C5D",
"7@	c #3B3A3D",
"8@	c #3D3B3F",
"9@	c #DBDBDC",
"0@	c #D8D8D8",
"a@	c #A6A7A4",
"b@	c #DDDED9",
"c@	c #D4D5D2",
"d@	c #F5F5F4",
"e@	c #6C6C6E",
"f@	c #38383C",
"g@	c #5E5E5F",
"h@	c #343438",
"i@	c #2E2D32",
"j@	c #78787A",
"k@	c #D0D0D1",
"l@	c #BBBBBC",
"m@	c #A5A5A7",
"n@	c #797879",
"o@	c #F5F5F5",
"p@	c #6D6D6E",
"q@	c #363539",
"r@	c #555557",
"s@	c #4B4A4D",
"t@	c #343338",
"u@	c #59595A",
"v@	c #5F5F5F",
"w@	c #2C2B30",
"x@	c #242427",
"y@	c #DCDCD9",
"z@	c #6B6A6D",
"A@	c #333236",
"B@	c #5B5B5C",
"C@	c #575758",
"D@	c #27252A",
"E@	c #29292C",
"F@	c #CDCECB",
"G@	c #F4F4F4",
"H@	c #676668",
"I@	c #313035",
"J@	c #616061",
"K@	c #5F5E5F",
"L@	c #525253",
"M@	c #232228",
"N@	c #232227",
"O@	c #2A2A2D",
"P@	c #BABBB6",
"Q@	c #DBDBD8",
"R@	c #F0F0EF",
"S@	c #646466",
"T@	c #616161",
"U@	c #4E4E4F",
"V@	c #222126",
"W@	c #AFB0AD",
"X@	c #D1D3CE",
"Y@	c #666567",
"Z@	c #5F5F60",
"`@	c #4A4A4B",
" #	c #232327",
".#	c #222125",
"+#	c #B5B6B3",
"@#	c #EAEAE9",
"##	c #232226",
"$#	c #5A5A5C",
"%#	c #4E4E50",
"&#	c #C3C4C1",
"*#	c #EBEBEA",
"=#	c #666668",
"-#	c #1F1E21",
";#	c #4E4E51",
">#	c #585859",
",#	c #27262A",
"'#	c #2A292D",
")#	c #CBCCC7",
"!#	c #D8D8D4",
"~#	c #676768",
"{#	c #4F4F52",
"]#	c #595859",
"^#	c #C1C2BF",
"/#	c #EBEBE9",
"(#	c #545455",
"_#	c #232326",
":#	c #A7A8A7",
"<#	c #EBECEA",
"[#	c #666667",
"}#	c #2D2B30",
"|#	c #2D2D31",
"1#	c #252428",
"2#	c #8F8E8D",
"3#	c #DADAD6",
"4#	c #E9E9E8",
"5#	c #F2F2F2",
"6#	c #686768",
"7#	c #5C5C5C",
"8#	c #2B2A30",
"9#	c #878685",
"0#	c #878886",
"a#	c #9D9E9C",
"b#	c #B7B7B4",
"c#	c #E7E8E6",
"d#	c #28282B",
"e#	c #888988",
"f#	c #949592",
"g#	c #80807D",
"h#	c #6C6C6A",
"i#	c #626260",
"j#	c #939392",
"k#	c #ECECEB",
"l#	c #F1F1F1",
"m#	c #515153",
"n#	c #3A383D",
"o#	c #8C8B8A",
"p#	c #474649",
"q#	c #8F908F",
"r#	c #5A5A5B",
"s#	c #38373A",
"t#	c #565557",
"u#	c #858584",
"v#	c #DCDDD8",
"w#	c #F0F0F0",
"x#	c #3A3A3D",
"y#	c #414144",
"z#	c #848485",
"A#	c #2B2A2E",
"B#	c #454447",
"C#	c #444445",
"D#	c #37363A",
"E#	c #454548",
"F#	c #2C2B2E",
"G#	c #757477",
"H#	c #302E32",
"I#	c #363538",
"J#	c #3A393C",
"K#	c #25242A",
"L#	c #737375",
"M#	c #5D5D60",
"N#	c #434347",
"O#	c #616164",
"P#	c #3C3B3F",
"Q#	c #38373B",
"R#	c #323135",
"S#	c #6F6E72",
"T#	c #848386",
"U#	c #959496",
"V#	c #9D9C9E",
"W#	c #99999A",
"X#	c #ABABAC",
"Y#	c #A6A5A7",
"Z#	c #ACACAD",
"`#	c #3E3D41",
" $	c #39373B",
".$	c #252329",
"+$	c #E3E3E3",
"@$	c #EEEEEE",
"#$	c #7D7C7E",
"$$	c #646366",
"%$	c #59595B",
"&$	c #515053",
"*$	c #48474B",
"=$	c #4C4B4F",
"-$	c #59575B",
";$	c #79787A",
">$	c #5C5C5F",
",$	c #2E2D31",
"'$	c #676669",
")$	c #A7A6A8",
"!$	c #EDEDED",
"~$	c #6E6E71",
"{$	c #AEAEAF",
"]$	c #E5E5E6",
"^$	c #A6A6A6",
"/$	c #A2A2A3",
"        . + + + + + + + + + + + + + + + + + + + + + + + + + + + + @                             ",
"        # $ $ $ $ $ $ $ $ $ $ $ $ $ % $ $ $ $ $ $ $ $ $ $ $ $ $ $ & *                           ",
"        # $ $ $ $ $ $ $ $ $ $ = - ; - > , ' ) $ $ $ $ $ $ $ $ $ $ ! ~ {                         ",
"        # $ $ $ $ $ $ $ $ $ ] ^ / ( - _ / : < $ $ $ $ $ $ $ $ $ $ { [ ~ }                       ",
"        # $ $ $ $ $ $ $ $ $ | - . 1 2 3 4 5 6 $ $ $ $ $ $ $ $ $ $ } 7 [ ~ {                     ",
"        # 8 8 8 8 8 8 8 9 0 a b c { 1 d e f g h 8 8 8 8 8 8 8 8 8 * i 7 [ ~ !                   ",
"        # 8 8 8 8 j k l m n o p p q r q p p s n t u v 8 8 8 8 8 8 w x i 7 [ ~ !                 ",
"        # 9 y z A B C n C D E F G H I J K p L M n n n N O P Q 9 9 R S x i 7 [ T d               ",
"        U V n n W n X C Y n Z `  ...+.@.#.$.%.&.*.=.-.;.n n n >.,.R '.S x i 7 [ T ).            ",
"        !.~.{.].^./.(._.:.%.%.<. .[.}...|.1.2.3.4.5.6.n n n C n 7.8.9.'.S x i 7 [ T ).          ",
"        0.a.b.c.d.e.f.g.h.2.2.i.K j.k.l.m.n.o.-.p.5.*.n n n q.%.r.~ s.9.'.S x i 7 [ t.u.        ",
"        v.e.w.x.y.z.A.B.C.o.o.D.j.E.F.G.J H.I.p.J.-.K.n n n C L.M.@ * } { & d ).u.N.O.@ P.      ",
"        Q.R.F.[.S.T.U.V.W.X.3.Y.Z.`.l.y. +.+++@+5.#+n n n C $+L.%+&+&+&+&+&+*+*+*+*+=+=+@       ",
"        -+9 9 ;+>+7 9 9 ,+'+)+!+~+j.I }.{+]+p.p.^+C n n n q.^+L.q./+% % % % % % % % % % (+      ",
"        _+9 :+<+[+}+} 8 |+1+'+'+'+2+3+4+( 5+p.-.6+7+8+9+n n ++L.n 0+% % % % % % % % % % (+      ",
"        a+=+b+< P.c+d+e+f+g+h+i+j+k+'+'+l+m+n+3.o+9+p+q+n r+I.%.n s+/+/+/+/+/+/+/+/+/+/+(+      ",
"        a+t+u+v+c+w+y x+y+z+j+A+j+B+'+'+C+'+D+E+C n n n n %.F+r+n G+/+/+/+/+/+/+/+/+/+/+(+      ",
"        H+I+J+K+L+. M+N+i+O+P+A+Q+'+'+'+R+S+T+q.n n n n C U+W n n V V+V+V+V+V+V+V+V+V+V+(+      ",
"        W+X+}+Y+Z+`+ @.@+@P+@@#@$@'+'+'+%@y+&@C n n n n q.*@o.n n C V+V+V+V+V+V+V+V+V+V+(+      ",
"        =@-@;@>@. # ,@'@)@@@A+!@'+'+'+'+y+y+~@n n n n n V {@2.n n n y &+&+&+&+&+&+&+&+&+<+      ",
"        ]@^@/@' [+ @(@_@P+P+:@<@'+'+'+R+:@S+f+3.n n n n [@}@L.n n n |@&+&+&+&+&+&+&+&+&+<+      ",
"        1@2@3@4@# 5@6@7@P+j+8@7 9@0@'+C+A+S+'+a@n n n n b@c@%.n n n d@&+&+&+&+&+&+&+&+&+<+      ",
"        e@f@`.6@ @g@`.h@j+i@j@k@l@m@z+C+:@f+'+n@n n n n V }@r+n n n o@*+*+*+*+*+*+*+*+*+<+      ",
"        p@q@`.`.r@d.Z.:@i@S+C+'+'+'+'+'++@l+'+s@n n n n B 2.n n n n o@*+*+*+*+*+*+*+*+*+<+      ",
"        p@t@`.r u@`.v@i@w@x@'+'+'+'+'+l+i@'+'+i@n n n n y@2.n n n n =+=+=+=+=+=+=+=+=+=+<+      ",
"        z@A@E.B@`.`.C@w@D@C+'+'+'+'+C+E@w@'+'+'+F@n n n y@2.n n n n G@=+=+=+=+=+=+=+=+=+<+      ",
"        H@I@J@K@E.`.L@S+M@'+'+'+'+'+N@O@g+'+'+'+P@n r+r+Q@L.n n n n R@=+=+=+=+=+=+=+=+=+<+      ",
"        S@z+6@T@r `.U@'+C+'+'+'+'+'+V@O@S+'+'+'+W@r+X@$+m %.n n n n z o@o@o@o@o@o@o@o@o@<+      ",
"        Y@'+C@Z.Z@^.`@ #'+'+'+'+'+'+.#k+S+'+'+'++#r+$+$+U+n n n n n @#o@o@o@o@o@o@o@o@o@<+      ",
"        H@R+'@`.6@`.`@C+'+'+'+'+'+'+##y+l+'+'+'+]+n L.t *@n n n n n @#G@G@G@G@G@G@G@G@G@<+      ",
"        H@'+$#`.u@`.%#'+'+'+'+'+'+'+##k+'+'+'+'+&#n r+n &.n n n n n *#G@G@G@G@G@G@G@G@G@<+      ",
"        =#-#;#`.>#`.^@,#'+'+'+'+'+'+##'#'+'+'+'+)#n n !#2.n n n n n z G@G@G@G@G@G@G@G@G@<+      ",
"        ~#'+{#`.]#^.J '+'+'+'+'+'+'+##y+'+'+'+'+^#n n L.L.n n n n n /#) ) ) ) ) ) ) ) ) ]       ",
"        H@'+6@`.(#`.`@'+'+'+'+'+l+l+_#S+'+'+'+'+:#n n &.%.n n n n %.<#) ) ) ) ) ) ) ) ) ]       ",
"        H@'+[#`.(#`.U@C+'+'+'+l+}#|#1#S+'+'+'+'+2#n n o.n n n n n 3#4#5#5#5#5#5#5#5#5#5#]       ",
"        H@'+6#`.L@`.7#N@'+'+'+l+8#g+2+l+'+'+'+'+9#n }@0#a#b#&.n n C c#5#5#5#5#5#5#5#5#5#]       ",
"        H@'+`@`.L@e.`.R+'+'+'+l+S+d#!@'+'+'+'+'+e#n F+f#g#h#i#^.U.j#k#l#l#l#l#l#l#l#l#l#]       ",
"        H@'+r `.m#`.`.n#'+'+'+'+l+,#g+'+'+'+'+'+o#n n n n n n C l#l#l#l#l#l#l#l#l#l#l#l#]       ",
"        H@'+B@`.F.6@`.p#'+'+'+'+'+'+g+'+'+'+'+'+q#n n n n N A @#l#l#l#l#l#l#l#l#l#l#l#l#]       ",
"        H@l+d.`.r#s#Z.t#'+'+'+'+'+f+S+'+'+'+'+'+u#n v#%+@#:+w#w#w#w#w#w#w#w#w#w#w#w#w#w#]       ",
"        H@A@`.d.x#A@y#E.l+'+'+'+'+y+S+'+'+'+'+'+z#u+w#w#w#w#w#w#w#w#w#w#w#w#w#w#w#w#w#w#]       ",
"        H@A#B#C#D#@@O+E#F#'+'+'+'+w@l+'+'+'+'+C+G#:+:+:+:+:+:+:+:+:+:+:+:+:+:+:+:+:+:+:+<       ",
"        H@f+H#I#J#D#j+A#K#'+'+'+'+L#M#N#'#'+'+C+O#:+:+:+:+:+:+:+:+:+:+:+:+:+:+:+:+:+:+:+<       ",
"        H@'#O+D#P#Q#R#A#R+'+'+'+g+S#T#U#V#W#X#Y#Z#:+:+:+:+:+:+:+:+:+:+:+:+:+:+:+:+:+:+:+<       ",
"        Y@'#j+s#`# $R#A#R+.$'+'+'+'+'+'+'+f++$@$@$@$@$@$@$@$@$@$@$@$@$@$@$@$@$@$@$@$@$@$<       ",
"        #$$$%$&$*$=$-$a+;$>$'+'+'+'+'+,$'$)$@$@$@$@$@$@$@$@$@$@$@$@$@$@$@$@$@$@$@$@$@$@$<       ",
"        ' !$!$!$!$!$!$!$!$i w@'+A+~${$]$!$!$!$!$!$!$!$!$!$!$!$!$!$!$!$!$!$!$!$!$!$!$!$!$<       ",
"        ^$d d d d d d d d d (+/$N.d d d d d d d d d d d d d d d d d d d d d d d d d d d K+      "};
