/* XPM */
static const char* wallet_xpm[] = {
"48 48 367 2",
"  	c None",
". 	c #C1C4C1",
"+ 	c #C8CFCA",
"@ 	c #A8D65F",
"# 	c #C1E489",
"$ 	c #8AC92C",
"% 	c #7FC31C",
"& 	c #C9CFC3",
"* 	c #E3E9D5",
"= 	c #E7EEDA",
"- 	c #E6EDDD",
"; 	c #E4ECE5",
"> 	c #E0E1DC",
", 	c #8DCA35",
"' 	c #BEE286",
") 	c #9CD24C",
"! 	c #80C21B",
"~ 	c #D2D9CD",
"{ 	c #E8EFDE",
"] 	c #E3E8C9",
"^ 	c #E0E5C1",
"/ 	c #DFE5C4",
"( 	c #DDE3D0",
"_ 	c #E4E7DA",
": 	c #EAE6DF",
"< 	c #A5D55A",
"[ 	c #BADF7D",
"} 	c #82C522",
"| 	c #98D044",
"1 	c #AAD961",
"2 	c #9AD147",
"3 	c #80C31C",
"4 	c #C3C9C2",
"5 	c #E6EEDF",
"6 	c #DFE7C7",
"7 	c #DCE0BF",
"8 	c #DEE2BE",
"9 	c #B9B9AA",
"0 	c #A5A39F",
"a 	c #C2C5BD",
"b 	c #EDEBDF",
"c 	c #E5DDDD",
"d 	c #AFB434",
"e 	c #D3D856",
"f 	c #DBDF68",
"g 	c #C3C643",
"h 	c #88C62A",
"i 	c #BADF7E",
"j 	c #9FD350",
"k 	c #86C727",
"l 	c #ABDA62",
"m 	c #B8E178",
"n 	c #B6E076",
"o 	c #B5E075",
"p 	c #95CF41",
"q 	c #7EC31C",
"r 	c #C9CFC2",
"s 	c #E0E7D0",
"t 	c #B1B1A7",
"u 	c #A5A39D",
"v 	c #D4D7B8",
"w 	c #A8A79E",
"x 	c #D8DDC1",
"y 	c #959695",
"z 	c #E4E5D9",
"A 	c #EFE9E2",
"B 	c #B7B767",
"C 	c #F2F97A",
"D 	c #F4FA5F",
"E 	c #EFF06A",
"F 	c #F4FA8A",
"G 	c #E7EFA8",
"H 	c #93955C",
"I 	c #9CD14D",
"J 	c #BEE285",
"K 	c #86C728",
"L 	c #95CE3E",
"M 	c #B6DF74",
"N 	c #B7E177",
"O 	c #B4DF74",
"P 	c #A7D95F",
"Q 	c #9AD149",
"R 	c #B5DD76",
"S 	c #B4DD73",
"T 	c #84C623",
"U 	c #C9CEBE",
"V 	c #DCE2C8",
"W 	c #A1A19C",
"X 	c #B4B6A7",
"Y 	c #BCBEAA",
"Z 	c #B2B5A4",
"` 	c #BDC1AC",
" .	c #A6AAA1",
"..	c #D3D6CA",
"+.	c #EFEAE1",
"@.	c #DCDD7B",
"#.	c #F0F649",
"$.	c #DFDE7D",
"%.	c #D5D09B",
"&.	c #F5FA57",
"*.	c #F2F9A3",
"=.	c #CECF7E",
"-.	c #B5DC74",
";.	c #A9D861",
">.	c #83C523",
",.	c #A6D85B",
"'.	c #B7E077",
").	c #A4D759",
"!.	c #9DD24F",
"~.	c #B8DF7B",
"{.	c #A8D75F",
"].	c #C1C6B5",
"^.	c #DBE0C9",
"/.	c #B8BCAC",
"(.	c #C6CBB4",
"_.	c #9EA197",
":.	c #C7CBB0",
"<.	c #91958E",
"[.	c #949991",
"}.	c #CFD5C7",
"|.	c #E6E6DC",
"1.	c #E0E36D",
"2.	c #EFF54B",
"3.	c #ECF058",
"4.	c #D7D68D",
"5.	c #F6FB5C",
"6.	c #F2F8A6",
"7.	c #EEEA79",
"8.	c #94CD3F",
"9.	c #C0E388",
"0.	c #8DCA32",
"a.	c #8FCB35",
"b.	c #B3DE6F",
"c.	c #B5DF74",
"d.	c #A1D554",
"e.	c #A2D456",
"f.	c #A1D454",
"g.	c #81C41F",
"h.	c #96CF41",
"i.	c #A5D85A",
"j.	c #9CD24B",
"k.	c #7FC31D",
"l.	c #B37A55",
"m.	c #C89671",
"n.	c #C4946C",
"o.	c #AB7A59",
"p.	c #A47253",
"q.	c #C39166",
"r.	c #C9986A",
"s.	c #C49369",
"t.	c #C99975",
"u.	c #C89679",
"v.	c #CF9E29",
"w.	c #D6A626",
"x.	c #D1A033",
"y.	c #C99747",
"z.	c #D7A639",
"A.	c #D6A559",
"B.	c #D49E40",
"C.	c #98742A",
"D.	c #B1953E",
"E.	c #968712",
"F.	c #A7912D",
"G.	c #B49843",
"H.	c #B39740",
"I.	c #A6902C",
"J.	c #AA9135",
"K.	c #B69746",
"L.	c #A38E28",
"M.	c #968813",
"N.	c #A48F28",
"O.	c #B2973F",
"P.	c #AF913F",
"Q.	c #8C6126",
"R.	c #8B6125",
"S.	c #815C15",
"T.	c #7B5A0A",
"U.	c #7D740E",
"V.	c #B03A00",
"W.	c #C1612D",
"X.	c #D58F62",
"Y.	c #DEA379",
"Z.	c #CF956D",
"`.	c #BD8762",
" +	c #BC8661",
".+	c #A46D4A",
"++	c #753B1C",
"@+	c #622101",
"#+	c #AF3A00",
"$+	c #B44409",
"%+	c #BC5216",
"&+	c #B84B0F",
"*+	c #B34006",
"=+	c #B13D02",
"-+	c #A63902",
";+	c #5C2004",
">+	c #632709",
",+	c #703414",
"'+	c #763A19",
")+	c #612508",
"!+	c #632101",
"~+	c #A43600",
"{+	c #591D01",
"]+	c #AF3900",
"^+	c #581D01",
"/+	c #714607",
"(+	c #AE3B00",
"_+	c #70570B",
":+	c #AE3900",
"<+	c #A33500",
"[+	c #72580B",
"}+	c #67B821",
"|+	c #74590A",
"1+	c #62B522",
"2+	c #69B921",
"3+	c #58A423",
"4+	c #74580B",
"5+	c #70B91F",
"6+	c #AD3900",
"7+	c #A23500",
"8+	c #571D01",
"9+	c #73590D",
"0+	c #72BE1F",
"a+	c #775B15",
"b+	c #6EBC1F",
"c+	c #6CBB20",
"d+	c #AC3900",
"e+	c #A13500",
"f+	c #7B5E1B",
"g+	c #6BB921",
"h+	c #A93700",
"i+	c #AA3800",
"j+	c #A22F00",
"k+	c #A2352E",
"l+	c #B14C55",
"m+	c #AE474F",
"n+	c #AD474F",
"o+	c #A6444F",
"p+	c #AA4A55",
"q+	c #8E3C2B",
"r+	c #66A21F",
"s+	c #61B523",
"t+	c #5FB223",
"u+	c #A93800",
"v+	c #851004",
"w+	c #830D0E",
"x+	c #710703",
"y+	c #5F2E10",
"z+	c #651607",
"A+	c #760001",
"B+	c #780203",
"C+	c #840E0F",
"D+	c #6E430F",
"E+	c #5EB223",
"F+	c #56A123",
"G+	c #A83700",
"H+	c #A83800",
"I+	c #760201",
"J+	c #5F190B",
"K+	c #8B8F54",
"L+	c #9B9F4C",
"M+	c #9B9F53",
"N+	c #7C7342",
"O+	c #750001",
"P+	c #701806",
"Q+	c #33531E",
"R+	c #A73700",
"S+	c #720201",
"T+	c #4C4011",
"U+	c #6F721E",
"V+	c #868925",
"W+	c #868927",
"X+	c #7A7B2A",
"Y+	c #5E0D06",
"Z+	c #710001",
"`+	c #6B0101",
" @	c #A43700",
".@	c #A53700",
"+@	c #6C0201",
"@@	c #4D4B14",
"#@	c #7E802C",
"$@	c #551B0C",
"%@	c #6B0001",
"&@	c #A33600",
"*@	c #600100",
"=@	c #47270B",
"-@	c #707028",
";@	c #5B0201",
">@	c #5E0000",
",@	c #A13600",
"'@	c #540400",
")@	c #4C0200",
"!@	c #4F310D",
"~@	c #65631B",
"{@	c #5B4F17",
"]@	c #4F1809",
"^@	c #4E0000",
"/@	c #9E3600",
"(@	c #9E3500",
"_@	c #6C1A00",
":@	c #3E0100",
"<@	c #9A3400",
"[@	c #9B3400",
"}@	c #802B00",
"|@	c #642200",
"1@	c #632200",
"2@	c #5D2000",
"3@	c #341200",
"4@	c #521C00",
"5@	c #993200",
"6@	c #993300",
"7@	c #8F3000",
"8@	c #491800",
"9@	c #611F00",
"0@	c #953200",
"a@	c #963200",
"b@	c #8C2F00",
"c@	c #471701",
"d@	c #5E1F00",
"e@	c #903100",
"f@	c #913000",
"g@	c #872D00",
"h@	c #451701",
"i@	c #5C1E00",
"j@	c #8D2F00",
"k@	c #842C00",
"l@	c #421601",
"m@	c #581E00",
"n@	c #8A2D00",
"o@	c #892D00",
"p@	c #802A00",
"q@	c #401501",
"r@	c #561C00",
"s@	c #852C00",
"t@	c #7C2900",
"u@	c #3D1401",
"v@	c #521B00",
"w@	c #772700",
"x@	c #391300",
"y@	c #4E1900",
"z@	c #7A2800",
"A@	c #712500",
"B@	c #361200",
"C@	c #4B1800",
"D@	c #752700",
"E@	c #6D2400",
"F@	c #331100",
"G@	c #471800",
"H@	c #732600",
"I@	c #6B2300",
"J@	c #311000",
"K@	c #471700",
"L@	c #692400",
"M@	c #612100",
"N@	c #2D1000",
"O@	c #2E1000",
"P@	c #4E1D02",
"Q@	c #4E1D01",
"R@	c #491B01",
"S@	c #240E01",
"T@	c #301200",
"U@	c #200D01",
"V@	c #210E01",
"W@	c #210D01",
"X@	c #1F0D01",
"Y@	c #180900",
"Z@	c #190A00",
"                                                                                                ",
"                                                                                                ",
"                                                                                                ",
"                                                                                                ",
"                                                                                                ",
"                    . +                                           @ # $ %                       ",
"                & * = - ; >                                   , ' ) % % % !                     ",
"              ~ { ] ^ / ( _ :                               < [ } | 1 2 % 3                     ",
"            4 5 6 7 8 9 0 a b c   d e f g               h i j k l m n o p % q                   ",
"            r s t u v w x y z A B C D E F G H         I J K L M N n O P Q R S T                 ",
"            U V W X Y Z `  ...+.@.#.$.%.&.*.=.      -.;.>.,.m '.o ).!.~.{.$ % % 3               ",
"            ].^./.(._.:.<.[.}.|.1.2.3.4.5.6.7.  8.9.0.a.b.N c.d.e.i f.g.h.i.j.k.%               ",
"            l.m.n.o.p.q.r.s.t.u.v.w.x.y.z.A.B.C.D.E.F.G.H.I.J.K.L.M.N.O.P.Q.R.S.T.U.            ",
"      V.W.X.Y.Y.Y.Y.Y.Y.Y.Y.Y.Y.Y.Y.Y.Y.Y.Y.Y.Y.Y.Y.Y.Y.Y.Y.Y.Y.Y.Y.Y.Y.Z.`.`. +.+++@+          ",
"    #+$+%+&+*+=+=+=+=+=+=+=+=+=+=+=+=+=+=+=+=+=+=+=+=+=+=+=+=+=+=+=+=+=+-+;+;+>+,+'+)+!+        ",
"    #+#+#+#+#+#+#+#+#+#+#+#+#+#+#+#+#+#+#+#+#+#+#+#+#+#+#+#+#+#+#+#+#+#+~+{+{+{+{+{+{+{+        ",
"  ]+#+#+#+#+#+#+#+#+#+#+#+#+#+#+#+#+#+#+#+#+#+#+#+#+#+#+#+#+#+#+#+#+#+#+~+^+^+^+^+^+^+^+/+      ",
"  (+#+#+#+#+#+#+#+#+#+#+#+#+#+#+#+#+#+#+#+#+#+#+#+#+#+#+#+#+#+#+#+#+#+#+~+^+^+^+^+^+^+^+_+      ",
"  :+:+:+:+:+:+:+:+:+:+:+:+:+:+:+:+:+:+:+:+:+:+:+:+:+:+:+:+:+:+:+:+:+:+:+<+^+^+^+^+^+^+^+[+}+    ",
"  :+:+:+:+:+:+:+:+:+:+:+:+:+:+:+:+:+:+:+:+:+:+:+:+:+:+:+:+:+:+:+:+:+:+:+<+^+^+^+^+^+^+^+|+1+    ",
"  :+:+:+:+:+:+:+:+:+:+:+:+:+:+:+:+:+:+:+:+:+:+:+:+:+:+:+:+:+:+:+:+:+:+:+<+^+^+^+^+^+^+^+|+2+3+  ",
"  :+:+:+:+:+:+:+:+:+:+:+:+:+:+:+:+:+:+:+:+:+:+:+:+:+:+:+:+:+:+:+:+:+:+:+<+^+^+^+^+^+^+^+4+5+    ",
"  6+6+6+6+6+6+6+6+6+6+6+6+6+6+6+6+6+6+6+6+6+6+6+6+6+6+6+6+6+6+6+6+6+6+6+7+8+8+8+8+8+8+8+9+0+    ",
"  6+6+6+6+6+6+6+6+6+6+6+6+6+6+6+6+6+6+6+6+6+6+6+6+6+6+6+6+6+6+6+6+6+6+6+7+8+8+8+8+8+8+8+a+b+c+  ",
"  6+d+d+d+d+d+d+d+d+d+d+d+d+d+d+d+d+d+d+d+d+d+d+d+d+d+d+d+d+d+d+d+d+d+d+e+8+8+8+8+8+8+8+f+g+}+  ",
"  h+i+i+i+i+i+i+i+i+i+i+i+i+i+i+i+i+i+i+i+i+i+i+i+i+i+i+i+j+k+l+m+m+m+m+n+o+o+o+o+o+o+p+q+r+s+t+",
"  h+u+u+u+u+u+u+u+u+u+u+u+u+u+u+u+u+u+u+u+u+u+u+u+u+u+u+u+v+w+x+y+z+A+A+A+A+A+A+A+A+A+B+C+D+E+F+",
"  G+H+H+H+H+H+H+H+H+H+H+H+H+H+H+H+H+H+H+H+H+H+H+H+H+H+H+H+I+J+K+L+M+N+O+O+O+O+O+O+O+O+O+O+P+Q+  ",
"  G+R+R+R+R+R+R+R+R+R+R+R+R+R+R+R+R+R+R+R+R+R+R+R+R+R+R+R+S+T+U+V+W+X+Y+Z+Z+Z+Z+Z+Z+Z+Z+Z+`+    ",
"   @.@.@.@.@.@.@.@.@.@.@.@.@.@.@.@.@.@.@.@.@.@.@.@.@.@.@.@+@@@U+V+W+#@$@%@%@%@%@%@%@%@%@%@%@    ",
"  &@&@&@&@&@&@&@&@&@&@&@&@&@&@&@&@&@&@&@&@&@&@&@&@&@&@&@&@*@=@U+V+W+-@;@>@>@>@>@>@>@>@>@>@>@    ",
"  ,@e+e+e+e+e+e+e+e+e+e+e+e+e+e+e+e+e+e+e+e+e+e+e+e+e+e+e+'@)@!@~@{@]@^@^@^@^@^@^@^@^@^@^@^@    ",
"  /@(@(@(@(@(@(@(@(@(@(@(@(@(@(@(@(@(@(@(@(@(@(@(@(@(@(@(@_@:@:@:@:@:@:@:@:@:@:@:@:@:@:@:@      ",
"  <@[@[@[@[@[@[@[@[@[@[@[@[@[@[@[@[@[@[@[@[@[@[@[@[@[@[@[@[@}@|@1@1@1@1@2@3@3@3@3@3@3@3@4@      ",
"  5@6@6@6@6@6@6@6@6@6@6@6@6@6@6@6@6@6@6@6@6@6@6@6@6@6@6@6@6@6@6@6@6@6@6@7@8@8@8@8@8@8@8@9@      ",
"  0@a@a@a@a@a@a@a@a@a@a@a@a@a@a@a@a@a@a@a@a@a@a@a@a@a@a@a@a@a@a@a@a@a@a@b@c@c@c@c@c@c@c@d@      ",
"  e@f@f@f@f@f@f@f@f@f@f@f@f@f@f@f@f@f@f@f@f@f@f@f@f@f@f@f@f@f@f@f@f@f@f@g@h@h@h@h@h@h@h@i@      ",
"  j@j@j@j@j@j@j@j@j@j@j@j@j@j@j@j@j@j@j@j@j@j@j@j@j@j@j@j@j@j@j@j@j@j@j@k@l@l@l@l@l@l@l@m@      ",
"  n@o@o@o@o@o@o@o@o@o@o@o@o@o@o@o@o@o@o@o@o@o@o@o@o@o@o@o@o@o@o@o@o@o@o@p@q@q@q@q@q@q@q@r@      ",
"  s@s@s@s@s@s@s@s@s@s@s@s@s@s@s@s@s@s@s@s@s@s@s@s@s@s@s@s@s@s@s@s@s@s@s@t@u@u@u@u@u@u@u@v@      ",
"  p@p@p@p@p@p@p@p@p@p@p@p@p@p@p@p@p@p@p@p@p@p@p@p@p@p@p@p@p@p@p@p@p@p@p@w@x@x@x@x@x@x@x@y@      ",
"  z@z@z@z@z@z@z@z@z@z@z@z@z@z@z@z@z@z@z@z@z@z@z@z@z@z@z@z@z@z@z@z@z@z@z@A@B@B@B@B@B@B@B@C@      ",
"  D@D@D@D@D@D@D@D@D@D@D@D@D@D@D@D@D@D@D@D@D@D@D@D@D@D@D@D@D@D@D@D@D@D@D@E@F@F@F@F@F@F@F@G@      ",
"    H@H@H@H@H@H@H@H@H@H@H@H@H@H@H@H@H@H@H@H@H@H@H@H@H@H@H@H@H@H@H@H@H@H@I@J@J@J@J@J@J@J@K@      ",
"    L@L@L@L@L@L@L@L@L@L@L@L@L@L@L@L@L@L@L@L@L@L@L@L@L@L@L@L@L@L@L@L@L@L@M@N@N@N@N@N@N@O@        ",
"    P@Q@Q@Q@Q@Q@Q@Q@Q@Q@Q@Q@Q@Q@Q@Q@Q@Q@Q@Q@Q@Q@Q@Q@Q@Q@Q@Q@Q@Q@Q@Q@Q@Q@R@S@S@S@S@S@S@T@        ",
"        U@V@W@W@W@W@W@W@W@W@W@W@W@W@W@W@W@W@W@W@W@W@W@W@W@W@W@W@W@W@W@W@X@Y@Y@Y@Y@Z@            ",
"                                                                                                "};
