/* XPM */
static const char * web_xpm[] = {
"16 16 147 2",
"  	c None",
". 	c #132F55",
"+ 	c #123C6F",
"@ 	c #133665",
"# 	c #0662BE",
"$ 	c #1458A3",
"% 	c #133563",
"& 	c #065EB7",
"* 	c #0364C2",
"= 	c #12417C",
"- 	c #133663",
"; 	c #0068CB",
"> 	c #1259A8",
", 	c #133E74",
"' 	c #0365C2",
") 	c #0068CA",
"! 	c #0067CA",
"~ 	c #0166C9",
"{ 	c #104989",
"] 	c #006ACB",
"^ 	c #134986",
"/ 	c #114784",
"( 	c #0169CA",
"_ 	c #0069CB",
": 	c #0D529A",
"< 	c #133763",
"[ 	c #006DCC",
"} 	c #0A5FB1",
"| 	c #006CCC",
"1 	c #0068C9",
"2 	c #0352B3",
"3 	c #0353B5",
"4 	c #006BCC",
"5 	c #095BAB",
"6 	c #153965",
"7 	c #133D6E",
"8 	c #006FCD",
"9 	c #006ECD",
"0 	c #0062C3",
"a 	c #0159BA",
"b 	c #68A9DD",
"c 	c #67A8DC",
"d 	c #4286CA",
"e 	c #0168C7",
"f 	c #0664BA",
"g 	c #143E6F",
"h 	c #142F51",
"i 	c #036BC3",
"j 	c #0071CE",
"k 	c #0070CE",
"l 	c #004EB0",
"m 	c #75B6E3",
"n 	c #4D96D5",
"o 	c #3181CC",
"p 	c #2166B9",
"q 	c #77B5E2",
"r 	c #026BC7",
"s 	c #153C69",
"t 	c #14335B",
"u 	c #036EC8",
"v 	c #0072CE",
"w 	c #0073CE",
"x 	c #1068C1",
"y 	c #99C2E1",
"z 	c #3F81C7",
"A 	c #3996DA",
"B 	c #87C8EC",
"C 	c #0070CD",
"D 	c #144173",
"E 	c #183E6E",
"F 	c #184276",
"G 	c #0174CD",
"H 	c #0075CF",
"I 	c #0074CF",
"J 	c #B8E3F3",
"K 	c #BBDFEF",
"L 	c #6492C9",
"M 	c #1570C5",
"N 	c #0073CF",
"O 	c #135191",
"P 	c #162D4D",
"Q 	c #0175CE",
"R 	c #0077D0",
"S 	c #1180D4",
"T 	c #98CDEB",
"U 	c #DCFEFE",
"V 	c #A4CAE5",
"W 	c #177BCE",
"X 	c #0076D0",
"Y 	c #104B86",
"Z 	c #0177CE",
"` 	c #0079D1",
" .	c #004FAF",
"..	c #0065C1",
"+.	c #3F90D3",
"@.	c #4091D3",
"#.	c #9FD2EC",
"$.	c #97CBE9",
"%.	c #0078D0",
"&.	c #104C86",
"*.	c #0179CF",
"=.	c #007BD2",
"-.	c #327CC6",
";.	c #A9DEF3",
">.	c #3F91D3",
",.	c #3188CF",
"'.	c #156EC2",
").	c #9DD5F0",
"!.	c #007AD1",
"~.	c #104D86",
"{.	c #017BCF",
"].	c #007DD2",
"^.	c #1F8AD5",
"/.	c #5FA9DC",
"(.	c #3F86C9",
"_.	c #317BC4",
":.	c #1F84D0",
"<.	c #63B7E6",
"[.	c #007CD2",
"}.	c #017DD0",
"|.	c #007FD2",
"1.	c #2A97DA",
"2.	c #6FB4E0",
"3.	c #65ADDE",
"4.	c #4EACE2",
"5.	c #017FD2",
"6.	c #007ED2",
"7.	c #104D87",
"8.	c #0180D1",
"9.	c #0080D3",
"0.	c #3FA2DE",
"a.	c #319ADB",
"b.	c #158CD7",
"c.	c #0080D2",
"d.	c #105087",
"e.	c #0A72BB",
"f.	c #0874BE",
"g.	c #0874BF",
"h.	c #0874C0",
"i.	c #0A77C2",
"j.	c #0A78C3",
"k.	c #0876C2",
"l.	c #0776C3",
"m.	c #0776C4",
"n.	c #0677C4",
"o.	c #0578C4",
"p.	c #124F85",
"              . +               ",
"  @ # $     % & * =             ",
"  - ; >   , ' ) ! ~ {           ",
"  - ] ^ / ( ] ] _ _ _ :         ",
"  < [ } | | 1 2 3 ( 4 4 5 6     ",
"  7 8 8 9 0 a b c d e [ [ f g   ",
"h i j j k l m n o p q 8 8 8 r s ",
"t u v w w x y z o A B j j j C D ",
"E F G H H I J K L M I N N N O   ",
"  P Q R R R S T U V W X H H Y   ",
"  P Z ` `  ...+.@.#.$.%.R R &.  ",
"  P *.=.=.-.;.>.,.'.).!.!.` ~.  ",
"  P {.].].^./.(._.:.<.[.[.[.~.  ",
"  P }.|.|.|.1.2.3.4.5.6.6.6.7.  ",
"  P 8.9.9.9.9.0.a.b.9.9.c.c.d.  ",
"  P e.f.g.h.h.i.j.k.l.m.n.o.p.  "};
