/* XPM */
static const char * web_money_xpm[] = {
"16 16 142 2",
"  	c None",
". 	c #D5E8F2",
"+ 	c #DAEBF4",
"@ 	c #B4D4E8",
"# 	c #63A8D1",
"$ 	c #3A8EC4",
"% 	c #2E8BC1",
"& 	c #2785BF",
"* 	c #98C7E1",
"= 	c #7BB5D8",
"- 	c #6CADD3",
"; 	c #0D7BB9",
"> 	c #006CB2",
", 	c #A1CBE2",
"' 	c #ACD1E7",
") 	c #7CB5D7",
"! 	c #D8EAF4",
"~ 	c #BDDAEC",
"{ 	c #D9ECF3",
"] 	c #D4E7F2",
"^ 	c #61A8D1",
"/ 	c #006FB5",
"( 	c #0976B8",
"_ 	c #BCDBEA",
": 	c #A2CCE4",
"< 	c #AED0E6",
"[ 	c #C0DDEC",
"} 	c #187BBA",
"| 	c #ADD2E5",
"1 	c #80B9DB",
"2 	c #62A4CF",
"3 	c #A4CCE4",
"4 	c #006EB4",
"5 	c #0A7BB9",
"6 	c #AED1E8",
"7 	c #A3CCE3",
"8 	c #006FB2",
"9 	c #1E7FBE",
"0 	c #8ABEDD",
"a 	c #2181BD",
"b 	c #94C5E1",
"c 	c #2A87C0",
"d 	c #0077B7",
"e 	c #0478B7",
"f 	c #72B0D5",
"g 	c #AFD2E7",
"h 	c #1B82BC",
"i 	c #3D93C7",
"j 	c #D5E7F1",
"k 	c #AED2E8",
"l 	c #D3E6F1",
"m 	c #B0D2E7",
"n 	c #A6CEE4",
"o 	c #C3DEED",
"p 	c #107BBA",
"q 	c #0178B8",
"r 	c #0072B4",
"s 	c #81B8DA",
"t 	c #C7E0EE",
"u 	c #91C2DE",
"v 	c #96C3DF",
"w 	c #CFE5F1",
"x 	c #016FB3",
"y 	c #4B9AC9",
"z 	c #BAD8EB",
"A 	c #B4D5E9",
"B 	c #A0CAE3",
"C 	c #0078B8",
"D 	c #0078B7",
"E 	c #0070B3",
"F 	c #A8D0E6",
"G 	c #C5E0ED",
"H 	c #0674B6",
"I 	c #0073B6",
"J 	c #9FC8E1",
"K 	c #84BBDC",
"L 	c #9CC7E0",
"M 	c #087BB9",
"N 	c #0177B7",
"O 	c #0075B7",
"P 	c #2484BD",
"Q 	c #4A9ACA",
"R 	c #2785BE",
"S 	c #D6E8F3",
"T 	c #82BBDB",
"U 	c #A4CCE3",
"V 	c #78B3D7",
"W 	c #3F8FC3",
"X 	c #B6D6EA",
"Y 	c #0D7CBA",
"Z 	c #0079B8",
"` 	c #0178B7",
" .	c #0079B6",
"..	c #0072B6",
"+.	c #3C92C3",
"@.	c #A6CEE5",
"#.	c #83BADB",
"$.	c #D2E7F3",
"%.	c #0C74B5",
"&.	c #4B9ACA",
"*.	c #1E81BD",
"=.	c #0077B8",
"-.	c #0075B6",
";.	c #4197C7",
">.	c #338EC3",
",.	c #0065AD",
"'.	c #80B6D8",
").	c #D2E6F2",
"!.	c #B6D6E8",
"~.	c #78B4D7",
"{.	c #006FB3",
"].	c #0078B9",
"^.	c #157EBA",
"/.	c #9CC8E1",
"(.	c #7DB7D8",
"_.	c #2B88BF",
":.	c #C0DBEA",
"<.	c #3E94C6",
"[.	c #4897C8",
"}.	c #358EC3",
"|.	c #0070B4",
"1.	c #1A81BC",
"2.	c #B0D3E7",
"3.	c #579ECC",
"4.	c #B2D4E9",
"5.	c #79B4D7",
"6.	c #83BADA",
"7.	c #0073B7",
"8.	c #0076B5",
"9.	c #2E8CC3",
"0.	c #3A92C6",
"a.	c #2280BC",
"b.	c #2987BF",
"c.	c #137DBB",
"d.	c #0B7BBA",
"e.	c #0A78B9",
"f.	c #157BBA",
"g.	c #3B90C4",
"h.	c #ABD0E6",
"i.	c #A1CBE3",
"j.	c #A7CEE5",
"k.	c #C6E0EF",
"              . +               ",
"        @ # $ % & * =           ",
"      - ; > , ' ) ! ~ { ]       ",
"    ^ / ( _ : < [ } | 1 2       ",
"  3 4 5 6 7 8 9 0 a b           ",
"  c d e f g h i j   k l m n     ",
"o p q d r s t u v w x y z A     ",
"B 5 C D E F G H I J K .         ",
"L M N C O P   Q R S   T U V W   ",
"X Y Z `  ...+.  @.#.$.%.&.      ",
"  *.D =.D -.;.  >.,.'.).!.      ",
"  ~.{.].C =.^./.(._.:.  <.[.    ",
"    }.|.Z D d 1.2.  3.4.5.6.    ",
"      }.7.].D 8.9.0.8.a.        ",
"        V b.c.d.e.f.g.h.        ",
"            X i.j.k.            "};
