/* XPM */
static const char * web_money_xpm[] = {
"48 48 123 2",
"  	c None",
". 	c #0F66A2",
"+ 	c #0967A8",
"@ 	c #0567AD",
"# 	c #0269B0",
"$ 	c #0368AF",
"% 	c #0269AF",
"& 	c #0668AD",
"* 	c #0A66A7",
"= 	c #0F66A4",
"- 	c #0A67A7",
"; 	c #0468AE",
"> 	c #0069B3",
", 	c #006BB5",
"' 	c #006AB5",
") 	c #006BB3",
"! 	c #006AB4",
"~ 	c #006AB6",
"{ 	c #0067B2",
"] 	c #2D7FBA",
"^ 	c #2572AC",
"/ 	c #0864A4",
"( 	c #0867AA",
"_ 	c #0368B1",
": 	c #0069B5",
"< 	c #0069B4",
"[ 	c #006AB2",
"} 	c #0268B1",
"| 	c #0568AC",
"1 	c #0169B3",
"2 	c #006AB3",
"3 	c #0369B0",
"4 	c #0666AB",
"5 	c #0468B0",
"6 	c #0568AE",
"7 	c #0268B2",
"8 	c #0069B2",
"9 	c #0168B2",
"0 	c #0966A9",
"a 	c #0568AD",
"b 	c #0468AD",
"c 	c #0368B0",
"d 	c #0D65A3",
"e 	c #0468AF",
"f 	c #0169B1",
"g 	c #11659F",
"h 	c #0169B4",
"i 	c #0268B0",
"j 	c #0269B2",
"k 	c #0467AE",
"l 	c #0668AB",
"m 	c #0967A6",
"n 	c #0566AC",
"o 	c #0767AA",
"p 	c #0269B1",
"q 	c #0667AD",
"r 	c #0C65A4",
"s 	c #0169B2",
"t 	c #0E65A4",
"u 	c #006BB4",
"v 	c #0267AC",
"w 	c #0068B2",
"x 	c #0667AC",
"y 	c #0866A9",
"z 	c #0767AB",
"A 	c #0068B3",
"B 	c #0D69AB",
"C 	c #0668AC",
"D 	c #0C66A3",
"E 	c #0C66A6",
"F 	c #0168B3",
"G 	c #0867A8",
"H 	c #0B66A6",
"I 	c #016AB3",
"J 	c #0468AC",
"K 	c #0068B4",
"L 	c #0268AF",
"M 	c #0867AB",
"N 	c #0168B4",
"O 	c #0766AA",
"P 	c #0667AB",
"Q 	c #0168B1",
"R 	c #1369A4",
"S 	c #0069B6",
"T 	c #0A66A6",
"U 	c #006AB7",
"V 	c #0464A7",
"W 	c #0367AF",
"X 	c #086BB1",
"Y 	c #0469B2",
"Z 	c #0469B0",
"` 	c #0469AF",
" .	c #0B66A5",
"..	c #0967A9",
"+.	c #0A67A8",
"@.	c #0868AA",
"#.	c #0F66A3",
"$.	c #0767AC",
"%.	c #0B66A7",
"&.	c #0767A9",
"*.	c #0967A7",
"=.	c #0866AA",
"-.	c #0169B5",
";.	c #0A6BB0",
">.	c #0467AD",
",.	c #0966A8",
"'.	c #0567AE",
").	c #0169B0",
"!.	c #0469AE",
"~.	c #0368AE",
"{.	c #0867A9",
"].	c #0C66A5",
"^.	c #0367B0",
"/.	c #0F6AA9",
"(.	c #0D65A4",
"_.	c #026AB4",
":.	c #016AB4",
"<.	c #0269B4",
"[.	c #016AB5",
"}.	c #016BB3",
"|.	c #016BB4",
"1.	c #0E65A2",
"2.	c #0966A7",
"                                                                                                ",
"                                                                                                ",
"                                      . + @ # $ $ % & * =                                       ",
"                                - ; > , , ' ' > > ) ! ~ { ] ^ /                                 ",
"                            ( _ : < > [ } | $ 1 > > 2 3       4 5 (                             ",
"                        6 } > > 2 > 2 #       7 8 < 9           0 a                             ",
"                      b > 2 ! 2 > ! c d         3 e                                             ",
"                    ; > ! < < ! 2 c                                                             ",
"                  f > < < < 2 > e                         |           g h i                     ",
"                j ! > > < 2 < k                         ; > _         l > < m                   ",
"              i 8 2 > 2 > > n           ( 2 o         l < > 2 p         a 5                     ",
"            q > > 2 > ! < _           & < ! # r       s > [ 2 s t                               ",
"          o [ ! u < 2 < v           $ w > > > %         [ 2 > x                                 ",
"          j 2 ! 2 < h j           3 > < < < > < i       y s 6                                   ",
"        z A < > < 2 < 8 B         C A < > < > 2 7                                               ",
"        e > < < ! > ! > >           z > 2 > < i                                 D               ",
"      E 1 ! > 2 ! : > ! F 9           ; < < c                     r           * < G             ",
"      H : < I > > < > > < > p           } ;                     e < o         9 < J             ",
"      i 2 < ! > > [ < K > > > L                               } > > 9 M       o 3               ",
"      ! > 2 < < ! N > 2 < 2 < > c               O ;         P > 2 2 < Q                         ",
"    R S h 2 2 2 < ! ! < < ! 2 < Q             6 ! ! x         c 2 < # T                         ",
"    H U 1 2 < > ! ! ! < ! < > 8 V           W > < > ' ;         ; 9                             ",
"    M S > > ! 2 ! ! ! ! ! > ! X           } < > 2 < A > 6                                       ",
"    a : < > ' 2 ! ! ! ! ! 2 < Y           k > 2 2 > > ! Z                                       ",
"    a : < 2 2 ! < ! ! ! ! 2 < < #           c < ' > ! c                               h `       ",
"    x : > < < > ! ! ! ! ! > 2 : ! a           9 1 1 s                   L o         a 2 ~  .    ",
"    ..: > 2 > > ! ! ! ! ! ! 2 > 2 > a           s }                   # < s +.        3 @.      ",
"    #.U 2 2 2 2 < ! ! ! ! ! 8 < 2 8 > $.                            Q > 2 2 f d                 ",
"    %.U 1 2 ' > ! ! ! ! ! ! 2 ! < 2 > s &               G &.        b > [ 2 s                   ",
"      > > 2 < > ! ! ! ! ! ! ! > ! > > < j             q ' 1           % < # +                   ",
"      P ' 2 > < ! ! ! ! ! ! ! > ! < ! f             e > > 2 s *.        5                       ",
"      =.-.u > ! < ! ! ! ! ! ! 2 > < 2 ;.          i A A 8 2 > }                                 ",
"        } > 2 ! < ! ! ! ! ! ! < 1 > 1 5           A < < ! 2 2 < $.                              ",
"        6 8 > < ! ! ! ! ! < ! < < > : 1 P         >.> < < 2 ! }               z C               ",
"          > > < ! ! ! ! ! ! < 2 > < > < 1 ,.        o ! > < $               '.< < '.            ",
"          Z > < > > < < ! ! ! < ! 2 ! ! > 1           J A i               ; 8 2 2 2 x           ",
"            ).< < < > > ! ! < ! ! ! ! 2 < ! s           $.                !.> : < ! ~.          ",
"            {.s < > > > ! < ! ! ! ! ! ! ! > w i                   ].        {.! 2 z             ",
"              ~.w ! < 2 < < 2 ! ! ! ! ! < ! ! < ^.              >.h -         P #               ",
"                3 < < 2 ! 2 < ! ! ! ! ! ! ! < 2 > a           ; ! 2 $                           ",
"                  i < > 2 2 ! ! ! ! ! ! ! ! ! < ! < e       3 > ! > > }                         ",
"                    l 8 : 1 > 2 < ! > ! 2 2 < ! < 2 ' & /.9 8 8 > > > A c                       ",
"                      a i < < < > > ! > < < > 2 > > > 8 8 > < > > > < } 6                       ",
"                          C } ' > > > ! < < < < < ! ! ' 2 > > 1 < } $.                          ",
"                              * ! ~ > [ f 8 > > 8 2 [ > [ 2 ~ 2 T                               ",
"                                  (.% s _.:.I <.[.h }.|.s 5 (.                                  ",
"                                          1.- 2.+ * 1.                                          ",
"                                                                                                "};
