/* XPM */
static const char * work_xpm[] = {
"16 14 10 1",
" 	c None",
".	c #EE171A",
"+	c #ED171A",
"@	c #ED181A",
"#	c #ED161A",
"$	c #ED171B",
"%	c #000000",
"&	c #EC171A",
"*	c #EC181A",
"=	c #EC171B",
"       ..       ",
"       ++@      ",
"      +#++      ",
"     ++  +.     ",
"     +    +     ",
"    ++    $$    ",
"    +  %%% +    ",
"   &.  %%% ++   ",
"  ++   %%%  +*  ",
"  +@%% %%%   +  ",
" .+ %%  % %  +. ",
" + %%%%    %  + ",
"++            ++",
"=+++++++++++++++"};
