/* XPM */
static const char* work_xpm[] = {
"48 48 436 2",
"  	c None",
". 	c #170A0A",
"+ 	c #1A0A0A",
"@ 	c #3E2F2F",
"# 	c #E8D3D3",
"$ 	c #F3E6E6",
"% 	c #756060",
"& 	c #2C1F1F",
"* 	c #F1DFDF",
"= 	c #FCF8F8",
"- 	c #FBF4F4",
"; 	c #685555",
"> 	c #C2A3A3",
", 	c #F9F1F1",
"' 	c #EDD9D9",
") 	c #1D0F0F",
"! 	c #4C3939",
"~ 	c #F7E9E9",
"{ 	c #F8EBEB",
"] 	c #9B7D7D",
"^ 	c #160707",
"/ 	c #D8B8B8",
"( 	c #F5E5E5",
"_ 	c #F5E6E6",
": 	c #F5E7E7",
"< 	c #F1DCDC",
"[ 	c #2D2020",
"} 	c #755B5B",
"| 	c #F3DEDE",
"1 	c #F5EBEB",
"2 	c #F5EFEF",
"3 	c #B99292",
"4 	c #160808",
"5 	c #1F1111",
"6 	c #E4C2C2",
"7 	c #F1D7D7",
"8 	c #F2DBDB",
"9 	c #F4F4F4",
"0 	c #F2E0E0",
"a 	c #F0D5D5",
"b 	c #443030",
"c 	c #9C7777",
"d 	c #EFD1D1",
"e 	c #F2EAEA",
"f 	c #F3F3F3",
"g 	c #F3EEEE",
"h 	c #EFD2D2",
"i 	c #D0A7A7",
"j 	c #180909",
"k 	c #2D1D1D",
"l 	c #E9C4C4",
"m 	c #EDCACA",
"n 	c #EFD5D5",
"o 	c #F0DCDC",
"p 	c #674B4B",
"q 	c #140707",
"r 	c #BA8B8B",
"s 	c #ECC4C4",
"t 	c #ECC5C5",
"u 	c #F1EAEA",
"v 	c #F2F2F2",
"w 	c #F1EFEF",
"x 	c #ECC8C8",
"y 	c #DDAFAF",
"z 	c #1B0C0C",
"A 	c #4C3434",
"B 	c #E9BDBD",
"C 	c #EABEBE",
"D 	c #EDD4D4",
"E 	c #EEDCDC",
"F 	c #8D6262",
"G 	c #170808",
"H 	c #CF9999",
"I 	c #E7B6B6",
"J 	c #E8BABA",
"K 	c #F0ECEC",
"L 	c #F0F0F0",
"M 	c #E9C1C1",
"N 	c #E2ADAD",
"O 	c #261717",
"P 	c #744E4E",
"Q 	c #E6B0B0",
"R 	c #ECD7D7",
"S 	c #F1F1F1",
"T 	c #EFE1E1",
"U 	c #E6B1B1",
"V 	c #AB7474",
"W 	c #1F1010",
"X 	c #DA9C9C",
"Y 	c #E4A9A9",
"Z 	c #E6B5B5",
"` 	c #F0EFEF",
" .	c #E7BFBF",
"..	c #E3A8A8",
"+.	c #3E2626",
"@.	c #976161",
"#.	c #E3A3A3",
"$.	c #EDDCDC",
"%.	c #EFE7E7",
"&.	c #E3A5A5",
"*.	c #C58181",
"=.	c #180808",
"-.	c #2F1B1B",
";.	c #DE9898",
">.	c #E09C9C",
",.	c #E6B7B7",
"'.	c #B9B9B9",
").	c #7F7F7F",
"!.	c #919191",
"~.	c #E6E6E6",
"{.	c #E8C3C3",
"].	c #5F3737",
"^.	c #160606",
"/.	c #B26D6D",
"(.	c #DF9595",
"_.	c #DF9797",
":.	c #EEE4E4",
"<.	c #C1C1C1",
"[.	c #A1A1A1",
"}.	c #A2A2A2",
"|.	c #BFBFBF",
"1.	c #EDEDED",
"2.	c #EEEEEE",
"3.	c #757575",
"4.	c #737373",
"5.	c #B6B6B6",
"6.	c #F1EDED",
"7.	c #E09E9E",
"8.	c #D18484",
"9.	c #4D2B2B",
"0.	c #DE8E8E",
"a.	c #E8BFBF",
"b.	c #B2B2B2",
"c.	c #6B6B6B",
"d.	c #6C6C6C",
"e.	c #7D7D7D",
"f.	c #B7B7B7",
"g.	c #C7C7C7",
"h.	c #ECCCCC",
"i.	c #844949",
"j.	c #1B0909",
"k.	c #C57272",
"l.	c #DC8787",
"m.	c #DD9090",
"n.	c #EFEFEF",
"o.	c #6A6A6A",
"p.	c #C6C6C6",
"q.	c #D5D5D5",
"r.	c #626262",
"s.	c #777777",
"t.	c #A7A7A7",
"u.	c #C0C0C0",
"v.	c #F3F2F2",
"w.	c #D78181",
"x.	c #241111",
"y.	c #743D3D",
"z.	c #DB8181",
"A.	c #EBCACA",
"B.	c #F5F5F5",
"C.	c #CCCCCC",
"D.	c #838383",
"E.	c #5A5A5A",
"F.	c #5C5C5C",
"G.	c #C9C9C9",
"H.	c #F6F6F6",
"I.	c #F0DBDB",
"J.	c #A25454",
"K.	c #170707",
"L.	c #210D0D",
"M.	c #D37070",
"N.	c #DB7777",
"O.	c #E09191",
"P.	c #F5F4F4",
"Q.	c #979797",
"R.	c #515151",
"S.	c #E3A2A2",
"T.	c #DA7878",
"U.	c #DA7777",
"V.	c #3A1919",
"W.	c #140606",
"X.	c #974646",
"Y.	c #DB6F6F",
"Z.	c #DB7070",
"`.	c #F1D8D8",
" +	c #F8F8F8",
".+	c #4F4F4F",
"++	c #BABABA",
"@+	c #565656",
"#+	c #494949",
"$+	c #676767",
"%+	c #F7F7F7",
"&+	c #F5E9E9",
"*+	c #DC7676",
"=+	c #BD5858",
"-+	c #190707",
";+	c #331515",
">+	c #DB6565",
",+	c #DC6767",
"'+	c #E69B9B",
")+	c #F9F9F9",
"!+	c #CACACA",
"~+	c #707070",
"{+	c #414141",
"]+	c #4B4B4B",
"^+	c #BEBEBE",
"/+	c #454545",
"(+	c #EAAFAF",
"_+	c #DB6868",
":+	c #5E2626",
"<+	c #180606",
"[+	c #B13F3F",
"}+	c #DB5757",
"|+	c #DC5D5D",
"1+	c #DD6363",
"2+	c #F7E8E8",
"3+	c #FBFBFB",
"4+	c #383838",
"5+	c #B1B1B1",
"6+	c #363636",
"7+	c #616161",
"8+	c #FCFCFC",
"9+	c #FAF5F5",
"0+	c #DF6F6F",
"a+	c #DC5E5E",
"b+	c #CF5454",
"c+	c #1B0707",
"d+	c #4A0F0F",
"e+	c #D62D2D",
"f+	c #D73030",
"g+	c #EB9E9E",
"h+	c #FDFDFD",
"i+	c #CBCBCB",
"j+	c #303030",
"k+	c #AFAFAF",
"l+	c #FEFEFE",
"m+	c #434343",
"n+	c #EFB4B4",
"o+	c #DA4C4C",
"p+	c #DC5555",
"q+	c #852D2D",
"r+	c #1A0505",
"s+	c #C52626",
"t+	c #D92A2A",
"u+	c #DD4242",
"v+	c #FEF7F7",
"w+	c #FFFFFF",
"x+	c #9A9A9A",
"y+	c #191919",
"z+	c #1A1A1A",
"A+	c #151515",
"B+	c #0B0B0B",
"C+	c #0F0F0F",
"D+	c #969696",
"E+	c #DADADA",
"F+	c #060606",
"G+	c #CFCFCF",
"H+	c #FFFEFE",
"I+	c #E15D5D",
"J+	c #DB3D3D",
"K+	c #DD4C4C",
"L+	c #DA4949",
"M+	c #250909",
"N+	c #761515",
"O+	c #DB2727",
"P+	c #DB2828",
"Q+	c #F3B7B7",
"R+	c #474747",
"S+	c #000000",
"T+	c #010101",
"U+	c #B3B3B3",
"V+	c #1D1D1D",
"W+	c #999999",
"X+	c #D2D2D2",
"Y+	c #DBDBDB",
"Z+	c #F7D0D0",
"`+	c #DB2A2A",
" @	c #DB3131",
".@	c #DE4242",
"+@	c #A72E2E",
"@@	c #190505",
"#@	c #230606",
"$@	c #DA2323",
"%@	c #DE2525",
"&@	c #E65757",
"*@	c #D4D4D4",
"=@	c #030303",
"-@	c #AEAEAE",
";@	c #989898",
">@	c #595959",
",@	c #242424",
"'@	c #5E5E5E",
")@	c #535353",
"!@	c #E97373",
"~@	c #DD2626",
"{@	c #DE2929",
"]@	c #DF3535",
"^@	c #3E0D0D",
"/@	c #170303",
"(@	c #A01818",
"_@	c #E12222",
":@	c #E12424",
"<@	c #F9D3D3",
"[@	c #070707",
"}@	c #6F6F6F",
"|@	c #797979",
"1@	c #B0B0B0",
"2@	c #424242",
"3@	c #C5C5C5",
"4@	c #FCE8E8",
"5@	c #E12C2C",
"6@	c #E02323",
"7@	c #C42222",
"8@	c #1A0404",
"9@	c #3B0808",
"0@	c #E31F1F",
"a@	c #EE7979",
"b@	c #4E4E4E",
"c@	c #929292",
"d@	c #5B5B5B",
"e@	c #646464",
"f@	c #3A3A3A",
"g@	c #F19292",
"h@	c #E22020",
"i@	c #640E0E",
"j@	c #1C0404",
"k@	c #C41818",
"l@	c #E61C1C",
"m@	c #E72828",
"n@	c #FDEAEA",
"o@	c #404040",
"p@	c #7C7C7C",
"q@	c #878787",
"r@	c #111111",
"s@	c #ACACAC",
"t@	c #E83939",
"u@	c #E51D1D",
"v@	c #DA1C1C",
"w@	c #1E0303",
"x@	c #630B0B",
"y@	c #E91919",
"z@	c #F59898",
"A@	c #FAFAFA",
"B@	c #3E3E3E",
"C@	c #0E0E0E",
"D@	c #A6A6A6",
"E@	c #202020",
"F@	c #252525",
"G@	c #F7B1B1",
"H@	c #E81A1A",
"I@	c #E71A1A",
"J@	c #8E1111",
"K@	c #170404",
"L@	c #1E0202",
"M@	c #DE1515",
"N@	c #EB1616",
"O@	c #EE3737",
"P@	c #FEF9F9",
"Q@	c #D8D8D8",
"R@	c #131313",
"S@	c #C8C8C8",
"T@	c #090909",
"U@	c #696969",
"V@	c #EF4F4F",
"W@	c #EA1717",
"X@	c #E91717",
"Y@	c #2B0404",
"Z@	c #160202",
"`@	c #920B0B",
" #	c #EE1313",
".#	c #FABABA",
"+#	c #666666",
"@#	c #393939",
"##	c #FCD2D2",
"$#	c #ED1616",
"%#	c #ED1414",
"&#	c #BD1010",
"*#	c #1D0303",
"=#	c #2B0303",
"-#	c #EF1010",
";#	c #F11010",
">#	c #F55050",
",#	c #444444",
"'#	c #222222",
")#	c #505050",
"!#	c #2E2E2E",
"~#	c #939393",
"{#	c #F56C6C",
"]#	c #EF1111",
"^#	c #4B0505",
"/#	c #BA0A0A",
"(#	c #F30D0D",
"_#	c #F31111",
":#	c #FDD6D6",
"<#	c #FEE9E9",
"[#	c #F31C1C",
"}#	c #F20E0E",
"|#	c #F20F0F",
"1#	c #D80D0D",
"2#	c #1D0101",
"3#	c #2F0202",
"4#	c #F60A0A",
"5#	c #F83939",
"6#	c #FB9D9D",
"7#	c #F84949",
"8#	c #F50C0C",
"9#	c #730606",
"0#	c #750303",
"a#	c #F90707",
"b#	c #F80707",
"c#	c #F80808",
"d#	c #F70808",
"e#	c #F70909",
"f#	c #D00808",
"g#	c #220202",
"h#	c #720101",
"i#	c #FB0404",
"j#	c #FB0505",
"k#	c #FA0505",
"l#	c #FA0606",
"m#	c #CA0505",
"n#	c #200000",
"o#	c #1D0000",
"p#	c #980101",
"q#	c #E00101",
"r#	c #FD0101",
"s#	c #FE0101",
"t#	c #FE0202",
"u#	c #FD0202",
"v#	c #FD0303",
"w#	c #EF0303",
"x#	c #BF0202",
"y#	c #290000",
"z#	c #240000",
"A#	c #1E0000",
"B#	c #1C0000",
"C#	c #220000",
"                                                                                                ",
"                                                                                                ",
"                                              . +                                               ",
"                                            @ # $ %                                             ",
"                                          & * = = - ;                                           ",
"                                          > , , , , ' )                                         ",
"                                        ! ~ { { { { { ]                                         ",
"                                      ^ / ( ( _ : ( ( < [                                       ",
"                                      } | | | 1 2 | | | 3 4                                     ",
"                                    5 6 7 7 8 9 9 0 7 7 a b                                     ",
"                                    c d d d e f f g h d d i j                                   ",
"                                  k l m m n f f f f o m m m p                                   ",
"                                q r s s t u v v v v w x s s y z                                 ",
"                                A B C C D v v v v v v E C C C F                                 ",
"                              G H I I J K L L L L L L L M I I N O                               ",
"                              P Q Q Q R S S S S S S S S T U U U V ^                             ",
"                            W X Y Y Z ` L L L L L L L L L  .Y Y ..+.                            ",
"                            @.#.#.#.$.S v v v v v v L v v %.&.#.#.*.=.                          ",
"                          -.;.>.>.,.S S S S S S S '.).!.~.S {.>.>.>.].                          ",
"                        ^./.(.(._.:.L <.[.}.|.1.2.3.4.4.5.v 6.7.(.(.8.+                         ",
"                        9.0.0.0.a.f b.c.d.c.c.e.f.d.c.c.g.9 9 h.0.0.0.i.                        ",
"                      j.k.l.l.m.6.n.o.p.q.r.r.r.r.s.t.u.f f f v.7.l.l.w.x.                      ",
"                      y.z.z.z.A.B.C.D.9 e.E.E.E.E.F.G.B.H.H.H.H.I.z.z.z.J.K.                    ",
"                    L.M.N.N.O.P.B.Q.5.b.R.R.R.R.R.R.e.H.H.H.H.H.H.S.T.T.U.V.                    ",
"                  W.X.Y.Y.Z.`. +v .+++@+#+#+#+#+#+#+$+%+ +%+ + + +&+*+Z.Z.=+-+                  ",
"                  ;+>+,+,+'+)+)+)+!+~+{+{+{+{+]+^+/+E.)+)+)+)+)+)+)+(+_+_+_+:+                  ",
"                <+[+}+|+1+2+3+3+3+%+]+4+4+4+4+5+3+6+7+8+8+8+8+8+8+8+9+0+a+a+b+c+                ",
"                d+e+e+f+g+h+8+8+8+i+j+j+j+j+j+k+l+E.m+l+l+l+l+l+l+l+l+n+o+p+p+q+                ",
"              r+s+t+t+u+v+w+w+w+l+x+y+z+y+A+B+C+D+E+F+G+w+w+w+w+w+w+w+H+I+J+K+L+M+              ",
"              N+O+O+P+Q+w+w+w+w+w+R+S+T+U+V+S+S+W+o.4+4.w+w+w+w+X+).Y+w+Z+`+ @.@+@@@            ",
"            #@$@%@%@&@H+w+w+w+w+*@=@S+.+w+-@S+S+;@8+>@,@B.w+f '@T+S+)@w+w+!@~@{@]@^@            ",
"          /@(@_@_@:@<@w+w+w+w+ +4+S+[@E+w+h+z+S+}@w+3+q.|@1@2@S+S+S+T+3@w+4@5@6@6@7@8@          ",
"          9@0@0@0@a@w+w+w+w+%+b@S+S+c@w+w+w+d@S+R.w+w+w+w+e@S+S+S+S+S+f@l+w+g@h@h@h@i@          ",
"        j@k@l@l@m@n@w+w+w+v o@S+S+p@w+w+w+w+q@S+6+w+w+w+9 r@S+S+S+S+S+S+s@w+v+t@u@u@v@w@        ",
"        x@y@y@y@z@w+w+w+A@B@S+C@s@w+w+w+w+w+D@S+E@w+w+w+t.S+S+S+S+S+S+S+F@A@w+G@H@H@I@J@K@      ",
"      L@M@N@N@O@P@w+w+w+Q@=@R@i+w+w+w+w+w+w+S@S+T@w+w+w+U@S+S+S+S+S+S+S+S+c@w+w+V@W@W@X@Y@      ",
"    Z@`@ # # #.#w+w+w+w+w++#o.w+w+w+w+w+w+w+B.=@S+v w+w+@#S+S+S+S+S+S+S+S+A+L w+##$#%#%#&#*#    ",
"    =#-#;#;#>#w+w+w+w+w+w+9 ]+L w+w+w+w+w+w+w+,#'#)#S@l+!#'#'#'#'#'#'#'#'#'#~#w+w+{#]#]#]#^#    ",
"  L@/#(#(#_#:#w+w+w+w+w+w+w+w+w+w+w+w+w+w+w+w+w+w+w+w+w+w+w+w+w+w+w+w+w+w+w+w+w+w+<#[#}#|#1#2#  ",
"  3#4#4#4#5#6#6#6#6#6#6#6#6#6#6#6#6#6#6#6#6#6#6#6#6#6#6#6#6#6#6#6#6#6#6#6#6#6#6#6#6#7#8#8#8#9#  ",
"  0#a#a#a#a#b#b#b#b#b#b#b#b#c#c#c#c#c#c#c#c#c#c#c#c#c#c#c#c#c#c#c#c#c#c#d#d#d#d#e#e#e#e#e#e#f#g#",
"  h#i#i#i#i#i#i#i#i#i#i#j#j#j#j#j#j#j#j#j#j#j#j#j#k#k#k#k#k#k#k#k#k#k#k#k#k#l#l#l#l#l#l#l#l#m#n#",
"  o#p#q#r#s#s#s#s#s#t#t#t#t#u#u#u#u#u#u#u#u#u#u#u#u#u#u#u#u#u#u#u#u#u#u#v#v#v#v#v#v#v#v#w#x#y#  ",
"      z#A#B#B#B#B#B#B#B#B#B#B#B#B#B#B#B#B#B#B#B#B#B#B#B#B#B#B#B#B#B#B#B#B#B#B#B#B#B#B#A#C#A#    ",
"                                                                                                ",
"                                                                                                ",
"                                                                                                ",
"                                                                                                "};
