/* XPM */
static const char * yandex_money_xpm[] = {
"16 16 145 2",
"  	c None",
". 	c #FCE9DA",
"+ 	c #F9AC72",
"@ 	c #F8B480",
"# 	c #FDF2E9",
"$ 	c #FCEFE3",
"% 	c #F9C095",
"& 	c #F48430",
"* 	c #F36F0D",
"= 	c #F58A39",
"- 	c #FCE5D3",
"; 	c #FDF2E8",
"> 	c #FACEAD",
", 	c #F59044",
"' 	c #F37313",
") 	c #F4791D",
"! 	c #F37618",
"~ 	c #F58E3E",
"{ 	c #FDE6D5",
"] 	c #FBD7BB",
"^ 	c #F69F5D",
"/ 	c #F47516",
"( 	c #F47619",
"_ 	c #F3781D",
": 	c #F4781D",
"< 	c #F37518",
"[ 	c #F68D40",
"} 	c #FCE2CE",
"| 	c #F8AE78",
"1 	c #F47C22",
"2 	c #F47314",
"3 	c #F47A1F",
"4 	c #F47B20",
"5 	c #F58B3D",
"6 	c #F4771A",
"7 	c #FCE6D5",
"8 	c #FCECE0",
"9 	c #F48A3B",
"0 	c #F47213",
"a 	c #F3791E",
"b 	c #F57B20",
"c 	c #F58632",
"d 	c #FBD1B0",
"e 	c #F9C196",
"f 	c #F37619",
"g 	c #F68E40",
"h 	c #FBE0CA",
"i 	c #FBCFAE",
"j 	c #FACFAD",
"k 	c #FBD4B8",
"l 	c #F3700E",
"m 	c #F47B21",
"n 	c #F3771B",
"o 	c #F58D3F",
"p 	c #F9BE91",
"q 	c #F69E5B",
"r 	c #F47214",
"s 	c #F69044",
"t 	c #FBD6B9",
"u 	c #F58938",
"v 	c #F37516",
"w 	c #FDE7D7",
"x 	c #FBD2B3",
"y 	c #F37414",
"z 	c #F37B20",
"A 	c #F47A20",
"B 	c #F57B21",
"C 	c #F4791E",
"D 	c #F47618",
"E 	c #F68F44",
"F 	c #F47313",
"G 	c #FDE5D3",
"H 	c #FBD3B5",
"I 	c #F27415",
"J 	c #F37A1F",
"K 	c #F47A21",
"L 	c #F68F41",
"M 	c #F69045",
"N 	c #F47416",
"O 	c #FCE5D4",
"P 	c #F37B1F",
"Q 	c #F36E0B",
"R 	c #F69B54",
"S 	c #FBDDC5",
"T 	c #F47415",
"U 	c #F5791C",
"V 	c #F37212",
"W 	c #F4771B",
"X 	c #F6934A",
"Y 	c #FDEFE4",
"Z 	c #F68F43",
"` 	c #FBD3B4",
" .	c #F47111",
"..	c #F58029",
"+.	c #F7A96F",
"@.	c #FCD4B6",
"#.	c #FEEFE4",
"$.	c #FEFEFE",
"%.	c #FACAA6",
"&.	c #F5832F",
"*.	c #F47617",
"=.	c #FCD3B4",
"-.	c #F47414",
";.	c #F4781B",
">.	c #F47517",
",.	c #F69246",
"'.	c #FAC49C",
").	c #FDE5D5",
"!.	c #FDEBDE",
"~.	c #FBDAC0",
"{.	c #F9B988",
"].	c #F79B57",
"^.	c #F37B22",
"/.	c #F5771A",
"(.	c #FBD2B2",
"_.	c #F58E41",
":.	c #FBD9BE",
"<.	c #FCE0C8",
"[.	c #FBC79F",
"}.	c #F8A86C",
"|.	c #F69147",
"1.	c #F57E25",
"2.	c #F47719",
"3.	c #FBD8BE",
"4.	c #F36C07",
"5.	c #F59045",
"6.	c #F48029",
"7.	c #F37517",
"8.	c #F47312",
"9.	c #F37413",
"0.	c #F37415",
"a.	c #F36F0C",
"b.	c #FCE4D1",
"c.	c #FEF7F2",
"d.	c #F9BA89",
"e.	c #F6A262",
"f.	c #F6A567",
"g.	c #F8A364",
"h.	c #F7A364",
"i.	c #F7A465",
"j.	c #F7A466",
"k.	c #F8A466",
"l.	c #F8A467",
"m.	c #F8A160",
"n.	c #F8B683",
"                . + @ #         ",
"            $ % & * = -         ",
"        ; > , ' ) ! ~ {         ",
"      ] ^ / ( _ : < [ {         ",
"  } | 1 2 3 4 = 5 6 [ 7         ",
"8 9 0 a b _ c d e f g h i j     ",
"k l m 4 4 n o p q r s t u v w   ",
"x y z 4 A 4 B 3 C D E ] s F G   ",
"H I 4 J A A K A z ( L t M N O   ",
"H I 4 P A A A K 3 Q R S s T O   ",
"H I 4 P z m U V W X ] Y Z T O   ",
"` y A A D  ...+.@.#.$.%.&.*.O   ",
"=.-.;.>.,.'.).!.~.{.].& ^./.O   ",
"(.T _.:.<.[.}.|.&.1.) a 4 2.O   ",
"3.4.1 5.6._ 7.F 8.9.T 0.0.a.b.  ",
"c.d.e.f.g.h.i.i.j.k.k.l.m.n.    "};
