<?xml version="1.0" encoding="iso-8859-1"?>
<!-- Generator: Adobe Illustrator 19.0.0, SVG Export Plug-In . SVG Version: 6.00 Build 0)  -->
<svg version="1.1" id="Layer_1" xmlns="http://www.w3.org/2000/svg" xmlns:xlink="http://www.w3.org/1999/xlink" x="0px" y="0px"
	 viewBox="0 0 512 512" style="enable-background:new 0 0 512 512;" xml:space="preserve">
<path style="fill:#F2D23D;" d="M463.282,184.122c-3.82-8.207-12.051-13.456-21.102-13.456H313.909l85.845-134.899
	c4.558-7.166,4.853-16.247,0.766-23.693S388.614,0,380.12,0H255.999h-15.515c-8.305,0-15.981,4.425-20.14,11.612L49.678,306.398
	c-4.169,7.201-4.175,16.077-0.022,23.285c4.156,7.208,11.843,11.649,20.162,11.649h140.196l-38.529,141.27
	c-2.875,10.539,1.969,21.659,11.643,26.734c3.426,1.797,7.131,2.664,10.8,2.664c6.692,0,13.269-2.886,17.811-8.283l44.26-52.557
	l203.983-242.23C465.813,202.005,467.101,192.328,463.282,184.122z"/>
<path style="fill:#EEBF00;" d="M183.128,509.336c3.426,1.797,7.131,2.664,10.8,2.664c6.692,0,13.269-2.886,17.811-8.283
	l44.26-52.557V0h-15.515c-8.304,0-15.981,4.425-20.14,11.612L49.678,306.398c-4.169,7.201-4.175,16.077-0.022,23.285
	c4.156,7.208,11.843,11.649,20.162,11.649h140.196l-38.529,141.27C168.612,493.141,173.454,504.261,183.128,509.336z"/>
<g>
</g>
<g>
</g>
<g>
</g>
<g>
</g>
<g>
</g>
<g>
</g>
<g>
</g>
<g>
</g>
<g>
</g>
<g>
</g>
<g>
</g>
<g>
</g>
<g>
</g>
<g>
</g>
<g>
</g>
</svg>
