<?xml version="1.0" encoding="iso-8859-1"?>
<!-- Generator: Adobe Illustrator 19.0.0, SVG Export Plug-In . SVG Version: 6.00 Build 0)  -->
<svg version="1.1" id="Layer_1" xmlns="http://www.w3.org/2000/svg" xmlns:xlink="http://www.w3.org/1999/xlink" x="0px" y="0px"
	 viewBox="0 0 490 490" style="enable-background:new 0 0 490 490;" xml:space="preserve">
<g>
	<path style="fill:#FBB03B;" d="M356.921,409.609h18.235c4.232,0,7.656,3.424,7.656,7.656s-3.424,7.656-7.656,7.656h-18.235v22.969
		h94.798v-22.969h-30.625c-4.232,0-7.656-3.424-7.656-7.656s3.424-7.656,7.656-7.656h30.625V133.984h-94.798L356.921,409.609
		L356.921,409.609z"/>
	<path style="fill:#FCC062;" d="M306.25,156.953c25.332,0,45.938,20.606,45.938,45.938s-20.606,45.938-45.938,45.938h-72.982v22.969
		h57.67c4.232,0,7.656,3.424,7.656,7.656v61.25c0,4.232-3.424,7.656-7.656,7.656h-53.594v30.625c0,2.937-1.651,5.483-4.076,6.767
		v23.858h123.653V133.984H233.268v22.969L306.25,156.953L306.25,156.953z"/>
	<rect x="233.268" y="424.922" style="fill:#FCC062;" width="123.653" height="22.969"/>
	<path style="fill:#FDD089;" d="M114.844,424.922c-4.232,0-7.656-3.424-7.656-7.656s3.424-7.656,7.656-7.656h118.424v-23.858
		c-1.068,0.566-2.286,0.889-3.58,0.889H99.531c-4.232,0-7.656-3.424-7.656-7.656v-61.25c0-4.232,3.424-7.656,7.656-7.656h76.563
		v-30.625c0-4.232,3.424-7.656,7.656-7.656h49.518v-22.969H183.75c-25.331,0-45.938-20.606-45.938-45.938
		c0-25.331,20.606-45.938,45.938-45.938h49.518v-22.969H38.281v275.625h30.625c4.232,0,7.656,3.424,7.656,7.656
		s-3.424,7.656-7.656,7.656H38.281v22.969h194.987v-22.969H114.844V424.922z"/>
	<path style="fill:#A0E0E0;" d="M237.344,317.734v15.313h10.37v-45.938h-56.307v22.969h38.281
		C233.919,310.078,237.344,313.502,237.344,317.734z"/>
	<rect x="247.714" y="287.109" style="fill:#71D1D1;" width="35.568" height="45.938"/>
	<rect x="380.336" y="42.109" style="fill:#FBB03B;" width="94.352" height="76.563"/>
	<rect x="191.406" y="325.391" style="fill:#71D1D1;" width="30.625" height="45.938"/>
	<rect x="146.012" y="325.391" style="fill:#A0E0E0;" width="45.395" height="45.938"/>
	<rect x="107.188" y="325.391" style="fill:#D0F0F0;" width="38.824" height="45.938"/>
	<rect x="250.895" y="42.109" style="fill:#FCC062;" width="129.441" height="76.563"/>
	<rect x="15.313" y="42.109" style="fill:#FDD089;" width="235.583" height="76.563"/>
	<path d="M482.344,26.797H7.656C3.424,26.797,0,30.221,0,34.453v91.875c0,4.232,3.424,7.656,7.656,7.656h15.313v321.563
		c0,4.232,3.425,7.656,7.656,7.656h428.75c4.232,0,7.656-3.424,7.656-7.656V133.984h15.313c4.232,0,7.656-3.424,7.656-7.656V34.453
		C490,30.221,486.576,26.797,482.344,26.797z M451.719,409.609h-30.625c-4.232,0-7.656,3.424-7.656,7.656s3.424,7.656,7.656,7.656
		h30.625v22.969h-94.798H233.268H38.281v-22.969h30.625c4.232,0,7.656-3.424,7.656-7.656s-3.424-7.656-7.656-7.656H38.281V133.984
		h194.987h123.653h94.798L451.719,409.609L451.719,409.609z M474.688,118.672h-94.352H250.895H15.313V42.109h235.583h129.441h94.352
		L474.688,118.672L474.688,118.672z"/>
	<path d="M352.188,202.891c0-25.331-20.606-45.938-45.938-45.938h-72.982H183.75c-25.331,0-45.938,20.606-45.938,45.938
		s20.606,45.938,45.938,45.938h49.518h72.982C331.582,248.828,352.188,228.222,352.188,202.891z M153.125,202.891
		c0-16.89,13.735-30.625,30.625-30.625h122.5c16.89,0,30.625,13.735,30.625,30.625s-13.735,30.625-30.625,30.625h-122.5
		C166.86,233.516,153.125,219.781,153.125,202.891z"/>
	<path style="fill:#FFFFFF;" d="M114.844,409.609c-4.232,0-7.656,3.424-7.656,7.656s3.424,7.656,7.656,7.656h118.424h123.653h18.235
		c4.232,0,7.656-3.424,7.656-7.656s-3.424-7.656-7.656-7.656h-18.235H233.268H114.844z"/>
	<path d="M237.344,378.984v-30.625h53.594c4.232,0,7.656-3.424,7.656-7.656v-61.25c0-4.232-3.424-7.656-7.656-7.656h-57.67H183.75
		c-4.232,0-7.656,3.424-7.656,7.656v30.625H99.531c-4.232,0-7.656,3.424-7.656,7.656v61.25c0,4.232,3.424,7.656,7.656,7.656h130.156
		c1.295,0,2.512-0.323,3.58-0.889C235.692,384.467,237.344,381.922,237.344,378.984z M107.188,325.391h38.824h45.395h30.625v45.938
		h-30.625h-45.395h-38.824V325.391z M191.406,310.078v-22.969h56.307h35.567v45.938h-35.567h-10.37v-15.313
		c0-4.232-3.424-7.656-7.656-7.656H191.406z"/>
</g>
<g>
</g>
<g>
</g>
<g>
</g>
<g>
</g>
<g>
</g>
<g>
</g>
<g>
</g>
<g>
</g>
<g>
</g>
<g>
</g>
<g>
</g>
<g>
</g>
<g>
</g>
<g>
</g>
<g>
</g>
</svg>
