<?xml version="1.0" encoding="iso-8859-1"?>
<!-- Generator: Adobe Illustrator 19.0.0, SVG Export Plug-In . SVG Version: 6.00 Build 0)  -->
<svg version="1.1" id="Layer_1" xmlns="http://www.w3.org/2000/svg" xmlns:xlink="http://www.w3.org/1999/xlink" x="0px" y="0px"
	 viewBox="0 0 512 512" style="enable-background:new 0 0 512 512;" xml:space="preserve">
<path style="fill:#F1F4FB;" d="M370.759,459.034H70.62c-9.751,0-17.655-7.904-17.655-17.655V17.655C52.965,7.904,60.869,0,70.62,0
	h229.518l88.276,88.276v353.102C388.414,451.129,380.51,459.034,370.759,459.034z"/>
<path style="fill:#E4EAF6;" d="M238.345,211.861c-24.376,0-44.138,19.762-44.138,44.138v203.035h176.552
	c9.751,0,17.655-7.904,17.655-17.655V211.861H238.345z"/>
<path style="fill:#D5DCED;" d="M300.138,0v61.793c0,14.626,11.857,26.483,26.483,26.483h61.793L300.138,0z"/>
<path style="fill:#9BF57D;" d="M132.414,90.927V63.329c5.421,1.98,8.828,5.574,8.828,8.946c0,4.879,3.948,8.828,8.828,8.828
	s8.828-3.948,8.828-8.828c0-13.323-11.115-24.119-26.483-27.182v-0.956c0-4.879-3.948-8.828-8.828-8.828
	c-4.879,0-8.828,3.948-8.828,8.828v0.956c-15.368,3.063-26.483,13.859-26.483,27.182c0,18.628,14.641,26.474,26.483,31.003v27.598
	c-5.421-1.98-8.828-5.574-8.828-8.946c0-4.879-3.948-8.828-8.828-8.828s-8.828,3.948-8.828,8.828
	c0,13.323,11.115,24.119,26.483,27.182v0.956c0,4.879,3.948,8.828,8.828,8.828c4.879,0,8.828-3.948,8.828-8.828v-0.956
	c15.368-3.063,26.483-13.859,26.483-27.182C158.896,103.302,144.256,95.455,132.414,90.927z M105.931,72.275
	c0-3.372,3.406-6.966,8.828-8.946v20.598C107.544,80.195,105.931,76.877,105.931,72.275z M132.414,130.875v-20.597
	c7.214,3.731,8.828,7.049,8.828,11.652C141.241,125.302,137.835,128.895,132.414,130.875z"/>
<path style="fill:#AFB9D2;" d="M256,70.62h-70.621c-4.879,0-8.828-3.948-8.828-8.828s3.948-8.828,8.828-8.828H256
	c4.879,0,8.828,3.948,8.828,8.828S260.879,70.62,256,70.62z"/>
<path style="fill:#C7CFE2;" d="M194.207,141.241h-8.828c-4.879,0-8.828-3.948-8.828-8.828s3.948-8.828,8.828-8.828h8.828
	c4.879,0,8.828,3.948,8.828,8.828S199.086,141.241,194.207,141.241z"/>
<path style="fill:#9BF57D;" d="M344.276,203.034H97.103c-4.879,0-8.828-3.948-8.828-8.828s3.948-8.828,8.828-8.828h247.173
	c4.879,0,8.828,3.948,8.828,8.828S349.156,203.034,344.276,203.034z"/>
<path style="fill:#D5DCED;" d="M176.552,255.999h-26.483c-4.879,0-8.828-3.948-8.828-8.828s3.948-8.828,8.828-8.828h26.483
	c4.879,0,8.828,3.948,8.828,8.828S181.431,255.999,176.552,255.999z"/>
<path style="fill:#C7CFE2;" d="M114.758,255.999H97.103c-4.879,0-8.828-3.948-8.828-8.828s3.948-8.828,8.828-8.828h17.655
	c4.879,0,8.828,3.948,8.828,8.828S119.638,255.999,114.758,255.999z"/>
<path style="fill:#D5DCED;" d="M176.552,291.31h-26.483c-4.879,0-8.828-3.948-8.828-8.828s3.948-8.828,8.828-8.828h26.483
	c4.879,0,8.828,3.948,8.828,8.828S181.431,291.31,176.552,291.31z"/>
<path style="fill:#C7CFE2;" d="M114.758,291.31H97.103c-4.879,0-8.828-3.948-8.828-8.828s3.948-8.828,8.828-8.828h17.655
	c4.879,0,8.828,3.948,8.828,8.828S119.638,291.31,114.758,291.31z"/>
<path style="fill:#D5DCED;" d="M176.552,326.62h-26.483c-4.879,0-8.828-3.948-8.828-8.828s3.948-8.828,8.828-8.828h26.483
	c4.879,0,8.828,3.948,8.828,8.828S181.431,326.62,176.552,326.62z"/>
<path style="fill:#C7CFE2;" d="M114.758,326.62H97.103c-4.879,0-8.828-3.948-8.828-8.828s3.948-8.828,8.828-8.828h17.655
	c4.879,0,8.828,3.948,8.828,8.828S119.638,326.62,114.758,326.62z"/>
<path style="fill:#D5DCED;" d="M176.552,361.931h-26.483c-4.879,0-8.828-3.948-8.828-8.828s3.948-8.828,8.828-8.828h26.483
	c4.879,0,8.828,3.948,8.828,8.828S181.431,361.931,176.552,361.931z"/>
<path style="fill:#C7CFE2;" d="M114.758,361.931H97.103c-4.879,0-8.828-3.948-8.828-8.828s3.948-8.828,8.828-8.828h17.655
	c4.879,0,8.828,3.948,8.828,8.828S119.638,361.931,114.758,361.931z"/>
<path style="fill:#D5DCED;" d="M176.552,397.241h-26.483c-4.879,0-8.828-3.948-8.828-8.828s3.948-8.828,8.828-8.828h26.483
	c4.879,0,8.828,3.948,8.828,8.828S181.431,397.241,176.552,397.241z"/>
<g>
	<path style="fill:#C7CFE2;" d="M114.758,397.241H97.103c-4.879,0-8.828-3.948-8.828-8.828s3.948-8.828,8.828-8.828h17.655
		c4.879,0,8.828,3.948,8.828,8.828S119.638,397.241,114.758,397.241z"/>
	<path style="fill:#C7CFE2;" d="M282.483,141.241h-8.828c-4.879,0-8.828-3.948-8.828-8.828s3.948-8.828,8.828-8.828h8.828
		c4.879,0,8.828,3.948,8.828,8.828S287.362,141.241,282.483,141.241z"/>
	<path style="fill:#C7CFE2;" d="M326.621,141.241h-8.828c-4.879,0-8.828-3.948-8.828-8.828s3.948-8.828,8.828-8.828h8.828
		c4.879,0,8.828,3.948,8.828,8.828S331.5,141.241,326.621,141.241z"/>
	<path style="fill:#C7CFE2;" d="M238.345,141.241h-8.828c-4.879,0-8.828-3.948-8.828-8.828s3.948-8.828,8.828-8.828h8.828
		c4.879,0,8.828,3.948,8.828,8.828S243.224,141.241,238.345,141.241z"/>
</g>
<g>
	<path style="fill:#AFB9D2;" d="M273.655,105.93h-88.276c-4.879,0-8.828-3.948-8.828-8.828s3.948-8.828,8.828-8.828h88.276
		c4.879,0,8.828,3.948,8.828,8.828S278.535,105.93,273.655,105.93z"/>
	<path style="fill:#AFB9D2;" d="M238.345,512h194.207c14.626,0,26.483-11.857,26.483-26.483V255.999
		c0-14.626-11.857-26.483-26.483-26.483H238.345c-14.626,0-26.483,11.857-26.483,26.483v229.518
		C211.862,500.142,223.719,512,238.345,512z"/>
</g>
<path style="fill:#00C3FF;" d="M414.897,317.793H256c-4.875,0-8.828-3.953-8.828-8.828v-35.31c0-4.875,3.953-8.828,8.828-8.828
	h158.897c4.875,0,8.828,3.953,8.828,8.828v35.31C423.724,313.84,419.773,317.793,414.897,317.793z"/>
<path style="fill:#65687A;" d="M273.655,397.241H256c-4.875,0-8.828-3.953-8.828-8.828v-17.655c0-4.875,3.953-8.828,8.828-8.828
	h17.655c4.875,0,8.828,3.953,8.828,8.828v17.655C282.483,393.289,278.531,397.241,273.655,397.241z"/>
<path style="fill:#7DFAA0;" d="M414.897,397.241h-17.655c-4.875,0-8.828-3.953-8.828-8.828v-17.655c0-4.875,3.953-8.828,8.828-8.828
	h17.655c4.875,0,8.828,3.953,8.828,8.828v17.655C423.724,393.289,419.773,397.241,414.897,397.241z"/>
<g>
	<path style="fill:#65687A;" d="M344.276,397.241h-17.655c-4.875,0-8.828-3.953-8.828-8.828v-17.655
		c0-4.875,3.953-8.828,8.828-8.828h17.655c4.875,0,8.828,3.953,8.828,8.828v17.655C353.104,393.289,349.152,397.241,344.276,397.241
		z"/>
	<path style="fill:#65687A;" d="M273.655,467.862H256c-4.875,0-8.828-3.953-8.828-8.828v-17.655c0-4.875,3.953-8.828,8.828-8.828
		h17.655c4.875,0,8.828,3.953,8.828,8.828v17.655C282.483,463.909,278.531,467.862,273.655,467.862z"/>
</g>
<path style="fill:#FFDC64;" d="M414.897,467.862h-17.655c-4.875,0-8.828-3.953-8.828-8.828v-17.655c0-4.875,3.953-8.828,8.828-8.828
	h17.655c4.875,0,8.828,3.953,8.828,8.828v17.655C423.724,463.909,419.773,467.862,414.897,467.862z"/>
<path style="fill:#65687A;" d="M344.276,467.862h-17.655c-4.875,0-8.828-3.953-8.828-8.828v-17.655c0-4.875,3.953-8.828,8.828-8.828
	h17.655c4.875,0,8.828,3.953,8.828,8.828v17.655C353.104,463.909,349.152,467.862,344.276,467.862z"/>
<path style="fill:#00AAF0;" d="M414.897,264.827H256c-4.875,0-8.828,3.953-8.828,8.828v17.655c0-4.875,3.953-8.828,8.828-8.828
	h158.897c4.875,0,8.828,3.953,8.828,8.828v-17.655C423.724,268.779,419.773,264.827,414.897,264.827z"/>
<g>
</g>
<g>
</g>
<g>
</g>
<g>
</g>
<g>
</g>
<g>
</g>
<g>
</g>
<g>
</g>
<g>
</g>
<g>
</g>
<g>
</g>
<g>
</g>
<g>
</g>
<g>
</g>
<g>
</g>
</svg>
