<?xml version="1.0" encoding="iso-8859-1"?>
<!-- Generator: Adobe Illustrator 19.0.0, SVG Export Plug-In . SVG Version: 6.00 Build 0)  -->
<svg version="1.1" id="Layer_1" xmlns="http://www.w3.org/2000/svg" xmlns:xlink="http://www.w3.org/1999/xlink" x="0px" y="0px"
	 viewBox="0 0 504.32 504.32" style="enable-background:new 0 0 504.32 504.32;" xml:space="preserve">
<g transform="translate(1 1)">
	<path style="fill:#50DD8E;" d="M429.933,89.048v34.133H37.4l307.2-58.88l51.2-9.387C395.8,54.914,429.933,47.234,429.933,89.048z
		 M464.067,208.514v204.8c-28.16,0-51.2,23.04-51.2,51.2H3.267v-57.173c11.093,3.413,22.187,5.973,34.133,5.973
		c56.32,0,102.4-46.08,102.4-102.4s-46.08-102.4-102.4-102.4c-11.947,0-23.893,2.56-34.133,5.973v-57.173h409.6
		C412.867,185.474,435.907,208.514,464.067,208.514z"/>
	<path style="fill:#E4F2DE;" d="M498.2,157.314v307.2c0,18.773-15.36,34.133-34.133,34.133H37.4
		c-18.773,0-34.133-15.36-34.133-34.133h409.6c0-28.16,23.04-51.2,51.2-51.2v-204.8c-28.16,0-51.2-23.04-51.2-51.2H3.267v-34.133
		c0-18.773,16.213-33.28,34.133-38.4l256-76.8c0,0,51.2-20.48,51.2,29.867v25.6v0.853l-307.2,58.88h392.533h34.133
		C482.84,123.181,498.2,138.541,498.2,157.314z M37.4,208.514c56.32,0,102.4,46.08,102.4,102.4s-46.08,102.4-102.4,102.4
		c-11.947,0-23.893-2.56-34.133-5.973V214.487C13.507,210.221,25.453,208.514,37.4,208.514z"/>
</g>
<path style="fill:#51565F;" d="M465.067,503.914H38.4c-21.333,0-38.4-17.067-38.4-38.4V124.181
	c0-22.187,18.773-37.547,37.547-42.667l256-76.8c0.853,0,26.453-10.24,42.667,0.853c9.387,5.973,13.653,17.067,13.653,33.28
	c0,2.56-1.707,4.267-4.267,4.267s-4.267-1.707-4.267-4.267c0-12.8-3.413-21.333-10.24-25.6c-12.8-8.533-34.987,0-34.987,0l-256,76.8
	c-15.36,4.267-30.72,16.213-30.72,34.133v341.333c0,16.213,13.653,29.867,29.867,29.867H465.92
	c16.213,0,29.867-13.653,29.867-29.867v-307.2c0-16.213-13.653-29.867-29.867-29.867H39.253c-2.56,0-4.267-1.707-4.267-4.267
	c0-2.56,1.707-4.267,3.413-4.267l358.4-68.267c0.853,0,15.36-3.413,27.307,5.973c8.533,6.827,11.947,17.067,11.947,32.427
	c0,2.56-1.707,4.267-4.267,4.267s-4.267-1.707-4.267-4.267c0-11.947-3.413-20.48-9.387-25.6c-8.533-6.827-19.627-4.267-19.627-4.267
	L84.48,119.914h381.44c21.333,0,38.4,17.067,38.4,38.4v307.2C503.467,486.848,486.4,503.914,465.067,503.914z M413.867,469.781H38.4
	c-2.56,0-4.267-1.707-4.267-4.267c0-2.56,1.707-4.267,4.267-4.267h371.2c1.707-27.307,23.893-48.64,51.2-51.2V213.781
	c-27.307-1.707-48.64-23.893-51.2-51.2H38.4c-2.56,0-4.267-1.707-4.267-4.267c0-2.56,1.707-4.267,4.267-4.267h375.467
	c2.56,0,4.267,1.707,4.267,4.267c0,25.6,21.333,46.933,46.933,46.933c2.56,0,4.267,1.707,4.267,4.267v204.8
	c0,2.56-1.707,4.267-4.267,4.267c-25.6,0-46.933,21.333-46.933,46.933C418.133,468.074,416.427,469.781,413.867,469.781z
	 M38.4,418.581c-2.56,0-4.267-1.707-4.267-4.267s1.707-4.267,4.267-4.267c53.76,0,98.133-44.373,98.133-98.133
	S92.16,213.781,38.4,213.781c-2.56,0-4.267-1.707-4.267-4.267c0-2.56,1.707-4.267,4.267-4.267
	c58.88,0,106.667,47.787,106.667,106.667S97.28,418.581,38.4,418.581z M38.4,375.914c-2.56,0-4.267-1.707-4.267-4.267v-8.533
	c0-2.56,1.707-4.267,4.267-4.267c11.947,0,21.333-9.387,21.333-21.333c0-11.947-9.387-21.333-21.333-21.333
	c-2.56,0-4.267-1.707-4.267-4.267c0-2.56,1.707-4.267,4.267-4.267c16.213,0,29.867,13.653,29.867,29.867
	c0,15.36-11.093,27.307-25.6,29.867v4.267C42.667,374.207,40.96,375.914,38.4,375.914z M345.6,350.314
	c-11.947,0-21.333-9.387-21.333-21.333v-34.133c0-11.947,9.387-21.333,21.333-21.333c11.947,0,21.333,9.387,21.333,21.333v34.133
	C366.933,340.927,357.547,350.314,345.6,350.314z M345.6,282.048c-6.827,0-12.8,5.973-12.8,12.8v34.133
	c0,6.827,5.973,12.8,12.8,12.8s12.8-5.973,12.8-12.8v-34.133C358.4,288.021,352.427,282.048,345.6,282.048z M277.333,350.314
	c-11.947,0-21.333-9.387-21.333-21.333v-34.133c0-11.947,9.387-21.333,21.333-21.333s21.333,9.387,21.333,21.333v34.133
	C298.667,340.927,289.28,350.314,277.333,350.314z M277.333,282.048c-6.827,0-12.8,5.973-12.8,12.8v34.133
	c0,6.827,5.973,12.8,12.8,12.8s12.8-5.973,12.8-12.8v-34.133C290.133,288.021,284.16,282.048,277.333,282.048z M226.133,350.314
	c-2.56,0-4.267-1.707-4.267-4.267v-58.027l-17.92,17.92c-1.707,1.707-4.267,1.707-5.973,0c-1.707-1.707-1.707-4.267,0-5.973
	l25.6-25.6c0.853-0.853,3.413-1.707,4.267-0.853c0.853,0.853,2.56,2.56,2.56,4.267v68.267
	C230.4,348.607,228.693,350.314,226.133,350.314z M64,290.581c-2.56,0-4.267-1.707-4.267-4.267c0-11.947-9.387-21.333-21.333-21.333
	c-2.56,0-4.267-1.707-4.267-4.267v-8.533c0-2.56,1.707-4.267,4.267-4.267s4.267,1.707,4.267,4.267v4.267
	c14.507,1.707,25.6,14.507,25.6,29.867C68.267,288.874,66.56,290.581,64,290.581z"/>
<g>
</g>
<g>
</g>
<g>
</g>
<g>
</g>
<g>
</g>
<g>
</g>
<g>
</g>
<g>
</g>
<g>
</g>
<g>
</g>
<g>
</g>
<g>
</g>
<g>
</g>
<g>
</g>
<g>
</g>
</svg>
