<?xml version="1.0" encoding="UTF-8" standalone="no"?>
<svg
   version="1.1"
   id="Capa_1"
   x="0px"
   y="0px"
   viewBox="0 0 58 58"
   style="enable-background:new 0 0 58 58;"
   xml:space="preserve"
   sodipodi:docname="CC_CLOSED.svg"
   inkscape:version="1.1-dev (9017afb, 2021-01-01)"
   xmlns:inkscape="http://www.inkscape.org/namespaces/inkscape"
   xmlns:sodipodi="http://sodipodi.sourceforge.net/DTD/sodipodi-0.dtd"
   xmlns="http://www.w3.org/2000/svg"
   xmlns:svg="http://www.w3.org/2000/svg"><defs
   id="defs1012" /><sodipodi:namedview
   id="namedview1010"
   pagecolor="#ffffff"
   bordercolor="#666666"
   borderopacity="1.0"
   objecttolerance="10.0"
   gridtolerance="10.0"
   guidetolerance="10.0"
   inkscape:pageshadow="2"
   inkscape:pageopacity="0.0"
   inkscape:pagecheckerboard="0"
   showgrid="false"
   inkscape:zoom="12.448276"
   inkscape:cx="28.959834"
   inkscape:cy="28.959834"
   inkscape:window-width="1296"
   inkscape:window-height="1003"
   inkscape:window-x="0"
   inkscape:window-y="25"
   inkscape:window-maximized="0"
   inkscape:current-layer="Capa_1" />
<g
   id="XMLID_69_">
	<path
   id="XMLID_115_"
   style="fill:#f0c41b"
   d="M 54.783,50 H 3.217 C 1.44,50 0,48.56 0,46.783 V 11.217 C 0,9.44 1.44,8 3.217,8 H 54.783 C 56.56,8 58,9.44 58,11.217 V 46.783 C 58,48.56 56.56,50 54.783,50" />
	<rect
   id="XMLID_114_"
   y="13"
   style="fill:#806f5e"
   width="58"
   height="8"
   x="0" />
	<path
   id="XMLID_113_"
   style="fill:#f9eab0"
   d="M 15,28 H 6 C 5.448,28 5,27.552 5,27 5,26.448 5.448,26 6,26 h 9 c 0.552,0 1,0.448 1,1 0,0.552 -0.448,1 -1,1" />
	<path
   id="XMLID_112_"
   style="fill:#f9eab0"
   d="m 28,28 h -9 c -0.552,0 -1,-0.448 -1,-1 0,-0.552 0.448,-1 1,-1 h 9 c 0.552,0 1,0.448 1,1 0,0.552 -0.448,1 -1,1" />
	<path
   id="XMLID_111_"
   style="fill:#f9eab0"
   d="M 7,33 H 6 C 5.448,33 5,32.552 5,32 5,31.448 5.448,31 6,31 h 1 c 0.552,0 1,0.448 1,1 0,0.552 -0.448,1 -1,1" />
	<path
   id="XMLID_110_"
   style="fill:#f9eab0"
   d="m 13,33 h -2 c -0.552,0 -1,-0.448 -1,-1 0,-0.552 0.448,-1 1,-1 h 2 c 0.552,0 1,0.448 1,1 0,0.552 -0.448,1 -1,1" />
	<path
   id="XMLID_109_"
   style="fill:#f9eab0"
   d="m 18,33 h -1 c -0.552,0 -1,-0.448 -1,-1 0,-0.552 0.448,-1 1,-1 h 1 c 0.552,0 1,0.448 1,1 0,0.552 -0.448,1 -1,1" />
	<path
   id="XMLID_108_"
   style="fill:#f9eab0"
   d="m 24,33 h -2 c -0.552,0 -1,-0.448 -1,-1 0,-0.552 0.448,-1 1,-1 h 2 c 0.552,0 1,0.448 1,1 0,0.552 -0.448,1 -1,1" />
	<path
   id="XMLID_107_"
   style="fill:#f9eab0"
   d="M 28,33 C 27.74,33 27.48,32.89 27.29,32.71 27.11,32.52 27,32.27 27,32 c 0,-0.26 0.11,-0.52 0.29,-0.71 0.37,-0.37 1.04,-0.37 1.42,0 0.18,0.19 0.29,0.45 0.29,0.71 0,0.26 -0.11,0.52 -0.29,0.71 C 28.52,32.89 28.26,33 28,33" />
	<path
   id="XMLID_106_"
   style="fill:#db2215"
   d="m 46,39 c 0,3.314 -2.686,6 -6,6 -3.314,0 -6,-2.686 -6,-6 0,-3.314 2.686,-6 6,-6 3.314,0 6,2.686 6,6" />
	<path
   id="XMLID_105_"
   style="fill:#245ea9"
   d="m 53,39 c 0,3.314 -2.686,6 -6,6 -3.314,0 -6,-2.686 -6,-6 0,-3.314 2.686,-6 6,-6 3.314,0 6,2.686 6,6" />
</g>
<g
   id="g979">
</g>
<g
   id="g981">
</g>
<g
   id="g983">
</g>
<g
   id="g985">
</g>
<g
   id="g987">
</g>
<g
   id="g989">
</g>
<g
   id="g991">
</g>
<g
   id="g993">
</g>
<g
   id="g995">
</g>
<g
   id="g997">
</g>
<g
   id="g999">
</g>
<g
   id="g1001">
</g>
<g
   id="g1003">
</g>
<g
   id="g1005">
</g>
<g
   id="g1007">
</g>
<path
   style="fill:none;stroke:#fc0000;stroke-width:2;stroke-linecap:butt;stroke-linejoin:miter;stroke-opacity:1;stroke-miterlimit:4;stroke-dasharray:none"
   d="M 51.091413,5.3822715 7.3102493,52.617729"
   id="path1214" /><path
   style="fill:none;stroke:#fc0000;stroke-width:2;stroke-linecap:butt;stroke-linejoin:miter;stroke-miterlimit:4;stroke-dasharray:none;stroke-opacity:1"
   d="M 5.583102,7.109419 52.818559,50.890582"
   id="path1214-0" /></svg>
