<?xml version="1.0" encoding="iso-8859-1"?>
<!-- Generator: Adobe Illustrator 19.0.0, SVG Export Plug-In . SVG Version: 6.00 Build 0)  -->
<svg version="1.1" id="Capa_1" xmlns="http://www.w3.org/2000/svg" xmlns:xlink="http://www.w3.org/1999/xlink" x="0px" y="0px"
	 viewBox="0 0 58 58" style="enable-background:new 0 0 58 58;" xml:space="preserve">
<g id="XMLID_69_">
	<path id="XMLID_115_" style="fill:#F0C41B;" d="M54.783,50H3.217C1.44,50,0,48.56,0,46.783V11.217C0,9.44,1.44,8,3.217,8h51.566
		C56.56,8,58,9.44,58,11.217v35.566C58,48.56,56.56,50,54.783,50"/>
	<rect id="XMLID_114_" y="13" style="fill:#806F5E;" width="58" height="8"/>
	<path id="XMLID_113_" style="fill:#F9EAB0;" d="M15,28H6c-0.552,0-1-0.448-1-1s0.448-1,1-1h9c0.552,0,1,0.448,1,1S15.552,28,15,28"
		/>
	<path id="XMLID_112_" style="fill:#F9EAB0;" d="M28,28h-9c-0.552,0-1-0.448-1-1s0.448-1,1-1h9c0.552,0,1,0.448,1,1S28.552,28,28,28
		"/>
	<path id="XMLID_111_" style="fill:#F9EAB0;" d="M7,33H6c-0.552,0-1-0.448-1-1s0.448-1,1-1h1c0.552,0,1,0.448,1,1S7.552,33,7,33"/>
	<path id="XMLID_110_" style="fill:#F9EAB0;" d="M13,33h-2c-0.552,0-1-0.448-1-1s0.448-1,1-1h2c0.552,0,1,0.448,1,1S13.552,33,13,33
		"/>
	<path id="XMLID_109_" style="fill:#F9EAB0;" d="M18,33h-1c-0.552,0-1-0.448-1-1s0.448-1,1-1h1c0.552,0,1,0.448,1,1S18.552,33,18,33
		"/>
	<path id="XMLID_108_" style="fill:#F9EAB0;" d="M24,33h-2c-0.552,0-1-0.448-1-1s0.448-1,1-1h2c0.552,0,1,0.448,1,1S24.552,33,24,33
		"/>
	<path id="XMLID_107_" style="fill:#F9EAB0;" d="M28,33c-0.26,0-0.52-0.11-0.71-0.29C27.11,32.52,27,32.27,27,32
		c0-0.26,0.11-0.52,0.29-0.71c0.37-0.37,1.04-0.37,1.42,0C28.89,31.48,29,31.74,29,32s-0.11,0.52-0.29,0.71
		C28.52,32.89,28.26,33,28,33"/>
	<path id="XMLID_106_" style="fill:#DB2215;" d="M46,39c0,3.314-2.686,6-6,6s-6-2.686-6-6s2.686-6,6-6S46,35.686,46,39"/>
	<path id="XMLID_105_" style="fill:#245EA9;" d="M53,39c0,3.314-2.686,6-6,6s-6-2.686-6-6s2.686-6,6-6S53,35.686,53,39"/>
</g>
<g>
</g>
<g>
</g>
<g>
</g>
<g>
</g>
<g>
</g>
<g>
</g>
<g>
</g>
<g>
</g>
<g>
</g>
<g>
</g>
<g>
</g>
<g>
</g>
<g>
</g>
<g>
</g>
<g>
</g>
</svg>
