<?xml version="1.0" encoding="iso-8859-1"?>
<!-- Generator: Adobe Illustrator 19.0.0, SVG Export Plug-In . SVG Version: 6.00 Build 0)  -->
<svg version="1.1" id="Layer_1" xmlns="http://www.w3.org/2000/svg" xmlns:xlink="http://www.w3.org/1999/xlink" x="0px" y="0px"
	 viewBox="0 0 297.001 297.001" style="enable-background:new 0 0 297.001 297.001;" xml:space="preserve">
<g>
	<g>
		<g>
			<g>
				<circle style="fill:#79302A;" cx="148.5" cy="148.5" r="148.5"/>
			</g>
		</g>
	</g>
	<path style="fill:#63211E;" d="M244.128,117.086L85.322,240.454l56.342,56.384c2.267,0.103,4.544,0.163,6.837,0.163
		c75.197,0,137.329-55.894,147.141-128.401L244.128,117.086z"/>
	<path style="fill:#FFCD02;" d="M248.361,124.232c-2.17-6.678-7.803-11.645-14.699-12.963l-45.808-8.757l-22.482-40.858
		c-3.386-6.152-9.851-9.975-16.872-9.975c-7.022,0-13.487,3.822-16.872,9.975l-22.482,40.858l-45.807,8.757
		c-6.897,1.318-12.53,6.285-14.7,12.963c-2.17,6.679-0.533,14.008,4.271,19.13l31.911,34.009l-5.827,46.272
		c-0.877,6.966,2.108,13.857,7.789,17.984c5.681,4.129,13.158,4.835,19.511,1.849l42.206-19.841l42.206,19.841
		c2.608,1.227,5.405,1.829,8.19,1.829c3.998,0,7.972-1.245,11.32-3.678c5.681-4.127,8.666-11.019,7.789-17.986l-5.828-46.271
		l31.912-34.01C248.895,138.24,250.531,130.911,248.361,124.232z"/>
</g>
<g>
</g>
<g>
</g>
<g>
</g>
<g>
</g>
<g>
</g>
<g>
</g>
<g>
</g>
<g>
</g>
<g>
</g>
<g>
</g>
<g>
</g>
<g>
</g>
<g>
</g>
<g>
</g>
<g>
</g>
</svg>
