<?xml version="1.0" encoding="UTF-8" standalone="no"?>
<svg
   version="1.1"
   id="Layer_1"
   x="0px"
   y="0px"
   viewBox="0 0 512 512"
   style="enable-background:new 0 0 512 512;"
   xml:space="preserve"
   sodipodi:docname="LOAN_ACC_CLOSED.svg"
   inkscape:version="1.1-dev (9017afb, 2021-01-01)"
   xmlns:inkscape="http://www.inkscape.org/namespaces/inkscape"
   xmlns:sodipodi="http://sodipodi.sourceforge.net/DTD/sodipodi-0.dtd"
   xmlns="http://www.w3.org/2000/svg"
   xmlns:svg="http://www.w3.org/2000/svg"><defs
   id="defs1729" /><sodipodi:namedview
   id="namedview1727"
   pagecolor="#ffffff"
   bordercolor="#666666"
   borderopacity="1.0"
   objecttolerance="10.0"
   gridtolerance="10.0"
   guidetolerance="10.0"
   inkscape:pageshadow="2"
   inkscape:pageopacity="0.0"
   inkscape:pagecheckerboard="0"
   showgrid="false"
   inkscape:zoom="1.4101562"
   inkscape:cx="255.64543"
   inkscape:cy="255.64543"
   inkscape:window-width="1296"
   inkscape:window-height="1003"
   inkscape:window-x="551"
   inkscape:window-y="118"
   inkscape:window-maximized="0"
   inkscape:current-layer="Layer_1" />
<g
   id="g1694">
	<g
   id="g1674">
		<g
   id="g1672">
			<path
   style="fill:#50A5DC;"
   d="M10,11v271.681h101.374V171.239c0-32.51,26.355-58.865,58.865-58.865h111.442V11H10z"
   id="path1666" />
			<path
   style="fill:#FCE600;"
   d="M324.19,112.374h-42.508H170.239c-32.51,0-58.865,26.355-58.865,58.865v111.442v42.508     c0,32.51,26.355,58.865,58.865,58.865h59.851c-0.739-5.753-1.123-11.617-1.123-17.571c0-31.59,10.734-60.67,28.748-83.802     c6.966-8.945,15.021-17,23.966-23.966c23.132-18.014,52.212-28.748,83.802-28.748c5.954,0,11.818,0.383,17.571,1.123v-59.851     C383.055,138.729,356.7,112.374,324.19,112.374z"
   id="path1668" />
			<path
   style="fill:#50A5DC;"
   d="M383.055,231.09c-5.753-0.739-11.617-1.123-17.571-1.123c-31.59,0-60.67,10.734-83.802,28.748     c-8.945,6.966-17,15.021-23.966,23.966c-18.014,23.132-28.748,52.212-28.748,83.802c0,5.954,0.383,11.818,1.123,17.571     C238.712,451.151,296.042,503,365.484,503C440.88,503,502,441.879,502,366.484C502,297.042,450.151,239.712,383.055,231.09z"
   id="path1670" />
		</g>
	</g>
	<path
   d="M163.412,244.648c-5.523,0-10,4.477-10,10v45.957c0,5.523,4.477,10,10,10s10-4.477,10-10v-45.957   C173.412,249.125,168.935,244.648,163.412,244.648z"
   id="path1676" />
	<path
   d="M163.412,209.907c-5.523,0-10-4.477-10-10c0-25.637,20.857-46.495,46.495-46.495h45.28c5.523,0,10,4.477,10,10   s-4.477,10-10,10h-45.28c-14.609,0-26.495,11.885-26.495,26.495C173.412,205.43,168.935,209.907,163.412,209.907z"
   id="path1678" />
	<path
   d="M149.22,71.363h-12.165c-5.523,0-10-4.477-10-10s4.477-10,10-10h12.165c5.523,0,10,4.477,10,10   S154.743,71.363,149.22,71.363z"
   id="path1680" />
	<path
   d="M92.45,71.363H62.714c-5.523,0-10-4.477-10-10s4.477-10,10-10H92.45c5.523,0,10,4.477,10,10S97.973,71.363,92.45,71.363z"
   id="path1682" />
	<g
   id="g1686">
		<path
   d="M393.055,221.58v-51.341c0-37.973-30.893-68.865-68.866-68.865h-32.508V10c0-5.523-4.477-10-10-10H10    C4.477,0,0,4.477,0,10v271.681c0,5.523,4.477,10,10,10h91.374v32.508c0,37.973,30.893,68.866,68.865,68.866h51.341    C234.516,460.708,294.117,512,365.483,512C446.273,512,512,446.273,512,365.483C512,294.117,460.708,234.516,393.055,221.58z     M101.374,271.681H20V20h251.681v81.374H170.239c-37.973,0-68.865,30.893-68.865,68.865V271.681z M218.967,365.483    c0,2.539,0.065,5.064,0.194,7.572h-48.922c-26.944,0-48.865-21.921-48.865-48.866v-32.508v-20V170.239    c0-26.944,21.921-48.865,48.865-48.865h101.442h20h32.508c26.945,0,48.866,21.921,48.866,48.865v48.922    c-2.508-0.128-5.032-0.194-7.572-0.194C285.748,218.967,218.967,285.746,218.967,365.483z M365.483,492    c-60.294,0-110.864-42.399-123.482-98.945c-1.449-6.495-2.397-13.175-2.802-20c-0.149-2.506-0.233-5.029-0.233-7.572    c0-68.843,57.673-126.517,126.517-126.517c2.543,0,5.066,0.084,7.572,0.233c6.825,0.405,13.505,1.352,20,2.802    C449.601,254.619,492,305.19,492,365.483C492,435.245,435.245,492,365.483,492z"
   id="path1684" />
	</g>
	<path
   d="M438.996,305.063c-11.759-14.292-27.257-24.78-44.818-30.328c-5.27-1.665-10.884,1.257-12.548,6.523   c-1.664,5.267,1.257,10.884,6.523,12.548c13.863,4.379,26.104,12.666,35.399,23.964c1.977,2.403,4.841,3.647,7.728,3.647   c2.236,0,4.486-0.747,6.348-2.278C441.892,315.63,442.505,309.328,438.996,305.063z"
   id="path1688" />
	<g
   id="g1692">
		<path
   d="M280,375c-5.523,0-10-4.477-10-10c0-40.99,26.101-77.261,64.949-90.257c5.237-1.75,10.904,1.073,12.656,6.311    c1.752,5.237-1.073,10.904-6.311,12.656C310.613,303.974,290,332.623,290,365C290,370.523,285.523,375,280,375z"
   id="path1690" />
	</g>
</g>
<g
   id="g1696">
</g>
<g
   id="g1698">
</g>
<g
   id="g1700">
</g>
<g
   id="g1702">
</g>
<g
   id="g1704">
</g>
<g
   id="g1706">
</g>
<g
   id="g1708">
</g>
<g
   id="g1710">
</g>
<g
   id="g1712">
</g>
<g
   id="g1714">
</g>
<g
   id="g1716">
</g>
<g
   id="g1718">
</g>
<g
   id="g1720">
</g>
<g
   id="g1722">
</g>
<g
   id="g1724">
</g>
<path
   style="fill:none;stroke:#fc0000;stroke-width:18.8714;stroke-linecap:butt;stroke-linejoin:miter;stroke-miterlimit:4;stroke-dasharray:none;stroke-opacity:1"
   d="M 50.69498,35.914254 466.97814,478.21318"
   id="path1214-0" /><path
   style="fill:none;stroke:#fc0000;stroke-width:18.8714;stroke-linecap:butt;stroke-linejoin:miter;stroke-miterlimit:4;stroke-dasharray:none;stroke-opacity:1"
   d="M 479.98602,48.922135 37.687095,465.20529"
   id="path1214-0-5" /></svg>
