<?xml version="1.0" encoding="iso-8859-1"?>
<!-- Generator: Adobe Illustrator 19.0.0, SVG Export Plug-In . SVG Version: 6.00 Build 0)  -->
<svg version="1.1" id="Layer_1" xmlns="http://www.w3.org/2000/svg" xmlns:xlink="http://www.w3.org/1999/xlink" x="0px" y="0px"
	 viewBox="0 0 501.551 501.551" style="enable-background:new 0 0 501.551 501.551;" xml:space="preserve">
<path style="fill:#F2F2F2;" d="M384.454,0H22.919C11.425,0,2.021,9.404,2.021,20.898v459.755c0,11.494,9.404,20.898,20.898,20.898
	h361.535c11.494,0,20.898-9.404,20.898-20.898V20.898C405.352,9.404,395.948,0,384.454,0z"/>
<g>
	<rect x="40.682" y="73.143" style="fill:#4CDBC4;" width="316.604" height="26.122"/>
	<rect x="40.682" y="153.6" style="fill:#4CDBC4;" width="285.257" height="26.122"/>
	<rect x="40.682" y="238.237" style="fill:#4CDBC4;" width="212.114" height="26.122"/>
	<rect x="40.682" y="318.694" style="fill:#4CDBC4;" width="153.6" height="26.122"/>
	<rect x="40.682" y="402.286" style="fill:#4CDBC4;" width="92.996" height="26.122"/>
</g>
<polygon style="fill:#FFD15C;" points="354.152,341.682 291.458,404.376 207.866,421.094 153.531,431.543 163.98,377.208 
	180.699,293.616 243.393,231.967 "/>
<polygon style="fill:#FF7058;" points="301.907,338.547 236.078,348.996 246.527,283.167 384.454,145.241 439.833,200.62 "/>
<g>
	<polygon style="fill:#F1543F;" points="468.046,227.788 291.458,404.376 301.907,338.547 439.833,200.62 	"/>
	<polygon style="fill:#F1543F;" points="384.454,145.241 246.527,283.167 180.699,293.616 357.287,117.029 	"/>
</g>
<g>
	<polygon style="fill:#40596B;" points="207.866,421.094 153.531,431.543 163.98,377.208 	"/>
	<path style="fill:#40596B;" d="M493.123,172.408l-80.457-80.457c-8.359-8.359-20.898-8.359-29.257,0l-25.078,25.078
		l110.759,110.759l25.078-25.078C501.482,194.351,501.482,180.767,493.123,172.408z"/>
</g>
<g>
</g>
<g>
</g>
<g>
</g>
<g>
</g>
<g>
</g>
<g>
</g>
<g>
</g>
<g>
</g>
<g>
</g>
<g>
</g>
<g>
</g>
<g>
</g>
<g>
</g>
<g>
</g>
<g>
</g>
</svg>
