<?xml version="1.0" encoding="iso-8859-1"?>
<!-- Generator: Adobe Illustrator 19.0.0, SVG Export Plug-In . SVG Version: 6.00 Build 0)  -->
<svg version="1.1" id="Layer_1" xmlns="http://www.w3.org/2000/svg" xmlns:xlink="http://www.w3.org/1999/xlink" x="0px" y="0px"
	 viewBox="0 0 392.541 392.541" style="enable-background:new 0 0 392.541 392.541;" xml:space="preserve">
<path style="fill:#FFFFFF;" d="M219.345,344.911V190.988c0-2.909,1.164-5.689,3.232-7.758L367.386,39.586
	c3.814-3.814,3.426-7.434,2.392-9.891c-1.487-3.62-6.012-7.887-13.834-7.887H36.137c-7.822,0-12.347,4.267-13.834,7.887
	c-1.034,2.392-1.422,6.077,2.392,9.891L169.503,183.23c2.069,2.004,3.232,4.848,3.232,7.758v174.093L219.345,344.911z"/>
<path style="fill:#56ACE0;" d="M59.733,43.594L91.41,75.012c0.065,0,0.259,0,0.323,0h97.228c6.012,0,10.925,4.848,10.925,10.925
	c0,6.012-4.848,10.925-10.925,10.925h-75.636l22.044,21.786h31.741c6.012,0,10.925,4.848,10.925,10.925
	c0,6.012-4.848,10.925-10.925,10.925h-9.826l38.853,38.335l136.21-135.176L59.733,43.594L59.733,43.594z"/>
<path style="fill:#194F82;" d="M356.008,0.022H36.137c-30.578,0-47.968,33.487-26.828,55.079l141.705,140.412v186.053
	c0.065,7.111,7.564,13.382,15.192,10.02l68.396-29.543c4.008-1.681,6.594-5.624,6.594-10.02V195.513l141.64-140.412
	C404.234,33.767,388.008,0.022,356.008,0.022z M367.45,39.586L222.642,183.23c-2.069,2.004-3.232,4.848-3.232,7.758v153.923
	l-46.61,20.105V190.988c0-2.909-1.164-5.689-3.232-7.758L24.759,39.586c-8.339-8.792,1.099-18.295,11.442-17.778h319.806
	C367.45,21.485,375.337,32.41,367.45,39.586z"/>
<g>
</g>
<g>
</g>
<g>
</g>
<g>
</g>
<g>
</g>
<g>
</g>
<g>
</g>
<g>
</g>
<g>
</g>
<g>
</g>
<g>
</g>
<g>
</g>
<g>
</g>
<g>
</g>
<g>
</g>
</svg>
