<?xml version="1.0" encoding="iso-8859-1"?>
<!-- Generator: Adobe Illustrator 19.0.0, SVG Export Plug-In . SVG Version: 6.00 Build 0)  -->
<svg version="1.1" id="Layer_1" xmlns="http://www.w3.org/2000/svg" xmlns:xlink="http://www.w3.org/1999/xlink" x="0px" y="0px"
	 viewBox="0 0 512 512" style="enable-background:new 0 0 512 512;" xml:space="preserve">
<path style="fill:#FFDA44;" d="M0,256.16c0,38.425,8.628,76.299,25.074,110.656l211.446-122.08l-0.038-244.04
	C104.383,10.804,0,121.518,0,256.16z"/>
<path style="fill:#FF9811;" d="M467.544,400.348L256.001,277.973L44.456,399.865c22.089,32.411,51.324,59.378,85.424,78.64
	c38.523,21.759,82.271,33.259,126.513,33.259c44.694,0,88.905-11.886,127.855-34.373
	C417.526,458.179,446.012,431.768,467.544,400.348z"/>
<path style="fill:#D80027;" d="M383.778,33.896c-33.438-19.304-70.753-30.796-108.92-33.661l0.038,244.503l211.652,122.196
	c26.706-55.259,32.659-117.567,16.612-177.458C485.445,123.369,443.048,68.116,383.778,33.896z"/>
<path style="fill:#FF5023;" d="M256.001,277.973v233.785c0.132,0,0.262,0.006,0.394,0.006c44.694,0,88.905-11.886,127.855-34.373
	c33.277-19.212,61.764-45.622,83.294-77.043L256.001,277.973z"/>
<g>
</g>
<g>
</g>
<g>
</g>
<g>
</g>
<g>
</g>
<g>
</g>
<g>
</g>
<g>
</g>
<g>
</g>
<g>
</g>
<g>
</g>
<g>
</g>
<g>
</g>
<g>
</g>
<g>
</g>
</svg>
