<?xml version="1.0" encoding="iso-8859-1"?>
<!-- Generator: Adobe Illustrator 19.0.0, SVG Export Plug-In . SVG Version: 6.00 Build 0)  -->
<svg version="1.1" id="Layer_1" xmlns="http://www.w3.org/2000/svg" xmlns:xlink="http://www.w3.org/1999/xlink" x="0px" y="0px"
	 viewBox="0 0 473.654 473.654" style="enable-background:new 0 0 473.654 473.654;" xml:space="preserve">
<circle style="fill:#1FA85B;" cx="236.827" cy="236.827" r="236.827"/>
<g>
	<path style="fill:#FFFFFF;" d="M397.509,165.256c0.041-1.974-0.752-3.956-2.606-5.452c-0.135-0.116-0.277-0.224-0.415-0.333
		c-0.086-0.06-0.146-0.127-0.236-0.187c-0.127-0.079-0.251-0.165-0.381-0.243c-0.06-0.037-0.112-0.079-0.172-0.112
		c-32.059-20.773-64.115-41.543-96.171-62.316c-4.473-2.894-10.519,0.939-10.519,6.021c0,15.931,0,31.857,0,47.784
		c-28.196,0-56.389,0-84.585,0c-0.254,0-0.471,0.06-0.722,0.075c-4.372-0.116-8.736,1.881-11.525,6.941
		c-6.103,11.092-12.21,22.187-18.313,33.275c-8.717,15.837,15.553,29.894,24.289,14.023c4.817-8.754,9.637-17.509,14.453-26.259
		c25.47,0,50.937,0,76.403,0c0,16.499,0,32.994,0,49.493c0,5.153,5.995,9.061,10.564,6.099
		c32.011-20.736,64.018-41.468,96.025-62.208c0.232-0.123,0.445-0.273,0.658-0.426c0.011-0.007,0.026-0.019,0.037-0.026
		c0.011-0.007,0.019-0.019,0.03-0.026c0.224-0.161,0.438-0.322,0.639-0.509C396.862,169.332,397.618,167.279,397.509,165.256z"/>
	<path style="fill:#FFFFFF;" d="M261.426,260.585c-4.817,8.754-9.637,17.509-14.453,26.259c-25.47,0-50.937,0-76.403,0
		c0-16.495,0-32.99,0-49.486c0-5.153-5.995-9.061-10.564-6.099c-32.011,20.736-64.018,41.468-96.021,62.208
		c-0.232,0.123-0.445,0.273-0.662,0.426c-0.011,0.007-0.026,0.019-0.037,0.026c-0.011,0.007-0.019,0.019-0.03,0.026
		c-0.224,0.161-0.438,0.322-0.639,0.509c-1.896,1.541-2.651,3.594-2.543,5.617c-0.041,1.974,0.752,3.956,2.606,5.452
		c0.135,0.116,0.277,0.224,0.415,0.333c0.086,0.06,0.146,0.127,0.236,0.187c0.127,0.079,0.251,0.165,0.381,0.243
		c0.06,0.037,0.112,0.079,0.172,0.112c32.059,20.773,64.115,41.543,96.171,62.316c4.473,2.894,10.519-0.939,10.519-6.021
		c0-15.931,0-31.865,0-47.792c28.196,0,56.389,0,84.585,0c0.254,0,0.471-0.06,0.722-0.075c4.372,0.116,8.736-1.881,11.525-6.941
		c6.103-11.092,12.21-22.187,18.313-33.275C294.432,258.771,270.162,244.714,261.426,260.585z"/>
</g>
<g>
</g>
<g>
</g>
<g>
</g>
<g>
</g>
<g>
</g>
<g>
</g>
<g>
</g>
<g>
</g>
<g>
</g>
<g>
</g>
<g>
</g>
<g>
</g>
<g>
</g>
<g>
</g>
<g>
</g>
</svg>
