<?xml version="1.0" encoding="UTF-8" standalone="no"?>
<svg
   version="1.1"
   id="Layer_1"
   x="0px"
   y="0px"
   viewBox="0 0 294.552 294.552"
   style="enable-background:new 0 0 294.552 294.552;"
   xml:space="preserve"
   sodipodi:docname="STOCKS_CLOSED.svg"
   inkscape:version="1.1-dev (9017afb, 2021-01-01)"
   xmlns:inkscape="http://www.inkscape.org/namespaces/inkscape"
   xmlns:sodipodi="http://sodipodi.sourceforge.net/DTD/sodipodi-0.dtd"
   xmlns="http://www.w3.org/2000/svg"
   xmlns:svg="http://www.w3.org/2000/svg"><defs
   id="defs2231" /><sodipodi:namedview
   id="namedview2229"
   pagecolor="#ffffff"
   bordercolor="#666666"
   borderopacity="1.0"
   objecttolerance="10.0"
   gridtolerance="10.0"
   guidetolerance="10.0"
   inkscape:pageshadow="2"
   inkscape:pageopacity="0.0"
   inkscape:pagecheckerboard="0"
   showgrid="false"
   inkscape:zoom="2.4511801"
   inkscape:cx="147.07202"
   inkscape:cy="147.07202"
   inkscape:window-width="1296"
   inkscape:window-height="1003"
   inkscape:window-x="0"
   inkscape:window-y="25"
   inkscape:window-maximized="0"
   inkscape:current-layer="Layer_1" />
<g
   id="g2196">
	<path
   style="fill:#F59D00;"
   d="M126.178,287.052v-108.64c0-1.565-0.532-3.083-1.508-4.305l-43.501-54.493   c-2.763-3.461-8.024-3.461-10.787,0l-43.501,54.493c-0.976,1.223-1.508,2.741-1.508,4.305v108.64H126.178z"
   id="path2178" />
	<path
   style="fill:#FFD155;"
   d="M269.178,287.052V103.895c0-1.565-0.532-3.083-1.508-4.305l-43.501-54.493   c-2.763-3.461-8.024-3.461-10.787,0l-43.5,54.493c-0.976,1.223-1.508,2.741-1.508,4.305v183.157H269.178z"
   id="path2180" />
	<g
   id="g2194">
		<path
   style="fill:#E87E04;"
   d="M87.031,114.934c-5.771-7.23-16.751-7.216-22.51,0l-43.5,54.493    c-2.029,2.542-3.146,5.732-3.146,8.985v108.64c0,4.142,3.358,7.5,7.5,7.5h100.804c4.142,0,7.5-3.358,7.5-7.5v-108.64    c0-3.252-1.118-6.443-3.146-8.985L87.031,114.934z M118.678,279.552H32.874v-100.93l42.902-53.743l42.902,53.743V279.552z"
   id="path2182" />
		<path
   style="fill:#E87E04;"
   d="M22.203,144.968c3.237,2.585,7.956,2.055,10.541-1.182l43.033-53.907l43.033,53.907    c2.584,3.238,7.303,3.766,10.541,1.182c3.237-2.584,3.767-7.303,1.182-10.54L87.031,79.934c-5.771-7.23-16.751-7.216-22.51,0    l-43.5,54.493C18.436,137.664,18.966,142.384,22.203,144.968z"
   id="path2184" />
		<path
   style="fill:#E87E04;"
   d="M273.531,94.91l-43.501-54.493c-5.771-7.23-16.751-7.216-22.51,0L164.02,94.91    c-2.029,2.541-3.146,5.732-3.146,8.984v183.157c0,4.142,3.358,7.5,7.5,7.5h100.804c4.142,0,7.5-3.358,7.5-7.5V103.894    C276.678,100.642,275.56,97.452,273.531,94.91z M261.678,279.552h-85.804V104.104l42.902-53.743l42.902,53.743V279.552z"
   id="path2186" />
		<path
   style="fill:#E87E04;"
   d="M165.203,70.451c3.237,2.584,7.957,2.055,10.541-1.182l43.033-53.907l43.033,53.907    c2.584,3.238,7.303,3.766,10.54,1.182c3.237-2.584,3.767-7.303,1.182-10.54L230.031,5.417c-5.771-7.23-16.751-7.216-22.51,0    L164.02,59.91C161.436,63.147,161.966,67.867,165.203,70.451z"
   id="path2188" />
		<path
   style="fill:#E87E04;"
   d="M68.276,184.412v25.93h-2.562c-4.191,0-6.81,4.536-4.714,8.165l10.062,17.428    c2.095,3.629,7.333,3.629,9.429,0l10.062-17.428c2.095-3.629-0.524-8.165-4.714-8.165h-2.562v-25.93c0-4.142-3.358-7.5-7.5-7.5    C71.634,176.912,68.276,180.27,68.276,184.412z"
   id="path2190" />
		<path
   style="fill:#E87E04;"
   d="M214.062,187.134l-10.062,17.428c-2.095,3.629,0.524,8.165,4.714,8.165h2.562v25.93    c0,4.142,3.358,7.5,7.5,7.5c4.142,0,7.5-3.358,7.5-7.5v-25.93h2.562c4.191,0,6.81-4.536,4.714-8.165l-10.062-17.428    C221.395,183.505,216.157,183.505,214.062,187.134z"
   id="path2192" />
	</g>
</g>
<g
   id="g2198">
</g>
<g
   id="g2200">
</g>
<g
   id="g2202">
</g>
<g
   id="g2204">
</g>
<g
   id="g2206">
</g>
<g
   id="g2208">
</g>
<g
   id="g2210">
</g>
<g
   id="g2212">
</g>
<g
   id="g2214">
</g>
<g
   id="g2216">
</g>
<g
   id="g2218">
</g>
<g
   id="g2220">
</g>
<g
   id="g2222">
</g>
<g
   id="g2224">
</g>
<g
   id="g2226">
</g>
<path
   style="fill:none;stroke:#fc0000;stroke-width:11.0294;stroke-linecap:butt;stroke-linejoin:miter;stroke-miterlimit:4;stroke-dasharray:none;stroke-opacity:1"
   d="M 264.85227,17.482661 25.212094,279.9251"
   id="path1214-0-7" /><path
   style="fill:none;stroke:#fc0000;stroke-width:11.0294;stroke-linecap:butt;stroke-linejoin:miter;stroke-miterlimit:4;stroke-dasharray:none;stroke-opacity:1"
   d="M 13.81096,28.883791 276.2534,268.52397"
   id="path1214-0-7-7" /></svg>
