<?xml version="1.0" encoding="iso-8859-1"?>
<!-- Generator: Adobe Illustrator 19.0.0, SVG Export Plug-In . SVG Version: 6.00 Build 0)  -->
<svg version="1.1" id="Layer_1" xmlns="http://www.w3.org/2000/svg" xmlns:xlink="http://www.w3.org/1999/xlink" x="0px" y="0px"
	 viewBox="0 0 294.552 294.552" style="enable-background:new 0 0 294.552 294.552;" xml:space="preserve">
<g>
	<path style="fill:#F59D00;" d="M126.178,287.052v-108.64c0-1.565-0.532-3.083-1.508-4.305l-43.501-54.493
		c-2.763-3.461-8.024-3.461-10.787,0l-43.501,54.493c-0.976,1.223-1.508,2.741-1.508,4.305v108.64H126.178z"/>
	<path style="fill:#FFD155;" d="M269.178,287.052V103.895c0-1.565-0.532-3.083-1.508-4.305l-43.501-54.493
		c-2.763-3.461-8.024-3.461-10.787,0l-43.5,54.493c-0.976,1.223-1.508,2.741-1.508,4.305v183.157H269.178z"/>
	<g>
		<path style="fill:#E87E04;" d="M87.031,114.934c-5.771-7.23-16.751-7.216-22.51,0l-43.5,54.493
			c-2.029,2.542-3.146,5.732-3.146,8.985v108.64c0,4.142,3.358,7.5,7.5,7.5h100.804c4.142,0,7.5-3.358,7.5-7.5v-108.64
			c0-3.252-1.118-6.443-3.146-8.985L87.031,114.934z M118.678,279.552H32.874v-100.93l42.902-53.743l42.902,53.743V279.552z"/>
		<path style="fill:#E87E04;" d="M22.203,144.968c3.237,2.585,7.956,2.055,10.541-1.182l43.033-53.907l43.033,53.907
			c2.584,3.238,7.303,3.766,10.541,1.182c3.237-2.584,3.767-7.303,1.182-10.54L87.031,79.934c-5.771-7.23-16.751-7.216-22.51,0
			l-43.5,54.493C18.436,137.664,18.966,142.384,22.203,144.968z"/>
		<path style="fill:#E87E04;" d="M273.531,94.91l-43.501-54.493c-5.771-7.23-16.751-7.216-22.51,0L164.02,94.91
			c-2.029,2.541-3.146,5.732-3.146,8.984v183.157c0,4.142,3.358,7.5,7.5,7.5h100.804c4.142,0,7.5-3.358,7.5-7.5V103.894
			C276.678,100.642,275.56,97.452,273.531,94.91z M261.678,279.552h-85.804V104.104l42.902-53.743l42.902,53.743V279.552z"/>
		<path style="fill:#E87E04;" d="M165.203,70.451c3.237,2.584,7.957,2.055,10.541-1.182l43.033-53.907l43.033,53.907
			c2.584,3.238,7.303,3.766,10.54,1.182c3.237-2.584,3.767-7.303,1.182-10.54L230.031,5.417c-5.771-7.23-16.751-7.216-22.51,0
			L164.02,59.91C161.436,63.147,161.966,67.867,165.203,70.451z"/>
		<path style="fill:#E87E04;" d="M68.276,184.412v25.93h-2.562c-4.191,0-6.81,4.536-4.714,8.165l10.062,17.428
			c2.095,3.629,7.333,3.629,9.429,0l10.062-17.428c2.095-3.629-0.524-8.165-4.714-8.165h-2.562v-25.93c0-4.142-3.358-7.5-7.5-7.5
			C71.634,176.912,68.276,180.27,68.276,184.412z"/>
		<path style="fill:#E87E04;" d="M214.062,187.134l-10.062,17.428c-2.095,3.629,0.524,8.165,4.714,8.165h2.562v25.93
			c0,4.142,3.358,7.5,7.5,7.5c4.142,0,7.5-3.358,7.5-7.5v-25.93h2.562c4.191,0,6.81-4.536,4.714-8.165l-10.062-17.428
			C221.395,183.505,216.157,183.505,214.062,187.134z"/>
	</g>
</g>
<g>
</g>
<g>
</g>
<g>
</g>
<g>
</g>
<g>
</g>
<g>
</g>
<g>
</g>
<g>
</g>
<g>
</g>
<g>
</g>
<g>
</g>
<g>
</g>
<g>
</g>
<g>
</g>
<g>
</g>
</svg>
