<?xml version="1.0" encoding="iso-8859-1"?>
<!-- Generator: Adobe Illustrator 19.0.0, SVG Export Plug-In . SVG Version: 6.00 Build 0)  -->
<svg version="1.1" id="Layer_1" xmlns="http://www.w3.org/2000/svg" xmlns:xlink="http://www.w3.org/1999/xlink" x="0px" y="0px"
	 viewBox="0 0 512 512" style="enable-background:new 0 0 512 512;" xml:space="preserve">
<rect x="26.122" y="384.69" style="fill:#57555C;" width="122.264" height="127.122"/>
<rect x="363.614" y="384.69" style="fill:#2B292C;" width="122.264" height="127.122"/>
<rect x="240.327" y="0.184" style="fill:#57555C;" width="31.347" height="58.342"/>
<rect x="256" y="0.184" style="fill:#2B292C;" width="15.673" height="58.342"/>
<rect x="144.405" y="42.851" style="fill:#0082D2;" width="223.19" height="85.191"/>
<rect x="256" y="42.851" style="fill:#005C94;" width="111.595" height="85.191"/>
<rect x="110.759" y="96.695" style="fill:#AEADB3;" width="290.482" height="415.117"/>
<rect x="256" y="96.695" style="fill:#8B8892;" width="145.241" height="415.117"/>
<rect x="172.408" y="165.919" style="fill:#FFFFFF;" width="167.246" height="330.219"/>
<path style="fill:#0082D2;" d="M156.735,150.25v361.566h198.593V150.25H156.735z M213.253,480.469h-25.172V181.597h25.172V480.469z
	 M269.364,480.469H244.6V181.597h24.764V480.469z M323.981,480.469h-23.27V181.597h23.27V480.469z"/>
<rect x="256" y="165.919" style="fill:#C8C6CD;" width="83.655" height="330.219"/>
<path style="fill:#005C94;" d="M256,150.25v31.347h13.364v298.872H256v31.347h99.328V150.25H256z M323.981,480.469h-23.27V181.597
	h23.27V480.469z"/>
<rect y="480.465" style="fill:#57555C;" width="512" height="31.347"/>
<rect x="256" y="480.465" style="fill:#2B292C;" width="256" height="31.347"/>
<g>
</g>
<g>
</g>
<g>
</g>
<g>
</g>
<g>
</g>
<g>
</g>
<g>
</g>
<g>
</g>
<g>
</g>
<g>
</g>
<g>
</g>
<g>
</g>
<g>
</g>
<g>
</g>
<g>
</g>
</svg>
