<?xml version="1.0" encoding="UTF-8" standalone="no"?>
<svg
   version="1.1"
   id="Layer_1"
   x="0px"
   y="0px"
   viewBox="0 0 512 512"
   style="enable-background:new 0 0 512 512;"
   xml:space="preserve"
   sodipodi:docname="TERM_CLOSED.svg"
   inkscape:version="1.1-dev (9017afb, 2021-01-01)"
   xmlns:inkscape="http://www.inkscape.org/namespaces/inkscape"
   xmlns:sodipodi="http://sodipodi.sourceforge.net/DTD/sodipodi-0.dtd"
   xmlns="http://www.w3.org/2000/svg"
   xmlns:svg="http://www.w3.org/2000/svg"><defs
   id="defs885" /><sodipodi:namedview
   id="namedview883"
   pagecolor="#ffffff"
   bordercolor="#666666"
   borderopacity="1.0"
   objecttolerance="10.0"
   gridtolerance="10.0"
   guidetolerance="10.0"
   inkscape:pageshadow="2"
   inkscape:pageopacity="0.0"
   inkscape:pagecheckerboard="0"
   showgrid="false"
   inkscape:zoom="1.4101562"
   inkscape:cx="256"
   inkscape:cy="255.64543"
   inkscape:window-width="1363"
   inkscape:window-height="1003"
   inkscape:window-x="0"
   inkscape:window-y="25"
   inkscape:window-maximized="0"
   inkscape:current-layer="Layer_1" />
<rect
   x="26.122"
   y="384.69"
   style="fill:#57555C;"
   width="122.264"
   height="127.122"
   id="rect824" />
<rect
   x="363.614"
   y="384.69"
   style="fill:#2B292C;"
   width="122.264"
   height="127.122"
   id="rect826" />
<rect
   x="240.327"
   y="0.184"
   style="fill:#57555C;"
   width="31.347"
   height="58.342"
   id="rect828" />
<rect
   x="256"
   y="0.184"
   style="fill:#2B292C;"
   width="15.673"
   height="58.342"
   id="rect830" />
<rect
   x="144.405"
   y="42.851"
   style="fill:#0082D2;"
   width="223.19"
   height="85.191"
   id="rect832" />
<rect
   x="256"
   y="42.851"
   style="fill:#005C94;"
   width="111.595"
   height="85.191"
   id="rect834" />
<rect
   x="110.759"
   y="96.695"
   style="fill:#AEADB3;"
   width="290.482"
   height="415.117"
   id="rect836" />
<rect
   x="256"
   y="96.695"
   style="fill:#8B8892;"
   width="145.241"
   height="415.117"
   id="rect838" />
<rect
   x="172.408"
   y="165.919"
   style="fill:#FFFFFF;"
   width="167.246"
   height="330.219"
   id="rect840" />
<path
   style="fill:#0082D2;"
   d="M156.735,150.25v361.566h198.593V150.25H156.735z M213.253,480.469h-25.172V181.597h25.172V480.469z   M269.364,480.469H244.6V181.597h24.764V480.469z M323.981,480.469h-23.27V181.597h23.27V480.469z"
   id="path842" />
<rect
   x="256"
   y="165.919"
   style="fill:#C8C6CD;"
   width="83.655"
   height="330.219"
   id="rect844" />
<path
   style="fill:#005C94;"
   d="M256,150.25v31.347h13.364v298.872H256v31.347h99.328V150.25H256z M323.981,480.469h-23.27V181.597  h23.27V480.469z"
   id="path846" />
<rect
   y="480.465"
   style="fill:#57555C;"
   width="512"
   height="31.347"
   id="rect848" />
<rect
   x="256"
   y="480.465"
   style="fill:#2B292C;"
   width="256"
   height="31.347"
   id="rect850" />
<g
   id="g852">
</g>
<g
   id="g854">
</g>
<g
   id="g856">
</g>
<g
   id="g858">
</g>
<g
   id="g860">
</g>
<g
   id="g862">
</g>
<g
   id="g864">
</g>
<g
   id="g866">
</g>
<g
   id="g868">
</g>
<g
   id="g870">
</g>
<g
   id="g872">
</g>
<g
   id="g874">
</g>
<g
   id="g876">
</g>
<g
   id="g878">
</g>
<g
   id="g880">
</g>
<path
   style="fill:none;stroke:#ff0000;stroke-width:11.33858268;stroke-linecap:butt;stroke-linejoin:miter;stroke-opacity:1;stroke-miterlimit:4;stroke-dasharray:none"
   d="M 450.30471,68.077562 55.313019,433.99446"
   id="path1065" /><path
   style="fill:none;stroke:#ff0000;stroke-width:11.3386;stroke-linecap:butt;stroke-linejoin:miter;stroke-miterlimit:4;stroke-dasharray:none;stroke-opacity:1"
   d="M 69.850411,53.540161 435.76731,448.53186"
   id="path1065-7" /></svg>
