<?xml version="1.0" encoding="UTF-8"?>
<svg viewBox="0 0 24 24" xmlns="http://www.w3.org/2000/svg">
<ellipse cx="12" cy="12" rx="9" ry="9" fill="#063" fill-opacity=".15" stroke-width="0"/>
<path d="m11.998 2.0018c-5.5116 0-9.9956 4.485-9.9956 9.9977 0 5.5127 4.484 9.9977 9.9956 9.9977 5.5116 0 9.9956-4.485 9.9956-9.9977 0-5.5127-4.484-9.9977-9.9956-9.9977zm0.16125 18.743c-0.95803 0-1.9175-0.65161-2.7018-1.8349-0.32807-0.495-0.61712-1.0709-0.86185-1.7056h2.846v1.5497c0 0.30751 0.24919 0.55668 0.55656 0.55668s0.55656-0.24917 0.55656-0.55668v-1.5497h3.1625c-0.82252 2.1333-2.1242 3.5405-3.5578 3.5405zm-9.0257-8.1885h1.7801c0.21676 0.86716 0.9276 1.5401 1.8149 1.7018 0.083113 0.64055 0.19955 1.2532 0.34581 1.8328h-2.9591c-0.5573-1.0699-0.90297-2.2666-0.9817-3.5346zm9.421-9.2649c1.0241 0.18712 2.0013 1.0944 2.7519 2.564-0.28318 0.24449-0.49631 0.56774-0.6048 0.93574h-2.1471v-3.4997zm4.0377 4.9146c-0.47308 0-0.85807-0.385-0.85807-0.85825 0-0.47325 0.38492-0.85825 0.85807-0.85825 0.47315 0 0.85807 0.385 0.85807 0.85825 0 0.47325-0.38492 0.85825-0.85807 0.85825zm-1.8906-0.30157c0.22337 0.75753 0.8899 1.3268 1.6984 1.4054 0.1168 0.69117 0.18686 1.4057 0.21083 2.1332h-4.0563v-3.5386zm-3.2603 3.5386h-2.0733c-0.19272-0.77089-0.77585-1.3885-1.5263-1.6298 0.089718-0.66475 0.22121-1.3047 0.3887-1.9087h3.2109zm-4.3005 1.7397c-0.65214 0-1.1827-0.53063-1.1827-1.183s0.53051-1.183 1.1827-1.183c0.65222 0 1.1827 0.53063 1.1827 1.183s-0.53059 1.183-1.1827 1.183zm-0.41163-3.4415c-0.8876 0.16144-1.5988 0.8345-1.8157 1.702h-1.7801c0.078883-1.2695 0.42529-2.4677 0.98378-3.5386h2.9625c-0.14983 0.58822-0.26789 1.2032-0.35049 1.8366zm1.1133 4.4448c0.7501-0.24145 1.3329-0.85892 1.5255-1.6295h2.0733v3.5346h-3.2125c-0.16689-0.60277-0.29683-1.2421-0.38633-1.9051zm4.7119 1.9051v-3.5346h4.0567c-0.04274 1.2626-0.22945 2.4623-0.5277 3.5346zm5.1703-3.5346h1.3601c0.30737 0 0.55656-0.24917 0.55656-0.55668 0-0.30751-0.24919-0.55668-0.55656-0.55668h-1.3603c-0.02464-0.79843-0.10174-1.5831-0.23123-2.3426 0.4739-0.24472 0.83625-0.67581 0.98964-1.196h1.3958c0.63953 1.2263 1.0017 2.6191 1.0017 4.0952 0 1.4745-0.36147 2.8661-0.99966 4.0913h-2.6379c0.27954-1.1024 0.44377-2.2975 0.48183-3.5346zm1.4644-5.7653h-0.70624c-0.2408-0.81683-0.99699-1.4149-1.8906-1.4149-0.09217 0-0.18277 0.00682-0.2716 0.01915-0.32807-0.64953-0.70067-1.2121-1.1077-1.6775 1.6025 0.62459 2.9803 1.7016 3.9762 3.0733zm-7.7478-3.6578v3.6578h-2.8453c0.23828-0.61725 0.51901-1.1784 0.83685-1.6645 0.16823-0.25733 0.096025-0.60233-0.16125-0.77059-0.25728-0.16834-0.6022-0.095971-0.77043 0.16129-0.42751 0.65399-0.79351 1.4244-1.0883 2.2738h-2.6061c1.5135-2.0847 3.9094-3.4884 6.6346-3.6578zm-6.6375 14.071h2.6016c0.46276 1.3381 1.0984 2.4466 1.8503 3.2458-1.8058-0.58763-3.3592-1.739-4.4519-3.2458zm10.416 3.0747c0.35286-0.40623 0.68094-0.88683 0.97806-1.4376 0.27175-0.50376 0.5087-1.0534 0.71143-1.6371h2.283c-0.99476 1.3718-2.3713 2.4492-3.9725 3.0747z" fill="#063" stroke-width=".074216"/>
</svg>
