<svg width="24px" height="24px" viewBox="0 0 24 24" fill="none" xmlns="http://www.w3.org/2000/svg">
    <ellipse
       style="opacity:1;fill:#006633;fill-opacity:0.15;stroke:#006633;stroke-width:0;stroke-miterlimit:4;stroke-dasharray:none;stroke-opacity:1"
       cx="12" cy="12" rx="9" ry="9" />
<path
   d="m 11.997755,2.0017929 c -5.5115955,0 -9.9955546,4.4849798 -9.9955546,9.9976641 0,5.512684 4.4839591,9.997664 9.9955546,9.997664 5.511595,0 9.995553,-4.48498 9.995553,-9.997664 0,-5.5126843 -4.483958,-9.9976641 -9.995553,-9.9976641 z m 0.161254,18.7428741 c -0.958029,0 -1.917541,-0.651612 -2.7018483,-1.83489 C 9.1290862,18.414778 8.840045,17.838873 8.5953062,17.204186 h 2.8459608 v 1.549722 c 0,0.307508 0.249191,0.556679 0.556562,0.556679 0.307371,0 0.556562,-0.249171 0.556562,-0.556679 v -1.549722 h 3.162458 c -0.822524,2.13327 -2.124211,3.540481 -3.55784,3.540481 z M 3.1332825,12.556136 h 1.7801073 c 0.2167622,0.867159 0.9276031,1.540146 1.8149112,1.701805 0.083113,0.640554 0.199546,1.253198 0.3458105,1.832811 H 4.1149834 C 3.5576793,15.02089 3.2120174,13.824178 3.1332825,12.556136 Z M 12.554316,3.2912108 c 1.024148,0.1871184 2.001322,1.0944315 2.751865,2.5639907 -0.283179,0.2444935 -0.496306,0.5677388 -0.604797,0.9357409 H 12.554241 V 3.2912108 Z m 4.037743,4.9145877 c -0.473076,0 -0.858067,-0.3849994 -0.858067,-0.8582511 0,-0.4732515 0.384916,-0.8582511 0.858067,-0.8582511 0.473153,0 0.858072,0.3849996 0.858072,0.8582511 0,0.4732517 -0.384919,0.8582511 -0.858072,0.8582511 z M 14.701458,7.9042269 c 0.223367,0.7575291 0.889904,1.3267523 1.698403,1.4053553 0.116805,0.6911738 0.186856,1.4056528 0.210826,2.1331948 H 12.554391 V 7.9042269 Z M 11.441192,11.442777 H 9.3678883 C 9.1751694,10.671888 8.5920411,10.05427 7.841573,9.8129692 7.9312908,9.1482195 8.0627877,8.5082609 8.2302759,7.9042269 h 3.2109161 z m -4.3005158,1.739661 c -0.6521422,0 -1.182731,-0.530627 -1.182731,-1.182981 0,-0.652354 0.5305147,-1.18298 1.182731,-1.18298 0.6522162,0 1.1827311,0.530626 1.1827311,1.18298 0,0.652354 -0.5305891,1.182981 -1.1827311,1.182981 z M 6.7290431,9.7408979 C 5.8414382,9.9023343 5.1302264,10.575396 4.9133898,11.442852 H 3.1332825 C 3.2121657,10.173325 3.55857,8.9751293 4.1170613,7.904301 H 7.0795286 C 6.9297021,8.4925256 6.8116369,9.1075449 6.7290431,9.7408979 Z m 1.1133463,4.4447511 c 0.7500969,-0.241452 1.3328544,-0.85892 1.5254989,-1.629513 h 2.0733037 v 3.534616 H 8.2287174 C 8.0618232,15.487982 7.9318845,14.848615 7.8423894,14.185649 Z m 4.7119266,1.905103 v -3.534616 h 4.056742 c -0.04274,1.262622 -0.229451,2.462304 -0.527696,3.534616 z m 5.170311,-3.534616 h 1.360089 c 0.30737,0 0.556562,-0.249169 0.556562,-0.556679 0,-0.307508 -0.249192,-0.55668 -0.556562,-0.55668 h -1.360311 c -0.02464,-0.798426 -0.10174,-1.5831214 -0.231234,-2.3425805 0.473895,-0.2447161 0.836252,-0.6758084 0.989642,-1.1959696 h 1.395783 c 0.639527,1.2262532 1.001737,2.6191381 1.001737,4.0952301 0,1.474531 -0.361469,2.866081 -0.999659,4.091295 h -2.637881 c 0.279542,-1.102371 0.443766,-2.297526 0.481834,-3.534616 z m 1.464351,-5.7652679 h -0.706239 c -0.240805,-0.816834 -0.996987,-1.4149302 -1.890605,-1.4149302 -0.09217,0 -0.182774,0.00682 -0.271602,0.01915 -0.328074,-0.6495335 -0.700674,-1.2120766 -1.107705,-1.6775348 1.602452,0.6245943 2.980278,1.7015832 3.976151,3.073315 z M 11.441192,3.1331137 V 6.7909424 H 8.5958999 C 8.8341826,6.1736964 9.1149124,5.6125635 9.4327464,5.126397 9.6009764,4.8690626 9.5287717,4.5240699 9.2714918,4.3558042 9.0142119,4.1874644 8.6692918,4.2598328 8.5010618,4.5170927 8.0735481,5.1710798 7.7075529,5.9414497 7.4127237,6.7909424 H 4.8066042 C 6.3200813,4.7062153 8.716043,3.3024928 11.441192,3.1331137 Z M 4.8037101,17.204112 H 7.4053028 C 7.8680654,18.54222 8.5036589,19.65068 9.2556111,20.449924 7.4498277,19.862293 5.8964264,18.71093 4.8037101,17.204112 Z m 10.4155729,3.074725 c 0.35286,-0.406226 0.680936,-0.886829 0.978065,-1.437643 0.271751,-0.503758 0.508698,-1.053385 0.711434,-1.637082 h 2.283016 c -0.994761,1.371806 -2.371251,2.449239 -3.972515,3.074725 z"
   id="path872"
   style="stroke-width:0.0742161;fill:#006633;fill-opacity:1" />
<g
   id="g874"
   transform="matrix(0.07420825,0,0,0.07422392,2.0022004,2.0017929)"
   style="fill:#006633;fill-opacity:1">
</g>
<g
   id="g876"
   transform="matrix(0.07420825,0,0,0.07422392,2.0022004,2.0017929)"
   style="fill:#006633;fill-opacity:1">
</g>
<g
   id="g878"
   transform="matrix(0.07420825,0,0,0.07422392,2.0022004,2.0017929)"
   style="fill:#006633;fill-opacity:1">
</g>
<g
   id="g880"
   transform="matrix(0.07420825,0,0,0.07422392,2.0022004,2.0017929)"
   style="fill:#006633;fill-opacity:1">
</g>
<g
   id="g882"
   transform="matrix(0.07420825,0,0,0.07422392,2.0022004,2.0017929)"
   style="fill:#006633;fill-opacity:1">
</g>
<g
   id="g884"
   transform="matrix(0.07420825,0,0,0.07422392,2.0022004,2.0017929)"
   style="fill:#006633;fill-opacity:1">
</g>
<g
   id="g886"
   transform="matrix(0.07420825,0,0,0.07422392,2.0022004,2.0017929)"
   style="fill:#006633;fill-opacity:1">
</g>
<g
   id="g888"
   transform="matrix(0.07420825,0,0,0.07422392,2.0022004,2.0017929)"
   style="fill:#006633;fill-opacity:1">
</g>
<g
   id="g890"
   transform="matrix(0.07420825,0,0,0.07422392,2.0022004,2.0017929)"
   style="fill:#006633;fill-opacity:1">
</g>
<g
   id="g892"
   transform="matrix(0.07420825,0,0,0.07422392,2.0022004,2.0017929)"
   style="fill:#006633;fill-opacity:1">
</g>
<g
   id="g894"
   transform="matrix(0.07420825,0,0,0.07422392,2.0022004,2.0017929)"
   style="fill:#006633;fill-opacity:1">
</g>
<g
   id="g896"
   transform="matrix(0.07420825,0,0,0.07422392,2.0022004,2.0017929)"
   style="fill:#006633;fill-opacity:1">
</g>
<g
   id="g898"
   transform="matrix(0.07420825,0,0,0.07422392,2.0022004,2.0017929)"
   style="fill:#006633;fill-opacity:1">
</g>
<g
   id="g900"
   transform="matrix(0.07420825,0,0,0.07422392,2.0022004,2.0017929)"
   style="fill:#006633;fill-opacity:1">
</g>
<g
   id="g902"
   transform="matrix(0.07420825,0,0,0.07422392,2.0022004,2.0017929)"
   style="fill:#006633;fill-opacity:1">
</g>
</svg>
