<svg width="24px" height="24px" viewBox="0 0 24 24" fill="none" xmlns="http://www.w3.org/2000/svg">
<path opacity="0.15" fill-rule="evenodd" clip-rule="evenodd" d="M12 5C5.63636 5 2 12 2 12C2 12 5.63636 19 12 19C18.3636 19 22 12 22 12C22 12 18.3636 5 12 5ZM15 12C15 13.6569 13.6569 15 12 15C10.3431 15 9 13.6569 9 12C9 10.3431 10.3431 9 12 9C13.6569 9 15 10.3431 15 12Z" fill="#006633"/>
<path d="M2 12C2 12 5.63636 5 12 5C18.3636 5 22 12 22 12C22 12 18.3636 19 12 19C5.63636 19 2 12 2 12Z" stroke="#006633" stroke-width="1.5" stroke-linecap="round" stroke-linejoin="round"/>
<path d="M12 15C13.6569 15 15 13.6569 15 12C15 10.3431 13.6569 9 12 9C10.3431 9 9 10.3431 9 12C9 13.6569 10.3431 15 12 15Z" stroke="#006633" stroke-width="1.5" stroke-linecap="round" stroke-linejoin="round"/>
</svg>
