<?xml version="1.0" encoding="iso-8859-1"?>
<!-- Generator: Adobe Illustrator 19.0.0, SVG Export Plug-In . SVG Version: 6.00 Build 0)  -->
<svg version="1.1" id="Layer_1" xmlns="http://www.w3.org/2000/svg" xmlns:xlink="http://www.w3.org/1999/xlink" x="0px" y="0px"
	 viewBox="0 0 512 512" style="enable-background:new 0 0 512 512;" xml:space="preserve">
<path style="fill:#70E5CF;" d="M501.372,245.372c0,135.525-109.86,245.385-245.372,245.385c-9.114,0-18.107-0.496-26.952-1.474
	c-27.756-3.029-54.106-10.695-78.297-22.194L64.023,512l14.997-96.672c-42.352-44.094-68.393-103.976-68.393-169.956
	C10.628,109.86,120.475,0,256,0c33.667,0,65.739,6.782,94.929,19.045C439.305,56.156,501.372,143.513,501.372,245.372z"/>
<path style="fill:#35D8B9;" d="M85.883,500.68l13.242-85.352c-42.352-44.094-68.393-103.976-68.393-169.956
	c0-132.145,104.461-239.878,235.324-245.151C262.719,0.087,259.371,0,256,0C120.475,0,10.628,109.86,10.628,245.372
	c0,65.98,26.041,125.862,68.393,169.956L64.023,512L85.883,500.68z"/>
<g>
	<circle style="fill:#F95428;" cx="256" cy="116.655" r="43.169"/>
	<polygon style="fill:#F95428;" points="314.984,371.784 314.984,405.196 197.016,405.196 197.016,371.784 218.513,371.784 
		218.513,230.321 197.016,230.321 197.016,196.922 293.487,196.922 293.487,371.784 	"/>
</g>
<g>
</g>
<g>
</g>
<g>
</g>
<g>
</g>
<g>
</g>
<g>
</g>
<g>
</g>
<g>
</g>
<g>
</g>
<g>
</g>
<g>
</g>
<g>
</g>
<g>
</g>
<g>
</g>
<g>
</g>
</svg>
