<?xml version="1.0" encoding="iso-8859-1"?>
<!-- Generator: Adobe Illustrator 19.0.0, SVG Export Plug-In . SVG Version: 6.00 Build 0)  -->
<svg version="1.1" id="Capa_1" xmlns="http://www.w3.org/2000/svg" xmlns:xlink="http://www.w3.org/1999/xlink" x="0px" y="0px"
	 viewBox="0 0 512 512" style="enable-background:new 0 0 512 512;" xml:space="preserve">
<g>
	<g>
		<path style="fill:#FF4F19;" d="M480,0H309.258c-10.688,0-20.734,4.16-28.289,11.715L9.375,283.313
			C3.328,289.355,0,297.395,0,305.941s3.328,16.582,9.375,22.625L183.43,502.625c6.047,6.047,14.078,9.375,22.633,9.375
			c8.547,0,16.578-3.328,22.625-9.375l271.594-271.598c7.555-7.555,11.719-17.602,11.719-28.281V32C512,14.355,497.648,0,480,0z
			 M412,128c-15.464,0-28-12.536-28-28c0-15.464,12.536-28,28-28s28,12.536,28,28C440,115.464,427.464,128,412,128z"/>
	</g>
	<g>
		<path style="fill:#FF9500;" d="M480,0H309.258c-10.688,0-20.734,4.16-28.289,11.715L9.375,283.313
			C3.328,289.355,0,297.395,0,305.941s3.328,16.582,9.375,22.625L183.43,502.625c6.047,6.047,14.078,9.375,22.633,9.375
			c8.547,0,16.578-3.328,22.625-9.375l271.594-271.598c7.555-7.555,11.719-17.602,11.719-28.281V32C512,14.355,497.648,0,480,0z
			 M472,202.745L206.059,468.687L43.314,305.941L309.255,40H472V202.745z"/>
	</g>
	<g>
		<g>
			<path style="fill:#FFEE43;" d="M206.063,476.688c-2.047,0-4.094-0.781-5.656-2.344l-3.648-3.648
				c-3.125-3.125-3.125-8.188,0-11.313c2.414-2.414,5.992-2.969,8.938-1.641l2.375-2.375c3.125-3.125,8.188-3.125,11.313,0
				s3.125,8.188,0,11.313l-7.664,7.664C210.156,475.906,208.109,476.688,206.063,476.688z M179.789,450.414
				c-2.047,0-4.094-0.781-5.656-2.344l-11.313-11.316c-3.125-3.125-3.125-8.191,0-11.313c3.125-3.125,8.188-3.125,11.313,0
				l11.313,11.316c3.125,3.125,3.125,8.191,0,11.313C183.883,449.633,181.836,450.414,179.789,450.414z M236.359,446.395
				c-2.047,0-4.094-0.781-5.656-2.344c-3.125-3.125-3.125-8.188,0-11.313l11.313-11.313c3.125-3.125,8.188-3.125,11.313,0
				s3.125,8.188,0,11.313l-11.313,11.313C240.453,445.613,238.406,446.395,236.359,446.395z M145.844,416.473
				c-2.047,0-4.094-0.781-5.656-2.344l-11.313-11.313c-3.125-3.125-3.125-8.188,0-11.313s8.188-3.125,11.313,0l11.312,11.313
				c3.125,3.125,3.125,8.188,0,11.313C149.938,415.691,147.891,416.473,145.844,416.473z M270.297,412.453
				c-2.047,0-4.094-0.781-5.656-2.344c-3.125-3.125-3.125-8.188,0-11.313l11.313-11.313c3.125-3.125,8.188-3.125,11.313,0
				s3.125,8.188,0,11.313l-11.313,11.313C274.391,411.672,272.344,412.453,270.297,412.453z M111.906,382.531
				c-2.047,0-4.094-0.781-5.656-2.344l-11.313-11.313c-3.125-3.125-3.125-8.188,0-11.313s8.188-3.125,11.313,0l11.313,11.313
				c3.125,3.125,3.125,8.188,0,11.313C116,381.75,113.953,382.531,111.906,382.531z M304.234,378.512
				c-2.047,0-4.094-0.781-5.656-2.344c-3.125-3.125-3.125-8.191,0-11.316l11.32-11.313c3.125-3.117,8.188-3.121,11.313,0.004
				s3.125,8.191,0,11.316l-11.32,11.313C308.328,377.73,306.281,378.512,304.234,378.512z M77.961,348.59
				c-2.047,0-4.094-0.781-5.656-2.344l-11.313-11.313c-3.125-3.125-3.125-8.188,0-11.313s8.188-3.125,11.313,0l11.313,11.313
				c3.125,3.125,3.125,8.188,0,11.313C82.055,347.809,80.008,348.59,77.961,348.59z M338.18,344.57
				c-2.047,0-4.094-0.781-5.656-2.344c-3.125-3.125-3.125-8.188,0-11.313l11.313-11.313c3.125-3.125,8.188-3.125,11.313,0
				s3.125,8.188,0,11.313l-11.313,11.313C342.273,343.789,340.227,344.57,338.18,344.57z M44.023,314.648
				c-2.039,0-4.078-0.773-5.641-2.328l-0.711-0.707c-1.508-1.5-2.359-3.535-2.359-5.66s0.836-4.164,2.344-5.668l10.602-10.605
				c3.125-3.125,8.188-3.125,11.313,0c3.125,3.121,3.125,8.188,0,11.313l-7.852,7.859c-0.359,1.258-1.031,2.445-2.023,3.438
				C48.133,313.863,46.078,314.648,44.023,314.648z M372.117,310.629c-2.047,0-4.094-0.781-5.656-2.344
				c-3.125-3.125-3.125-8.188,0-11.313l11.313-11.313c3.125-3.125,8.188-3.125,11.313,0s3.125,8.188,0,11.313l-11.313,11.313
				C376.211,309.848,374.164,310.629,372.117,310.629z M76.547,280.707c-2.047,0-4.094-0.781-5.656-2.344
				c-3.125-3.125-3.125-8.188,0-11.313l11.313-11.313c3.125-3.125,8.188-3.125,11.313,0s3.125,8.188,0,11.313l-11.313,11.313
				C80.641,279.926,78.594,280.707,76.547,280.707z M406.063,276.688c-2.047,0-4.094-0.781-5.656-2.344
				c-3.125-3.125-3.125-8.188,0-11.313l11.313-11.313c3.125-3.125,8.188-3.125,11.313,0s3.125,8.188,0,11.313l-11.313,11.313
				C410.156,275.906,408.109,276.688,406.063,276.688z M110.484,246.77c-2.047,0-4.094-0.781-5.656-2.344
				c-3.125-3.121-3.125-8.188,0-11.313l11.313-11.316c3.125-3.125,8.188-3.125,11.313,0c3.125,3.121,3.125,8.188,0,11.313
				l-11.313,11.316C114.578,245.988,112.531,246.77,110.484,246.77z M440,242.746c-2.047,0-4.094-0.781-5.656-2.344
				c-3.125-3.125-3.125-8.188,0-11.313l11.313-11.313c3.125-3.125,8.188-3.125,11.313,0s3.125,8.188,0,11.313l-11.313,11.313
				C444.094,241.965,442.047,242.746,440,242.746z M144.43,212.828c-2.047,0-4.094-0.781-5.656-2.344
				c-3.125-3.121-3.125-8.188,0-11.313l11.313-11.316c3.125-3.125,8.188-3.125,11.313,0c3.125,3.121,3.125,8.188,0,11.313
				l-11.313,11.316C148.523,212.047,146.477,212.828,144.43,212.828z M472,208c-4.422,0-8-3.582-8-8v-16c0-4.418,3.578-8,8-8
				s8,3.582,8,8v16C480,204.418,476.422,208,472,208z M178.367,178.887c-2.047,0-4.094-0.781-5.656-2.344
				c-3.125-3.125-3.125-8.188,0-11.313l11.313-11.313c3.125-3.125,8.188-3.125,11.313,0s3.125,8.188,0,11.313l-11.313,11.313
				C182.461,178.105,180.414,178.887,178.367,178.887z M472,160c-4.422,0-8-3.582-8-8v-16c0-4.418,3.578-8,8-8s8,3.582,8,8v16
				C480,156.418,476.422,160,472,160z M212.313,144.945c-2.047,0-4.094-0.781-5.656-2.344c-3.125-3.125-3.125-8.188,0-11.313
				l11.313-11.313c3.125-3.125,8.188-3.125,11.313,0s3.125,8.188,0,11.313l-11.313,11.313
				C216.406,144.164,214.359,144.945,212.313,144.945z M472,112c-4.422,0-8-3.582-8-8V88c0-4.418,3.578-8,8-8s8,3.582,8,8v16
				C480,108.418,476.422,112,472,112z M246.25,111.004c-2.047,0-4.094-0.781-5.656-2.344c-3.125-3.125-3.125-8.188,0-11.313
				l11.313-11.313c3.125-3.125,8.188-3.125,11.313,0s3.125,8.188,0,11.313l-11.313,11.313
				C250.344,110.223,248.297,111.004,246.25,111.004z M280.195,77.063c-2.047,0-4.094-0.781-5.656-2.344
				c-3.125-3.125-3.125-8.188,0-11.313l11.313-11.313c3.125-3.125,8.188-3.125,11.313,0s3.125,8.188,0,11.313l-11.313,11.313
				C284.289,76.281,282.242,77.063,280.195,77.063z M472,64c-4.422,0-8-3.582-8-8v-8h-3.844c-4.422,0-8-3.582-8-8s3.578-8,8-8H472
				c4.422,0,8,3.582,8,8v16C480,60.418,476.422,64,472,64z M428.156,48h-16c-4.422,0-8-3.582-8-8s3.578-8,8-8h16
				c4.422,0,8,3.582,8,8S432.578,48,428.156,48z M380.156,48h-16c-4.422,0-8-3.582-8-8s3.578-8,8-8h16c4.422,0,8,3.582,8,8
				S384.578,48,380.156,48z M332.156,48h-16c-4.422,0-8-3.582-8-8s3.578-8,8-8h16c4.422,0,8,3.582,8,8S336.578,48,332.156,48z"/>
		</g>
	</g>
</g>
<g>
</g>
<g>
</g>
<g>
</g>
<g>
</g>
<g>
</g>
<g>
</g>
<g>
</g>
<g>
</g>
<g>
</g>
<g>
</g>
<g>
</g>
<g>
</g>
<g>
</g>
<g>
</g>
<g>
</g>
</svg>
