<?xml version="1.0" encoding="iso-8859-1"?>
<!-- Generator: Adobe Illustrator 19.0.0, SVG Export Plug-In . SVG Version: 6.00 Build 0)  -->
<svg version="1.1" id="Layer_1" xmlns="http://www.w3.org/2000/svg" xmlns:xlink="http://www.w3.org/1999/xlink" x="0px" y="0px"
	 viewBox="0 0 511.995 511.995" style="enable-background:new 0 0 511.995 511.995;" xml:space="preserve">
<circle style="fill:#E21B1B;" cx="255.998" cy="255.998" r="255.998"/>
<path style="fill:#FFFFFF;" d="M256,465.896c-115.923,0-209.896-93.974-209.896-209.896S140.079,46.105,256,46.105
	S465.896,140.079,465.896,256C465.768,371.87,371.87,465.768,256,465.896z"/>
<path style="fill:#CCCCCC;" d="M256,52.104c112.609,0,203.896,91.287,203.896,203.896S368.609,459.897,256,459.897
	S52.104,368.609,52.104,256C52.232,143.445,143.445,52.232,256,52.104 M256,40.104c-119.236,0-215.896,96.66-215.896,215.896
	S136.764,471.896,256,471.896S471.896,375.236,471.896,256l0,0C471.896,136.764,375.236,40.104,256,40.104z"/>
<path style="fill:#939393;" d="M236.336,406.248v-34.968c-21.925-0.612-43.45-6.016-63.064-15.832l11.144-43.088
	c18.902,10.35,40.052,15.91,61.6,16.192c21.144,0,35.608-8.096,35.608-22.816c0-14-11.872-22.848-39.328-32.056
	c-39.688-13.256-66.784-31.664-66.784-67.376c0-32.416,23.016-57.816,62.704-65.552v-35h36.336v32.416
	c18.578,0.279,36.896,4.415,53.792,12.144l-10.752,41.6c-16.647-8.128-34.907-12.412-53.432-12.536
	c-24.104,0-31.896,10.312-31.896,20.632c0,12.144,12.984,19.88,44.52,31.664c44.128,15.472,61.944,35.712,61.944,68.88
	c0,32.8-23.376,60.752-66.024,68.128v37.544L236.336,406.248z"/>
<g>
</g>
<g>
</g>
<g>
</g>
<g>
</g>
<g>
</g>
<g>
</g>
<g>
</g>
<g>
</g>
<g>
</g>
<g>
</g>
<g>
</g>
<g>
</g>
<g>
</g>
<g>
</g>
<g>
</g>
</svg>
