<svg width="64px" height="64px" viewBox="0 0 64 64" xmlns="http://www.w3.org/2000/svg" xmlns:xlink="http://www.w3.org/1999/xlink">
  <defs>
    <circle id="currency-a" cx="18" cy="18" r="18"/>
  </defs>
  <g fill="none" fill-rule="evenodd">
    <g transform="translate(17 14)">
      <mask id="currency-b" fill="#fff">
        <use xlink:href="#currency-a"/>
      </mask>
      <use fill="#B4DFFB" xlink:href="#currency-a"/>
      <path fill="#22BA8E" d="M27.4995846 12.7538974C27.4995846 12.7538974 23.1285694 10.9700507 21.8266173 11.861974 20.5246651 12.7538974 21.2201882 16.9654295 21.2201882 16.9654295 21.2201882 16.9654295 19.2798118 19.7463344 20.25 21.2089567 21.2201882 22.671579 23.9151553 22.168808 25.4292591 23.4589466 26.943363 24.7490852 26.3142913 27.0645419 26.3142913 27.0645419L25.9480711 29.7678769C25.9480711 29.7678769 30.0035659 27.9505584 31.1721233 25.3323794 32.3406807 22.7142004 31.9621547 18.6094825 31.9621547 18.6094825L34.3292957 16.4633535 36.4108786 9.71288388 29.106228 7.35052093 28.3014296 3.75 23.0778696 5.23063215 22.6058196 9.15765453 26.6178479 10.4860101 27.4995846 12.7538974zM-1.35808945 15.0302297C-1.35808945 15.0302297.119366474 14.0882415.316563573 14.0732515 1.82943665 13.95825 7.10128473 14.2798648 8.47967433 12.2815326 10.0377316 10.0227256 11.3365045 7.03166932 11.3365045 7.03166932L11.2843185 4.73031431 3.13766281 2.73102683-1.35808945 15.0302297z" mask="url(#currency-b)"/>
    </g>
    <path fill="#0A3586" d="M59.144 51.106C59.0573329 51.106 58.5546713 50.9846679 57.636 50.742L51.942 51.652C51.942 52.1546692 51.9593332 52.6486642 51.994 53.134L56.076 52.536C56.613336 52.0506642 56.9946655 51.7906668 57.22 51.756 57.549335 51.7039997 57.9089981 51.9509973 58.299 52.497 58.6890019 53.0430027 58.9273329 53.584664 59.014 54.122 59.0660003 54.4860018 58.9966676 54.802332 58.806 55.071 58.6153324 55.339668 58.4073345 55.4913332 58.182 55.526 58.0953329 55.5433334 57.5926713 55.4306679 56.674 55.188L52.462 55.864C53.1380034 58.1693449 54.3773243 59.322 56.18 59.322 56.9080036 59.322 57.5146642 59.0446694 58 58.49 58.4333355 57.9873308 58.6933329 57.3633371 58.78 56.618 59.1266684 55.9073298 59.733329 55.552 60.6 55.552 61.137336 55.552 61.6226645 55.7036652 62.056 56.007 62.4893355 56.3103348 62.706 56.6786645 62.706 57.112 62.706 57.2160005 62.6973334 57.3199995 62.68 57.424 62.6279997 57.6146676 62.4633347 57.8313321 62.186 58.074 61.8739984 58.3686681 61.6833337 58.5593329 61.614 58.646 61.4753326 58.8713345 61.1806689 59.2786637 60.73 59.868 59.6033277 61.6533423 58.2946741 62.546 56.804 62.546 54.8106567 62.546 53.1293402 61.9566726 51.76 60.778 50.5119938 59.7379948 49.5933363 58.2820094 49.004 56.41L48.25 56.514C47.6779971 56.9646689 47.288001 57.2073332 47.08 57.242 46.4039966 57.3460005 45.9793342 56.860672 45.806 55.786 45.7886666 55.6126658 45.78 55.4566674 45.78 55.318 45.78 54.3646619 46.213329 53.8186674 47.08 53.68 47.2533342 53.6626666 47.6779966 53.654 48.354 53.654L48.432 53.654C48.3626663 53.1859977 48.3193334 52.7093358 48.302 52.224L48.094 52.25C47.5393306 52.6833355 47.1493345 52.9173332 46.924 52.952 46.2479966 53.0733339 45.8320008 52.5880055 45.676 51.496 45.6413332 51.3399992 45.624 51.1926674 45.624 51.054 45.624 50.1006619 46.0659956 49.5546674 46.95 49.416 47.1060008 49.3813332 47.5306632 49.3726666 48.224 49.39L48.432 49.364C48.761335 46.8679875 49.5846601 44.8833407 50.902 43.41 52.3926741 41.7633251 54.3599878 40.94 56.804 40.94 57.6013373 40.94 58.4506622 41.2259971 59.352 41.798 60.1146705 42.2833358 60.6779982 42.7859974 61.042 43.306 61.2326676 43.6006681 61.4666653 43.8606655 61.744 44.086 62.0213347 44.3113345 62.1686666 44.4326666 62.186 44.45 62.3246674 44.6926679 62.394 44.9353321 62.394 45.178 62.394 45.6633358 62.0906697 46.0793316 61.484 46.426 60.946664 46.7206681 60.34867 46.868 59.69 46.868 58.9273295 46.868 58.442001 46.6773352 58.234 46.296 58.1993332 46.2266663 58.1386671 45.8713365 58.052 45.23 57.9653329 45.0739992 57.7140021 44.8660013 57.298 44.606 56.8299977 44.3286653 56.4573347 44.19 56.18 44.19 53.9959891 44.19 52.6526692 45.7326512 52.15 48.818L57.038 48.116C57.5926694 47.6306642 57.973999 47.3706668 58.182 47.336 58.511335 47.2839997 58.8709981 47.526664 59.261 48.064 59.6510019 48.601336 59.8893329 49.138664 59.976 49.676 60.0280003 50.0573352 59.9586676 50.382332 59.768 50.651 59.5773324 50.919668 59.3693345 51.0713332 59.144 51.106zM13.672 3.1C14.0560019 3.26800084 14.248 3.56799784 14.248 4 14.248 4.64800324 13.948003 5.11599856 13.348 5.404 12.9639981 5.59600096 12.4240035 5.692 11.728 5.692 11.1039969 5.692 10.4680032 5.59000102 9.82 5.386 9.17199676 5.18199898 8.81200036 4.99600084 8.74 4.828 8.33199796 3.67599424 8.53599592 2.84800252 9.352 2.344 9.54400096 2.2239994 9.91599724 2.164 10.468 2.164 11.9800076 2.164 13.0479969 2.47599688 13.672 3.1zM18.748 16.312C18.748 18.0640088 17.8120094 20.2119873 15.94 22.756 14.139991 25.0600115 12.4120083 26.212 10.756 26.212 9.12399184 26.212 7.4680084 25.708005 5.788 24.7 4.3479928 23.6439947 3.65199976 22.6720044 3.7 21.784 3.74800024 21.2799975 4.35999412 21.028 5.536 21.028 6.52000492 21.028 7.4319958 21.1959983 8.272 21.532 8.56000144 21.7720012 9.02799676 22.0719982 9.676 22.432 10.084002 22.4560001 10.6659962 21.9880048 11.422 21.028 12.1780038 20.0679952 12.556 19.3240026 12.556 18.796 12.556 18.4839984 12.352002 18.328 11.944 18.328 11.7279989 18.328 10.816008 18.3999993 9.208 18.544 7.59999196 18.6880007 6.38800408 18.76 5.572 18.76 3.74799088 18.76 2.60800228 18.2200054 2.152 17.14 2.12799988 17.1159999 2.116 16.9960011 2.116 16.78 2.116 15.5319938 3.1959892 13.6360127 5.356 11.092 7.73201188 8.37998644 9.78399136 7.024 11.512 7.024 12.7360061 7.024 13.9719938 7.49199532 15.22 8.428 16.5400066 9.2680042 17.1520005 9.91599772 17.056 10.372 16.7679986 11.9080077 15.7960083 12.676 14.14 12.676 13.8759987 12.676 13.5880016 12.6340004 13.276 12.55 12.9639984 12.4659996 12.6400017 12.2020022 12.304 11.758 11.9679983 11.3139978 11.6080019 11.092 11.224 11.092 10.7919978 11.092 10.0180056 11.6979939 8.902 12.91 7.78599442 14.1220061 7.228 14.9919974 7.228 15.52 7.228 15.5920004 7.32399904 15.628 7.516 15.628 7.8760018 15.628 9.06398992 15.4120022 11.08 14.98 13.0960101 14.5479978 14.6679944 14.332 15.796 14.332 17.7640098 14.332 18.748 14.9919934 18.748 16.312zM13.708 29.56C13.708 30.568005 13.0240068 31.2999977 11.656 31.756 11.2959982 31.8520005 10.6540046 31.7260017 9.73 31.378 8.80599538 31.0299983 8.33200012 30.7120014 8.308 30.424 8.1879994 29.415995 8.39199736 28.7320018 8.92 28.372 9.20800144 28.1559989 9.67599676 28.048 10.324 28.048 11.116004 28.048 11.8479966 28.1559989 12.52 28.372 13.1920034 28.5880011 13.5579997 28.8099989 13.618 29.038 13.6780003 29.2660011 13.708 29.4399994 13.708 29.56z"/>
  </g>
</svg>
