<?xml version="1.0" encoding="iso-8859-1"?>
<!-- Generator: Adobe Illustrator 19.0.0, SVG Export Plug-In . SVG Version: 6.00 Build 0)  -->
<svg version="1.1" id="Layer_1" xmlns="http://www.w3.org/2000/svg" xmlns:xlink="http://www.w3.org/1999/xlink" x="0px" y="0px"
	 viewBox="0 0 512.004 512.004" style="enable-background:new 0 0 512.004 512.004;" xml:space="preserve">
<path style="fill:#3D6DEB;" d="M31.718,336.425C14.201,336.425,0,350.627,0,368.144v112.13c0,1.051,0.053,2.1,0.156,3.146
	c0.047,0.448,0.131,0.886,0.195,1.328c0.08,0.581,0.148,1.163,0.264,1.74c0.104,0.518,0.245,1.019,0.372,1.527
	c0.127,0.495,0.235,0.992,0.383,1.482c0.152,0.501,0.34,0.985,0.516,1.476c0.176,0.486,0.334,0.975,0.533,1.453
	c0.19,0.459,0.412,0.899,0.626,1.347c0.228,0.491,0.448,0.985,0.706,1.465c0.228,0.429,0.491,0.835,0.74,1.252
	c0.281,0.472,0.548,0.949,0.854,1.408c0.311,0.461,0.653,0.892,0.983,1.336c0.29,0.385,0.556,0.78,0.863,1.155
	c0.639,0.776,1.313,1.522,2.019,2.235c0.03,0.03,0.051,0.059,0.08,0.089c0.036,0.034,0.072,0.061,0.106,0.095
	c0.708,0.7,1.446,1.37,2.218,2.003c0.376,0.309,0.772,0.581,1.161,0.869c0.442,0.33,0.871,0.67,1.33,0.977
	c0.459,0.307,0.933,0.573,1.404,0.854c0.419,0.25,0.827,0.512,1.258,0.742c0.478,0.256,0.968,0.472,1.455,0.702
	c0.453,0.214,0.897,0.438,1.358,0.63c0.474,0.195,0.956,0.353,1.436,0.524c0.497,0.18,0.987,0.368,1.495,0.524
	c0.48,0.144,0.962,0.25,1.446,0.37c0.52,0.131,1.036,0.277,1.567,0.383c0.556,0.11,1.112,0.176,1.673,0.256
	c0.465,0.066,0.924,0.154,1.393,0.201c1.04,0.102,2.085,0.159,3.132,0.159h112.14c17.517,0,31.718-14.201,31.718-31.718
	s-14.201-31.718-31.718-31.718h-35.567l147.709-147.707l147.709,147.707h-35.573c-17.517,0-31.718,14.201-31.718,31.718
	s14.201,31.718,31.718,31.718h112.14c1.045,0,2.089-0.055,3.13-0.159c0.472-0.047,0.928-0.135,1.393-0.201
	c0.56-0.08,1.116-0.146,1.673-0.256c0.531-0.106,1.047-0.252,1.567-0.383c0.484-0.121,0.966-0.226,1.446-0.37
	c0.508-0.154,0.998-0.345,1.495-0.524c0.48-0.173,0.962-0.33,1.436-0.524c0.461-0.192,0.905-0.417,1.358-0.63
	c0.486-0.228,0.979-0.446,1.457-0.702c0.431-0.23,0.837-0.493,1.258-0.742c0.472-0.281,0.945-0.548,1.404-0.854
	c0.459-0.307,0.888-0.649,1.33-0.977c0.389-0.29,0.784-0.56,1.161-0.869c0.772-0.632,1.51-1.3,2.218-2.003
	c0.034-0.034,0.07-0.061,0.106-0.095c0.03-0.03,0.051-0.059,0.08-0.089c0.706-0.713,1.381-1.457,2.019-2.235
	c0.307-0.374,0.573-0.77,0.863-1.155c0.33-0.442,0.672-0.875,0.983-1.336c0.309-0.459,0.573-0.937,0.854-1.408
	c0.247-0.417,0.512-0.823,0.74-1.252c0.258-0.482,0.478-0.975,0.706-1.465c0.211-0.448,0.436-0.886,0.626-1.347
	c0.199-0.478,0.357-0.966,0.533-1.453c0.176-0.491,0.364-0.975,0.516-1.476c0.146-0.491,0.256-0.987,0.383-1.482
	c0.127-0.508,0.269-1.011,0.372-1.527c0.116-0.577,0.184-1.159,0.264-1.74c0.063-0.444,0.148-0.88,0.195-1.328
	c0.104-1.047,0.157-2.096,0.157-3.146v-112.13c0-17.517-14.201-31.718-31.718-31.718s-31.718,14.201-31.718,31.718v35.567
	L300.859,256.003l147.709-147.707v35.567c0,17.517,14.201,31.718,31.718,31.718s31.718-14.201,31.718-31.718V31.735
	c0-1.051-0.053-2.1-0.157-3.146c-0.044-0.448-0.129-0.886-0.195-1.33c-0.082-0.579-0.15-1.161-0.264-1.738
	c-0.104-0.52-0.245-1.021-0.374-1.533c-0.125-0.493-0.233-0.99-0.381-1.478c-0.152-0.503-0.343-0.99-0.518-1.484
	c-0.173-0.482-0.332-0.968-0.529-1.444c-0.195-0.463-0.419-0.907-0.632-1.36c-0.228-0.486-0.446-0.975-0.7-1.453
	c-0.233-0.438-0.499-0.85-0.753-1.275c-0.277-0.463-0.537-0.933-0.842-1.383c-0.319-0.478-0.672-0.926-1.015-1.383
	c-0.279-0.37-0.535-0.749-0.829-1.108c-1.328-1.618-2.812-3.1-4.43-4.428c-0.366-0.302-0.753-0.565-1.129-0.846
	c-0.45-0.336-0.892-0.685-1.362-1c-0.457-0.304-0.928-0.569-1.398-0.848c-0.419-0.252-0.831-0.514-1.26-0.746
	c-0.48-0.256-0.973-0.474-1.461-0.704c-0.45-0.211-0.892-0.436-1.351-0.628c-0.476-0.197-0.962-0.355-1.444-0.527
	c-0.493-0.178-0.983-0.366-1.489-0.52c-0.48-0.146-0.968-0.252-1.455-0.374c-0.518-0.129-1.028-0.275-1.556-0.379
	c-0.558-0.112-1.123-0.176-1.685-0.258c-0.463-0.066-0.918-0.154-1.383-0.201c-1.034-0.101-2.072-0.156-3.111-0.156
	c-0.008,0-0.015-0.002-0.021-0.002H368.141c-17.517,0-31.718,14.201-31.718,31.718s14.201,31.718,31.718,31.718h35.567
	L255.999,211.143L108.292,63.44h35.567c17.517,0,31.718-14.201,31.718-31.718S161.375,0.004,143.859,0.004H31.718
	c-0.017,0-0.032,0.002-0.049,0.002c-1.028,0.002-2.055,0.055-3.081,0.156c-0.478,0.047-0.939,0.135-1.41,0.203
	c-0.554,0.08-1.106,0.144-1.656,0.254c-0.537,0.106-1.057,0.254-1.586,0.387c-0.476,0.121-0.954,0.224-1.425,0.366
	c-0.516,0.156-1.015,0.349-1.52,0.531c-0.472,0.169-0.945,0.324-1.41,0.516c-0.472,0.197-0.924,0.427-1.383,0.645
	c-0.48,0.226-0.96,0.438-1.425,0.687c-0.446,0.237-0.867,0.51-1.298,0.765c-0.457,0.275-0.92,0.533-1.366,0.829
	c-0.48,0.321-0.93,0.679-1.391,1.023c-0.366,0.275-0.744,0.529-1.1,0.823c-1.62,1.328-3.102,2.812-4.432,4.43
	c-0.294,0.359-0.55,0.74-0.829,1.108c-0.343,0.457-0.696,0.905-1.015,1.383c-0.302,0.453-0.562,0.92-0.839,1.385
	c-0.254,0.423-0.52,0.837-0.753,1.275c-0.256,0.476-0.472,0.966-0.702,1.451c-0.211,0.453-0.438,0.897-0.63,1.36
	c-0.197,0.476-0.355,0.962-0.529,1.444c-0.176,0.493-0.366,0.979-0.518,1.484C1.224,23,1.114,23.495,0.99,23.989
	c-0.129,0.51-0.271,1.013-0.374,1.533c-0.114,0.575-0.182,1.157-0.264,1.738c-0.063,0.444-0.148,0.882-0.195,1.33
	C0.053,29.635,0,30.684,0,31.735v112.13c0,17.517,14.201,31.718,31.718,31.718s31.718-14.201,31.718-31.718v-35.567l147.709,147.707
	L63.436,403.71v-35.567C63.436,350.627,49.235,336.425,31.718,336.425z"/>
<g>
</g>
<g>
</g>
<g>
</g>
<g>
</g>
<g>
</g>
<g>
</g>
<g>
</g>
<g>
</g>
<g>
</g>
<g>
</g>
<g>
</g>
<g>
</g>
<g>
</g>
<g>
</g>
<g>
</g>
</svg>
