<?xml version="1.0" encoding="iso-8859-1"?>
<!-- Generator: Adobe Illustrator 19.0.0, SVG Export Plug-In . SVG Version: 6.00 Build 0)  -->
<svg version="1.1" id="Layer_1" xmlns="http://www.w3.org/2000/svg" xmlns:xlink="http://www.w3.org/1999/xlink" x="0px" y="0px"
	 viewBox="0 0 280.028 280.028" style="enable-background:new 0 0 280.028 280.028;" xml:space="preserve">
<g>
	<g>
		<g>
			<path style="fill:#E4E7E7;" d="M140.014,0.005C62.691,0.005,0,62.688,0,140.01s62.691,140.014,140.014,140.014
				c77.331,0,140.014-62.691,140.014-140.014S217.345,0.005,140.014,0.005z M140.014,201.266c-33.831,0-61.256-27.425-61.256-61.256
				c0-33.822,27.425-61.256,61.256-61.256s61.256,27.434,61.256,61.256C201.27,173.84,173.844,201.266,140.014,201.266z"/>
		</g>
		<g>
			<path style="fill:#E4E7E7;" d="M140.014,0.005C62.691,0.005,0,62.688,0,140.01s62.691,140.014,140.014,140.014
				c77.331,0,140.014-62.691,140.014-140.014S217.345,0.005,140.014,0.005z M140.014,201.266c-33.831,0-61.256-27.425-61.256-61.256
				c0-33.822,27.425-61.256,61.256-61.256s61.256,27.434,61.256,61.256C201.27,173.84,173.844,201.266,140.014,201.266z"/>
		</g>
	</g>
	<path style="fill:#CDCFCF;" d="M140.014,279.988C62.656,279.988,0,217.333,0,139.975C0,99.371,17.239,62.793,44.892,37.328
		C22.402,62.18,8.751,95.083,8.751,131.224c0,77.358,62.656,140.014,140.014,140.014c36.229,0,69.307-13.739,94.159-36.316
		C217.371,262.661,180.705,279.988,140.014,279.988z"/>
	<path style="fill:#CDCFCF;" d="M201.27,139.975c0-33.778-27.39-61.256-61.256-61.256c-14.701,0-28.178,5.163-38.679,13.826
		c11.201-13.739,28.265-22.577,47.43-22.577c33.866,0,61.256,27.478,61.256,61.256c0,19.164-8.751,36.229-22.577,47.43
		C196.107,168.152,201.27,154.676,201.27,139.975z"/>
	<g>
		<path style="fill:#E2574C;" d="M111.827,85.659c8.445-4.384,18.018-6.904,28.187-6.904c10.168,0,19.742,2.52,28.187,6.904
			L182.57,6.63c-13.433-4.279-27.714-6.624-42.555-6.624c-14.841,0-29.123,2.354-42.547,6.633L111.827,85.659z"/>
		<path style="fill:#E2574C;" d="M85.662,168.197c-4.393-8.445-6.904-18.018-6.904-28.187c0-10.168,2.52-19.733,6.904-28.178
			L6.633,97.464C2.354,110.887,0,125.169,0,140.01s2.354,29.123,6.633,42.547L85.662,168.197z"/>
		<path style="fill:#E2574C;" d="M194.365,111.833c4.384,8.445,6.904,18.009,6.904,28.178c0,10.169-2.512,19.742-6.904,28.187
			l79.029,14.369c4.279-13.433,6.633-27.714,6.633-42.555s-2.354-29.123-6.633-42.547L194.365,111.833z"/>
		<path style="fill:#E2574C;" d="M168.2,194.361c-8.445,4.393-18.018,6.904-28.187,6.904c-10.169,0-19.742-2.512-28.187-6.904
			l-14.368,79.029c13.424,4.279,27.705,6.633,42.547,6.633c14.841,0,29.123-2.354,42.547-6.633L168.2,194.361z"/>
	</g>
	<path style="fill:#CDCFCF;" d="M140.014,279.988C62.656,279.988,0,217.333,0,139.975C0,99.371,17.239,62.793,44.892,37.328
		C22.402,62.18,8.751,95.083,8.751,131.224c0,77.358,62.656,140.014,140.014,140.014c36.229,0,69.307-13.739,94.159-36.316
		C217.371,262.661,180.705,279.988,140.014,279.988z"/>
	<path style="fill:#CB4E44;" d="M170.327,73.95c-6.712-2.529-13.958-3.982-21.562-3.982c-14.133,0-27.11,4.83-37.445,12.873
		l0.516,2.818c2.039-1.059,4.157-2.004,6.327-2.835c1.129-0.429,2.301-0.744,3.465-1.111c1.864-0.595,3.745-1.111,5.671-1.523
		c1.199-0.254,2.371-0.481,3.588-0.665c2.564-0.385,5.163-0.63,7.823-0.683c0.429-0.017,0.849-0.123,1.304-0.123
		c2.511,0,4.97,0.193,7.403,0.49c0.14,0.009,0.263,0.044,0.403,0.061c2.266,0.289,4.489,0.709,6.668,1.243
		c0.201,0.052,0.411,0.105,0.613,0.158c2.223,0.56,4.393,1.243,6.519,2.048c0.026,0.009,0.053,0.018,0.079,0.026
		c2.231,0.849,4.41,1.794,6.511,2.888L170.327,73.95z"/>
	<path style="fill:#CB4E44;" d="M197.165,118.081c0.096,0.245,0.184,0.499,0.263,0.735c0.683,1.855,1.278,3.745,1.785,5.671
		c0.123,0.473,0.245,0.936,0.359,1.409c0.42,1.785,0.753,3.597,1.015,5.443c0.079,0.534,0.184,1.05,0.236,1.584
		c0.271,2.319,0.446,4.673,0.446,7.053v0.009c0,0.009,0,0.009,0,0.018c0,3.255-0.341,6.406-0.84,9.521
		c-0.14,0.901-0.315,1.776-0.499,2.66c-0.508,2.459-1.146,4.874-1.934,7.219c-0.21,0.63-0.376,1.295-0.604,1.925
		c-0.884,2.363-1.89,4.647-3.037,6.861l2.8,0.516c8.068-10.344,12.864-23.33,12.864-37.48c0-7.578-1.444-14.815-3.964-21.518
		l-11.674,2.118C195.424,113.845,196.352,115.937,197.165,118.081z"/>
	<path style="fill:#CB4E44;" d="M17.843,180.527c-5.784-15.358-9.092-31.923-9.092-49.302c0-11.271,1.47-22.166,3.973-32.658
		l-6.091-1.103c-0.184,0.604-0.324,1.234-0.516,1.829c-0.919,3.072-1.794,6.161-2.511,9.311c-0.394,1.724-0.7,3.474-1.033,5.224
		c-0.516,2.748-0.971,5.522-1.321,8.322c-0.201,1.523-0.403,3.054-0.543,4.585c-0.411,4.332-0.691,8.698-0.691,13.135
		C0.009,139.913,0,139.949,0,139.993c0,4.34,0.263,8.62,0.648,12.864c0.14,1.444,0.333,2.87,0.516,4.297
		c0.333,2.757,0.753,5.496,1.251,8.2c0.306,1.68,0.621,3.36,0.989,5.023c0.56,2.529,1.234,5.023,1.934,7.499
		c0.438,1.549,0.805,3.115,1.286,4.638c0,0.018,0.009,0.026,0.009,0.044L17.843,180.527z"/>
	<path style="fill:#CB4E44;" d="M181.44,267.255c-10.501,2.512-21.405,3.982-32.676,3.982c-17.362,0-33.918-3.308-49.259-9.075
		l-2.03,11.201c0.096,0.035,0.184,0.079,0.28,0.105c1.041,0.333,2.126,0.578,3.177,0.893c3.019,0.875,6.056,1.671,9.145,2.354
		c1.304,0.289,2.634,0.534,3.955,0.779c3.185,0.595,6.414,1.103,9.678,1.479c0.989,0.122,1.978,0.254,2.975,0.35
		c4.393,0.411,8.83,0.665,13.328,0.665c4.682,0,9.293-0.289,13.853-0.735c1.033-0.105,2.039-0.236,3.072-0.359
		c3.518-0.429,7.001-0.998,10.431-1.671c1.155-0.228,2.328-0.429,3.465-0.691c3.973-0.893,7.876-1.951,11.717-3.168L181.44,267.255z
		"/>
</g>
<g>
</g>
<g>
</g>
<g>
</g>
<g>
</g>
<g>
</g>
<g>
</g>
<g>
</g>
<g>
</g>
<g>
</g>
<g>
</g>
<g>
</g>
<g>
</g>
<g>
</g>
<g>
</g>
<g>
</g>
</svg>
