<?xml version="1.0" encoding="iso-8859-1"?>
<!-- Generator: Adobe Illustrator 19.0.0, SVG Export Plug-In . SVG Version: 6.00 Build 0)  -->
<svg version="1.1" id="Capa_1" xmlns="http://www.w3.org/2000/svg" xmlns:xlink="http://www.w3.org/1999/xlink" x="0px" y="0px"
	 viewBox="0 0 390.574 390.574" style="enable-background:new 0 0 390.574 390.574;" xml:space="preserve">
<g>
	<g id="Guides_For_Artboard_50_">
	</g>
	<g id="Artwork_49_">
	</g>
	<g id="Layer_2_49_">
		<g>
			<path style="fill:#D43D21;" d="M309.164,0H90.336C73.607,0,51.122,14.813,51.122,29.753c0,0,0,304.703,0,328.372
				s22.485,32.448,39.214,32.448h7.317c-16.236,0-26.4-12.111-26.4-27.051L70.179,81.267c0,0-1.97,0-1.926,0V47.789
				c0-14.94,13.164-27.051,29.4-27.051h212.401c16.237,0,29.399,12.11,29.399,27.051V27.051C339.454,12.111,325.893,0,309.164,0z"/>
			<path style="fill:#F7F1E6;" d="M310.054,20.739H97.653c-16.236,0-29.4,12.11-29.4,27.051v33.478c1.025,0,13.83,0,29.4,0h212.401
				c16.237,0,29.399,12.111,29.399,27.051V47.791C339.454,32.85,326.292,20.739,310.054,20.739z"/>
			<path style="fill:#E74424;" d="M310.054,81.268H97.653c-15.57,0-28.375,0-29.4,0c-0.044,0-0.074,0-0.074,0l0.074,282.255
				c0,14.94,13.164,27.051,29.4,27.051h203.232h9.169c16.237,0,29.399-12.111,29.399-27.051v-73.529v-20.739V108.318
				C339.454,93.379,326.292,81.268,310.054,81.268z M126.507,193.772c0-10.496,8.515-19.008,19.008-19.008h30.18v-30.179
				c0-10.501,8.514-19.01,19.012-19.01h1.732h10.98c10.5,0,19.01,8.509,19.01,19.01v30.179h30.178
				c10.502,0,19.013,8.512,19.013,19.008v12.715c0,10.499-8.511,19.008-19.013,19.008h-30.178v30.18
				c0,10.501-8.51,19.014-19.01,19.014h-10.98h-1.732c-10.498,0-19.012-8.513-19.012-19.014v-30.18h-30.18
				c-10.493,0-19.008-8.509-19.008-19.008V193.772z M118.882,293.095h169.869c5.509,0,9.977,3.881,9.977,8.668
				s-4.468,8.668-9.977,8.668H118.882c-5.51,0-9.977-3.881-9.977-8.668S113.372,293.095,118.882,293.095z M265.751,342.107H141.882
				c-5.51,0-9.977-3.881-9.977-8.668s4.467-8.668,9.977-8.668h123.869c5.509,0,9.977,3.881,9.977,8.668
				S271.26,342.107,265.751,342.107z"/>
			<path style="fill:#F7F1E6;" d="M145.514,225.494h30.18v30.18c0,10.501,8.514,19.014,19.012,19.014h1.732h10.98
				c10.5,0,19.01-8.513,19.01-19.014v-30.18h30.178c10.502,0,19.013-8.509,19.013-19.008v-12.715
				c0-10.496-8.511-19.008-19.013-19.008h-30.178v-30.179c0-10.501-8.51-19.01-19.01-19.01h-10.98h-1.732
				c-10.498,0-19.012,8.509-19.012,19.01v30.179h-30.18c-10.493,0-19.008,8.512-19.008,19.008v12.715
				C126.507,216.985,135.021,225.494,145.514,225.494z"/>
			<path style="fill:#F7F1E6;" d="M118.882,310.432h169.869c5.509,0,9.977-3.881,9.977-8.668s-4.468-8.668-9.977-8.668H118.882
				c-5.51,0-9.977,3.881-9.977,8.668S113.372,310.432,118.882,310.432z"/>
			<path style="fill:#F7F1E6;" d="M265.751,324.77H141.882c-5.51,0-9.977,3.881-9.977,8.668s4.467,8.668,9.977,8.668h123.869
				c5.509,0,9.977-3.881,9.977-8.668S271.26,324.77,265.751,324.77z"/>
		</g>
	</g>
</g>
<g>
</g>
<g>
</g>
<g>
</g>
<g>
</g>
<g>
</g>
<g>
</g>
<g>
</g>
<g>
</g>
<g>
</g>
<g>
</g>
<g>
</g>
<g>
</g>
<g>
</g>
<g>
</g>
<g>
</g>
</svg>
