<?xml version="1.0" encoding="iso-8859-1"?>
<!-- Generator: Adobe Illustrator 19.0.0, SVG Export Plug-In . SVG Version: 6.00 Build 0)  -->
<svg version="1.1" id="Layer_1" xmlns="http://www.w3.org/2000/svg" xmlns:xlink="http://www.w3.org/1999/xlink" x="0px" y="0px"
	 viewBox="0 0 511.999 511.999" style="enable-background:new 0 0 511.999 511.999;" xml:space="preserve">
<path style="fill:#E5E5E5;" d="M502.967,213.771l-62.33,204.8c-2.763,9.077-11.136,15.281-20.623,15.281h-13.108H29.642
	c-11.906,0-21.558-9.651-21.558-21.558V99.705c0-11.906,9.651-21.558,21.558-21.558h355.705c11.906,0,21.558,9.651,21.558,21.558
	v86.232h7.523h3.256h64.66C496.82,185.937,507.183,199.922,502.967,213.771z"/>
<path style="fill:#C1C1C1;" d="M502.967,213.771l-62.33,204.8c-2.763,9.077-11.136,15.281-20.623,15.281h-13.108V185.937h7.523
	h3.256h64.66C496.82,185.937,507.183,199.922,502.967,213.771z"/>
<path style="fill:#9B9B9B;" d="M406.905,433.852L406.905,433.852V185.937h43.116l-30.943,237.227
	C418.28,429.279,413.072,433.852,406.905,433.852z"/>
<path style="fill:#93D6BB;" d="M51.2,250.61V142.821c0-5.953,4.826-10.779,10.779-10.779h107.789
	c5.953,0,10.779,4.826,10.779,10.779V250.61c0,5.953-4.826,10.779-10.779,10.779H61.979C56.026,261.389,51.2,256.563,51.2,250.61z"
	/>
<path style="fill:#A7E5CB;" d="M153.6,196.716c0,20.836-16.891,37.726-37.726,37.726s-37.726-16.891-37.726-37.726
	s16.891-37.726,37.726-37.726S153.6,175.88,153.6,196.716z"/>
<path d="M43.115,304.505c0-4.466,3.62-8.084,8.084-8.084h107.787c4.465,0,8.084,3.618,8.084,8.084s-3.62,8.084-8.084,8.084H51.199
	C46.734,312.589,43.115,308.971,43.115,304.505z M51.199,382.652c-4.465,0-8.084,3.618-8.084,8.084s3.62,8.084,8.084,8.084h53.894
	c4.465,0,8.084-3.618,8.084-8.084s-3.62-8.084-8.084-8.084H51.199z M43.115,250.61V142.821c0-10.401,8.461-18.863,18.863-18.863
	h107.787c10.401,0,18.863,8.463,18.863,18.863V250.61c0,10.401-8.461,18.863-18.863,18.863H61.978
	C51.577,269.473,43.115,261.011,43.115,250.61z M59.283,250.61c0,1.486,1.209,2.695,2.695,2.695h107.787
	c1.485,0,2.695-1.208,2.695-2.695V142.821c0-1.486-1.209-2.695-2.695-2.695H61.978c-1.485,0-2.695,1.208-2.695,2.695V250.61z
	 M506.15,189.847c-5.648-7.623-14.33-11.995-23.816-11.995h-43.101c-4.465,0-8.084,3.618-8.084,8.084
	c0,4.466,3.618,8.084,8.084,8.084h43.101c4.313,0,8.259,1.988,10.826,5.453c2.568,3.465,3.319,7.818,2.064,11.944l-62.329,204.8
	c-1.739,5.713-6.919,9.55-12.891,9.55h-5.023V266.779c0-4.466-3.618-8.084-8.084-8.084s-8.084,3.618-8.084,8.084v158.989H29.641
	c-7.429,0-13.474-6.044-13.474-13.474V99.705c0-7.43,6.044-13.474,13.474-13.474H385.34c7.429,0,13.474,6.044,13.474,13.474v134.737
	c0,4.466,3.618,8.084,8.084,8.084s8.084-3.618,8.084-8.084V99.705c0-16.344-13.298-29.642-29.641-29.642h-355.7
	C13.297,70.063,0,83.361,0,99.705v312.589c0,16.344,13.297,29.642,29.641,29.642h390.363c13.137,0,24.533-8.444,28.357-21.011
	l62.329-204.8C513.453,207.048,511.798,197.47,506.15,189.847z M296.416,347.621c0-4.466-3.618-8.084-8.084-8.084H51.199
	c-4.465,0-8.084,3.618-8.084,8.084s3.62,8.084,8.084,8.084h237.133C292.796,355.705,296.416,352.087,296.416,347.621z
	 M363.783,339.537h-43.115c-4.465,0-8.084,3.618-8.084,8.084s3.618,8.084,8.084,8.084h43.115c4.465,0,8.084-3.618,8.084-8.084
	S368.248,339.537,363.783,339.537z M363.783,167.073H223.659c-4.465,0-8.084,3.618-8.084,8.084c0,4.466,3.62,8.084,8.084,8.084
	h140.124c4.465,0,8.084-3.618,8.084-8.084C371.867,170.692,368.248,167.073,363.783,167.073z M363.783,123.958H223.659
	c-4.465,0-8.084,3.618-8.084,8.084c0,4.466,3.62,8.084,8.084,8.084h140.124c4.465,0,8.084-3.618,8.084-8.084
	C371.867,127.576,368.248,123.958,363.783,123.958z M363.783,210.189H223.659c-4.465,0-8.084,3.618-8.084,8.084
	s3.62,8.084,8.084,8.084h140.124c4.465,0,8.084-3.618,8.084-8.084S368.248,210.189,363.783,210.189z M363.783,296.421h-172.46
	c-4.465,0-8.084,3.618-8.084,8.084s3.62,8.084,8.084,8.084h172.46c4.465,0,8.084-3.618,8.084-8.084S368.248,296.421,363.783,296.421
	z M137.428,398.821h226.354c4.465,0,8.084-3.618,8.084-8.084s-3.618-8.084-8.084-8.084H137.428c-4.465,0-8.084,3.618-8.084,8.084
	S132.964,398.821,137.428,398.821z M363.783,253.305H223.659c-4.465,0-8.084,3.618-8.084,8.084c0,4.466,3.62,8.084,8.084,8.084
	h140.124c4.465,0,8.084-3.618,8.084-8.084C371.867,256.923,368.248,253.305,363.783,253.305z"/>
<g>
</g>
<g>
</g>
<g>
</g>
<g>
</g>
<g>
</g>
<g>
</g>
<g>
</g>
<g>
</g>
<g>
</g>
<g>
</g>
<g>
</g>
<g>
</g>
<g>
</g>
<g>
</g>
<g>
</g>
</svg>
