<?xml version="1.0" encoding="iso-8859-1"?>
<!-- Generator: Adobe Illustrator 19.0.0, SVG Export Plug-In . SVG Version: 6.00 Build 0)  -->
<svg version="1.1" id="Layer_1" xmlns="http://www.w3.org/2000/svg" xmlns:xlink="http://www.w3.org/1999/xlink" x="0px" y="0px"
	 viewBox="0 0 512 512" style="enable-background:new 0 0 512 512;" xml:space="preserve">
<g>
	<rect x="49.975" y="86.061" style="fill:#57555C;" width="353.092" height="95.715"/>
	<rect x="49.975" y="228.854" style="fill:#57555C;" width="353.092" height="95.705"/>
	<rect x="49.975" y="371.647" style="fill:#57555C;" width="353.092" height="95.705"/>
</g>
<g>
	<rect x="226.511" y="86.061" style="fill:#3C3A41;" width="176.551" height="95.715"/>
	<rect x="226.511" y="228.854" style="fill:#3C3A41;" width="176.551" height="95.705"/>
	<rect x="226.511" y="371.647" style="fill:#3C3A41;" width="176.551" height="95.705"/>
</g>
<rect x="23.133" style="fill:#FFB74D;" width="406.767" height="120.971"/>
<g>
	<rect x="59.708" y="43.965" style="fill:#FFFFFF;" width="23.235" height="24.178"/>
	<rect x="101.508" y="43.965" style="fill:#FFFFFF;" width="23.235" height="24.178"/>
</g>
<rect x="23.133" y="156.227" style="fill:#FFB74D;" width="406.767" height="120.971"/>
<g>
	<rect x="59.708" y="199.964" style="fill:#FFFFFF;" width="23.235" height="24.178"/>
	<rect x="101.508" y="199.964" style="fill:#FFFFFF;" width="23.235" height="24.178"/>
</g>
<rect x="23.133" y="312.444" style="fill:#FFB74D;" width="406.767" height="120.982"/>
<g>
	<rect x="59.708" y="360.851" style="fill:#FFFFFF;" width="23.235" height="24.178"/>
	<rect x="101.508" y="360.851" style="fill:#FFFFFF;" width="23.235" height="24.178"/>
</g>
<g>
	<rect x="226.511" style="fill:#FFA91E;" width="203.389" height="120.971"/>
	<rect x="226.511" y="156.227" style="fill:#FFA91E;" width="203.389" height="120.971"/>
	<rect x="226.511" y="312.444" style="fill:#FFA91E;" width="203.389" height="120.982"/>
</g>
<path style="fill:#67BFFF;" d="M488.867,406.379C488.867,464.713,441.58,512,383.246,512c-0.251,0-0.503,0-0.754-0.01
	c-28.533-0.188-54.365-11.707-73.255-30.272c-16.963-16.67-28.324-39.015-30.994-63.978c-0.398-3.728-0.618-7.518-0.618-11.361
	c0-31.654,13.937-60.051,35.989-79.412c0.241-0.209,0.482-0.419,0.723-0.618c8.597-7.413,18.408-13.455,29.078-17.811
	c12.073-4.911,25.256-7.675,39.078-7.759c0.251-0.01,0.503-0.01,0.754-0.01C441.58,300.769,488.867,348.045,488.867,406.379z"/>
<path style="fill:#0088FF;" d="M488.867,406.379C488.867,464.713,441.58,512,383.246,512c-0.251,0-0.503,0-0.754-0.01v-211.21
	c0.251-0.01,0.503-0.01,0.754-0.01C441.58,300.769,488.867,348.045,488.867,406.379z"/>
<polygon style="fill:#FFFFFF;" points="438.826,391.699 438.826,423.112 398.953,423.112 398.953,465.059 367.54,465.059 
	367.54,423.112 327.666,423.112 327.666,391.699 367.54,391.699 367.54,349.762 398.953,349.762 398.953,391.699 "/>
<polygon style="fill:#D9D8DB;" points="438.826,391.699 438.826,423.112 398.953,423.112 398.953,465.059 382.492,465.059 
	382.492,349.762 398.953,349.762 398.953,391.699 "/>
<g>
</g>
<g>
</g>
<g>
</g>
<g>
</g>
<g>
</g>
<g>
</g>
<g>
</g>
<g>
</g>
<g>
</g>
<g>
</g>
<g>
</g>
<g>
</g>
<g>
</g>
<g>
</g>
<g>
</g>
</svg>
