<?xml version="1.0" encoding="iso-8859-1"?>
<!-- Generator: Adobe Illustrator 19.0.0, SVG Export Plug-In . SVG Version: 6.00 Build 0)  -->
<svg version="1.1" id="Layer_1" xmlns="http://www.w3.org/2000/svg" xmlns:xlink="http://www.w3.org/1999/xlink" x="0px" y="0px"
	 viewBox="0 0 512 512" style="enable-background:new 0 0 512 512;" xml:space="preserve">
<path style="fill:#E5E5E5;" d="M511.021,212.394l-64.363,211.478c-2.853,9.374-11.499,15.78-21.296,15.78h-13.536H22.261
	C9.966,439.652,0,429.686,0,417.391V94.609c0-12.295,9.966-22.261,22.261-22.261h367.304c12.295,0,22.261,9.966,22.261,22.261
	v89.043h7.768h3.363h66.768C504.673,183.652,515.374,198.094,511.021,212.394z"/>
<path style="fill:#C1C1C1;" d="M511.021,212.394l-64.363,211.478c-2.853,9.374-11.499,15.78-21.296,15.78h-13.536v-256h7.768h3.363
	h66.768C504.673,183.652,515.374,198.094,511.021,212.394z"/>
<path style="fill:#9B9B9B;" d="M411.826,439.652L411.826,439.652v-256h44.522l-31.952,244.963
	C423.572,434.93,418.194,439.652,411.826,439.652z"/>
<path style="fill:#C1C1C1;" d="M214.261,128c0-4.61,3.738-8.348,8.348-8.348h144.696c4.61,0,8.348,3.738,8.348,8.348
	c0,4.61-3.738,8.348-8.348,8.348H222.609C217.998,136.348,214.261,132.61,214.261,128z M367.304,164.174H222.609
	c-4.61,0-8.348,3.738-8.348,8.348c0,4.61,3.738,8.348,8.348,8.348h144.696c4.61,0,8.348-3.738,8.348-8.348
	C375.652,167.912,371.915,164.174,367.304,164.174z M367.304,208.696H222.609c-4.61,0-8.348,3.738-8.348,8.348
	c0,4.61,3.738,8.348,8.348,8.348h144.696c4.61,0,8.348-3.738,8.348-8.348C375.652,212.433,371.915,208.696,367.304,208.696z
	 M367.304,253.217H222.609c-4.61,0-8.348,3.738-8.348,8.348c0,4.61,3.738,8.348,8.348,8.348h144.696c4.61,0,8.348-3.738,8.348-8.348
	C375.652,256.955,371.915,253.217,367.304,253.217z M367.304,297.739H189.217c-4.61,0-8.348,3.738-8.348,8.348
	s3.738,8.348,8.348,8.348h178.087c4.61,0,8.348-3.738,8.348-8.348S371.915,297.739,367.304,297.739z M44.522,314.435h111.304
	c4.61,0,8.348-3.738,8.348-8.348s-3.738-8.348-8.348-8.348H44.522c-4.61,0-8.348,3.738-8.348,8.348S39.912,314.435,44.522,314.435z
	 M367.304,342.261h-44.522c-4.61,0-8.348,3.738-8.348,8.348s3.738,8.348,8.348,8.348h44.522c4.61,0,8.348-3.738,8.348-8.348
	S371.915,342.261,367.304,342.261z M44.522,358.957h244.87c4.61,0,8.348-3.738,8.348-8.348s-3.738-8.348-8.348-8.348H44.522
	c-4.61,0-8.348,3.738-8.348,8.348S39.912,358.957,44.522,358.957z M367.304,386.783H133.565c-4.61,0-8.348,3.738-8.348,8.348
	c0,4.61,3.738,8.348,8.348,8.348h233.739c4.61,0,8.348-3.738,8.348-8.348C375.652,390.52,371.915,386.783,367.304,386.783z
	 M100.174,386.783H44.522c-4.61,0-8.348,3.738-8.348,8.348c0,4.61,3.738,8.348,8.348,8.348h55.652c4.61,0,8.348-3.738,8.348-8.348
	C108.522,390.52,104.784,386.783,100.174,386.783z"/>
<path style="fill:#93D6BB;" d="M44.522,250.435V139.13c0-6.147,4.983-11.13,11.13-11.13h111.304c6.147,0,11.13,4.983,11.13,11.13
	v111.304c0,6.147-4.983,11.13-11.13,11.13H55.652C49.505,261.565,44.522,256.582,44.522,250.435z"/>
<path style="fill:#A7E5CB;" d="M150.261,194.783c0,21.515-17.441,38.957-38.957,38.957s-38.957-17.441-38.957-38.957
	s17.441-38.957,38.957-38.957S150.261,173.268,150.261,194.783z"/>
<g>
</g>
<g>
</g>
<g>
</g>
<g>
</g>
<g>
</g>
<g>
</g>
<g>
</g>
<g>
</g>
<g>
</g>
<g>
</g>
<g>
</g>
<g>
</g>
<g>
</g>
<g>
</g>
<g>
</g>
</svg>
