<?xml version="1.0" encoding="iso-8859-1"?>
<!-- Generator: Adobe Illustrator 19.0.0, SVG Export Plug-In . SVG Version: 6.00 Build 0)  -->
<svg version="1.1" id="Layer_1" xmlns="http://www.w3.org/2000/svg" xmlns:xlink="http://www.w3.org/1999/xlink" x="0px" y="0px"
	 viewBox="0 0 512 512" style="enable-background:new 0 0 512 512;" xml:space="preserve">
<path style="fill:#E6F3FF;" d="M395.13,0H116.87c-9.18,0-16.696,7.477-16.696,16.696v144.696c0,9.214,7.482,16.696,16.696,16.696
	H395.13c9.214,0,16.696-7.482,16.696-16.696V16.696C411.826,7.534,404.368,0,395.13,0z"/>
<path style="fill:#CFDBE6;" d="M395.13,0H256v178.087h139.13c9.214,0,16.696-7.482,16.696-16.696V16.696
	C411.826,7.534,404.368,0,395.13,0z"/>
<path style="fill:#144F9B;" d="M495.304,144.696H16.696C7.516,144.696,0,152.173,0,161.391c0,84.581,0,149.158,0,233.739
	c0,9.218,7.516,16.696,16.696,16.696h478.609c9.179,0,16.696-7.477,16.696-16.696c0-84.581,0-149.158,0-233.739
	C512,152.173,504.484,144.696,495.304,144.696z"/>
<path style="fill:#003F84;" d="M495.304,144.696H256v267.13h239.304c9.179,0,16.696-7.477,16.696-16.696
	c0-84.581,0-149.158,0-233.739C512,152.173,504.484,144.696,495.304,144.696z"/>
<path style="fill:#E6F3FF;" d="M395.13,278.261H116.87c-9.18,0-16.696,7.477-16.696,16.696v200.348
	c0,9.214,7.482,16.696,16.696,16.696H395.13c9.157,0,16.696-7.463,16.696-16.696V294.957
	C411.826,285.738,404.311,278.261,395.13,278.261z"/>
<path style="fill:#32BBFF;" d="M183.652,378.435h144.696c9.22,0,16.696-7.475,16.696-16.696c0-9.222-7.475-16.696-16.696-16.696
	H183.652c-9.222,0-16.696,7.474-16.696,16.696C166.957,370.96,174.431,378.435,183.652,378.435"/>
<path style="fill:#CFDBE6;" d="M395.13,278.261H256V512h139.13c9.157,0,16.696-7.463,16.696-16.696V294.957
	C411.826,285.738,404.311,278.261,395.13,278.261z"/>
<path style="fill:#32BBFF;" d="M183.652,445.217H256c9.22,0,16.696-7.475,16.696-16.696c0-9.222-7.475-16.696-16.696-16.696h-72.348
	c-9.222,0-16.696,7.474-16.696,16.696C166.957,437.742,174.431,445.217,183.652,445.217"/>
<g>
	<path style="fill:#2C9FD9;" d="M256,411.826v33.391c9.22,0,16.696-7.475,16.696-16.696C272.696,419.299,265.22,411.826,256,411.826
		z"/>
	<path style="fill:#2C9FD9;" d="M328.348,345.043H256v33.391h72.348c9.22,0,16.696-7.475,16.696-16.696
		C345.043,352.516,337.568,345.043,328.348,345.043z"/>
</g>
<circle style="fill:#CFDBE6;" cx="361.739" cy="228.174" r="16.696"/>
<circle style="fill:#66B31B;" cx="428.522" cy="228.174" r="16.696"/>
<g>
</g>
<g>
</g>
<g>
</g>
<g>
</g>
<g>
</g>
<g>
</g>
<g>
</g>
<g>
</g>
<g>
</g>
<g>
</g>
<g>
</g>
<g>
</g>
<g>
</g>
<g>
</g>
<g>
</g>
</svg>
