<?xml version="1.0" encoding="UTF-8" standalone="no"?>
<svg
   version="1.1"
   id="Layer_1"
   x="0px"
   y="0px"
   viewBox="0 0 297 297"
   style="enable-background:new 0 0 297 297;"
   xml:space="preserve"
   sodipodi:docname="CLEAR.svg"
   inkscape:version="1.1-dev (9017afb, 2021-01-01)"
   xmlns:inkscape="http://www.inkscape.org/namespaces/inkscape"
   xmlns:sodipodi="http://sodipodi.sourceforge.net/DTD/sodipodi-0.dtd"
   xmlns="http://www.w3.org/2000/svg"
   xmlns:svg="http://www.w3.org/2000/svg"><defs
   id="defs3013" /><sodipodi:namedview
   id="namedview3011"
   pagecolor="#ffffff"
   bordercolor="#666666"
   borderopacity="1.0"
   objecttolerance="10.0"
   gridtolerance="10.0"
   guidetolerance="10.0"
   inkscape:pageshadow="2"
   inkscape:pageopacity="0.0"
   inkscape:pagecheckerboard="0"
   showgrid="false"
   inkscape:zoom="2.4309764"
   inkscape:cx="148.29432"
   inkscape:cy="148.29432"
   inkscape:window-width="1296"
   inkscape:window-height="1003"
   inkscape:window-x="0"
   inkscape:window-y="25"
   inkscape:window-maximized="0"
   inkscape:current-layer="g2976" />
<g
   id="g2978"
   transform="matrix(0.76038782,0,0,0.8267892,36.610803,23.253627)">
	<g
   id="g2976">
		<path
   d="M 287.55,260.218 H 149.47 L 281.316,128.372 c 10.437,-10.437 10.437,-27.419 0,-37.856 L 216.508,25.708 c -10.437,-10.437 -27.419,-10.436 -37.856,0 L 11.788,192.573 c -5.055,5.056 -7.84,11.778 -7.84,18.928 0,7.15 2.785,13.872 7.84,18.928 l 29.79,29.79 H 9.45 c -5.218,0 -9.45,4.231 -9.45,9.45 0,5.219 4.231,9.45 9.45,9.45 h 278.1 c 5.218,0 9.45,-4.231 9.45,-9.45 0,-5.219 -4.231,-9.451 -9.45,-9.451 z M 192.016,39.072 c 3.069,-3.069 8.063,-3.067 11.128,0 l 64.808,64.808 c 1.487,1.486 2.305,3.462 2.305,5.565 0,2.101 -0.819,4.078 -2.305,5.564 L 159.309,223.651 83.373,147.715 Z M 122.742,260.219 H 68.306 L 25.152,217.064 c -3.068,-3.067 -3.068,-8.06 0,-11.127 l 44.858,-44.858 75.936,75.936 z"
   id="path2974"
   style="stroke:#006633;stroke-opacity:1;stroke-width:1.00013405;stroke-miterlimit:4;stroke-dasharray:none;fill:#006633;fill-opacity:1" />
	<path
   style="opacity:0.475884;fill:#ffffff;stroke:#006633;stroke-width:0.304728"
   d="m 129.27073,176.81373 c -15.66324,-17.02736 -28.52704,-31.11648 -28.58623,-31.30916 -0.16879,-0.5494 83.11679,-90.920338 84.07101,-91.223195 1.55107,-0.492292 3.62787,-0.280528 4.81388,0.490855 1.87715,1.220889 51.09144,54.91461 51.77502,56.48752 0.72408,1.66611 0.53062,4.48298 -0.40304,5.86832 -0.46372,0.68806 -59.4408,64.96102 -81.08262,88.36348 l -2.10941,2.28102 z"
   id="path3227"
   transform="matrix(1.3151184,0,0,1.2094981,-48.14754,-28.125219)" /><path
   style="opacity:0.1511254;fill:#006633;stroke:#006633;stroke-width:0.304728;fill-opacity:1"
   d="m 151.35396,200.2604 c -3.51025,-3.80735 -15.70464,-17.10354 -27.09863,-29.5471 -11.39399,-12.44356 -21.27198,-23.21767 -21.95107,-23.94247 l -1.23473,-1.31782 5.71737,-6.29229 c 17.94292,-19.74721 55.27625,-60.264252 70.89575,-76.941595 7.04424,-7.521315 7.26308,-7.711589 8.8679,-7.71024 2.13939,0.0018 2.83773,0.525114 8.23003,6.167368 11.29468,11.818216 44.5167,48.342997 45.95441,50.522957 0.78826,1.19522 0.94391,3.16387 0.36954,4.67394 -0.19922,0.52379 -4.67249,5.67266 -9.94059,11.44195 -11.50118,12.59535 -68.8949,75.06529 -71.55306,77.88159 l -1.87463,1.98616 z"
   id="path3266"
   transform="matrix(1.3151184,0,0,1.2094981,-48.14754,-28.125219)" /></g>
</g>
<g
   id="g2980">
</g>
<g
   id="g2982">
</g>
<g
   id="g2984">
</g>
<g
   id="g2986">
</g>
<g
   id="g2988">
</g>
<g
   id="g2990">
</g>
<g
   id="g2992">
</g>
<g
   id="g2994">
</g>
<g
   id="g2996">
</g>
<g
   id="g2998">
</g>
<g
   id="g3000">
</g>
<g
   id="g3002">
</g>
<g
   id="g3004">
</g>
<g
   id="g3006">
</g>
<g
   id="g3008">
</g>
</svg>
