<svg width="24px" height="24px" viewBox="0 0 24 24" fill="none" xmlns="http://www.w3.org/2000/svg">
<path d="M8 7V6.25C7.80109 6.25 7.61032 6.32902 7.46967 6.46967L8 7ZM20 7H20.75C20.75 6.58579 20.4142 6.25 20 6.25V7ZM20 17V17.75C20.4142 17.75 20.75 17.4142 20.75 17H20ZM8 17L7.46967 17.5303C7.61032 17.671 7.80109 17.75 8 17.75V17ZM3 12L2.46967 11.4697C2.17678 11.7626 2.17678 12.2374 2.46967 12.5303L3 12ZM8 7.75H20V6.25H8V7.75ZM19.25 7V17H20.75V7H19.25ZM20 16.25H8V17.75H20V16.25ZM8.53033 16.4697L3.53033 11.4697L2.46967 12.5303L7.46967 17.5303L8.53033 16.4697ZM3.53033 12.5303L8.53033 7.53033L7.46967 6.46967L2.46967 11.4697L3.53033 12.5303ZM10.25 12C10.25 12.4142 9.91421 12.75 9.5 12.75V14.25C10.7426 14.25 11.75 13.2426 11.75 12H10.25ZM9.5 12.75C9.08579 12.75 8.75 12.4142 8.75 12H7.25C7.25 13.2426 8.25736 14.25 9.5 14.25V12.75ZM8.75 12C8.75 11.5858 9.08579 11.25 9.5 11.25V9.75C8.25736 9.75 7.25 10.7574 7.25 12H8.75ZM9.5 11.25C9.91421 11.25 10.25 11.5858 10.25 12H11.75C11.75 10.7574 10.7426 9.75 9.5 9.75V11.25Z" fill="#000000"/>
</svg>
