<svg width="24px" height="24px" viewBox="0 0 24 24" fill="none" xmlns="http://www.w3.org/2000/svg">
<path
   d="M 19.743869,14.171844 V 14.078193 10.147766 9.9768823 5.8755663 5.7046784 c 0,-0.062204 -0.02127,-0.1172287 -0.05008,-0.1674703 C 19.296956,4.0709878 16.340753,2.6286918 11.1692,2.6286918 c -5.1715538,0 -8.1277553,1.442296 -8.5245907,2.9085163 -0.028811,0.050241 -0.050076,0.1052664 -0.050076,0.1674703 v 0.1708879 4.101316 0.1708877 3.930427 0.17089 4.101314 c 0,0.05538 0.014408,0.107654 0.040132,0.154142 0.4047242,1.672995 4.0290645,2.921845 8.5345367,2.921845 1.085896,0 2.142638,-0.0752 3.147246,-0.219762 0.747712,0.564273 1.675491,0.903315 2.683528,0.903315 2.458529,0 4.458826,-1.993239 4.458826,-4.443092 0,-1.418371 -0.67294,-2.680894 -1.714933,-3.495005 z m -1.11505,-0.636729 c -0.04802,-0.0188 -0.09639,-0.03554 -0.144739,-0.05297 -0.106669,-0.03759 -0.215054,-0.07108 -0.325153,-0.100827 -0.05488,-0.01469 -0.109415,-0.02975 -0.164633,-0.04238 -0.112162,-0.02563 -0.226028,-0.04511 -0.341272,-0.0622 -0.05076,-0.0075 -0.10084,-0.01743 -0.151942,-0.02324 -0.164977,-0.01811 -0.331669,-0.02974 -0.501104,-0.02974 -0.142339,0 -0.282622,0.0082 -0.421873,0.02153 -0.04631,0.0045 -0.09158,0.01192 -0.137539,0.01743 -0.09226,0.01166 -0.184185,0.02459 -0.274732,0.04204 -0.05247,0.01 -0.103923,0.02153 -0.155373,0.03348 -0.08403,0.01914 -0.167035,0.04033 -0.249351,0.06425 -0.05008,0.01435 -0.100154,0.02905 -0.149542,0.04545 -0.08644,0.02837 -0.171493,0.06015 -0.255525,0.0933 -0.04081,0.01606 -0.08232,0.0311 -0.122447,0.04854 -0.113533,0.04887 -0.224656,0.102187 -0.333039,0.159952 -0.0085,0.0047 -0.01784,0.0085 -0.02676,0.01333 -0.122782,0.06664 -0.241462,0.139103 -0.357048,0.216345 -0.0127,0.0085 -0.02469,0.01811 -0.03738,0.027 -0.09947,0.06802 -0.195847,0.140129 -0.289483,0.216003 -0.02298,0.01846 -0.04458,0.03794 -0.06722,0.05707 -0.08198,0.06937 -0.161546,0.141153 -0.238377,0.216003 -0.02332,0.0229 -0.04631,0.04581 -0.06928,0.06937 -0.07374,0.0752 -0.144741,0.153116 -0.212995,0.233775 -0.02092,0.02459 -0.04219,0.04854 -0.06242,0.07348 -0.06928,0.08511 -0.134451,0.172597 -0.197561,0.262826 -0.01577,0.02255 -0.03257,0.0441 -0.04767,0.06664 -0.07442,0.111074 -0.145428,0.22523 -0.209908,0.343828 -0.0051,0.0092 -0.0093,0.0188 -0.01441,0.02801 -0.05728,0.10698 -0.110789,0.217028 -0.159489,0.329473 -0.02846,0.06529 -0.05247,0.133293 -0.0782,0.20028 -0.02058,0.05469 -0.04219,0.109027 -0.06071,0.164737 -0.02675,0.07964 -0.04939,0.161318 -0.07169,0.243002 -0.0072,0.02632 -0.01647,0.05127 -0.02298,0.07793 -0.136509,0.0092 -0.273359,0.01743 -0.410554,0.02392 -0.09158,0.0045 -0.18247,0.01024 -0.274047,0.01368 -0.274391,0.0089 -0.549122,0.01504 -0.823168,0.01504 -0.283651,0 -0.56147,-0.0054 -0.834144,-0.01504 -0.16532,-0.0061 -0.324809,-0.01675 -0.4860117,-0.02597 -0.1018639,-0.0058 -0.2068221,-0.0096 -0.3069732,-0.01675 -0.2140238,-0.01538 -0.4218739,-0.03521 -0.6273239,-0.0564 -0.041152,-0.0045 -0.084377,-0.0071 -0.1251922,-0.01166 -0.2352889,-0.02563 -0.4644043,-0.05502 -0.6876882,-0.0875 -0.00829,-9.89e-4 -0.016813,-0.0021 -0.024689,-0.0031 -1.1589524,-0.170547 -2.1536135,-0.430639 -2.9318506,-0.739945 -0.00582,-0.0024 -0.012007,-0.0045 -0.017495,-0.0068 -0.1419968,-0.05707 -0.2754178,-0.115517 -0.4026667,-0.175673 -0.016117,-0.0075 -0.033274,-0.01504 -0.049391,-0.0229 -0.1142131,-0.05471 -0.2195091,-0.111087 -0.3206903,-0.167826 -0.025036,-0.01435 -0.051448,-0.02837 -0.075799,-0.04272 C 4.1914842,15.217908 4.111226,15.165278 4.0343971,15.11264 4.0038721,15.09145 3.9726591,15.0706 3.9441911,15.04942 3.8797091,15.0019 3.8214017,14.95372 3.7658377,14.905533 c -0.031555,-0.02734 -0.062768,-0.05469 -0.091234,-0.08237 -0.045617,-0.0441 -0.085403,-0.08817 -0.1231326,-0.132268 -0.027439,-0.03212 -0.053505,-0.06425 -0.076829,-0.09672 -0.02984,-0.04136 -0.05522,-0.0827 -0.077857,-0.124066 -0.018862,-0.03452 -0.035672,-0.06905 -0.050075,-0.103561 -0.016463,-0.04067 -0.029498,-0.08135 -0.0391,-0.121668 -0.013035,-0.05571 -0.027097,-0.111423 -0.027097,-0.166788 v -2.804958 c 0.00618,0.0054 0.013377,0.01088 0.019551,0.01641 0.079572,0.07006 0.1612038,0.139787 0.2531236,0.206774 1.2937466,0.972354 3.8757493,1.727338 7.6160213,1.727338 3.731694,0 6.309582,-0.751566 7.606414,-1.720502 0.09947,-0.07246 0.188643,-0.147305 0.274048,-0.22318 0.0027,-0.0024 0.0058,-0.0047 0.0083,-0.0071 v 2.454295 c -0.01818,-0.0096 -0.03774,-0.01572 -0.05626,-0.0253 -0.121424,-0.06084 -0.245578,-0.116889 -0.372827,-0.166787 z M 3.4866439,7.3441801 c 0.102896,0.080659 0.2140234,0.1602927 0.3344116,0.2378756 0.02504,0.016062 0.053163,0.031787 0.079231,0.047849 0.1008378,0.062551 0.2075067,0.1237284 0.3196632,0.1838751 0.041503,0.022215 0.083003,0.044092 0.1258762,0.065958 0.1251896,0.063574 0.2565537,0.1250886 0.3947781,0.185243 0.022637,0.00997 0.043218,0.020168 0.066196,0.02974 0.1608606,0.068017 0.3316677,0.1329511 0.509335,0.1954954 0.049047,0.017435 0.1004944,0.033833 0.1509149,0.050931 0.1413097,0.047512 0.2874222,0.092965 0.4386784,0.1370521 0.054533,0.015726 0.1080423,0.032124 0.1639481,0.047512 0.200647,0.055375 0.4078107,0.1080034 0.6252656,0.1565337 0.029831,0.00686 0.062084,0.012694 0.092266,0.019131 0.19173,0.041696 0.3906619,0.080323 0.5950821,0.1162027 0.069286,0.012306 0.1395962,0.023924 0.2102504,0.035543 0.1944735,0.031787 0.3947785,0.061177 0.6002259,0.087835 0.052823,0.00686 0.1032366,0.014352 0.1567461,0.021191 0.2551823,0.030764 0.5192816,0.057071 0.7905841,0.079636 0.066877,0.00544 0.136508,0.00958 0.2044189,0.014352 0.2171117,0.015712 0.4390245,0.028704 0.6660805,0.038963 0.08265,0.00376 0.164977,0.00752 0.249353,0.010233 0.295997,0.00997 0.597139,0.017085 0.909257,0.017085 0.312117,0 0.613261,-0.00712 0.908915,-0.017085 0.08403,-0.00272 0.166348,-0.00686 0.24935,-0.010233 0.227059,-0.010233 0.44897,-0.023238 0.666081,-0.038963 0.06792,-0.00518 0.137196,-0.00894 0.204419,-0.014352 0.271302,-0.022215 0.535404,-0.048873 0.790586,-0.079636 0.05351,-0.00648 0.103923,-0.014352 0.156745,-0.021191 0.205448,-0.026658 0.40541,-0.056048 0.600227,-0.087835 0.07066,-0.011658 0.140967,-0.023238 0.21025,-0.035543 0.20442,-0.035893 0.403353,-0.074507 0.595082,-0.1162027 0.03019,-0.00648 0.06242,-0.012306 0.09226,-0.019131 0.217454,-0.048535 0.424618,-0.1011642 0.625264,-0.1565337 0.0559,-0.015375 0.109417,-0.03145 0.163949,-0.047512 0.151258,-0.043743 0.297369,-0.089545 0.43868,-0.1370521 0.05042,-0.017085 0.101864,-0.033497 0.150914,-0.050931 0.177667,-0.062887 0.348818,-0.1278217 0.509335,-0.1954954 0.02298,-0.00958 0.04356,-0.020168 0.06619,-0.02974 0.138224,-0.060155 0.269588,-0.1216689 0.394778,-0.185243 0.04288,-0.021878 0.08471,-0.043756 0.125878,-0.065958 0.112161,-0.059805 0.218825,-0.1209824 0.319665,-0.1838751 0.02606,-0.016062 0.05419,-0.031787 0.07923,-0.047849 0.120386,-0.077577 0.231517,-0.1568756 0.334413,-0.2378756 0.02572,-0.020505 0.0487,-0.04101 0.07374,-0.061515 0.04459,-0.036917 0.09158,-0.073483 0.132736,-0.1107364 v 2.8049592 c 0,0.055715 -0.01405,0.1117601 -0.02743,0.1678121 -0.0096,0.03999 -0.02229,0.07964 -0.03842,0.119959 -0.01441,0.0352 -0.03156,0.0704 -0.05076,0.105607 -0.02265,0.04067 -0.04733,0.08135 -0.07649,0.122018 -0.02366,0.03281 -0.05041,0.06562 -0.07819,0.09877 -0.03704,0.0434 -0.07649,0.08681 -0.121073,0.129874 -0.02916,0.02837 -0.06105,0.0564 -0.09329,0.08441 -0.05488,0.04752 -0.112162,0.09501 -0.175952,0.141838 -0.0295,0.02187 -0.06174,0.0434 -0.09295,0.06493 -0.07614,0.05229 -0.155373,0.104248 -0.242149,0.154826 -0.02538,0.01504 -0.05247,0.02974 -0.07888,0.04443 -0.100153,0.0564 -0.204762,0.112096 -0.317605,0.166445 -0.0168,0.0079 -0.03532,0.01606 -0.05247,0.02426 -0.126564,0.05947 -0.258611,0.117913 -0.399922,0.174307 -0.0064,0.0024 -0.01338,0.0051 -0.0199,0.0075 -0.778238,0.308966 -1.771871,0.569057 -2.930136,0.739603 -0.0083,9.89e-4 -0.01715,0.0021 -0.02538,0.0035 -0.223284,0.03246 -0.452057,0.06187 -0.687002,0.0875 -0.04117,0.0045 -0.08437,0.0075 -0.125879,0.01166 -0.20545,0.02119 -0.412957,0.04101 -0.626637,0.0564 -0.10049,0.0071 -0.205448,0.01088 -0.307659,0.01675 -0.16086,0.0092 -0.32035,0.02016 -0.485669,0.02597 -0.27336,0.0096 -0.551179,0.01504 -0.834829,0.01504 -0.283651,0 -0.56147,-0.0054 -0.834144,-0.01504 -0.16532,-0.0061 -0.324809,-0.01675 -0.4860133,-0.02597 -0.1018638,-0.0058 -0.2068213,-0.0096 -0.3069738,-0.01675 -0.2140236,-0.01538 -0.4218738,-0.0352 -0.6273225,-0.0564 -0.041152,-0.0045 -0.084377,-0.0071 -0.1251922,-0.01166 -0.2352889,-0.02563 -0.4644044,-0.05502 -0.6876882,-0.0875 -0.00829,-9.89e-4 -0.016813,-0.0021 -0.024689,-0.0031 -1.1589524,-0.170546 -2.1536134,-0.430637 -2.9318507,-0.739946 -0.00582,-0.0024 -0.012007,-0.0045 -0.017495,-0.0068 -0.1419963,-0.05707 -0.275418,-0.115517 -0.4026663,-0.175674 -0.016117,-0.0075 -0.033274,-0.01504 -0.049391,-0.0229 -0.1142144,-0.05469 -0.2195113,-0.11109 -0.3206924,-0.167822 -0.025036,-0.01435 -0.051449,-0.02837 -0.0758,-0.04272 -0.087802,-0.0513 -0.1680598,-0.103936 -0.2448886,-0.156573 -0.030525,-0.02119 -0.061737,-0.04203 -0.090206,-0.06322 -0.06448,-0.0475 -0.1227894,-0.0957 -0.1783534,-0.143889 -0.031555,-0.02734 -0.062767,-0.05469 -0.091234,-0.08236 -0.045617,-0.0441 -0.085404,-0.08817 -0.1231314,-0.132267 -0.027439,-0.03212 -0.053505,-0.06425 -0.076829,-0.09672 -0.029847,-0.04141 -0.055226,-0.08275 -0.077863,-0.124112 -0.018862,-0.03452 -0.035672,-0.06904 -0.050076,-0.10356 -0.016463,-0.04067 -0.029498,-0.08135 -0.0391,-0.121666 -0.013035,-0.05572 -0.027097,-0.111424 -0.027097,-0.1667875 V 7.1718837 c 0.041157,0.037253 0.088148,0.07382 0.1327359,0.1107366 0.024694,0.020505 0.047675,0.04101 0.073399,0.061515 z M 11.169202,3.3122442 c 4.648841,0 7.888693,1.3507002 7.888693,2.5633221 0,1.2126232 -3.239852,2.5633224 -7.888693,2.5633224 -4.6488419,0 -7.8886932,-1.3506992 -7.8886932,-2.5633224 0,-1.2126219 3.2398513,-2.5633221 7.8886932,-2.5633221 z m 0,17.4305918 c -4.4715184,0 -7.6832443,-1.265598 -7.8777177,-2.447803 -0.00275,-0.01538 -0.00618,-0.03043 -0.010971,-0.04477 v -2.875707 c 0.00618,0.0054 0.013377,0.01088 0.019551,0.0164 0.079572,0.07006 0.1612034,0.139786 0.2531236,0.206777 1.293746,0.972352 3.8757489,1.727337 7.6160191,1.727337 0.273361,0 0.547408,-0.0064 0.821111,-0.01606 0.08198,-0.0028 0.16326,-0.0071 0.245235,-0.01088 0.107693,-0.0047 0.216081,-0.0079 0.323437,-0.01435 -0.01166,0.129874 -0.01784,0.257699 -0.01784,0.383132 0,0.145254 0.0083,0.289483 0.02194,0.432346 0.0045,0.04614 0.01303,0.09126 0.01886,0.136711 0.0123,0.09639 0.02538,0.192419 0.04425,0.287092 0.01,0.05025 0.02298,0.09912 0.03463,0.149015 0.02091,0.08921 0.04252,0.178063 0.0686,0.265902 0.01405,0.04716 0.03052,0.0933 0.04631,0.140128 0.02984,0.08852 0.0614,0.176356 0.09672,0.263167 0.01715,0.04204 0.03532,0.08306 0.05385,0.124065 0.03944,0.08886 0.08163,0.176356 0.126903,0.262484 0.01954,0.03657 0.03944,0.07315 0.05967,0.109363 0.04905,0.08682 0.100839,0.171914 0.155715,0.255307 0.02194,0.03349 0.0439,0.06664 0.06654,0.09946 0.05694,0.08168 0.116954,0.160977 0.179382,0.238901 0.02572,0.03247 0.05145,0.06493 0.0782,0.09639 0.02161,0.02563 0.04117,0.05298 0.06346,0.07826 -0.801903,0.09092 -1.63536,0.137394 -2.486997,0.137394 z m 5.830774,0.683552 c -0.905485,0 -1.737228,-0.320243 -2.388217,-0.851706 -0.10049,-0.08237 -0.196188,-0.169179 -0.286736,-0.25975 -0.03704,-0.03725 -0.07066,-0.07759 -0.105983,-0.116202 -0.05179,-0.0564 -0.103923,-0.112783 -0.151942,-0.171914 -0.04081,-0.05025 -0.0782,-0.102873 -0.116617,-0.155166 -0.03807,-0.05196 -0.0758,-0.103897 -0.110789,-0.157559 -0.0367,-0.05605 -0.07099,-0.11347 -0.104609,-0.171231 -0.0319,-0.05502 -0.06242,-0.110399 -0.09158,-0.166787 -0.02984,-0.0581 -0.05865,-0.116889 -0.0854,-0.176698 -0.02779,-0.06152 -0.05283,-0.124064 -0.07683,-0.186951 -0.02229,-0.05707 -0.04424,-0.114493 -0.06379,-0.172939 -0.02332,-0.07108 -0.04288,-0.143547 -0.06208,-0.216003 -0.01405,-0.05331 -0.02984,-0.106293 -0.0415,-0.160634 -0.01852,-0.08544 -0.03156,-0.172257 -0.0439,-0.259408 -0.0064,-0.0441 -0.01543,-0.0875 -0.02024,-0.132611 -0.01441,-0.133633 -0.02265,-0.268293 -0.02265,-0.403979 0,-0.117226 0.0072,-0.23275 0.01784,-0.347586 0.01101,-0.112096 0.02709,-0.225913 0.04905,-0.343143 0.01715,-0.09263 0.03978,-0.18285 0.06346,-0.272738 0.0064,-0.02495 0.0123,-0.0499 0.01922,-0.07484 0.02161,-0.0752 0.04699,-0.148673 0.07271,-0.221471 0.01441,-0.03998 0.02847,-0.07997 0.0439,-0.119623 0.02401,-0.06049 0.05008,-0.120309 0.07717,-0.17909 0.02332,-0.05092 0.04768,-0.10185 0.07341,-0.151748 0.02469,-0.04785 0.05008,-0.09501 0.07649,-0.141837 0.0343,-0.06015 0.07066,-0.118936 0.108042,-0.17704 0.02298,-0.0359 0.04562,-0.07178 0.06997,-0.106981 0.04802,-0.06904 0.09913,-0.136025 0.151601,-0.201648 0.01818,-0.02255 0.03499,-0.04581 0.05351,-0.06802 0.07135,-0.08544 0.146113,-0.167811 0.224999,-0.246762 0.0021,-0.0021 0.0038,-0.0042 0.0058,-0.0061 0.166693,-0.165762 0.349161,-0.315802 0.544321,-0.448752 0.02229,-0.01504 0.04595,-0.02871 0.0686,-0.0434 0.0727,-0.04716 0.146799,-0.09263 0.222941,-0.135002 0.03499,-0.01948 0.07066,-0.03692 0.105983,-0.05502 0.06619,-0.03419 0.133421,-0.067 0.201675,-0.09706 0.04184,-0.01846 0.08403,-0.03554 0.126565,-0.05263 0.06517,-0.02597 0.131365,-0.0499 0.198247,-0.07246 0.04562,-0.01504 0.09123,-0.03008 0.137538,-0.0434 0.06756,-0.01982 0.13651,-0.03657 0.20545,-0.05263 0.04595,-0.01062 0.09192,-0.02187 0.138565,-0.0311 0.07614,-0.0147 0.15366,-0.0253 0.231517,-0.03554 0.04081,-0.0051 0.08094,-0.0123 0.121759,-0.01606 0.1197,-0.01088 0.240092,-0.01777 0.362539,-0.01777 0.116953,0 0.2322,0.0071 0.346416,0.01743 0.03567,0.0031 0.07099,0.0079 0.106669,0.0123 0.08026,0.0096 0.159487,0.02187 0.238033,0.03623 0.03807,0.0071 0.07614,0.01401 0.114208,0.02221 0.08369,0.01811 0.166005,0.03999 0.247292,0.06358 0.02743,0.0079 0.05522,0.01435 0.08232,0.02255 0.100491,0.03178 0.198589,0.06835 0.295312,0.108002 0.04631,0.01915 0.09123,0.04067 0.136851,0.06152 0.05283,0.02426 0.104959,0.04887 0.156403,0.0752 0.0511,0.02632 0.101527,0.054 0.1516,0.0827 0.04288,0.02461 0.08437,0.05025 0.126215,0.07655 0.05179,0.03247 0.103587,0.06459 0.154002,0.0998 0.97614,0.680134 1.617524,1.806971 1.617524,3.081455 0,2.072873 -1.692638,3.759539 -3.772851,3.759539 z"
   id="path2245"
   style="fill:#006633;fill-opacity:1;stroke:#006633;stroke-width:0.342381;stroke-miterlimit:4;stroke-dasharray:none;stroke-opacity:1" />
	<path
   d="m 18.934908,17.46794 h -1.585427 v -1.50789 c 0,-0.166772 -0.142055,-0.301577 -0.317086,-0.301577 -0.17503,0 -0.317085,0.134805 -0.317085,0.301577 v 1.50789 h -1.585428 c -0.175028,0 -0.317083,0.134805 -0.317083,0.301579 0,0.166771 0.142055,0.301577 0.317083,0.301577 h 1.585428 v 1.50789 c 0,0.166773 0.142055,0.30158 0.317085,0.30158 0.175031,0 0.317086,-0.134807 0.317086,-0.30158 v -1.50789 h 1.585427 c 0.17503,0 0.317085,-0.134806 0.317085,-0.301577 0,-0.166774 -0.142055,-0.301579 -0.317085,-0.301579 z"
   id="path2247"
   style="fill:#006633;fill-opacity:1;stroke:#006633;stroke-width:0.309235;stroke-miterlimit:4;stroke-dasharray:none;stroke-opacity:1" />
<path
   style="opacity:0.151125;fill:#006633;fill-opacity:1;stroke:#006633;stroke-width:0.0230405;stroke-miterlimit:4;stroke-dasharray:none;stroke-opacity:1"
   d="M 16.294636,22.208362 C 15.63255,22.096149 15.015487,21.857573 14.495612,21.512784 l -0.220034,-0.145928 -0.295875,0.03988 C 12.530522,21.602111 10.384911,21.62583 8.837419,21.46359 6.6169659,21.230801 4.7858717,20.696115 3.6372356,19.945127 3.4877162,19.84737 3.2321704,19.634636 3.0686286,19.471778 2.7617679,19.166202 2.6225501,18.954801 2.5044079,18.615012 2.4445243,18.442783 2.4432856,18.309327 2.4433012,12.031876 2.4433166,5.6384063 2.443456,5.6241644 2.5077159,5.4543665 2.6666751,5.0343388 2.9020252,4.7062194 3.267745,4.3947539 4.2609116,3.5489221 6.0309407,2.926062 8.2120756,2.6548801 9.1951086,2.5326593 9.5357959,2.5110535 10.761009,2.4932324 c 1.19109,-0.017325 1.980854,0.01044 2.860284,0.1005631 3.298144,0.3379822 5.635092,1.386553 6.174418,2.7704135 l 0.09465,0.2428573 v 4.2389973 4.2389954 l 0.269849,0.255949 c 0.991151,0.940086 1.491787,2.158732 1.43973,3.50458 -0.02777,0.717835 -0.169148,1.261239 -0.492856,1.894283 -0.24014,0.469618 -0.481343,0.796709 -0.87317,1.18409 -0.683192,0.675438 -1.530849,1.11243 -2.464065,1.270299 -0.414839,0.07018 -1.105396,0.07678 -1.475211,0.0141 z m 1.301308,-0.991181 c 1.139799,-0.193773 2.128633,-0.923495 2.651242,-1.956517 0.22405,-0.442874 0.362317,-1.04783 0.362317,-1.585244 0,-0.948204 -0.344007,-1.805314 -0.997564,-2.485481 -1.217634,-1.267207 -3.108307,-1.48761 -4.595394,-0.535703 -0.284223,0.181934 -0.685475,0.560166 -0.908691,0.856557 -0.57866,0.768355 -0.828266,1.772029 -0.674301,2.711377 0.220798,1.347105 1.121684,2.414295 2.409132,2.85386 0.539038,0.184039 1.19184,0.236595 1.753259,0.141151 z m -4.67816,-0.696436 c 0.214961,-0.01948 0.396532,-0.04097 0.403491,-0.04773 0.007,-0.0067 -0.05038,-0.106449 -0.127433,-0.221516 -0.517836,-0.77333 -0.805121,-1.678098 -0.807028,-2.54162 l -5.4e-4,-0.259467 -0.68006,0.02132 c -0.738677,0.02316 -1.9296562,-0.01604 -2.7546972,-0.09066 -2.2066113,-0.199554 -4.0991647,-0.736314 -5.224756,-1.481817 -0.1436693,-0.09516 -0.2660984,-0.173011 -0.2720649,-0.173011 -0.00597,0 -0.010544,0.581275 -0.010155,1.29172 6.3e-4,1.208493 0.00457,1.300181 0.060937,1.423057 0.2790724,0.608357 1.4404874,1.228516 3.0494597,1.628318 1.0468039,0.260113 2.0048088,0.393998 3.5488234,0.49596 0.346674,0.02288 2.434721,-0.01011 2.814044,-0.04455 z m -0.608685,-4.070717 0.251162,-0.01662 0.07179,-0.222091 c 0.192884,-0.596604 0.580215,-1.229685 1.0502,-1.716525 0.665084,-0.688932 1.485547,-1.136576 2.456036,-1.340009 0.467871,-0.09807 1.251009,-0.09816 1.719694,-1.85e-4 0.275021,0.05748 0.76197,0.205244 0.977099,0.296486 0.05142,0.02182 0.05472,-0.03287 0.05472,-0.906958 v -0.930167 l -0.253487,0.16789 C 17.018125,12.853598 14.139909,13.42858 10.713437,13.364591 9.653886,13.344803 9.2175072,13.317432 8.3840365,13.218469 6.4163359,12.984828 4.790368,12.489202 3.7330553,11.800761 L 3.4438342,11.612442 v 1.293942 1.293943 l 0.095407,0.188926 c 0.3995943,0.791276 2.2586642,1.548991 4.6415673,1.8918 1.2316429,0.177188 2.9445065,0.247297 4.1282905,0.168975 z m 0.02363,-4.096563 c 1.750212,-0.101864 3.143956,-0.343787 4.365176,-0.757703 1.150354,-0.389894 1.909478,-0.872381 2.130459,-1.35408 0.05614,-0.122369 0.06012,-0.215511 0.06075,-1.4226597 3.78e-4,-0.7104455 -0.0038,-1.2917196 -0.0093,-1.2917196 -0.0054,0 -0.127601,0.076553 -0.271328,0.1701228 -0.99103,0.6451707 -2.494308,1.1263558 -4.299302,1.376169 -1.77067,0.2450582 -4.10247,0.2627327 -5.9251546,0.044909 C 6.3963776,8.8809643 4.7812117,8.3859284 3.7095908,7.6858196 3.589212,7.6071679 3.4795951,7.5379852 3.4659966,7.5320668 c -0.013596,-0.00596 -0.020634,0.5857831 -0.015636,1.3148955 0.010363,1.5119817 -0.00969,1.3978437 0.3026877,1.7230597 0.784676,0.816945 2.9237,1.50143 5.3813926,1.722035 1.0199451,0.09155 2.2684491,0.115529 3.1982761,0.06141 z m 0.27771,-4.1158074 C 15.450599,8.0469107 17.77996,7.3483808 18.634213,6.43124 18.886563,6.1603193 18.954523,5.8614539 18.827008,5.5834088 18.746429,5.4077038 18.428227,5.0956862 18.144216,4.9138867 15.922783,3.4919133 10.700747,3.0379232 6.7894191,3.9267308 6.0900511,4.0856549 5.2599112,4.3649762 4.7416158,4.6157659 3.7042997,5.1176952 3.2681215,5.6635083 3.5097048,6.1573213 4.0050977,7.1699394 6.7229396,8.0657834 9.8536012,8.2483724 10.290532,8.2738515 12.180863,8.2665069 12.61044,8.2376211 Z"
   id="path3059" /><path
   style="opacity:1;fill:#006633;fill-opacity:1;stroke:#006633;stroke-width:1.02382;stroke-miterlimit:4;stroke-dasharray:none;stroke-opacity:1"
   d="M 16.294636,22.208362 C 15.63255,22.096149 15.015487,21.857573 14.495612,21.512784 l -0.220034,-0.145928 -0.295875,0.03988 C 12.530522,21.602111 10.384911,21.62583 8.837419,21.46359 6.6151875,21.230614 4.776244,20.693257 3.6372194,19.944047 3.4878655,19.845808 3.2319995,19.632804 3.0686286,19.470706 2.7615416,19.166013 2.6228578,18.955685 2.5044079,18.615012 2.4445243,18.442783 2.4432856,18.309327 2.4433012,12.031876 2.4433166,5.6384063 2.443456,5.6241644 2.5077159,5.4543665 2.6666751,5.0343388 2.9020252,4.7062194 3.267745,4.3947539 4.2609116,3.5489221 6.0309407,2.926062 8.2120756,2.6548801 9.1951086,2.5326593 9.5357959,2.5110535 10.761009,2.4932324 c 1.19109,-0.017325 1.980854,0.01044 2.860284,0.1005631 3.298144,0.3379822 5.635092,1.386553 6.174418,2.7704135 l 0.09465,0.2428573 v 4.2386593 4.2386584 l 0.285306,0.271754 c 0.673874,0.641867 1.149085,1.486529 1.341781,2.384946 0.08285,0.386245 0.11369,1.101182 0.06367,1.475778 -0.271019,2.029656 -1.81358,3.639457 -3.811267,3.977398 -0.414838,0.07018 -1.105395,0.07678 -1.475212,0.0141 z m 1.299301,-0.989661 c 1.119949,-0.179744 2.131121,-0.925967 2.653249,-1.958037 0.22405,-0.442874 0.362317,-1.04783 0.362317,-1.585244 0,-0.948204 -0.344007,-1.805314 -0.997564,-2.485481 -1.218222,-1.267818 -3.107591,-1.48807 -4.595394,-0.535703 -0.284223,0.181934 -0.685475,0.560166 -0.908691,0.856557 -1.241224,1.648123 -0.831563,4.000124 0.899046,5.161728 0.37566,0.252147 0.904512,0.462273 1.365904,0.542708 0.332577,0.05798 0.871958,0.0595 1.221133,0.0035 z m -4.676153,-0.697956 c 0.214961,-0.01948 0.396532,-0.04097 0.403491,-0.04773 0.007,-0.0067 -0.05038,-0.106449 -0.127433,-0.221516 -0.517836,-0.77333 -0.805121,-1.678098 -0.807028,-2.54162 l -5.4e-4,-0.259467 -0.68006,0.02132 c -0.738677,0.02316 -1.9296562,-0.01604 -2.7546972,-0.09066 -2.2066113,-0.199554 -4.0991647,-0.736314 -5.224756,-1.481817 -0.1436693,-0.09516 -0.2660984,-0.173011 -0.2720649,-0.173011 -0.00597,0 -0.010544,0.581275 -0.010155,1.29172 6.3e-4,1.208493 0.00457,1.300181 0.060937,1.423057 0.091535,0.19954 0.2421358,0.367631 0.5053299,0.564016 1.1199619,0.83568 3.3273928,1.403605 6.0616852,1.55955 0.398765,0.02275 2.461422,-0.0091 2.845312,-0.04384 z m -0.608685,-4.070717 0.251162,-0.01662 0.07179,-0.222091 c 0.192884,-0.596604 0.580215,-1.229685 1.0502,-1.716525 0.665084,-0.688932 1.485547,-1.136576 2.456036,-1.340009 0.467871,-0.09807 1.251009,-0.09816 1.719694,-1.85e-4 0.275021,0.05748 0.76197,0.205244 0.977099,0.296486 0.05142,0.02182 0.05472,-0.03287 0.05472,-0.906958 v -0.930167 l -0.253487,0.16789 C 17.018125,12.853598 14.139909,13.42858 10.713437,13.364591 9.653886,13.344803 9.2175072,13.317432 8.3840365,13.218469 6.4163359,12.984828 4.790368,12.489202 3.7330553,11.800761 L 3.4438342,11.612442 v 1.293942 1.293943 l 0.095407,0.188926 c 0.3949849,0.782148 2.2275275,1.537725 4.5574054,1.879069 1.2890215,0.188851 2.9933184,0.262365 4.2124524,0.181706 z m 0.03458,-4.097047 c 2.336659,-0.133074 4.313951,-0.583205 5.525252,-1.257824 0.508488,-0.283196 0.805536,-0.544056 0.944828,-0.829718 l 0.07542,-0.154697 3.13e-4,-1.2917197 c 1.57e-4,-0.7104455 -0.0042,-1.2917196 -0.0097,-1.2917196 -0.0054,0 -0.127601,0.076553 -0.271327,0.1701228 -0.99105,0.6451707 -2.494328,1.1263558 -4.299321,1.376169 C 12.538518,9.3186527 10.206716,9.3363272 8.3840313,9.1185031 6.3963776,8.8809643 4.7812131,8.3859284 3.7095922,7.6858196 3.5892133,7.6071679 3.4795956,7.5379852 3.4659971,7.5320668 c -0.013596,-0.00596 -0.020634,0.5857831 -0.015632,1.3148955 0.010363,1.5119817 -0.00969,1.3978437 0.3026878,1.7230597 0.78499,0.817279 2.9226878,1.501339 5.3813856,1.722035 1.0241695,0.09193 2.2546115,0.115296 3.2092325,0.06092 z M 13.199183,8.1951648 C 15.834563,7.9316794 17.84414,7.2794778 18.634216,6.43124 18.88656,6.1603193 18.95452,5.8614539 18.827006,5.5834088 18.74729,5.4095806 18.428844,5.0959864 18.153624,4.9202774 16.735053,4.0146213 14.124111,3.4742441 11.166818,3.4742441 c -2.5884867,0 -4.9233679,0.4148222 -6.4252062,1.1415218 -1.0282622,0.4975486 -1.4667404,1.0404609 -1.2395151,1.5347351 0.1426268,0.31025 0.650306,0.7121766 1.2677784,1.0036913 1.0809908,0.5103452 2.6578223,0.8836033 4.380211,1.0368547 0.8075891,0.071852 0.7859381,0.07123 2.2043339,0.063212 0.964567,-0.00544 1.470284,-0.021658 1.844763,-0.059094 z"
   id="path3098" /><path
   style="opacity:0.149206;fill:#ffffff;fill-opacity:1;stroke:#006633;stroke-width:0.0466541;stroke-miterlimit:4;stroke-dasharray:none;stroke-opacity:1"
   d="M 9.9161364,7.938875 C 8.3570913,7.8647958 6.5112799,7.5130697 5.3959461,7.0775355 4.7405183,6.8215942 4.3517777,6.5989043 4.0295256,6.2947849 3.7460638,6.0272729 3.7066008,5.9186347 3.8165147,5.708382 3.9387994,5.474465 4.3210967,5.1762246 4.8108278,4.9326919 5.9006772,4.390734 7.3891488,4.0355059 9.3220599,3.856073 10.135661,3.780546 12.194261,3.780348 13.011585,3.8557171 c 2.261655,0.2085587 4.051113,0.6963887 5.018378,1.3680772 0.217768,0.1512228 0.497661,0.4343352 0.530446,0.5365483 0.165544,0.5161153 -1.097325,1.2669088 -2.8603,1.7004884 -1.217993,0.2995482 -2.234617,0.431682 -3.610906,0.4693187 -0.958976,0.02623 -1.738859,0.029352 -2.1730666,0.00868 z"
   id="path3955" /><path
   style="opacity:0.149206;fill:#006633;fill-opacity:1;stroke:#006633;stroke-width:0.0466541;stroke-miterlimit:4;stroke-dasharray:none;stroke-opacity:1"
   d="M 10.009938,20.25405 C 7.2401163,20.073229 4.9821746,19.458886 4.0615729,18.635612 3.7551141,18.361552 3.7579915,18.37463 3.7571925,17.252087 l -7.2e-4,-0.964773 0.2510449,0.137407 c 1.1609211,0.635418 3.081885,1.115415 5.1269044,1.281072 0.6412925,0.05194 2.1114212,0.09436 2.5351222,0.07315 l 0.395115,-0.01978 0.0224,0.259793 c 0.05521,0.640195 0.233599,1.264679 0.531039,1.858926 l 0.165484,0.330617 -0.190871,0.01648 c -0.238052,0.02056 -2.349137,0.04432 -2.582809,0.02906 z"
   id="path5289" /><path
   style="opacity:0.149206;fill:#006633;fill-opacity:1;stroke:#006633;stroke-width:0.0466541;stroke-miterlimit:4;stroke-dasharray:none;stroke-opacity:1"
   d="M 9.931769,16.137843 C 7.3224491,16.000874 4.8344558,15.307297 4.0119257,14.48757 3.75333,14.229855 3.7565058,14.246401 3.7565058,13.156924 c 0,-0.529611 0.010557,-0.95763 0.023452,-0.95115 0.9308119,0.467576 1.5822904,0.717161 2.4310217,0.931337 1.2287154,0.310062 2.402902,0.460767 4.0572505,0.520738 1.327362,0.04812 2.935545,-0.01727 3.931508,-0.159862 0.111785,-0.016 0.216539,-0.02938 0.232797,-0.02972 0.01626,-3.38e-4 -0.08574,0.07745 -0.226667,0.172847 -0.48364,0.327413 -1.029849,0.895121 -1.366141,1.419919 -0.145354,0.22683 -0.410301,0.757887 -0.459993,0.922007 -0.02388,0.0789 -0.06208,0.130034 -0.110815,0.148365 -0.06727,0.02532 -1.882379,0.0303 -2.3371538,0.0065 z"
   id="path5328" /><path
   style="opacity:0.149206;fill:#006633;fill-opacity:1;stroke:#006633;stroke-width:0.0466541;stroke-miterlimit:4;stroke-dasharray:none;stroke-opacity:1"
   d="M 9.9786716,12.043027 C 7.3189491,11.891528 5.0922454,11.288585 4.0792313,10.445586 3.7674852,10.186161 3.7770543,10.227108 3.7619503,9.0879454 L 3.7487575,8.0926677 4.2294576,8.3282208 c 1.2271774,0.6013398 2.7926221,0.9818374 4.8112015,1.1694133 0.7351284,0.068315 3.3539119,0.078833 4.0647309,0.016334 2.203333,-0.1937326 3.820565,-0.5841108 5.08873,-1.2283501 l 0.383022,-0.1945785 v 0.9805888 0.9805887 l -0.0888,0.138557 c -0.462557,0.721732 -2.327074,1.41119 -4.632538,1.713011 -1.058598,0.138588 -2.794275,0.200922 -3.8771284,0.139242 z"
   id="path5367" /><path
   style="opacity:0.974603;fill:#006633;fill-opacity:1;stroke:#006633;stroke-width:0.0532838;stroke-miterlimit:4;stroke-dasharray:none;stroke-opacity:1"
   d=""
   id="path5406" /><rect
   style="opacity:0.974603;fill:#006633;fill-opacity:1;stroke:#006633;stroke-width:0.619859;stroke-miterlimit:4;stroke-dasharray:none;stroke-opacity:1"
   id="rect5985"
   width="0.54074025"
   height="0.88400322"
   x="2.8190405"
   y="15.388931" /><path
   style="opacity:0.149206;fill:#006633;fill-opacity:1;stroke:#006633;stroke-width:0.0466541;stroke-miterlimit:4;stroke-dasharray:none;stroke-opacity:1"
   d="m 18.248834,12.9374 c -0.17197,-0.04954 -0.450155,-0.106255 -0.618189,-0.126008 l -0.305519,-0.03592 0.258618,-0.10299 c 0.142239,-0.05664 0.423941,-0.18572 0.626005,-0.286827 l 0.367389,-0.18383 v 0.416347 c 0,0.228991 -0.0035,0.414767 -0.0078,0.412833 -0.0043,-0.002 -0.148518,-0.04406 -0.320488,-0.0936 z"
   id="path6104" />
</svg>
