<svg width="24px" height="24px" viewBox="0 0 24 24" fill="none" xmlns="http://www.w3.org/2000/svg">
<g
   id="g900"
   transform="matrix(0.05323561,0,0,0.05323561,1.0494468,0.38558913)">
	<path
   style="fill:none"
   d="m 94.031,232.202 c -16.893,0 -30.642,13.713 -30.706,30.592 10e-4,0.039 0.006,0.076 0.006,0.115 0,0.039 -0.005,0.076 -0.006,0.115 0.063,16.879 13.813,30.592 30.706,30.592 16.932,0 30.707,-13.775 30.707,-30.707 0,-16.931 -13.775,-30.707 -30.707,-30.707 z"
   id="path886" /><polygon
   style="fill:none"
   points="188.926,170.831 188.926,120.093 130.959,120.093 101.965,170.831 "
   id="polygon888" /><polygon
   style="fill:none"
   points="261.78,120.093 212.926,120.093 212.926,170.831 306.718,170.831 "
   id="polygon890" /><path
   style="fill:none"
   d="m 319.678,232.202 c -16.932,0 -30.707,13.775 -30.707,30.707 0,16.932 13.775,30.707 30.707,30.707 16.933,0 30.709,-13.775 30.709,-30.707 0,-16.931 -13.777,-30.707 -30.709,-30.707 z"
   id="path892" /><path
   style="fill:#006633;opacity:0.15"
   d="m 81.287,194.831 c -4.277,0 -8.231,-2.277 -10.379,-5.977 -2.148,-3.699 -2.162,-8.263 -0.041,-11.977 l 32.449,-56.785 H 64.939 L 24,186.243 v 64.666 h 16.664 c 5.486,-24.41 27.323,-42.707 53.367,-42.707 26.043,0 47.879,18.297 53.365,42.707 h 118.916 c 5.486,-24.41 27.322,-42.707 53.365,-42.707 26.044,0 47.88,18.297 53.367,42.707 h 16.664 v -46.445 l -57.333,-9.633 z"
   id="path894" /><path
   style="fill:#006633"
   d="m 403.697,182.478 -64.15,-10.777 -63.384,-71.564 c -2.276,-2.571 -5.547,-4.043 -8.982,-4.043 H 123.995 58.254 c -4.156,0 -8.017,2.15 -10.204,5.685 L 1.796,176.517 C 0.622,178.413 0,180.601 0,182.831 v 80.078 c 0,6.627 5.373,12 12,12 h 28.664 c 5.486,24.41 27.323,42.707 53.367,42.707 26.043,0 47.879,-18.297 53.365,-42.707 h 118.916 c 5.486,24.41 27.322,42.707 53.365,42.707 26.044,0 47.88,-18.297 53.367,-42.707 h 28.664 c 6.627,0 12,-5.373 12,-12 v -68.598 c 10e-4,-5.861 -4.231,-10.863 -10.011,-11.833 z M 212.926,120.093 h 48.855 l 44.938,50.738 h -93.792 v -50.738 z m -81.967,0 h 57.967 v 50.738 H 101.965 Z M 94.031,293.616 c -16.893,0 -30.642,-13.713 -30.706,-30.592 10e-4,-0.039 0.006,-0.076 0.006,-0.115 0,-0.039 -0.005,-0.076 -0.006,-0.115 0.063,-16.879 13.813,-30.592 30.706,-30.592 16.932,0 30.707,13.775 30.707,30.707 0,16.932 -13.775,30.707 -30.707,30.707 z m 225.647,0 c -16.932,0 -30.707,-13.775 -30.707,-30.707 0,-16.932 13.775,-30.707 30.707,-30.707 16.933,0 30.709,13.775 30.709,30.707 0,16.932 -13.777,30.707 -30.709,30.707 z m 70.031,-42.707 h -16.664 c -5.487,-24.41 -27.323,-42.707 -53.367,-42.707 -26.043,0 -47.879,18.297 -53.365,42.707 H 147.396 c -5.486,-24.41 -27.322,-42.707 -53.365,-42.707 -26.044,0 -47.881,18.297 -53.367,42.707 H 24 v -64.666 l 40.939,-66.15 h 38.377 l -32.449,56.785 c -2.121,3.714 -2.107,8.277 0.041,11.977 2.147,3.699 6.102,5.977 10.379,5.977 h 251.089 l 57.333,9.633 z"
   id="path896" />
</g>
<g
   id="g902"
   transform="matrix(0.05323561,0,0,0.05323561,1.0494468,0.38558913)">
</g>
<g
   id="g904"
   transform="matrix(0.05323561,0,0,0.05323561,1.0494468,0.38558913)">
</g>
<g
   id="g906"
   transform="matrix(0.05323561,0,0,0.05323561,1.0494468,0.38558913)">
</g>
<g
   id="g908"
   transform="matrix(0.05323561,0,0,0.05323561,1.0494468,0.38558913)">
</g>
<g
   id="g910"
   transform="matrix(0.05323561,0,0,0.05323561,1.0494468,0.38558913)">
</g>
<g
   id="g912"
   transform="matrix(0.05323561,0,0,0.05323561,1.0494468,0.38558913)">
</g>
<g
   id="g914"
   transform="matrix(0.05323561,0,0,0.05323561,1.0494468,0.38558913)">
</g>
<g
   id="g916"
   transform="matrix(0.05323561,0,0,0.05323561,1.0494468,0.38558913)">
</g>
<g
   id="g918"
   transform="matrix(0.05323561,0,0,0.05323561,1.0494468,0.38558913)">
</g>
<g
   id="g920"
   transform="matrix(0.05323561,0,0,0.05323561,1.0494468,0.38558913)">
</g>
<g
   id="g922"
   transform="matrix(0.05323561,0,0,0.05323561,1.0494468,0.38558913)">
</g>
<g
   id="g924"
   transform="matrix(0.05323561,0,0,0.05323561,1.0494468,0.38558913)">
</g>
<g
   id="g926"
   transform="matrix(0.05323561,0,0,0.05323561,1.0494468,0.38558913)">
</g>
<g
   id="g928"
   transform="matrix(0.05323561,0,0,0.05323561,1.0494468,0.38558913)">
</g>
<g
   id="g930"
   transform="matrix(0.05323561,0,0,0.05323561,1.0494468,0.38558913)">
</g>
</svg>
