<?xml version="1.0" encoding="UTF-8" standalone="no"?>
<svg
   xmlns:dc="http://purl.org/dc/elements/1.1/"
   xmlns:cc="http://creativecommons.org/ns#"
   xmlns:rdf="http://www.w3.org/1999/02/22-rdf-syntax-ns#"
   xmlns:svg="http://www.w3.org/2000/svg"
   xmlns="http://www.w3.org/2000/svg"
   xmlns:sodipodi="http://sodipodi.sourceforge.net/DTD/sodipodi-0.dtd"
   xmlns:inkscape="http://www.inkscape.org/namespaces/inkscape"
   width="24px"
   height="24px"
   viewBox="0 0 24 24"
   fill="none"
   version="1.1"
   id="svg903"
   sodipodi:docname="bank77.svg"
   inkscape:version="1.0.2-2 (e86c870879, 2021-01-15)">
  <metadata
     id="metadata909">
    <rdf:RDF>
      <cc:Work
         rdf:about="">
        <dc:format>image/svg+xml</dc:format>
        <dc:type
           rdf:resource="http://purl.org/dc/dcmitype/StillImage" />
      </cc:Work>
    </rdf:RDF>
  </metadata>
  <defs
     id="defs907" />
  <sodipodi:namedview
     pagecolor="#ffffff"
     bordercolor="#666666"
     borderopacity="1"
     objecttolerance="10"
     gridtolerance="10"
     guidetolerance="10"
     inkscape:pageopacity="0"
     inkscape:pageshadow="2"
     inkscape:window-width="1359"
     inkscape:window-height="607"
     id="namedview905"
     showgrid="false"
     inkscape:zoom="17.789751"
     inkscape:cx="12.340261"
     inkscape:cy="13.884826"
     inkscape:window-x="671"
     inkscape:window-y="157"
     inkscape:window-maximized="0"
     inkscape:current-layer="svg903" />
  <path
     opacity="0.15"
     d="M 19,6 H 5 C 3.89543,6 3,6.89543 3,8 v 8 c 0,1.1046 0.89543,2 2,2 h 14 c 1.1046,0 2,-0.8954 2,-2 V 15 L 7.8728766,14.831364 c -1.6567633,-0.02128 -1.4822722,-1.06204 -1.4822722,-2.71894 0,-1.6569 -0.2869177,-2.9226848 1.3698479,-2.9437876 L 21,9 V 8 C 21,6.89543 20.1046,6 19,6 Z"
     fill="#006633"
     id="path899"
     sodipodi:nodetypes="ssssssscssscss" />
  <path
     d="M 8.8846951,12.01 H 11.751515 M 5,18 h 14 c 1.1046,0 2,-0.8954 2,-2 V 15.121066 L 19.538484,15.064854 21,15.121066 V 9.0501548 l -1.602046,0 1.602046,0 V 8 C 21,6.89543 20.1046,6 19,6 H 5 C 3.89543,6 3,6.89543 3,8 v 8 c 0,1.1046 0.89543,2 2,2 z M 16.165756,9 7.1421187,8.9437879 C 5.4852509,8.9334666 5.9409073,10.399312 5.9409073,12.056212 5.9409073,13.713112 5.597643,15 7.254543,15 h 8.967425 z"
     stroke="#006633"
     stroke-width="1.5"
     stroke-linecap="round"
     stroke-linejoin="round"
     id="path901"
     sodipodi:nodetypes="ccsssccccccsssssscssscc" />
</svg>
