<svg width="24px" height="24px" viewBox="0 0 24 24" fill="none" xmlns="http://www.w3.org/2000/svg">
<path opacity="0.15" d="M4 8C4 6.89543 4.89543 6 6 6H18C19.1046 6 20 6.89543 20 8V12C20 13.1046 19.1046 14 18 14H6C4.89543 14 4 13.1046 4 12V8Z" fill="#006633"/>
<path d="M20 10V18C20 19.1046 19.1046 20 18 20H6C4.89543 20 4 19.1046 4 18V10M15 6V5C15 3.89543 14.1046 3 13 3H11C9.89543 3 9 3.89543 9 5V6M12 12V16M6 14H18C19.1046 14 20 13.1046 20 12V8C20 6.89543 19.1046 6 18 6H6C4.89543 6 4 6.89543 4 8V12C4 13.1046 4.89543 14 6 14Z" stroke="#006633" stroke-width="1.5" stroke-linecap="round" stroke-linejoin="round"/>
</svg>
