<?xml version="1.0" encoding="iso-8859-1"?>
<!-- Generator: Adobe Illustrator 19.0.0, SVG Export Plug-In . SVG Version: 6.00 Build 0)  -->
<svg version="1.1" id="Layer_1" xmlns="http://www.w3.org/2000/svg" xmlns:xlink="http://www.w3.org/1999/xlink" x="0px" y="0px"
	 viewBox="0 0 512 512" style="enable-background:new 0 0 512 512;" xml:space="preserve">
<circle style="fill:#ffc10d;" cx="316.611" cy="152.088" r="51.46"/>
<path style="fill:#3d6889;" d="M316.608,217.784c-36.222,0-65.691-29.469-65.691-65.691s29.469-65.691,65.691-65.691
	s65.691,29.469,65.691,65.691S352.831,217.784,316.608,217.784z M316.608,114.854c-20.533,0-37.237,16.704-37.237,37.237
	s16.704,37.237,37.237,37.237s37.237-16.704,37.237-37.237C353.845,131.56,337.141,114.854,316.608,114.854z"/>
<polygon style="fill:#73d0f4;" points="319.036,446.943 192.883,214.149 38.274,446.943 "/>
<path style="fill:#3d6889;" d="M319.034,461.171H38.274c-5.243,0-10.06-2.882-12.538-7.503c-2.478-4.62-2.214-10.228,0.686-14.594
	l154.609-232.795c2.761-4.159,7.498-6.572,12.489-6.341c4.987,0.223,9.492,3.045,11.871,7.434l126.151,232.793
	c2.39,4.409,2.282,9.75-0.285,14.058C328.693,458.53,324.049,461.171,319.034,461.171z M64.802,432.716h230.341L191.646,241.728
	L64.802,432.716z"/>
<polygon style="fill:#73d0f4;" points="473.726,446.943 347.574,292.86 221.422,446.943 "/>
<g>
	<path style="fill:#3d6889;" d="M473.728,461.171H221.423c-5.497,0-10.504-3.168-12.858-8.137
		c-2.355-4.968-1.633-10.848,1.85-15.104l126.152-154.083c2.702-3.301,6.742-5.214,11.008-5.214c4.265,0,8.306,1.914,11.008,5.214
		l126.152,154.083c3.483,4.254,4.203,10.135,1.85,15.104C484.23,458.002,479.225,461.171,473.728,461.171z M251.458,432.716h192.235
		l-96.117-117.397L251.458,432.716z"/>
	<path style="fill:#3d6889;" d="M472.804,462.13H39.196C17.583,462.13,0,444.546,0,422.934V89.066
		C0,67.454,17.583,49.87,39.196,49.87h433.608C494.417,49.87,512,67.454,512,89.066v333.867
		C512,444.546,494.418,462.13,472.804,462.13z M39.196,78.325c-5.923,0-10.742,4.819-10.742,10.742v333.867
		c0,5.923,4.819,10.742,10.742,10.742h433.608c5.923,0,10.741-4.819,10.741-10.742V89.066c0-5.923-4.819-10.742-10.741-10.742
		H39.196z"/>
	<path style="fill:#3d6889;" d="M123.691,137.44H14.227C6.37,137.44,0,131.071,0,123.213s6.37-14.227,14.227-14.227h109.464
		c7.858,0,14.227,6.369,14.227,14.227S131.549,137.44,123.691,137.44z"/>
	<path style="fill:#3d6889;" d="M96.657,195.298H14.227C6.37,195.298,0,188.928,0,181.07c0-7.858,6.37-14.227,14.227-14.227h82.429
		c7.858,0,14.227,6.369,14.227,14.227C110.884,188.928,104.514,195.298,96.657,195.298z"/>
</g>
</svg>
