<?xml version="1.0" encoding="iso-8859-1"?>
<!-- Generator: Adobe Illustrator 19.0.0, SVG Export Plug-In . SVG Version: 6.00 Build 0)  -->
<svg version="1.1" id="Layer_1" xmlns="http://www.w3.org/2000/svg" xmlns:xlink="http://www.w3.org/1999/xlink" x="0px" y="0px"
	 viewBox="0 0 508.065 508.065" style="enable-background:new 0 0 508.065 508.065;" xml:space="preserve">
<g>
	<polygon style="fill:#FFFFFF;" points="365.609,147.483 463.109,97.183 333.109,30.183 235.609,80.483 	"/>
	<polygon style="fill:#FFFFFF;" points="258.609,202.683 128.609,135.683 45.009,178.783 175.009,245.883 	"/>
</g>
<path style="fill:#194F82;" d="M500.409,264.583c6.9-3.6,9.6-12.1,6.1-19c-3.6-6.9-12.1-9.6-19-6.1l-107.8,55.6v-45.6l120.7-62.3
	c6.9-3.6,9.6-12.1,6.1-19c-3.6-6.9-12.1-9.6-19-6.1l-107.8,55.6v-45.7l120.7-62.3c9.6-5.1,10.8-18.6,0-25.1l-160.8-82.9
	c-4.1-2.1-8.9-2.1-12.9,0l-318.9,164.6c-9.7,5.3-11.1,18.6,0,25.1l160.8,82.9c4.7,2.2,9,2,12.9,0l93.8-48.4v45.7l-100.3,51.7
	l-154.3-79.6c-6.9-3.6-15.4-0.9-19,6.1c-3.6,6.9-0.9,15.4,6.1,19l160.8,82.9c4.4,2.1,8.7,2.1,12.9,0l93.8-48.4v45.6l-100.3,51.7
	l-154.3-79.6c-6.9-3.6-15.4-0.9-19,6.1c-3.6,6.9-0.9,15.4,6.1,19l160.7,83c4.1,2,8.4,2.1,12.9,0l93.8-48.4v45.7l-100.2,51.6
	l-154.3-79.6c-6.9-3.6-15.4-0.9-19,6.1c-3.6,6.9-0.9,15.4,6.1,19l160.8,82.9c4.4,2.1,8.7,2.1,12.9,0l318.9-164.5
	c6.9-3.6,9.6-12.1,6.1-19c-3.6-6.9-12.1-9.6-19-6.1l-107.8,55.6v-45.7L500.409,264.583z M175.009,245.883l-130-67.1l83.6-43.1
	l130,67.1L175.009,245.883z M159.409,119.783l45.4-23.4l129.9,67l-45.4,23.4L159.409,119.783z M351.409,386.983l-45.8,23.6l-2.2,1.1
	v-200.4l48-24.8V386.983z M365.609,147.483l-130-67.1l97.5-50.3l130,67.1L365.609,147.483z"/>
<g>
	<path style="fill:#56ACE0;" d="M389.309,90.783l-53.1-27.4c-2,1-4.4,1-6.5,0l-63.6,32.8l68.5,35.3l54.7-28.2
		C384.209,100.683,384.209,93.383,389.309,90.783z"/>
	<path style="fill:#56ACE0;" d="M118.609,184.883l53.1,27.4c2-1,4.4-1,6.5,0l49.5-25.5l-68.5-35.3l-40.6,20.9
		C123.709,174.983,123.709,182.183,118.609,184.883z"/>
</g>
<g>
	<polygon style="fill:#FFC10D;" points="289.309,186.783 334.809,163.383 204.809,96.283 159.409,119.783 	"/>
	<polygon style="fill:#FFC10D;" points="303.509,411.783 305.609,410.683 351.409,386.983 351.409,186.583 303.509,211.283 	"/>
</g>
<g>
</g>
<g>
</g>
<g>
</g>
<g>
</g>
<g>
</g>
<g>
</g>
<g>
</g>
<g>
</g>
<g>
</g>
<g>
</g>
<g>
</g>
<g>
</g>
<g>
</g>
<g>
</g>
<g>
</g>
</svg>
