<?xml version="1.0" encoding="UTF-8" standalone="no"?>
<svg
   xmlns:dc="http://purl.org/dc/elements/1.1/"
   xmlns:cc="http://creativecommons.org/ns#"
   xmlns:rdf="http://www.w3.org/1999/02/22-rdf-syntax-ns#"
   xmlns:svg="http://www.w3.org/2000/svg"
   xmlns="http://www.w3.org/2000/svg"
   xmlns:sodipodi="http://sodipodi.sourceforge.net/DTD/sodipodi-0.dtd"
   xmlns:inkscape="http://www.inkscape.org/namespaces/inkscape"
   version="1.1"
   id="Layer_1"
   x="0px"
   y="0px"
   viewBox="0 0 24 24"
   xml:space="preserve"
   sodipodi:docname="fireplace-furniture-and-household-svgrepo-com.svg"
   width="24"
   height="24"
   inkscape:version="1.0.2-2 (e86c870879, 2021-01-15)"><metadata
   id="metadata1116"><rdf:RDF><cc:Work
       rdf:about=""><dc:format>image/svg+xml</dc:format><dc:type
         rdf:resource="http://purl.org/dc/dcmitype/StillImage" /><dc:title></dc:title></cc:Work></rdf:RDF></metadata><defs
   id="defs1114" /><sodipodi:namedview
   pagecolor="#ffffff"
   bordercolor="#666666"
   borderopacity="1"
   objecttolerance="10"
   gridtolerance="10"
   guidetolerance="10"
   inkscape:pageopacity="0"
   inkscape:pageshadow="2"
   inkscape:window-width="2334"
   inkscape:window-height="1051"
   id="namedview1112"
   showgrid="true"
   inkscape:zoom="22.627417"
   inkscape:cx="4.4437497"
   inkscape:cy="15.946989"
   inkscape:window-x="0"
   inkscape:window-y="0"
   inkscape:window-maximized="0"
   inkscape:current-layer="Layer_1"><inkscape:grid
     type="xygrid"
     id="grid1118" /></sodipodi:namedview>
<rect
   x="2.6628494"
   y="19.154507"
   style="fill:#73d0f4;stroke-width:0.0430696;fill-opacity:1"
   width="4.421123"
   height="3.2996678"
   id="rect1023" />
<g
   id="g1029"
   transform="matrix(0.04317505,0,0,0.04296442,1.0049281,1.006332)">
	<circle
   style="fill:#ff877f"
   cx="140.8"
   cy="38.400002"
   r="25.6"
   id="circle1025" />
	<rect
   x="38.400002"
   y="192"
   style="fill:#ff877f"
   width="64"
   height="76.800003"
   id="rect1027" />
</g>
<rect
   x="5.4260507"
   y="9.2555017"
   style="fill:#73d0ff;stroke-width:0.0430696;fill-opacity:1"
   width="4.421123"
   height="3.2996678"
   id="rect1031" />
<rect
   x="9.8471737"
   y="9.2555017"
   style="fill:#ffb7b2;stroke-width:0.0430696"
   width="4.421123"
   height="3.2996678"
   id="rect1033" />
<rect
   x="2.6628494"
   y="15.854838"
   style="fill:#ff877f;stroke-width:0.0430696"
   width="2.2105615"
   height="3.2996678"
   id="rect1035" />
<rect
   x="1.5575683"
   y="4.8559446"
   style="fill:#73d0f4;stroke-width:0.0430696;fill-opacity:1"
   width="21.000334"
   height="4.3995576"
   id="rect1037" />
<rect
   x="4.8734097"
   y="15.854838"
   style="fill:#bf655f;stroke-width:0.0430696"
   width="2.2105615"
   height="3.2996678"
   id="rect1039" />
<rect
   x="2.6628494"
   y="12.55517"
   style="fill:#73d0f4;stroke-width:0.0430696;fill-opacity:1"
   width="4.421123"
   height="3.2996678"
   id="rect1041" />
<g
   id="g1047"
   transform="matrix(0.04317505,0,0,0.04296442,1.0049281,1.006332)">
	<circle
   style="fill:#ff877f"
   cx="371.20001"
   cy="38.400002"
   r="25.6"
   id="circle1043" />
	<rect
   x="422.39999"
   y="345.60001"
   style="fill:#ff877f"
   width="51.200001"
   height="76.800003"
   id="rect1045" />
</g>
<g
   id="g1053"
   transform="matrix(0.04317505,0,0,0.04296442,1.0049281,1.006332)">
	<rect
   x="371.20001"
   y="268.79999"
   style="fill:#73d0f4;fill-opacity:1"
   width="102.4"
   height="76.800003"
   id="rect1049" />
	<rect
   x="371.20001"
   y="422.39999"
   style="fill:#73d0f4;fill-opacity:1"
   width="102.4"
   height="76.800003"
   id="rect1051" />
</g>
<rect
   x="18.689419"
   y="9.2555017"
   style="fill:#bf655f;stroke-width:0.0430696"
   width="2.7632017"
   height="3.2996678"
   id="rect1055" />
<rect
   x="14.268298"
   y="9.2555017"
   style="fill:#73d0f4;stroke-width:0.0430696;fill-opacity:1"
   width="4.421123"
   height="3.2996678"
   id="rect1057" />
<rect
   x="17.031496"
   y="15.854838"
   style="fill:#bf655f;stroke-width:0.0430696"
   width="2.2105615"
   height="3.2996678"
   id="rect1059" />
<g
   id="g1079"
   transform="matrix(0.04317505,0,0,0.04296442,1.0049281,1.006332)">
	<path
   style="fill:#3d6889;fill-opacity:1"
   d="M 486.4,76.8 H 448 371.2 320 v -64 C 320,5.726 314.274,0 307.2,0 300.126,0 294.4,5.726 294.4,12.8 v 64 h -25.6 v -64 C 268.8,5.726 263.074,0 256,0 248.926,0 243.2,5.726 243.2,12.8 v 64 h -25.6 v -64 C 217.6,5.726 211.874,0 204.8,0 197.726,0 192,5.726 192,12.8 v 64 H 140.8 64 25.6 C 11.46,76.8 0,88.26 0,102.4 v 76.8 c 0,14.14 11.46,25.6 25.6,25.6 v 281.6 c 0,14.14 11.46,25.6 25.6,25.6 H 128 c 14.14,0 25.6,-11.46 25.6,-25.6 V 281.6 h 204.8 v 204.8 c 0,14.14 11.46,25.6 25.6,25.6 h 76.8 c 14.14,0 25.6,-11.46 25.6,-25.6 V 204.8 c 14.14,0 25.6,-11.46 25.6,-25.6 V 102.4 C 512,88.26 500.54,76.8 486.4,76.8 Z M 128,486.4 H 51.2 V 435.2 H 128 Z M 51.2,409.6 v -51.2 h 25.6 v 51.2 z m 76.8,0 H 102.4 V 358.4 H 128 Z m 0,-76.8 H 51.2 V 281.6 H 128 Z M 51.2,256 V 204.8 H 89.6 V 256 Z M 192,256 H 128 115.2 V 204.8 H 192 Z m 102.4,0 h -76.8 v -51.2 h 76.8 z m 25.6,0 v -51.2 h 76.8 V 256 H 384 Z m 64,102.4 h 25.6 v 51.2 H 384 Z m 76.8,128 H 384 v -51.2 h 76.8 z m 0,-76.8 h -25.6 v -51.2 h 25.6 z m 0,-76.8 H 384 v -51.2 h 76.8 z m 0,-76.8 h -38.4 v -51.2 h 38.4 z m 25.6,-76.8 H 460.8 51.2 25.6 v -76.8 h 460.8 z"
   id="path1061" />
	<path
   style="fill:#ffc10d;fill-opacity:1"
   d="M 320,486.4 H 192 c -7.074,0 -12.8,5.726 -12.8,12.8 0,7.074 5.726,12.8 12.8,12.8 h 128 c 7.074,0 12.8,-5.726 12.8,-12.8 0,-7.074 -5.726,-12.8 -12.8,-12.8 z"
   id="path1063" />
	<path
   style="fill:#3d6889;fill-opacity:1"
   d="M 179.2,38.4 C 179.2,17.229 161.971,0 140.8,0 c -21.171,0 -38.4,17.229 -38.4,38.4 0,21.171 17.229,38.4 38.4,38.4 21.171,0 38.4,-17.229 38.4,-38.4 z m -38.4,12.8 c -7.066,0 -12.8,-5.734 -12.8,-12.8 0,-7.066 5.734,-12.8 12.8,-12.8 7.066,0 12.8,5.734 12.8,12.8 0,7.066 -5.734,12.8 -12.8,12.8 z"
   id="path1065" />
	<path
   style="fill:#3d6889;fill-opacity:1"
   d="M 409.6,38.4 C 409.6,17.229 392.371,0 371.2,0 c -21.171,0 -38.4,17.229 -38.4,38.4 0,21.171 17.229,38.4 38.4,38.4 21.171,0 38.4,-17.229 38.4,-38.4 z m -38.4,12.8 c -7.066,0 -12.8,-5.734 -12.8,-12.8 0,-7.066 5.734,-12.8 12.8,-12.8 7.066,0 12.8,5.734 12.8,12.8 0,7.066 -5.734,12.8 -12.8,12.8 z"
   id="path1067" />
	
	
	<path
   style="fill:#ffc10d;fill-opacity:1"
   d="m 210.253,398.029 c -6.451,-3.021 -14.029,-0.273 -17.024,6.127 -3.021,6.4 -0.273,14.029 6.127,17.024 5.001,2.347 8.678,7.825 8.977,13.329 0.427,7.296 -5.325,12.399 -10.197,15.377 -6.05,3.703 -7.927,11.571 -4.25,17.604 2.415,3.934 6.613,6.11 10.914,6.11 2.304,0 4.599,-0.597 6.673,-1.877 15.104,-9.25 23.279,-23.322 22.426,-38.622 -0.828,-14.951 -10.095,-28.723 -23.646,-35.072 z"
   id="path1073" />
	<path
   style="fill:#ffc10d;fill-opacity:1"
   d="m 265.549,324.275 c -4.753,-5.299 -12.877,-5.7 -18.074,-1.024 -29.747,26.598 -14.797,53.35 -3.874,72.875 12.228,21.803 18.85,36.224 2.423,56.653 -4.429,5.504 -3.55,13.577 1.954,17.997 2.372,1.903 5.197,2.825 8.021,2.825 3.729,0 7.45,-1.621 9.975,-4.779 28.1,-34.953 11.853,-64 -0.026,-85.197 -11.802,-21.077 -15.172,-28.979 -1.425,-41.276 5.275,-4.728 5.728,-12.8 1.026,-18.074 z"
   id="path1075" />
	<path
   style="fill:#ffc10d;fill-opacity:1"
   d="m 310.554,371.652 c -6.852,-1.775 -13.85,2.202 -15.701,9.003 -3.925,14.473 1.673,26.547 6.153,36.25 6.204,13.423 9.626,20.804 -3.354,35.379 -4.702,5.299 -4.25,13.372 1.024,18.074 2.449,2.167 5.504,3.243 8.525,3.243 3.524,0 7.023,-1.451 9.549,-4.275 24.149,-27.127 14.123,-48.802 7.501,-63.172 -3.823,-8.277 -6.101,-13.602 -4.702,-18.799 1.851,-6.828 -2.177,-13.851 -8.995,-15.703 z"
   id="path1077" />
</g>
<g
   id="g1081"
   transform="matrix(0.04317505,0,0,0.04296442,1.0049281,1.006332)">
</g>
<g
   id="g1083"
   transform="matrix(0.04317505,0,0,0.04296442,1.0049281,1.006332)">
</g>
<g
   id="g1085"
   transform="matrix(0.04317505,0,0,0.04296442,1.0049281,1.006332)">
</g>
<g
   id="g1087"
   transform="matrix(0.04317505,0,0,0.04296442,1.0049281,1.006332)">
</g>
<g
   id="g1089"
   transform="matrix(0.04317505,0,0,0.04296442,1.0049281,1.006332)">
</g>
<g
   id="g1091"
   transform="matrix(0.04317505,0,0,0.04296442,1.0049281,1.006332)">
</g>
<g
   id="g1093"
   transform="matrix(0.04317505,0,0,0.04296442,1.0049281,1.006332)">
</g>
<g
   id="g1095"
   transform="matrix(0.04317505,0,0,0.04296442,1.0049281,1.006332)">
</g>
<g
   id="g1097"
   transform="matrix(0.04317505,0,0,0.04296442,1.0049281,1.006332)">
</g>
<g
   id="g1099"
   transform="matrix(0.04317505,0,0,0.04296442,1.0049281,1.006332)">
</g>
<g
   id="g1101"
   transform="matrix(0.04317505,0,0,0.04296442,1.0049281,1.006332)">
</g>
<g
   id="g1103"
   transform="matrix(0.04317505,0,0,0.04296442,1.0049281,1.006332)">
</g>
<g
   id="g1105"
   transform="matrix(0.04317505,0,0,0.04296442,1.0049281,1.006332)">
</g>
<g
   id="g1107"
   transform="matrix(0.04317505,0,0,0.04296442,1.0049281,1.006332)">
</g>
<g
   id="g1109"
   transform="matrix(0.04317505,0,0,0.04296442,1.0049281,1.006332)">
</g>
</svg>
