<?xml version="1.0" encoding="iso-8859-1"?>
<!-- Generator: Adobe Illustrator 19.0.0, SVG Export Plug-In . SVG Version: 6.00 Build 0)  -->
<svg version="1.1" id="Layer_1" xmlns="http://www.w3.org/2000/svg" xmlns:xlink="http://www.w3.org/1999/xlink" x="0px" y="0px"
	 viewBox="0 0 392.574 392.574" style="enable-background:new 0 0 392.574 392.574;" xml:space="preserve">
<g>
	<path style="fill:#FFFFFF;" d="M166.248,216.683c-0.84-5.43-5.495-9.374-10.99-9.374H48.398c-5.495,0-10.149,3.943-10.99,9.374
		l-14.933,93.479c-0.711,6.465,3.556,13.123,10.99,12.929h136.792c7.887-0.323,12.412-7.24,10.99-12.929L166.248,216.683z"/>
	<path style="fill:#FFFFFF;" d="M355.21,216.683c-0.84-5.43-5.495-9.374-10.99-9.374H237.359c-5.495,0-10.02,3.943-10.99,9.374
		l-14.998,93.479c-0.711,6.465,3.556,13.123,10.99,12.929h136.792c7.887-0.323,12.412-7.24,10.99-12.929L355.21,216.683z"/>
	<path style="fill:#FFFFFF;" d="M127.913,185.071h136.857c7.822-0.388,12.412-7.24,10.99-12.929l-14.998-93.479
		c-0.84-5.43-5.495-9.374-10.99-9.374H142.975c-5.495,0-10.149,3.943-10.99,9.374l-14.998,93.479
		C116.341,178.671,120.608,185.265,127.913,185.071z"/>
</g>
<g>
	<path style="fill:#FFC10D;" d="M145.755,229.418H57.901l-4.073,25.471h42.861c6.077,0,11.119,4.913,11.119,11.119
		c0,6.206-4.913,11.119-11.119,11.119H50.272l-3.814,23.596h110.739L145.755,229.418z"/>
	<path style="fill:#FFC10D;" d="M334.781,229.418h-87.919l-4.073,25.471h45.64c6.077,0,11.119,4.913,11.119,11.119
		c0,6.206-4.913,11.119-11.119,11.119h-49.325l-3.814,23.596h110.869L334.781,229.418z"/>
</g>
<path style="fill:#56ACE0;" d="M240.268,91.398h-87.855l-4.073,25.471h43.572c6.077,0,11.119,4.913,11.119,11.119
	c0,6.077-4.913,11.119-11.119,11.119h-47.192l-3.814,23.596h110.739L240.268,91.398z"/>
<path style="fill:#194F82;" d="M392.123,306.671l-14.998-93.479c-2.65-16.291-16.485-28.057-32.905-28.057h-47.968
	c1.745-4.913,2.392-10.537,1.487-16.356l-14.998-93.479c-2.65-16.291-16.485-28.057-32.905-28.057H142.975
	c-16.485,0-30.319,11.83-32.905,28.057L95.072,168.78c-1.034,5.495-0.388,11.119,1.552,16.356H48.398
	c-16.485,0-30.319,11.83-32.905,28.057L0.495,306.671c-3.426,18.36,11.313,38.659,32.905,38.659h136.792
	c10.214,0,19.846-4.849,26.117-12.671c5.947,7.499,15.127,12.671,26.053,12.671h136.792
	C378.289,345.265,395.614,328.327,392.123,306.671z M359.218,323.091H222.426c-7.434,0.259-11.636-6.4-10.99-12.929l14.998-93.479
	c0.84-5.43,5.495-9.374,10.99-9.374h106.861c5.495,0,10.15,3.943,10.99,9.374l14.998,93.479
	C371.695,315.721,367.105,322.703,359.218,323.091z M170.256,323.091H33.464c-7.434,0.259-11.636-6.4-10.99-12.929l14.998-93.479
	c0.84-5.43,5.495-9.374,10.99-9.374h106.861c5.495,0,10.02,3.943,10.99,9.374l14.998,93.479
	C182.733,315.721,178.078,322.703,170.256,323.091z M142.975,69.289h106.861c5.495,0,10.15,3.943,10.99,9.374l14.998,93.479
	c1.487,5.56-3.103,12.541-10.99,12.929H127.913c-7.434,0.259-11.636-6.4-10.99-12.929l14.998-93.479
	C132.891,73.232,137.416,69.289,142.975,69.289z M196.309,263.939l-8.145-50.877c-0.323-2.004-0.84-3.943-1.487-5.883h19.265
	c-0.646,1.875-1.164,3.814-1.487,5.883L196.309,263.939z"/>
<g>
</g>
<g>
</g>
<g>
</g>
<g>
</g>
<g>
</g>
<g>
</g>
<g>
</g>
<g>
</g>
<g>
</g>
<g>
</g>
<g>
</g>
<g>
</g>
<g>
</g>
<g>
</g>
<g>
</g>
</svg>
