<svg width="24px" height="24px" viewBox="0 0 24 24" fill="none" xmlns="http://www.w3.org/2000/svg">
<g
   transform="matrix(0.02048935,0,0,0.02048935,5.5583878,8.0267448)">
<path
   style="fill:#ffc10d;fill-opacity:1"
   d="m 652.30004,-179.72283 h -170.742 c -10.688,0 -20.734,4.16 -28.289,11.715 L 9.375,283.313 C 3.328,289.355 0,297.395 0,305.941 c 0,8.546 3.328,16.582 9.375,22.625 L 183.43,502.625 c 6.047,6.047 14.078,9.375 22.633,9.375 8.547,0 16.578,-3.328 22.625,-9.375 L 672.58204,51.304168 c 7.555,-7.555 11.719,-17.602 11.719,-28.281 V -147.72283 c -10e-4,-17.645 -14.353,-32 -32.001,-32 z m -101.509,222.801191 c -60.70216,0.609223 -91.89168,-31.549778 -91.49835,-85.94246 0.36965,-51.11711 29.74035,-80.260231 89.64045,-80.581081 50.44193,-0.2702 82.68382,27.959852 83.88191,79.055899 1.30332,55.584467 -27.92684,86.924707 -82.02401,87.467642 z"
/>
</g>
<g
   style="fill:#194f82;fill-opacity:1"
   transform="matrix(0.04298736,0,0,0.04298736,1.0036742,1.0036722)"
   id="g6418">
<path
   style="fill:#194f82;fill-opacity:1"
   d="M 480,0 H 309.258 C 298.57,0 288.524,4.16 280.969,11.715 L 9.375,283.313 C 3.328,289.355 0,297.395 0,305.941 c 0,8.546 3.328,16.582 9.375,22.625 L 183.43,502.625 c 6.047,6.047 14.078,9.375 22.633,9.375 8.547,0 16.578,-3.328 22.625,-9.375 L 500.282,231.027 c 7.555,-7.555 11.719,-17.602 11.719,-28.281 V 32 C 512,14.355 497.648,0 480,0 Z M 472,202.745 206.059,468.687 43.314,305.941 309.255,40 H 472 Z"
   id="path890" />
</g>

<g
   transform="matrix(0.04298736,0,0,0.04298736,1.0855616,-16.43501)"
   id="g6421">
<path
   style="fill:#56ace0;fill-opacity:1"
   d="m 205.32565,880.79788 c -2.047,0 -4.094,-0.781 -5.656,-2.344 l -3.648,-3.648 c -3.125,-3.125 -3.125,-8.188 0,-11.313 2.414,-2.414 5.992,-2.969 8.938,-1.641 l 2.375,-2.375 c 3.125,-3.125 8.188,-3.125 11.313,0 3.125,3.125 3.125,8.188 0,11.313 l -7.664,7.664 c -1.565,1.562 -3.612,2.344 -5.658,2.344 z m -26.274,-26.274 c -2.047,0 -4.094,-0.781 -5.656,-2.344 l -11.313,-11.316 c -3.125,-3.125 -3.125,-8.191 0,-11.313 3.125,-3.125 8.188,-3.125 11.313,0 l 11.313,11.316 c 3.125,3.125 3.125,8.191 0,11.313 -1.563,1.563 -3.61,2.344 -5.657,2.344 z m 56.57,-4.019 c -2.047,0 -4.094,-0.781 -5.656,-2.344 -3.125,-3.125 -3.125,-8.188 0,-11.313 l 11.313,-11.313 c 3.125,-3.125 8.188,-3.125 11.313,0 3.125,3.125 3.125,8.188 0,11.313 l -11.313,11.313 c -1.563,1.562 -3.61,2.344 -5.657,2.344 z m -90.515,-29.922 c -2.047,0 -4.094,-0.781 -5.656,-2.344 l -11.313,-11.313 c -3.125,-3.125 -3.125,-8.188 0,-11.313 3.125,-3.125 8.188,-3.125 11.313,0 l 11.312,11.313 c 3.125,3.125 3.125,8.188 0,11.313 -1.562,1.562 -3.609,2.344 -5.656,2.344 z m 124.453,-4.02 c -2.047,0 -4.094,-0.781 -5.656,-2.344 -3.125,-3.125 -3.125,-8.188 0,-11.313 l 11.313,-11.313 c 3.125,-3.125 8.188,-3.125 11.313,0 3.125,3.125 3.125,8.188 0,11.313 l -11.313,11.313 c -1.563,1.563 -3.61,2.344 -5.657,2.344 z m -158.391,-29.922 c -2.047,0 -4.094,-0.781 -5.656,-2.344 l -11.312994,-11.313 c -3.125,-3.125 -3.125,-8.188 0,-11.313 3.125,-3.125 8.187994,-3.125 11.312994,0 l 11.313,11.313 c 3.125,3.125 3.125,8.188 0,11.313 -1.563,1.563 -3.61,2.344 -5.657,2.344 z m 192.328,-4.019 c -2.047,0 -4.094,-0.781 -5.656,-2.344 -3.125,-3.125 -3.125,-8.191 0,-11.316 l 11.32,-11.313 c 3.125,-3.117 8.188,-3.121 11.313,0.004 3.125,3.125 3.125,8.191 0,11.316 l -11.32,11.313 c -1.563,1.558 -3.61,2.34 -5.657,2.34 z m -226.272994,-29.922 c -2.047,0 -4.094,-0.781 -5.656,-2.344 l -11.313,-11.313 c -3.125,-3.125 -3.125,-8.188 0,-11.313 3.125,-3.125 8.188,-3.125 11.313,0 l 11.313,11.313 c 3.125,3.125 3.125,8.188 0,11.313 -1.563,1.563 -3.61,2.344 -5.657,2.344 z m 260.218994,-4.02 c -2.047,0 -4.094,-0.781 -5.656,-2.344 -3.125,-3.125 -3.125,-8.188 0,-11.313 l 11.313,-11.313 c 3.125,-3.125 8.188,-3.125 11.313,0 3.125,3.125 3.125,8.188 0,11.313 l -11.313,11.313 c -1.564,1.563 -3.61,2.344 -5.657,2.344 z m -294.156994,-29.922 c -2.039,0 -4.078,-0.773 -5.641,-2.328 l -0.711,-0.707 c -1.508,-1.5 -2.359,-3.535 -2.359,-5.66 0,-2.125 0.836,-4.164 2.344,-5.668 l 10.602,-10.605 c 3.125,-3.125 8.188,-3.125 11.313,0 3.125,3.121 3.125,8.188 0,11.313 l -7.852,7.859 c -0.359,1.258 -1.031,2.445 -2.023,3.438 -1.563,1.573 -3.618,2.358 -5.673,2.358 z m 328.093994,-4.019 c -2.047,0 -4.094,-0.781 -5.656,-2.344 -3.125,-3.125 -3.125,-8.188 0,-11.313 l 11.313,-11.313 c 3.125,-3.125 8.188,-3.125 11.313,0 3.125,3.125 3.125,8.188 0,11.313 l -11.313,11.313 c -1.563,1.563 -3.61,2.344 -5.657,2.344 z m -295.569994,-29.922 c -2.047,0 -4.094,-0.781 -5.656,-2.344 -3.125,-3.125 -3.125,-8.188 0,-11.313 l 11.313,-11.313 c 3.125,-3.125 8.188,-3.125 11.313,0 3.125,3.125 3.125,8.188 0,11.313 l -11.313,11.313 c -1.563,1.563 -3.61,2.344 -5.657,2.344 z m 329.515994,-4.019 c -2.047,0 -4.094,-0.781 -5.656,-2.344 -3.125,-3.125 -3.125,-8.188 0,-11.313 l 11.313,-11.313 c 3.125,-3.125 8.188,-3.125 11.313,0 3.125,3.125 3.125,8.188 0,11.313 l -11.313,11.313 c -1.564,1.562 -3.611,2.344 -5.657,2.344 z m -295.579,-29.918 c -2.047,0 -4.094,-0.781 -5.656,-2.344 -3.12499,-3.121 -3.12499,-8.188 0,-11.313 l 11.313,-11.316 c 3.125,-3.125 8.188,-3.125 11.313,0 3.125,3.121 3.125,8.188 0,11.313 l -11.313,11.316 c -1.563,1.562 -3.61,2.344 -5.657,2.344 z m 329.516,-4.024 c -2.047,0 -4.094,-0.781 -5.656,-2.344 -3.125,-3.125 -3.125,-8.188 0,-11.313 l 11.313,-11.313 c 3.125,-3.125 8.188,-3.125 11.313,0 3.125,3.125 3.125,8.188 0,11.313 l -11.313,11.313 c -1.563,1.563 -3.61,2.344 -5.657,2.344 z m -295.57,-29.918 c -2.047,0 -4.094,-0.781 -5.656,-2.344 -3.125,-3.121 -3.125,-8.188 0,-11.313 l 11.313,-11.316 c 3.125,-3.125 8.188,-3.125 11.313,0 3.125,3.121 3.125,8.188 0,11.313 l -11.313,11.316 c -1.564,1.563 -3.61,2.344 -5.657,2.344 z m 327.57,-4.828 c -4.422,0 -8,-3.582 -8,-8 v -16 c 0,-4.418 3.578,-8 8,-8 4.422,0 8,3.582 8,8 v 16 c 0,4.418 -3.578,8 -8,8 z m -293.633,-29.113 c -2.047,0 -4.094,-0.781 -5.656,-2.344 -3.125,-3.125 -3.125,-8.188 0,-11.313 l 11.313,-11.313 c 3.125,-3.125 8.188,-3.125 11.313,0 3.125,3.125 3.125,8.188 0,11.313 l -11.313,11.313 c -1.563,1.562 -3.61,2.344 -5.657,2.344 z m 293.633,-18.887 c -4.422,0 -8,-3.582 -8,-8 v -16 c 0,-4.418 3.578,-8 8,-8 4.422,0 8,3.582 8,8 v 16 c 0,4.418 -3.578,8 -8,8 z m -259.687,-15.055 c -2.047,0 -4.094,-0.781 -5.656,-2.344 -3.125,-3.125 -3.125,-8.188 0,-11.313 l 11.313,-11.313 c 3.125,-3.125 8.188,-3.125 11.313,0 3.125,3.125 3.125,8.188 0,11.313 l -11.313,11.313 c -1.564,1.563 -3.611,2.344 -5.657,2.344 z m 259.687,-32.945 c -4.422,0 -8,-3.582 -8,-8 v -16 c 0,-4.418 3.578,-8 8,-8 4.422,0 8,3.582 8,8 v 16 c 0,4.418 -3.578,8 -8,8 z m -225.75,-0.996 c -2.047,0 -4.094,-0.781 -5.656,-2.344 -3.125,-3.125 -3.125,-8.188 0,-11.313 l 11.313,-11.313 c 3.125,-3.125 8.188,-3.125 11.313,0 3.125,3.125 3.125,8.188 0,11.313 l -11.313,11.313 c -1.563,1.563 -3.61,2.344 -5.657,2.344 z m 33.945,-33.941 c -2.047,0 -4.094,-0.781 -5.656,-2.344 -3.125,-3.125 -3.125,-8.188 0,-11.313 l 11.313,-11.313 c 3.125,-3.125 8.188,-3.125 11.313,0 3.125,3.125 3.125,8.188 0,11.313 l -11.313,11.313 c -1.563,1.562 -3.61,2.344 -5.657,2.344 z m 191.805,-13.063 c -4.422,0 -8,-3.582 -8,-8 v -8 h -3.844 c -4.422,0 -8,-3.582 -8,-8 0,-4.418 3.578,-8 8,-8 h 11.844 c 4.422,0 8,3.582 8,8 v 16 c 0,4.418 -3.578,8 -8,8 z m -43.844,-16 h -16 c -4.422,0 -8,-3.582 -8,-8 0,-4.418 3.578,-8 8,-8 h 16 c 4.422,0 8,3.582 8,8 0,4.418 -3.578,8 -8,8 z m -48,0 h -16 c -4.422,0 -8,-3.582 -8,-8 0,-4.418 3.578,-8 8,-8 h 16 c 4.422,0 8,3.582 8,8 0,4.418 -3.578,8 -8,8 z m -48,0 h -16 c -4.422,0 -8,-3.582 -8,-8 0,-4.418 3.578,-8 8,-8 h 16 c 4.422,0 8,3.582 8,8 0,4.418 -3.578,8 -8,8 z" />
</g>
</svg>
