<svg width="24px" height="24px" viewBox="0 0 24 24" fill="none" xmlns="http://www.w3.org/2000/svg">
<path
   style="fill:#ffffff;stroke-width:0.0560461"
   d="m 21.778925,12 c 0,-5.3912982 -4.387681,-9.7789796 -9.77898,-9.7789796 -5.3912992,0 -9.7789806,4.3876814 -9.7789806,9.7789796 0,5.3913 4.3876814,9.778981 9.7789806,9.778981 5.391299,0 9.77898,-4.387681 9.77898,-9.778981 z"
   id="path4248" />
<path
   style="fill:#ffc10d;stroke-width:0.0560461"
   d="m 19.166617,12 c 0,-3.952875 -3.217384,-7.1666706 -7.166672,-7.1666706 -2.9927501,0 -5.5615673,1.844197 -6.6340656,4.4529189 h 2.3043357 c 0.3369491,0 0.6123036,0.2717116 0.6123036,0.6123038 0,0.3369489 -0.2717115,0.6123039 -0.6123036,0.6123039 H 4.9891376 c -0.090571,0.434805 -0.1412923,0.88407 -0.1521652,1.34421 h 1.6775158 c 0.3369494,0 0.6123039,0.271711 0.6123039,0.612303 0,0.340592 -0.2717116,0.612304 -0.6123039,0.612304 H 4.9130269 C 5.4311172,16.525331 8.412994,19.177489 12.003588,19.177489 15.952876,19.166614 19.166617,15.952876 19.166617,12 Z"
   id="path4250" />
<g
   id="g4258"
   transform="matrix(0.0560461,0,0,0.0560461,1,1)">
	<path
   style="fill:#194f82"
   d="M 196.267,0 C 87.984,0 0,87.984 0,196.267 0,304.55 87.984,392.534 196.267,392.534 304.55,392.534 392.534,304.55 392.534,196.267 392.534,87.984 304.549,0 196.267,0 Z M 21.786,196.267 c 0,-96.194 78.287,-174.481 174.481,-174.481 96.194,0 174.481,78.287 174.481,174.481 0,96.194 -78.287,174.481 -174.481,174.481 -96.194,0 -174.481,-78.287 -174.481,-174.481 z"
   id="path4252" />
	<path
   style="fill:#194f82"
   d="m 196.267,46.481 c -82.554,0 -149.786,67.232 -149.786,149.786 0,82.554 67.232,149.786 149.786,149.786 82.554,0 149.786,-67.232 149.786,-149.786 0,-82.554 -67.233,-149.786 -149.786,-149.786 z M 69.754,215.337 h 28.509 c 6.012,0 10.925,-4.848 10.925,-10.925 0,-6.077 -4.848,-10.925 -10.925,-10.925 H 68.461 c 0.129,-8.21 1.099,-16.226 2.715,-23.984 h 47.838 c 6.012,0 10.925,-4.848 10.925,-10.925 0,-6.012 -4.848,-10.925 -10.925,-10.925 h -41.05 c 19.071,-46.61 64.905,-79.451 118.303,-79.451 70.529,0 127.871,57.406 127.871,127.871 0,70.465 -57.341,128.065 -127.871,128.065 C 132.202,324.137 79.063,276.881 69.754,215.337 Z"
   id="path4254" />
	<path
   style="fill:#194f82"
   d="m 196.267,134.4 c 13.834,0 25.083,11.313 25.083,25.083 0,6.012 4.848,10.925 10.925,10.925 6.012,0 10.925,-4.848 10.925,-10.925 0,-22.109 -15.386,-40.663 -36.008,-45.576 v -3.103 c 0,-6.012 -4.848,-10.925 -10.925,-10.925 -6.077,0 -10.925,4.848 -10.925,10.925 v 3.103 c -20.622,4.913 -36.008,23.467 -36.008,45.576 0,27.798 22.949,47.968 46.933,46.933 v 0 c 13.834,0 25.083,11.313 25.083,25.083 0,13.77 -11.313,25.083 -25.083,25.083 -13.77,0 -25.083,-11.313 -25.083,-25.083 0,-6.012 -4.848,-10.925 -10.925,-10.925 -6.012,0 -10.925,4.848 -10.925,10.925 0,22.109 15.386,40.663 36.008,45.576 v 4.784 c 0,6.012 4.848,10.925 10.925,10.925 6.012,0 10.925,-4.848 10.925,-10.925 v -4.784 c 20.622,-4.978 36.008,-23.467 36.008,-45.576 0,-12.541 -4.848,-24.372 -13.77,-33.164 -8.921,-8.857 -20.622,-13.705 -33.164,-13.705 v 0 c -13.834,0 -25.083,-11.313 -25.083,-25.083 0.001,-13.769 11.249,-25.147 25.084,-25.147 z"
   id="path4256" />
</g>
</svg>
