<svg width="24px" height="24px" viewBox="0 0 24 24" fill="none" xmlns="http://www.w3.org/2000/svg">
<path
   style="fill:#ffffff;stroke-width:0.0558781"
   d="m 6.3234261,13.540856 c -2.2540644,0 -4.0927315,1.835034 -4.0927315,4.092731 0,2.254065 1.835035,4.092731 4.0927315,4.092731 2.2540646,0 4.0927319,-1.835034 4.0927319,-4.092731 -0.0036,-2.257697 -1.8386115,-4.092731 -4.0927319,-4.092731 z"
   id="path4913" />
<path
   style="fill:#ffc10d;stroke-width:0.0558781"
   d="m 17.637221,13.540856 c -2.254064,0 -4.092731,1.835034 -4.092731,4.092731 0,2.254065 1.835036,4.092731 4.092731,4.092731 2.254065,0 4.092733,-1.835034 4.092733,-4.092731 0,-2.257697 -1.835035,-4.092731 -4.092733,-4.092731 z"
   id="path4915" />
<path
   style="fill:#56ace0;stroke-width:0.0558781"
   d="m 11.980351,2.2234837 c -2.2540639,0 -4.0927308,1.835035 -4.0927308,4.0927315 0,2.2540646 1.8350346,4.0927318 4.0927308,4.0927318 2.257697,0 4.092732,-1.8350352 4.092732,-4.0927318 0,-2.2576965 -1.838667,-4.0927315 -4.092732,-4.0927315 z"
   id="path4917" />
<g
   id="g4927"
   transform="matrix(0.05587804,0,0,0.05587804,1.0133354,1.0133328)">
	<path
   style="fill:#194f82"
   d="m 202.279,121.083 h -30.513 c -6.012,0 -10.925,4.848 -10.925,10.925 0,6.012 4.848,10.925 10.925,10.925 h 18.23 v 3.168 c 0,6.012 4.848,10.925 10.925,10.925 6.012,0 10.925,-4.848 10.925,-10.925 v -4.848 c 11.507,-3.943 19.846,-14.804 19.846,-27.669 0,-16.226 -13.188,-29.349 -29.349,-29.349 h -12.024 c -4.202,0 -7.564,-3.426 -7.564,-7.564 0,-4.202 3.426,-7.564 7.564,-7.564 h 30.513 c 6.012,0 10.925,-4.848 10.925,-10.925 0,-6.012 -4.848,-10.99 -10.925,-10.99 h -9.051 v -3.103 c 0,-6.012 -4.848,-10.925 -10.925,-10.925 -6.077,0 -10.925,4.848 -10.925,10.925 v 3.103 c -16.097,0.129 -29.156,13.317 -29.156,29.349 0,16.226 13.188,29.349 29.35,29.349 h 12.024 c 4.202,0 7.564,3.426 7.564,7.564 0.129,4.138 -3.232,7.629 -7.434,7.629 z"
   id="path4919" />
	<path
   style="fill:#194f82"
   d="m 345.147,215.402 c 0,-0.711 0.065,-1.293 0.065,-2.004 0,-44.865 -19.717,-86.303 -54.109,-114.683 0.065,-1.228 0.129,-2.392 0.129,-3.62 C 291.232,42.602 248.566,0 196.202,0 c -52.364,0 -95.03,42.667 -95.03,95.03 0,1.228 0.129,2.392 0.129,3.556 -34.457,28.444 -54.109,69.947 -54.109,114.747 0,0.711 0.065,1.293 0.065,2.004 C 19.071,231.887 0,262.465 0,297.503 c 0,52.364 42.667,95.03 95.03,95.03 28.768,0 54.562,-12.929 71.952,-33.164 9.568,1.939 19.394,2.909 29.285,2.909 9.891,0 19.717,-1.034 29.285,-2.909 17.455,20.234 43.184,33.164 71.952,33.164 52.364,0 95.03,-42.667 95.03,-95.03 -10e-4,-35.038 -19.071,-65.616 -47.387,-82.101 z M 196.267,21.786 c 40.339,0 73.244,32.84 73.244,73.244 0,40.404 -32.84,73.244 -73.244,73.244 -40.404,0 -73.244,-32.84 -73.244,-73.244 0,-40.404 32.904,-73.244 73.244,-73.244 z M 95.03,370.747 c -40.339,0 -73.244,-32.84 -73.244,-73.244 0,-40.404 32.84,-73.244 73.244,-73.244 40.339,0 73.244,32.84 73.244,73.244 -0.064,40.404 -32.904,73.244 -73.244,73.244 z m 85.14,-31.353 c 6.271,-12.671 9.891,-26.828 9.891,-41.891 0,-52.364 -42.667,-95.03 -95.03,-95.03 -8.857,0 -17.455,1.293 -25.665,3.62 1.745,-31.224 14.675,-60.057 36.461,-82.036 12.283,38.271 48.162,66.069 90.44,66.069 42.278,0 78.093,-27.733 90.44,-66.004 21.786,21.915 34.78,50.877 36.461,81.972 -8.21,-2.327 -16.743,-3.62 -25.665,-3.62 -52.364,0 -95.03,42.667 -95.03,95.03 0,15.063 3.62,29.285 9.891,41.891 -10.667,1.357 -21.528,1.357 -32.194,-10e-4 z m 117.333,31.353 c -40.339,0 -73.244,-32.84 -73.244,-73.244 0,-40.404 32.84,-73.244 73.244,-73.244 40.339,0 73.244,32.84 73.244,73.244 0,40.404 -32.84,73.244 -73.244,73.244 z"
   id="path4921" />
	<path
   style="fill:#194f82"
   d="m 336.808,250.311 c -4.719,-3.814 -11.507,-3.103 -15.386,1.552 l -23.984,29.35 -23.984,-29.349 c -3.814,-4.655 -10.667,-5.301 -15.386,-1.552 -4.655,3.814 -5.301,10.667 -1.552,15.386 l 29.996,36.719 v 9.503 h -8.21 c -6.012,0 -10.925,4.848 -10.925,10.925 0,6.077 4.848,10.925 10.925,10.925 h 8.21 v 13.511 c 0,6.012 4.848,10.925 10.925,10.925 6.012,0 10.925,-4.848 10.925,-10.925 V 333.77 h 8.145 c 6.012,0 10.925,-4.848 10.925,-10.925 0,-6.012 -4.848,-10.925 -10.925,-10.925 h -8.145 v -9.503 l 29.931,-36.719 c 3.881,-4.785 3.17,-11.637 -1.485,-15.387 z"
   id="path4923" />
	<path
   style="fill:#194f82"
   d="m 107.313,246.626 c -25.341,0 -37.56,6.659 -37.818,43.766 h -3.879 c -6.012,0 -10.925,4.848 -10.925,10.925 0,6.012 4.978,10.925 10.99,10.925 h 2.327 c -1.552,6.465 -4.331,12.929 -9.18,16.873 -3.556,2.909 -4.978,7.758 -3.426,12.154 1.552,4.331 5.624,7.24 10.279,7.24 h 47.386 c 6.012,0 10.925,-4.848 10.925,-10.925 0,-6.012 -4.848,-10.925 -10.925,-10.925 H 86.368 c 1.939,-4.849 3.103,-9.762 3.943,-14.352 h 21.851 c 6.012,0 10.925,-4.848 10.925,-10.925 0,-6.012 -4.848,-10.925 -10.925,-10.925 H 91.345 c 0,-21.851 0.517,-21.915 15.451,-21.915 6.335,0.453 6.594,5.43 6.659,7.046 0.323,6.012 5.236,10.602 11.442,10.343 6.012,-0.323 10.667,-5.43 10.343,-11.442 -1.034,-19.911 -17.002,-27.54 -27.927,-27.863 z"
   id="path4925" />
</g>
</svg>
