<svg width="24px" height="24px" viewBox="0 0 24 24" fill="none" xmlns="http://www.w3.org/2000/svg">
<path
   style="fill:#194f82;fill-opacity:1;stroke-width:0.0429583"
   d="m 2.3653409,15.45791 c -0.752501,0 -1.3625523,0.610095 -1.3625523,1.362596 v 4.816918 c 0,0.04515 0.00227,0.09021 0.00669,0.135146 0.00202,0.01925 0.00563,0.03805 0.00838,0.05705 0.00344,0.02496 0.00635,0.04997 0.011339,0.07475 0.00446,0.02225 0.010519,0.04378 0.015981,0.0656 0.00546,0.02126 0.010093,0.04261 0.016453,0.06367 0.00652,0.02152 0.014606,0.04231 0.022166,0.06341 0.00757,0.02089 0.014348,0.04188 0.022897,0.06242 0.00817,0.01972 0.017698,0.03862 0.026892,0.05787 0.00979,0.0211 0.019245,0.04231 0.030328,0.06293 0.00979,0.01843 0.021092,0.03587 0.031787,0.05378 0.012072,0.02028 0.023541,0.04078 0.036687,0.06048 0.013359,0.01981 0.028052,0.03831 0.042228,0.05739 0.012458,0.01652 0.023886,0.0335 0.037073,0.04962 0.027451,0.03334 0.056404,0.06538 0.086733,0.09601 0.0013,0.0012 0.00219,0.0025 0.00344,0.0039 0.00154,0.0014 0.00309,0.0026 0.00454,0.0041 0.030415,0.03007 0.062118,0.05885 0.095282,0.08604 0.016152,0.01328 0.033165,0.02496 0.049875,0.03734 0.018987,0.01417 0.037417,0.02879 0.057134,0.04196 0.019719,0.01319 0.040081,0.02461 0.060315,0.03669 0.018,0.01082 0.035526,0.022 0.054041,0.03188 0.020534,0.01094 0.041584,0.02027 0.062505,0.03016 0.019459,0.009 0.038535,0.01882 0.058338,0.02707 0.020363,0.0083 0.041068,0.01517 0.061689,0.0225 0.02135,0.0077 0.0424,0.01581 0.064223,0.0225 0.02062,0.0062 0.041326,0.01082 0.062118,0.0159 0.022339,0.0056 0.044505,0.0119 0.067316,0.01645 0.023886,0.0048 0.047769,0.0075 0.071869,0.01094 0.019975,0.0028 0.039693,0.0067 0.059841,0.0087 0.044678,0.0044 0.089567,0.0069 0.1345454,0.0069 h 4.8173495 c 0.7525011,0 1.3625524,-0.610052 1.3625524,-1.362552 0,-0.752501 -0.6100513,-1.362553 -1.3625524,-1.362553 H 5.6549611 l 6.3453319,-6.345246 6.345331,6.345246 h -1.528155 c -0.752502,0 -1.362552,0.610052 -1.362552,1.362553 0,0.7525 0.61005,1.362552 1.362552,1.362552 h 4.817346 c 0.0449,0 0.08974,-0.0023 0.13446,-0.0069 0.02028,-0.002 0.03986,-0.0057 0.05984,-0.0087 0.02405,-0.0033 0.04794,-0.0063 0.07187,-0.01094 0.02281,-0.0046 0.04498,-0.01094 0.06731,-0.01645 0.02078,-0.0051 0.04151,-0.0096 0.06211,-0.0159 0.02182,-0.0067 0.04289,-0.01481 0.06423,-0.0225 0.02061,-0.0074 0.04133,-0.01417 0.06169,-0.0225 0.01981,-0.0082 0.03889,-0.0179 0.05833,-0.02707 0.02088,-0.0098 0.04205,-0.01917 0.06259,-0.03016 0.0185,-0.01004 0.03596,-0.02118 0.05403,-0.03188 0.02027,-0.01208 0.04058,-0.02355 0.0603,-0.03669 0.01972,-0.01319 0.03815,-0.02787 0.05714,-0.04196 0.01671,-0.01246 0.03368,-0.02405 0.04987,-0.03734 0.03316,-0.02716 0.06488,-0.05584 0.09528,-0.08604 0.0014,-0.0014 0.0029,-0.0026 0.0046,-0.0041 0.0012,-0.0012 0.0021,-0.0025 0.0033,-0.0039 0.03032,-0.03062 0.05933,-0.0626 0.08675,-0.09601 0.01319,-0.01608 0.02461,-0.03309 0.03707,-0.04962 0.01417,-0.01899 0.02888,-0.03759 0.04222,-0.05739 0.01328,-0.01972 0.02461,-0.04024 0.03669,-0.06048 0.01071,-0.0179 0.022,-0.03535 0.03179,-0.05378 0.01107,-0.0207 0.02053,-0.04188 0.03032,-0.06293 0.0089,-0.01925 0.01871,-0.03805 0.0269,-0.05787 0.0085,-0.02052 0.01534,-0.04151 0.0229,-0.06242 0.0075,-0.0211 0.01563,-0.04188 0.02216,-0.06341 0.0063,-0.0211 0.01094,-0.0424 0.01645,-0.06367 0.0054,-0.02182 0.01166,-0.04343 0.01598,-0.0656 0.0049,-0.02478 0.0078,-0.04978 0.01142,-0.07475 0.0027,-0.01907 0.0063,-0.0378 0.0083,-0.05705 0.0046,-0.04498 0.0068,-0.09005 0.0068,-0.135146 v -4.816918 c 0,-0.752501 -0.610051,-1.362553 -1.362554,-1.362553 -0.752514,0 -1.362566,0.610052 -1.362566,1.362553 v 1.527899 l -6.345288,-6.34529 6.34533,-6.3452451 V 7.185769 c 0,0.752501 0.610053,1.3625524 1.362552,1.3625524 0.752504,0 1.362554,-0.6100514 1.362554,-1.3625524 V 2.3689374 c 0,-0.04515 -0.0022,-0.090213 -0.0068,-0.135147 -0.0019,-0.019245 -0.0055,-0.038061 -0.0083,-0.057136 -0.0034,-0.024873 -0.0064,-0.049874 -0.01142,-0.074661 -0.0046,-0.022339 -0.01059,-0.043861 -0.01607,-0.065856 -0.0054,-0.021178 -0.01014,-0.042529 -0.01636,-0.063493 -0.0066,-0.021608 -0.01473,-0.042529 -0.02225,-0.06375 -0.0074,-0.020707 -0.01426,-0.041584 -0.02273,-0.062031 -0.0083,-0.019889 -0.018,-0.038964 -0.02714,-0.058424 -0.0098,-0.020878 -0.01917,-0.041884 -0.03007,-0.062417 -0.01014,-0.018816 -0.02143,-0.036514 -0.03234,-0.054773 -0.0119,-0.019889 -0.02308,-0.040081 -0.03617,-0.059411 -0.0137,-0.020535 -0.02888,-0.039779 -0.0436,-0.059411 -0.01198,-0.015895 -0.02299,-0.032176 -0.03561,-0.047598 -0.05705,-0.069507 -0.120798,-0.1331709 -0.190306,-0.1902195 -0.01572,-0.012973 -0.03234,-0.024271 -0.04849,-0.036342 -0.01933,-0.014434 -0.03831,-0.029427 -0.05852,-0.042958 -0.01964,-0.013059 -0.03986,-0.024443 -0.06005,-0.036428 -0.018,-0.010816 -0.03569,-0.022079 -0.05412,-0.032047 -0.02061,-0.011007 -0.04179,-0.020363 -0.06277,-0.030244 -0.01933,-0.00907 -0.03831,-0.01873 -0.05803,-0.026977 -0.02044,-0.00846 -0.04133,-0.01525 -0.06203,-0.022639 -0.02118,-0.00765 -0.04222,-0.015722 -0.06395,-0.022339 -0.02061,-0.00627 -0.04158,-0.010816 -0.0625,-0.016066 -0.02225,-0.00555 -0.04415,-0.011815 -0.06684,-0.016281 -0.02398,-0.00481 -0.04824,-0.00757 -0.07238,-0.01109 -0.01988,-0.00283 -0.03944,-0.00661 -0.05941,-0.00862 -0.04441,-0.00433 -0.08901,-0.00669 -0.133644,-0.00669 -3.42e-4,0 -6.44e-4,-8.59e-5 -9.01e-4,-8.59e-5 h -4.817255 c -0.752502,0 -1.362553,0.6100513 -1.362553,1.3625524 0,0.7525011 0.610051,1.3625522 1.362553,1.3625522 h 1.527901 L 12.000079,10.076005 5.6548322,3.7309313 h 1.5278989 c 0.752501,0 1.3625523,-0.6100513 1.3625523,-1.3625523 0,-0.7525012 -0.6100942,-1.3625524 -1.3625523,-1.3625524 H 2.3653409 c -7.302e-4,0 -0.00138,8.58e-5 -0.00211,8.58e-5 -0.044161,8.6e-5 -0.088279,0.00235 -0.1323545,0.00669 -0.020534,0.00202 -0.040338,0.00579 -0.060572,0.00871 -0.023799,0.00344 -0.047513,0.00619 -0.071139,0.010911 -0.023068,0.00454 -0.045407,0.010924 -0.068132,0.016625 -0.020448,0.0052 -0.040982,0.00963 -0.061216,0.015722 -0.022166,0.00669 -0.043602,0.014993 -0.065297,0.02281 -0.020276,0.00726 -0.040595,0.013918 -0.060571,0.022166 -0.020276,0.00846 -0.039693,0.018343 -0.059411,0.027708 -0.02062,0.00971 -0.041239,0.018816 -0.061215,0.029513 -0.01916,0.010185 -0.037245,0.02191 -0.05576,0.032864 -0.019632,0.011816 -0.039521,0.022897 -0.058681,0.035613 -0.020619,0.01379 -0.039952,0.029169 -0.059755,0.043946 -0.015722,0.011816 -0.031961,0.022725 -0.047255,0.035355 -0.069592,0.057048 -0.1332566,0.1207989 -0.1903912,0.1903055 -0.01263,0.015422 -0.023626,0.03179 -0.035613,0.047598 -0.014734,0.019631 -0.0299,0.038878 -0.043602,0.059411 -0.012973,0.019459 -0.024143,0.039521 -0.036042,0.059497 -0.010923,0.018172 -0.022339,0.035956 -0.032347,0.054773 -0.011007,0.020448 -0.020276,0.041498 -0.030156,0.062332 -0.00907,0.019459 -0.018816,0.038535 -0.027064,0.058424 -0.00846,0.020448 -0.01525,0.041326 -0.022725,0.062031 -0.00757,0.021178 -0.015722,0.042056 -0.022253,0.06375 -0.00632,0.021006 -0.011042,0.042271 -0.016367,0.063493 -0.00555,0.02191 -0.011649,0.043516 -0.016066,0.065854 -0.00489,0.024701 -0.00782,0.049703 -0.011339,0.074662 -0.0027,0.019073 -0.00635,0.037889 -0.00838,0.057136 -0.00446,0.044891 -0.00674,0.089955 -0.00674,0.1351036 V 7.185833 c 0,0.7525011 0.6100511,1.3625524 1.3625522,1.3625524 0.7525011,0 1.3625524,-0.6100513 1.3625524,-1.3625524 V 5.657954 L 10.073223,12.0032 3.7278906,18.348359 v -1.527896 c 0,-0.752458 -0.6100512,-1.362553 -1.3625524,-1.362553 z"
   id="path872" />
</svg>
