<svg width="24px" height="24px" viewBox="0 0 24 24" fill="none" xmlns="http://www.w3.org/2000/svg">
<polygon
   style="fill:#73d0f4;fill-opacity:1"
   points="10.201,249.853 82.194,249.853 82.194,475.088 429.808,475.088 429.808,249.853 501.802,249.853 256.001,36.912 "
   id="polygon886"
   transform="matrix(0.04321265,0,0,0.0465714,0.90009817,0.28095656)" />
<path
   style="fill:#ffc10d;fill-opacity:1;stroke-width:0.0448607"
   d="m 11.962583,10.200713 v 0 c -1.854991,0 -3.358748,1.620685 -3.358748,3.619808 v 8.552094 h 6.717495 v -8.552094 c 0,-1.999217 -1.503758,-3.619808 -3.358747,-3.619808 z"
   id="path888" />
<ellipse
   style="fill:#f2f2f2;stroke-width:0.0448607"
   cx="13.316046"
   cy="16.551283"
   id="circle890"
   rx="0.76970387"
   ry="0.82952988" />
<g
   id="g900"
   style="stroke:none;stroke-width:1;stroke-miterlimit:4;stroke-dasharray:none;stroke-opacity:1"
   transform="matrix(0.04321265,0,0,0.0465714,0.90009817,0.28095656)">
	<path
   style="fill:#3d6889;fill-opacity:1;stroke:none;stroke-width:1;stroke-miterlimit:4;stroke-dasharray:none;stroke-opacity:1"
   d="M 508.479,242.144 262.679,29.203 c -3.833,-3.321 -9.524,-3.321 -13.357,0 L 3.522,242.144 c -3.219,2.788 -4.366,7.283 -2.878,11.273 1.488,3.99 5.297,6.636 9.557,6.636 h 61.794 v 215.035 c 0,5.632 4.566,10.199 10.199,10.199 h 347.614 c 5.633,0 10.199,-4.567 10.199,-10.199 V 260.053 H 501.8 c 4.258,0 8.069,-2.646 9.557,-6.636 1.487,-3.99 0.341,-8.484 -2.878,-11.273 z M 188.475,464.162 V 290.727 c 0,-37.234 30.293,-67.527 67.527,-67.527 37.234,0 67.527,30.293 67.527,67.527 V 464.162 Z M 429.808,239.654 c -5.633,0 -10.199,4.567 -10.199,10.199 V 464.889 H 343.926 V 290.727 c 0,-48.482 -39.443,-87.925 -87.925,-87.925 -48.482,0 -87.925,39.443 -87.925,87.925 V 464.889 H 92.393 V 249.853 c 0,-5.632 -4.566,-10.199 -10.199,-10.199 H 37.55 L 256.001,50.406 474.452,239.654 Z"
   id="path892" />
	<path
   style="fill:#3d6889;fill-opacity:1;stroke:none;stroke-width:1;stroke-miterlimit:4;stroke-dasharray:none;stroke-opacity:1"
   d="m 287.32,321.351 c -15.446,0 -28.011,12.565 -28.011,28.011 0,15.446 12.565,28.011 28.011,28.011 15.446,0 28.011,-12.565 28.011,-28.011 0,-15.446 -12.565,-28.011 -28.011,-28.011 z m 0,35.623 c -4.198,0 -7.613,-3.416 -7.613,-7.613 0,-4.197 3.416,-7.613 7.613,-7.613 4.197,0 7.613,3.416 7.613,7.613 0,4.198 -3.415,7.613 -7.613,7.613 z"
   id="path894" />
	<path
   style="fill:#3d6889;fill-opacity:1;stroke:none;stroke-width:1;stroke-miterlimit:4;stroke-dasharray:none;stroke-opacity:1"
   d="m 227.969,92.392 -4.79,4.08 c -4.289,3.652 -4.803,10.09 -1.15,14.378 2.017,2.368 4.884,3.586 7.769,3.586 2.339,0 4.69,-0.8 6.608,-2.436 l 4.79,-4.08 c 4.289,-3.652 4.803,-10.09 1.15,-14.378 -3.652,-4.288 -10.089,-4.802 -14.377,-1.15 z"
   id="path896" />
	<path
   style="fill:#3d6889;fill-opacity:1;stroke:none;stroke-width:1;stroke-miterlimit:4;stroke-dasharray:none;stroke-opacity:1"
   d="M 198.036,117.89 90.28,209.683 c -4.288,3.652 -4.803,10.09 -1.149,14.378 2.017,2.368 4.884,3.586 7.769,3.586 2.339,0 4.69,-0.8 6.609,-2.436 l 107.756,-91.793 c 4.288,-3.652 4.803,-10.09 1.149,-14.378 -3.652,-4.288 -10.09,-4.803 -14.378,-1.15 z"
   id="path898" />
</g>
</svg>
