<svg width="24px" height="24px" viewBox="0 0 24 24" fill="none" xmlns="http://www.w3.org/2000/svg">
<g
   id="g8563"
   transform="matrix(0.0442571,0,0,0.0442571,1.9738691,0.97943902)">
	<rect
   x="49.974998"
   y="86.060997"
   style="fill:#194f82;fill-opacity:1;opacity:0.5"
   width="353.09201"
   height="95.714996"
   id="rect8557" />
	<rect
   x="49.974998"
   y="228.854"
   style="fill:#194f82;fill-opacity:1;opacity:0.5"
   width="353.09201"
   height="95.705002"
   id="rect8559" />
	<rect
   x="49.974998"
   y="371.647"
   style="fill:#194f82;fill-opacity:1;opacity:0.5"
   width="353.09201"
   height="95.705002"
   id="rect8561" />
</g>
<g
   id="g8571"
   transform="matrix(0.0442571,0,0,0.0442571,1.9738691,0.97943902)">
	<rect
   x="226.511"
   y="86.060997"
   style="fill:#194f82;fill-opacity:1"
   width="176.55099"
   height="95.714996"
   id="rect8565" />
	<rect
   x="226.511"
   y="228.854"
   style="fill:#194f82;fill-opacity:1"
   width="176.55099"
   height="95.705002"
   id="rect8567" />
	<rect
   x="226.511"
   y="371.647"
   style="fill:#194f82;fill-opacity:1"
   width="176.55099"
   height="95.705002"
   id="rect8569" />
</g>
<rect
   x="2.9976702"
   style="fill:#ffb74d;stroke-width:0.0442571"
   width="18.002329"
   height="5.3538265"
   id="rect8573"
   y="0.97944021" />
<g
   id="g8579"
   transform="matrix(0.0442571,0,0,0.0442571,1.9738691,0.97943902)">
	<rect
   x="59.708"
   y="43.965"
   style="fill:#ffffff"
   width="23.235001"
   height="24.177999"
   id="rect8575" />
	<rect
   x="101.508"
   y="43.965"
   style="fill:#ffffff"
   width="23.235001"
   height="24.177999"
   id="rect8577" />
</g>
<rect
   x="2.9976702"
   y="7.8935976"
   style="fill:#ffb74d;stroke-width:0.0442571"
   width="18.002329"
   height="5.3538265"
   id="rect8581" />
<g
   id="g8587"
   transform="matrix(0.0442571,0,0,0.0442571,1.9738691,0.97943902)">
	<rect
   x="59.708"
   y="199.964"
   style="fill:#ffffff"
   width="23.235001"
   height="24.177999"
   id="rect8583" />
	<rect
   x="101.508"
   y="199.964"
   style="fill:#ffffff"
   width="23.235001"
   height="24.177999"
   id="rect8585" />
</g>
<rect
   x="2.9976702"
   y="14.8073"
   style="fill:#ffb74d;stroke-width:0.0442571"
   width="18.002329"
   height="5.3543134"
   id="rect8589" />
<g
   id="g8595"
   transform="matrix(0.0442571,0,0,0.0442571,1.9738691,0.97943902)">
	<rect
   x="59.708"
   y="360.85101"
   style="fill:#ffffff"
   width="23.235001"
   height="24.177999"
   id="rect8591" />
	<rect
   x="101.508"
   y="360.85101"
   style="fill:#ffffff"
   width="23.235001"
   height="24.177999"
   id="rect8593" />
</g>
<g
   id="g8603"
   transform="matrix(0.0442571,0,0,0.0442571,1.9738691,0.97943902)">
	<rect
   x="226.511"
   style="fill:#ffa91e"
   width="203.38901"
   height="120.971"
   id="rect8597"
   y="0" />
	<rect
   x="226.511"
   y="156.22701"
   style="fill:#ffa91e"
   width="203.38901"
   height="120.971"
   id="rect8599" />
	<rect
   x="226.511"
   y="312.444"
   style="fill:#ffa91e"
   width="203.38901"
   height="120.982"
   id="rect8601" />
</g>
<path
   style="fill:#8ca7c0;stroke-width:0.0442571;fill-opacity:1"
   d="m 23.609695,18.964589 c 0,2.581694 -2.092785,4.67448 -4.674479,4.67448 -0.01115,0 -0.02226,0 -0.03337,-4.42e-4 -1.262787,-0.0083 -2.406037,-0.518118 -3.242054,-1.339752 -0.750733,-0.737766 -1.253539,-1.72669 -1.371705,-2.831481 -0.01762,-0.164991 -0.02735,-0.332725 -0.02735,-0.502805 0,-1.400914 0.616811,-2.657683 1.592769,-3.514545 0.01068,-0.0093 0.02133,-0.01855 0.032,-0.02735 0.380477,-0.328078 0.814684,-0.59548 1.286907,-0.788263 0.534317,-0.217347 1.117758,-0.339674 1.72948,-0.343392 0.01115,-4.42e-4 0.02226,-4.42e-4 0.03337,-4.42e-4 2.58165,0 4.674435,2.092299 4.674435,4.673993 z"
   id="path8605" />
<path
   style="fill:#194f82;stroke-width:0.0442571;fill-opacity:1"
   d="m 23.609695,18.964589 c 0,2.581694 -2.092785,4.67448 -4.674479,4.67448 -0.01115,0 -0.02226,0 -0.03337,-4.42e-4 v -9.347544 c 0.01115,-4.42e-4 0.02226,-4.42e-4 0.03337,-4.42e-4 2.581694,-4.5e-5 4.674479,2.092254 4.674479,4.673948 z"
   id="path8607" />
<polygon
   style="fill:#ffffff"
   points="367.54,465.059 367.54,423.112 327.666,423.112 327.666,391.699 367.54,391.699 367.54,349.762 398.953,349.762 398.953,391.699 438.826,391.699 438.826,423.112 398.953,423.112 398.953,465.059 "
   id="polygon8609"
   transform="matrix(0.0442571,0,0,0.0442571,1.9738691,0.97943902)" />
<polygon
   style="fill:#d9d8db"
   points="382.492,465.059 382.492,349.762 398.953,349.762 398.953,391.699 438.826,391.699 438.826,423.112 398.953,423.112 398.953,465.059 "
   id="polygon8611"
   transform="matrix(0.0442571,0,0,0.0442571,1.9738691,0.97943902)" />
<g
   id="g8613"
   transform="matrix(0.0442571,0,0,0.0442571,1.9738691,0.97943902)">
</g>
<g
   id="g8615"
   transform="matrix(0.0442571,0,0,0.0442571,1.9738691,0.97943902)">
</g>
<g
   id="g8617"
   transform="matrix(0.0442571,0,0,0.0442571,1.9738691,0.97943902)">
</g>
<g
   id="g8619"
   transform="matrix(0.0442571,0,0,0.0442571,1.9738691,0.97943902)">
</g>
<g
   id="g8621"
   transform="matrix(0.0442571,0,0,0.0442571,1.9738691,0.97943902)">
</g>
<g
   id="g8623"
   transform="matrix(0.0442571,0,0,0.0442571,1.9738691,0.97943902)">
</g>
<g
   id="g8625"
   transform="matrix(0.0442571,0,0,0.0442571,1.9738691,0.97943902)">
</g>
<g
   id="g8627"
   transform="matrix(0.0442571,0,0,0.0442571,1.9738691,0.97943902)">
</g>
<g
   id="g8629"
   transform="matrix(0.0442571,0,0,0.0442571,1.9738691,0.97943902)">
</g>
<g
   id="g8631"
   transform="matrix(0.0442571,0,0,0.0442571,1.9738691,0.97943902)">
</g>
<g
   id="g8633"
   transform="matrix(0.0442571,0,0,0.0442571,1.9738691,0.97943902)">
</g>
<g
   id="g8635"
   transform="matrix(0.0442571,0,0,0.0442571,1.9738691,0.97943902)">
</g>
<g
   id="g8637"
   transform="matrix(0.0442571,0,0,0.0442571,1.9738691,0.97943902)">
</g>
<g
   id="g8639"
   transform="matrix(0.0442571,0,0,0.0442571,1.9738691,0.97943902)">
</g>
<g
   id="g8641"
   transform="matrix(0.0442571,0,0,0.0442571,1.9738691,0.97943902)">
</g>
</svg>
