<svg width="24px" height="24px" viewBox="0 0 24 24" fill="none" xmlns="http://www.w3.org/2000/svg">
<path
   style="fill:#ffffff;stroke-width:0.0560729"
   d="M 18.117939,5.2499695 V 2.2036893 H 2.7623213 c -0.2971111,0 -0.5398556,0.2429598 -0.5398556,0.5403344 V 21.232073 c 0,0.297375 0.2427445,0.540334 0.5398556,0.540334 H 21.233989 c 0.297112,0 0.539856,-0.242959 0.539856,-0.540334 V 5.8628382 h -3.039938 c -0.344192,0 -0.615968,-0.2719621 -0.615968,-0.6128687 z"
   id="path13025" />
<path
   style="fill:#ffc10d;stroke-width:0.0560729"
   d="M 20.549194,5.8628382 V 19.948273 c 0,0.33726 -0.271721,0.609279 -0.612326,0.609279 H 4.0522688 c -0.3369613,0 -0.6159689,-0.279255 -0.6159689,-0.616515 V 4.0423516 c 0,-0.33726 0.2717213,-0.6128687 0.6087387,-0.6128687 H 18.121638 v 1.8205428 c 0,0.3372602 0.271721,0.6092785 0.608738,0.6092785 z"
   id="path13027" />
<path
   style="fill:#56ace0;stroke-width:0.0560729"
   d="m 8.171974,10.348869 c -0.5616022,0 -1.0217574,0.460565 -1.0217574,1.022665 0,0.5621 0.4601552,1.022664 1.0217574,1.022664 0.5616022,0 1.0217573,-0.460564 1.0217573,-1.022664 0,-0.5621 -0.4601551,-1.022665 -1.0217573,-1.022665 z"
   id="path13029" />
<path
   style="fill:#194f82;stroke-width:0.0560729"
   d="m 8.171974,9.1267218 c -1.2391679,0 -2.2428217,1.0045432 -2.2428217,2.2448122 0,1.240266 1.0036538,2.244811 2.2428217,2.244811 1.239168,0 2.242822,-1.004545 2.242822,-2.244811 0,-1.240269 -1.0072971,-2.2448122 -2.242822,-2.2448122 z m 0,3.2675312 c -0.5616022,0 -1.0217574,-0.460563 -1.0217574,-1.022663 0,-0.5621 0.4601552,-1.022665 1.0217574,-1.022665 0.5616022,0 1.0217573,0.460565 1.0217573,1.022665 0,0.5621 -0.4601551,1.022663 -1.0217573,1.022663 z"
   id="path13031" />
<path
   style="fill:#56ace0;stroke-width:0.0560729"
   d="m 10.972754,16.666271 c 0,-0.326378 -0.163042,-0.620162 -0.43482,-0.761584 -0.289881,-0.155953 -0.5942227,-0.286492 -0.9130806,-0.380793 l -0.8841031,2.469652 c -0.086987,0.242959 -0.3152145,0.406147 -0.5761186,0.406147 -0.260904,0 -0.4891319,-0.15954 -0.5761187,-0.406147 L 6.7044099,15.523894 c -0.3188578,0.0943 -0.6231991,0.22484 -0.91308,0.380793 -0.2681341,0.148715 -0.4348213,0.438797 -0.4348213,0.761584 v 2.059856 h 5.6089044 v -2.059856 z"
   id="path13033" />
<g
   id="g13053"
   transform="matrix(0.05604812,0,0,0.05609783,0.9941711,0.97974701)">
	<path
   style="fill:#194f82"
   d="m 180.752,246.853 c -9.826,-5.301 -20.493,-9.115 -31.677,-11.313 -5.301,-1.034 -10.537,2.004 -12.347,7.046 l -8.792,24.566 -8.792,-24.566 c -1.745,-5.107 -7.046,-8.016 -12.347,-7.046 -11.184,2.133 -21.851,5.947 -31.677,11.313 -11.766,6.4 -19.071,19.006 -19.071,32.776 v 47.58 c 0,6.012 4.848,10.925 10.925,10.925 h 121.859 c 6.012,0 10.925,-4.848 10.925,-10.925 v -47.58 c 0.129,-13.77 -7.176,-26.376 -19.006,-32.776 z M 77.964,279.628 c 0,-5.818 2.909,-11.055 7.758,-13.576 5.172,-2.78 10.602,-5.107 16.291,-6.788 l 15.774,44.024 c 1.552,4.331 5.624,7.24 10.279,7.24 4.655,0 8.727,-2.844 10.279,-7.24 l 15.774,-44.024 c 5.689,1.681 11.119,4.008 16.291,6.788 4.784,2.651 7.758,7.822 7.758,13.576 v 36.719 H 77.964 Z"
   id="path13035" />
	<path
   style="fill:#194f82"
   d="m 320.517,167.014 h -93.479 c -6.012,0 -10.925,-4.848 -10.925,-10.925 0,-6.077 4.848,-10.925 10.925,-10.925 h 93.479 c 6.012,0 10.925,4.848 10.925,10.925 0,6.077 -4.913,10.925 -10.925,10.925 z"
   id="path13037" />
	<path
   style="fill:#194f82"
   d="m 320.517,223.451 h -93.479 c -6.012,0 -10.925,-4.848 -10.925,-10.925 0,-6.012 4.848,-10.925 10.925,-10.925 h 93.479 c 6.012,0 10.925,4.848 10.925,10.925 0,6.011 -4.913,10.925 -10.925,10.925 z"
   id="path13039" />
	<path
   style="fill:#194f82"
   d="m 320.517,279.822 h -93.479 c -6.012,0 -10.925,-4.848 -10.925,-10.925 0,-6.012 4.848,-10.925 10.925,-10.925 h 93.479 c 6.012,0 10.925,4.848 10.925,10.925 0,6.077 -4.913,10.925 -10.925,10.925 z"
   id="path13041" />
	<path
   style="fill:#194f82"
   d="m 320.517,336.259 h -93.479 c -6.012,0 -10.925,-4.848 -10.925,-10.925 0,-6.012 4.848,-10.925 10.925,-10.925 h 93.479 c 6.012,0 10.925,4.848 10.925,10.925 0,6.011 -4.913,10.925 -10.925,10.925 z"
   id="path13043" />
	<path
   style="fill:#194f82"
   d="M 66.133,122.02 V 69.592 h 10.343 l 21.463,34.974 V 69.592 h 9.826 v 52.493 H 97.099 L 75.895,87.822 v 34.263 h -9.762 z"
   id="path13045" />
	<path
   style="fill:#194f82"
   d="M 119.014,122.02 V 69.592 h 38.853 v 8.857 H 129.616 V 90.02 h 26.376 v 8.857 h -26.376 v 14.287 h 29.285 v 8.792 h -39.887 z"
   id="path13047" />
	<path
   style="fill:#194f82"
   d="M 175.321,122.02 162.78,69.592 h 10.861 l 7.887,36.008 9.568,-36.008 h 12.606 l 9.18,36.655 8.016,-36.655 h 10.667 l -12.735,52.493 h -11.184 l -10.408,-39.24 -10.408,39.24 h -11.507 v -0.065 z"
   id="path13049" />
	<path
   style="fill:#194f82"
   d="m 234.343,104.954 10.279,-1.034 c 0.646,3.491 1.875,6.012 3.814,7.628 1.939,1.616 4.461,2.392 7.628,2.392 3.426,0 5.947,-0.711 7.758,-2.133 1.681,-1.487 2.651,-3.168 2.651,-5.107 0,-1.228 -0.388,-2.327 -1.099,-3.168 -0.711,-0.84 -2.004,-1.616 -3.814,-2.263 -1.228,-0.453 -4.073,-1.164 -8.469,-2.327 -5.624,-1.422 -9.632,-3.168 -11.96,-5.172 -3.232,-2.844 -4.784,-6.4 -4.784,-10.602 0,-2.715 0.776,-5.172 2.263,-7.499 1.552,-2.327 3.685,-4.073 6.594,-5.301 2.844,-1.228 6.271,-1.875 10.343,-1.875 6.594,0 11.507,1.487 14.869,4.331 3.297,2.844 5.107,6.723 5.236,11.572 l -10.602,0.453 c -0.453,-2.715 -1.422,-4.655 -2.909,-5.818 -1.487,-1.164 -3.685,-1.745 -6.723,-1.745 -3.103,0 -5.495,0.646 -7.24,1.939 -1.099,0.84 -1.681,1.939 -1.681,3.232 0,1.228 0.517,2.327 1.551,3.168 1.293,1.164 4.59,2.327 9.762,3.491 5.172,1.228 8.986,2.457 11.442,3.814 2.457,1.293 4.396,3.103 5.818,5.301 1.422,2.263 2.069,5.042 2.069,8.339 0,3.038 -0.84,5.818 -2.457,8.404 -1.681,2.651 -4.008,4.59 -7.111,5.883 -3.103,1.293 -6.853,1.939 -11.442,1.939 -6.659,0 -11.766,-1.552 -15.321,-4.59 -3.685,-2.909 -5.753,-7.37 -6.465,-13.252 z"
   id="path13051" />
</g>
<polygon
   style="fill:#56ace0"
   points="355.297,65.261 327.305,37.269 327.305,65.261 "
   id="polygon13055"
   transform="matrix(0.05604812,0,0,0.05609783,0.9941711,0.97974701)" />
<path
   style="fill:#194f82;stroke-width:0.0560729"
   d="M 22.458698,4.4593829 19.523794,1.5219326 C 19.175959,1.1737894 18.719391,0.9851886 18.230259,0.9851886 H 2.7623213 c -0.9746209,0 -1.7681502,0.794233 -1.7681502,1.769718 V 21.23931 c 0,0.971894 0.7935293,1.76248 1.7681502,1.76248 H 21.233989 c 0.974678,0 1.768151,-0.794232 1.768151,-1.769717 V 5.757711 C 22.994897,5.2680891 22.806532,4.8039357 22.458698,4.4593829 Z m -3.119695,-1.3889261 1.568899,1.5702904 h -1.568899 z m 2.434842,18.1616162 c 0,0.297375 -0.242744,0.540334 -0.539856,0.540334 H 2.7623213 c -0.2971111,0 -0.5398556,-0.242959 -0.5398556,-0.540334 V 2.7513163 c 0,-0.2973745 0.2427445,-0.5403342 0.5398556,-0.5403342 H 18.125168 V 5.253616 c 0,0.3372601 0.271722,0.6128687 0.612326,0.6128687 h 3.039938 V 21.232073 Z"
   id="path13057" />
</svg>
