<svg width="24px" height="24px" viewBox="0 0 24 24" fill="none" xmlns="http://www.w3.org/2000/svg">
<path
   style="fill:#ffffff;stroke-width:0.0560316"
   d="M 18.122128,5.2517855 V 2.2063968 H 2.7846365 c -0.2967603,0 -0.5392181,0.2428886 -0.5392181,0.5401762 v 18.482644 c 0,0.297289 0.2424578,0.540177 0.5392181,0.540177 H 21.2345 c 0.29676,0 0.539218,-0.242888 0.539218,-0.540177 V 5.8644748 H 18.73737 c -0.343785,0 -0.615242,-0.2718827 -0.615242,-0.6126893 z"
   id="path13722" />
<path
   style="fill:#56ace0;stroke-width:0.0560316"
   d="M 20.550514,5.8644748 V 19.945795 c 0,0.337161 -0.271402,0.609101 -0.611603,0.609101 H 4.0730607 c -0.3365634,0 -0.6152414,-0.279174 -0.6152414,-0.616335 V 4.044521 c 0,-0.3371614 0.2714004,-0.6126893 0.6080197,-0.6126893 h 14.059984 v 1.8200098 c 0,0.3371615 0.271401,0.6091001 0.60802,0.6091001 z"
   id="path13724" />
<path
   style="fill:#ffc10d;stroke-width:0.0560316"
   d="m 8.1879009,10.349196 c -0.560939,0 -1.0205507,0.460434 -1.0205507,1.022368 0,0.561936 0.4596117,1.022366 1.0205507,1.022366 0.560939,0 1.0205506,-0.46043 1.0205506,-1.022366 0,-0.561934 -0.4596116,-1.022368 -1.0205506,-1.022368 z"
   id="path13726" />
<path
   style="fill:#194f82;stroke-width:0.0560316"
   d="m 8.1879009,9.1274032 c -1.2377046,0 -2.2401731,1.0042528 -2.2401731,2.2441608 0,1.239904 1.0024685,2.244155 2.2401731,2.244155 1.2377046,0 2.2401781,-1.004251 2.2401781,-2.244155 0,-1.239908 -1.0061123,-2.2441608 -2.2401781,-2.2441608 z m 0,3.2665828 c -0.560939,0 -1.0205507,-0.460429 -1.0205507,-1.022365 0,-0.561935 0.4596117,-1.022368 1.0205507,-1.022368 0.560939,0 1.0205506,0.460433 1.0205506,1.022368 0,0.561936 -0.4596116,1.022365 -1.0205506,1.022365 z"
   id="path13728" />
<path
   style="fill:#ffc10d;stroke-width:0.0560316"
   d="m 10.985384,16.664752 c 0,-0.326282 -0.162852,-0.619979 -0.434311,-0.761361 -0.289542,-0.155907 -0.5935266,-0.286407 -0.9120084,-0.38068 l -0.883059,2.468928 c -0.086884,0.242888 -0.3148424,0.40603 -0.5754383,0.40603 -0.260596,0 -0.4885543,-0.159497 -0.5754384,-0.40603 l -0.883059,-2.468928 c -0.3184813,0.09428 -0.6224631,0.224773 -0.9120017,0.38068 -0.2678175,0.148672 -0.4343079,0.438669 -0.4343079,0.761361 v 2.059254 H 10.97805 v -2.059254 z"
   id="path13730" />
<g
   id="g13750"
   transform="matrix(0.05598194,0,0,0.05608141,1.0185744,0.9828127)">
	<path
   style="fill:#194f82"
   d="m 180.752,246.853 c -9.826,-5.301 -20.493,-9.115 -31.677,-11.313 -5.301,-1.034 -10.537,2.004 -12.347,7.046 l -8.792,24.566 -8.792,-24.566 c -1.745,-5.107 -7.046,-8.016 -12.347,-7.046 -11.184,2.133 -21.851,5.947 -31.677,11.313 -11.766,6.4 -19.071,19.006 -19.071,32.776 v 47.58 c 0,6.012 4.848,10.925 10.925,10.925 h 121.859 c 6.012,0 10.925,-4.848 10.925,-10.925 v -47.58 c 0.129,-13.77 -7.176,-26.376 -19.006,-32.776 z M 77.964,279.628 c 0,-5.818 2.909,-11.055 7.758,-13.576 5.172,-2.78 10.602,-5.107 16.291,-6.788 l 15.774,44.024 c 1.552,4.331 5.624,7.24 10.279,7.24 4.655,0 8.727,-2.844 10.279,-7.24 l 15.774,-44.024 c 5.689,1.681 11.119,4.008 16.291,6.788 4.784,2.651 7.758,7.822 7.758,13.576 v 36.719 H 77.964 Z"
   id="path13732" />
	<path
   style="fill:#194f82"
   d="m 320.517,167.014 h -93.479 c -6.012,0 -10.925,-4.848 -10.925,-10.925 0,-6.077 4.848,-10.925 10.925,-10.925 h 93.479 c 6.012,0 10.925,4.848 10.925,10.925 0,6.077 -4.913,10.925 -10.925,10.925 z"
   id="path13734" />
	<path
   style="fill:#194f82"
   d="m 320.517,223.451 h -93.479 c -6.012,0 -10.925,-4.848 -10.925,-10.925 0,-6.012 4.848,-10.925 10.925,-10.925 h 93.479 c 6.012,0 10.925,4.848 10.925,10.925 0,6.011 -4.913,10.925 -10.925,10.925 z"
   id="path13736" />
	<path
   style="fill:#194f82"
   d="m 320.517,279.822 h -93.479 c -6.012,0 -10.925,-4.848 -10.925,-10.925 0,-6.012 4.848,-10.925 10.925,-10.925 h 93.479 c 6.012,0 10.925,4.848 10.925,10.925 0,6.077 -4.913,10.925 -10.925,10.925 z"
   id="path13738" />
	<path
   style="fill:#194f82"
   d="m 320.517,336.259 h -93.479 c -6.012,0 -10.925,-4.848 -10.925,-10.925 0,-6.012 4.848,-10.925 10.925,-10.925 h 93.479 c 6.012,0 10.925,4.848 10.925,10.925 0,6.011 -4.913,10.925 -10.925,10.925 z"
   id="path13740" />
	<path
   style="fill:#194f82"
   d="M 66.133,122.02 V 69.592 h 10.343 l 21.463,34.974 V 69.592 h 9.826 v 52.493 H 97.099 L 75.895,87.822 v 34.263 h -9.762 z"
   id="path13742" />
	<path
   style="fill:#194f82"
   d="M 119.014,122.02 V 69.592 h 38.853 v 8.857 H 129.616 V 90.02 h 26.376 v 8.857 h -26.376 v 14.287 h 29.285 v 8.792 h -39.887 z"
   id="path13744" />
	<path
   style="fill:#194f82"
   d="M 175.321,122.02 162.78,69.592 h 10.861 l 7.887,36.008 9.568,-36.008 h 12.606 l 9.18,36.655 8.016,-36.655 h 10.667 l -12.735,52.493 h -11.184 l -10.408,-39.24 -10.408,39.24 h -11.507 v -0.065 z"
   id="path13746" />
	<path
   style="fill:#194f82"
   d="m 234.343,104.954 10.279,-1.034 c 0.646,3.491 1.875,6.012 3.814,7.628 1.939,1.616 4.461,2.392 7.628,2.392 3.426,0 5.947,-0.711 7.758,-2.133 1.681,-1.487 2.651,-3.168 2.651,-5.107 0,-1.228 -0.388,-2.327 -1.099,-3.168 -0.711,-0.84 -2.004,-1.616 -3.814,-2.263 -1.228,-0.453 -4.073,-1.164 -8.469,-2.327 -5.624,-1.422 -9.632,-3.168 -11.96,-5.172 -3.232,-2.844 -4.784,-6.4 -4.784,-10.602 0,-2.715 0.776,-5.172 2.263,-7.499 1.552,-2.327 3.685,-4.073 6.594,-5.301 2.844,-1.228 6.271,-1.875 10.343,-1.875 6.594,0 11.507,1.487 14.869,4.331 3.297,2.844 5.107,6.723 5.236,11.572 l -10.602,0.453 c -0.453,-2.715 -1.422,-4.655 -2.909,-5.818 -1.487,-1.164 -3.685,-1.745 -6.723,-1.745 -3.103,0 -5.495,0.646 -7.24,1.939 -1.099,0.84 -1.681,1.939 -1.681,3.232 0,1.228 0.517,2.327 1.551,3.168 1.293,1.164 4.59,2.327 9.762,3.491 5.172,1.228 8.986,2.457 11.442,3.814 2.457,1.293 4.396,3.103 5.818,5.301 1.422,2.263 2.069,5.042 2.069,8.339 0,3.038 -0.84,5.818 -2.457,8.404 -1.681,2.651 -4.008,4.59 -7.111,5.883 -3.103,1.293 -6.853,1.939 -11.442,1.939 -6.659,0 -11.766,-1.552 -15.321,-4.59 -3.685,-2.909 -5.753,-7.37 -6.465,-13.252 z"
   id="path13748" />
</g>
<polygon
   style="fill:#ffc10d"
   points="355.297,65.261 327.305,37.269 327.305,65.261 "
   id="polygon13752"
   transform="matrix(0.05598194,0,0,0.05608141,1.0185744,0.9828127)" />
<path
   style="fill:#194f82;stroke-width:0.0560316"
   d="M 22.457761,4.4614301 19.526324,1.5248395 C 19.1789,1.1767983 18.722871,0.9882526 18.234317,0.9882526 H 2.7846365 c -0.9734698,0 -1.7660621,0.7940006 -1.7660621,1.7692001 V 21.236452 c 0,0.971611 0.7925923,1.761967 1.7660621,1.761967 H 21.2345 c 0.973526,0 1.766062,-0.794002 1.766062,-1.769202 V 5.7593782 C 22.99334,5.2698997 22.805186,4.8058822 22.457761,4.4614301 Z m -3.11601,-1.3885195 1.567046,1.5698307 h -1.567046 z m 2.431967,18.1563064 c 0,0.297289 -0.242458,0.540177 -0.539218,0.540177 H 2.7846365 c -0.2967603,0 -0.5392181,-0.242888 -0.5392181,-0.540177 V 2.7538635 c 0,-0.2972875 0.2424578,-0.5401761 0.5392181,-0.5401761 H 18.12935 v 3.0417433 c 0,0.3371614 0.271401,0.6126894 0.611603,0.6126894 h 3.036349 V 21.229217 Z"
   id="path13754" />
<g
   id="g13756"
   transform="matrix(0.05598194,0,0,0.05608141,1.0185744,0.9828127)">
</g>
<g
   id="g13758"
   transform="matrix(0.05598194,0,0,0.05608141,1.0185744,0.9828127)">
</g>
<g
   id="g13760"
   transform="matrix(0.05598194,0,0,0.05608141,1.0185744,0.9828127)">
</g>
<g
   id="g13762"
   transform="matrix(0.05598194,0,0,0.05608141,1.0185744,0.9828127)">
</g>
<g
   id="g13764"
   transform="matrix(0.05598194,0,0,0.05608141,1.0185744,0.9828127)">
</g>
<g
   id="g13766"
   transform="matrix(0.05598194,0,0,0.05608141,1.0185744,0.9828127)">
</g>
<g
   id="g13768"
   transform="matrix(0.05598194,0,0,0.05608141,1.0185744,0.9828127)">
</g>
<g
   id="g13770"
   transform="matrix(0.05598194,0,0,0.05608141,1.0185744,0.9828127)">
</g>
<g
   id="g13772"
   transform="matrix(0.05598194,0,0,0.05608141,1.0185744,0.9828127)">
</g>
<g
   id="g13774"
   transform="matrix(0.05598194,0,0,0.05608141,1.0185744,0.9828127)">
</g>
<g
   id="g13776"
   transform="matrix(0.05598194,0,0,0.05608141,1.0185744,0.9828127)">
</g>
<g
   id="g13778"
   transform="matrix(0.05598194,0,0,0.05608141,1.0185744,0.9828127)">
</g>
<g
   id="g13780"
   transform="matrix(0.05598194,0,0,0.05608141,1.0185744,0.9828127)">
</g>
<g
   id="g13782"
   transform="matrix(0.05598194,0,0,0.05608141,1.0185744,0.9828127)">
</g>
<g
   id="g13784"
   transform="matrix(0.05598194,0,0,0.05608141,1.0185744,0.9828127)">
</g>
</svg>
