<svg width="24px" height="24px" viewBox="0 0 24 24" fill="none" xmlns="http://www.w3.org/2000/svg">
  <path
     fill="#9B9B9A"
     stroke="none"
     d="M 2.7595562,21.170571 C 2.8137645,21.104664 3.6776385,18.120659 3.8895939,17.418975 4.067686,16.829093 5.4334879,11.468258 6.290155,7.6489653 6.2934859,7.5977131 19.33867,7.4099639 19.33867,7.4099639 V 5.8469368 c 0,0.2151884 -0.389692,-1.3078175 -0.389692,-1.3078175 L 8.2350464,4.3165263 C 8.2038204,3.8347057 7.8437915,2.7103574 7.4023462,2.7103574 L 2.4972915,2.6330836 c -0.4296793,0 -1.103656,0.522464 -1.103656,0.9522976 0,0 0.2153842,15.4805248 0,15.4805248 -0.215384,0 -0.3896562,0.90686 -0.3896562,0.691476 0,0 0.1378316,1.400838 0.5360247,1.779347 0.00562,0.0055 0.011866,0.0083 0.017487,0.01312 -0.051627,-0.06075 1.1400135,-0.304198 1.2019761,-0.379212 z"
     id="path853"
     style="fill:#56ace0;fill-opacity:1;stroke-width:0.389695" />
  <path
     fill="#D0CFCE"
     stroke="none"
     d="m 6.064327,7.4099639 c 0,0.030476 -0.00332,0.060683 -0.01,0.090326 C 5.9472089,7.9780554 3.4299314,19.207357 3.1850076,20.018937 3.0541085,20.453993 2.8111728,20.918432 2.4973915,21.301424 l 16.8003435,0.004 c 0.443512,0 0.592961,0 0.838665,-0.931333 C 20.396559,19.387924 22.746733,8.5782853 22.997541,7.4236165 22.998203,7.420078 23,7.4098775 23,7.4098775 Z"
     id="path855"
     style="opacity:0.5;fill:#56ace0;fill-opacity:1;stroke-width:0.389695" />
  <g
     id="hair"
     transform="matrix(0.38969519,0,0,0.38969519,-3.2666907,-2.0655127)" />
  <g
     id="skin"
     transform="matrix(0.38969519,0,0,0.38969519,-3.2666907,-2.0655127)" />
  <g
     id="skin-shadow"
     transform="matrix(0.38969519,0,0,0.38969519,-3.2666907,-2.0655127)" />
  <g
     id="line"
     transform="matrix(0.38969519,0,0,0.38969519,-3.2666907,-2.0655127)">
    <path
       fill="none"
       stroke="#194f82"
       stroke-linecap="round"
       stroke-linejoin="round"
       stroke-miterlimit="10"
       stroke-width="2"
       d="M 57.0078,20.3044 V 16.9482 L 29.6695,16.9457 c -0.198,0 -0.3586,-0.165 -0.3586,-0.3684 l -0.0687,-1.5169 c -0.116,-1.7878 -1.3398,-3.0033 -2.9967,-3.0033 H 14.9589 c -1.6569,0 -3,1.3432 -3,3 V 56"
       id="path861" />
    <path
       fill="none"
       stroke="#194f82"
       stroke-linecap="round"
       stroke-linejoin="round"
       stroke-miterlimit="10"
       stroke-width="2"
       d="m 17.0271,55.5678 c -0.5897,1.954 -2.2223,4.1389 -3.8959,4.394 l 43.9148,0.0108 c 1.6569,0 2.3233,-0.4388 3,-3 0.6767,-2.5612 7,-31.6575 7,-31.6575 0,-0.5523 -0.4477,-1 -1,-1 H 24.9649 c -0.5523,0 -1,0.4477 -1,1 0,0 -6.3481,28.2986 -6.9378,30.2527 z"
       id="path863" />
  </g>
</svg>
