<svg width="24px" height="24px" viewBox="0 0 24 24" fill="none" xmlns="http://www.w3.org/2000/svg">
<path
   style="fill:#ffc10d;stroke-width:0.0560354"
   d="M 13.318193,17.044924 C 10.546965,17.975897 8.2720382,16.794949 7.1020166,15.621286 5.6022825,14.121553 5.0046074,11.904624 5.5443418,9.8434192 v 0 C 5.6602743,9.3833679 6.2326256,9.2312316 6.5658694,9.5681169 L 8.9639636,11.966206 11.554033,11.564098 11.956141,8.9740285 9.5580518,6.5759337 C 9.2248092,6.2426907 9.3805316,5.6702881 9.8333546,5.5544067 c 2.0647904,-0.5361476 4.2781334,0.061582 5.7778664,1.5576746 1.680841,1.6808406 2.151763,4.1079047 1.423638,6.2161757 l 0.988915,0.970815 c 0.181107,-0.402111 0.326015,-0.815036 0.427438,-1.235247 0.04707,-0.202847 0.199262,-0.369497 0.394826,-0.434722 l 1.648228,-0.568757 V 10.647584 L 18.846038,10.086109 C 18.646776,10.017297 18.498282,9.8506478 18.451212,9.6513856 18.273692,8.9123896 17.980289,8.2096486 17.581822,7.5539772 17.473169,7.3764567 17.462297,7.1555088 17.552851,6.9635312 l 0.760738,-1.5685455 -0.9962,-0.9961991 -1.568544,0.760738 c -0.184749,0.090553 -0.405698,0.083325 -0.590446,-0.02897 C 14.509956,4.7320859 13.803571,4.4422703 13.060991,4.2611636 12.858142,4.2140938 12.691492,4.0619013 12.626267,3.8663376 L 12.064794,2.2253381 h -1.41276 l -0.568761,1.648228 C 10.014461,4.0728283 9.8478119,4.2213223 9.6485501,4.2683922 8.909554,4.4459126 8.2031699,4.7393144 7.5511408,5.1377829 7.3736209,5.2464359 7.1526731,5.2573062 6.9606957,5.1667532 L 5.392205,4.3987867 4.3960062,5.3949858 5.1567442,6.9635313 c 0.090552,0.184749 0.083321,0.4056969 -0.028971,0.590446 C 4.7293058,8.20242 4.4394898,8.9088033 4.2619697,9.6513858 4.2148991,9.8542343 4.0627079,10.020884 3.8671434,10.086109 l -1.6482278,0.56876 v 1.412761 l 1.6482278,0.568757 c 0.1992619,0.06881 0.3477569,0.235461 0.3948263,0.434723 0.1775201,0.738997 0.4672803,1.441737 0.869391,2.090181 0.1086518,0.17752 0.1195221,0.398467 0.028971,0.590444 l -0.7607378,1.568547 0.9961988,0.996199 1.5685452,-0.760738 c 0.1847499,-0.09055 0.4056978,-0.08332 0.5904464,0.02897 0.6484432,0.398469 1.3548261,0.69187 2.097408,0.869391 0.2028489,0.04707 0.3694997,0.199262 0.4347237,0.394827 l 0.568761,1.648228 h 1.412761 l 0.568756,-1.648228 c 0.06881,-0.199264 0.235463,-0.347757 0.434724,-0.394827 0.42021,-0.09778 0.833192,-0.246332 1.235245,-0.423852 z"
   id="path12254" />
<path
   style="fill:#ffffff;stroke-width:0.0560354"
   d="M 8.3228061,13.045671 6.5731539,11.296027 c -0.0181,1.282364 0.4745647,2.535765 1.3946667,3.459454 1.8692327,1.869232 4.9157044,1.869232 6.7849364,0 1.869232,-1.869232 1.869232,-4.9157041 0,-6.784936 C 13.836241,7.0540285 12.564796,6.5650068 11.293303,6.5758777 l 1.749643,1.7496521 c 0.13768,0.1376793 0.202849,0.333243 0.17388,0.5252767 L 12.69519,12.187096 c -0.03984,0.264429 -0.246332,0.467278 -0.510761,0.510762 L 8.8444961,13.21585 c -0.1884475,0.03267 -0.3840676,-0.0325 -0.52169,-0.170179 z"
   id="path12256" />
<path
   style="fill:#56ace0;stroke-width:0.0560354"
   d="m 16.487896,14.501921 c -0.242689,0.398468 -0.528863,0.775194 -0.873033,1.115723 -0.340528,0.340528 -0.724482,0.633929 -1.115721,0.873032 l 1.756937,1.756937 1.04691,-1.046912 c 0.239105,-0.239102 0.623059,-0.239102 0.865804,0 0.239104,0.239105 0.239104,0.623059 0,0.865806 l -1.046911,1.046911 0.61583,0.61583 0.423852,-0.423852 c 0.239105,-0.239105 0.623059,-0.239105 0.865805,0 0.239103,0.239103 0.239103,0.623057 0,0.865803 l -0.423851,0.423853 0.778835,0.778837 c 0.550606,0.550605 1.441738,0.550605 1.992398,0 0.550662,-0.550604 0.550607,-1.441737 0,-1.992398 z"
   id="path12258" />
<path
   style="fill:#194f82;stroke-width:0.0560354"
   d="m 22.229574,18.515631 -3.289229,-3.289228 c 0.257204,-0.496306 0.460052,-1.010656 0.612189,-1.535932 l 1.753295,-0.60496 c 0.246331,-0.08696 0.412982,-0.315143 0.412982,-0.575988 v -2.282149 c 0,-0.2608448 -0.163008,-0.4926636 -0.412982,-0.5759884 L 19.552534,9.0464264 C 19.371427,8.4088546 19.11781,7.8003092 18.795438,7.2206782 l 0.81145,-1.6663275 C 19.719181,5.3188895 19.6757,5.0399449 19.490956,4.8516095 L 17.871692,3.2287096 C 17.686944,3.0439607 17.407999,3.000477 17.168951,3.1127721 L 15.502569,3.9242222 C 14.930223,3.6090785 14.32162,3.3518757 13.684048,3.1743553 L 13.079146,1.4211168 c -0.08696,-0.246332 -0.3152,-0.4129816 -0.57599,-0.4129816 h -2.282147 c -0.2608466,0 -0.4926646,0.1630073 -0.5759901,0.4129816 L 9.0400604,3.1744112 C 8.4024887,3.355518 7.7939434,3.6091345 7.2143113,3.9315069 L 5.5479846,3.1200568 C 5.3125237,3.0077622 5.0335779,3.0548315 4.8452433,3.2359945 L 3.2332134,4.8479674 C 3.0484647,5.0327164 3.0049811,5.3116611 3.1172809,5.5507084 L 3.9287298,7.2170359 C 3.6099445,7.7930246 3.3527418,8.4052123 3.1752776,9.0391419 L 1.4255694,9.6441572 c -0.2463362,0.086967 -0.412986,0.3151434 -0.412986,0.5759878 v 2.282149 c 0,0.260846 0.1630069,0.492664 0.4129823,0.575989 l 1.749651,0.60496 c 0.181107,0.637571 0.4347241,1.246116 0.7570962,1.825747 l -0.8114501,1.666329 c -0.1122922,0.23546 -0.068811,0.514405 0.1159325,0.702741 l 1.6156158,1.615614 c 0.1847488,0.18475 0.4636933,0.228234 0.7027412,0.115933 l 1.6663268,-0.811451 c 0.5795749,0.326015 1.1918192,0.575989 1.8257492,0.757096 l 0.6049583,1.753294 c 0.086962,0.246332 0.3151437,0.412983 0.5759894,0.412983 h 2.282149 c 0.260845,0 0.492663,-0.163008 0.575989,-0.412983 l 0.604963,-1.753288 c 0.528862,-0.152137 1.039682,-0.354986 1.535933,-0.612188 l 3.289227,3.289227 c 1.025169,1.02517 2.691498,1.02517 3.72031,0 1.021582,-1.025113 1.021582,-2.691497 -0.0072,-3.716666 z m -0.865806,2.850917 c -0.550604,0.550605 -1.441736,0.550605 -1.992396,0 l -0.778838,-0.778837 0.423852,-0.423852 c 0.239102,-0.239104 0.239102,-0.623059 0,-0.865805 -0.239103,-0.239103 -0.623059,-0.239103 -0.865804,0 l -0.423854,0.423854 -0.61583,-0.615832 1.046912,-1.046911 c 0.239103,-0.239102 0.239103,-0.623058 0,-0.865804 -0.239103,-0.239104 -0.623059,-0.239104 -0.865803,0 l -1.046912,1.046911 -1.756936,-1.756936 c 0.398467,-0.24269 0.775195,-0.528863 1.115722,-0.873033 0.340528,-0.340528 0.633929,-0.724482 0.873032,-1.115723 l 4.879515,4.875872 c 0.561587,0.554359 0.561587,1.445491 0.0073,1.996096 z m -8.726575,-2.517617 -0.572343,1.644641 h -1.412761 l -0.56876,-1.644641 C 10.014517,18.649667 9.8478677,18.501174 9.6486059,18.454104 8.9096098,18.276583 8.2068686,17.986824 7.5511967,17.584713 7.3736767,17.476061 7.1527289,17.465192 6.9607514,17.555743 L 5.392205,18.316425 4.3960062,17.320225 5.1567442,15.75168 C 5.2472957,15.566932 5.2400658,15.345983 5.1277737,15.161235 4.7293058,14.512792 4.435904,13.806408 4.2583839,13.071054 4.2113133,12.868206 4.0591208,12.701557 3.8635577,12.636332 L 2.2225014,12.071215 V 10.658456 L 3.8707293,10.089751 C 4.0699923,10.020941 4.2184861,9.8542901 4.2655555,9.6550279 4.4430768,8.9160319 4.7328357,8.2132907 5.1313607,7.5576194 5.2400125,7.380099 5.2508828,7.159151 5.1603311,6.9671734 L 4.3996491,5.398628 5.3958479,4.402429 6.9643931,5.1703954 C 7.1491417,5.2609486 7.3773754,5.25372 7.5548396,5.1414242 8.2032815,4.7429561 8.9096656,4.4531407 9.6522474,4.2720339 9.8550964,4.2249651 10.021746,4.0727717 10.086972,3.8772079 l 0.56876,-1.6482278 h 1.41276 l 0.568756,1.648228 c 0.06882,0.1992622 0.235463,0.3477562 0.434725,0.3948259 0.738996,0.1775205 1.445378,0.4709222 2.097408,0.8693908 0.177522,0.108653 0.398468,0.1195233 0.590445,0.028971 l 1.56849,-0.7607378 0.9781,1.0034277 -0.760738,1.5685453 c -0.09055,0.1847491 -0.08332,0.4056971 0.02897,0.590446 0.398468,0.6484428 0.688284,1.3548263 0.869391,2.0974084 0.04707,0.2028486 0.199262,0.3694986 0.394825,0.4347236 l 1.64823,0.568761 v 1.41276 l -1.644643,0.561472 c -0.199262,0.06882 -0.347756,0.235461 -0.394827,0.434724 -0.09778,0.42021 -0.246331,0.833193 -0.427437,1.235247 L 17.042088,13.339072 C 17.766571,11.230802 17.292062,8.8000945 15.618449,7.1228961 14.118714,5.6231623 11.901788,5.0254878 9.8405832,5.5652215 9.3805316,5.6811592 9.2283949,6.2535054 9.5652803,6.5867486 L 11.96337,8.9848434 11.561262,11.574914 8.9711923,11.977021 6.5730981,9.5789317 C 6.2398543,9.2456886 5.6674521,9.4014113 5.5515704,9.8542342 v 0 c -0.5361474,2.0647908 0.061581,4.2781328 1.5576748,5.7778668 1.1736631,1.173663 3.4522358,2.354611 6.2161768,1.423637 l 0.978099,0.9781 c -0.402111,0.181107 -0.815037,0.326015 -1.235247,0.423852 -0.202905,0.04349 -0.369497,0.191977 -0.431081,0.391241 z m 0.05794,-6.661779 0.517993,-3.3399318 c 0.02897,-0.1956198 -0.0362,-0.3912397 -0.17388,-0.5252766 L 11.289602,6.5722914 c 1.271494,-0.014513 2.542996,0.4745645 3.459456,1.3946674 1.869231,1.8692319 1.869231,4.9157032 0,6.7849362 -1.869233,1.869231 -4.9157044,1.869231 -6.7849358,0 -0.9165165,-0.916517 -1.412766,-2.177147 -1.3946669,-3.459456 l 1.7496521,1.749645 c 0.1376794,0.137679 0.3332426,0.202849 0.525277,0.173878 L 12.184316,12.69797 c 0.2609,-0.04355 0.467334,-0.249974 0.510818,-0.510818 z"
   id="path12260" />
</svg>
