<svg width="24px" height="24px" viewBox="0 0 24 24" fill="none" xmlns="http://www.w3.org/2000/svg">
<path
   style="fill:#194f82;stroke-width:0.0560636"
   d="M 22.383292,0.98982182 H 7.6863225 c -0.3368966,0 -0.6122083,0.27192298 -0.6122083,0.61278028 V 7.8212152 C 5.4982874,8.5536915 4.389756,10.279623 4.389756,12.281184 c 0,0.928229 0.2426979,1.794871 0.6593357,2.530937 -1.2787728,0.420617 -2.10835,0.859352 -2.5213455,1.330729 C 1.4808,17.339469 1.071447,21.512994 1.0026332,22.33611 0.9410481,22.644324 1.263487,22.999652 1.6148414,22.999652 H 15.9423 c 0.398482,0 0.637594,-0.355328 0.612209,-0.663542 -0.06882,-0.823116 -0.481809,-5.000231 -1.525113,-6.193204 -0.412997,-0.471378 -1.246159,-0.906522 -2.521346,-1.327139 0.195627,-0.351738 0.354997,-0.732476 0.467296,-1.134919 h 9.415175 c 0.336896,0 0.612207,-0.271924 0.612207,-0.612781 V 1.6026021 C 22.991913,1.2617448 22.720189,0.98982182 22.383292,0.98982182 Z M 8.7731113,8.6624491 c 1.3113837,0 2.4416527,0.9174036 2.9198197,2.2227169 C 9.3418347,11.019334 8.7368552,9.8336579 8.7151687,9.7828419 8.6209698,9.5580336 8.4000145,9.4129861 8.1536743,9.4129861 c -0.00364,0 -0.00723,0 -0.00723,0 C 7.9001051,9.4166619 7.6791498,9.5689155 7.5885374,9.8046039 7.5667947,9.8662456 7.0741142,11.07733 5.7844702,11.128091 6.201052,9.6922011 7.3820395,8.6624491 8.7731113,8.6624491 Z M 8.2261306,11.091858 c 0.6122082,0.554783 1.7461225,1.156682 3.7023254,1.000752 0.0037,0.06164 0.0073,0.11964 0.0073,0.181283 0,1.994327 -1.420042,3.615151 -3.1625166,3.615151 -1.7243821,0 -3.126325,-1.584591 -3.1625251,-3.546217 1.1918028,0.0653 2.108294,-0.609191 2.6154884,-1.250969 z m -2.3981754,4.757306 c 0.7788635,0.783238 1.8149384,1.265497 2.9487985,1.265497 1.1338591,0 2.1699273,-0.482259 2.9487913,-1.265497 1.731609,0.529375 2.238803,0.939111 2.380075,1.102333 0.510779,0.583782 0.952747,2.980552 1.159245,4.82983 H 2.2849924 C 2.49149,19.932049 2.9334568,17.535279 3.4442375,16.951497 3.5855637,16.788275 4.0927019,16.37495 5.8279552,15.849164 Z M 21.771083,12.458876 h -8.618211 c 0,-0.06164 0.0037,-0.119639 0.0037,-0.181282 0,-2.6687425 -1.967081,-4.8370602 -4.3869902,-4.8370602 -0.1593703,0 -0.3187966,0.014532 -0.4818094,0.028995 V 2.2117929 H 21.763855 V 12.458876 Z"
   id="path14513" />
<path
   style="fill:#ffffff;stroke-width:0.0560636"
   d="m 8.2949444,7.4694764 c 0.155784,-0.018114 0.3151541,-0.028995 0.4818093,-0.028995 2.4162663,0 4.3869893,2.1719628 4.3869893,4.8370596 0,0.06164 -0.0037,0.119639 -0.0037,0.181281 h 8.614601 V 2.2117929 H 8.2948884 v 5.2576835 z"
   id="path14515" />
<path
   style="fill:#ffc10d;stroke-width:0.0560636"
   d="M 20.550254,3.4264721 H 9.5157746 V 7.5130024 C 11.26912,7.846568 12.66742,9.3259905 13.047802,11.226024 h 7.495222 V 3.4264721 Z"
   id="path14517" />
<path
   style="fill:#194f82;stroke-width:0.0560636"
   d="m 17.239173,6.7152943 h -0.623079 c -0.191984,0 -0.347768,-0.1559299 -0.347768,-0.3480933 0,-0.1921634 0.155784,-0.348093 0.347768,-0.348093 h 1.579469 c 0.336897,0 0.612208,-0.271923 0.612208,-0.6127803 0,-0.3408573 -0.271669,-0.6127804 -0.612208,-0.6127804 H 17.77534 V 4.6774415 c 0,-0.3372114 -0.271671,-0.6127804 -0.612209,-0.6127804 -0.336897,0 -0.612209,0.2719231 -0.612209,0.6127804 v 0.1196394 c -0.836805,0.036234 -1.507013,0.7179487 -1.507013,1.5664181 0,0.8666424 0.706407,1.5700636 1.568599,1.5700636 h 0.623078 c 0.191984,0 0.347769,0.1559294 0.347769,0.3480937 0,0.1921633 -0.155785,0.3480927 -0.347769,0.3480927 h -1.579468 c -0.336897,0 -0.612209,0.2719229 -0.612209,0.6127797 0,0.3372117 0.271669,0.6127798 0.612209,0.6127798 h 0.894804 v 0.1160487 c 0,0.3372088 0.271669,0.6127758 0.612209,0.6127758 0.336896,0 0.612209,-0.271921 0.612209,-0.6127758 V 9.750198 c 0.59775,-0.2211623 1.028845,-0.7941193 1.028845,-1.4685417 -5.6e-5,-0.8629407 -0.699178,-1.566362 -1.565012,-1.566362 z"
   id="path14519" />
<path
   style="fill:#56ace0;stroke-width:0.0560636"
   d="m 15.261222,21.777681 c -0.206498,-1.849278 -0.648465,-4.246049 -1.159246,-4.829831 -0.137684,-0.159519 -0.644822,-0.5729 -2.380075,-1.102276 -0.778863,0.783238 -1.8149308,1.265497 -2.9487897,1.265497 -1.1338602,0 -2.169935,-0.482259 -2.9487985,-1.265497 C 4.0927019,16.37495 3.5855077,16.784685 3.4442375,16.94785 2.9334568,17.531632 2.49149,19.928403 2.2849924,21.777681 Z"
   id="path14521" />
<path
   style="fill:#ffffff;stroke-width:0.0560636"
   d="M 7.5813085,9.8046039 C 7.6718641,9.5761505 7.8928763,9.420221 8.1392166,9.4129861 c 0.00364,0 0.00723,0 0.00723,0 0.2426978,0 0.4637093,0.1414025 0.5614945,0.3698558 0.021742,0.04712 0.6267219,1.2364351 2.9777619,1.1023241 -0.474577,-1.3053695 -1.604789,-2.2227169 -2.9198158,-2.2227169 -1.3910717,0 -2.5720593,1.0370431 -2.9959259,2.4656979 1.2969288,-0.04717 1.7896094,-1.2654902 1.811352,-1.3235431 z"
   id="path14523" />
<path
   style="fill:#ffc10d;stroke-width:0.0560636"
   d="m 8.7731113,15.89269 c 1.7461177,0 3.1625167,-1.620826 3.1625167,-3.615152 0,-0.06164 -0.0037,-0.11964 -0.0073,-0.181282 C 9.97214,12.24854 8.8382818,11.646641 8.2260174,11.095504 7.7188793,11.737282 6.802332,12.408115 5.6141156,12.346472 5.6467294,14.30451 7.0487283,15.89269 8.7730543,15.89269 Z"
   id="path14525" />
</svg>
