<svg width="24px" height="24px" viewBox="0 0 24 24" fill="none" xmlns="http://www.w3.org/2000/svg">
<polygon
   style="opacity:0.5;fill:#56ace0;fill-opacity:1"
   points="10,168.5 10,388.5 61,388.5 61,310.5 441,310.5 441,388.5 492,388.5 492,168.5 "
   id="polygon866"
   transform="matrix(0.04376013,0,0,0.04631402,1.0327002,0.38601112)" /><rect
   x="3.7020681"
   y="14.766552"
   style="fill:#56ace0;fill-opacity:1;stroke-width:0.0450189"
   width="16.628853"
   height="7.780757"
   id="rect868" /><rect
   x="3.7020681"
   y="1.4743874"
   style="fill:#ffffff;fill-opacity:1;stroke-width:0.0450189"
   width="16.628853"
   height="6.7155342"
   id="rect870" /><ellipse
   style="fill:#ffc10d;stroke-width:0.0450189;fill-opacity:1"
   cx="19.543238"
   cy="11.478247"
   id="circle872"
   rx="0.83144248"
   ry="0.87996644" /><g
   id="g888"
   style="fill:#194f82;fill-opacity:1"
   transform="matrix(0.04376013,0,0,0.04631402,1.0327002,0.38601112)">
		<path
   d="m 492,158.5 h -41 v -135 c 0,-5.522 -4.478,-10 -10,-10 H 61 c -5.522,0 -10,4.478 -10,10 v 135 H 10 c -5.522,0 -10,4.478 -10,10 v 220 c 0,5.522 4.478,10 10,10 h 41 v 80 c 0,5.522 4.478,10 10,10 h 380 c 5.522,0 10,-4.478 10,-10 v -80 h 41 c 5.522,0 10,-4.478 10,-10 v -220 c 0,-5.522 -4.478,-10 -10,-10 z M 71,33.5 h 360 v 125 H 71 Z m 360,435 H 71 v -148 h 360 z m 51,-290 v 200 h -31 v -68 c 0,-5.522 -4.478,-10 -10,-10 H 61 c -5.522,0 -10,4.478 -10,10 v 68 H 20 v -200 z"
   id="path874"
   style="fill:#194f82;fill-opacity:1" />
		<path
   d="m 394,239.5 c 0,15.99 13.01,29 29,29 15.99,0 29,-13.01 29,-29 0,-15.99 -13.01,-29 -29,-29 -15.99,0 -29,13.01 -29,29 z m 38,0 c 0,4.963 -4.037,9 -9,9 -4.963,0 -9,-4.037 -9,-9 0,-4.963 4.037,-9 9,-9 4.963,0 9,4.037 9,9 z"
   id="path876"
   style="fill:#194f82;fill-opacity:1" />
		<path
   d="m 363,228.5 h -47 c -5.522,0 -10,4.478 -10,10 0,5.522 4.478,10 10,10 h 47 c 5.522,0 10,-4.478 10,-10 0,-5.522 -4.478,-10 -10,-10 z"
   id="path878"
   style="fill:#194f82;fill-opacity:1" />
		<path
   d="m 391,342.5 h -24 c -5.522,0 -10,4.478 -10,10 0,5.522 4.478,10 10,10 h 24 c 5.522,0 10,-4.478 10,-10 0,-5.522 -4.478,-10 -10,-10 z"
   id="path880"
   style="fill:#194f82;fill-opacity:1" />
		<path
   d="m 111,362.5 h 215 c 5.522,0 10,-4.478 10,-10 0,-5.522 -4.478,-10 -10,-10 H 111 c -5.522,0 -10,4.478 -10,10 0,5.522 4.478,10 10,10 z"
   id="path882"
   style="fill:#194f82;fill-opacity:1" />
		<path
   d="M 391,383.5 H 111 c -5.522,0 -10,4.478 -10,10 0,5.522 4.478,10 10,10 h 280 c 5.522,0 10,-4.478 10,-10 0,-5.522 -4.478,-10 -10,-10 z"
   id="path884"
   style="fill:#194f82;fill-opacity:1" />
		<path
   d="M 391,423.5 H 111 c -5.522,0 -10,4.478 -10,10 0,5.522 4.478,10 10,10 h 280 c 5.522,0 10,-4.478 10,-10 0,-5.522 -4.478,-10 -10,-10 z"
   id="path886"
   style="fill:#194f82;fill-opacity:1" />
	</g>
</svg>
