<svg width="24px" height="24px" viewBox="0 0 24 24" fill="none" xmlns="http://www.w3.org/2000/svg">
<path d="M12.75 16.99C12.75 16.5758 12.4142 16.24 12 16.24C11.5858 16.24 11.25 16.5758 11.25 16.99H12.75ZM11.25 17C11.25 17.4142 11.5858 17.75 12 17.75C12.4142 17.75 12.75 17.4142 12.75 17H11.25ZM11.25 14C11.25 14.4142 11.5858 14.75 12 14.75C12.4142 14.75 12.75 14.4142 12.75 14H11.25ZM8.27587 8.98654C8.16802 9.38647 8.40479 9.7981 8.80472 9.90595C9.20465 10.0138 9.61628 9.77702 9.72413 9.3771L8.27587 8.98654ZM11.25 16.99V17H12.75V16.99H11.25ZM14.25 9.90909C14.25 10.5071 13.8779 10.8232 13.0775 11.369C12.4012 11.8301 11.25 12.5419 11.25 14H12.75C12.75 13.4581 13.0988 13.1699 13.9225 12.6083C14.6221 12.1313 15.75 11.402 15.75 9.90909H14.25ZM12 7.75C13.2867 7.75 14.25 8.73398 14.25 9.90909H15.75C15.75 7.87091 14.0801 6.25 12 6.25V7.75ZM9.72413 9.3771C9.96738 8.47508 10.8917 7.75 12 7.75V6.25C10.2678 6.25 8.70934 7.37913 8.27587 8.98654L9.72413 9.3771ZM20.25 12C20.25 16.5563 16.5563 20.25 12 20.25V21.75C17.3848 21.75 21.75 17.3848 21.75 12H20.25ZM12 20.25C7.44365 20.25 3.75 16.5563 3.75 12H2.25C2.25 17.3848 6.61522 21.75 12 21.75V20.25ZM3.75 12C3.75 7.44365 7.44365 3.75 12 3.75V2.25C6.61522 2.25 2.25 6.61522 2.25 12H3.75ZM12 3.75C16.5563 3.75 20.25 7.44365 20.25 12H21.75C21.75 6.61522 17.3848 2.25 12 2.25V3.75Z" fill="#000000"/>
</svg>
