<svg width="24px" height="24px" viewBox="0 0 24 24" fill="none" xmlns="http://www.w3.org/2000/svg">
  <path
     d="M 8.8846951,12.01 H 11.751515 M 5,18 h 14 c 1.1046,0 2,-0.8954 2,-2 V 15.121066 L 19.538484,15.064854 21,15.121066 V 9.0501548 l -1.602046,0 1.602046,0 V 8 C 21,6.89543 20.1046,6 19,6 H 5 C 3.89543,6 3,6.89543 3,8 v 8 c 0,1.1046 0.89543,2 2,2 z M 16.165756,9 7.1421187,8.9437879 C 5.4852509,8.9334666 5.9409073,10.399312 5.9409073,12.056212 5.9409073,13.713112 5.597643,15 7.254543,15 h 8.967425 z"
     stroke="#000000"
     stroke-width="1.5"
     stroke-linecap="round"
     stroke-linejoin="round" />
</svg>
