<svg width="24px" height="24px" viewBox="0 0 24 24" fill="none" xmlns="http://www.w3.org/2000/svg">
<g
   id="Layer_1_64_"
   style="fill:#006633;fill-opacity:1"
   transform="matrix(0.39890145,0,0,0.42490654,2.81083,2.0017738)">
		<g
   id="g830"
   style="fill:#006633;fill-opacity:1">
			<path
   d="m 22.432,22.429 c 0,0.591 0.479,1.067 1.068,1.067 0.589,0 1.068,-0.479 1.068,-1.067 10e-4,-1.25 0.445,-2.465 1.251,-3.421 1.793,-2.126 3.137,-4.431 3.988,-6.851 0.115,-0.327 0.065,-0.689 -0.135,-0.972 C 29.471,10.902 29.147,10.734 28.8,10.734 H 18.199 c -0.347,0 -0.672,0.168 -0.873,0.451 -0.2,0.283 -0.25,0.645 -0.135,0.972 0.853,2.42 2.195,4.725 3.988,6.851 0.807,0.956 1.252,2.172 1.253,3.421 z"
   id="path824"
   style="fill:#006633;fill-opacity:1" />
			<path
   d="m 24.568,26.71 c 0,-0.59 -0.479,-1.067 -1.068,-1.067 -0.589,0 -1.068,0.479 -1.068,1.067 -10e-4,1.542 -0.922,3.067 -2.593,4.304 -3.574,2.639 -6.249,5.506 -7.951,8.52 -0.187,0.332 -0.184,0.736 0.009,1.062 0.19,0.329 0.542,0.53 0.922,0.53 h 21.364 c 0.379,0 0.73,-0.201 0.922,-0.53 0.191,-0.326 0.194,-0.73 0.008,-1.062 -1.701,-3.014 -4.377,-5.881 -7.95,-8.52 -1.673,-1.237 -2.594,-2.762 -2.595,-4.304 z"
   id="path826"
   style="fill:#006633;fill-opacity:1" />
			<path
   d="M 42.192,42.729 H 41.553 C 40.819,34.416 35.951,28.034 32.167,23.501 35.952,18.969 40.818,12.586 41.555,4.273 h 0.639 c 1.18,0 2.136,-0.957 2.136,-2.137 C 44.33,0.956 43.374,0 42.194,0 H 4.807 c -1.18,0 -2.136,0.957 -2.136,2.136 0,1.18 0.956,2.137 2.136,2.137 h 0.639 c 0.735,8.314 5.601,14.697 9.386,19.228 -3.784,4.532 -8.651,10.914 -9.387,19.228 H 4.807 c -1.18,0 -2.136,0.955 -2.136,2.135 0,1.181 0.956,2.138 2.136,2.138 h 2.671 32.044 2.672 c 1.18,0 2.136,-0.957 2.136,-2.138 0,-1.18 -0.957,-2.135 -2.138,-2.135 z m -32.464,0 c 0.803,-7.511 5.686,-13.295 9.335,-17.617 l 0.195,-0.231 c 0.672,-0.795 0.672,-1.959 0,-2.755 l -0.194,-0.23 C 15.416,17.573 10.531,11.789 9.728,4.277 h 27.544 c -0.803,7.512 -5.688,13.296 -9.336,17.619 l -0.193,0.23 c -0.672,0.795 -0.672,1.959 0,2.755 l 0.195,0.231 c 3.648,4.322 8.531,10.106 9.334,17.617 z"
   id="path828"
   style="fill:#006633;fill-opacity:1" />
		</g>
	</g>
</svg>
