<?xml version="1.0" encoding="UTF-8" standalone="no"?>
<svg
   version="1.1"
   id="Capa_1"
   x="0px"
   y="0px"
   viewBox="0 0 57 57"
   style="enable-background:new 0 0 57 57;"
   xml:space="preserve"
   sodipodi:docname="NEW_DB.svg"
   inkscape:version="1.1-dev (9017afb, 2021-01-01)"
   xmlns:inkscape="http://www.inkscape.org/namespaces/inkscape"
   xmlns:sodipodi="http://sodipodi.sourceforge.net/DTD/sodipodi-0.dtd"
   xmlns="http://www.w3.org/2000/svg"
   xmlns:svg="http://www.w3.org/2000/svg"><defs
   id="defs2284" /><sodipodi:namedview
   id="namedview2282"
   pagecolor="#ffffff"
   bordercolor="#666666"
   borderopacity="1.0"
   objecttolerance="10.0"
   gridtolerance="10.0"
   guidetolerance="10.0"
   inkscape:pageshadow="2"
   inkscape:pageopacity="0.0"
   inkscape:pagecheckerboard="0"
   showgrid="false"
   inkscape:zoom="12.666667"
   inkscape:cx="28.302631"
   inkscape:cy="28.460526"
   inkscape:window-width="1296"
   inkscape:window-height="1003"
   inkscape:window-x="4"
   inkscape:window-y="88"
   inkscape:window-maximized="0"
   inkscape:current-layer="g2249" />
<g
   id="g2249">
	<path
   d="m 46.598483,33.454388 v -0.208127 -8.735212 -0.379791 -9.115006 -0.379791 c 0,-0.138245 -0.04727,-0.260537 -0.111292,-0.372196 C 45.60524,11.005651 39.035203,7.8002078 27.54164,7.8002078 c -11.493562,0 -18.0635989,3.2054432 -18.9455489,6.4640572 -0.06403,0.111659 -0.111292,0.233951 -0.111292,0.372196 v 0.379791 9.115006 0.379791 8.735212 0.379793 9.115003 c 0,0.123053 0.03202,0.23927 0.08919,0.342573 0.899483,3.718162 8.9544279,6.493681 18.9676549,6.493681 2.413358,0 4.761924,-0.167108 6.994623,-0.488412 1.661757,1.254072 3.723708,2.007578 5.964031,2.007578 5.463977,0 9.909557,-4.429891 9.909557,-9.874587 0,-3.152273 -1.495581,-5.958175 -3.811368,-7.767502 z M 44.12033,32.039283 c -0.106717,-0.04178 -0.214198,-0.07899 -0.321678,-0.117736 -0.237068,-0.08355 -0.477947,-0.157992 -0.722636,-0.224076 -0.121964,-0.03266 -0.243165,-0.06609 -0.365892,-0.09419 -0.249263,-0.05696 -0.502337,-0.100265 -0.758461,-0.138245 -0.112817,-0.0167 -0.224108,-0.03874 -0.337688,-0.05165 -0.366654,-0.04025 -0.737118,-0.06609 -1.113681,-0.06609 -0.316344,0 -0.628115,0.01823 -0.937598,0.04785 -0.102906,0.0099 -0.203527,0.02658 -0.305671,0.03874 -0.205052,0.02582 -0.409342,0.05468 -0.610582,0.09343 -0.116627,0.02203 -0.230968,0.04785 -0.34531,0.07443 -0.186756,0.04254 -0.371227,0.08963 -0.554172,0.142802 -0.111293,0.0319 -0.222584,0.06456 -0.332352,0.101025 -0.192092,0.06305 -0.381136,0.133687 -0.567894,0.207366 -0.09071,0.0357 -0.182945,0.06912 -0.272131,0.107861 -0.252313,0.108621 -0.49929,0.227116 -0.740168,0.355486 -0.01906,0.01064 -0.03965,0.01899 -0.05946,0.02963 -0.272894,0.148119 -0.53664,0.30915 -0.793527,0.480816 -0.0282,0.01899 -0.05488,0.04025 -0.08309,0.06001 -0.22106,0.151157 -0.435259,0.311429 -0.64336,0.480057 -0.05107,0.04101 -0.09909,0.08431 -0.149405,0.12685 -0.182183,0.154196 -0.359031,0.313708 -0.529781,0.480057 -0.05183,0.05089 -0.102906,0.101783 -0.153979,0.154196 -0.163889,0.167107 -0.32168,0.340293 -0.473372,0.519555 -0.04649,0.05468 -0.09376,0.107862 -0.138733,0.16331 -0.15398,0.189136 -0.298812,0.38359 -0.439071,0.58412 -0.03507,0.05012 -0.07241,0.09799 -0.105955,0.148119 -0.165413,0.246865 -0.323205,0.500565 -0.466511,0.764142 -0.01144,0.02052 -0.02059,0.04177 -0.03202,0.06228 -0.1273,0.23775 -0.246215,0.482336 -0.354457,0.732239 -0.06326,0.14508 -0.116629,0.296238 -0.1738,0.445116 -0.04573,0.121534 -0.09376,0.242307 -0.134921,0.36612 -0.05946,0.176983 -0.109767,0.358523 -0.159316,0.540063 -0.01601,0.05849 -0.03658,0.113938 -0.05107,0.173187 -0.303385,0.02052 -0.607531,0.03874 -0.91244,0.05317 -0.203528,0.0099 -0.40553,0.02279 -0.609057,0.03039 -0.609821,0.01975 -1.220401,0.03342 -1.829458,0.03342 -0.6304,0 -1.247842,-0.01216 -1.853849,-0.03342 -0.367417,-0.01367 -0.721874,-0.03723 -1.080142,-0.05773 -0.226396,-0.01291 -0.459652,-0.02127 -0.682235,-0.03722 -0.475659,-0.03418 -0.937597,-0.07824 -1.394199,-0.125333 -0.09147,-0.0099 -0.187519,-0.01595 -0.278229,-0.02582 -0.52292,-0.05696 -1.03212,-0.122292 -1.52836,-0.194453 -0.0183,-0.0022 -0.03736,-0.0046 -0.05488,-0.0068 -2.575723,-0.379032 -4.786317,-0.957075 -6.515917,-1.644498 -0.01296,-0.0053 -0.02668,-0.0099 -0.03888,-0.01519 -0.315582,-0.126851 -0.612105,-0.256739 -0.89491,-0.390425 -0.03582,-0.01671 -0.07395,-0.03342 -0.109767,-0.05089 -0.253833,-0.121562 -0.48785,-0.246893 -0.712721,-0.372984 -0.05564,-0.03191 -0.11434,-0.06305 -0.168462,-0.09495 -0.195144,-0.113968 -0.373516,-0.230944 -0.544265,-0.34792 -0.06784,-0.0471 -0.13721,-0.09343 -0.200478,-0.140523 -0.143308,-0.105582 -0.272894,-0.212683 -0.396383,-0.319785 -0.07013,-0.06077 -0.139496,-0.121534 -0.202764,-0.18306 -0.101382,-0.09799 -0.189806,-0.195972 -0.273656,-0.293959 -0.06098,-0.0714 -0.118915,-0.142801 -0.17075,-0.214961 -0.06632,-0.09191 -0.122726,-0.183819 -0.173036,-0.275729 -0.04192,-0.07672 -0.07928,-0.153436 -0.111292,-0.230155 -0.03659,-0.09039 -0.06556,-0.18078 -0.0869,-0.270411 -0.02897,-0.123812 -0.06022,-0.247625 -0.06022,-0.370678 v -6.233903 c 0.01372,0.01216 0.02973,0.02431 0.04345,0.03646 0.176848,0.155715 0.358269,0.31067 0.562557,0.459548 2.875298,2.161016 8.613692,3.838937 16.926288,3.838937 8.293538,0 14.022786,-1.670325 16.904944,-3.823745 0.221059,-0.161032 0.419251,-0.32738 0.609057,-0.496007 0.006,-0.0053 0.01296,-0.01064 0.0183,-0.01595 v 5.45457 c -0.0404,-0.02127 -0.08385,-0.03494 -0.125012,-0.05622 -0.269845,-0.135206 -0.545788,-0.259778 -0.828592,-0.370677 z M 10.467473,18.280185 c 0.228682,0.179261 0.475658,0.356244 0.743216,0.528669 0.05565,0.0357 0.118153,0.07064 0.176086,0.106342 0.224108,0.139004 0.461175,0.27497 0.710438,0.408656 0.09224,0.04937 0.18447,0.09799 0.279755,0.146599 0.27823,0.141283 0.57018,0.278008 0.877378,0.411696 0.05031,0.02203 0.09605,0.04482 0.147118,0.06609 0.357506,0.151157 0.737118,0.295478 1.131976,0.434481 0.109005,0.03874 0.223346,0.0752 0.335402,0.113179 0.314055,0.105582 0.638784,0.206606 0.974946,0.304593 0.121202,0.03494 0.240116,0.0714 0.364367,0.105582 0.44593,0.123053 0.906343,0.240027 1.389626,0.34789 0.06631,0.01519 0.137972,0.0281 0.205051,0.04253 0.426111,0.09267 0.868229,0.178502 1.322544,0.258259 0.15398,0.02735 0.310247,0.05317 0.467275,0.07899 0.432208,0.07064 0.877377,0.135965 1.333977,0.195213 0.117392,0.01519 0.229445,0.0319 0.348362,0.0471 0.56713,0.06837 1.154081,0.12685 1.757039,0.176982 0.148644,0.01216 0.303385,0.02127 0.454314,0.03191 0.482521,0.03493 0.975712,0.0638 1.480337,0.08659 0.183708,0.0083 0.366653,0.0167 0.554173,0.0228 0.657842,0.02203 1.327119,0.03798 2.020787,0.03798 0.693669,0 1.362946,-0.01595 2.020026,-0.03798 0.186757,-0.006 0.369703,-0.01519 0.554173,-0.0228 0.504626,-0.0228 0.997815,-0.05166 1.480336,-0.08659 0.150929,-0.01138 0.304909,-0.01976 0.454314,-0.03191 0.602958,-0.04937 1.189909,-0.10862 1.757041,-0.176982 0.118915,-0.01443 0.230968,-0.0319 0.34836,-0.0471 0.456601,-0.05925 0.901007,-0.124571 1.333979,-0.195213 0.157026,-0.02582 0.313293,-0.05166 0.467273,-0.07899 0.454315,-0.07976 0.896434,-0.165589 1.322545,-0.258259 0.06709,-0.01443 0.138734,-0.02735 0.205051,-0.04253 0.483282,-0.107863 0.943696,-0.224837 1.389625,-0.34789 0.124251,-0.03418 0.243166,-0.06989 0.364367,-0.105582 0.336164,-0.09723 0.660891,-0.199011 0.974949,-0.304593 0.112053,-0.03798 0.226394,-0.07444 0.335399,-0.113179 0.394858,-0.139762 0.775234,-0.284083 1.131977,-0.434481 0.05107,-0.02127 0.09681,-0.04482 0.147119,-0.06609 0.307196,-0.133688 0.599147,-0.270413 0.877377,-0.411696 0.09528,-0.04861 0.188282,-0.09723 0.279754,-0.146599 0.249265,-0.132927 0.486331,-0.268893 0.710439,-0.408656 0.05793,-0.0357 0.12044,-0.07064 0.176086,-0.106342 0.267558,-0.172425 0.514535,-0.348648 0.743217,-0.528669 0.05717,-0.04558 0.108242,-0.09115 0.163888,-0.136727 0.0991,-0.08204 0.203527,-0.16331 0.295,-0.246104 v 6.233904 c 0,0.123812 -0.03125,0.248383 -0.06098,0.372955 -0.02135,0.08887 -0.04954,0.176983 -0.08538,0.266614 -0.03202,0.07824 -0.07012,0.156473 -0.112816,0.234711 -0.05031,0.09039 -0.105193,0.180781 -0.169988,0.271172 -0.05259,0.07292 -0.112053,0.14584 -0.173797,0.219518 -0.08233,0.09647 -0.169987,0.192935 -0.269083,0.288643 -0.06479,0.06304 -0.135685,0.12533 -0.207339,0.187616 -0.121964,0.105584 -0.249262,0.211165 -0.391046,0.315228 -0.06555,0.04861 -0.137209,0.09647 -0.206577,0.144321 -0.169224,0.116217 -0.345309,0.231673 -0.538164,0.344092 -0.05642,0.03342 -0.116628,0.06609 -0.175323,0.09875 -0.222584,0.125332 -0.455077,0.249145 -0.705865,0.369918 -0.03735,0.01747 -0.07851,0.03569 -0.116628,0.05393 -0.281279,0.132167 -0.574756,0.262055 -0.888811,0.387388 -0.01448,0.0053 -0.02973,0.01138 -0.04421,0.0167 -1.729598,0.686665 -3.937906,1.264708 -6.512103,1.643741 -0.0183,0.0022 -0.03812,0.0046 -0.05642,0.0077 -0.49624,0.07215 -1.004676,0.137484 -1.526833,0.194453 -0.09148,0.0099 -0.18752,0.0167 -0.279755,0.02582 -0.456602,0.0471 -0.917778,0.09115 -1.392675,0.12533 -0.223345,0.01595 -0.456601,0.02431 -0.683759,0.03723 -0.357506,0.02052 -0.711964,0.04482 -1.079378,0.05773 -0.607533,0.02127 -1.224975,0.03342 -1.855375,0.03342 -0.630401,0 -1.247842,-0.01216 -1.85385,-0.03342 -0.367415,-0.01367 -0.721873,-0.03722 -1.080142,-0.05773 -0.226396,-0.01291 -0.459651,-0.02128 -0.682235,-0.03723 -0.475659,-0.03418 -0.937597,-0.07824 -1.394199,-0.12533 -0.09147,-0.0099 -0.187518,-0.01595 -0.278229,-0.02582 -0.522921,-0.05697 -1.032119,-0.122293 -1.528359,-0.194453 -0.0183,-0.0022 -0.03736,-0.0046 -0.05488,-0.0068 -2.575724,-0.379032 -4.786318,-0.957075 -6.515917,-1.644499 -0.01296,-0.0053 -0.02668,-0.0099 -0.03888,-0.01519 -0.315581,-0.126851 -0.612105,-0.25674 -0.894909,-0.390426 -0.03582,-0.0167 -0.07395,-0.03342 -0.109767,-0.0509 -0.253838,-0.121547 -0.487855,-0.246879 -0.712726,-0.372969 -0.05564,-0.03191 -0.114341,-0.06305 -0.168463,-0.09495 -0.195134,-0.114026 -0.373506,-0.231002 -0.544255,-0.347977 -0.06784,-0.0471 -0.13721,-0.09343 -0.200478,-0.140524 -0.143307,-0.105582 -0.272894,-0.212682 -0.396383,-0.319784 -0.07013,-0.06077 -0.139496,-0.121534 -0.202764,-0.183059 -0.101382,-0.09799 -0.189806,-0.195973 -0.273656,-0.29396 -0.06098,-0.0714 -0.118915,-0.142802 -0.17075,-0.214962 -0.06632,-0.09191 -0.122726,-0.183819 -0.173036,-0.275729 -0.04192,-0.07671 -0.07928,-0.153435 -0.111292,-0.230154 -0.03659,-0.09039 -0.06556,-0.18078 -0.0869,-0.270411 -0.02897,-0.123812 -0.06022,-0.247625 -0.06022,-0.370677 v -6.233903 c 0.09147,0.0828 0.195904,0.164069 0.295,0.246104 0.05488,0.04558 0.105956,0.09115 0.163127,0.136726 z M 27.54164,9.3193749 c 10.331858,0 17.532295,3.0018751 17.532295,5.6968771 0,2.695004 -7.200437,5.696879 -17.532295,5.696879 -10.331858,0 -17.532294,-3.001875 -17.532294,-5.696879 0,-2.695002 7.200436,-5.6968771 17.532294,-5.6968771 z m 0,38.7387691 c -9.937763,0 -17.075692,-2.812739 -17.507901,-5.44014 -0.0061,-0.03418 -0.01372,-0.06761 -0.02439,-0.0995 v -6.391138 c 0.01372,0.01216 0.02973,0.02431 0.04345,0.03646 0.176847,0.155715 0.358268,0.31067 0.562557,0.45955 2.875297,2.161014 8.613692,3.838935 16.926287,3.838935 0.607532,0 1.21659,-0.01444 1.824883,-0.0357 0.182184,-0.006 0.362842,-0.01595 0.545027,-0.02431 0.239354,-0.01064 0.480231,-0.01747 0.718823,-0.03191 -0.02591,0.288643 -0.03965,0.572726 -0.03965,0.851495 0,0.322822 0.0183,0.643367 0.04878,0.960872 0.0099,0.102543 0.02897,0.202809 0.04192,0.303834 0.02745,0.214203 0.05642,0.427645 0.09833,0.63805 0.02211,0.111659 0.05107,0.22028 0.07699,0.331179 0.0465,0.19825 0.09452,0.395742 0.152456,0.590956 0.03124,0.104822 0.06783,0.207366 0.102906,0.31143 0.06632,0.196731 0.136447,0.391945 0.214961,0.584879 0.03811,0.09343 0.07851,0.184579 0.119678,0.275728 0.08766,0.197492 0.181421,0.391945 0.28204,0.583361 0.04344,0.08128 0.08766,0.162551 0.132637,0.243066 0.109006,0.192935 0.224108,0.382071 0.346072,0.56741 0.04878,0.07444 0.09757,0.148119 0.147881,0.221039 0.126537,0.18154 0.259934,0.357763 0.398669,0.530948 0.05718,0.07215 0.114342,0.14432 0.173799,0.214203 0.04803,0.05696 0.09148,0.117736 0.14102,0.173945 -1.782195,0.202049 -3.63452,0.305352 -5.527246,0.305352 z m 12.958654,1.519167 c -2.012403,0 -3.860917,-0.71173 -5.307712,-1.892883 -0.223347,-0.183059 -0.436022,-0.375993 -0.637262,-0.577283 -0.08232,-0.0828 -0.157029,-0.172426 -0.235543,-0.258259 -0.115103,-0.125331 -0.230967,-0.250662 -0.337686,-0.38207 -0.09071,-0.111659 -0.173799,-0.228635 -0.259173,-0.344851 -0.08461,-0.115458 -0.168462,-0.230915 -0.246214,-0.350168 -0.08156,-0.124572 -0.157791,-0.252182 -0.232495,-0.380552 -0.07089,-0.122293 -0.138733,-0.245346 -0.203526,-0.370677 -0.06632,-0.129129 -0.130349,-0.259777 -0.189806,-0.392704 -0.06175,-0.136725 -0.117391,-0.275729 -0.17075,-0.415492 -0.04955,-0.126852 -0.09833,-0.254462 -0.141782,-0.384351 -0.05183,-0.157992 -0.09529,-0.319025 -0.137972,-0.480056 -0.03125,-0.118495 -0.06632,-0.23623 -0.09223,-0.357004 -0.04116,-0.189897 -0.07012,-0.382831 -0.09757,-0.576524 -0.01447,-0.09799 -0.03429,-0.194454 -0.04498,-0.294719 -0.03201,-0.296997 -0.05031,-0.596273 -0.05031,-0.897828 0,-0.260536 0.01601,-0.517277 0.03965,-0.772496 0.02439,-0.249143 0.06021,-0.502084 0.109005,-0.762622 0.03812,-0.205847 0.08842,-0.406378 0.14102,-0.606148 0.01448,-0.05545 0.02746,-0.1109 0.04269,-0.166348 0.04803,-0.16711 0.104433,-0.33042 0.161602,-0.492212 0.03202,-0.08887 0.06328,-0.177742 0.09757,-0.265854 0.05336,-0.134445 0.111291,-0.267373 0.171511,-0.398023 0.05183,-0.113176 0.105956,-0.226354 0.163128,-0.337253 0.05488,-0.106343 0.111291,-0.211166 0.169986,-0.315228 0.07623,-0.133687 0.157029,-0.264335 0.240117,-0.393464 0.05107,-0.07976 0.101382,-0.159513 0.155503,-0.23775 0.106719,-0.153436 0.220298,-0.302314 0.336925,-0.448154 0.0404,-0.05013 0.07775,-0.101784 0.118915,-0.151158 0.158552,-0.189895 0.324729,-0.372955 0.500051,-0.54842 0.0046,-0.0046 0.0083,-0.0091 0.01295,-0.01367 0.370466,-0.368398 0.775996,-0.701856 1.20973,-0.997334 0.04955,-0.03342 0.102144,-0.0638 0.152454,-0.09647 0.161602,-0.104821 0.326253,-0.205847 0.495478,-0.300036 0.07775,-0.04329 0.157029,-0.08204 0.235543,-0.122292 0.147118,-0.07596 0.296524,-0.148878 0.448217,-0.215722 0.093,-0.04101 0.186757,-0.07899 0.281278,-0.116976 0.144832,-0.05773 0.291952,-0.110899 0.440594,-0.161031 0.101384,-0.03342 0.202767,-0.06685 0.305673,-0.09647 0.150167,-0.04406 0.303385,-0.08127 0.456602,-0.116976 0.102145,-0.02354 0.204288,-0.04861 0.307957,-0.06912 0.169227,-0.03266 0.341501,-0.05621 0.514536,-0.07899 0.09071,-0.01139 0.179896,-0.02735 0.270607,-0.0357 0.266034,-0.02431 0.533593,-0.0395 0.805724,-0.0395 0.259935,0 0.516059,0.01595 0.769896,0.03874 0.07927,0.0068 0.157791,0.01747 0.237068,0.02734 0.178371,0.02127 0.354456,0.04861 0.529017,0.08052 0.08461,0.01595 0.169224,0.03115 0.253838,0.04937 0.185994,0.04025 0.368939,0.08887 0.549598,0.141283 0.06098,0.01747 0.122726,0.03191 0.182946,0.05013 0.223346,0.07064 0.441357,0.151917 0.656318,0.240029 0.102906,0.04254 0.202765,0.09039 0.304146,0.136725 0.11739,0.05393 0.233258,0.108621 0.347598,0.167108 0.113579,0.05849 0.225633,0.120015 0.336924,0.18382 0.09528,0.05469 0.18752,0.111658 0.280517,0.170146 0.115105,0.07215 0.230207,0.143563 0.342261,0.221799 2.169431,1.511571 3.594883,4.015919 3.594883,6.848407 0,4.606874 -3.761821,8.35542 -8.38501,8.35542 z"
   id="path2245"
   style="fill:#006633;fill-opacity:1;stroke:#006633;stroke-width:0.760927;stroke-miterlimit:4;stroke-dasharray:none;stroke-opacity:1" />
	<path
   d="m 44.800599,40.779824 h -3.523545 v -3.351223 c 0,-0.370645 -0.315711,-0.670245 -0.704709,-0.670245 -0.388999,0 -0.704709,0.2996 -0.704709,0.670245 v 3.351223 H 36.34409 c -0.388998,0 -0.704709,0.299599 -0.704709,0.670244 0,0.370645 0.315711,0.670245 0.704709,0.670245 h 3.523546 v 3.351223 c 0,0.370645 0.31571,0.670245 0.704709,0.670245 0.388998,0 0.704709,-0.2996 0.704709,-0.670245 v -3.351223 h 3.523545 c 0.388999,0 0.704709,-0.2996 0.704709,-0.670245 0,-0.370645 -0.31571,-0.670244 -0.704709,-0.670244 z"
   id="path2247"
   style="fill:#006633;fill-opacity:1;stroke:#006633;stroke-width:0.68726;stroke-miterlimit:4;stroke-dasharray:none;stroke-opacity:1" />
<path
   style="opacity:0.151125;fill:#006633;fill-opacity:1;stroke:#006633;stroke-width:0.0512067;stroke-miterlimit:4;stroke-dasharray:none;stroke-opacity:1"
   d="M 38.932705,51.315216 C 37.461246,51.065838 36.08985,50.535599 34.934448,49.769322 l -0.489015,-0.324321 -0.65757,0.08865 C 30.567115,49.967856 25.798584,50.020574 22.359349,49.66 17.424484,49.142625 13.354953,47.95431 10.802157,46.285269 10.469856,46.068008 9.9019161,45.595213 9.5384511,45.233269 8.8564661,44.554138 8.5470601,44.084308 8.2844941,43.329144 8.1514051,42.946372 8.1486521,42.64977 8.1486871,28.698397 c 3.4e-5,-14.209223 3.44e-4,-14.240875 0.143159,-14.618244 0.35328,-0.933494 0.876336,-1.662726 1.689133,-2.354945 C 12.188251,9.8453819 16.122067,8.4611009 20.96955,7.8584103 23.154299,7.586779 23.911463,7.5387614 26.634447,7.499155 29.281594,7.460652 31.036813,7.522362 32.991313,7.7226533 40.321299,8.4738049 45.515067,10.80421 46.7137,13.879783 l 0.210351,0.53974 v 9.420995 9.420995 l 0.599729,0.568831 c 2.202793,2.089305 3.315438,4.797696 3.199742,7.788788 -0.06171,1.595357 -0.375926,2.80305 -1.095351,4.209963 -0.533701,1.043708 -1.069767,1.770655 -1.940587,2.631592 -1.518366,1.501133 -3.402246,2.47233 -5.47628,2.823187 -0.921963,0.155965 -2.456699,0.170638 -3.278599,0.03134 z m 2.892104,-2.20286 c 2.533156,-0.430653 4.730796,-2.052429 5.892273,-4.348277 0.497945,-0.98427 0.805238,-2.328762 0.805238,-3.523139 0,-2.107346 -0.764542,-4.012237 -2.217048,-5.52388 -2.70614,-2.816314 -6.908083,-3.306153 -10.213071,-1.19058 -0.631675,0.404345 -1.523443,1.244949 -2.019529,1.903664 -1.286047,1.707639 -1.840787,3.938261 -1.498606,6.025923 0.490715,2.993886 2.492896,5.365671 5.354196,6.342587 1.197988,0.409021 2.648815,0.525824 3.896547,0.313702 z m -10.39702,-1.5478 c 0.477743,-0.0433 0.881279,-0.09105 0.896746,-0.106089 0.01546,-0.01504 -0.111984,-0.236578 -0.283225,-0.492309 -1.150861,-1.71869 -1.78934,-3.729498 -1.793577,-5.648639 l -0.0012,-0.576656 -1.511407,0.04737 c -1.641679,0.05146 -4.28858,-0.03564 -6.1222,-0.201478 -4.904102,-0.443508 -9.110223,-1.636433 -11.611803,-3.293284 -0.319299,-0.21148 -0.591393,-0.384507 -0.604653,-0.384507 -0.01326,0 -0.02342,1.291856 -0.02258,2.870792 0.0014,2.685826 0.01015,2.889599 0.135429,3.162687 0.620227,1.352045 3.201424,2.730325 6.777297,3.618868 2.326479,0.57809 4.455606,0.875643 7.88711,1.102252 0.770469,0.05088 5.41107,-0.02259 6.254097,-0.09901 z m -1.352776,-9.047001 0.558198,-0.03693 0.159579,-0.493592 c 0.428676,-1.325924 1.289503,-2.732921 2.334025,-3.8149 1.478121,-1.531125 3.301567,-2.525994 5.45844,-2.978116 1.039822,-0.217965 2.780316,-0.218162 3.821949,-4.13e-4 0.61122,0.127765 1.693446,0.456149 2.17156,0.658929 0.114276,0.04848 0.121608,-0.07305 0.121608,-2.01568 v -2.067255 l -0.563365,0.373128 c -3.596356,2.381928 -9.99307,3.6598 -17.608261,3.517589 -2.354814,-0.04398 -3.324648,-0.104814 -5.177002,-0.324759 -4.373152,-0.519264 -7.986798,-1.620773 -10.336632,-3.150804 L 10.37233,27.766221 v 2.875733 2.875734 l 0.212039,0.41988 c 0.888082,1.758577 5.019788,3.44257 10.315691,4.204449 2.737277,0.393791 6.544046,0.549605 9.174953,0.375538 z m 0.05252,-9.10444 c 3.889772,-0.226386 6.987313,-0.764054 9.701424,-1.683963 2.556612,-0.866527 4.243736,-1.938834 4.734857,-3.00939 0.124761,-0.271955 0.1336,-0.478963 0.135026,-3.161801 8.42e-4,-1.578936 -0.0084,-2.870792 -0.02072,-2.870792 -0.01223,0 -0.28359,0.17014 -0.603016,0.37809 -2.202526,1.433864 -5.543497,2.503279 -9.555023,3.058478 -3.935177,0.544632 -9.117506,0.583913 -13.168347,0.09981 -4.41747,-0.527918 -8.007109,-1.628117 -10.388742,-3.18408 -0.267536,-0.174786 -0.511156,-0.328556 -0.541378,-0.341709 -0.03022,-0.01316 -0.04586,1.301881 -0.03475,2.922301 0.02304,3.360317 -0.02152,3.10665 0.672711,3.829429 1.74391,1.815627 6.497804,3.336865 11.959922,3.827153 2.266786,0.20347 5.041532,0.256746 7.108036,0.136474 z m 0.617195,-9.147213 c 6.312151,-0.423926 11.489057,-1.976382 13.387601,-4.014688 0.560826,-0.60211 0.711864,-1.266326 0.428467,-1.88427 C 44.381715,13.976447 43.674522,13.283001 43.04332,12.878959 38.106276,9.7186819 26.500518,8.7097079 17.807754,10.685046 c -1.554315,0.353202 -3.399268,0.973982 -4.551158,1.531352 -2.305392,1.115517 -3.2747799,2.328564 -2.737871,3.426043 1.10099,2.250502 7.14128,4.241479 14.099046,4.647274 0.971059,0.05663 5.172242,0.04031 6.126961,-0.02381 z"
   id="path3059" /><path
   style="opacity:1;fill:#006633;fill-opacity:1;stroke:#006633;stroke-width:2.27539;stroke-miterlimit:4;stroke-dasharray:none;stroke-opacity:1"
   d="M 38.932705,51.315216 C 37.461246,51.065838 36.08985,50.535599 34.934448,49.769322 l -0.489015,-0.324321 -0.65757,0.08865 C 30.567115,49.967856 25.798584,50.020574 22.359349,49.66 17.420533,49.14221 13.333556,47.947957 10.802121,46.28287 10.470188,46.064536 9.9015361,45.591144 9.5384511,45.230888 8.8559631,44.553718 8.5477441,44.086275 8.2844941,43.329144 8.1514051,42.946372 8.1486521,42.64977 8.1486871,28.698397 c 3.4e-5,-14.209223 3.44e-4,-14.240875 0.143159,-14.618244 0.35328,-0.933494 0.876336,-1.662726 1.689133,-2.354945 C 12.188251,9.8453819 16.122067,8.4611009 20.96955,7.8584103 23.154299,7.586779 23.911463,7.5387614 26.634447,7.499155 29.281594,7.460652 31.036813,7.522362 32.991313,7.7226533 40.321299,8.4738049 45.515067,10.80421 46.7137,13.879783 l 0.210351,0.53974 v 9.420243 9.420244 l 0.634082,0.603963 c 1.497656,1.426521 2.553792,3.303748 2.982052,5.300443 0.184116,0.858412 0.252666,2.447332 0.1415,3.279854 -0.602328,4.510827 -4.030605,8.088543 -8.470381,8.839604 -0.921963,0.155965 -2.456699,0.170638 -3.278599,0.03134 z m 2.887643,-2.199481 c 2.489039,-0.399474 4.736327,-2.057922 5.896734,-4.351656 0.497945,-0.98427 0.805238,-2.328762 0.805238,-3.523139 0,-2.107346 -0.764542,-4.012237 -2.217048,-5.52388 -2.707446,-2.817673 -6.906489,-3.307174 -10.213071,-1.19058 -0.631675,0.404345 -1.523443,1.244949 -2.019529,1.903664 -2.758569,3.662884 -1.848112,8.89011 1.998094,11.471727 0.834888,0.560387 2.010239,1.027384 3.035664,1.206148 0.739138,0.128854 1.937892,0.132264 2.713918,0.0078 z M 31.427789,47.564556 c 0.477743,-0.0433 0.881279,-0.09105 0.896746,-0.106089 0.01546,-0.01504 -0.111984,-0.236578 -0.283225,-0.492309 -1.150861,-1.71869 -1.78934,-3.729498 -1.793577,-5.648639 l -0.0012,-0.576656 -1.511407,0.04737 c -1.641679,0.05146 -4.28858,-0.03564 -6.1222,-0.201478 -4.904102,-0.443508 -9.110223,-1.636433 -11.611803,-3.293284 -0.319299,-0.21148 -0.591393,-0.384507 -0.604653,-0.384507 -0.01326,0 -0.02342,1.291856 -0.02258,2.870792 0.0014,2.685826 0.01015,2.889599 0.135429,3.162687 0.203431,0.443466 0.538137,0.817043 1.123075,1.253503 2.489069,1.857261 7.394992,3.119455 13.471842,3.466034 0.886238,0.05055 5.470412,-0.02008 6.323587,-0.09743 z m -1.352776,-9.047001 0.558198,-0.03693 0.159579,-0.493592 c 0.428676,-1.325924 1.289503,-2.732921 2.334025,-3.8149 1.478121,-1.531125 3.301567,-2.525994 5.45844,-2.978116 1.039822,-0.217965 2.780316,-0.218162 3.821949,-4.13e-4 0.61122,0.127765 1.693446,0.456149 2.17156,0.658929 0.114276,0.04848 0.121608,-0.07305 0.121608,-2.01568 v -2.067255 l -0.563365,0.373128 c -3.596356,2.381928 -9.99307,3.6598 -17.608261,3.517589 -2.354814,-0.04398 -3.324648,-0.104814 -5.177002,-0.324759 -4.373152,-0.519264 -7.986798,-1.620773 -10.336632,-3.150804 L 10.37233,27.766221 v 2.875733 2.875734 l 0.212039,0.41988 c 0.877838,1.738291 4.950588,3.417531 10.128647,4.176154 2.864795,0.419713 6.652522,0.583097 9.361997,0.403833 z m 0.07687,-9.105516 c 5.19313,-0.295753 9.587578,-1.296151 12.279645,-2.795462 1.130092,-0.629392 1.79027,-1.209141 2.099839,-1.844015 l 0.167642,-0.343807 6.96e-4,-2.870794 c 3.47e-4,-1.578936 -0.0093,-2.870792 -0.02157,-2.870792 -0.01223,0 -0.28359,0.17014 -0.603016,0.37809 -2.202525,1.433864 -5.543497,2.503279 -9.555021,3.058478 -3.935178,0.544632 -9.117508,0.583913 -13.168349,0.09981 -4.417478,-0.527918 -8.007115,-1.628117 -10.388748,-3.18408 -0.267537,-0.174786 -0.511158,-0.328556 -0.54138,-0.341709 -0.03022,-0.01316 -0.04586,1.301881 -0.03474,2.922301 0.02304,3.360317 -0.02152,3.10665 0.672711,3.829429 1.744608,1.816371 6.495551,3.336664 11.959906,3.827153 2.276173,0.204313 5.010777,0.256225 7.132385,0.135398 z m 1.901311,-9.240575 c 5.857023,-0.585584 10.323225,-2.035077 12.079136,-3.92025 0.560825,-0.60211 0.711863,-1.266326 0.428466,-1.88427 C 44.383624,13.980618 43.6759,13.283668 43.064234,12.893162 39.91152,10.880379 34.108808,9.6794129 27.536347,9.6794129 c -5.752803,0 -10.941981,0.9219251 -14.279754,2.5369851 -2.28527,1.105781 -3.2597699,2.312381 -2.754771,3.410885 0.316982,0.689518 1.445278,1.582782 2.817585,2.230663 2.402458,1.134222 5.906899,1.963771 9.734838,2.304367 1.794833,0.159699 1.746713,0.158319 4.899042,0.14049 2.143709,-0.01212 3.267644,-0.04813 4.099907,-0.131339 z"
   id="path3098" /><path
   style="opacity:0.149206;fill:#ffffff;fill-opacity:1;stroke:#006633;stroke-width:0.103687;stroke-miterlimit:4;stroke-dasharray:none;stroke-opacity:1"
   d="m 24.756753,19.60187 c -3.464912,-0.164638 -7.567152,-0.946334 -10.045935,-1.91429 -1.456661,-0.568821 -2.320621,-1.063739 -3.036813,-1.739632 -0.629982,-0.594534 -0.717687,-0.835978 -0.473408,-1.303256 0.271773,-0.519871 1.121413,-1.182698 2.20982,-1.723939 2.422144,-1.204479 5.730211,-1.993959 10.026026,-2.392741 1.808193,-0.167855 6.383349,-0.168296 8.199817,-7.91e-4 5.026435,0.463513 9.003431,1.547695 11.153138,3.040495 0.483981,0.336086 1.106032,0.965292 1.178894,1.192456 0.367915,1.147045 -2.438761,2.815653 -6.3569,3.779264 -2.706938,0.665735 -4.966343,0.959396 -8.025087,1.043044 -2.131286,0.05829 -3.864543,0.06524 -4.829552,0.01938 z"
   id="path3955" /><path
   style="opacity:0.149206;fill:#006633;fill-opacity:1;stroke:#006633;stroke-width:0.103687;stroke-miterlimit:4;stroke-dasharray:none;stroke-opacity:1"
   d="M 24.965222,46.971836 C 18.80941,46.569971 13.791228,45.204618 11.745229,43.374924 11.064137,42.765837 11.070532,42.794904 11.068756,40.300097 l -0.0016,-2.144168 0.557937,0.305382 c 2.580099,1.412192 6.849361,2.478965 11.394333,2.847131 1.425246,0.115453 4.692545,0.209726 5.634203,0.162567 l 0.878127,-0.04397 0.04978,0.577379 c 0.122687,1.422807 0.519163,2.810696 1.180208,4.131385 l 0.367782,0.734784 -0.424203,0.03664 c -0.52906,0.0457 -5.220861,0.09851 -5.740185,0.06461 z"
   id="path5289" /><path
   style="opacity:0.149206;fill:#006633;fill-opacity:1;stroke:#006633;stroke-width:0.103687;stroke-miterlimit:4;stroke-dasharray:none;stroke-opacity:1"
   d="M 24.791497,37.823737 C 18.992392,37.51933 13.462929,35.977884 11.63489,34.156075 c -0.574718,-0.572762 -0.56766,-0.535992 -0.56766,-2.957304 0,-1.177042 0.02345,-2.128295 0.05212,-2.113896 2.068691,1.039171 3.516575,1.593862 5.402844,2.069857 2.73077,0.689103 5.340353,1.024037 9.017071,1.157322 2.950008,0.10694 6.524129,-0.03839 8.737615,-0.355287 0.248427,-0.03557 0.481249,-0.06528 0.517383,-0.06603 0.03613,-7.5e-4 -0.190558,0.172116 -0.503759,0.384146 -1.074872,0.727663 -2.288795,1.989371 -3.036192,3.155709 -0.323043,0.504121 -0.911876,1.684375 -1.022316,2.049125 -0.05309,0.175339 -0.137976,0.288996 -0.246268,0.329737 -0.149501,0.05625 -4.183511,0.06733 -5.194229,0.01429 z"
   id="path5328" /><path
   style="opacity:0.149206;fill:#006633;fill-opacity:1;stroke:#006633;stroke-width:0.103687;stroke-miterlimit:4;stroke-dasharray:none;stroke-opacity:1"
   d="m 24.895733,28.723179 c -5.91112,-0.3367 -10.859877,-1.676717 -13.111259,-3.550247 -0.692843,-0.576563 -0.671576,-0.48556 -0.705144,-3.017301 l -0.02932,-2.211962 1.068336,0.523505 c 2.727351,1.336455 6.206487,2.182095 10.692696,2.598973 1.63379,0.151819 7.45393,0.175208 9.033695,0.03631 4.896816,-0.430561 8.491048,-1.29816 11.309491,-2.729955 l 0.851252,-0.432445 v 2.179319 2.179319 l -0.197357,0.307937 c -1.028015,1.604019 -5.171827,3.13631 -10.295627,3.807096 -2.352691,0.308005 -6.210158,0.44654 -8.616756,0.309459 z"
   id="path5367" /><path
   style="opacity:0.974603;fill:#006633;fill-opacity:1;stroke:#006633;stroke-width:0.118421;stroke-miterlimit:4;stroke-dasharray:none;stroke-opacity:1"
   d=""
   id="path5406" /><rect
   style="opacity:0.974603;fill:#006633;fill-opacity:1;stroke:#006633;stroke-width:1.37761;stroke-miterlimit:4;stroke-dasharray:none;stroke-opacity:1"
   id="rect5985"
   width="1.2017728"
   height="1.9646606"
   x="8.9837523"
   y="36.159313" /><path
   style="opacity:0.149206;fill:#006633;fill-opacity:1;stroke:#006633;stroke-width:0.103687;stroke-miterlimit:4;stroke-dasharray:none;stroke-opacity:1"
   d="m 43.275828,30.710884 c -0.382195,-0.110115 -1.00045,-0.236134 -1.3739,-0.280044 l -0.679,-0.07984 0.574765,-0.228904 c 0.316121,-0.125896 0.942193,-0.412754 1.391272,-0.63746 l 0.816507,-0.408555 v 0.925314 c 0,0.508923 -0.0079,0.9218 -0.01738,0.917504 -0.0096,-0.0043 -0.330077,-0.0979 -0.712271,-0.208021 z"
   id="path6104" /></g>
<g
   id="g2251">
</g>
<g
   id="g2253">
</g>
<g
   id="g2255">
</g>
<g
   id="g2257">
</g>
<g
   id="g2259">
</g>
<g
   id="g2261">
</g>
<g
   id="g2263">
</g>
<g
   id="g2265">
</g>
<g
   id="g2267">
</g>
<g
   id="g2269">
</g>
<g
   id="g2271">
</g>
<g
   id="g2273">
</g>
<g
   id="g2275">
</g>
<g
   id="g2277">
</g>
<g
   id="g2279">
</g>
</svg>
