<?xml version="1.0" encoding="UTF-8" standalone="no"?>
<svg
   xmlns:dc="http://purl.org/dc/elements/1.1/"
   xmlns:cc="http://creativecommons.org/ns#"
   xmlns:rdf="http://www.w3.org/1999/02/22-rdf-syntax-ns#"
   xmlns:svg="http://www.w3.org/2000/svg"
   xmlns="http://www.w3.org/2000/svg"
   xmlns:sodipodi="http://sodipodi.sourceforge.net/DTD/sodipodi-0.dtd"
   xmlns:inkscape="http://www.inkscape.org/namespaces/inkscape"
   version="1.1"
   width="24"
   height="24"
   viewBox="0 0 24 24"
   id="svg845"
   sodipodi:docname="news2.svg"
   inkscape:version="1.0.2-2 (e86c870879, 2021-01-15)">
  <metadata
     id="metadata851">
    <rdf:RDF>
      <cc:Work
         rdf:about="">
        <dc:format>image/svg+xml</dc:format>
        <dc:type
           rdf:resource="http://purl.org/dc/dcmitype/StillImage" />
        <dc:title></dc:title>
      </cc:Work>
    </rdf:RDF>
  </metadata>
  <defs
     id="defs849" />
  <sodipodi:namedview
     pagecolor="#ffffff"
     bordercolor="#666666"
     borderopacity="1"
     objecttolerance="10"
     gridtolerance="10"
     guidetolerance="10"
     inkscape:pageopacity="0"
     inkscape:pageshadow="2"
     inkscape:window-width="1485"
     inkscape:window-height="757"
     id="namedview847"
     showgrid="false"
     inkscape:zoom="23.896073"
     inkscape:cx="12.796413"
     inkscape:cy="12"
     inkscape:window-x="178"
     inkscape:window-y="33"
     inkscape:window-maximized="0"
     inkscape:current-layer="svg845" />
  <path
     fill="#000000"
     d="m 4,7 v 12 h 15 v 2 H 4 C 2,21 2,19 2,19 V 7 H 4 M 21,5 V 15 H 8 V 5 H 21 M 21.3,3 H 7.7 C 6.76,3 6,3.7 6,4.55 v 10.9 C 6,16.31 6.76,17 7.7,17 H 21.3 C 22.24,17 23,16.31 23,15.45 V 4.55 C 23,3.7 22.24,3 21.3,3"
     id="path843"
     style="fill:#006633;fill-opacity:1"
     sodipodi:nodetypes="ccccscccccccccsssssssc" />
  <rect
     style="opacity:0.15;fill:#006633;fill-opacity:1;stroke:#006633;stroke-width:0"
     id="rect855"
     width="2.7201123"
     height="4.6032667"
     x="9.4157724"
     y="6.3190298" />
  <rect
     style="opacity:0.15;fill:#006633;fill-opacity:1;stroke:#006633;stroke-width:0"
     id="rect857"
     width="5.9842472"
     height="1.8831549"
     x="13.391322"
     y="6.2771821" />
  <rect
     style="opacity:0.15;fill:#006633;fill-opacity:1;stroke:#006633;stroke-width:0"
     id="rect859"
     width="6.0679426"
     height="1.7157632"
     x="13.391321"
     y="9.0809898" />
  <rect
     style="opacity:0.15;fill:#006633;fill-opacity:1;stroke:#006633;stroke-width:0"
     id="rect861"
     width="10.25273"
     height="1.6739153"
     x="9.3739252"
     y="11.926646" />
</svg>
