<?xml version="1.0" encoding="UTF-8" standalone="no"?>
<svg
   version="1.1"
   width="24"
   height="24"
   viewBox="0 0 24 24"
   id="svg826"
   sodipodi:docname="OPEN.svg"
   inkscape:version="1.1-dev (9017afb, 2021-01-01)"
   xmlns:inkscape="http://www.inkscape.org/namespaces/inkscape"
   xmlns:sodipodi="http://sodipodi.sourceforge.net/DTD/sodipodi-0.dtd"
   xmlns="http://www.w3.org/2000/svg"
   xmlns:svg="http://www.w3.org/2000/svg">
  <defs
     id="defs830" />
  <sodipodi:namedview
     id="namedview828"
     pagecolor="#ffffff"
     bordercolor="#666666"
     borderopacity="1.0"
     objecttolerance="10.0"
     gridtolerance="10.0"
     guidetolerance="10.0"
     inkscape:pageshadow="2"
     inkscape:pageopacity="0.0"
     inkscape:pagecheckerboard="0"
     showgrid="false"
     inkscape:zoom="30.083333"
     inkscape:cx="12.01662"
     inkscape:cy="11.98338"
     inkscape:window-width="1312"
     inkscape:window-height="1003"
     inkscape:window-x="763"
     inkscape:window-y="115"
     inkscape:window-maximized="0"
     inkscape:current-layer="svg826" />
  <path
     fill="#006633"
     d="M 6.221361,10 4.2464851,17.601108 V 8.099723 H 20.233575 A 1.8808342,1.9002771 0 0 0 18.352741,6.1994459 H 11.769822 L 9.888987,4.299169 H 4.2464851 A 1.8808342,1.9002771 0 0 0 2.365651,6.1994459 V 17.601108 a 1.8808342,1.9002771 0 0 0 1.8808341,1.900277 H 18.352741 c 0.846376,0 1.598709,-0.570083 1.786792,-1.425208 L 22.302493,10 H 6.221361 m 12.13138,7.601108 H 6.1273193 L 7.6319867,11.900277 H 19.857408 Z"
     id="path824"
     style="stroke-width:0.945265" />
  <rect
     style="opacity:1;fill:#ffffff;fill-opacity:1;stroke:none;stroke-width:0.588332;stroke-opacity:1"
     id="rect2546"
     width="4.6869807"
     height="1.1634349"
     x="4.5207753"
     y="5.3518009" />
  <path
     style="opacity:0.15434084;fill:#006633;fill-opacity:1;stroke:none;stroke-width:0.0246245;stroke-opacity:1"
     d="m 6.1497356,17.592798 c 6.044e-4,-0.03324 1.4925198,-5.650566 1.5037184,-5.661764 0.00787,-0.0079 2.750704,-0.01054 6.095181,-0.0059 l 6.080866,0.0084 -0.747471,2.833795 -0.74747,2.833795 h -6.092488 c -3.3508681,0 -6.0924195,-0.0037 -6.0923364,-0.0083 z"
     id="path6329" />
</svg>
