<svg width="24px" height="24px" viewBox="0 0 24 24" fill="none" xmlns="http://www.w3.org/2000/svg">
<path d="M10 4C10 3.44772 10.4477 3 11 3H13C13.5523 3 14 3.44772 14 4V4.56879C14 4.99659 14.2871 5.36825 14.6822 5.53228C15.0775 5.69638 15.5377 5.63384 15.8403 5.33123L16.2426 4.92891C16.6331 4.53838 17.2663 4.53838 17.6568 4.92891L19.071 6.34312C19.4616 6.73365 19.4616 7.36681 19.071 7.75734L18.6688 8.1596C18.3661 8.46223 18.3036 8.92247 18.4677 9.31774C18.6317 9.71287 19.0034 10 19.4313 10L20 10C20.5523 10 21 10.4477 21 11V13C21 13.5523 20.5523 14 20 14H19.4312C19.0034 14 18.6318 14.2871 18.4677 14.6822C18.3036 15.0775 18.3661 15.5377 18.6688 15.8403L19.071 16.2426C19.4616 16.6331 19.4616 17.2663 19.071 17.6568L17.6568 19.071C17.2663 19.4616 16.6331 19.4616 16.2426 19.071L15.8403 18.6688C15.5377 18.3661 15.0775 18.3036 14.6822 18.4677C14.2871 18.6317 14 19.0034 14 19.4312V20C14 20.5523 13.5523 21 13 21H11C10.4477 21 10 20.5523 10 20V19.4313C10 19.0034 9.71287 18.6317 9.31774 18.4677C8.92247 18.3036 8.46223 18.3661 8.1596 18.6688L7.75732 19.071C7.36679 19.4616 6.73363 19.4616 6.34311 19.071L4.92889 17.6568C4.53837 17.2663 4.53837 16.6331 4.92889 16.2426L5.33123 15.8403C5.63384 15.5377 5.69638 15.0775 5.53228 14.6822C5.36825 14.2871 4.99659 14 4.56879 14H4C3.44772 14 3 13.5523 3 13V11C3 10.4477 3.44772 10 4 10L4.56877 10C4.99658 10 5.36825 9.71288 5.53229 9.31776C5.6964 8.9225 5.63386 8.46229 5.33123 8.15966L4.92891 7.75734C4.53838 7.36681 4.53838 6.73365 4.92891 6.34313L6.34312 4.92891C6.73365 4.53839 7.36681 4.53839 7.75734 4.92891L8.15966 5.33123C8.46228 5.63386 8.9225 5.6964 9.31776 5.53229C9.71288 5.36825 10 4.99658 10 4.56876V4Z" stroke="#000000" stroke-width="1.5"/>
<path d="M14 12C14 13.1046 13.1046 14 12 14C10.8954 14 10 13.1046 10 12C10 10.8954 10.8954 10 12 10C13.1046 10 14 10.8954 14 12Z" stroke="#000000" stroke-width="1.5"/>
</svg>
