<?xml version="1.0" encoding="iso-8859-1"?>
<!-- Generator: Adobe Illustrator 19.0.0, SVG Export Plug-In . SVG Version: 6.00 Build 0)  -->
<svg version="1.1" id="Layer_1" xmlns="http://www.w3.org/2000/svg" xmlns:xlink="http://www.w3.org/1999/xlink" x="0px" y="0px"
	 viewBox="0 0 500.685 500.685" style="enable-background:new 0 0 500.685 500.685;" xml:space="preserve">
<path style="fill:#E6D8CC;" d="M61.209,290.552c-2.133,0-4.267-1.067-6.4-2.133l-51.2-46.933c-3.2-2.133-4.267-6.4-3.2-9.6
	c1.067-3.2,3.2-6.4,6.4-7.467l163.2-53.333c3.2-1.067,6.4,0,8.533,1.067c2.133,2.133,4.267,5.333,4.267,8.533v53.333
	c0,5.333-4.267,10.667-9.6,10.667c-5.333,0-9.6-4.267-9.6-10.667v-39.467l-134.4,43.733l38.4,34.133
	c4.267,3.2,4.267,10.667,1.067,14.933C66.543,289.485,63.343,290.552,61.209,290.552z"/>
<polygon style="fill:#2C4656;" points="142.276,467.618 163.609,500.685 220.143,467.618 178.543,450.552 "/>
<path style="fill:#3A5569;" d="M142.276,467.618c0,0-173.867-52.267-129.067-145.067s134.4-19.2,134.4-19.2l30.933,128l-19.2,28.8
	L142.276,467.618z"/>
<path style="fill:#637888;" d="M52.676,280.952l326.4-114.133c0,0,78.933-5.333,80,154.667l-300.8,138.667
	C158.276,460.152,145.476,248.952,52.676,280.952z"/>
<polygon style="fill:#3A5569;" points="158.276,460.152 194.543,487.885 500.676,338.552 459.076,321.485 "/>
<path style="fill:#E6D8CC;" d="M184.943,432.418c-4.267,0-7.467-2.133-8.533-6.4c-2.133-5.333,0-11.733,5.333-13.867l21.333-9.6
	l-16-256l-107.733-60.8c-3.2-2.133-5.333-5.333-5.333-9.6s3.2-7.467,6.4-8.533l190.933-67.2c3.2-1.067,6.4,0,9.6,2.133
	c2.133,2.133,4.267,5.333,3.2,9.6l-13.867,107.733l121.6,202.667l17.067-9.6c4.267-3.2,10.667-1.067,13.867,4.267
	c2.133,5.333,1.067,11.733-4.267,13.867l-24.533,13.867c-4.267,2.133-10.667,1.067-12.8-3.2l-128-214.4
	c-3.2-2.133-3.2-5.333-3.2-7.467l12.8-94.933l-154.667,54.4l91.733,53.333c3.2,2.133,5.333,5.333,5.333,8.533l17.067,268.8
	c0,4.267-2.133,8.533-6.4,9.6l-26.667,11.733C188.143,432.418,186.009,432.418,184.943,432.418z"/>
<g>
</g>
<g>
</g>
<g>
</g>
<g>
</g>
<g>
</g>
<g>
</g>
<g>
</g>
<g>
</g>
<g>
</g>
<g>
</g>
<g>
</g>
<g>
</g>
<g>
</g>
<g>
</g>
<g>
</g>
</svg>
