<svg width="64px" height="64px" viewBox="0 0 64 64" xmlns="http://www.w3.org/2000/svg">
  <g fill="none" fill-rule="evenodd">
    <path fill="#4796E7" d="M22.2961061,22.6064668 L18,21.4553287 L20.0705524,13.7279221 L24.3666584,14.8790602 C25.2987684,13.1099274 26.532331,11.4830474 28.0445592,10.0834629 L25.8215427,6.23308548 L32.749746,2.23308548 L34.9727624,6.08346287 C36.9409522,5.47362711 38.966653,5.21877055 40.9648219,5.29610607 L42.11596,1 L49.8433667,3.07055236 L48.6922285,7.36665843 C50.4613613,8.29876837 52.0882413,9.532331 53.4878258,11.0445592 L57.3382032,8.82154274 L61.3382032,15.749746 L57.4878258,17.9727624 C58.0976616,19.9409522 58.3525182,21.966653 58.2751826,23.9648219 L62.5712887,25.11596 L60.5007364,32.8433667 L56.2046303,31.6922285 C55.2725203,33.4613613 54.0389577,35.0882413 52.5267295,36.4878258 L54.749746,40.3382032 L47.8215427,44.3382032 L45.5985263,40.4878258 C43.6303365,41.0976616 41.6046358,41.3525182 39.6064668,41.2751826 L38.4553287,45.5712887 L30.7279221,43.5007364 L31.8790602,39.2046303 C30.1099274,38.2725203 28.4830474,37.0389577 27.0834629,35.5267295 L23.2330855,37.749746 L19.2330855,30.8215427 L23.0834629,28.5985263 C22.4736271,26.6303365 22.2187706,24.6046358 22.2961061,22.6064668 Z M43.2856444,28.4817968 C46.1554001,26.8249425 47.138651,23.1554001 45.4817968,20.2856444 C43.8249425,17.4158886 40.1554001,16.4326377 37.2856444,18.0894919 C34.4158886,19.7463462 33.4326377,23.4158886 35.0894919,26.2856444 C36.7463462,29.1554001 40.4158886,30.138651 43.2856444,28.4817968 Z"/>
    <path fill="#595959" d="M6.262792,48.9140329 L3.37117307,48.139226 L4.76481846,42.9380706 L7.65643738,43.7128775 C8.28382104,42.5221113 9.11410618,41.4270925 10.1319553,40.4850615 L8.63568951,37.8934532 L13.2989179,35.2011371 L14.7951836,37.7927454 C16.1199309,37.3822777 17.4833876,37.2107391 18.8283132,37.262792 L19.6031202,34.3711731 L24.8042756,35.7648185 L24.0294686,38.6564374 C25.2202348,39.283821 26.3152537,40.1141062 27.2572846,41.1319553 L29.8488929,39.6356895 L32.5412091,44.2989179 L29.9496008,45.7951836 C30.3600685,47.1199309 30.5316071,48.4833876 30.4795541,49.8283132 L33.3711731,50.6031202 L31.9775277,55.8042756 L29.0859088,55.0294686 C28.4585251,56.2202348 27.62824,57.3152537 26.6103909,58.2572846 L28.1066566,60.8488929 L23.4434283,63.5412091 L21.9471625,60.9496008 C20.6224152,61.3600685 19.2589585,61.5316071 17.9140329,61.4795541 L17.139226,64.3711731 L11.9380706,62.9775277 L12.7128775,60.0859088 C11.5221113,59.4585251 10.4270925,58.62824 9.48506149,57.6103909 L6.89345319,59.1066566 L4.20113705,54.4434283 L6.79274535,52.9471625 C6.38227769,51.6224152 6.21073908,50.2589585 6.262792,48.9140329 Z M20.3904102,52.8685943 C22.3219826,51.7534005 22.9837882,49.2835084 21.8685943,47.351936 C20.7534005,45.4203635 18.2835084,44.758558 16.351936,45.8737518 C14.4203635,46.9889457 13.758558,49.4588378 14.8737518,51.3904102 C15.9889457,53.3219826 18.4588378,53.9837882 20.3904102,52.8685943 Z" transform="rotate(-15 18.371 49.371)"/>
  </g>
</svg>
