<?xml version="1.0" encoding="iso-8859-1"?>
<!-- Generator: Adobe Illustrator 19.0.0, SVG Export Plug-In . SVG Version: 6.00 Build 0)  -->
<svg version="1.1" id="Layer_1" xmlns="http://www.w3.org/2000/svg" xmlns:xlink="http://www.w3.org/1999/xlink" x="0px" y="0px"
	 viewBox="0 0 489.6 489.6" style="enable-background:new 0 0 489.6 489.6;" xml:space="preserve">
<g>
	<g>
		<g id="XMLID_1179_">
			<path id="XMLID_1180_" style="fill:#A7A9AC;" d="M290.8,240.4c-61.4,25.4-131.7-3.8-157.1-65.1s3.7-131.7,65.1-157.1
				S330.5,22,355.9,83.3S352.2,215,290.8,240.4z"/>
		</g>
		<circle id="XMLID_1323_" style="fill:#3C92CA;" cx="244.8" cy="435.4" r="45"/>
		<path d="M422,382v-58c0-5-4.1-9.1-9.1-9.1h-159v-54.1c0-0.9-0.2-1.7-0.4-2.5c14-0.9,27.7-4.1,40.8-9.5
			c65.9-27.3,97.3-103.1,70-168.9C344.2,31.4,297.3,0,244.8,0c-17,0-33.6,3.3-49.4,9.9c-31.9,13.2-56.8,38.1-70,70s-13.2,67.1,0,99
			c19,45.8,61.9,76.3,110.8,79.6c-0.2,0.8-0.4,1.6-0.4,2.5v54.1h-159c-5,0-9.1,4.1-9.1,9.1v58c-25.8,4.1-45.5,26.5-45.5,53.4
			c0,29.8,24.2,54,54,54s54-24.2,54-54c0-26.5-19.2-48.6-44.4-53.2v-49.1h150v49c-25.5,4.3-45,26.6-45,53.3c0,29.8,24.2,54,54,54
			c29.8,0,54-24.2,54-54c0-26.7-19.5-48.9-45-53.3v-49h150v49.1c-25.2,4.5-44.4,26.7-44.4,53.2c0,29.8,24.2,54,54,54s54-24.2,54-54
			C467.5,408.5,447.7,386.1,422,382z M139.9,166.2c-8.5-24-8.5-49.8,0-73.8h31.6c-2.3,12-3.5,24.4-3.5,36.7
			c0,11.4,1.6,24.2,4.5,37.1L139.9,166.2L139.9,166.2z M186.1,129.1c0-12.6,1.4-25,3.9-36.7h45.7v73.8h-44.8
			C187.9,153.7,186.1,141,186.1,129.1z M349.7,92.4c8.7,24.7,8.1,50.6-0.1,73.8h-31.2c2.9-12.9,4.5-25.7,4.5-37.1
			c0-12.3-1.2-24.7-3.5-36.7C319.4,92.4,349.7,92.4,349.7,92.4z M304.8,129.1c0,11.9-1.8,24.7-4.8,37.1h-46.1V92.4h47
			C303.4,104.1,304.8,116.5,304.8,129.1z M253.9,238.1v-53.8h40.5C284.9,210.3,270,232.2,253.9,238.1z M253.9,74.3V19.9
			c17,5.4,32.7,26.6,42,54.4H253.9z M235.7,20.4v53.9H195C204.1,47.2,219.2,26.4,235.7,20.4z M235.7,184.3v53.2
			c-15.7-6.5-30.1-27.9-39.3-53.2H235.7z M290.3,230.7c9.8-12.9,17.6-29.3,23.2-46.4h27.9C330,204.2,312.6,220.7,290.3,230.7z
			 M341.4,74.3h-26.5c-3.4-11.5-7.8-22.4-13.2-32c-2.6-4.7-5.4-9-8.3-13C313.4,38.9,330.2,54.5,341.4,74.3z M198,28.5
			c-3.1,4.2-6.1,8.8-8.8,13.8c-5.4,9.7-9.8,20.5-13.2,32h-27.7C159.6,54.2,176.8,38.3,198,28.5z M148.2,184.3h29.2
			c5.7,17.5,13.8,34.3,23.9,47.4C179.2,222.3,160.4,205.8,148.2,184.3z M112.1,435.4c0,19.8-16.1,35.9-35.9,35.9
			s-35.9-16.1-35.9-35.9s16.1-35.9,35.9-35.9S112.1,415.6,112.1,435.4z M280.7,435.4c0,19.8-16.1,35.9-35.9,35.9
			s-35.9-16.1-35.9-35.9s16.1-35.9,35.9-35.9S280.7,415.6,280.7,435.4z M413.4,471.3c-19.8,0-35.9-16.1-35.9-35.9
			s16.1-35.9,35.9-35.9s35.9,16.1,35.9,35.9C449.4,455.2,433.2,471.3,413.4,471.3z"/>
	</g>
</g>
<g>
</g>
<g>
</g>
<g>
</g>
<g>
</g>
<g>
</g>
<g>
</g>
<g>
</g>
<g>
</g>
<g>
</g>
<g>
</g>
<g>
</g>
<g>
</g>
<g>
</g>
<g>
</g>
<g>
</g>
</svg>
