<?xml version="1.0" encoding="iso-8859-1"?>
<!-- Generator: Adobe Illustrator 19.0.0, SVG Export Plug-In . SVG Version: 6.00 Build 0)  -->
<svg version="1.1" id="Layer_1" xmlns="http://www.w3.org/2000/svg" xmlns:xlink="http://www.w3.org/1999/xlink" x="0px" y="0px"
	 viewBox="0 0 385.549 385.549" style="enable-background:new 0 0 385.549 385.549;" xml:space="preserve">
<g>
	<polygon style="fill:#EB7830;" points="71.546,297.68 131.625,261.127 191.693,297.186 191.693,369.798 	"/>
	<polygon style="fill:#EB7830;" points="131.629,261.12 191.694,224.569 251.758,261.134 191.692,297.186 	"/>
	<polygon style="fill:#EB7830;" points="191.693,297.186 251.751,261.127 311.83,297.68 191.693,369.798 	"/>
	<polygon style="fill:#F5C525;" points="255.719,263.534 256.613,258.194 256.613,185.597 312.643,151.949 312.643,298.179 	"/>
	<polygon style="fill:#F5C525;" points="191.693,151.953 191.693,79.341 312.644,151.953 252.173,188.266 	"/>
	<polygon style="fill:#F5C525;" points="191.693,224.572 191.693,151.95 252.171,188.266 256.613,190.961 256.613,263.549 	"/>
	<polygon style="fill:#3E81C8;" points="126.773,190.961 131.183,188.285 191.693,151.949 191.693,224.572 126.773,263.549 	"/>
	<polygon style="fill:#3E81C8;" points="70.742,151.953 191.693,79.341 191.693,151.953 131.213,188.266 	"/>
	<polygon style="fill:#3E81C8;" points="70.743,151.949 126.773,185.597 126.773,258.214 127.66,263.549 123.042,266.339 
		70.743,298.169 	"/>
	<g>
		<path style="fill:#231F20;" d="M385.273,334.214l-10.07-37.58c-1.14-4.27-5.52-6.8-9.8-5.66c-4.26,1.14-6.8,5.53-5.65,9.8
			l5.35,19.97l-44.46-27.06v-141.73c0-1.4-0.37-2.76-1.04-3.94c-0.67-1.18-1.63-2.2-2.84-2.92l-117.07-70.28v-39.75l13.86,13.85
			c1.56,1.56,3.6,2.34,5.65,2.34c2.05,0,4.1-0.78,5.66-2.34c3.12-3.12,3.12-8.19,0-11.31l-27.51-27.51
			c-1.56-1.57-3.61-2.35-5.66-2.35s-4.09,0.78-5.66,2.35l-27.51,27.51c-3.12,3.12-3.12,8.19,0,11.31c1.56,1.56,3.61,2.34,5.66,2.34
			s4.09-0.78,5.65-2.34l13.86-13.85v39.75l-117.07,70.28c-2.3,1.38-3.73,3.81-3.86,6.47c-0.01,0.11-0.02,0.23-0.02,0.36v141.75
			l-41.87,25.47l4.92-18.37c1.15-4.27-1.39-8.66-5.65-9.8c-4.27-1.14-8.66,1.39-9.8,5.66l-10.07,37.58
			c-1.1,4.11,1.22,8.33,5.21,9.65c0.13,0.05,0.28,0.1,0.45,0.15l37.58,10.07c0.69,0.18,1.39,0.27,2.07,0.27
			c3.53,0,6.77-2.36,7.73-5.93c1.14-4.27-1.39-8.66-5.66-9.8l-19.45-5.21l43.37-26.39l116,69.64c1.27,0.76,2.69,1.14,4.12,1.14
			s2.85-0.38,4.12-1.14l115.98-69.63l44.03,26.79l-17.93,4.8c-4.27,1.14-6.8,5.53-5.66,9.8c0.96,3.57,4.19,5.93,7.73,5.93
			c0.68,0,1.38-0.09,2.07-0.27l37.58-10.07c0.21-0.06,0.37-0.11,0.53-0.17C384.083,342.494,386.373,338.304,385.273,334.214z
			 M199.693,93.474l97.41,58.48l-44.93,26.98l-52.48-31.51L199.693,93.474L199.693,93.474z M199.693,166.084l48.36,29.04l0.56,0.34
			v53.95l-48.92-29.37V166.084z M183.693,93.474v53.95l-52.48,31.51l-44.93-26.98L183.693,93.474z M183.693,166.084v53.96
			l-48.92,29.37v-53.95l0.56-0.34L183.693,166.084z M78.743,166.084l40.03,24.04v68.09c0,0.44,0.04,0.87,0.11,1.29l-40.14,24.43
			V166.084z M183.693,355.665l-96.68-58.03l44.64-27.16l52.04,31.24V355.665z M191.693,287.854l-44.6-26.78l44.6-27.14l44.6,27.15
			L191.693,287.854z M199.693,355.665v-53.95l52.03-31.24l44.64,27.16L199.693,355.665z M304.643,283.944l-40.14-24.43
			c0.07-0.42,0.11-0.86,0.11-1.3v-68.09l40.03-24.04L304.643,283.944L304.643,283.944z"/>
	</g>
</g>
<g>
</g>
<g>
</g>
<g>
</g>
<g>
</g>
<g>
</g>
<g>
</g>
<g>
</g>
<g>
</g>
<g>
</g>
<g>
</g>
<g>
</g>
<g>
</g>
<g>
</g>
<g>
</g>
<g>
</g>
</svg>
