<?xml version="1.0" encoding="iso-8859-1"?>
<!-- Generator: Adobe Illustrator 19.0.0, SVG Export Plug-In . SVG Version: 6.00 Build 0)  -->
<svg version="1.1" id="Layer_1" xmlns="http://www.w3.org/2000/svg" xmlns:xlink="http://www.w3.org/1999/xlink" x="0px" y="0px"
	 viewBox="0 0 392.406 392.406" style="enable-background:new 0 0 392.406 392.406;" xml:space="preserve">
<path style="fill:#FFC10D;" d="M186.44,212.429h19.717l6.788-18.747c1.164-3.103,3.62-5.56,6.788-6.659
	c3.168-1.099,6.335-2.392,9.438-3.943c3.038-1.487,6.465-1.552,9.503-0.129l18.101,8.404l13.899-13.899l-8.404-18.101
	c-1.422-3.038-1.422-6.465,0.129-9.503c1.551-3.103,2.844-6.335,3.943-9.438c1.099-3.168,3.491-5.624,6.659-6.788l18.747-6.788
	V107.12l-18.747-6.788c-3.103-1.164-5.56-3.62-6.659-6.788c-1.099-3.103-2.392-6.335-3.943-9.438
	c-1.487-3.038-1.552-6.465-0.129-9.503l8.404-18.101l-13.899-13.899l-18.101,8.404c-3.038,1.422-6.465,1.422-9.503-0.129
	c-3.103-1.552-6.335-2.844-9.438-3.943c-3.168-1.099-5.624-3.491-6.788-6.659l-6.788-18.747H186.44l-6.788,18.747
	c-1.164,3.168-3.62,5.56-6.788,6.659c-3.103,1.034-6.271,2.392-9.438,3.943c-3.038,1.487-6.465,1.552-9.503,0.129l-18.101-8.404
	l-13.899,13.899l8.404,18.101c1.422,3.038,1.422,6.465-0.129,9.503c-1.552,3.168-2.844,6.335-3.943,9.438
	c-1.099,3.168-3.491,5.624-6.659,6.788l-18.747,6.788v19.717l18.747,6.788c3.103,1.164,5.56,3.62,6.659,6.788
	c1.099,3.103,2.392,6.335,3.943,9.438c1.487,3.038,1.552,6.465,0.129,9.503l-8.404,18.101l13.899,13.899l18.101-8.404
	c3.038-1.422,6.465-1.422,9.503,0.129c3.168,1.551,6.335,2.844,9.438,3.943c3.168,1.099,5.624,3.491,6.788,6.659L186.44,212.429z"/>
<g>
	<path style="fill:#56ACE0;" d="M46.093,322.134c-13.382,0-24.242,10.925-24.242,24.242c0,13.382,10.925,24.242,24.242,24.242
		s24.242-10.925,24.242-24.242C70.4,333.06,59.475,322.134,46.093,322.134z"/>
	<path style="fill:#56ACE0;" d="M196.331,322.134c-13.382,0-24.242,10.925-24.242,24.242c0,13.382,10.925,24.242,24.242,24.242
		c13.317,0,24.242-10.925,24.242-24.242C220.574,333.06,209.713,322.134,196.331,322.134z"/>
	<path style="fill:#56ACE0;" d="M346.57,322.134c-13.382,0-24.242,10.925-24.242,24.242c0,13.382,10.925,24.242,24.242,24.242
		c13.382,0,24.242-10.925,24.242-24.242C370.812,333.06,359.887,322.134,346.57,322.134z"/>
</g>
<path style="fill:#194F82;" d="M357.43,301.771v-32.453c0-6.012-4.849-10.925-10.925-10.925H207.257V234.28h6.529
	c4.59,0,8.663-2.844,10.279-7.176l7.628-21.204c0.776-0.323,1.552-0.646,2.327-0.905l20.428,9.568
	c4.202,1.939,9.115,1.099,12.347-2.133l24.76-24.76c3.232-3.232,4.073-8.21,2.133-12.347l-9.568-20.428
	c0.323-0.776,0.646-1.552,0.905-2.327l21.204-7.628c4.331-1.552,7.176-5.624,7.176-10.279V99.556c0-4.59-2.844-8.663-7.176-10.279
	l-21.204-7.628c-0.323-0.776-0.646-1.552-0.905-2.327l9.568-20.428c1.939-4.202,1.099-9.115-2.133-12.347l-24.76-24.695
	c-3.232-3.232-8.21-4.073-12.347-2.133l-20.428,9.568c-0.776-0.323-1.552-0.646-2.327-0.905l-7.628-21.204
	c-1.552-4.331-5.624-7.176-10.279-7.176h-34.974c-4.59,0-8.663,2.844-10.279,7.176l-7.628,21.204
	c-0.776,0.323-1.551,0.646-2.327,0.905l-20.428-9.568c-4.202-1.939-9.115-1.099-12.347,2.133l-24.76,24.76
	c-3.232,3.232-4.073,8.21-2.133,12.347l9.568,20.428c-0.323,0.776-0.646,1.552-0.905,2.327l-21.204,7.628
	c-4.331,1.552-7.176,5.624-7.176,10.279v34.974c0,4.59,2.844,8.663,7.176,10.279l21.204,7.628c0.323,0.776,0.646,1.551,0.905,2.327
	l-9.503,20.299c-1.939,4.202-1.099,9.115,2.133,12.347l24.76,24.695c3.232,3.232,8.21,4.073,12.347,2.133l20.428-9.568
	c0.776,0.323,1.551,0.646,2.327,0.905l7.628,21.204c1.551,4.331,5.624,7.176,10.279,7.176h6.594v24.242H46.093
	c-6.012,0-10.925,4.848-10.925,10.925v32.388C14.998,306.619,0,324.785,0,346.377c0,25.406,20.622,46.028,46.028,46.028
	s46.028-20.622,46.028-46.028c0-21.657-14.998-39.822-35.168-44.671v-21.527h128.453v21.527
	c-20.17,4.913-35.168,23.014-35.168,44.671c0,25.406,20.622,46.028,46.028,46.028s46.028-20.622,46.028-46.028
	c0-21.657-14.998-39.822-35.168-44.671v-21.527h128.452v21.527c-20.17,4.913-35.168,23.014-35.168,44.671
	c0,25.406,20.622,46.028,46.028,46.028c25.406,0,46.028-20.622,46.028-46.028C392.598,324.785,377.6,306.619,357.43,301.771z
	 M46.093,370.684c-13.382,0-24.242-10.925-24.242-24.242c0-13.382,10.925-24.242,24.242-24.242s24.242,10.925,24.242,24.242
	C70.4,359.759,59.475,370.684,46.093,370.684z M196.331,370.684c-13.382,0-24.242-10.925-24.242-24.242
	c0-13.382,10.925-24.242,24.242-24.242c13.382,0,24.242,10.925,24.242,24.242S209.713,370.684,196.331,370.684z M172.929,187.088
	c-3.103-1.099-6.335-2.392-9.438-3.943c-3.038-1.487-6.465-1.552-9.503-0.129l-18.101,8.404l-13.899-13.899l8.404-18.101
	c1.422-3.038,1.422-6.465-0.129-9.503c-1.552-3.168-2.844-6.335-3.943-9.438c-1.099-3.168-3.491-5.624-6.659-6.788l-18.747-6.788
	v-19.717l18.747-6.788c3.103-1.164,5.56-3.62,6.659-6.788c1.099-3.103,2.392-6.335,3.943-9.438c1.487-3.038,1.552-6.465,0.129-9.503
	l-8.404-18.101l13.899-13.899l18.101,8.404c3.038,1.422,6.465,1.422,9.503-0.129c3.168-1.552,6.335-2.844,9.438-3.943
	c3.168-1.099,5.624-3.491,6.788-6.659l6.788-18.747h19.717l6.788,18.747c1.164,3.168,3.62,5.56,6.788,6.659
	c3.103,1.099,6.271,2.392,9.438,3.943c3.038,1.487,6.465,1.552,9.503,0.129l18.101-8.404l13.899,13.899l-8.404,18.101
	c-1.422,3.038-1.422,6.465,0.129,9.503c1.552,3.103,2.844,6.335,3.943,9.438c1.099,3.168,3.491,5.624,6.659,6.788l18.747,6.788
	v19.717l-18.747,6.788c-3.103,1.164-5.56,3.62-6.659,6.788c-1.099,3.103-2.392,6.335-3.943,9.438
	c-1.487,3.038-1.552,6.465-0.129,9.503l8.404,18.101l-13.899,13.899l-18.101-8.404c-3.038-1.422-6.465-1.422-9.503,0.129
	c-3.103,1.552-6.335,2.844-9.438,3.943c-3.168,1.099-5.624,3.491-6.788,6.659l-6.788,18.747h-19.717l-6.788-18.683
	C178.554,190.579,176.032,188.057,172.929,187.088z M346.57,370.684c-13.382,0-24.242-10.925-24.242-24.242
	c0-13.382,10.925-24.242,24.242-24.242c13.382,0,24.242,10.925,24.242,24.242S359.887,370.684,346.57,370.684z"/>
<path style="fill:#FFFFFF;" d="M196.331,85.528c-17.39,0-31.547,14.158-31.547,31.547s14.158,31.547,31.547,31.547
	s31.547-14.158,31.547-31.547S213.721,85.528,196.331,85.528z"/>
<path style="fill:#194F82;" d="M196.331,63.742c-29.414,0-53.398,23.984-53.398,53.398s23.984,53.398,53.398,53.398
	s53.398-23.984,53.398-53.398C249.729,87.662,225.745,63.742,196.331,63.742z M196.331,148.623
	c-17.39,0-31.547-14.158-31.547-31.547s14.158-31.547,31.547-31.547s31.547,14.158,31.547,31.547S213.721,148.623,196.331,148.623z"
	/>
<g>
</g>
<g>
</g>
<g>
</g>
<g>
</g>
<g>
</g>
<g>
</g>
<g>
</g>
<g>
</g>
<g>
</g>
<g>
</g>
<g>
</g>
<g>
</g>
<g>
</g>
<g>
</g>
<g>
</g>
</svg>
