<?xml version="1.0" encoding="UTF-8" standalone="no"?>
<svg
   xmlns:dc="http://purl.org/dc/elements/1.1/"
   xmlns:cc="http://creativecommons.org/ns#"
   xmlns:rdf="http://www.w3.org/1999/02/22-rdf-syntax-ns#"
   xmlns:svg="http://www.w3.org/2000/svg"
   xmlns="http://www.w3.org/2000/svg"
   xmlns:sodipodi="http://sodipodi.sourceforge.net/DTD/sodipodi-0.dtd"
   xmlns:inkscape="http://www.inkscape.org/namespaces/inkscape"
   version="1.1"
   id="Layer_1"
   x="0px"
   y="0px"
   viewBox="0 0 23.999999 23.999999"
   xml:space="preserve"
   sodipodi:docname="OTHERS.svg"
   width="24"
   height="24"
   inkscape:version="1.0.2-2 (e86c870879, 2021-01-15)"><metadata
   id="metadata15982"><rdf:RDF><cc:Work
       rdf:about=""><dc:format>image/svg+xml</dc:format><dc:type
         rdf:resource="http://purl.org/dc/dcmitype/StillImage" /><dc:title></dc:title></cc:Work></rdf:RDF></metadata><defs
   id="defs15980" /><sodipodi:namedview
   pagecolor="#ffffff"
   bordercolor="#666666"
   borderopacity="1"
   objecttolerance="10"
   gridtolerance="10"
   guidetolerance="10"
   inkscape:pageopacity="0"
   inkscape:pageshadow="2"
   inkscape:window-width="1975"
   inkscape:window-height="899"
   id="namedview15978"
   showgrid="true"
   inkscape:zoom="29.257465"
   inkscape:cx="13.854121"
   inkscape:cy="13.723838"
   inkscape:window-x="0"
   inkscape:window-y="0"
   inkscape:window-maximized="0"
   inkscape:current-layer="Layer_1"><inkscape:grid
     type="xygrid"
     id="grid16545" /></sodipodi:namedview>
<g
   id="g15945"
   transform="matrix(0.05946747,0,0,0.05946747,0.52444335,0.54049407)">
	<polygon
   style="fill:#eb7830"
   points="71.546,297.68 131.625,261.127 191.693,297.186 191.693,369.798 "
   id="polygon15923" />
	<polygon
   style="fill:#eb7830"
   points="131.629,261.12 191.694,224.569 251.758,261.134 191.692,297.186 "
   id="polygon15925" />
	<polygon
   style="fill:#eb7830"
   points="191.693,297.186 251.751,261.127 311.83,297.68 191.693,369.798 "
   id="polygon15927" />
	<polygon
   style="fill:#f5c525"
   points="312.643,151.949 312.643,298.179 255.719,263.534 256.613,258.194 256.613,185.597 "
   id="polygon15929" />
	<polygon
   style="fill:#f5c525"
   points="191.693,151.953 191.693,79.341 312.644,151.953 252.173,188.266 "
   id="polygon15931" />
	<polygon
   style="fill:#f5c525"
   points="256.613,190.961 256.613,263.549 191.693,224.572 191.693,151.95 252.171,188.266 "
   id="polygon15933" />
	<polygon
   style="fill:#3e81c8"
   points="191.693,224.572 126.773,263.549 126.773,190.961 131.183,188.285 191.693,151.949 "
   id="polygon15935" />
	<polygon
   style="fill:#3e81c8"
   points="70.742,151.953 191.693,79.341 191.693,151.953 131.213,188.266 "
   id="polygon15937" />
	<polygon
   style="fill:#3e81c8"
   points="123.042,266.339 70.743,298.169 70.743,151.949 126.773,185.597 126.773,258.214 127.66,263.549 "
   id="polygon15939" />
	<g
   id="g15943">
		<path
   style="fill:#194f82;fill-opacity:1"
   d="m 385.273,334.214 -10.07,-37.58 c -1.14,-4.27 -5.52,-6.8 -9.8,-5.66 -4.26,1.14 -6.8,5.53 -5.65,9.8 l 5.35,19.97 -44.46,-27.06 v -141.73 c 0,-1.4 -0.37,-2.76 -1.04,-3.94 -0.67,-1.18 -1.63,-2.2 -2.84,-2.92 l -117.07,-70.28 v -39.75 l 13.86,13.85 c 1.56,1.56 3.6,2.34 5.65,2.34 2.05,0 4.1,-0.78 5.66,-2.34 3.12,-3.12 3.12,-8.19 0,-11.31 l -27.51,-27.51 c -1.56,-1.57 -3.61,-2.35 -5.66,-2.35 -2.05,0 -4.09,0.78 -5.66,2.35 l -27.51,27.51 c -3.12,3.12 -3.12,8.19 0,11.31 1.56,1.56 3.61,2.34 5.66,2.34 2.05,0 4.09,-0.78 5.65,-2.34 l 13.86,-13.85 v 39.75 l -117.07,70.28 c -2.3,1.38 -3.73,3.81 -3.86,6.47 -0.01,0.11 -0.02,0.23 -0.02,0.36 v 141.75 l -41.87,25.47 4.92,-18.37 c 1.15,-4.27 -1.39,-8.66 -5.65,-9.8 -4.27,-1.14 -8.66,1.39 -9.8,5.66 l -10.07,37.58 c -1.1,4.11 1.22,8.33 5.21,9.65 0.13,0.05 0.28,0.1 0.45,0.15 l 37.58,10.07 c 0.69,0.18 1.39,0.27 2.07,0.27 3.53,0 6.77,-2.36 7.73,-5.93 1.14,-4.27 -1.39,-8.66 -5.66,-9.8 l -19.45,-5.21 43.37,-26.39 116,69.64 c 1.27,0.76 2.69,1.14 4.12,1.14 1.43,0 2.85,-0.38 4.12,-1.14 l 115.98,-69.63 44.03,26.79 -17.93,4.8 c -4.27,1.14 -6.8,5.53 -5.66,9.8 0.96,3.57 4.19,5.93 7.73,5.93 0.68,0 1.38,-0.09 2.07,-0.27 l 37.58,-10.07 c 0.21,-0.06 0.37,-0.11 0.53,-0.17 3.94,-1.35 6.23,-5.54 5.13,-9.63 z m -185.58,-240.74 97.41,58.48 -44.93,26.98 -52.48,-31.51 z m 0,72.61 48.36,29.04 0.56,0.34 v 53.95 l -48.92,-29.37 z m -16,-72.61 v 53.95 l -52.48,31.51 -44.93,-26.98 z m 0,72.61 v 53.96 l -48.92,29.37 v -53.95 l 0.56,-0.34 z m -104.95,0 40.03,24.04 v 68.09 c 0,0.44 0.04,0.87 0.11,1.29 l -40.14,24.43 z m 104.95,189.581 -96.68,-58.03 44.64,-27.16 52.04,31.24 z m 8,-67.811 -44.6,-26.78 44.6,-27.14 44.6,27.15 z m 8,67.811 v -53.95 l 52.03,-31.24 44.64,27.16 z m 104.95,-71.721 -40.14,-24.43 c 0.07,-0.42 0.11,-0.86 0.11,-1.3 v -68.09 l 40.03,-24.04 z"
   id="path15941" />
	</g>
</g>
<g
   id="g15947"
   transform="matrix(0.05946747,0,0,0.05946747,0.52444335,0.54049407)">
</g>
<g
   id="g15949"
   transform="matrix(0.05946747,0,0,0.05946747,0.52444335,0.54049407)">
</g>
<g
   id="g15951"
   transform="matrix(0.05946747,0,0,0.05946747,0.52444335,0.54049407)">
</g>
<g
   id="g15953"
   transform="matrix(0.05946747,0,0,0.05946747,0.52444335,0.54049407)">
</g>
<g
   id="g15955"
   transform="matrix(0.05946747,0,0,0.05946747,0.52444335,0.54049407)">
</g>
<g
   id="g15957"
   transform="matrix(0.05946747,0,0,0.05946747,0.52444335,0.54049407)">
</g>
<g
   id="g15959"
   transform="matrix(0.05946747,0,0,0.05946747,0.52444335,0.54049407)">
</g>
<g
   id="g15961"
   transform="matrix(0.05946747,0,0,0.05946747,0.52444335,0.54049407)">
</g>
<g
   id="g15963"
   transform="matrix(0.05946747,0,0,0.05946747,0.52444335,0.54049407)">
</g>
<g
   id="g15965"
   transform="matrix(0.05946747,0,0,0.05946747,0.52444335,0.54049407)">
</g>
<g
   id="g15967"
   transform="matrix(0.05946747,0,0,0.05946747,0.52444335,0.54049407)">
</g>
<g
   id="g15969"
   transform="matrix(0.05946747,0,0,0.05946747,0.52444335,0.54049407)">
</g>
<g
   id="g15971"
   transform="matrix(0.05946747,0,0,0.05946747,0.52444335,0.54049407)">
</g>
<g
   id="g15973"
   transform="matrix(0.05946747,0,0,0.05946747,0.52444335,0.54049407)">
</g>
<g
   id="g15975"
   transform="matrix(0.05946747,0,0,0.05946747,0.52444335,0.54049407)">
</g>
</svg>
