<?xml version="1.0" encoding="iso-8859-1"?>
<!-- Generator: Adobe Illustrator 19.0.0, SVG Export Plug-In . SVG Version: 6.00 Build 0)  -->
<svg version="1.1" id="Layer_1" xmlns="http://www.w3.org/2000/svg" xmlns:xlink="http://www.w3.org/1999/xlink" x="0px" y="0px"
	 viewBox="0 0 392.533 392.533" style="enable-background:new 0 0 392.533 392.533;" xml:space="preserve">
<path style="fill:#FFFFFF;" d="M196.267,79.483c-64.453,0-125.543,41.438-172.541,116.816
	c46.998,75.442,108.089,116.816,172.541,116.816s125.543-41.438,172.541-116.752C321.81,120.857,260.719,79.483,196.267,79.483z"/>
<path style="fill:#194F82;" d="M390.982,190.675C339.459,104.889,270.287,57.697,196.267,57.697S53.075,104.889,1.552,190.675
	c-2.069,3.491-2.069,7.822,0,11.184c51.523,85.786,120.695,132.978,194.715,132.978s143.192-47.192,194.715-132.978
	C393.051,198.432,393.051,194.166,390.982,190.675z M196.267,313.115c-64.453,0-125.543-41.438-172.541-116.752
	C70.723,120.857,131.814,79.483,196.267,79.483s125.543,41.374,172.541,116.816C321.81,271.741,260.719,313.115,196.267,313.115z"/>
<path style="fill:#FFC10D;" d="M196.267,113.875c-45.446,0-82.424,37.042-82.424,82.424s36.978,82.424,82.424,82.424
	s82.424-36.978,82.424-82.424S241.713,113.875,196.267,113.875z"/>
<g>
	<path style="fill:#194F82;" d="M196.267,92.089c-57.471,0-104.21,46.739-104.21,104.21s46.739,104.21,104.21,104.21
		s104.21-46.739,104.21-104.21S253.737,92.089,196.267,92.089z M196.267,278.723c-45.446,0-82.424-37.042-82.424-82.424
		s36.978-82.424,82.424-82.424s82.424,36.978,82.424,82.424S241.713,278.723,196.267,278.723z"/>
	<path style="fill:#194F82;" d="M196.267,158.804c7.37,0,13.382,5.947,13.382,13.382c0,6.012,4.848,10.925,10.925,10.925
		c6.012,0,10.925-4.848,10.925-10.925c0-15.515-10.214-28.832-24.242-33.358v-5.56c0-6.012-4.848-10.925-10.925-10.925
		s-10.925,4.848-10.925,10.925v5.56c-14.093,4.655-24.242,17.842-24.242,33.358c0,19.394,15.774,35.168,35.168,35.168
		c-0.259,0-0.065,0,0.065,0c6.723,0.711,13.317,6.271,13.317,13.188c0,7.24-5.883,13.123-13.059,13.317c-0.065,0-0.129,0-0.259,0
		c-0.129,0-0.129,0-0.259,0c-7.24-0.129-13.059-6.012-13.059-13.317c0-6.012-4.848-10.925-10.925-10.925
		c-6.012,0-10.925,4.848-10.925,10.925c0,15.515,10.214,28.832,24.242,33.358v5.56c0,6.012,4.848,10.925,10.925,10.925
		s10.925-4.848,10.925-10.925v-5.56c14.093-4.655,24.242-17.842,24.242-33.358c0-19.394-17.067-35.103-36.461-35.103
		c0.259,0,0.065,0-0.065,0c-6.723-0.711-11.96-6.335-11.96-13.317C182.885,164.752,188.897,158.804,196.267,158.804z"/>
</g>
<g>
</g>
<g>
</g>
<g>
</g>
<g>
</g>
<g>
</g>
<g>
</g>
<g>
</g>
<g>
</g>
<g>
</g>
<g>
</g>
<g>
</g>
<g>
</g>
<g>
</g>
<g>
</g>
<g>
</g>
</svg>
