<?xml version="1.0" encoding="UTF-8" standalone="no"?>
<svg
   width="24px"
   height="24px"
   viewBox="0 0 24 24"
   fill="none"
   version="1.1"
   id="svg828"
   sodipodi:docname="TRANSFILTER.svg"
   inkscape:version="1.1-dev (9017afb, 2021-01-01)"
   xmlns:inkscape="http://www.inkscape.org/namespaces/inkscape"
   xmlns:sodipodi="http://sodipodi.sourceforge.net/DTD/sodipodi-0.dtd"
   xmlns="http://www.w3.org/2000/svg"
   xmlns:svg="http://www.w3.org/2000/svg">
  <defs
     id="defs832" />
  <sodipodi:namedview
     id="namedview830"
     pagecolor="#ffffff"
     bordercolor="#666666"
     borderopacity="1.0"
     objecttolerance="10.0"
     gridtolerance="10.0"
     guidetolerance="10.0"
     inkscape:pageshadow="2"
     inkscape:pageopacity="0.0"
     inkscape:pagecheckerboard="0"
     showgrid="false"
     inkscape:zoom="30.083333"
     inkscape:cx="12.01662"
     inkscape:cy="11.98338"
     inkscape:window-width="1312"
     inkscape:window-height="1003"
     inkscape:window-x="0"
     inkscape:window-y="25"
     inkscape:window-maximized="0"
     inkscape:current-layer="svg828" />
  <path
     opacity="0.15"
     d="M4 8C4 5.79086 5.79086 4 8 4H16C18.2091 4 20 5.79086 20 8V16C20 18.2091 18.2091 20 16 20H8C5.79086 20 4 18.2091 4 16V8Z"
     fill="#006633"
     id="path824" />
  <path
     d="m 8,4.75 h 8 V 3.25 H 8 Z M 19.25,8 v 8 h 1.5 V 8 Z M 16,19.25 H 8 v 1.5 h 8 z M 4.75,16 V 8 h -1.5 v 8 z M 8,19.25 C 6.20507,19.25 4.75,17.7949 4.75,16 h -1.5 c 0,2.6234 2.12665,4.75 4.75,4.75 z M 19.25,16 c 0,1.7949 -1.4551,3.25 -3.25,3.25 v 1.5 c 2.6234,0 4.75,-2.1266 4.75,-4.75 z M 16,4.75 c 1.7949,0 3.25,1.45507 3.25,3.25 h 1.5 C 20.75,5.37665 18.6234,3.25 16,3.25 Z M 8,3.25 C 5.37665,3.25 3.25,5.37665 3.25,8 h 1.5 C 4.75,6.20507 6.20507,4.75 8,4.75 Z"
     fill="#006633"
     id="path826"
     sodipodi:nodetypes="cccccccccccccccccccccccccccccccccccccccc" />
</svg>
