<svg width="24px" height="24px" viewBox="0 0 24 24" fill="none" xmlns="http://www.w3.org/2000/svg">
<g
   style="fill:#194f82;fill-opacity:1"
   transform="matrix(0.16006751,0,0,0.1757963,2.0395815,0.95725009)" >
	<path
   d="m 111.1,5.103 c -1.8,0 -3.5,0.3 -5.199,1 l -19.601,7.9 c -7.5,-2.7 -15.5,-4.1 -23.8,-4.1 -8.2,0 -16.2,1.4 -23.8,4.1 l -19.6,-7.9 c -1.7,-0.7 -3.4,-1 -5.2,-1 -7.7,0 -13.9,6.2 -13.9,13.9 l 0.1,48.4 c 0,0.399 0,0.8 0,1.101 2.2,28.699 29.6,51.199 62.3,51.199 32.8,0 60.2,-22.5 62.3,-51.199 0,-0.4 0,-0.701 0,-1.101 l 0.1,-48.5 c 0.2,-7.601 -6,-13.8 -13.7,-13.8 z m -2.2,62.199 c -1.5,20.4 -21.9,36.4 -46.4,36.4 -24.4,0 -44.8,-16 -46.4,-36.4 l -0.1,-45.3 17.4,7.1 c 3.2,1.3 6.9,1.4 10.1,0.2 6,-2.2 12.3,-3.4 18.9,-3.4 6.6,0 13,1.1 19,3.4 3.199,1.2 6.899,1.2 10.1,-0.2 l 17.4,-7.1 z"
   id="path1198"
   style="fill:#194f82;fill-opacity:1" />
	<circle
   cx="42.299999"
   cy="68.502998"
   r="10"
   id="circle1200"
   style="fill:#194f82;fill-opacity:1" />
	<circle
   cx="82.699997"
   cy="68.502998"
   r="10"
   id="circle1202"
   style="fill:#194f82;fill-opacity:1" />
</g>

</svg>
