<svg width="24px" height="24px" viewBox="0 0 24 24" fill="none" xmlns="http://www.w3.org/2000/svg">
  <path
     d="M 7.7659892,21.573407 H 5.2459456 c -0.5390815,0 -0.8816905,-0.419097 -0.75991,-0.934848 l 0.1209685,-0.533972 h 1.6813821 c 0.5407052,0 1.0846578,-0.422266 1.2031908,-0.936432 l 0.8638292,-3.637983 c 0.121781,-0.513374 0.662486,-0.934848 1.201567,-0.934848 h 0.7168808 c 3.076174,0 5.46713,-0.617158 7.176928,-1.853851 1.709797,-1.236692 2.565508,-2.8520768 2.565508,-4.8604148 0,-0.8912743 -0.158315,-1.628061 -0.47738,-2.2095679 0,-0.012676 -0.01299,-0.02456 -0.01299,-0.036443 l 0.109602,0.059418 c 0.608902,0.3683933 1.071668,0.8429473 1.389109,1.4371302 0.327995,0.5941827 0.485498,1.3309697 0.485498,2.2111527 0,2.0083378 -0.851651,3.6237228 -2.568756,4.8604148 -1.704926,1.224017 -4.104001,1.841175 -7.172056,1.841175 h -0.730683 c -0.535834,0 -1.0830338,0.415928 -1.2048138,0.939601 l -0.864641,3.648282 c -0.120969,0.510998 -0.657615,0.926926 -1.193449,0.926926 z M 5.5926139,19.43831 H 3.0717586 c -0.5382695,0 -0.8800667,-0.419097 -0.7599099,-0.934848 L 5.8621546,3.4959889 C 5.9847469,2.9786537 6.5238284,2.5595568 7.0645336,2.5595568 h 5.2487374 c 1.132558,0 2.118168,0.07764 2.9617,0.2289584 0.840285,0.1497341 1.55879,0.4111745 2.179058,0.7843214 0.597536,0.3683933 1.073292,0.8492853 1.377743,1.4402991 0.315817,0.5925984 0.474132,1.3309696 0.474132,2.2159058 0,2.0083377 -0.853275,3.6237225 -2.568756,4.8477395 -1.704926,1.236692 -4.104813,1.842759 -7.1736798,1.842759 h -0.716881 c -0.535834,0 -1.078163,0.415136 -1.1999431,0.926133 L 6.7852504,18.48128 C 6.6642818,18.993069 6.1219529,19.409789 5.579624,19.409789 Z M 11.637795,5.6778283 h -0.823236 c -0.540705,0 -1.0814098,0.4190969 -1.2015668,0.9332631 l -0.755039,3.1848198 c -0.12178,0.5133738 0.219205,0.9340558 0.755039,0.9340558 h 0.6218918 c 1.350951,0 2.411253,-0.27174 3.166292,-0.8088808 0.754227,-0.54348 1.132558,-1.310372 1.132558,-2.307014 0,-0.6575625 -0.244373,-1.1447924 -0.730683,-1.4577287 C 13.31593,5.836277 12.585247,5.677036 11.62237,5.677036 Z"
     id="path962"
     style="stroke-width:0.801997;fill:#194f82;fill-opacity:1;opacity:1" />
  <path
     style="opacity:0.24437299;fill:#194f82;fill-opacity:1;stroke-width:0.0246245"
     d="M 5.0191754,21.5267 C 4.567664,21.38409 4.4017704,21.032363 4.5339255,20.497873 c 0.025515,-0.103193 0.055419,-0.227574 0.066454,-0.276402 l 0.020063,-0.08878 0.9723269,-0.01094 0.972327,-0.01094 0.2240693,-0.106143 c 0.2501739,-0.118508 0.5136452,-0.359815 0.6195728,-0.56745 0.037694,-0.07389 0.2718285,-0.992166 0.5202991,-2.040622 0.2679417,-1.130616 0.484816,-1.975393 0.5329912,-2.076128 0.1037066,-0.216851 0.3922165,-0.490083 0.6376058,-0.603841 l 0.1912235,-0.08865 1.1301939,-0.02326 c 1.772329,-0.03647 2.798157,-0.158061 4.02216,-0.476739 2.964066,-0.771715 4.986365,-2.617005 5.465048,-4.9866988 C 20.014283,8.6164196 20.05337,7.9760834 20.012522,7.4332181 19.963254,6.7784255 19.864994,6.34534 19.659069,5.8753463 19.617014,5.7793629 19.590557,5.700831 19.600275,5.700831 c 0.05463,0 0.545534,0.3743312 0.740249,0.5644656 0.703242,0.686699 1.050224,1.499343 1.132644,2.6526926 0.09749,1.3642468 -0.256417,2.6985838 -0.989068,3.7290778 -0.409663,0.576202 -1.109537,1.243088 -1.769622,1.686213 -0.979987,0.65788 -2.286913,1.15594 -3.722788,1.418726 -0.977922,0.178975 -1.75905,0.246776 -3.240997,0.281315 -1.012553,0.0236 -1.033651,0.0255 -1.213297,0.10938 -0.235897,0.110145 -0.494606,0.345223 -0.6045393,0.549321 -0.061763,0.114667 -0.2184807,0.717398 -0.5432024,2.089141 -0.2696021,1.138899 -0.487686,1.99024 -0.5328495,2.080105 -0.1067156,0.212336 -0.4344944,0.506292 -0.6700598,0.600916 -0.1898915,0.07628 -0.2102865,0.07732 -1.6382685,0.08404 -0.7952909,0.0037 -1.4834764,-0.005 -1.5293011,-0.01952 z"
     id="path1442" />
</svg>
