<svg width="24px" height="24px" viewBox="0 0 24 24" fill="none" xmlns="http://www.w3.org/2000/svg">
<g
   id="g830"
   transform="matrix(0.12154917,0,0,0.11039211,1.0035536,1.9583822)">
	<path
   d="m 90.437,76.286 c -24.328,0 -44.12,19.793 -44.12,44.121 0,14.227 11.58,25.802 25.814,25.802 7.148,0 13.627,-2.921 18.305,-7.632 4.677,4.711 11.154,7.632 18.301,7.632 14.229,0 25.805,-11.575 25.805,-25.802 0.001,-24.328 -19.785,-44.121 -44.105,-44.121 z m 18.301,54.923 c -5.956,0 -10.801,-4.846 -10.801,-10.802 0,-4.142 -3.358,-7.5 -7.5,-7.5 -4.142,0 -7.5,3.358 -7.5,7.5 0,5.956 -4.847,10.802 -10.806,10.802 -5.963,0 -10.814,-4.846 -10.814,-10.802 0,-16.058 13.063,-29.121 29.12,-29.121 16.049,0 29.105,13.064 29.105,29.121 0.001,5.957 -4.847,10.802 -10.804,10.802 z"
   id="path824" />
	<path
   d="m 158.997,0.377 c -3.076,-1.012 -6.455,0.063 -8.379,2.669 l -25.038,33.91 c -10.743,-5.839 -22.756,-8.897 -35.139,-8.897 -12.382,0 -24.396,3.058 -35.139,8.898 L 30.253,3.045 C 28.328,0.439 24.95,-0.637 21.875,0.377 18.799,1.39 16.72,4.263 16.72,7.501 v 99.655 c 0,40.647 33.071,73.716 73.721,73.716 40.645,0 73.711,-33.069 73.711,-73.716 V 7.501 c 0,-3.239 -2.079,-6.111 -5.155,-7.124 z m -9.845,106.779 c 0,32.376 -26.337,58.716 -58.711,58.716 -32.379,0 -58.721,-26.34 -58.721,-58.716 V 30.278 l 15.586,21.101 c 2.392,3.237 6.91,4.01 10.241,1.752 9.719,-6.589 21.094,-10.071 32.893,-10.071 11.801,0 23.176,3.482 32.895,10.071 3.333,2.259 7.851,1.484 10.242,-1.753 l 15.574,-21.092 v 76.87 z"
   id="path826" />
	<path
   d="m 90.433,96.144 c -6.12,0 -11.1,4.975 -11.1,11.09 0,1.104 0.896,2 2,2 h 18.189 c 1.104,0 2,-0.896 2,-2 10e-4,-6.116 -4.974,-11.09 -11.089,-11.09 z"
   id="path828" />
</g>

<path
   style="opacity:0.286174;fill:#194f82;fill-opacity:1;stroke-width:0.0214967"
   d="M 11.219501,21.880527 C 10.126351,21.792619 9.0948469,21.526901 8.0679359,21.068694 7.1160201,20.64395 6.4337135,20.198771 5.6762349,19.508206 5.1701988,19.04687 4.926215,18.778785 4.5662767,18.288604 3.8196646,17.271831 3.3680502,16.220081 3.144109,14.976559 L 3.0756899,14.596675 3.0666165,8.6252758 C 3.0563129,1.8262602 3.0289084,2.4919573 3.3302142,2.2202807 3.5119303,2.056437 3.7189427,1.9722095 3.9399202,1.9722095 c 0.1742961,0 0.4069937,0.073643 0.5459358,0.172773 0.078969,0.056344 0.701007,0.7976772 1.6649858,1.9843097 0.8464021,1.0418986 1.5507185,1.8981033 1.5651466,1.9026764 0.014456,0.00457 0.1871109,-0.061922 0.3837366,-0.1477686 0.8820621,-0.3851068 1.7602218,-0.6240196 2.756993,-0.75007 0.472018,-0.05969 1.687535,-0.067921 2.159308,-0.014622 1.00364,0.1133893 1.966671,0.3681731 2.854897,0.7553022 0.205275,0.089468 0.384074,0.1626702 0.39733,0.1626702 0.01322,0 0.726523,-0.8642388 1.58504,-1.9205306 1.241005,-1.5268915 1.58885,-1.937319 1.697099,-2.0024395 0.376747,-0.2266405 0.859851,-0.1648126 1.163963,0.1489644 0.239648,0.2472636 0.221062,-0.3132863 0.210936,6.3618007 l -0.009,5.9713986 -0.0684,0.379885 c -0.224541,1.246848 -0.673066,2.291329 -1.42227,3.312045 -0.359313,0.489527 -0.603358,0.757789 -1.109855,1.219991 -0.759016,0.692634 -1.423962,1.12624 -2.391702,1.559609 -1.048068,0.469338 -2.059613,0.726142 -3.212467,0.815561 -0.40675,0.03155 -1.077609,0.03008 -1.492046,-0.0032 z m 1.857445,-1.670262 c 2.402499,-0.341253 4.447369,-1.760301 5.454637,-3.785275 0.273675,-0.550187 0.497844,-1.307464 0.573967,-1.938935 0.02314,-0.19195 0.03064,-1.641261 0.02453,-4.7377513 l -0.0088,-4.461202 -0.967119,1.1891126 c -0.531866,0.6540118 -1.023327,1.2328469 -1.092087,1.2863006 -0.155741,0.1210725 -0.351126,0.1831545 -0.576423,0.1831545 -0.191203,0 -0.335385,-0.057614 -0.82039,-0.3278154 -0.741428,-0.4130579 -1.680506,-0.7184723 -2.619778,-0.8520225 -0.489664,-0.069623 -1.609211,-0.069623 -2.098874,0 C 9.9482535,6.9077805 9.0257692,7.2203 8.1593414,7.7100961 7.8049888,7.9104138 7.7048651,7.9456694 7.4903234,7.9456694 7.2807076,7.9456694 7.0823657,7.8809618 6.9307838,7.7631218 6.8624569,7.7100027 6.3846942,7.1482667 5.869099,6.5148203 5.3535021,5.8813741 4.9147471,5.3437209 4.8940891,5.3200354 4.8642701,5.2858555 4.8583339,6.2354916 4.8652542,9.9229952 l 0.00876,4.6460248 0.067128,0.31803 c 0.2822659,1.337314 0.908919,2.457314 1.8936513,3.384466 0.5807127,0.546759 1.1551188,0.939074 1.8726705,1.279022 0.8283959,0.392462 1.597146,0.595794 2.694817,0.712771 0.243138,0.02591 1.370204,-0.0098 1.674746,-0.05305 z"
   id="path904" /><path
   style="opacity:1;fill:#194f82;fill-opacity:1;stroke-width:0.0214967"
   d="m 11.158602,21.865946 c -0.04187,-0.0056 -0.240554,-0.03027 -0.441525,-0.05469 C 9.2678521,21.634996 7.6361183,20.991552 6.4388652,20.124207 6.0902902,19.871681 5.2189811,19.077148 4.9717786,18.786393 4.0257602,17.673698 3.4291046,16.427461 3.165313,15.013233 L 3.0927571,14.624229 3.0882978,8.7476111 C 3.0838384,2.8742406 3.0898393,2.4884537 3.1872584,2.36218 3.2571079,2.2716 3.4963105,2.1037546 3.6363154,2.0470734 3.909783,1.9363587 4.3084321,2.0011904 4.5093176,2.1890503 c 0.1322556,0.1236801 0.6774271,0.7771802 2.0800193,2.4933402 0.5904767,0.7224843 1.0852725,1.3248442 1.099547,1.3385777 0.026958,0.025938 0.040308,0.021333 0.7041026,-0.2429985 0.7221619,-0.2875714 1.4245329,-0.4770501 2.2326845,-0.6023111 0.349201,-0.054125 0.508883,-0.061548 1.355021,-0.062987 0.792613,-0.00135 1.017336,0.00715 1.294124,0.048906 0.953904,0.1439232 1.638314,0.3329263 2.532064,0.6992426 0.237063,0.097164 0.442815,0.1766604 0.457229,0.1766604 0.01446,0 0.274161,-0.301784 0.577213,-0.6706314 2.021015,-2.4597839 2.544794,-3.0883383 2.64919,-3.1791288 0.147035,-0.1278744 0.32981,-0.1879351 0.570851,-0.187586 0.239565,3.471e-4 0.441383,0.085146 0.63552,0.2670296 0.137577,0.1288871 0.146097,0.1460418 0.176868,0.3557955 0.02202,0.1500979 0.03142,2.0977168 0.02955,6.1070859 l -0.0028,5.8867076 -0.07326,0.392743 c -0.265224,1.42192 -0.857677,2.660126 -1.807161,3.776897 -0.256588,0.301794 -1.123588,1.088651 -1.497537,1.359109 -1.288251,0.931722 -2.923085,1.537673 -4.613164,1.709864 -0.253843,0.02586 -1.578153,0.03388 -1.750869,0.01062 z m 1.954341,-1.652709 c 1.975373,-0.282637 3.762862,-1.338265 4.872944,-2.877783 0.539343,-0.747986 0.851957,-1.46107 1.067307,-2.434575 l 0.06729,-0.304204 0.0086,-4.659708 c 0.0085,-4.5699658 0.0076,-4.6586463 -0.04885,-4.6045425 -0.03164,0.030342 -0.355736,0.4222849 -0.720194,0.8709859 -0.862137,1.0614165 -1.241305,1.5026337 -1.36488,1.5882367 -0.05515,0.038203 -0.185523,0.089296 -0.28972,0.1135402 C 16.426911,7.969991 16.269391,7.9316388 15.827645,7.6914659 14.823614,7.1455713 13.749976,6.813508 12.704819,6.725608 c -0.465884,-0.039182 -1.45677,-0.015299 -1.85036,0.044598 -0.849677,0.129306 -1.7052601,0.409588 -2.451641,0.80314 C 7.8386078,7.8708748 7.7063908,7.9242843 7.5240902,7.9283345 7.2648676,7.9340937 7.0832393,7.8702413 6.9091093,7.7121336 6.8244226,7.6352406 6.3618557,7.0932069 5.8811803,6.5076142 5.4005065,5.9220217 4.9738131,5.4055663 4.9329754,5.3599356 l -0.074247,-0.082965 -0.0017,4.6353076 -0.0017,4.6353078 0.076216,0.342574 c 0.308823,1.388056 0.9010006,2.440533 1.9028629,3.381962 0.6256013,0.587864 1.2201364,0.988761 1.9641834,1.324455 0.7736938,0.349069 1.4108213,0.521168 2.4664453,0.666228 0.202082,0.02776 1.562268,-0.0086 1.847764,-0.04957 z"
   id="path1091" /><path
   style="opacity:1;fill:#194f82;fill-opacity:1;stroke:none;stroke-width:0.0214967"
   d="M 9.4229573,18.066055 C 8.6014366,17.975996 7.8436443,17.590874 7.3310324,17.002904 6.7580857,16.345731 6.5580784,15.596004 6.6976818,14.6288 c 0.3308251,-2.292031 2.4394868,-4.090255 4.9458722,-4.217746 1.088882,-0.05538 2.039286,0.140648 2.959978,0.610538 1.677725,0.856253 2.73444,2.483885 2.736153,4.214437 7.3e-4,0.776779 -0.3804,1.573125 -0.999934,2.089084 -0.20724,0.172594 -0.608145,0.414415 -0.844269,0.509257 -0.982037,0.394436 -2.10373,0.310079 -2.981859,-0.224258 -0.133976,-0.08153 -0.304393,-0.196533 -0.378698,-0.255573 l -0.135101,-0.107336 -0.23471,0.172098 c -0.515633,0.378082 -1.020464,0.573399 -1.671463,0.646679 -0.2848873,0.03207 -0.3787776,0.03208 -0.6706959,8.3e-5 z m 0.5797767,-1.630542 c 0.341912,-0.05889 0.673072,-0.248391 0.855961,-0.48981 0.141482,-0.186752 0.207447,-0.369234 0.237383,-0.65661 0.03226,-0.30973 0.118675,-0.483135 0.321597,-0.645357 0.334151,-0.267133 0.82245,-0.267133 1.156601,0 0.202919,0.162222 0.28933,0.335627 0.321596,0.645357 0.05404,0.518699 0.300469,0.856154 0.76684,1.050068 0.739825,0.307613 1.581938,-0.03219 1.822989,-0.735598 0.151279,-0.441438 -0.0037,-1.278071 -0.342699,-1.850362 -0.374364,-0.631943 -0.894428,-1.088864 -1.590169,-1.397095 -1.926387,-0.853441 -4.2427494,0.02264 -4.9209746,1.861194 -0.1860373,0.504313 -0.2354457,1.063685 -0.1231207,1.393952 0.1420211,0.417617 0.500369,0.716505 0.9751252,0.813335 0.2128275,0.04341 0.3174994,0.04562 0.5188771,0.01089 z"
   id="path1352" /><path
   style="opacity:1;fill:#194f82;fill-opacity:1;stroke:none;stroke-width:0.0214967"
   d="m 10.747958,13.942151 c -0.08057,-0.05756 -0.08335,-0.06786 -0.06985,-0.258893 0.03336,-0.47212 0.418069,-0.894932 0.947059,-1.04086 0.791155,-0.218248 1.623807,0.303677 1.687463,1.05774 0.01461,0.173282 0.01138,0.184874 -0.0686,0.241978 -0.08281,0.05916 -0.09987,0.05998 -1.248065,0.05998 -1.147999,0 -1.16527,-8.83e-4 -1.248016,-0.05994 z"
   id="path1428" /><path
   style="fill:#194f82;fill-opacity:1;stroke:none;stroke-width:0.0214967"
   d="m 10.747958,13.942151 c -0.08057,-0.05756 -0.08335,-0.06786 -0.06985,-0.258893 0.03336,-0.47212 0.418069,-0.894932 0.947059,-1.04086 0.791155,-0.218248 1.623807,0.303677 1.687463,1.05774 0.01461,0.173282 0.01138,0.184874 -0.0686,0.241978 -0.08281,0.05916 -0.09987,0.05998 -1.248065,0.05998 -1.147999,0 -1.16527,-8.83e-4 -1.248016,-0.05994 z"
   id="path1428-4" /><path
   style="fill:#194f82;fill-opacity:1;stroke:none;stroke-width:0.0214967"
   d="m 7.0628477,10 c -0.08057,-0.05756 -0.08335,-0.06786 -0.06985,-0.258893 0.03336,-0.47212 0.41807,-0.894932 0.947059,-1.04086 0.791155,-0.218248 1.623808,0.303677 1.687464,1.05774 0.01461,0.173282 0.01138,0.184874 -0.0686,0.241978 -0.08281,0.05916 -0.09987,0.05998 -1.248066,0.05998 -1.147999,0 -1.16527,-8.83e-4 -1.248016,-0.05994 z"
   id="path1428-4-2" /><path
   style="fill:#194f82;fill-opacity:1;stroke:none;stroke-width:0.0214967"
   d="M 14.46858,10 C 14.38801,9.94244 14.38523,9.93214 14.39873,9.741107 c 0.03336,-0.4721201 0.418069,-0.8949321 0.947059,-1.0408601 0.791155,-0.218248 1.623807,0.303677 1.687463,1.0577401 0.01461,0.173282 0.01138,0.184874 -0.0686,0.241978 -0.08281,0.05916 -0.09987,0.05998 -1.248065,0.05998 -1.147999,0 -1.16527,-8.83e-4 -1.248016,-0.05994 z"
   id="path1428-4-8" />
</svg>
