<svg width="24px" height="24px" viewBox="0 0 24 24" fill="none" xmlns="http://www.w3.org/2000/svg">
<path opacity="0.15" d="M5 18H19C20.1046 18 21 17.1046 21 16V10H3V16C3 17.1046 3.89543 18 5 18Z" fill="#666666"/>
<path d="M6 14.25C5.58579 14.25 5.25 14.5858 5.25 15C5.25 15.4142 5.58579 15.75 6 15.75V14.25ZM9.5 15.75C9.91421 15.75 10.25 15.4142 10.25 15C10.25 14.5858 9.91421 14.25 9.5 14.25V15.75ZM5 6.75H19V5.25H5V6.75ZM20.25 8V16H21.75V8H20.25ZM19 17.25H5V18.75H19V17.25ZM3.75 16V8H2.25V16H3.75ZM5 17.25C4.30964 17.25 3.75 16.6904 3.75 16H2.25C2.25 17.5188 3.48122 18.75 5 18.75V17.25ZM20.25 16C20.25 16.6904 19.6904 17.25 19 17.25V18.75C20.5188 18.75 21.75 17.5188 21.75 16H20.25ZM19 6.75C19.6904 6.75 20.25 7.30964 20.25 8H21.75C21.75 6.48122 20.5188 5.25 19 5.25V6.75ZM5 5.25C3.48122 5.25 2.25 6.48122 2.25 8H3.75C3.75 7.30964 4.30964 6.75 5 6.75V5.25ZM3 10.75H21V9.25H3V10.75ZM6 15.75H9.5V14.25H6V15.75Z" fill="#666666"/>
</svg>
