<?xml version="1.0" encoding="UTF-8" standalone="no"?>
<svg
   xmlns:dc="http://purl.org/dc/elements/1.1/"
   xmlns:cc="http://creativecommons.org/ns#"
   xmlns:rdf="http://www.w3.org/1999/02/22-rdf-syntax-ns#"
   xmlns:svg="http://www.w3.org/2000/svg"
   xmlns="http://www.w3.org/2000/svg"
   xmlns:sodipodi="http://sodipodi.sourceforge.net/DTD/sodipodi-0.dtd"
   xmlns:inkscape="http://www.inkscape.org/namespaces/inkscape"
   version="1.1"
   id="Layer_1"
   x="0px"
   y="0px"
   viewBox="0 0 24 24"
   xml:space="preserve"
   sodipodi:docname="ALLTRANSACTIONS.svg"
   width="24"
   height="24"
   inkscape:version="1.0.2-2 (e86c870879, 2021-01-15)"><metadata
   id="metadata913"><rdf:RDF><cc:Work
       rdf:about=""><dc:format>image/svg+xml</dc:format><dc:type
         rdf:resource="http://purl.org/dc/dcmitype/StillImage" /><dc:title></dc:title></cc:Work></rdf:RDF></metadata><defs
   id="defs911" /><sodipodi:namedview
   pagecolor="#ffffff"
   bordercolor="#666666"
   borderopacity="1"
   objecttolerance="10"
   gridtolerance="10"
   guidetolerance="10"
   inkscape:pageopacity="0"
   inkscape:pageshadow="2"
   inkscape:window-width="2258"
   inkscape:window-height="1043"
   id="namedview909"
   showgrid="true"
   inkscape:zoom="26.444066"
   inkscape:cx="26.792332"
   inkscape:cy="9.8063722"
   inkscape:window-x="0"
   inkscape:window-y="0"
   inkscape:window-maximized="0"
   inkscape:current-layer="Layer_1"><inkscape:grid
     type="xygrid"
     id="grid915" /></sodipodi:namedview>
<path
   style="fill:#ffc10d;stroke-width:0.0433303"
   d="M 14.280386,7.6035514 H 7.8942471 L 4.1409403,13.823692 H 6.9054512 L 4.7789775,22.334007 14.328179,11.51991 h -2.810658 z"
   id="path874" />
<path
   style="fill:#3d6889;stroke-width:0.0433303;fill-opacity:1"
   d="M 20.366983,5.0457248 C 20.26728,4.8246106 20.047119,4.6824008 19.804599,4.6824008 H 18.184223 L 20.260866,1.7386321 C 20.393717,1.5503189 20.41053,1.30364 20.304498,1.0989912 20.198428,0.89447267 19.987193,0.7659985 19.75672,0.7659985 h -6.386139 c -0.216175,0 -0.416576,0.11309188 -0.528326,0.2981985 L 9.2687258,6.9865289 H 7.8942047 c -0.2161753,0 -0.4165775,0.1130918 -0.5283257,0.2981986 L 3.6127015,13.504955 c -0.1149559,0.190566 -0.1183781,0.428232 -0.00901,0.622091 0.1093657,0.19386 0.3147081,0.313668 0.5372522,0.313668 h 1.9744284 l -1.9349982,7.743805 c -0.068935,0.27597 0.059705,0.56325 0.3114575,0.695666 0.090949,0.04784 0.1893095,0.07088 0.2868894,0.07088 0.1725843,0 0.3424822,-0.07245 0.4627233,-0.208591 l 9.5491989,-10.81409 c 0.160582,-0.181813 0.199665,-0.440884 0.09987,-0.662042 -0.0997,-0.221114 -0.319864,-0.363324 -0.562383,-0.363324 H 12.707801 L 14.784445,7.9592491 C 14.91721,7.7709359 14.934066,7.524257 14.827994,7.319695 14.72192,7.1151331 14.510686,6.9866588 14.280213,6.9866588 H 10.709888 L 13.718827,2 h 4.847526 l -2.076646,2.9437689 c -0.132849,0.188313 -0.149662,0.4349921 -0.04363,0.6396407 0.106072,0.2046053 0.317307,0.3330361 0.547781,0.3330361 h 1.442766 l -1.9142,2.1677678 c -0.22549,0.2554314 -0.201312,0.6453166 0.05412,0.8708942 0.117338,0.1036019 0.263014,0.1544718 0.408127,0.1544718 0.170852,0 0.340749,-0.070537 0.462724,-0.2085914 l 2.819628,-3.1931342 c 0.160629,-0.1819436 0.199756,-0.441015 0.09997,-0.6621291 z m -9.353609,6.1185742 c -0.132764,0.188313 -0.14962,0.434993 -0.04354,0.639554 0.106071,0.204563 0.317307,0.333037 0.54778,0.333037 h 1.442766 l -6.9695798,7.892773 1.513351,-6.056351 C 7.5501692,13.789027 7.5086998,13.593739 7.3918378,13.443989 7.2748423,13.29424 7.0954984,13.206712 6.905538,13.206712 H 5.2338578 L 8.2425352,8.2205302 h 4.8474828 z"
   id="path876" />
<g
   id="g878"
   transform="matrix(0.04333023,0,0,0.04333023,0.88025406,0.7659985)">
</g>
<g
   id="g880"
   transform="matrix(0.04333023,0,0,0.04333023,0.88025406,0.7659985)">
</g>
<g
   id="g882"
   transform="matrix(0.04333023,0,0,0.04333023,0.88025406,0.7659985)">
</g>
<g
   id="g884"
   transform="matrix(0.04333023,0,0,0.04333023,0.88025406,0.7659985)">
</g>
<g
   id="g886"
   transform="matrix(0.04333023,0,0,0.04333023,0.88025406,0.7659985)">
</g>
<g
   id="g888"
   transform="matrix(0.04333023,0,0,0.04333023,0.88025406,0.7659985)">
</g>
<g
   id="g890"
   transform="matrix(0.04333023,0,0,0.04333023,0.88025406,0.7659985)">
</g>
<g
   id="g892"
   transform="matrix(0.04333023,0,0,0.04333023,0.88025406,0.7659985)">
</g>
<g
   id="g894"
   transform="matrix(0.04333023,0,0,0.04333023,0.88025406,0.7659985)">
</g>
<g
   id="g896"
   transform="matrix(0.04333023,0,0,0.04333023,0.88025406,0.7659985)">
</g>
<g
   id="g898"
   transform="matrix(0.04333023,0,0,0.04333023,0.88025406,0.7659985)">
</g>
<g
   id="g900"
   transform="matrix(0.04333023,0,0,0.04333023,0.88025406,0.7659985)">
</g>
<g
   id="g902"
   transform="matrix(0.04333023,0,0,0.04333023,0.88025406,0.7659985)">
</g>
<g
   id="g904"
   transform="matrix(0.04333023,0,0,0.04333023,0.88025406,0.7659985)">
</g>
<g
   id="g906"
   transform="matrix(0.04333023,0,0,0.04333023,0.88025406,0.7659985)">
</g>
</svg>
