<?xml version="1.0" encoding="UTF-8" standalone="no"?>
<svg
   xmlns:dc="http://purl.org/dc/elements/1.1/"
   xmlns:cc="http://creativecommons.org/ns#"
   xmlns:rdf="http://www.w3.org/1999/02/22-rdf-syntax-ns#"
   xmlns:svg="http://www.w3.org/2000/svg"
   xmlns="http://www.w3.org/2000/svg"
   xmlns:sodipodi="http://sodipodi.sourceforge.net/DTD/sodipodi-0.dtd"
   xmlns:inkscape="http://www.inkscape.org/namespaces/inkscape"
   version="1.1"
   id="Layer_1"
   x="0px"
   y="0px"
   viewBox="0 0 24 24"
   xml:space="preserve"
   sodipodi:docname="ASSETS.svg"
   width="24"
   height="24"
   inkscape:version="1.0.2-2 (e86c870879, 2021-01-15)"><metadata
   id="metadata16691"><rdf:RDF><cc:Work
       rdf:about=""><dc:format>image/svg+xml</dc:format><dc:type
         rdf:resource="http://purl.org/dc/dcmitype/StillImage" /><dc:title /></cc:Work></rdf:RDF></metadata><defs
   id="defs16689" /><sodipodi:namedview
   pagecolor="#ffffff"
   bordercolor="#666666"
   borderopacity="1"
   objecttolerance="10"
   gridtolerance="10"
   guidetolerance="10"
   inkscape:pageopacity="0"
   inkscape:pageshadow="2"
   inkscape:window-width="1751"
   inkscape:window-height="911"
   id="namedview16687"
   showgrid="true"
   inkscape:zoom="18.457953"
   inkscape:cx="12"
   inkscape:cy="12"
   inkscape:window-x="641"
   inkscape:window-y="187"
   inkscape:window-maximized="0"
   inkscape:current-layer="Layer_1"
   inkscape:document-rotation="0"><inkscape:grid
     type="xygrid"
     id="grid17254" /></sodipodi:namedview>
<path
   style="fill:#60aed5;stroke-width:0.0437934;fill-opacity:1;opacity:0.5"
   d="m 21.647232,22.40771 -2.870917,0.558058 c -1.18737,0.230791 -2.34093,-0.547285 -2.571721,-1.734654 L 12.856366,4.0056919 C 12.625575,2.8183224 13.403651,1.6647615 14.59102,1.4339705 L 17.461901,0.87595534 C 18.64927,0.6451642 19.802831,1.4232411 20.033623,2.6106106 l 3.348264,17.2254214 c 0.230792,1.187282 -0.547286,2.340844 -1.734655,2.571678 z"
   id="path16620" />
<path
   style="fill:#60aed5;stroke-width:0.0437934;fill-opacity:1"
   d="M 17.461901,0.87595534 16.026442,1.1549629 20.211775,22.686717 21.647232,22.40771 c 1.187369,-0.230792 1.965447,-1.384396 1.734655,-2.571722 L 20.033623,2.6105666 C 19.802831,1.4232411 18.649227,0.6451642 17.461901,0.87595534 Z"
   id="path16622" />
<path
   style="fill:#dbe9fd;stroke-width:0.0437934"
   d="M 18.537686,14.074005 C 18.141442,14.15103 17.75755,13.892307 17.68043,13.4958 L 16.285348,6.3185506 c -0.07708,-0.3964614 0.181961,-0.7801788 0.578205,-0.8572551 0.396242,-0.077033 0.780135,0.1816986 0.857254,0.5782038 l 1.395082,7.1772497 c 0.07702,0.396505 -0.182006,0.780223 -0.578203,0.857256 z"
   id="path16624" />
<path
   style="fill:#c5dcfd;stroke-width:0.0437934"
   d="M 19.115845,13.216794 17.720764,6.039543 C 17.643688,5.6430818 17.259795,5.3843067 16.863508,5.4613393 l 1.674178,8.6127087 c 0.396197,-0.07708 0.655236,-0.460794 0.578159,-0.857254 z"
   id="path16626" />
<circle
   style="fill:#dbe9fd;stroke-width:0.0437934"
   cx="19.235355"
   cy="17.66239"
   r="0.73117393"
   id="circle16628" />
<path
   style="fill:#c5dcfd;stroke-width:0.0437934"
   d="m 19.095918,16.944882 -2.63e-4,8.7e-5 0.279008,1.435416 h 2.63e-4 c 0.396375,-0.07708 0.655281,-0.460838 0.578203,-0.857256 -0.077,-0.39646 -0.460793,-0.655323 -0.857211,-0.578247 z"
   id="path16630" />
<path
   style="fill:#8eb043;stroke-width:0.0437934;fill-opacity:1;opacity:0.5"
   d="M 11.967624,23.006277 H 9.0429711 c -1.2095289,0 -2.1934781,-0.983949 -2.1934781,-2.193477 V 3.2649708 c 0,-1.2095288 0.9839492,-2.193478 2.1934781,-2.193478 h 2.9246529 c 1.209528,0 2.193477,0.9839492 2.193477,2.193478 V 20.8128 c 0,1.209571 -0.983949,2.193477 -2.193477,2.193477 z"
   id="path16632" />
<path
   style="fill:#8eb043;stroke-width:0.0437934"
   d="M 11.967624,1.0714928 H 10.505319 V 23.006277 h 1.462305 c 1.209528,0 2.193477,-0.983949 2.193477,-2.193477 V 3.2649708 c 0,-1.2095288 -0.983949,-2.193478 -2.193477,-2.193478 z"
   id="path16634" />
<path
   style="fill:#dbe9fd;stroke-width:0.0437934"
   d="m 10.505276,14.232362 c -0.403644,0 -0.7311748,-0.327269 -0.7311748,-0.731175 V 6.1896229 c 0,-0.4039062 0.3275308,-0.7311739 0.7311748,-0.7311739 0.403642,0 0.731174,0.3272677 0.731174,0.7311739 v 7.3115641 c 0,0.403906 -0.327488,0.731175 -0.731174,0.731175 z"
   id="path16636" />
<path
   style="fill:#c5dcfd;stroke-width:0.0437934"
   d="M 11.23645,13.501187 V 6.1896229 c 0,-0.4039062 -0.327532,-0.7311739 -0.731174,-0.7311739 v 8.773913 c 0.403686,0 0.731174,-0.327269 0.731174,-0.731175 z"
   id="path16638" />
<circle
   style="fill:#dbe9fd;stroke-width:0.0437934"
   cx="10.505277"
   cy="17.888058"
   r="0.73117393"
   id="circle16640" />
<path
   style="fill:#c5dcfd;stroke-width:0.0437934"
   d="m 10.505538,17.157017 -2.62e-4,4.4e-5 v 1.46226 l 2.62e-4,4.4e-5 c 0.403775,0 0.731174,-0.327355 0.731174,-0.731174 0,-0.403775 -0.327399,-0.731174 -0.731174,-0.731174 z"
   id="path16642" />
<path
   style="fill:#ff3501;stroke-width:0.0437934;fill-opacity:1;opacity:0.5"
   d="m 6.1183628,23.006277 h -2.924652 c -1.2095287,0 -2.193478,-0.983949 -2.193478,-2.193477 V 3.2649708 c 0,-1.2095288 0.9839493,-2.193478 2.193478,-2.193478 h 2.924652 c 1.2095289,0 2.1934781,0.9839492 2.1934781,2.193478 V 20.8128 c 0,1.209571 -0.9839492,2.193477 -2.1934781,2.193477 z"
   id="path16644" />
<path
   style="fill:#ff3501;stroke-width:0.0437934;fill-opacity:1"
   d="M 6.1183628,1.0714928 H 4.656015 V 23.006277 h 1.4623041 c 1.2095287,0 2.193478,-0.983949 2.193478,-2.193477 V 3.2649708 C 8.3118409,2.055442 7.3278917,1.0714928 6.1183628,1.0714928 Z"
   id="path16646" />
<path
   style="fill:#dbe9fd;stroke-width:0.0437934"
   d="m 4.656015,14.232362 c -0.4036434,0 -0.7311739,-0.327269 -0.7311739,-0.731175 V 6.1896229 c 0,-0.4039062 0.3275305,-0.7311739 0.7311739,-0.7311739 0.4036434,0 0.7311738,0.3272677 0.7311738,0.7311739 v 7.3115641 c 0,0.403906 -0.3275304,0.731175 -0.7311738,0.731175 z"
   id="path16648" />
<path
   style="fill:#c5dcfd;stroke-width:0.0437934"
   d="M 5.3871888,13.501187 V 6.1896229 c 0,-0.4039062 -0.3275304,-0.7311739 -0.7311738,-0.7311739 v 8.773913 c 0.4036434,0 0.7311738,-0.327269 0.7311738,-0.731175 z"
   id="path16650" />
<circle
   style="fill:#dbe9fd;stroke-width:0.0437934"
   cx="4.6560163"
   cy="17.888058"
   r="0.73117393"
   id="circle16652" />
<path
   style="fill:#c5dcfd;stroke-width:0.0437934"
   d="m 4.6562777,17.157017 -2.627e-4,4.4e-5 v 1.46226 l 2.627e-4,4.4e-5 c 0.4037748,0 0.731174,-0.327355 0.731174,-0.731174 -4.38e-5,-0.403775 -0.3273992,-0.731174 -0.731174,-0.731174 z"
   id="path16654" />
<path
   style="fill:#e43333;fill-opacity:1;stroke:#e43333;stroke-width:2.63664;stroke-linecap:butt;stroke-linejoin:round;stroke-miterlimit:4;stroke-dasharray:none;stroke-opacity:1"
   d="m 18.408349,18.472648 -4.074125,3.954959 4.074125,-3.954959 -4.074094,-4.133232 4.074094,4.133232 4.014067,-4.133232 -4.014067,4.133232 4.014067,3.954959 -4.014067,-3.954959"
/>
</svg>
