<?xml version="1.0" encoding="UTF-8" standalone="no"?>
<svg
   xmlns:dc="http://purl.org/dc/elements/1.1/"
   xmlns:cc="http://creativecommons.org/ns#"
   xmlns:rdf="http://www.w3.org/1999/02/22-rdf-syntax-ns#"
   xmlns:svg="http://www.w3.org/2000/svg"
   xmlns="http://www.w3.org/2000/svg"
   xmlns:sodipodi="http://sodipodi.sourceforge.net/DTD/sodipodi-0.dtd"
   xmlns:inkscape="http://www.inkscape.org/namespaces/inkscape"
   version="1.1"
   id="Layer_1"
   x="0px"
   y="0px"
   viewBox="0 0 24 24"
   xml:space="preserve"
   sodipodi:docname="BUDGET.svg"
   width="24"
   height="24"
   inkscape:version="1.0.2-2 (e86c870879, 2021-01-15)"><metadata
   id="metadata892"><rdf:RDF><cc:Work
       rdf:about=""><dc:format>image/svg+xml</dc:format><dc:type
         rdf:resource="http://purl.org/dc/dcmitype/StillImage" /><dc:title></dc:title></cc:Work></rdf:RDF></metadata><defs
   id="defs890" /><sodipodi:namedview
   pagecolor="#ffffff"
   bordercolor="#666666"
   borderopacity="1"
   objecttolerance="10"
   gridtolerance="10"
   guidetolerance="10"
   inkscape:pageopacity="0"
   inkscape:pageshadow="2"
   inkscape:window-width="2136"
   inkscape:window-height="1025"
   id="namedview888"
   showgrid="true"
   inkscape:zoom="256"
   inkscape:cx="1.8119668"
   inkscape:cy="1.3485256"
   inkscape:window-x="0"
   inkscape:window-y="0"
   inkscape:window-maximized="0"
   inkscape:current-layer="Layer_1"><inkscape:grid
     type="xygrid"
     id="grid894" /></sodipodi:namedview>
<path
   style="fill:#56ace0;stroke-width:0.0560478"
   d="m 21.779042,2.831582 c 0,-0.3369757 -0.271705,-0.6123519 -0.612292,-0.6123519 H 2.8337388 c -0.3369429,0 -0.6122922,0.271733 -0.6122922,0.6123519 V 5.9586405 H 21.779042 Z"
   id="path833" />
<path
   style="fill:#ffffff;stroke-width:0.0560478"
   d="m 10.587236,21.778676 h 10.57587 c 0.336943,0 0.612293,-0.271733 0.612293,-0.612352 V 7.1797573 H 10.587236 Z"
   id="path835" />
<path
   style="fill:#ffc10d;stroke-width:0.0560478"
   d="M 2.2214466,7.1797573 V 21.166324 c 0,0.336975 0.2717064,0.612352 0.6122922,0.612352 H 10.587181 V 7.1797573 Z"
   id="path837" />
<g
   id="g855"
   transform="matrix(0.05604506,0,0,0.05605052,0.99865547,0.9981134)">
	<path
   style="fill:#194f82"
   d="M 251.184,44.8 H 45.414 c -6.012,0 -10.925,4.848 -10.925,10.925 0,6.012 4.848,10.925 10.925,10.925 h 205.77 c 6.012,0 10.925,-4.848 10.925,-10.925 C 262.044,49.648 257.196,44.8 251.184,44.8 Z"
   id="path839" />
	<path
   style="fill:#194f82"
   d="m 327.531,44.8 h -22.303 c -6.012,0 -10.925,4.848 -10.925,10.925 0,6.012 4.848,10.925 10.925,10.925 h 22.303 c 6.012,0 10.925,-4.848 10.925,-10.925 C 338.392,49.648 333.543,44.8 327.531,44.8 Z"
   id="path841" />
	<path
   style="fill:#194f82"
   d="m 99.523,298.408 c -12.024,0 -21.851,-9.826 -21.851,-21.85 0,-6.012 -4.848,-10.925 -10.925,-10.925 -6.077,0 -10.925,4.848 -10.925,10.925 0,20.299 13.964,37.43 32.776,42.279 v 10.343 c 0,6.012 4.848,10.925 10.925,10.925 6.012,0 10.925,-4.849 10.925,-10.925 v -10.408 c 18.877,-4.848 32.776,-21.915 32.776,-42.279 0,-24.113 -21.269,-43.572 -45.382,-43.572 0.388,-0.065 0,0 -0.065,0 -11.313,-0.905 -20.17,-10.343 -20.17,-21.786 0,-12.024 9.826,-21.85 21.851,-21.85 12.025,0 21.851,9.826 21.851,21.85 0,6.012 4.848,10.925 10.925,10.925 6.077,0 10.925,-4.848 10.925,-10.925 0,-20.299 -13.964,-37.43 -32.776,-42.279 v -10.408 c 0,-6.012 -4.848,-10.925 -10.925,-10.925 -6.077,0 -10.925,4.848 -10.925,10.925 v 10.408 c -18.877,4.848 -32.776,21.915 -32.776,42.279 0,24.113 19.653,43.636 43.636,43.636 -0.388,0.065 0,0 0.065,0 11.313,0.905 21.786,10.214 21.786,21.721 0.259,12.09 -9.567,21.916 -21.721,21.916 z"
   id="path843" />
	<path
   style="fill:#194f82"
   d="M 327.531,171.442 H 211.62 c -6.012,0 -10.925,-4.848 -10.925,-10.925 0,-6.012 4.848,-10.925 10.925,-10.925 h 115.911 c 6.012,0 10.925,4.848 10.925,10.925 -0.064,6.077 -4.913,10.925 -10.925,10.925 z"
   id="path845" />
	<path
   style="fill:#194f82"
   d="M 327.531,226.974 H 211.62 c -6.012,0 -10.925,-4.848 -10.925,-10.925 0,-6.012 4.848,-10.925 10.925,-10.925 h 115.911 c 6.012,0 10.925,4.848 10.925,10.925 -0.064,6.012 -4.913,10.925 -10.925,10.925 z"
   id="path847" />
	<path
   style="fill:#194f82"
   d="M 327.531,282.44 H 211.62 c -6.012,0 -10.925,-4.848 -10.925,-10.925 0,-6.012 4.848,-10.925 10.925,-10.925 h 115.911 c 6.012,0 10.925,4.848 10.925,10.925 -0.064,6.012 -4.913,10.925 -10.925,10.925 z"
   id="path849" />
	<path
   style="fill:#194f82"
   d="M 327.531,337.907 H 211.62 c -6.012,0 -10.925,-4.848 -10.925,-10.925 0,-6.012 4.848,-10.925 10.925,-10.925 h 115.911 c 6.012,0 10.925,4.848 10.925,10.925 -0.064,6.077 -4.913,10.925 -10.925,10.925 z"
   id="path851" />
	<path
   style="fill:#194f82"
   d="M 359.855,0 H 32.743 C 14.707,0 0.032,14.675 0.032,32.711 v 327.111 c 0,18.101 14.675,32.776 32.711,32.776 h 327.111 c 18.036,0 32.711,-14.675 32.711,-32.711 V 32.711 C 392.566,14.675 377.891,0 359.855,0 Z m 10.925,359.822 c 0,6.012 -4.848,10.925 -10.925,10.925 H 171.087 32.743 c -6.012,0 -10.925,-4.848 -10.925,-10.925 V 110.287 H 171.087 370.651 V 359.822 Z M 21.818,32.711 c 0,-6.012 4.848,-10.925 10.925,-10.925 h 327.111 c 6.012,0 10.925,4.848 10.925,10.925 v 55.79 H 21.818 Z"
   id="path853" />
</g>
<g
   id="g857"
   transform="matrix(0.05604506,0,0,0.05605052,0.99865547,0.9981134)">
</g>
<g
   id="g859"
   transform="matrix(0.05604506,0,0,0.05605052,0.99865547,0.9981134)">
</g>
<g
   id="g861"
   transform="matrix(0.05604506,0,0,0.05605052,0.99865547,0.9981134)">
</g>
<g
   id="g863"
   transform="matrix(0.05604506,0,0,0.05605052,0.99865547,0.9981134)">
</g>
<g
   id="g865"
   transform="matrix(0.05604506,0,0,0.05605052,0.99865547,0.9981134)">
</g>
<g
   id="g867"
   transform="matrix(0.05604506,0,0,0.05605052,0.99865547,0.9981134)">
</g>
<g
   id="g869"
   transform="matrix(0.05604506,0,0,0.05605052,0.99865547,0.9981134)">
</g>
<g
   id="g871"
   transform="matrix(0.05604506,0,0,0.05605052,0.99865547,0.9981134)">
</g>
<g
   id="g873"
   transform="matrix(0.05604506,0,0,0.05605052,0.99865547,0.9981134)">
</g>
<g
   id="g875"
   transform="matrix(0.05604506,0,0,0.05605052,0.99865547,0.9981134)">
</g>
<g
   id="g877"
   transform="matrix(0.05604506,0,0,0.05605052,0.99865547,0.9981134)">
</g>
<g
   id="g879"
   transform="matrix(0.05604506,0,0,0.05605052,0.99865547,0.9981134)">
</g>
<g
   id="g881"
   transform="matrix(0.05604506,0,0,0.05605052,0.99865547,0.9981134)">
</g>
<g
   id="g883"
   transform="matrix(0.05604506,0,0,0.05605052,0.99865547,0.9981134)">
</g>
<g
   id="g885"
   transform="matrix(0.05604506,0,0,0.05605052,0.99865547,0.9981134)">
</g>
</svg>
