<?xml version="1.0" encoding="UTF-8" standalone="no"?>
<svg
   xmlns:dc="http://purl.org/dc/elements/1.1/"
   xmlns:cc="http://creativecommons.org/ns#"
   xmlns:rdf="http://www.w3.org/1999/02/22-rdf-syntax-ns#"
   xmlns:svg="http://www.w3.org/2000/svg"
   xmlns="http://www.w3.org/2000/svg"
   xmlns:sodipodi="http://sodipodi.sourceforge.net/DTD/sodipodi-0.dtd"
   xmlns:inkscape="http://www.inkscape.org/namespaces/inkscape"
   version="1.1"
   id="Layer_1"
   x="0px"
   y="0px"
   viewBox="0 0 24 24"
   xml:space="preserve"
   sodipodi:docname="CASH_NORMAL.svg"
   width="24"
   height="24"
   inkscape:version="1.0.2-2 (e86c870879, 2021-01-15)"><metadata
   id="metadata1286"><rdf:RDF><cc:Work
       rdf:about=""><dc:format>image/svg+xml</dc:format><dc:type
         rdf:resource="http://purl.org/dc/dcmitype/StillImage" /><dc:title></dc:title></cc:Work></rdf:RDF></metadata><defs
   id="defs1284" /><sodipodi:namedview
   pagecolor="#ffffff"
   bordercolor="#666666"
   borderopacity="1"
   objecttolerance="10"
   gridtolerance="10"
   guidetolerance="10"
   inkscape:pageopacity="0"
   inkscape:pageshadow="2"
   inkscape:window-width="1594"
   inkscape:window-height="866"
   id="namedview1282"
   showgrid="true"
   inkscape:zoom="19.384225"
   inkscape:cx="8.9954252"
   inkscape:cy="9.9482238"
   inkscape:window-x="0"
   inkscape:window-y="0"
   inkscape:window-maximized="0"
   inkscape:current-layer="Layer_1"><inkscape:grid
     type="xygrid"
     id="grid1849" /></sodipodi:namedview>
<path
   style="fill:#56ace0;stroke-width:0.0562917"
   d="m 17.883555,16.045144 c 0,0.949807 0.771476,1.713965 1.713965,1.713965 h 2.187096 V 14.327463 H 19.59752 c -0.949751,0.0037 -1.713965,0.77519 -1.713965,1.717681 z"
   id="path1235" />
<path
   style="fill:#194f82;stroke-width:0.0562917"
   d="m 18.647769,16.045144 c 0,0.338424 0.272901,0.614985 0.614986,0.614985 h 0.571302 c 0.338426,0 0.614986,-0.272958 0.614986,-0.614985 0,-0.338426 -0.272901,-0.614986 -0.614986,-0.614986 h -0.571359 c -0.338368,0.0036 -0.614929,0.27656 -0.614929,0.614986 z"
   id="path1237" />
<g
   id="g1243"
   transform="matrix(0.05629157,0,0,0.05629157,0.91468772,0.94104683)">
	<path
   style="fill:#ffffff"
   d="m 279.596,268.319 c 0,-28.832 23.467,-52.299 52.299,-52.299 h 38.853 V 161.071 H 46.675 c -9.115,0 -17.648,-2.715 -24.824,-7.24 v 192 c 0,13.705 11.119,24.824 24.824,24.824 h 324.073 v -49.972 h -38.853 c -28.832,-0.065 -52.299,-23.531 -52.299,-52.364 z"
   id="path1239" />
	<path
   style="fill:#ffffff"
   d="M 46.675,139.285 H 327.176 V 89.572 h -40.727 l 19.135,16.614 c 6.982,5.56 3.814,18.747 -7.111,19.135 H 61.349 C 51.329,125.192 46.351,112.586 54.173,106.25 L 73.114,89.571 h -26.44 c -13.705,0 -24.824,11.119 -24.824,24.824 0,13.705 11.055,24.89 24.825,24.89 z"
   id="path1241" />
</g>
<polygon
   style="fill:#56ace0"
   points="178.941,25.378 90.246,103.6 269.123,103.6 "
   id="polygon1245"
   transform="matrix(0.05629157,0,0,0.05629157,0.91468772,0.94104683)" />
<path
   style="fill:#194f82;stroke-width:0.0562917"
   d="M 22.399658,8.7816175 H 20.558306 V 5.3718122 c 0,-0.3384249 -0.272902,-0.6149853 -0.614986,-0.6149853 H 15.616469 L 11.384243,1.0923023 c -0.229275,-0.20017283 -0.57862,-0.20017283 -0.807896,0.00366 L 6.4169067,4.7640884 H 3.5420966 C 2.0937145,4.7604858 0.91468772,5.9395127 0.91468772,7.3878383 V 20.415677 c 0,1.444722 1.17902678,2.62375 2.62740888,2.62375 H 22.399658 c 0.338425,0 0.614985,-0.272902 0.614985,-0.614986 V 9.3966028 C 23.010984,9.054519 22.738083,8.7816175 22.399658,8.7816175 Z M 10.987557,2.3696142 16.064043,6.7728529 H 5.9947762 Z M 3.5420966,5.9831948 h 1.488349 L 3.964227,6.9220819 C 3.5239143,7.2786891 3.8041337,7.9883005 4.3681753,7.9956184 H 17.708938 c 0.614986,-0.021841 0.793318,-0.7605554 0.400291,-1.077139 L 17.035691,5.9832512 h 2.292587 V 8.7816738 H 3.5384375 c -0.7714758,0 -1.3973817,-0.625906 -1.3973817,-1.3973818 0,-0.771476 0.6259059,-1.4010972 1.4010408,-1.4010972 z M 21.784616,17.762768 H 19.59752 c -0.949807,0 -1.714022,-0.771476 -1.714022,-1.713965 0,-0.949808 0.771476,-1.713966 1.714022,-1.713966 h 2.187096 z m 0,-4.661618 H 19.59752 c -1.622998,0 -2.943992,1.320995 -2.943992,2.943994 0,1.622997 1.320994,2.943992 2.943992,2.943992 h 2.187096 v 2.820263 H 3.5420966 c -0.7714761,0 -1.397382,-0.625905 -1.397382,-1.397382 V 9.6040372 C 2.548663,9.8624156 3.0289989,10.011588 3.5420966,10.011588 H 21.784674 Z"
   id="path1247" />
<path
   style="fill:#ffc10d;stroke-width:0.0562917"
   d="m 19.597577,13.10115 h 2.187097 V 10.007986 H 3.5420966 c -0.5130977,0 -0.9934336,-0.1528321 -1.397382,-0.4075514 V 13.788977 H 5.481735 c 0.3384249,0 0.6149853,0.272902 0.6149853,0.614985 0,0.342084 -0.2729015,0.614986 -0.6149853,0.614986 H 2.1410558 v 1.601157 h 1.9287178 c 0.338425,0 0.6149854,0.272902 0.6149854,0.614986 0,0.338424 -0.2729016,0.614984 -0.6149854,0.614984 H 2.1410558 v 2.565545 c 0,0.771477 0.6259059,1.397382 1.3973817,1.397382 H 21.781013 V 19 h -2.187096 c -1.622997,0 -2.943992,-1.320994 -2.943992,-2.943993 0.0036,-1.633862 1.324654,-2.954857 2.947652,-2.954857 z"
   id="path1249" />
<path
   style="fill:#e43333;fill-opacity:1;stroke:#e43333;stroke-width:2.63664;stroke-linecap:butt;stroke-linejoin:round;stroke-miterlimit:4;stroke-dasharray:none;stroke-opacity:1"
   d="m 18.408349,18.472648 -4.074125,3.954959 4.074125,-3.954959 -4.074094,-4.133232 4.074094,4.133232 4.014067,-4.133232 -4.014067,4.133232 4.014067,3.954959 -4.014067,-3.954959"
/>

</svg>
