<?xml version="1.0" encoding="UTF-8" standalone="no"?>
<svg
   xmlns:dc="http://purl.org/dc/elements/1.1/"
   xmlns:cc="http://creativecommons.org/ns#"
   xmlns:rdf="http://www.w3.org/1999/02/22-rdf-syntax-ns#"
   xmlns:svg="http://www.w3.org/2000/svg"
   xmlns="http://www.w3.org/2000/svg"
   xmlns:sodipodi="http://sodipodi.sourceforge.net/DTD/sodipodi-0.dtd"
   xmlns:inkscape="http://www.inkscape.org/namespaces/inkscape"
   version="1.1"
   id="Layer_1"
   x="0px"
   y="0px"
   viewBox="0 0 24 24"
   xml:space="preserve"
   sodipodi:docname="CC_NORMAL.svg"
   width="24"
   height="24"
   inkscape:version="1.0.2-2 (e86c870879, 2021-01-15)"><metadata
   id="metadata1975"><rdf:RDF><cc:Work
       rdf:about=""><dc:format>image/svg+xml</dc:format><dc:type
         rdf:resource="http://purl.org/dc/dcmitype/StillImage" /><dc:title></dc:title></cc:Work></rdf:RDF></metadata><defs
   id="defs1973" /><sodipodi:namedview
   pagecolor="#ffffff"
   bordercolor="#666666"
   borderopacity="1"
   objecttolerance="10"
   gridtolerance="10"
   guidetolerance="10"
   inkscape:pageopacity="0"
   inkscape:pageshadow="2"
   inkscape:window-width="1483"
   inkscape:window-height="970"
   id="namedview1971"
   showgrid="true"
   inkscape:zoom="15.785025"
   inkscape:cx="8.556045"
   inkscape:cy="13.053207"
   inkscape:window-x="0"
   inkscape:window-y="0"
   inkscape:window-maximized="0"
   inkscape:current-layer="Layer_1"><inkscape:grid
     type="xygrid"
     id="grid2538" /></sodipodi:namedview>
<g
   id="g1918"
   transform="matrix(0.05571684,0,0,0.05571684,1.1376908,1.1067829)">
	<path
   style="fill:#56ace0"
   d="M 306.781,30.505 C 303.872,23.394 295.726,19.968 288.615,22.877 L 54.659,118.424 c -7.176,2.909 -10.667,11.119 -7.758,18.295 l 7.37,17.842 H 83.039 L 318.287,58.302 Z"
   id="path1914" />
	<path
   style="fill:#56ace0"
   d="M 369.682,184.364 326.498,78.602 140.575,154.691 H 288.55 c 19.782,0 35.879,16.097 35.879,35.879 v 27.539 l 37.56,-15.321 c 7.175,-2.974 10.666,-11.249 7.693,-18.424 z"
   id="path1916" />
</g>
<path
   style="fill:#ffffff;stroke-width:0.0557169"
   d="M 17.214782,10.939522 H 3.1385937 c -0.4322513,0 -0.7852174,0.352966 -0.7852174,0.785218 v 9.256849 c 0,0.432251 0.3529661,0.785218 0.7852174,0.785218 H 17.211217 c 0.432251,0 0.785217,-0.352967 0.785217,-0.785218 V 11.72474 c 0.0035,-0.435818 -0.3494,-0.785218 -0.781652,-0.785218 z"
   id="path1920" />
<path
   style="fill:#194f82;stroke-width:0.0557169"
   d="M 22.862575,10.917904 19.35793,2.3489897 C 19.156236,1.8555056 18.770843,1.4665465 18.28098,1.2612299 17.791117,1.0559134 17.243644,1.0559134 16.753782,1.2576084 L 3.7256819,6.5812402 C 2.7063424,6.9990608 2.2128585,8.1660497 2.6271131,9.1853892 L 2.8540478,9.7436718 C 1.8887537,9.8805682 1.1395294,10.716209 1.1395294,11.72474 v 9.256849 c 0,1.102191 0.8968739,1.999065 1.9990643,1.999065 H 17.211217 c 1.10219,0 1.999063,-0.896874 1.999063,-1.999065 v -6.411391 l 2.553727,-1.040957 c 1.022903,-0.425009 1.512767,-1.591997 1.098568,-2.611337 z M 4.183117,7.704993 17.218404,2.3849827 c 0.396202,-0.1620803 0.84645,0.02524 1.012152,0.425008 L 18.868068,4.3588072 5.7643608,9.7220537 H 4.1614989 L 3.7508659,8.7279539 C 3.5888413,8.3245085 3.7833489,7.8706947 4.183117,7.704993 Z M 18,20.978023 c 0,0.432252 -0.352966,0.785217 -0.785218,0.785217 H 3.1385937 c -0.4322513,0 -0.7852174,-0.352965 -0.7852174,-0.785217 v -9.256905 c 0,-0.432251 0.3529661,-0.785217 0.7852174,-0.785217 H 17.211217 c 0.432251,0 0.785217,0.352966 0.785217,0.785217 v 9.25685 h 0.0035 z m 3.310136,-8.576157 -2.092722,0.853637 v -1.534385 c 0,-1.102191 -0.896876,-1.9990643 -1.999065,-1.9990643 H 8.9700286 L 19.329069,5.4862373 21.738711,11.378961 c 0.162136,0.399768 -0.03238,0.860825 -0.428575,1.022905 z"
   id="path1922" />
<path
   style="fill:#ffc10d;stroke-width:0.0557169"
   d="m 3.5672232,19.937066 v -7.174991 c 0,-0.334969 0.2701152,-0.608706 0.6087064,-0.608706 H 16.173825 c 0.33497,0 0.608706,0.270115 0.608706,0.608706 v 7.182179 c 0,0.334969 -0.270114,0.608706 -0.608706,0.608706 H 4.1795512 c -0.3349696,-0.0035 -0.612328,-0.280924 -0.612328,-0.615894 z"
   id="path1924" />
<g
   id="g1930"
   transform="matrix(0.05571684,0,0,0.05571684,1.1376908,1.1067829)">
	<path
   style="fill:#194f82"
   d="M 82.328,331.628 H 70.045 c -6.012,0 -10.925,-4.848 -10.925,-10.925 0,-6.077 4.848,-10.925 10.925,-10.925 h 12.283 c 6.012,0 10.925,4.849 10.925,10.925 -0.064,6.077 -4.913,10.925 -10.925,10.925 z"
   id="path1926" />
	<path
   style="fill:#194f82"
   d="m 136.114,331.628 h -12.283 c -6.012,0 -10.925,-4.848 -10.925,-10.925 0,-6.077 4.848,-10.925 10.925,-10.925 h 12.283 c 6.012,0 10.925,4.849 10.925,10.925 -0.064,6.077 -4.978,10.925 -10.925,10.925 z"
   id="path1928" />
</g>
<g
   id="g1936"
   transform="matrix(0.05571684,0,0,0.05571684,1.1376908,1.1067829)">
	<path
   style="fill:#ffffff"
   d="m 212.591,304.735 c -1.616,-3.426 -4.913,-5.495 -8.663,-5.495 -5.301,0 -9.632,4.331 -9.632,9.632 0,5.301 4.331,9.632 9.632,9.632 3.685,0 7.046,-2.069 8.663,-5.495 0.84,-1.681 2.069,-3.168 3.62,-4.202 -1.552,-0.904 -2.78,-2.326 -3.62,-4.072 z"
   id="path1932" />
	<path
   style="fill:#ffffff"
   d="m 240.841,299.24 c -3.685,0 -7.046,2.069 -8.663,5.495 -0.84,1.681 -2.069,3.168 -3.62,4.267 1.552,1.099 2.78,2.457 3.62,4.202 1.616,3.426 4.913,5.495 8.663,5.495 5.301,0 9.632,-4.331 9.632,-9.632 0.065,-5.495 -4.331,-9.827 -9.632,-9.827 z"
   id="path1934" />
</g>
<path
   style="fill:#194f82;stroke-width:0.0557169"
   d="m 14.556589,16.562074 c -0.378207,0 -0.734794,0.118843 -1.030149,0.331349 -0.291733,-0.216126 -0.648322,-0.331349 -1.030148,-0.331349 -0.968917,0 -1.7577,0.788841 -1.7577,1.757699 0,0.968916 0.788839,1.757699 1.7577,1.757699 0.378205,0 0.734793,-0.118843 1.030148,-0.331347 0.291733,0.216125 0.64832,0.331347 1.030149,0.331347 0.968915,0 1.757698,-0.788839 1.757698,-1.757699 5.5e-5,-0.968858 -0.792405,-1.757699 -1.757698,-1.757699 z m 0,2.297986 c -0.205316,0 -0.392582,-0.115284 -0.482675,-0.306165 -0.0468,-0.09366 -0.115285,-0.17651 -0.201695,-0.234122 0.08647,-0.06123 0.154893,-0.136896 0.201695,-0.237743 0.09004,-0.190885 0.273736,-0.306164 0.482675,-0.306164 0.295354,0 0.536663,0.24131 0.536663,0.536664 0.0036,0.302599 -0.241309,0.54753 -0.536663,0.54753 z m -1.574,-0.302542 c -0.09005,0.190885 -0.273738,0.306164 -0.482676,0.306164 -0.295355,0 -0.536665,-0.24131 -0.536665,-0.536665 0,-0.295354 0.24131,-0.536665 0.536665,-0.536665 0.205316,0 0.392581,0.115285 0.482676,0.306165 0.0468,0.09366 0.115284,0.17651 0.201694,0.234122 -0.08648,0.05037 -0.154893,0.126032 -0.201694,0.226879 z"
   id="path1938" />
</svg>
