<?xml version="1.0" encoding="UTF-8" standalone="no"?>
<svg
   xmlns:dc="http://purl.org/dc/elements/1.1/"
   xmlns:cc="http://creativecommons.org/ns#"
   xmlns:rdf="http://www.w3.org/1999/02/22-rdf-syntax-ns#"
   xmlns:svg="http://www.w3.org/2000/svg"
   xmlns="http://www.w3.org/2000/svg"
   xmlns:sodipodi="http://sodipodi.sourceforge.net/DTD/sodipodi-0.dtd"
   xmlns:inkscape="http://www.inkscape.org/namespaces/inkscape"
   version="1.1"
   id="Layer_1"
   x="0px"
   y="0px"
   viewBox="0 0 23.999999 23.999999"
   xml:space="preserve"
   sodipodi:docname="FAVOURITE.svg"
   width="24"
   height="24"
   inkscape:version="1.0.2-2 (e86c870879, 2021-01-15)"><metadata
   id="metadata1440"><rdf:RDF><cc:Work
       rdf:about=""><dc:format>image/svg+xml</dc:format><dc:type
         rdf:resource="http://purl.org/dc/dcmitype/StillImage" /><dc:title></dc:title></cc:Work></rdf:RDF></metadata><defs
   id="defs1438" /><sodipodi:namedview
   pagecolor="#ffffff"
   bordercolor="#666666"
   borderopacity="1"
   objecttolerance="10"
   gridtolerance="10"
   guidetolerance="10"
   inkscape:pageopacity="0"
   inkscape:pageshadow="2"
   inkscape:window-width="1964"
   inkscape:window-height="1039"
   id="namedview1436"
   showgrid="true"
   inkscape:zoom="24.270626"
   inkscape:cx="-1.0944014"
   inkscape:cy="9.3610338"
   inkscape:window-x="0"
   inkscape:window-y="0"
   inkscape:window-maximized="0"
   inkscape:current-layer="Layer_1"><inkscape:grid
     type="xygrid"
     id="grid1442" /></sodipodi:namedview>
<path
   style="fill:#ffffff;stroke-width:0.0559268"
   d="m 11.258027,2.2285185 c -3.1888331,0 -5.7811495,2.5923172 -5.7811495,5.7811493 0,3.1888322 2.5923164,5.7847282 5.7811495,5.7847282 3.188831,0 5.781149,-2.595896 5.781149,-5.7847282 0,-3.1852528 -2.592318,-5.7811493 -5.781149,-5.7811493 z"
   id="path1397" />
<path
   style="fill:#ffc10d;stroke-width:0.0559268"
   d="m 11.258027,3.924162 c -1.6233307,0 -3.0261423,0.9545019 -3.6877549,2.3283428 h 2.0101753 c 0.3362309,0 0.6109996,0.271133 0.6109996,0.6109999 0,0.339867 -0.2711334,0.6109998 -0.6109996,0.6109998 H 7.20507 C 7.183369,7.6516806 7.165303,7.8324358 7.165303,8.0131911 c 0,0.1843901 0.018065,0.3615662 0.039767,0.5386871 h 1.222055 c 0.3362319,0 0.6110006,0.2711323 0.6110006,0.6109995 0,0.3362319 -0.2711334,0.6109995 -0.6110006,0.6109995 H 7.5666367 c 0.6616127,1.3738968 2.0607888,2.3283428 3.6877543,2.3283428 2.25603,0 4.092721,-1.836634 4.092721,-4.09272 0.0036,-2.2487032 -1.833056,-4.085338 -4.089085,-4.085338 z"
   id="path1399" />
<path
   style="fill:#56ace0;stroke-width:0.0559268"
   d="M 8.8320355,14.582572 V 21 l 2.0210255,-1.786021 c 0.22779,-0.202455 0.574871,-0.202455 0.809875,0 L 13.683962,21 v -6.417428 c -0.755627,0.281983 -1.572718,0.433879 -2.425992,0.433879 -0.853218,-5.6e-5 -1.6666728,-0.151896 -2.4259345,-0.433879 z"
   id="path1401" />
<path
   style="fill:#194f82;stroke-width:0.0559268"
   d="m 11.258027,1.0100981 c -3.864931,0 -7.0067848,3.1418535 -7.0067848,7.0067842 0,2.5272187 1.3485616,4.7434837 3.3587935,5.9763897 v 8.362561 c 0,0.524256 0.61827,0.802661 1.0123296,0.459158 l 2.6320807,-2.321129 2.632081,2.321129 c 0.394062,0.347081 1.012331,0.06868 1.012331,-0.459158 v -8.362618 c 2.013811,-1.232849 3.358794,-3.44917 3.358794,-5.9763887 0.0071,-3.8648747 -3.134696,-7.0067282 -6.999625,-7.0067282 z M 13.684017,21 11.659357,19.217558 c -0.22779,-0.202455 -0.574871,-0.202455 -0.809876,0 l -2.0210256,1.786021 v -6.421007 c 0.7556264,0.281983 1.5727166,0.433879 2.4259906,0.433879 0.853276,0 1.666729,-0.155476 2.425992,-0.433879 V 21 Z m -2.42599,-7.201969 c -3.1888331,0 -5.7811495,-2.592317 -5.7811495,-5.7811487 0,-3.188832 2.5923164,-5.7847285 5.7811495,-5.7847285 3.188831,0 5.781149,2.5923171 5.781149,5.7811491 0,3.1888321 -2.592318,5.7847281 -5.781149,5.7847281 z"
   id="path1403" />
<g
   id="g1405"
   transform="matrix(0.05592676,0,0,0.05592676,0.27512897,1.0100981)">
</g>
<g
   id="g1407"
   transform="matrix(0.05592676,0,0,0.05592676,0.27512897,1.0100981)">
</g>
<g
   id="g1409"
   transform="matrix(0.05592676,0,0,0.05592676,0.27512897,1.0100981)">
</g>
<g
   id="g1411"
   transform="matrix(0.05592676,0,0,0.05592676,0.27512897,1.0100981)">
</g>
<g
   id="g1413"
   transform="matrix(0.05592676,0,0,0.05592676,0.27512897,1.0100981)">
</g>
<g
   id="g1415"
   transform="matrix(0.05592676,0,0,0.05592676,0.27512897,1.0100981)">
</g>
<g
   id="g1417"
   transform="matrix(0.05592676,0,0,0.05592676,0.27512897,1.0100981)">
</g>
<g
   id="g1419"
   transform="matrix(0.05592676,0,0,0.05592676,0.27512897,1.0100981)">
</g>
<g
   id="g1421"
   transform="matrix(0.05592676,0,0,0.05592676,0.27512897,1.0100981)">
</g>
<g
   id="g1423"
   transform="matrix(0.05592676,0,0,0.05592676,0.27512897,1.0100981)">
</g>
<g
   id="g1425"
   transform="matrix(0.05592676,0,0,0.05592676,0.27512897,1.0100981)">
</g>
<g
   id="g1427"
   transform="matrix(0.05592676,0,0,0.05592676,0.27512897,1.0100981)">
</g>
<g
   id="g1429"
   transform="matrix(0.05592676,0,0,0.05592676,0.27512897,1.0100981)">
</g>
<g
   id="g1431"
   transform="matrix(0.05592676,0,0,0.05592676,0.27512897,1.0100981)">
</g>
<g
   id="g1433"
   transform="matrix(0.05592676,0,0,0.05592676,0.27512897,1.0100981)">
</g>
</svg>
