<?xml version="1.0" encoding="UTF-8" standalone="no"?>
<svg
   xmlns:dc="http://purl.org/dc/elements/1.1/"
   xmlns:cc="http://creativecommons.org/ns#"
   xmlns:rdf="http://www.w3.org/1999/02/22-rdf-syntax-ns#"
   xmlns:svg="http://www.w3.org/2000/svg"
   xmlns="http://www.w3.org/2000/svg"
   xmlns:sodipodi="http://sodipodi.sourceforge.net/DTD/sodipodi-0.dtd"
   xmlns:inkscape="http://www.inkscape.org/namespaces/inkscape"
   version="1.1"
   id="Layer_1"
   x="0px"
   y="0px"
   viewBox="0 0 24 24"
   xml:space="preserve"
   sodipodi:docname="dumbbell-gym-svgrepo-com.svg"
   width="24"
   height="24"
   inkscape:version="1.0.2-2 (e86c870879, 2021-01-15)"><metadata
   id="metadata18021"><rdf:RDF><cc:Work
       rdf:about=""><dc:format>image/svg+xml</dc:format><dc:type
         rdf:resource="http://purl.org/dc/dcmitype/StillImage" /><dc:title></dc:title></cc:Work></rdf:RDF></metadata><defs
   id="defs18019" /><sodipodi:namedview
   pagecolor="#ffffff"
   bordercolor="#666666"
   borderopacity="1"
   objecttolerance="10"
   gridtolerance="10"
   guidetolerance="10"
   inkscape:pageopacity="0"
   inkscape:pageshadow="2"
   inkscape:window-width="2001"
   inkscape:window-height="904"
   id="namedview18017"
   showgrid="true"
   inkscape:zoom="15.68704"
   inkscape:cx="8.0903204"
   inkscape:cy="19.497139"
   inkscape:window-x="332"
   inkscape:window-y="240"
   inkscape:window-maximized="0"
   inkscape:current-layer="Layer_1"><inkscape:grid
     type="xygrid"
     id="grid19984" /></sodipodi:namedview>
<g
   id="g17962"
   transform="matrix(0.04293902,0,0,0.04293902,1.520762,1.0152178)">
	
	<path
   style="fill:#ffc10d;fill-opacity:1"
   d="m 401.067,324.267 c 0,-75.947 -63.147,-179.2 -162.133,-179.2 -30.72,0 -145.067,80.213 -145.067,179.2 0,98.987 114.347,179.2 145.067,179.2 53.759,0 162.133,-57.174 162.133,-179.2"
   id="path17960" />
</g>
<path
   style="fill:#ffffff;stroke-width:0.0429391"
   d="m 5.5513202,14.938928 c 0,-4.030559 4.3969565,-7.3282754 5.9725178,-7.6580473 -3.9572604,0.2931448 -7.0717567,3.6274883 -7.0717567,7.6580473 0,4.030557 3.1144963,7.364901 7.0717567,7.658004 C 9.9482767,22.267159 5.5513202,18.969441 5.5513202,14.938928"
   id="path17964" />
<path
   style="fill:#ffa800;stroke-width:0.0429391"
   d="m 12.146754,7.2442537 c -0.03662,0 -0.109922,0 -0.146549,0 4.103811,0.1465514 6.741984,4.4702523 6.741984,7.6946743 0,5.056499 -4.396956,7.548122 -6.741984,7.694674 0.03662,0 0.109922,0 0.146549,0 4.250407,0 7.694675,-3.444269 7.694675,-7.694674 0,-4.250407 -3.44431,-7.6946743 -7.694675,-7.6946743"
   id="path17966" />
<path
   style="fill:#ffc10d;fill-opacity:1;stroke-width:0.0429391"
   d="M 8.8490378,8.050348 C 8.7391137,6.6579643 8.7024865,5.3022505 8.6658167,3.9465364 9.6185049,3.7266886 11.15744,3.5801377 12.146754,3.5801377 c 0.989316,0 2.454954,0.1465509 3.480938,0.3663987 0,1.3557141 -0.0733,2.7114706 -0.183219,4.1038116 0.549619,0.3297718 0.439696,-0.2931448 1.172535,0.6595436 v 0 C 16.800229,6.5480406 16.910153,5.2656234 16.910153,3.1037721 16.946775,2.5541525 16.580381,2.0411598 16.104058,1.931236 v 0 c -2.6748,-0.7328404 -5.386271,-0.7328404 -7.9511483,0 v 0 C 7.7132145,2.0411598 7.3468155,2.5541525 7.3834426,3.1037721 c 0,2.1618513 0.1099241,3.4442685 0.2931447,5.6061195 C 8.1528243,8.0869751 8.2261214,8.4534168 8.8490378,8.050348"
   id="path17968" />
<path
   style="fill:#ffffff;stroke-width:0.0429391"
   d="M 7.4200264,3.1037721 C 7.3833999,2.5541525 7.7497982,2.0411598 8.2261214,1.931236 v 0 C 9.5085808,1.5648373 10.827668,1.3816165 12.146754,1.3816165 c -1.648857,0 -3.2610897,0.1832208 -4.8366512,0.5496195 v 0 C 6.7604833,2.0411598 6.2841603,2.5541525 6.3207873,3.1037721 c 0,2.1618513 0.1099242,4.3236599 0.366399,6.4488834 C 7.0169582,9.2228837 7.34673,8.929739 7.7131283,8.6732644 7.5299505,6.5480406 7.4200264,5.2656234 7.4200264,3.1037721"
   id="path17970" />
<path
   style="fill:#ffa800;stroke-width:0.0429391"
   d="m 17.020034,1.931236 v 0 c -1.612231,-0.3663987 -3.26109,-0.5496195 -4.87328,-0.5496195 1.319088,0 2.638175,0.1832208 3.957262,0.5496195 v 0 c 0.439694,0.1099238 0.842764,0.6229165 0.806093,1.1725361 0,2.1618513 -0.109922,3.4442685 -0.293144,5.5694923 0.366399,0.2564746 0.732842,0.5496193 1.025943,0.8793911 v 0 C 17.8628,7.3908051 18.009348,5.2289534 18.009348,3.0671451 18.045978,2.5541525 17.569654,2.0411598 17.020034,1.931236"
   id="path17972" />
<path
   d="m 12.146754,23 c -4.4335823,0 -8.0610718,-3.627488 -8.0610718,-8.061072 0,-0.512994 0.036627,-1.025943 0.1465507,-1.538935 0.036627,-0.183221 0.2198484,-0.329772 0.4396959,-0.293145 0.1832206,0.03662 0.3297719,0.219847 0.2931448,0.439696 -0.1099242,0.439695 -0.1465505,0.916018 -0.1465505,1.392384 0,4.030557 3.2977168,7.328275 7.3282739,7.328275 4.030559,0 7.328276,-3.297718 7.328276,-7.328275 0,-4.030559 -3.297803,-7.3282754 -7.328319,-7.3282754 -2.6747996,0 -5.1664229,1.4656376 -6.4488831,3.8473364 -0.1099235,0.18322 -0.3297718,0.219848 -0.5129923,0.146552 C 5.0016574,11.494616 4.9284036,11.274769 5.0383272,11.091549 6.4673386,8.4900005 9.1788097,6.8778118 12.146754,6.8778118 c 4.433584,0 8.061074,3.6274892 8.061074,8.0610732 0,4.433582 -3.62749,8.061115 -8.061074,8.061115 z"
   id="path17974"
   style="fill:#194f82;fill-opacity:1;stroke:#194f82;stroke-width:0.0429391;stroke-opacity:1" />
<path
   d="m 5.1848786,12.374007 c 0,-0.219849 -0.1465514,-0.366397 -0.3663991,-0.366397 -0.2198476,0 -0.3663982,0.146548 -0.3663982,0.366397 0,0.219848 0.1465506,0.366398 0.3663982,0.366398 0.2198477,0 0.3663991,-0.14655 0.3663991,-0.366398"
   id="path17976"
   style="fill:#194f82;fill-opacity:1;stroke-width:0.0429391" />
<path
   d="m 8.1161971,19.042739 c -0.1099242,0 -0.1832205,-0.03662 -0.2564748,-0.109924 -0.8427641,-0.879391 -1.355757,-2.015257 -1.5023078,-3.187794 -0.036627,-0.219848 0.073297,-0.403068 0.2931447,-0.439695 0.2198476,-0.03663 0.4030688,0.109924 0.4030688,0.329771 0.1465507,1.062613 0.5862466,2.015258 1.3190866,2.784725 0.1465513,0.146551 0.1465513,0.3664 -0.036627,0.512993 -0.036673,0.0733 -0.1465941,0.109924 -0.2198905,0.109924 z"
   id="path17978"
   style="fill:#194f82;fill-opacity:1;stroke-width:0.0429391" />
<path
   d="m 12.146754,20.80152 c -0.732839,0 -1.42901,-0.146549 -2.088553,-0.403068 -0.1832213,-0.0733 -0.2931456,-0.293144 -0.2198486,-0.476321 0.073297,-0.183178 0.2931446,-0.293144 0.4763236,-0.219848 0.586246,0.219848 1.209162,0.329771 1.832078,0.329771 0.219849,0 0.3664,0.146551 0.3664,0.366398 0,0.219849 -0.183222,0.403068 -0.3664,0.403068 z"
   id="path17980"
   style="fill:#194f82;fill-opacity:1;stroke-width:0.0429391" />
<path
   d="m 9.4352845,19.519061 c 0,-0.219846 -0.1465513,-0.366399 -0.366399,-0.366399 -0.2198477,0 -0.366399,0.146553 -0.366399,0.366399 0,0.219849 0.1465513,0.366399 0.366399,0.366399 0.2198477,4.3e-5 0.366399,-0.183177 0.366399,-0.366399"
   id="path17982"
   style="fill:#194f82;fill-opacity:1;stroke-width:0.0429391" />
<path
   d="m 17.642951,9.9556817 c -0.109924,0 -0.183222,-0.036624 -0.256475,-0.1099239 C 16.836857,9.2595109 16.140685,8.7831453 15.407846,8.4167469 15.261294,8.3434499 15.187998,8.1968992 15.224624,8.050348 15.334548,6.7312612 15.407846,5.4854712 15.444473,4.2763081 14.235309,4.0564604 13.172697,3.9465364 12.146754,3.9465364 c -1.025942,0 -2.1618503,0.109924 -3.2977162,0.2931447 0.036627,1.1725362 0.1099235,2.4183259 0.2198477,3.7740398 0,0.1465511 -0.073297,0.2931446 -0.1832212,0.3663989 -0.73284,0.3663989 -1.3923837,0.8427639 -1.9786302,1.4290107 -0.1099236,0.1099239 -0.2564749,0.1465512 -0.3663991,0.0733 -0.1465506,0 -0.2564747,-0.14655 -0.2564747,-0.256474 C 6.0643126,7.4274749 5.9177619,5.2289965 5.9177619,3.140442 5.8811354,2.4076017 6.4307544,1.7114312 7.2002221,1.5648803 c 3.1877939,-0.73284044 6.5588069,-0.73284044 9.9297789,0 0.769468,0.1465509 1.319087,0.8427642 1.282459,1.5755617 0,2.0885545 -0.109923,4.2870329 -0.366398,6.4855113 0,0.14655 -0.109924,0.256474 -0.256474,0.2931446 -0.03671,-4.35e-5 -0.110009,0.03659 -0.146637,0.03659 z M 15.994092,7.8671273 c 0.512992,0.2564748 0.952688,0.5862468 1.392384,0.9526878 0.146551,-1.9420033 0.256475,-3.8473365 0.256475,-5.716043 0.03662,-0.4030687 -0.293144,-0.7328404 -0.696171,-0.8060944 -3.261091,-0.7328404 -6.522138,-0.7328404 -9.6366772,0 -0.3663989,0.073296 -0.6961707,0.4396958 -0.6595436,0.7694674 0,1.9053335 0.1099241,3.8107102 0.2931447,5.7160434 C 7.3833999,8.4167897 7.8230952,8.123645 8.3360882,7.8305003 8.189537,6.4381166 8.1162399,5.1556995 8.1162399,3.9465364 8.1162399,3.7633155 8.226164,3.6167647 8.4093846,3.5801377 9.6918447,3.3236629 10.974261,3.213739 12.146797,3.213739 c 1.172537,0 2.345031,0.1099239 3.737414,0.3663987 0.14655,0.036628 0.293145,0.1832209 0.293145,0.3663987 -0.03671,1.282417 -0.07334,2.5648773 -0.183264,3.9205909 z"
   id="path17984"
   style="fill:#194f82;fill-opacity:1;stroke-width:0.0429391" />
</svg>
