<?xml version="1.0" encoding="UTF-8" standalone="no"?>
<svg
   xmlns:dc="http://purl.org/dc/elements/1.1/"
   xmlns:cc="http://creativecommons.org/ns#"
   xmlns:rdf="http://www.w3.org/1999/02/22-rdf-syntax-ns#"
   xmlns:svg="http://www.w3.org/2000/svg"
   xmlns="http://www.w3.org/2000/svg"
   xmlns:sodipodi="http://sodipodi.sourceforge.net/DTD/sodipodi-0.dtd"
   xmlns:inkscape="http://www.inkscape.org/namespaces/inkscape"
   version="1.1"
   id="Layer_1"
   x="0px"
   y="0px"
   viewBox="0 0 24.000001 24.000001"
   xml:space="preserve"
   sodipodi:docname="NAV_FILTER.svg"
   width="24"
   height="24"
   inkscape:version="1.0.2-2 (e86c870879, 2021-01-15)"><metadata
   id="metadata1155"><rdf:RDF><cc:Work
       rdf:about=""><dc:format>image/svg+xml</dc:format><dc:type
         rdf:resource="http://purl.org/dc/dcmitype/StillImage" /><dc:title></dc:title></cc:Work></rdf:RDF></metadata><defs
   id="defs1153" /><sodipodi:namedview
   pagecolor="#ffffff"
   bordercolor="#666666"
   borderopacity="1"
   objecttolerance="10"
   gridtolerance="10"
   guidetolerance="10"
   inkscape:pageopacity="0"
   inkscape:pageshadow="2"
   inkscape:window-width="1820"
   inkscape:window-height="1095"
   id="namedview1151"
   showgrid="true"
   inkscape:zoom="90.509668"
   inkscape:cx="18.192393"
   inkscape:cy="21.464811"
   inkscape:window-x="1541"
   inkscape:window-y="135"
   inkscape:window-maximized="0"
   inkscape:current-layer="Layer_1"><inkscape:grid
     type="xygrid"
     id="grid1157" /></sodipodi:namedview>
<path
   style="fill:#ffffff;stroke-width:0.0560557"
   d="m 13.293641,20.338324 v -8.630271 c 0,-0.163106 0.06523,-0.318976 0.181131,-0.434983 L 21.590236,3.2191307 C 21.803982,3.0052845 21.782237,2.8023157 21.724289,2.6645548 21.640952,2.4615859 21.387362,2.2223406 20.948997,2.2223406 H 3.0261991 c -0.4383646,0 -0.6919571,0.2392453 -0.7752923,0.4422142 -0.057947,0.1341163 -0.079692,0.3407297 0.1340535,0.5545759 L 10.500369,11.27307 c 0.115952,0.112362 0.18113,0.271822 0.18113,0.434983 v 9.761176 z"
   id="path1114" />
<path
   style="fill:#56ace0;stroke-width:0.0560557"
   d="m 4.348579,3.4438543 1.7752597,1.7615682 c 0.00363,0 0.014514,0 0.018102,0 h 5.4489033 c 0.336928,0 0.612265,0.2718212 0.612265,0.6125509 0,0.3370854 -0.271692,0.6125512 -0.612265,0.6125512 H 7.352011 l 1.2354018,1.2215138 h 1.7788462 c 0.336928,0 0.612264,0.2718213 0.612264,0.6125511 0,0.3370852 -0.271692,0.6125512 -0.612264,0.6125512 H 9.8155852 l 2.1774208,2.1493953 7.633555,-7.5791494 z"
   id="path1116" />
<path
   style="fill:#194f82;stroke-width:0.0560557"
   d="M 20.952582,1.0008266 H 3.0261991 c -1.7136687,0 -2.68824858,1.8775744 -1.5035092,3.0882108 l 7.9415084,7.8727256 v 10.43176 c 0.00363,0.398704 0.4239061,0.750312 0.8513987,0.561808 l 3.833084,-1.656438 c 0.22462,-0.09426 0.369546,-0.315332 0.369546,-0.561809 V 11.961763 L 22.456092,4.0890374 C 23.65529,2.8928667 22.745945,1.0008266 20.952582,1.0008266 Z m 0.64124,2.2183041 -8.115408,8.0539393 c -0.115953,0.112362 -0.181129,0.271822 -0.181129,0.434983 v 8.630271 l -2.612144,1.127262 v -9.757533 c 0,-0.163106 -0.06523,-0.318976 -0.181128,-0.434983 L 2.3885472,3.2191307 C 1.9212085,2.7261743 2.4501379,2.1933529 3.0297858,2.2223406 H 20.952527 c 0.641295,-0.01811 1.083302,0.5944408 0.641295,0.9967901 z"
   id="path1118" />
<g
   id="g1120"
   transform="matrix(0.05604254,0,0,0.05606874,1.0009899,0.99959315)">
</g>
<g
   id="g1122"
   transform="matrix(0.05604254,0,0,0.05606874,1.0009899,0.99959315)">
</g>
<g
   id="g1124"
   transform="matrix(0.05604254,0,0,0.05606874,1.0009899,0.99959315)">
</g>
<g
   id="g1126"
   transform="matrix(0.05604254,0,0,0.05606874,1.0009899,0.99959315)">
</g>
<g
   id="g1128"
   transform="matrix(0.05604254,0,0,0.05606874,1.0009899,0.99959315)">
</g>
<g
   id="g1130"
   transform="matrix(0.05604254,0,0,0.05606874,1.0009899,0.99959315)">
</g>
<g
   id="g1132"
   transform="matrix(0.05604254,0,0,0.05606874,1.0009899,0.99959315)">
</g>
<g
   id="g1134"
   transform="matrix(0.05604254,0,0,0.05606874,1.0009899,0.99959315)">
</g>
<g
   id="g1136"
   transform="matrix(0.05604254,0,0,0.05606874,1.0009899,0.99959315)">
</g>
<g
   id="g1138"
   transform="matrix(0.05604254,0,0,0.05606874,1.0009899,0.99959315)">
</g>
<g
   id="g1140"
   transform="matrix(0.05604254,0,0,0.05606874,1.0009899,0.99959315)">
</g>
<g
   id="g1142"
   transform="matrix(0.05604254,0,0,0.05606874,1.0009899,0.99959315)">
</g>
<g
   id="g1144"
   transform="matrix(0.05604254,0,0,0.05606874,1.0009899,0.99959315)">
</g>
<g
   id="g1146"
   transform="matrix(0.05604254,0,0,0.05606874,1.0009899,0.99959315)">
</g>
<g
   id="g1148"
   transform="matrix(0.05604254,0,0,0.05606874,1.0009899,0.99959315)">
</g>
</svg>
