<?xml version="1.0" encoding="UTF-8" standalone="no"?>
<svg
   xmlns:dc="http://purl.org/dc/elements/1.1/"
   xmlns:cc="http://creativecommons.org/ns#"
   xmlns:rdf="http://www.w3.org/1999/02/22-rdf-syntax-ns#"
   xmlns:svg="http://www.w3.org/2000/svg"
   xmlns="http://www.w3.org/2000/svg"
   xmlns:sodipodi="http://sodipodi.sourceforge.net/DTD/sodipodi-0.dtd"
   xmlns:inkscape="http://www.inkscape.org/namespaces/inkscape"
   version="1.1"
   id="Layer_1"
   x="0px"
   y="0px"
   viewBox="0 0 24 24"
   xml:space="preserve"
   sodipodi:docname="NAV_GRM.svg"
   width="24"
   height="24"
   inkscape:version="1.0.2-2 (e86c870879, 2021-01-15)"><metadata
   id="metadata990"><rdf:RDF><cc:Work
       rdf:about=""><dc:format>image/svg+xml</dc:format><dc:type
         rdf:resource="http://purl.org/dc/dcmitype/StillImage" /><dc:title></dc:title></cc:Work></rdf:RDF></metadata><defs
   id="defs988" /><sodipodi:namedview
   pagecolor="#ffffff"
   bordercolor="#666666"
   borderopacity="1"
   objecttolerance="10"
   gridtolerance="10"
   guidetolerance="10"
   inkscape:pageopacity="0"
   inkscape:pageshadow="2"
   inkscape:window-width="1535"
   inkscape:window-height="1237"
   id="namedview986"
   showgrid="false"
   inkscape:zoom="19.796132"
   inkscape:cx="14.297351"
   inkscape:cy="4.3916533"
   inkscape:window-x="1755"
   inkscape:window-y="44"
   inkscape:window-maximized="0"
   inkscape:current-layer="Layer_1"><inkscape:grid
     type="xygrid"
     id="grid992" /></sodipodi:namedview>

<g
   id="g967"
   transform="matrix(0.05022374,0,0,0.05022374,-1.1628987,-0.59897764)">
	<rect
   x="40.681999"
   y="73.142998"
   style="fill:#194f82"
   width="316.604"
   height="26.122"
   id="rect957" />
	<rect
   x="40.681999"
   y="153.60001"
   style="fill:#194f82"
   width="285.25699"
   height="26.122"
   id="rect959" />
	<rect
   x="40.681999"
   y="238.237"
   style="fill:#194f82"
   width="212.114"
   height="26.122"
   id="rect961" />
	<rect
   x="40.681999"
   y="318.694"
   style="fill:#194f82"
   width="153.60001"
   height="26.122"
   id="rect963" />
	<rect
   x="40.681999"
   y="402.28601"
   style="fill:#194f82"
   width="92.996002"
   height="26.122"
   id="rect965" />
</g>
<polygon
   style="fill:#ffd15c"
   points="163.98,377.208 180.699,293.616 243.393,231.967 354.152,341.682 291.458,404.376 207.866,421.094 153.531,431.543 "
   id="polygon969"
   transform="matrix(0.05022374,0,0,0.05022374,-1.1628987,-0.59897764)" />
<polygon
   style="fill:#ff7058"
   points="301.907,338.547 236.078,348.996 246.527,283.167 384.454,145.241 439.833,200.62 "
   id="polygon971"
   transform="matrix(0.05022374,0,0,0.05022374,-1.1628987,-0.59897764)" />
<g
   id="g977"
   transform="matrix(0.05022374,0,0,0.05022374,-1.1628987,-0.59897764)">
	<polygon
   style="fill:#f1543f"
   points="291.458,404.376 301.907,338.547 439.833,200.62 468.046,227.788 "
   id="polygon973" />
	<polygon
   style="fill:#f1543f"
   points="246.527,283.167 180.699,293.616 357.287,117.029 384.454,145.241 "
   id="polygon975" />
</g>
<g
   id="g983"
   transform="matrix(0.05022374,0,0,0.05022374,-1.1628987,-0.59897764)">
	<polygon
   style="fill:#40596b"
   points="153.531,431.543 163.98,377.208 207.866,421.094 "
   id="polygon979" />
	<path
   style="fill:#40596b"
   d="M 493.123,172.408 412.666,91.951 c -8.359,-8.359 -20.898,-8.359 -29.257,0 l -25.078,25.078 110.759,110.759 25.078,-25.078 c 7.314,-8.359 7.314,-21.943 -1.045,-30.302 z"
   id="path981" />
</g>
</svg>
