<?xml version="1.0" encoding="UTF-8" standalone="no"?>
<svg
   xmlns:dc="http://purl.org/dc/elements/1.1/"
   xmlns:cc="http://creativecommons.org/ns#"
   xmlns:rdf="http://www.w3.org/1999/02/22-rdf-syntax-ns#"
   xmlns:svg="http://www.w3.org/2000/svg"
   xmlns="http://www.w3.org/2000/svg"
   xmlns:sodipodi="http://sodipodi.sourceforge.net/DTD/sodipodi-0.dtd"
   xmlns:inkscape="http://www.inkscape.org/namespaces/inkscape"
   version="1.1"
   id="Layer_1"
   x="0px"
   y="0px"
   viewBox="0 0 24 24"
   xml:space="preserve"
   sodipodi:docname="lifesaver-help-svgrepo-com.svg"
   width="24"
   height="24"
   inkscape:version="1.0.2-2 (e86c870879, 2021-01-15)"><metadata
   id="metadata945"><rdf:RDF><cc:Work
       rdf:about=""><dc:format>image/svg+xml</dc:format><dc:type
         rdf:resource="http://purl.org/dc/dcmitype/StillImage" /><dc:title /></cc:Work></rdf:RDF></metadata><defs
   id="defs943"><filter
     inkscape:collect="always"
     style="color-interpolation-filters:sRGB"
     id="filter969"
     x="-4.3198627e-05"
     width="1.0000864"
     y="-4.3201373e-05"
     height="1.0000864"><feGaussianBlur
       inkscape:collect="always"
       stdDeviation="0.00039572051"
       id="feGaussianBlur971" /></filter></defs><sodipodi:namedview
   pagecolor="#ffffff"
   bordercolor="#666666"
   borderopacity="1"
   objecttolerance="10"
   gridtolerance="10"
   guidetolerance="10"
   inkscape:pageopacity="0"
   inkscape:pageshadow="2"
   inkscape:window-width="2052"
   inkscape:window-height="957"
   id="namedview941"
   showgrid="true"
   inkscape:zoom="17.995601"
   inkscape:cx="6.7761151"
   inkscape:cy="14.546206"
   inkscape:window-x="0"
   inkscape:window-y="0"
   inkscape:window-maximized="0"
   inkscape:current-layer="Layer_1"
   inkscape:document-rotation="0"><inkscape:grid
     type="xygrid"
     id="grid947" /></sodipodi:namedview>
<path
   style="fill:#73d0f4;stroke-width:0.0429385;fill-opacity:1"
   d="M 17.613052,9.779598 C 17.000773,8.2253625 15.757881,6.9825492 14.202774,6.3699232 L 13.732669,6.184521 14.992781,1.9845038 15.539489,2.1827442 c 2.918918,1.0596008 5.200955,3.3411473 6.260663,6.2598797 l 0.198597,0.5466746 -4.200626,1.2600315 z"
   id="path890" />
<g
   id="g896"
   transform="matrix(0.04293979,0,0,0.04293706,0.99848853,1)">
	<path
   style="fill:#ff877f"
   d="m 391.339,296.602 2.423,-11.52 c 2.014,-9.609 3.038,-19.388 3.038,-29.082 0,-9.694 -1.024,-19.473 -3.038,-29.082 l -2.423,-11.52 97.749,-29.329 3.166,13.158 c 4.608,19.2 6.946,38.289 6.946,56.772 0,18.483 -2.338,37.572 -6.946,56.764 l -3.166,13.158 z"
   id="path892" />
	<path
   style="fill:#ff877f"
   d="m 256,499.2 c -18.492,0 -37.589,-2.338 -56.781,-6.955 l -13.158,-3.157 29.329,-97.741 11.511,2.415 c 9.617,2.014 19.413,3.038 29.099,3.038 9.685,0 19.482,-1.024 29.107,-3.038 l 11.511,-2.415 29.329,97.741 -13.158,3.157 c -19.2,4.617 -38.297,6.955 -56.789,6.955 z"
   id="path894" />
</g>
<path
   style="fill:#73d0f4;stroke-width:0.0429385;fill-opacity:1"
   d="m 13.732669,17.799253 0.470105,-0.185403 c 1.554721,-0.612625 2.797999,-1.855439 3.410278,-3.409674 l 0.185026,-0.470074 4.200629,1.26003 -0.198596,0.546675 c -1.060056,2.919076 -3.341747,5.200279 -6.260664,6.259879 l -0.54671,0.198241 z"
   id="path898" />
<path
   style="fill:#ff877f;stroke-width:0.0429385"
   d="M 13.240922,6.076792 C 12.827584,5.990317 12.406946,5.9463492 11.991074,5.9463492 c -0.415872,0 -0.836554,0.043968 -1.249848,0.1304428 L 10.246946,6.1804849 8.9879083,1.9841603 9.5529096,1.848608 C 10.37701,1.6499812 11.197032,1.5495944 11.991074,1.5495944 c 0.794042,0 1.614064,0.1003868 2.438164,0.2986272 l 0.565002,0.1355522 -1.259381,4.1970546 z"
   id="path900" />
<path
   style="fill:#73d0f4;stroke-width:0.0429385;fill-opacity:1"
   d="M 1.9830548,8.9896421 2.1816514,8.4429674 C 3.2413624,5.5242779 5.5230538,3.242345 8.4423154,2.1830877 L 8.9890248,1.9848473 10.249136,6.1848645 9.7790316,6.3702667 C 8.22431,6.9828928 6.9814179,8.2253195 6.3687529,9.7799418 L 6.1837254,10.250016 Z"
   id="path902" />
<path
   style="fill:#ff877f;stroke-width:0.0429385"
   d="M 1.8463776,14.429166 C 1.648511,13.605119 1.5481177,12.785492 1.5481177,11.991887 c 0,-0.793606 0.1003933,-1.613231 0.2982599,-2.4372797 L 1.9823248,8.9896421 6.1796462,10.248943 6.075603,10.743578 c -0.086481,0.412195 -0.1304511,0.832078 -0.1304511,1.248309 0,0.416233 0.043972,0.836114 0.1304511,1.248696 l 0.1040432,0.494635 -4.1973214,1.258956 z"
   id="path904" />
<path
   style="fill:#73d0f4;stroke-width:0.0429385;fill-opacity:1"
   d="M 8.4423154,21.800686 C 5.5233975,20.74143 3.2413624,18.459539 2.1816514,15.540807 L 1.9830548,14.994132 6.1836825,13.734444 6.3687101,14.20452 c 0.6122784,1.553891 1.8551705,2.797048 3.4102771,3.409674 l 0.4701058,0.185403 -1.2601113,4.200017 z"
   id="path906" />
<path
   style="fill:#3d6889;stroke-width:0.0429385;filter:url(#filter969);fill-opacity:1"
   d="M 11.991074,1 C 5.9202469,1 0.99848853,5.9210591 0.99848853,11.991887 c 0,6.070441 4.92175837,10.991887 10.99258547,10.991887 6.070827,0 10.992586,-4.921446 10.992586,-10.991887 C 22.98366,5.9210591 18.061901,1 11.991074,1 Z m 0,1.0991887 c 0.796577,0 1.567173,0.1048094 2.30956,0.2832129 L 13.353425,5.539263 C 12.913722,5.4469483 12.45826,5.3967548 11.991074,5.3967548 c -0.467185,0 -0.922648,0.050193 -1.362694,0.1425082 L 9.6811713,2.3824016 C 10.423901,2.2039981 11.194498,2.0991887 11.991074,2.0991887 Z m 5.496293,9.8926983 c 0,3.030454 -2.465646,5.495944 -5.496293,5.495944 -3.0306472,0 -5.4962928,-2.46549 -5.4962928,-5.495944 0,-3.0304546 2.4656456,-5.4959435 5.4962928,-5.4959435 3.030647,0 5.496293,2.4654889 5.496293,5.4959435 z M 8.6299191,2.6997063 9.5778581,5.8587576 C 7.8787736,6.5281463 6.5274156,7.8794184 5.8579843,9.5780521 L 2.6987323,8.6301731 C 3.6971682,5.878938 5.87808,3.6981219 8.6299191,2.6997063 Z M 2.097747,11.991887 c 0,-0.796182 0.1048161,-1.566731 0.2832309,-2.3090263 l 3.157062,0.9467613 c -0.092321,0.440063 -0.1425173,0.89511 -0.1425173,1.362265 0,0.467155 0.050196,0.922203 0.1425173,1.361877 l -3.157062,0.94715 C 2.2025631,13.558617 2.097747,12.788069 2.097747,11.991887 Z m 6.5321721,9.292181 C 5.8781231,20.285651 3.6971682,18.104493 2.698303,15.353214 l 3.1592518,-0.947878 c 0.6694314,1.698977 2.0211757,3.050249 3.7198735,3.719295 z m 3.3611549,0.600518 c -0.796576,0 -1.567173,-0.10481 -2.3095599,-0.283213 l 0.9472089,-3.156861 c 0.439703,0.09231 0.895166,0.142508 1.362351,0.142508 0.467186,0 0.922648,-0.05019 1.362736,-0.142508 l 0.94721,3.156861 c -0.742773,0.178446 -1.513369,0.283213 -2.309946,0.283213 z m 3.361155,-0.600518 -0.947938,-3.159052 c 1.699084,-0.669389 3.050828,-2.02066 3.719874,-3.719294 l 3.15925,0.947879 c -0.998435,2.750892 -3.179346,4.93205 -5.931186,5.930467 z m 6.532172,-9.292181 c 0,0.796182 -0.104816,1.56673 -0.283231,2.309027 l -3.157063,-0.94715 c 0.09232,-0.439674 0.142519,-0.894722 0.142519,-1.361877 0,-0.467155 -0.05019,-0.922202 -0.142519,-1.361877 L 21.60117,9.6828607 c 0.178458,0.7422953 0.283231,1.5128443 0.283231,2.3090263 z M 18.12455,9.5780521 C 17.455119,7.8790751 16.103761,6.5278027 14.404675,5.8587576 l 0.947941,-3.1590513 c 2.751453,0.9984156 4.93275,3.1795752 5.931616,5.9308532 z"
   id="path908" />
<g
   id="g910"
   transform="matrix(0.04293979,0,0,0.04293706,0.99848853,1)">
</g>
<g
   id="g912"
   transform="matrix(0.04293979,0,0,0.04293706,0.99848853,1)">
</g>
<g
   id="g914"
   transform="matrix(0.04293979,0,0,0.04293706,0.99848853,1)">
</g>
<g
   id="g916"
   transform="matrix(0.04293979,0,0,0.04293706,0.99848853,1)">
</g>
<g
   id="g918"
   transform="matrix(0.04293979,0,0,0.04293706,0.99848853,1)">
</g>
<g
   id="g920"
   transform="matrix(0.04293979,0,0,0.04293706,0.99848853,1)">
</g>
<g
   id="g922"
   transform="matrix(0.04293979,0,0,0.04293706,0.99848853,1)">
</g>
<g
   id="g924"
   transform="matrix(0.04293979,0,0,0.04293706,0.99848853,1)">
</g>
<g
   id="g926"
   transform="matrix(0.04293979,0,0,0.04293706,0.99848853,1)">
</g>
<g
   id="g928"
   transform="matrix(0.04293979,0,0,0.04293706,0.99848853,1)">
</g>
<g
   id="g930"
   transform="matrix(0.04293979,0,0,0.04293706,0.99848853,1)">
</g>
<g
   id="g932"
   transform="matrix(0.04293979,0,0,0.04293706,0.99848853,1)">
</g>
<g
   id="g934"
   transform="matrix(0.04293979,0,0,0.04293706,0.99848853,1)">
</g>
<g
   id="g936"
   transform="matrix(0.04293979,0,0,0.04293706,0.99848853,1)">
</g>
<g
   id="g938"
   transform="matrix(0.04293979,0,0,0.04293706,0.99848853,1)">
</g>
</svg>
