<?xml version="1.0" encoding="UTF-8" standalone="no"?>
<svg
   xmlns:dc="http://purl.org/dc/elements/1.1/"
   xmlns:cc="http://creativecommons.org/ns#"
   xmlns:rdf="http://www.w3.org/1999/02/22-rdf-syntax-ns#"
   xmlns:svg="http://www.w3.org/2000/svg"
   xmlns="http://www.w3.org/2000/svg"
   xmlns:sodipodi="http://sodipodi.sourceforge.net/DTD/sodipodi-0.dtd"
   xmlns:inkscape="http://www.inkscape.org/namespaces/inkscape"
   version="1.1"
   id="Layer_1"
   x="0px"
   y="0px"
   viewBox="0 0 24.000001 24.000001"
   xml:space="preserve"
   sodipodi:docname="PIE_CHART.svg"
   width="24"
   height="24"
   inkscape:version="1.0.2-2 (e86c870879, 2021-01-15)"><metadata
   id="metadata880"><rdf:RDF><cc:Work
       rdf:about=""><dc:format>image/svg+xml</dc:format><dc:type
         rdf:resource="http://purl.org/dc/dcmitype/StillImage" /><dc:title></dc:title></cc:Work></rdf:RDF></metadata><defs
   id="defs878" /><sodipodi:namedview
   pagecolor="#ffffff"
   bordercolor="#666666"
   borderopacity="1"
   objecttolerance="10"
   gridtolerance="10"
   guidetolerance="10"
   inkscape:pageopacity="0"
   inkscape:pageshadow="2"
   inkscape:window-width="1913"
   inkscape:window-height="1084"
   id="namedview876"
   showgrid="true"
   inkscape:zoom="144.52389"
   inkscape:cx="22.258651"
   inkscape:cy="20.61431"
   inkscape:window-x="0"
   inkscape:window-y="0"
   inkscape:window-maximized="0"
   inkscape:current-layer="Layer_1"><inkscape:grid
     type="xygrid"
     id="grid882" /></sodipodi:namedview>
<path
   style="fill:#56ace0;stroke-width:0.0560486"
   d="m 19.336869,5.5319415 -6.297392,6.3009795 7.985856,3.956691 c 0.503651,-1.195683 0.757271,-2.467482 0.757271,-3.782773 0,-2.4131152 -0.86595,-4.6849868 -2.445735,-6.4748975 z"
   id="path833" />
<g
   id="g839"
   transform="matrix(0.05604856,0,0,0.05604856,1.0027696,1.0027696)">
	<path
   style="fill:#ffffff"
   d="M 207.192,22.174 V 170.02 L 311.725,65.487 C 282.505,39.628 246.044,24.501 207.192,22.174 Z"
   id="path835" />
	<path
   style="fill:#ffffff"
   d="M 347.475,283.281 191.418,206.028 c -3.685,-1.875 -6.077,-5.624 -6.077,-9.762 V 22.174 C 94.19,27.798 21.786,103.693 21.786,196.267 c 0,96.194 78.287,174.481 174.481,174.481 63.159,-10e-4 120.113,-33.229 151.208,-87.467 z"
   id="path837" />
</g>
<path
   style="fill:#194f82;stroke-width:0.0560486"
   d="m 12.003252,1.0027696 c -6.0763364,0 -11.0004824,4.924146 -11.0004824,11.0004824 0,6.076336 4.924146,11.000482 11.0004824,11.000482 6.076336,0 11.000482,-4.924146 11.000482,-11.000482 0,-6.0763364 -4.924146,-11.0004824 -11.000482,-11.0004824 z M 2.2238436,12.003252 c 0,-5.1886394 4.0581396,-9.4424446 9.1670774,-9.7576617 v 9.7576617 c 0,0.235516 0.130426,0.445698 0.340607,0.547146 l 8.750357,4.32992 c -1.746473,3.039961 -4.938606,4.902399 -8.47499,4.902399 C 6.6117169,21.782604 2.2238436,17.394786 2.2238436,12.003252 Z M 12.615583,2.2455903 c 2.177655,0.134068 4.221185,0.9783276 5.858923,2.423988 l -5.858923,5.8553377 z m 0.423951,9.5873307 6.297335,-6.2973365 c 1.579785,1.7899109 2.445735,4.0617833 2.445735,6.4713105 0,1.315291 -0.257263,2.58709 -0.757271,3.782774 z"
   id="path841" />
<path
   style="fill:#ffc10d;stroke-width:0.0560486"
   d="M 10.169848,13.130109 V 3.6297095 C 8.9125663,3.905076 7.7675503,4.4630955 6.7784053,5.2239546 h 1.094236 c 0.3369639,0 0.6123306,0.2717235 0.6123306,0.6123305 0,0.336964 -0.2717235,0.6123304 -0.6123306,0.6123304 H 5.4993212 C 5.1804609,6.8254301 4.8833476,7.2312776 4.6333149,7.6624592 l 1.5000837,0.00724 c 0.3369639,0 0.6123304,0.2753666 0.6051002,0.6159737 0,0.3369639 -0.2790098,0.6051002 -0.6123306,0.6051002 h -0.00364 L 4.0427312,8.8762467 C 3.6659169,9.843701 3.4485045,10.890801 3.4485045,11.988679 c 0,4.717608 3.8371403,8.558335 8.5583345,8.558335 2.645044,0 5.076318,-1.195684 6.677794,-3.20665 z"
   id="path843" />
<g
   id="g845"
   transform="matrix(0.05604856,0,0,0.05604856,1.0027696,1.0027696)">
</g>
<g
   id="g847"
   transform="matrix(0.05604856,0,0,0.05604856,1.0027696,1.0027696)">
</g>
<g
   id="g849"
   transform="matrix(0.05604856,0,0,0.05604856,1.0027696,1.0027696)">
</g>
<g
   id="g851"
   transform="matrix(0.05604856,0,0,0.05604856,1.0027696,1.0027696)">
</g>
<g
   id="g853"
   transform="matrix(0.05604856,0,0,0.05604856,1.0027696,1.0027696)">
</g>
<g
   id="g855"
   transform="matrix(0.05604856,0,0,0.05604856,1.0027696,1.0027696)">
</g>
<g
   id="g857"
   transform="matrix(0.05604856,0,0,0.05604856,1.0027696,1.0027696)">
</g>
<g
   id="g859"
   transform="matrix(0.05604856,0,0,0.05604856,1.0027696,1.0027696)">
</g>
<g
   id="g861"
   transform="matrix(0.05604856,0,0,0.05604856,1.0027696,1.0027696)">
</g>
<g
   id="g863"
   transform="matrix(0.05604856,0,0,0.05604856,1.0027696,1.0027696)">
</g>
<g
   id="g865"
   transform="matrix(0.05604856,0,0,0.05604856,1.0027696,1.0027696)">
</g>
<g
   id="g867"
   transform="matrix(0.05604856,0,0,0.05604856,1.0027696,1.0027696)">
</g>
<g
   id="g869"
   transform="matrix(0.05604856,0,0,0.05604856,1.0027696,1.0027696)">
</g>
<g
   id="g871"
   transform="matrix(0.05604856,0,0,0.05604856,1.0027696,1.0027696)">
</g>
<g
   id="g873"
   transform="matrix(0.05604856,0,0,0.05604856,1.0027696,1.0027696)">
</g>
</svg>
