<?xml version="1.0" encoding="UTF-8" standalone="no"?>
<svg
   xmlns:dc="http://purl.org/dc/elements/1.1/"
   xmlns:cc="http://creativecommons.org/ns#"
   xmlns:rdf="http://www.w3.org/1999/02/22-rdf-syntax-ns#"
   xmlns:svg="http://www.w3.org/2000/svg"
   xmlns="http://www.w3.org/2000/svg"
   xmlns:sodipodi="http://sodipodi.sourceforge.net/DTD/sodipodi-0.dtd"
   xmlns:inkscape="http://www.inkscape.org/namespaces/inkscape"
   version="1.1"
   id="Layer_1"
   x="0px"
   y="0px"
   viewBox="0 0 23.999999 23.999999"
   xml:space="preserve"
   sodipodi:docname="RECURRING.svg"
   width="24"
   height="24"
   inkscape:version="1.0.2-2 (e86c870879, 2021-01-15)"><metadata
   id="metadata7077"><rdf:RDF><cc:Work
       rdf:about=""><dc:format>image/svg+xml</dc:format><dc:type
         rdf:resource="http://purl.org/dc/dcmitype/StillImage" /><dc:title></dc:title></cc:Work></rdf:RDF></metadata><defs
   id="defs7075" /><sodipodi:namedview
   pagecolor="#ffffff"
   bordercolor="#666666"
   borderopacity="1"
   objecttolerance="10"
   gridtolerance="10"
   guidetolerance="10"
   inkscape:pageopacity="0"
   inkscape:pageshadow="2"
   inkscape:window-width="1464"
   inkscape:window-height="758"
   id="namedview7073"
   showgrid="true"
   inkscape:zoom="50.485789"
   inkscape:cx="1.7693188"
   inkscape:cy="4.6686467"
   inkscape:window-x="0"
   inkscape:window-y="0"
   inkscape:window-maximized="0"
   inkscape:current-layer="Layer_1"><inkscape:grid
     type="xygrid"
     id="grid7640" /></sodipodi:namedview>
<path
   style="fill:#ffc10d;stroke-width:0.0438764"
   d="m 11.989496,6.5198976 c -2.4773066,0 -4.5816858,1.5827413 -5.3231018,3.7638894 h 1.3851611 c 0.3462898,0 0.625986,0.273185 0.625986,0.611415 0,0.338229 -0.2796962,0.611415 -0.625986,0.611415 H 6.404457 c -0.013317,0.160442 -0.026635,0.320885 -0.026635,0.485663 0,0.164779 0.00889,0.325221 0.026635,0.485663 h 1.15874 c 0.3462898,0 0.625986,0.273185 0.625986,0.611415 0,0.33823 -0.2796962,0.611416 -0.625986,0.611416 H 6.6663942 c 0.7369762,2.181148 2.8413554,3.763889 5.3231018,3.763889 3.089974,0 5.607237,-2.454333 5.607237,-5.476719 0,-3.0223857 -2.517263,-5.4680464 -5.607237,-5.4680464 z"
   id="path7032" />
<path
   style="fill:#194f82;stroke-width:0.0438764"
   d="m 11.989496,5.292731 c -3.7825549,0 -6.85921,3.0050405 -6.85921,6.699549 0,3.694509 3.0766551,6.703886 6.85921,6.703886 3.782554,0 6.85921,-3.005042 6.85921,-6.699549 0,-3.6945093 -3.076656,-6.703886 -6.85921,-6.703886 z m 0,12.176268 c -2.4773066,0 -4.5816858,-1.582742 -5.3231018,-3.763889 H 7.563197 c 0.3462898,0 0.625986,-0.273186 0.625986,-0.611416 0,-0.338229 -0.2796962,-0.611415 -0.625986,-0.611415 H 6.404457 C 6.39114,12.321837 6.377822,12.161394 6.377822,11.996617 c 0,-0.164779 0.00889,-0.325221 0.026635,-0.485663 h 1.6470983 c 0.3462898,0 0.625986,-0.273186 0.625986,-0.611416 0,-0.338229 -0.2796962,-0.611416 -0.625986,-0.611416 H 6.6663942 C 7.4033704,8.1069753 9.5077496,6.5242339 11.989496,6.5242339 c 3.089974,0 5.607237,2.4543332 5.607237,5.4767181 0,3.022386 -2.517263,5.468047 -5.607237,5.468047 z"
   id="path7034" />
<g
   id="g7040"
   transform="matrix(0.04439618,0,0,0.04336278,0.71277766,0.97475261)">
	<path
   style="fill:#194f82"
   d="m 254.002,196.078 c 12.1,0 22,9.9 22,22 0,7.8 6.3,14.1 14.1,14.1 7.8,0 14.1,-6.3 14.1,-14.1 0,-22.8 -15.3,-42.1 -36.2,-48.2 v -9.9 c 0,-7.8 -6.3,-14.1 -14.1,-14.1 -7.8,0 -14.1,6.3 -14.1,14.1 v 9.9 c -20.9,6.1 -36.2,25.4 -36.2,48.2 0,27.7 22.5,50.3 50.3,50.3 -0.4,0.1 0,0 0.1,0 11.2,1 21.9,10.3 21.9,21.8 0,12.2 -9.9,22 -22,22 -12.1,0 -22,-9.9 -22,-22 0,-7.8 -6.3,-14.1 -14.1,-14.1 -7.8,0 -14.1,6.3 -14.1,14.1 0,22.8 15.3,42.1 36.2,48.2 v 9.8 c 0,7.8 6.3,14.1 14.1,14.1 7.8,0 14.1,-6.3 14.1,-14.1 v -9.8 c 20.9,-6.1 36.2,-25.4 36.2,-48.2 0,-27.7 -24.4,-50.1 -52.2,-50.1 0.4,-0.1 0,0 -0.1,0 -11.2,-1 -20,-10.5 -20,-21.9 0,-12.2 9.8,-22.1 22,-22.1 z"
   id="path7036" />
	<path
   style="fill:#194f82"
   d="m 492.402,316.078 c -7.4,-2.4 -15.4,1.6 -17.8,9 -39.1,118.3 -167.1,182.7 -285.4,143.6 -118.3,-39.2 -182.7,-167.2 -143.6,-285.5 39.1,-118.2 167.1,-182.6 285.4,-143.5 38,12.6 70.9,34.5 97,63.7 l -43.7,1.3 c -7.8,-1.3 -15,3.9 -16.2,11.6 -1.3,7.7 3.9,15 11.6,16.2 l 79.3,4.6 c 8.1,1.3 14.9,-4 16.2,-11.6 l 12.7,-77.5 c 1.3,-7.7 -3.9,-15 -11.6,-16.2 -7.8,-1.3 -15,3.9 -16.2,11.6 l -7.5,45.2 c -29.9,-34.7 -68.9,-61.2 -112.8,-75.7 -133,-44 -277,28.4 -321,161.5 -44,133 28.1,278.3 161.5,321.1 137.4,44 277,-31.9 321.1,-161.5 2.5,-7.5 -1.6,-15.5 -9,-17.9 z"
   id="path7038" />
</g>
</svg>
