<?xml version="1.0" encoding="UTF-8" standalone="no"?>
<svg
   xmlns:dc="http://purl.org/dc/elements/1.1/"
   xmlns:cc="http://creativecommons.org/ns#"
   xmlns:rdf="http://www.w3.org/1999/02/22-rdf-syntax-ns#"
   xmlns:svg="http://www.w3.org/2000/svg"
   xmlns="http://www.w3.org/2000/svg"
   xmlns:sodipodi="http://sodipodi.sourceforge.net/DTD/sodipodi-0.dtd"
   xmlns:inkscape="http://www.inkscape.org/namespaces/inkscape"
   version="1.1"
   id="Layer_1"
   x="0px"
   y="0px"
   viewBox="0 0 24.000001 24.000001"
   xml:space="preserve"
   sodipodi:docname="SAVINGS_NORMAL.svg"
   width="24"
   height="24"
   inkscape:version="1.0.2-2 (e86c870879, 2021-01-15)"><metadata
   id="metadata3962"><rdf:RDF><cc:Work
       rdf:about=""><dc:format>image/svg+xml</dc:format><dc:type
         rdf:resource="http://purl.org/dc/dcmitype/StillImage" /><dc:title></dc:title></cc:Work></rdf:RDF></metadata><defs
   id="defs3960" /><sodipodi:namedview
   pagecolor="#ffffff"
   bordercolor="#666666"
   borderopacity="1"
   objecttolerance="10"
   gridtolerance="10"
   guidetolerance="10"
   inkscape:pageopacity="0"
   inkscape:pageshadow="2"
   inkscape:window-width="1863"
   inkscape:window-height="994"
   id="namedview3958"
   showgrid="true"
   inkscape:zoom="92.019662"
   inkscape:cx="21.445042"
   inkscape:cy="18.78997"
   inkscape:window-x="0"
   inkscape:window-y="0"
   inkscape:window-maximized="0"
   inkscape:current-layer="Layer_1"><inkscape:grid
     type="xygrid"
     id="grid4525" /></sodipodi:namedview>
<path
   style="fill:#ffffff;stroke-width:0.0560506"
   d="M 21.166972,2.2198587 H 2.8322137 c -0.3369759,0 -0.6123525,0.2717332 -0.6123525,0.6123525 V 18.837058 c 0,0.336979 0.2717332,0.612354 0.6123525,0.612354 H 21.166972 c 0.336976,0 0.612353,-0.271734 0.612353,-0.612354 V 2.8322112 c 0,-0.336976 -0.275377,-0.6123525 -0.612353,-0.6123525 z"
   id="path3909" />
<g
   id="g3915"
   transform="matrix(0.05605056,0,0,0.05605056,0.9987435,0.99874099)">
	<polygon
   style="fill:#56ace0"
   points="76.477,350.966 76.477,370.747 116.493,370.747 116.493,350.966 "
   id="polygon3911" />
	<polygon
   style="fill:#56ace0"
   points="276.04,350.966 276.04,370.747 316.057,370.747 316.057,350.966 "
   id="polygon3913" />
</g>
<path
   style="fill:#194f82;stroke-width:0.0560506"
   d="M 21.166972,0.99874099 H 2.8322137 c -1.0109279,0 -1.8334702,0.82254221 -1.8334702,1.83347021 V 18.837058 c 0,1.010929 0.8225423,1.833471 1.8334702,1.833471 h 1.2319916 v 1.108793 c 0,0.673952 0.5507527,1.221118 1.2211177,1.221118 h 2.2393324 c 0.673952,0 1.2211177,-0.550753 1.2211177,-1.221118 v -1.108793 h 6.4968779 v 1.108793 c 0,0.673952 0.550752,1.221118 1.221118,1.221118 h 2.246563 c 0.673951,0 1.221117,-0.550753 1.221117,-1.221118 v -1.108793 h 1.23558 c 1.010927,0 1.833469,-0.822542 1.833469,-1.833471 V 2.8322112 C 23.000443,1.8212832 22.177956,0.99874099 21.166972,0.99874099 Z M 5.285323,21.779322 v -1.108793 h 2.2393324 v 1.108793 z m 11.18562,0 v -1.108793 h 2.24292 v 1.108793 z m 5.308382,-2.94585 c 0,0.336978 -0.271734,0.612352 -0.612353,0.612352 H 2.8322137 c -0.3369759,0 -0.6123525,-0.271734 -0.6123525,-0.612352 V 2.8322112 c 0,-0.336976 0.2717332,-0.6123525 0.6123525,-0.6123525 H 21.166972 c 0.336976,0 0.612353,0.2717332 0.612353,0.6123525 v 16.0048468 0 z"
   id="path3917" />
<path
   style="fill:#ffc10d;stroke-width:0.0560506"
   d="m 16.275271,6.4846906 c 0,-0.3369759 0.271733,-0.6123525 0.612352,-0.6123525 h 2.453109 V 4.6584509 H 4.6656839 V 16.992771 H 19.337144 V 9.9994536 h -0.615995 c -0.336976,0 -0.612352,-0.2717331 -0.612352,-0.6123525 0,-0.336976 0.271733,-0.6123523 0.612352,-0.6123523 h 0.615995 V 7.0898124 h -2.453108 c -0.336977,0.00723 -0.608765,-0.2645025 -0.608765,-0.6051218 z"
   id="path3919" />
<g
   id="g3925"
   transform="matrix(0.05605056,0,0,0.05605056,0.9987435,0.99874099)">
	<path
   style="fill:#194f82"
   d="m 253.285,164.59 h -9.115 c -1.745,-11.83 -6.4,-22.691 -13.188,-31.935 l 6.465,-6.465 c 4.267,-4.267 4.267,-11.119 0,-15.451 -4.267,-4.267 -11.119,-4.267 -15.451,0 l -6.465,6.465 c -9.18,-6.788 -20.105,-11.442 -31.935,-13.188 v -9.18 c 0,-6.012 -4.848,-10.925 -10.925,-10.925 -6.012,0 -10.925,4.848 -10.925,10.925 v 9.18 c -11.83,1.745 -22.691,6.4 -31.935,13.188 l -6.465,-6.465 c -4.267,-4.267 -11.119,-4.267 -15.451,0 -4.267,4.267 -4.267,11.119 0,15.451 l 6.465,6.465 c -6.788,9.18 -11.442,20.105 -13.188,31.935 h -9.18 c -6.012,0 -10.925,4.848 -10.925,10.925 0,6.012 4.848,10.925 10.925,10.925 h 9.244 c 1.745,11.83 6.4,22.691 13.188,31.935 l -6.465,6.465 c -4.267,4.267 -4.267,11.119 0,15.451 4.267,4.267 11.119,4.267 15.451,0 l 6.465,-6.465 c 9.18,6.788 20.105,11.442 31.935,13.188 v 9.18 c 0,6.012 4.848,10.925 10.925,10.925 6.012,0 10.925,-4.848 10.925,-10.925 v -9.18 c 11.83,-1.745 22.691,-6.4 31.935,-13.188 l 6.465,6.465 c 4.267,4.267 11.119,4.267 15.451,0 4.267,-4.267 4.267,-11.119 0,-15.451 l -6.465,-6.465 c 6.788,-9.18 11.442,-20.105 13.188,-31.935 h 9.18 c 6.012,0 10.925,-4.848 10.925,-10.925 -0.129,-6.077 -5.042,-10.925 -11.054,-10.925 z m -131.168,10.861 c 0,-27.927 22.691,-50.618 50.618,-50.618 27.927,0 50.618,22.691 50.618,50.618 0,27.927 -22.691,50.618 -50.618,50.618 -27.927,0 -50.618,-22.691 -50.618,-50.618 z"
   id="path3921" />
	<path
   style="fill:#194f82"
   d="M 327.111,43.572 H 65.422 c -12.024,0 -21.786,9.826 -21.786,21.786 v 220.057 c 0,12.024 9.826,21.786 21.786,21.786 h 261.754 c 12.024,0 21.786,-9.826 21.786,-21.786 V 65.422 c 0,-12.024 -9.827,-21.85 -21.851,-21.85 z M 65.422,285.543 V 65.422 H 327.176 V 285.479 H 65.422 Z"
   id="path3923" />
</g>
<path
   style="fill:#e43333;fill-opacity:1;stroke:#e43333;stroke-width:2.63664;stroke-linecap:butt;stroke-linejoin:round;stroke-miterlimit:4;stroke-dasharray:none;stroke-opacity:1"
   d="m 18.408349,18.472648 -4.074125,3.954959 4.074125,-3.954959 -4.074094,-4.133232 4.074094,4.133232 4.014067,-4.133232 -4.014067,4.133232 4.014067,3.954959 -4.014067,-3.954959"
/>
</svg>
