<?xml version="1.0" encoding="UTF-8" standalone="no"?>
<svg
   xmlns:dc="http://purl.org/dc/elements/1.1/"
   xmlns:cc="http://creativecommons.org/ns#"
   xmlns:rdf="http://www.w3.org/1999/02/22-rdf-syntax-ns#"
   xmlns:svg="http://www.w3.org/2000/svg"
   xmlns="http://www.w3.org/2000/svg"
   xmlns:sodipodi="http://sodipodi.sourceforge.net/DTD/sodipodi-0.dtd"
   xmlns:inkscape="http://www.inkscape.org/namespaces/inkscape"
   version="1.1"
   id="Layer_1"
   x="0px"
   y="0px"
   viewBox="0 0 24 24"
   xml:space="preserve"
   sodipodi:docname="STOCKS_NORMAL.svg"
   width="24"
   height="24"
   inkscape:version="1.0.2-2 (e86c870879, 2021-01-15)"><metadata
   id="metadata4635"><rdf:RDF><cc:Work
       rdf:about=""><dc:format>image/svg+xml</dc:format><dc:type
         rdf:resource="http://purl.org/dc/dcmitype/StillImage" /><dc:title></dc:title></cc:Work></rdf:RDF></metadata><defs
   id="defs4633" /><sodipodi:namedview
   pagecolor="#ffffff"
   bordercolor="#666666"
   borderopacity="1"
   objecttolerance="10"
   gridtolerance="10"
   guidetolerance="10"
   inkscape:pageopacity="0"
   inkscape:pageshadow="2"
   inkscape:window-width="1604"
   inkscape:window-height="916"
   id="namedview4631"
   showgrid="false"
   inkscape:zoom="14.705749"
   inkscape:cx="15.325431"
   inkscape:cy="10.334627"
   inkscape:window-x="0"
   inkscape:window-y="0"
   inkscape:window-maximized="0"
   inkscape:current-layer="Layer_1"><inkscape:grid
     type="xygrid"
     id="grid5198" /></sodipodi:namedview>
<rect
   x="2.1288819"
   y="7.2264271"
   style="fill:#ffffff;stroke-width:0.0569437"
   width="19.871178"
   height="13.182403"
   id="rect4582" />
<path
   style="fill:#ffc10d;stroke-width:0.0569437"
   d="m 3.3693997,8.4632986 v 1.3105018 h 2.7719609 c 0.3423453,0 0.6221097,0.2760626 0.6221097,0.6221086 0,0.342346 -0.276063,0.62211 -0.6221097,0.62211 H 3.3693997 v 8.146532 H 20.755726 V 8.4632986 Z"
   id="path4584" />
<g
   id="g4598"
   transform="matrix(0.05694366,0,0,0.05694366,0.88460588,0.55239951)">
	<path
   style="fill:#194f82"
   d="m 194.844,221.996 c -0.129,0 -0.129,0 -0.065,0 -8.598,-0.776 -15.321,-7.952 -15.321,-16.743 0,-9.244 7.564,-16.873 16.873,-16.873 9.309,0 16.873,7.564 16.873,16.873 0,6.012 4.848,10.925 10.925,10.925 6.012,0 10.925,-4.848 10.925,-10.925 0,-17.519 -11.766,-32.323 -27.733,-37.042 v -7.564 c 0,-6.012 -4.848,-10.925 -10.925,-10.925 -6.077,0 -10.925,4.848 -10.925,10.925 v 7.564 c -15.968,4.719 -27.733,19.523 -27.733,37.042 0,21.333 17.325,38.659 38.659,38.659 0.129,0 0.129,0 0.065,0 8.598,0.776 16.743,7.887 16.743,16.679 0,9.18 -7.434,16.614 -16.549,16.743 -0.065,0 -0.129,0 -0.323,0 -0.065,0 -0.129,0 -0.323,0 -9.115,-0.129 -16.549,-7.628 -16.549,-16.743 0,-6.012 -4.848,-10.925 -10.925,-10.925 -6.012,0 -10.925,4.848 -10.925,10.925 0,17.519 11.766,32.323 27.733,37.042 v 7.499 c 0,6.012 4.848,10.925 10.925,10.925 6.077,0 10.925,-4.848 10.925,-10.925 v -7.499 c 15.968,-4.719 27.733,-19.523 27.733,-37.042 0.063,-21.399 -18.749,-38.595 -40.083,-38.595 z"
   id="path4586" />
	<path
   style="fill:#194f82"
   d="m 196.396,243.846 h -0.065 c -0.323,0.065 0,0 0.065,0 z"
   id="path4588" />
	<path
   style="fill:#194f82"
   d="m 194.78,221.996 h 0.065 c 0.323,0 0.064,0 -0.065,0 z"
   id="path4590" />
	<path
   style="fill:#194f82"
   d="m 311.143,254.19 c -6.012,0 -10.925,-4.848 -10.925,-10.925 V 222.32 c 0,-6.012 4.848,-10.925 10.925,-10.925 6.012,0 10.925,4.848 10.925,10.925 v 20.945 c 0.065,6.076 -4.912,10.925 -10.925,10.925 z"
   id="path4592" />
	<path
   style="fill:#194f82"
   d="m 81.455,254.19 c -6.012,0 -10.925,-4.848 -10.925,-10.925 V 222.32 c 0,-6.012 4.848,-10.925 10.925,-10.925 6.077,0 10.925,4.848 10.925,10.925 v 20.945 c 0,6.076 -4.913,10.925 -10.925,10.925 z"
   id="path4594" />
	<path
   style="fill:#194f82"
   d="m 381.737,95.418 h -27.733 c 0,-6.012 -4.848,-10.925 -10.925,-10.925 h -20.945 c -6.012,0 -10.925,4.848 -10.925,10.925 H 293.173 V 32.97 c 0,-6.012 -4.848,-10.925 -10.925,-10.925 H 110.352 c -6.012,0 -10.925,4.848 -10.925,10.925 V 95.418 H 81.39 c 0,-6.012 -4.848,-10.925 -10.925,-10.925 H 49.648 c -6.012,0 -10.925,4.848 -10.925,10.925 H 10.925 C 4.913,95.418 0,100.267 0,106.343 v 253.285 c 0,6.012 4.848,10.925 10.925,10.925 h 370.747 c 6.012,0 10.925,-4.848 10.925,-10.925 V 106.279 c 0.001,-6.012 -4.848,-10.861 -10.86,-10.861 z M 121.212,43.895 H 271.45 V 95.418 H 121.212 Z m 249.6,304.873 H 21.851 V 117.204 h 348.962 z"
   id="path4596" />
</g>
</svg>
