<svg width="24px" height="24px" viewBox="0 0 24 24" fill="none" xmlns="http://www.w3.org/2000/svg">
<path opacity="1" d="M4 8C4 5.79086 5.79086 4 8 4H16C18.2091 4 20 5.79086 20 8V16C20 18.2091 18.2091 20 16 20H8C5.79086 20 4 18.2091 4 16V8Z" fill="#000000"/>
<path d="M9.46967 16.4697C9.17678 16.7626 9.17678 17.2374 9.46967 17.5303C9.76256 17.8232 10.2374 17.8232 10.5303 17.5303L9.46967 16.4697ZM15 12L15.5303 12.5303C15.8232 12.2374 15.8232 11.7626 15.5303 11.4697L15 12ZM10.5303 6.46967C10.2374 6.17678 9.76256 6.17678 9.46967 6.46967C9.17678 6.76256 9.17678 7.23744 9.46967 7.53033L10.5303 6.46967ZM10.5303 17.5303L15.5303 12.5303L14.4697 11.4697L9.46967 16.4697L10.5303 17.5303ZM15.5303 11.4697L10.5303 6.46967L9.46967 7.53033L14.4697 12.5303L15.5303 11.4697ZM8 4.75H16V3.25H8V4.75ZM19.25 8V16H20.75V8H19.25ZM16 19.25H8V20.75H16V19.25ZM4.75 16V8H3.25V16H4.75ZM8 19.25C6.20507 19.25 4.75 17.7949 4.75 16H3.25C3.25 18.6234 5.37665 20.75 8 20.75V19.25ZM19.25 16C19.25 17.7949 17.7949 19.25 16 19.25V20.75C18.6234 20.75 20.75 18.6234 20.75 16H19.25ZM16 4.75C17.7949 4.75 19.25 6.20507 19.25 8H20.75C20.75 5.37665 18.6234 3.25 16 3.25V4.75ZM8 3.25C5.37665 3.25 3.25 5.37665 3.25 8H4.75C4.75 6.20507 6.20507 4.75 8 4.75V3.25Z" fill="#000000"/>
</svg>
