<svg width="24px" height="24px" viewBox="0 0 24 24" fill="none" xmlns="http://www.w3.org/2000/svg">
<path d="M16.75 7C16.75 6.58579 16.4142 6.25 16 6.25C15.5858 6.25 15.25 6.58579 15.25 7H16.75ZM16 10V10.75C16.4142 10.75 16.75 10.4142 16.75 10H16ZM13 9.25C12.5858 9.25 12.25 9.58579 12.25 10C12.25 10.4142 12.5858 10.75 13 10.75V9.25ZM16.4807 13.5784C16.6183 13.1877 16.4132 12.7595 16.0225 12.6218C15.6318 12.4842 15.2035 12.6893 15.0659 13.0799L16.4807 13.5784ZM12.5576 8.03902L12.6621 7.29633L12.5576 8.03902ZM15.25 7V10H16.75V7H15.25ZM16 9.25H13V10.75H16V9.25ZM15.0659 13.0799C14.8317 13.7445 14.3879 14.315 13.8013 14.7054L14.6324 15.9541C15.4898 15.3835 16.1384 14.5497 16.4807 13.5784L15.0659 13.0799ZM13.8013 14.7054C13.2147 15.0959 12.5171 15.2851 11.8135 15.2446L11.7273 16.7422C12.7555 16.8013 13.7751 16.5248 14.6324 15.9541L13.8013 14.7054ZM11.8135 15.2446C11.11 15.2041 10.4387 14.9361 9.90075 14.481L8.93186 15.6261C9.71807 16.2913 10.6992 16.683 11.7273 16.7422L11.8135 15.2446ZM9.90075 14.481C9.36281 14.0258 8.98738 13.4082 8.83103 12.7211L7.36842 13.054C7.59695 14.0582 8.14566 14.9609 8.93186 15.6261L9.90075 14.481ZM8.83103 12.7211C8.67467 12.0341 8.74585 11.3148 9.03384 10.6718L7.66485 10.0587C7.24393 10.9986 7.13989 12.0498 7.36842 13.054L8.83103 12.7211ZM9.03384 10.6718C9.32183 10.0287 9.81104 9.4966 10.4278 9.1557L9.70209 7.84291C8.80076 8.34114 8.08576 9.11879 7.66485 10.0587L9.03384 10.6718ZM10.4278 9.1557C11.0445 8.81479 11.7553 8.68353 12.4531 8.7817L12.6621 7.29633C11.6423 7.15286 10.6034 7.34468 9.70209 7.84291L10.4278 9.1557ZM12.4531 8.7817C12.9784 8.8556 13.4595 9.08814 13.968 9.42775C14.223 9.598 14.4744 9.78784 14.7407 9.99221C15.0012 10.1921 15.281 10.4099 15.5666 10.6121L16.4334 9.38789C16.1776 9.2068 15.9271 9.01184 15.6539 8.8022C15.3865 8.59702 15.1008 8.38052 14.8011 8.18035C14.2003 7.7791 13.5015 7.41442 12.6621 7.29633L12.4531 8.7817ZM20.25 12C20.25 16.5563 16.5563 20.25 12 20.25V21.75C17.3848 21.75 21.75 17.3848 21.75 12H20.25ZM12 20.25C7.44365 20.25 3.75 16.5563 3.75 12H2.25C2.25 17.3848 6.61522 21.75 12 21.75V20.25ZM3.75 12C3.75 7.44365 7.44365 3.75 12 3.75V2.25C6.61522 2.25 2.25 6.61522 2.25 12H3.75ZM12 3.75C16.5563 3.75 20.25 7.44365 20.25 12H21.75C21.75 6.61522 17.3848 2.25 12 2.25V3.75Z" fill="#000000"/>
</svg>
