<svg viewBox="0 0 24 24" xmlns="http://www.w3.org/2000/svg">
<path
   d="m 20.553725,3.4479829 c 1.927809,1.9273079 1.927809,5.0637004 0,6.9915101 l -4.152245,4.152746 c -0.307666,0.307165 -0.652474,0.570664 -1.025388,0.785981 -0.214814,0.372914 -0.478314,0.717219 -0.784976,1.024384 l -4.152747,4.152244 c -0.9641554,0.964156 -2.2304569,1.445983 -3.4962566,1.445983 -1.2663015,0 -2.5321011,-0.481827 -3.495755,-1.445481 -1.9278099,-1.92781 -1.9278099,-5.064202 0,-6.992012 L 7.5991036,9.4105917 C 7.9062683,9.103427 8.2505738,8.8399279 8.6234878,8.6251134 8.8383024,8.2521994 9.1018015,7.907392 9.4094681,7.6002273 L 13.562214,3.447481 c 0.932034,-0.932034 2.173743,-1.4454809 3.495254,-1.4454809 5.01e-4,0 5.01e-4,0 5.01e-4,0 1.322013,0 2.563671,0.513497 3.495756,1.4459828 z m -0.532068,6.4590412 c 1.633695,-1.6341965 1.633695,-4.2927772 0,-5.9269737 C 19.23116,3.1900549 18.178669,2.7549049 17.057919,2.7549049 h -5.02e-4 c -1.120749,0 -2.172738,0.4346481 -2.963236,1.2251455 L 9.9825912,8.0916406 C 10.779613,7.9089479 11.617792,7.923503 12.415316,8.1433366 l 2.921076,-2.921076 c 0.459241,-0.4592414 1.070559,-0.7122005 1.721025,-0.7122005 5.02e-4,0 5.02e-4,0 5.02e-4,0 0.650969,0 1.262287,0.2529591 1.721528,0.7122005 0.459241,0.4592413 0.7122,1.0705593 0.7122,1.7215276 0,0.6504664 -0.252959,1.2617844 -0.7122,1.7210257 L 14.626701,12.81756 c -0.38747,0.387469 -0.900916,0.634908 -1.445481,0.696642 -0.09386,0.01054 -0.187712,0.01606 -0.280564,0.01606 -0.642938,0 -1.256264,-0.251956 -1.717011,-0.712201 -0.402526,-0.403028 -0.645447,-0.923502 -0.699653,-1.478606 -0.215316,0.08331 -0.410556,0.210297 -0.5781919,0.377933 l -0.9039275,0.903927 c 0.2092936,0.54055 0.5249906,1.023882 0.9400645,1.438956 0.4692789,0.46928 1.0253879,0.811578 1.6527669,1.016354 1.100673,0.360868 2.312769,0.249948 3.325108,-0.304655 0.346815,-0.18972 0.666025,-0.429629 0.949099,-0.712201 z M 18.738793,6.9437882 c 0,-0.4497052 -0.174663,-0.8718057 -0.491865,-1.1890085 -0.317203,-0.3172027 -0.739304,-0.491865 -1.189009,-0.491865 h -5.02e-4 c -0.449705,0 -0.871805,0.1746623 -1.188506,0.4913631 l -2.675144,2.6751436 c 0.517462,0.2414154 0.98624,0.56966 1.397298,0.9812205 0.411561,0.4115606 0.740308,0.8798361 0.981221,1.3967961 L 18.246928,8.1327966 C 18.56413,7.8155437 18.738793,7.3934934 18.738793,6.9437882 Z m -4.644561,5.3412528 0.904429,-0.903927 C 14.789367,10.841066 14.474172,10.358235 14.059098,9.9431611 13.589819,9.4738817 13.033208,9.1315838 12.405328,8.9263054 11.304152,8.565939 10.092558,8.6768596 9.0802196,9.2309606 8.7329027,9.42068 8.4141942,9.6600878 8.1316228,9.9431611 L 3.9788765,14.095405 c -1.6341965,1.634197 -1.6341965,4.29328 0,5.927476 1.6336946,1.634197 4.2927773,1.634197 5.9269737,0 l 4.1115898,-4.11159 c -0.365385,0.08382 -0.738801,0.126479 -1.113723,0.126479 -0.442678,0 -0.88636,-0.05973 -1.318499,-0.178677 l -2.9215779,2.921578 c -0.2298716,0.229872 -0.497386,0.407545 -0.7889917,0.528504 -0.2916057,0.120457 -0.6073027,0.183696 -0.932536,0.183696 -0.6509683,0 -1.2622863,-0.252959 -1.7215276,-0.711698 -0.9490988,-0.949601 -0.9490988,-2.493957 0,-3.443557 L 9.3733311,11.184869 C 9.7608003,10.7974 10.274247,10.550464 10.818812,10.48873 c 0.742315,-0.08432 1.471078,0.169141 1.998076,0.696139 0.403028,0.403029 0.645448,0.923502 0.699653,1.478105 0.214764,-0.08286 0.410557,-0.210297 0.577691,-0.377933 z m -1.324071,0.486294 c -0.03062,-0.3955 -0.199757,-0.767912 -0.485842,-1.053997 -0.286085,-0.286084 -0.658497,-0.454724 -1.053997,-0.485842 0.03112,0.3955 0.199758,0.767912 0.485843,1.053997 0.286084,0.286084 0.658496,0.455226 1.053996,0.485842 z M 8.1316228,18.248152 10.806264,15.57351 C 10.289304,15.332597 9.8210286,15.00385 9.4094681,14.59229 8.9979075,14.181231 8.6696629,13.712453 8.4282475,13.194991 L 5.753104,15.870135 c -0.6554855,0.655485 -0.6554855,1.722531 0,2.378519 0.1580995,0.158601 0.3433017,0.281065 0.5445649,0.364381 0.201765,0.08332 0.419591,0.126982 0.6444435,0.126982 0.4497052,-5e-5 0.8723076,-0.174663 1.1895104,-0.491865 z"
   id="path833"
   style="stroke-width:0.0501903;fill:#000000;fill-opacity:1" />
<path
   style="fill:#000000;stroke-width:0.0501903;fill-opacity:1;opacity:0"
   d="m 14.998661,11.381063 -0.904429,0.903928 c -0.167134,0.167635 -0.362876,0.295119 -0.577691,0.377933 -0.0542,-0.554603 -0.296625,-1.075077 -0.699653,-1.478105 -0.526998,-0.526998 -1.255761,-0.780459 -1.998076,-0.696139 -0.544565,0.06173 -1.0580117,0.30867 -1.4454809,0.696139 l -4.1527463,4.152746 c -0.9490988,0.949601 -0.9490988,2.493957 0,3.443558 0.4592413,0.458739 1.0705593,0.711698 1.7215276,0.711698 0.3252333,0 0.6409303,-0.06324 0.932536,-0.183696 0.2916057,-0.120959 0.5591201,-0.298633 0.7889917,-0.528504 l 2.9215779,-2.921578 c 0.432139,0.118951 0.875821,0.178677 1.318499,0.178677 0.374922,0 0.748338,-0.04266 1.113723,-0.126479 l -4.1115898,4.11159 c -1.6341964,1.634196 -4.2932791,1.634196 -5.9269737,0 -1.6341965,-1.634197 -1.6341965,-4.293279 0,-5.927476 L 8.1316228,9.9431109 C 8.4141942,9.6600376 8.7329027,9.4206298 9.0802196,9.2309104 10.092558,8.6768094 11.304152,8.5658888 12.405328,8.9262552 c 0.62788,0.2052784 1.184491,0.5475763 1.65377,1.0168557 0.415024,0.4150741 0.730219,0.8979551 0.939563,1.4379521 z"
   id="path837" />
</svg>
