<svg width="24px" height="24px" viewBox="0 0 24 24" fill="none" xmlns="http://www.w3.org/2000/svg">
<path opacity="0.15" d="M3 12C3 10.8954 3.89543 10 5 10H12C13.1046 10 14 10.8954 14 12V19C14 20.1046 13.1046 21 12 21H5C3.89543 21 3 20.1046 3 19V12Z" fill="#FF7700"/>
<path d="M17.5 14H19C20.1046 14 21 13.1046 21 12V5C21 3.89543 20.1046 3 19 3H12C10.8954 3 10 3.89543 10 5V6.5M5 21H12C13.1046 21 14 20.1046 14 19V12C14 10.8954 13.1046 10 12 10H5C3.89543 10 3 10.8954 3 12V19C3 20.1046 3.89543 21 5 21Z" stroke="#FF7700" stroke-width="1.5" stroke-linecap="round" stroke-linejoin="round"/>
</svg>
