<?xml version="1.0" encoding="UTF-8" standalone="no"?>
<svg
   xmlns:dc="http://purl.org/dc/elements/1.1/"
   xmlns:cc="http://creativecommons.org/ns#"
   xmlns:rdf="http://www.w3.org/1999/02/22-rdf-syntax-ns#"
   xmlns:svg="http://www.w3.org/2000/svg"
   xmlns="http://www.w3.org/2000/svg"
   xmlns:sodipodi="http://sodipodi.sourceforge.net/DTD/sodipodi-0.dtd"
   xmlns:inkscape="http://www.inkscape.org/namespaces/inkscape"
   xml:space="preserve"
   width="640"
   height="480"
   style="clip-rule:evenodd;fill-rule:evenodd;image-rendering:optimizeQuality;shape-rendering:geometricPrecision;text-rendering:geometricPrecision"
   viewBox="0 0 216068.8 162051.2"
   version="1.1"
   id="svg1807"
   sodipodi:docname="hr.svg"
   inkscape:version="1.0.2-2 (e86c870879, 2021-01-15)"><metadata
   id="metadata1811"><rdf:RDF><cc:Work
       rdf:about=""><dc:format>image/svg+xml</dc:format><dc:type
         rdf:resource="http://purl.org/dc/dcmitype/StillImage" /><dc:title></dc:title></cc:Work></rdf:RDF></metadata><sodipodi:namedview
   pagecolor="#ffffff"
   bordercolor="#666666"
   borderopacity="1"
   objecttolerance="10"
   gridtolerance="10"
   guidetolerance="10"
   inkscape:pageopacity="0"
   inkscape:pageshadow="2"
   inkscape:window-width="1670"
   inkscape:window-height="800"
   id="namedview1809"
   showgrid="false"
   inkscape:zoom="1"
   inkscape:cx="450.39216"
   inkscape:cy="244.15854"
   inkscape:window-x="671"
   inkscape:window-y="45"
   inkscape:window-maximized="0"
   inkscape:current-layer="Layer_x0020_1" />
 <defs
   id="defs1325">
  <style
   type="text/css"
   id="style1323">
   <![CDATA[
    .fil8 {fill:none}
    .fil6 {fill:black}
    .fil3 {fill:#0093DD}
    .fil2 {fill:#171796}
    .fil7 {fill:#F7DB17}
    .fil0 {fill:red}
    .fil1 {fill:white}
    .fil4 {fill:black;fill-rule:nonzero}
    .fil5 {fill:#F7DB17;fill-rule:nonzero}
   ]]>
  </style>
 
   
   
   
   
  
    
    
    
    
    
    
    
    
    
    
    
    
    
    
    
    
    
    
    
    
    
    
    
    
    
    
    
    
    
    
    
    
    
    
    
    
    
    
    
    
    
    
    
    
    
    
    
    
    
    
    
    
    
    
    
    
    
    
    
    
    
    
    
    
    
    
    
    
    
    
    
    
    
    
    
    
    
    
    
    
    
    
    
    
    
    
    
    
    
    
    
    
    
    
    
    
    
    
    
    
    
    
    
    
    
    
    
    
    
    
    
    
    
    
    
    
    
    
    
    
    
    
    
    
    
    
    
    
    
    
    
    
    
    
    
    
    
    
    
    
    
    
    
    
    
    
    
    
    
    
    
    
    
    
    
    
    
    
    
    
    
    
    
    
    
    
    
    
    
    
    
    
    
    
    
    
    
    
    
    
    
    
   
     
     
     
     
     
     
     
     
     
     
     
     
     
     
     
     
     
     
     
     
     
     
     
     
     
     
     
     
     
     
     
     
     
     
     
     
     
     
     
     
     
     
     
    </defs>
 <g
   id="Layer_x0020_1">
  <metadata
   id="CorelCorpID_0Corel-Layer" />
  <rect
   class="fil0"
   height="53701.824"
   id="rect1328"
   x="675.21503"
   y="1012.5057"
   width="215310.48"
   style="stroke-width:0.0225209" /><rect
   class="fil1"
   y="54715.117"
   height="53701.824"
   id="rect1330"
   x="675.21503"
   width="215310.48"
   style="stroke-width:0.0225209" /><rect
   class="fil2"
   y="108416.96"
   height="53701.824"
   id="rect1332"
   x="675.21503"
   width="215310.48"
   style="stroke-width:0.0225209" /><g
   id="g1346"
   transform="matrix(0.78355885,0,0,0.79801386,-55263.847,263.23808)">
     <g
   id="g1338">
      <path
   class="fil0"
   d="m 202577,153674 v 0 c 21658,0 39377,-17720 39377,-39377 V 67506 h -78755 v 46791 c 0,21658 17720,39377 39377,39377 z"
   id="path1334" />
      <path
   class="fil1"
   d="m 202577,153043 v 0 c 21245,0 38626,-17382 38626,-38626 V 68264 h -77253 v 46153 c 0,21245 17382,38626 38627,38626 z"
   id="path1336" />
     </g>
     <g
   id="g1344">
      <path
   class="fil0"
   d="m 240685,67509 9441,-21400 -7258,-11721 -11674,4322 -8197,-9369 -10801,6190 -9631,-7888 -9631,7888 -10801,-6190 -8197,9369 -11674,-4322 -7260,11723 9429,21405 c 11632,-5316 24548,-8284 38135,-8284 13581,0 26491,2965 38120,8277 z"
   id="path1340" />
      <path
   class="fil1"
   d="m 240533,67027 9217,-20893 -7022,-11339 -11634,4307 -8168,-9337 -10763,6168 -9597,-7860 -9597,7860 -10763,-6168 -8169,9336 -11634,-4307 -7024,11342 9205,20897 c 11599,-5250 24460,-8175 37983,-8175 13517,0 26372,2923 37968,8169 z"
   id="path1342" />
     </g>
    </g><path
   class="fil3"
   d="m 132865.5,52959.285 6857.71,-15830.206 -5058.67,-8318.494 -9021.11,3401.937 -4175.57,16730.369 c 3935.02,1022.246 7743.12,2372.489 11396.85,4017.196 z"
   id="path1348"
   style="stroke-width:0.790723" /><path
   class="fil0"
   d="m 134988.95,48059.491 1767.7,-4080.261 c -4139.55,-1864.152 -8454.61,-3393.154 -12912.26,-4551.863 l -1042.14,4174.418 c 4228.08,1098.864 8321.4,2549.642 12247.81,4317.245 z"
   id="path1350"
   style="stroke-width:0.790723" /><path
   class="fil2"
   d="m 96017.07,29698.784 -15.67,12.753 -8362.921,-4880.644 -6333.504,7372.059 4169.312,16732.749 c 3869.217,-1003.09 7859.888,-1687.802 11943.007,-2031.736 L 96016.288,29698.784 Z"
   id="path1352"
   style="stroke-width:0.790723" /><path
   class="fil2"
   d="m 125644.22,32211.721 -19.59,7.178 -6346.84,-7388.006 -8344.89,4871.074 -1407.27,17205.179 c 4083.9,344.749 8073.79,1031.828 11942.23,2035.745 l 4175.57,-16730.369 z"
   id="path1354"
   style="stroke-width:0.790723" /><path
   class="fil3"
   d="m 81304.975,32202.952 -13.321,15.947 -9039.918,-3409.102 -5058.663,8318.492 1937.748,4487.223 4908.992,11349.361 c 3665.488,-1650.293 7486.905,-3003.734 11435.257,-4028.37 L 81305.759,32203.741 Z"
   id="path1356"
   style="stroke-width:0.790723" /><path
   class="fil1"
   d="m 103442.07,121136.02 v 0 c 16012.82,0 29113.92,-13342.8 29113.92,-29650.999 V 55897.575 H 74328.164 v 35587.446 c 0,16308.199 13101.1,29650.999 29113.906,29650.999 z"
   id="path1358"
   style="stroke-width:0.790723" /><polygon
   class="fil0"
   points="165389,69716 165389,86048 180254,86048 180254,69716 "
   id="polygon1360"
   transform="matrix(0.78355885,0,0,0.79801386,-55263.847,263.23808)" /><polygon
   class="fil0"
   points="195119,102379 195119,86048 180254,86048 180254,102379 "
   id="polygon1362"
   transform="matrix(0.78355885,0,0,0.79801386,-55263.847,263.23808)" /><path
   class="fil0"
   d="m 74328.164,91496.999 c 0,1183.438 72.083,2350.928 206.071,3499.263 H 85975.77 V 81963.108 H 74328.164 Z"
   id="path1364"
   style="stroke-width:0.790723" /><polygon
   class="fil0"
   points="195119,102379 195119,118711 209985,118711 209985,102379 "
   id="polygon1366"
   transform="matrix(0.78355885,0,0,0.79801386,-55263.847,263.23808)" /><polygon
   class="fil0"
   points="224850,135042 224850,118711 209985,118711 209985,135042 "
   id="polygon1368"
   transform="matrix(0.78355885,0,0,0.79801386,-55263.847,263.23808)" /><path
   class="fil0"
   d="m 120919.36,115158.09 c 2582.6,-1985.47 4833.77,-4396.26 6650.07,-7128.65 h -6650.07 z"
   id="path1370"
   style="stroke-width:0.790723" /><polygon
   class="fil0"
   points="195120,135042 195120,118711 180255,118711 180255,135042 "
   id="polygon1372"
   transform="matrix(0.78355885,0,0,0.79801386,-55263.847,263.23808)" /><path
   class="fil0"
   d="m 79315.518,108028.64 c 1818.64,2736.37 4073.721,5150.4 6661.035,7137.42 v -7137.42 z"
   id="path1374"
   style="stroke-width:0.790723" /><path
   class="fil0"
   d="m 105476.19,121061.79 c 1288.97,-91.77 2555.98,-268.92 3794.79,-527.47 V 108028.64 H 97623.366 v 12507.27 c 1234.895,257.75 2498.774,434.11 3783.804,525.09 1356.35,85.39 2712.68,80.61 4068.24,0 z"
   id="path1376"
   style="stroke-width:0.790723" /><path
   class="fil0"
   d="m 132349.14,94996.262 c 134.77,-1152.319 206.85,-2323.806 206.85,-3511.241 v -9521.112 h -11637.41 v 13033.156 h 11430.56 z"
   id="path1378"
   style="stroke-width:0.790723" /><polygon
   class="fil0"
   points="224850,102379 224850,86048 209985,86048 209985,102379 "
   id="polygon1380"
   transform="matrix(0.78355885,0,0,0.79801386,-55263.847,263.23808)" /><polygon
   class="fil0"
   points="195120,69716 195120,86048 209985,86048 209985,69716 "
   id="polygon1382"
   transform="matrix(0.78355885,0,0,0.79801386,-55263.847,263.23808)" /><polygon
   class="fil0"
   points="239701,69716 224850,69716 224850,86048 239701,86048 "
   id="polygon1384"
   transform="matrix(0.78355885,0,0,0.79801386,-55263.847,263.23808)" /><path
   class="fil0"
   d="m 84439.985,44782.831 c 4090.971,-1060.554 8312.002,-1785.156 12630.186,-2148.257 l -354.154,-4349.167 c -4557.186,383.848 -9012.509,1148.349 -13330.695,2267.157 l 1053.88,4230.267 z"
   id="path1391"
   style="stroke-width:0.790723" /><path
   class="fil0"
   d="M 82343.967,36373.373 C 86886.26,35195.497 91571.94,34391.91 96365.755,33988.106 l -347.889,-4269.377 c -5028.892,422.946 -9944.153,1267.247 -14708.971,2501.774 z"
   id="path1393"
   style="stroke-width:0.790723" /><path
   class="fil1"
   d="m 122801.47,43601.785 c 4228.08,1098.864 8321.39,2549.642 12247.81,4317.245 l -485.82,1122.016 c -3866.08,-1740.482 -7895.13,-3168.924 -12058.97,-4250.235 z m 13954.4,377.445 453.68,-1048.578 c -4195.96,-1889.709 -8570.57,-3440.247 -13089.36,-4614.112 l -277.37,1110.827 c 4457.66,1158.709 8772.72,2687.711 12912.27,4551.863 z"
   id="path1395"
   style="stroke-width:0.790723" /><path
   class="fil3"
   d="m 110932.9,29701.967 -18.03,10.384 -7457.12,-6219.73 -7441.462,6206.953 1401.006,17205.179 c 1992.599,-167.583 4006.336,-256.954 6040.456,-256.954 2043.53,0 4066.67,90.174 6067.88,259.347 l 1406.49,-17205.179 z"
   id="path1449"
   style="stroke-width:0.790755" /><path
   class="fil6"
   d="m 103442.07,37438.713 c -14.11,-1.591 -34.48,7.981 -54.07,35.917 -145.72,199.49 -281.29,374.264 -427.03,574.568 -152.78,48.671 -189.62,143.643 -130.86,277.702 -204.5,-20.746 -228.01,154.015 -236.63,344.748 -195.89,-302.442 -409.02,-384.649 -637.81,-244.992 -8.62,-183.542 -146.53,-269.732 -343.98,-312.827 -141.05,-7.967 -249.95,-51.866 -341.64,-115.706 -47.01,-33.511 -86.19,-51.074 -133.21,-84.599 -98.72,-70.217 -177.08,-3.97 -134.77,59.068 209.21,346.34 419.2,692.667 628.41,1039.006 -10.96,63.841 4.71,120.491 68.96,162.797 36.82,106.122 72.88,211.48 109.7,316.813 -8.61,30.317 -16.45,59.858 -25.08,90.174 -173.17,-83.798 -347.12,-94.17 -520.27,-106.135 -133.21,-6.388 -224.89,-39.901 -282.87,-109.329 -42.31,-50.273 -71.3,-20.745 -72.08,65.446 -2.36,426.142 126.93,809.187 469.35,1190.629 -181,3.195 -362.01,8.781 -543.79,16.749 -61.91,4.798 -74.44,31.132 -57.21,83.009 98.73,242.584 265.62,462.045 644.08,611.262 -162.97,89.385 -256.22,227.439 -279.73,414.979 -7.04,178.745 -58.75,304.835 -166.11,363.1 -47,25.533 -63.47,51.866 -18.79,84.588 198.23,147.639 442.7,154.003 701.28,89.372 -123.03,215.464 -177.1,441.313 -155.15,678.31 162.99,44.686 322.83,11.978 481.1,-41.504 -22.71,48.695 -34.46,139.672 -40.74,246.608 -5.49,91.765 -32.12,182.74 -81.5,273.705 -25.08,26.332 -50.92,67.035 3.14,81.404 263.28,72.61 507.75,41.492 716.96,-37.507 0,193.915 1.56,388.631 59.55,580.154 14.11,46.279 54.85,81.394 97.95,20.747 121.45,-170.777 252.3,-316.024 412.92,-412.573 24.3,71.821 58.77,134.07 122.25,171.578 75.22,43.885 115.18,135.649 119.88,273.717 0,23.94 -1.58,47.881 27.42,71.821 116.74,5.575 402.75,-303.257 461.52,-476.414 161.41,96.55 222.52,196.309 343.98,367.887 43.09,60.646 77.57,23.125 100.3,-19.956 48.58,-193.915 52.49,-383.848 51.71,-577.764 209.21,78.999 453.68,110.131 716.96,37.494 54.07,-15.158 28.21,-55.846 3.12,-81.378 -48.57,-90.99 -82.26,-199.516 -88.53,-291.281 -7.06,-106.148 -10.96,-180.361 -33.69,-229.031 158.28,54.271 317.34,86.192 481.11,41.492 22.71,-237.011 -41.54,-462.045 -165.34,-678.31 258.57,63.853 513.23,58.253 711.47,-89.372 44.67,-32.723 27.44,-59.057 -18.81,-84.587 -106.55,-58.254 -159.06,-184.345 -166.11,-363.09 -23.51,-187.539 -116.75,-326.396 -279.73,-414.979 378.47,-149.229 545.36,-369.478 644.09,-611.274 17.25,-52.666 4.7,-78.999 -57.21,-82.997 -181,-7.992 -376.1,-19.155 -557.1,-21.547 342.42,-381.454 474.83,-766.894 473.27,-1193.034 -0.78,-86.191 -29.77,-116.494 -72.09,-65.432 -57.98,69.428 -140.26,109.329 -272.67,116.521 -173.97,11.963 -340.85,19.14 -514.02,102.124 -8.62,-30.303 -16.46,-59.844 -25.07,-90.161 36.04,-105.333 83.05,-207.484 119.88,-313.618 64.26,-42.293 79.93,-98.154 68.96,-162.809 209.2,-346.328 401.96,-692.668 611.95,-1039.007 42.32,-63.04 -36.04,-129.286 -133.99,-59.043 -47.01,33.511 -86.19,51.063 -133.21,84.587 -91.67,63.84 -201.37,106.936 -342.41,115.705 -196.68,43.095 -326.75,133.268 -335.36,316.812 -229.58,-139.658 -441.93,-58.267 -637.82,244.991 -8.62,-190.734 -32.11,-364.693 -236.64,-344.748 58.77,-134.059 13.33,-232.214 -139.47,-280.895 -145.74,-199.504 -358.86,-375.066 -504.61,-574.583 -24.28,-27.911 -39.96,-37.494 -54.07,-35.891 z"
   id="path1451"
   style="fill:#ffff00;stroke-width:0.790755" /><path
   class="fil6"
   d="m 100007.74,29723.514 c -14.11,-0.803 -34.482,10.386 -52.494,39.111 -136.35,206.682 -262.498,387.832 -398.833,595.316 -149.659,56.649 -182.575,153.225 -116.759,284.089 -205.29,-10.373 -220.178,165.19 -219.397,355.911 -210.773,-292.07 -427.03,-363.09 -648.771,-212.269 -18.028,-182.742 -159.86,-262.543 -358.886,-295.264 -141.035,-0.789 -253.077,-39.1 -347.107,-98.154 -47.803,-31.12 -88.546,-47.093 -136.349,-78.211 -101.856,-64.644 -176.297,5.6 -130.851,66.247 226.458,335.165 452.119,670.317 678.562,1005.482 -7.827,64.643 10.982,119.702 76.783,158.8 41.539,103.754 83.062,207.495 124.586,311.224 -6.264,30.33 -13.31,60.661 -20.371,90.99 -177.078,-74.214 -351.81,-75.818 -524.981,-78.999 -133.211,0 -226.443,-28.726 -287.572,-94.972 -44.663,-47.881 -72.08,-16.75 -68.159,69.428 18.793,426.14 166.11,802.008 527.339,1165.899 -181.013,11.964 -362.01,27.122 -542.227,43.897 -61.91,7.165 -72.877,34.313 -53.287,86.191 110.48,236.985 287.571,448.478 673.078,577.75 -159.064,97.366 -245.251,240.193 -259.358,428.533 1.563,178.758 -43.882,307.229 -147.316,370.281 -45.445,27.938 -61.099,55.059 -14.888,85.376 204.524,137.266 450.557,130.876 704.432,54.269 -112.057,221.854 -155.158,450.082 -121.462,684.7 165.344,36.719 322.831,-3.983 477.974,-65.431 -20.371,49.471 -26.636,141.25 -28.994,248.185 -1.563,91.765 -23.498,184.332 -68.176,277.701 -23.496,27.135 -47.788,69.428 7.061,81.404 266.419,59.055 509.313,15.948 714.602,-74.214 9.404,193.916 20.371,387.833 87.765,576.161 16.465,45.488 58.771,78.197 98.731,15.96 112.824,-177.167 236.628,-327.987 392.555,-432.518 28.21,71.006 65.05,130.864 130.86,165.189 76.79,40.678 121.45,129.274 133.2,267.329 0.78,23.94 0,47.88 30.56,70.23 116.75,-0.801 387.08,-323.213 437.23,-498.764 165.33,87.782 231.14,185.146 361.23,349.521 46.22,58.267 78.34,19.155 99.51,-24.728 39.96,-195.521 32.9,-386.254 24.29,-579.354 212.34,68.612 458.37,86.979 717.74,0.787 53.28,-17.55 25.06,-57.45 -0.79,-81.391 -53.29,-88.583 -92.47,-194.717 -102.66,-286.497 -11.74,-106.134 -19.59,-180.347 -45.43,-227.426 160.63,45.489 321.26,70.231 482.67,16.749 10.96,-237.799 -64.24,-459.653 -198.23,-668.726 260.92,51.076 515.57,31.921 705.98,-125.277 42.3,-35.128 25.07,-60.659 -22.72,-83.81 -109.7,-52.666 -167.69,-175.562 -183.36,-353.504 -32.91,-185.95 -132.42,-320.007 -300.11,-400.611 370.63,-168.385 526.56,-396.626 613.54,-643.208 14.89,-53.455 0.78,-78.999 -61.13,-79.801 -181.78,0.802 -376.1,0 -557.11,6.389 323.61,-398.217 437.23,-789.231 414.5,-1215.372 -4.7,-86.189 -35.25,-114.915 -75.21,-62.249 -54.07,72.622 -134.77,116.52 -266.42,130.075 -173.15,20.758 -339.28,35.916 -508.53,127.694 -10.18,-29.54 -19.59,-59.055 -29.76,-88.583 31.32,-107.725 72.86,-212.269 104.2,-319.218 61.9,-45.475 75.22,-102.124 61.12,-165.978 191.98,-356.712 367.49,-712.625 560.24,-1068.548 39.18,-64.629 -41.51,-126.88 -137.12,-52.665 -45.44,35.917 -83.84,55.873 -128.51,90.975 -88.53,67.837 -195.88,117.31 -336.14,132.481 -195.1,52.665 -319.69,150.018 -319.69,333.561 -235.85,-127.681 -444.28,-35.904 -625.29,276.912 -17.23,-189.933 -50.13,-363.103 -253.08,-331.972 52.51,-136.463 2.35,-233.014 -152.8,-273.716 -155.92,-191.523 -376.88,-355.924 -532.02,-548.249 -25.87,-26.333 -42.32,-35.903 -56.43,-32.708 z"
   id="path1479"
   style="fill:#ffff00;stroke-width:0.790755" /><path
   class="fil4"
   d="m 100104.91,30828.768 c -13.33,-53.469 -43.89,-100.562 -84.64,-135.662 -41.513,-35.115 -94.019,-58.255 -150.445,-62.238 -25.84,-2.393 -32.12,-44.698 -7.827,-54.271 46.226,-18.365 86.187,-58.253 118.321,-111.735 32.901,-56.648 55.631,-128.483 64.241,-207.47 3.14,-27.133 48.58,-30.328 54.07,-3.193 15.68,66.234 46.22,119.702 83.84,161.995 46.23,50.274 102.64,83.797 156.71,102.15 24.29,8.769 21.94,48.67 -3.13,54.257 -45.46,9.571 -80.7,38.31 -107.35,75.017 -36.04,51.073 -57.98,118.899 -69.74,180.347 -4.7,26.334 -47.79,27.135 -54.05,1.604 z m 21.15,-94.961 c 14.09,-42.293 32.9,-83.797 57.97,-119.702 20.37,-27.935 44.67,-52.665 73.66,-70.229 -41.52,-22.35 -81.48,-51.865 -115.96,-90.174 -23.5,-25.532 -44.67,-55.861 -61.9,-89.386 -12.54,47.881 -30.57,90.976 -52.5,128.484 -22.73,39.098 -49.369,71.821 -79.926,96.564 39.961,12.765 76.786,33.511 108.136,59.844 28.2,23.151 51.71,51.877 70.52,83.799 z"
   id="path1499"
   style="stroke-width:0.790755" /><path
   class="fil6"
   d="m 106946.15,29723.514 c 14.1,-0.803 34.48,10.386 52.49,39.111 136.36,206.682 262.51,387.832 398.84,595.316 149.66,56.649 182.57,153.225 116.74,284.089 205.31,-10.373 220.2,165.19 219.42,355.911 210.77,-292.07 427.03,-363.09 648.78,-212.269 18.01,-182.742 159.85,-262.543 358.87,-295.264 141.04,-0.789 253.08,-39.1 347.11,-98.154 47.8,-31.12 88.55,-47.093 136.34,-78.211 101.87,-64.644 176.31,5.6 130.86,66.247 -226.46,335.165 -452.1,670.317 -678.56,1005.482 7.83,64.643 -10.98,119.702 -76.78,158.8 -41.54,103.754 -83.07,207.495 -124.59,311.224 6.25,30.33 13.31,60.661 20.36,90.99 177.09,-74.214 351.82,-75.818 524.99,-78.999 133.21,0 226.44,-28.726 287.57,-94.972 44.65,-47.881 72.08,-16.75 68.16,69.428 -18.81,426.14 -166.12,802.008 -527.34,1165.899 181.02,11.964 362.01,27.122 542.23,43.897 61.91,7.165 72.88,34.313 52.51,86.191 -110.5,236.985 -287.57,448.478 -673.1,577.75 159.07,97.366 245.27,240.193 259.38,428.533 -1.57,178.758 43.86,307.229 147.3,370.281 45.44,27.938 61.11,55.059 14.89,85.376 -204.51,137.266 -449.76,130.876 -704.42,54.269 112.06,221.854 155.14,450.082 121.46,684.7 -165.34,36.719 -322.83,-3.983 -478.77,-65.431 20.39,49.471 27.43,141.25 29,248.185 1.57,91.765 23.51,184.332 68.17,277.701 23.5,27.135 47.79,69.428 -7.06,81.404 -266.41,59.055 -509.31,15.948 -714.6,-74.214 -9.41,193.916 -20.37,387.833 -87.75,576.161 -16.47,45.488 -58.79,78.197 -98.73,15.96 -112.84,-177.167 -236.65,-327.987 -392.57,-432.518 -28.2,71.006 -65.04,130.864 -130.86,165.189 -76.79,40.678 -121.46,129.274 -133.21,267.329 -0.78,23.94 0,47.88 -30.55,70.23 -116.76,-0.801 -387.09,-323.213 -437.22,-498.764 -165.34,87.782 -231.16,185.146 -361.23,349.521 -46.22,58.267 -78.36,19.155 -99.51,-24.728 -39.96,-195.521 -32.92,-386.254 -24.29,-579.354 -212.34,68.612 -458.39,86.979 -717.74,0.787 -53.28,-17.55 -25.08,-57.45 0.78,-81.391 53.28,-88.583 92.46,-194.717 102.65,-286.497 11.75,-106.134 19.59,-180.347 45.44,-227.426 -160.62,45.489 -321.26,70.231 -482.66,16.749 -10.98,-237.799 64.24,-459.653 197.45,-668.726 -260.92,51.076 -515.58,31.921 -705.99,-125.277 -42.31,-35.128 -25.08,-60.659 22.73,-83.81 109.7,-52.666 167.68,-175.562 183.35,-353.504 32.9,-185.95 132.43,-320.007 300.1,-400.611 -370.61,-168.385 -526.55,-396.626 -613.52,-643.208 -14.89,-53.455 -0.78,-78.999 61.11,-79.801 181.8,0.802 376.12,0 557.1,6.389 -323.6,-398.217 -437.2,-789.231 -414.5,-1215.372 4.7,-86.189 35.27,-114.915 75.24,-62.249 54.06,72.622 134.77,116.52 266.4,130.075 173.17,20.758 339.3,35.916 508.53,127.694 9.4,-29.54 19.59,-59.055 29.78,-88.583 -31.34,-107.725 -72.87,-212.269 -104.22,-319.218 -61.89,-45.475 -75.22,-102.124 -61.11,-165.978 -191.97,-356.712 -367.5,-712.625 -560.26,-1068.548 -39.16,-64.629 41.54,-126.88 137.13,-52.665 45.45,35.917 83.85,55.873 128.51,90.975 88.55,67.837 195.89,117.31 336.14,132.481 195.12,52.665 319.71,150.018 319.71,333.561 235.84,-127.681 444.27,-35.904 625.26,276.912 17.24,-189.933 50.16,-363.103 253.11,-331.972 -52.51,-136.463 -2.36,-233.014 152.78,-273.716 155.92,-191.523 376.9,-355.924 532.04,-548.249 25.86,-26.333 42.31,-35.903 56.41,-32.708 z"
   id="path1507"
   style="fill:#ffff00;stroke-width:0.790755" /><path
   class="fil6"
   d="m 112579.16,33271.486 c 289.92,-71.821 575.91,-86.979 853.3,86.191 121.46,51.075 213.13,116.506 269.54,200.304 128.51,-101.348 259.36,-196.322 394.91,-277.713 190.4,-143.642 384.73,-270.522 593.94,-341.554 299.32,-154.817 597.85,-246.582 897.17,-274.519 316.56,-55.06 634.68,-58.254 951.25,-39.099 264.06,15.96 519.5,90.174 763.19,233.015 220.96,111.722 441.13,224.245 662.09,335.966 233.51,132.468 467.01,252.17 700.51,352.717 296.18,118.912 629.2,158.813 984.15,172.38 173.95,6.39 344.76,6.39 512.45,-39.098 135.55,-36.705 220.18,51.062 70.52,144.431 -1096.98,685.502 -1956.54,75.818 -2689.97,-197.111 268.78,185.148 505.41,376.658 705.21,572.176 278.95,273.731 590.8,551.443 1142.43,807.597 334.58,154.804 698.93,276.899 1166.72,280.895 158.29,1.604 329.1,-4.785 514.02,-35.904 93.24,-15.158 133.21,-6.389 134.77,43.096 1.58,33.511 -7.05,100.547 -62.69,138.054 -282.86,193.114 -549.28,244.189 -846.24,263.344 -565.74,36.706 -1170.64,-152.424 -1723.83,-454.866 -442.72,-242.599 -741.26,-537.864 -1093.85,-802.812 -351.82,-264.132 -655.83,-410.982 -982.58,-481.2 -322.05,-70.216 -670.72,-62.237 -964.56,30.33 87.75,17.551 162.21,59.858 207.64,113.313 151.23,90.975 345.56,130.876 626.85,163.586 146.53,17.564 101.07,120.517 -124.59,244.214 -135.55,177.943 -311.85,273.704 -546.15,250.567 -322.81,217.855 -437.99,86.176 -546.13,-56.652 -13.32,90.162 -39.18,178.745 -77.56,264.134 14.09,46.276 15.67,97.365 -4.71,143.642 51.71,81.392 76.79,160.406 59.56,247.385 8.6,46.29 23.49,90.962 72.08,132.466 67.39,62.251 110.48,134.072 119.1,221.84 0.78,58.268 32.12,106.148 77.58,149.243 65.8,55.059 132.41,103.742 198.23,185.922 195.1,71.821 285.21,224.245 317.34,421.369 147.31,48.67 208.42,157.196 237.41,286.483 83.85,35.904 160.63,78.999 204.51,154.816 300.9,0.79 594.74,0.79 869.76,30.33 257.78,27.91 467.78,191.523 655.84,403.778 126.93,19.958 255.43,26.333 387.07,-3.982 135.56,-60.661 278.94,-106.937 434.88,-120.505 257.78,-22.337 516.38,-35.917 762.41,23.941 166.89,40.715 296.96,130.877 403.53,253.785 153.57,177.944 390.21,154.003 592.36,66.222 274.25,-118.913 502.27,-114.917 782.78,10.386 119.88,-47.093 239.78,-69.429 359.65,-56.664 102.65,-113.312 211.57,-141.25 323.61,-144.457 182.58,-6.376 314.99,22.363 280.51,260.964 -9.39,64.643 -47,126.893 -94.81,149.229 -83.83,184.333 -243.67,238.602 -446.62,221.038 -21.95,126.893 -72.87,221.064 -154.36,281.71 93.25,292.859 3.91,410.169 -209.21,406.185 -44.66,84.587 -111.26,137.253 -224.88,120.503 -83.06,102.94 -181,155.607 -288.35,173.158 12.53,76.632 44.66,112.536 97.95,194.73 144.95,223.431 -72.88,313.618 -271.91,316.799 50.93,147.639 57.2,295.278 39.18,442.903 202.95,125.29 230.37,256.969 43.11,387.043 137.11,244.189 83.84,423.735 -173.18,554.611 -3.92,136.465 -17.24,273.717 -106.55,350.325 -61.12,52.679 -148.88,62.249 -90.89,161.205 104.2,175.563 81.48,397.416 -72.88,403.805 -32.9,-3.208 -62.69,1.591 -65.04,55.045 0,18.367 -15.66,36.721 -46.24,55.085 -184.92,101.337 -358.07,217.042 -517.14,350.324 -23.51,15.96 -47.02,27.122 -70.51,5.575 -115.98,256.968 -332.24,517.918 -571.23,780.474 -36.82,193.1 -144.17,323.977 -322.03,391.814 -12.54,59.845 -50.15,94.961 -105.79,110.119 99.53,112.523 137.13,221.063 40.76,327.987 -118.33,131.665 -274.25,260.149 -430.19,300.852 -331.44,86.189 -539.09,70.216 -672.28,-59.056 -117.54,-114.102 -71.32,-200.293 3.12,-236.208 -204.51,16.761 -246.03,-93.357 -240.55,-240.207 11.75,-73.411 36.04,-63.828 108.14,-61.435 111.26,3.182 211.55,-58.267 316.55,-93.369 40.74,-70.229 94.03,-130.877 159.85,-181.965 36.83,-236.196 183.35,-367.071 382.38,-444.48 160.62,-62.238 314.21,-220.251 463.07,-424.551 91.68,-161.193 184.15,-321.598 275.82,-482.803 -64.25,-85.376 -81.48,-170.765 -83.84,-256.141 -84.61,-47.881 -143.4,-106.936 -184.14,-173.972 -144.18,-10.386 -203.71,-76.606 -224.88,-168.396 -32.9,0.814 -68.96,-2.394 -108.12,-14.357 -70.53,46.29 -141.83,86.992 -230.38,82.995 -116.74,122.095 -237.41,221.854 -360.43,306.44 -43.1,121.292 -128.5,169.975 -232.72,185.146 -296.18,35.891 -473.26,411.772 -636.25,564.986 -65.83,49.471 -106.56,137.252 -135.55,242.598 -14.11,197.912 -47.8,352.716 -154.36,355.911 -95.59,-3.984 -110.48,-14.357 -113.62,-24.743 -41.53,-3.982 -83.06,-3.982 -124.59,5.588 79.93,89.384 92.47,201.895 18.81,300.865 -73.66,97.338 -179.43,127.668 -281.29,134.859 -210.79,14.358 -381.6,-4.798 -539.88,-70.243 -151.23,-63.039 -169.24,-154.803 -164.54,-244.189 -108.93,-52.666 -130.86,-105.332 -119.11,-157.197 14.88,-67.035 75.23,-101.362 151.22,-79.814 65.83,-31.908 131.64,-53.454 197.46,-66.221 191.2,-209.876 387.87,-390.224 604.14,-474.021 63.46,-78.211 136.33,-148.428 224.86,-206.695 25.09,-188.315 146.54,-336.768 295.42,-474.81 13.31,-67.838 35.26,-136.464 72.86,-204.303 -8.61,-40.7 2.34,-59.844 3.14,-98.153 -60.33,-114.102 -96.39,-251.367 -51.71,-365.481 -18.03,-55.059 -23.51,-126.88 -16.47,-181.94 -355.73,215.464 -465.43,142.039 -506.17,-32.722 -130.08,110.908 -251.53,162.784 -338.5,3.181 -126.15,38.311 -253.09,81.393 -379.24,30.33 -82.28,32.723 -165.33,62.237 -260.15,68.626 -38.39,77.409 -90.1,154.818 -159.84,232.227 -3.92,162.796 -59.55,325.593 -162.2,488.39 -59.55,173.947 -133.19,347.129 -230.36,521.1 1.56,55.861 -6.27,111.709 -35.26,168.373 27.42,200.305 -38.4,297.657 -146.52,347.142 -29,80.601 -72.1,161.995 -137.91,242.584 -3.13,26.334 -5.49,53.481 -8.63,79.814 43.1,118.099 50.15,235.408 -67.38,353.506 -94.81,60.659 -195.9,124.487 -296.19,174.786 -118.31,59.044 -228.01,31.119 -327.52,-5.599 -174.73,-63.829 -161.41,-126.08 -138.69,-186.738 -54.85,22.336 -117.54,24.755 -172.38,-2.393 -42.32,-27.122 -68.97,-55.059 -111.27,-82.984 -37.6,-69.441 -50.93,-132.479 40.74,-181.965 115.18,-51.851 193.54,-90.16 284.43,-185.133 31.36,-71.821 71.32,-126.091 127.73,-140.446 54.85,-130.865 122.23,-219.449 213.91,-243.389 67.38,-161.995 139.48,-340.765 224.88,-495.581 29.78,-47.067 51.71,-95.761 37.61,-149.217 -1.57,-43.885 1.57,-85.376 37.61,-110.132 20.37,-17.55 56.41,-33.51 10.97,-58.253 -41.52,-144.444 -15.67,-282.486 54.07,-388.633 92.46,-142.037 195.88,-485.183 97.95,-653.568 -18.03,-94.171 -36.06,-201.895 -24.29,-290.479 -33.7,-1.603 -58.77,3.195 -92.47,-20.745 -75.22,-47.079 -137.91,-2.405 -195.11,82.995 -41.52,106.937 -83.06,201.094 -124.58,201.094 -39.18,276.109 -172.38,490.785 -311.07,545.843 -32.13,126.88 -52.5,253.759 -35.26,380.653 14.09,138.055 0,232.212 -62.69,248.186 -68.96,17.55 -133.21,58.24 -173.16,170.764 -10.98,31.118 -23.51,68.64 -24.29,113.326 95.58,100.559 66.6,225.836 -25.09,318.415 -206.85,207.47 -463.86,177.153 -735.75,95.761 -196.67,-79.011 -244.47,-162.797 -224.88,-248.186 -278.95,-23.94 -223.32,-241.795 7.84,-307.252 248.38,-71.006 449.76,-233.016 615.08,-464.439 14.88,-274.506 76.79,-461.242 221.75,-490.771 14.11,-168.385 65.82,-319.994 135.55,-463.636 72.88,-130.088 117.54,-272.94 91.69,-446.9 -154.36,-98.153 -160.64,-199.503 -18.81,-303.244 47.01,-27.937 41.52,-56.663 -16.45,-85.39 -94.03,-9.583 -82.28,-101.348 -76.02,-187.525 -3.9,-44.7 -26.63,-67.838 -68.16,-68.64 -208.43,-31.119 -156.7,-118.098 -67.39,-212.256 37.62,-43.094 62.69,-106.949 23.51,-132.48 -32.13,-20.745 -54.07,-93.369 -61.11,-157.222 -127.73,-98.155 -72.88,-198.701 0,-295.253 -72.1,-62.248 -105.78,-153.225 -115.98,-259.346 -237.41,-10.386 -325.96,-133.282 -197.45,-312.04 54.07,-75.805 123.81,-148.427 208.43,-217.856 54.85,-90.16 107.34,-180.347 81.49,-270.522 -68.18,-176.352 149.66,-309.621 336.14,-446.874 -25.86,-46.302 -39.18,-91.791 -40.74,-138.068 -105,-102.94 -78.35,-198.701 37.61,-289.678 -25.87,-47.091 -38.4,-94.169 -43.1,-140.446 -260.92,52.665 -259.36,-106.135 -137.91,-361.512 -151.22,-88.57 -108.9,-245.779 165.33,-485.182 3.92,-55.073 14.11,-97.366 29.79,-126.894 -130.07,3.194 -237.42,42.306 -330.67,102.151 -104.22,69.429 -207.64,60.646 -311.85,16.763 -32.12,-52.668 -81.5,-97.366 -137.9,-138.07 -71.31,-63.84 -87.78,-135.661 -72.88,-212.267 -307.16,17.564 -365.91,-213.859 -181.79,-350.324 102.65,-82.996 177.87,-169.975 206.09,-264.949 83.04,-214.648 259.34,-360.682 430.95,-510.713 0,-61.462 13.32,-122.91 32.13,-185.147 -76.01,-51.864 -155.94,-89.371 -243.7,-96.564 -31.34,-79.788 -90.11,-165.978 -189.61,-214.661 -57.21,-35.115 -76.01,-67.838 -40.75,-146.837 -162.98,-148.427 -122.23,-238.601 -80.71,-323.99 z"
   id="path1537"
   style="fill:#ffff00;stroke-width:0.790723" /><path
   class="fil0"
   d="m 119598.28,33799.778 c 196.68,8.783 386.29,0.789 547.71,-26.333 -172.39,126.88 -392.57,212.268 -629.99,252.156 46.24,-36.692 76.02,-75.003 89.33,-114.101 12.54,-37.508 10.18,-75.016 -7.05,-111.722 z"
   id="path1539"
   style="stroke-width:0.790723" /><path
   class="fil0"
   d="m 119128.93,33750.293 c 127.71,21.547 260.14,36.72 390.99,45.488 1.56,3.195 3.92,5.587 5.48,8.782 21.16,29.515 27.44,58.254 18.03,86.177 -10.98,31.921 -40.74,65.433 -89.33,99.759 -13.32,9.584 -26.63,19.155 -7.84,45.488 -86.97,11.162 -175.51,15.947 -265.62,14.37 -45.44,-0.816 -90.11,-3.208 -135.55,-7.192 4.7,-2.393 9.4,-7.178 13.32,-11.175 47.79,-51.062 78.35,-103.728 86.97,-158.801 6.27,-40.688 1.56,-81.391 -16.45,-122.093 z"
   id="path1541"
   style="stroke-width:0.790723" /><path
   class="fil0"
   d="m 115660.9,32735.228 c 220.96,-29.529 445.84,-36.707 674.64,-31.132 75.22,31.132 130.85,76.606 165.33,136.463 37.62,67.036 50.93,154.817 35.26,264.134 -2.34,15.972 -4.7,32.723 27.42,36.718 32.13,4.785 34.48,-11.963 36.05,-27.936 17.23,-124.489 1.56,-225.824 -43.1,-305.638 -21.93,-38.309 -50.15,-71.019 -84.62,-98.956 20.37,0.801 40.75,1.604 61.13,3.195 263.26,14.381 467.77,90.989 696.57,206.694 1.58,1.603 3.92,3.997 5.48,6.39 48.59,51.863 65.04,105.319 57.2,160.377 -8.61,58.267 -43.09,121.307 -97.94,185.949 -10.19,12.78 -21.15,24.743 3.92,46.29 24.29,21.547 35.26,8.769 45.45,-3.997 61.89,-74.213 102.65,-147.625 112.83,-219.446 5.49,-40.704 2.35,-79.012 -11.76,-117.31 192.75,97.352 388.65,190.721 579.05,292.872 3.92,2.393 7.84,3.984 11.76,6.376 0,3.997 1.57,8.782 3.13,12.78 15.68,55.058 9.4,102.136 -17.23,142.839 -29,42.293 -81.5,78.999 -157.5,107.725 -14.89,5.602 -29.78,11.175 -18.81,42.307 10.98,30.317 26.65,24.729 41.53,19.141 89.33,-34.3 152.01,-78.21 188.05,-132.467 30.56,-45.475 42.32,-95.761 35.26,-152.424 126.16,69.428 252.31,141.249 381.6,204.289 0,0 0,0.815 0.78,0.815 22.71,46.276 26.64,87.768 8.62,126.077 -18.81,40.691 -62.69,79 -132.43,114.114 -14.1,7.179 -28.97,14.371 -14.88,43.886 14.1,29.541 28.99,22.349 43.1,15.171 83.84,-42.293 137.11,-90.977 162.2,-145.247 17.23,-37.507 21.94,-75.804 14.09,-116.507 44.68,19.957 90.11,39.112 136.35,56.663 124.59,47.091 275.03,87.782 436.44,118.099 0.78,1.603 2.36,3.207 3.92,4.785 29.77,42.306 39.96,83.008 32.91,122.108 -7.06,40.689 -31.35,82.194 -70.53,123.684 -10.97,11.977 -21.93,23.153 0.78,46.29 3.92,3.984 7.06,6.391 10.2,8.783 -489.73,-51.076 -925.39,-289.678 -1381.41,-469.237 -54.07,-21.548 -108.92,-42.293 -162.99,-63.841 -168.47,-64.643 -338.5,-152.41 -507.75,-222.654 -5.48,-5.575 -14.09,-8.77 -21.93,-11.162 -11.75,-3.997 -22.73,-7.98 -34.48,-11.175 -7.04,-3.181 -14.89,-5.575 -21.95,-8.783 0.8,0.79 2.36,1.605 3.14,2.394 -154.36,-50.274 -310.28,-89.373 -468.57,-111.709 -175.51,-24.742 -354.17,-29.54 -537.52,-5.599 -10.19,-1.58 -19.59,-3.183 -29.78,-4.787 15.67,-98.154 3.14,-184.344 -44.65,-259.347 -33.69,-53.482 -84.64,-100.547 -155.14,-139.66 z"
   id="path1543"
   style="stroke-width:0.790723" /><path
   class="fil0"
   d="m 114859.32,32954.673 c 224.88,-99.744 452.9,-163.598 685.62,-202.696 106.56,43.094 177.08,95.761 217.04,158.01 38.4,61.448 47.8,133.27 34.47,216.266 -98.73,-9.57 -196.68,-8.782 -292.27,1.59 -107.34,11.965 -212.35,36.721 -315.77,74.215 -51.72,-110.921 -121.45,-177.956 -202.93,-214.675 -39.98,-18.34 -82.28,-28.725 -126.16,-33.497 z"
   id="path1545"
   style="stroke-width:0.790723" /><path
   class="fil0"
   d="m 117325.17,34225.117 c -60.33,-39.112 -121.45,-77.421 -184.92,-112.524 -304.8,-170.777 -654.27,-276.109 -1004.51,-289.676 3.12,-2.393 5.48,-5.588 8.6,-7.981 124.59,-129.285 152.02,-251.381 109.72,-365.481 -32.92,-88.583 -108.94,-170.79 -213.92,-245.005 117.53,-6.376 226.45,0.789 348.69,18.366 172.37,24.729 395.69,83.785 599.4,167.583 50.17,111.722 64.27,209.876 42.32,292.858 -22.73,86.993 -86.96,159.603 -190.4,219.461 -14.09,7.979 -28.2,15.96 -12.54,44.686 15.67,28.739 29.77,20.745 43.88,11.977 119.88,-68.641 193.54,-154.818 220.97,-260.164 21.14,-81.392 14.89,-172.367 -20.37,-273.702 137.9,63.038 262.49,138.04 349.45,220.248 113.62,79.801 225.68,160.403 335.38,244.977 0.78,142.052 -39.96,222.656 -107.36,264.949 -71.29,43.883 -173.15,49.471 -289.13,37.495 -15.67,-1.578 -32.12,-3.182 -35.26,29.541 0,0.787 0,0.787 0,1.602 z"
   id="path1549"
   style="stroke-width:0.790723" /><path
   class="fil0"
   d="m 117995.89,34739.04 c -203.71,-161.995 -402.74,-331.182 -616.65,-477.217 118.32,9.57 224.1,0 304.02,-48.67 77.58,-48.695 128.51,-133.283 137.12,-271.337 127.72,100.546 250.75,206.695 367.49,320.797 58.77,56.661 117.54,112.522 177.87,167.582 0,0.815 0.79,1.604 0.79,3.208 14.1,51.061 18.79,94.946 14.88,131.665 -3.92,35.918 -16.45,65.431 -36.82,88.583 -21.17,23.941 -51.72,41.492 -90.12,51.876 -57.19,16.738 -131.63,19.945 -223.3,9.573 -14.89,-1.605 -30.58,-3.195 -34.48,24.728 z"
   id="path1551"
   style="stroke-width:0.790723" /><path
   class="fil0"
   d="m 118698.75,35210.668 c -70.51,-36.718 -137.9,-75.029 -202.94,-114.127 -155.92,-94.157 -302.46,-201.884 -445.84,-314.405 87.75,7.177 161.41,2.392 220.96,-14.371 50.93,-14.357 91.67,-38.297 120.67,-71.018 29.77,-33.526 47.79,-75.017 53.29,-126.092 2.34,-22.337 2.34,-46.278 -0.8,-71.821 140.27,122.094 287.57,235.421 446.64,334.363 83.04,51.877 166.9,100.561 249.95,146.034 -0.78,5.588 0,11.189 0.78,17.565 10.19,65.445 -25.85,106.937 -91.67,133.27 -76.8,31.118 -191.2,43.884 -322.05,51.877 -14.89,0.788 -28.99,1.577 -30.56,27.122 z"
   id="path1553"
   style="stroke-width:0.790723" /><path
   class="fil0"
   d="m 119449.4,35510.719 c -238.19,-66.248 -468.57,-158.802 -679.34,-263.344 120.67,-8.782 227.22,-23.152 304.02,-54.271 86.97,-35.102 137.13,-89.371 133.99,-176.352 139.48,71.821 278.95,134.059 420.77,185.135 25.07,56.662 26.65,102.939 3.14,142.037 -28.22,47.881 -90.13,87.782 -166.91,122.095 -14.89,6.39 -29.77,13.568 -16.45,43.096 0,0 0,0 0,0.802 z"
   id="path1555"
   style="stroke-width:0.790723" /><path
   class="fil0"
   d="m 121013.39,35348.709 c 20.38,-3.18 145.74,-36.705 80.69,11.978 -460.71,307.242 -1045.26,306.452 -1596.09,161.995 85.4,-39.098 155.14,-86.177 190.4,-145.246 26.64,-43.884 31.34,-94.157 18.81,-149.216 175.51,58.254 353.39,99.757 536.73,123.697 0.78,28.728 -7.05,57.453 -28.98,85.377 -29,36.718 -78.36,72.623 -159.07,108.539 -14.88,6.377 -29.77,12.767 -16.46,43.096 12.54,30.33 27.43,23.124 42.3,16.749 90.91,-40.69 149.66,-83.785 184.16,-127.682 30.55,-39.098 43.08,-78.198 43.08,-118.9 226.45,24.729 460.74,21.549 705.22,-11.174 z"
   id="path1557"
   style="stroke-width:0.790723" /><path
   class="fil6"
   d="m 114255.97,33958.578 c -28.99,-0.802 -51.71,7.981 -68.95,21.535 -22.73,17.576 -36.82,42.306 -43.1,63.854 -2.35,8.782 -4.7,16.763 -21.14,11.963 -16.47,-4.785 -14.11,-13.568 -11.76,-21.547 8.62,-27.924 26.65,-59.055 55.63,-81.393 22.73,-17.55 53.28,-29.527 90.11,-28.725 8.62,0 17.24,0.79 17.24,17.551 0,17.565 -8.62,17.565 -17.24,17.565 z"
   id="path1751"
   style="stroke-width:0.790723" /><line
   class="fil8"
   x1="113749.03"
   y1="42856.449"
   x2="113975.48"
   y2="42908.305"
   id="line1791"
   style="stroke-width:0.790723" /><path
   class="fil0"
   d="m 114665.77,33973.749 c 36.06,-1.603 72.08,-3.208 107.36,0.79 66.6,7.979 130.07,37.508 196.67,45.487 222.53,-85.388 406.67,-132.466 565.73,-125.288 0,0 0,0 0,0 185.69,-55.059 378.45,-78.212 571.21,-73.413 -2.34,-1.604 -4.7,-3.996 -7.05,-6.389 -22.72,-23.138 -11.76,-35.115 0,-46.29 104.22,-107.725 128.51,-206.681 94.82,-296.065 -34.48,-92.554 -128.51,-179.548 -259.36,-259.349 -139.48,15.948 -273.47,-22.336 -421.56,-5.575 -92.47,10.36 -183.36,31.12 -272.67,61.436 74.42,27.136 139.47,71.821 192.74,135.662 65.82,78.999 112.84,186.738 137.9,322.4 3.14,15.96 5.5,31.92 -25.84,38.31 -31.35,6.375 -34.48,-10.387 -37.62,-26.333 -22.73,-123.699 -65.03,-221.064 -123.8,-292.071 -61.9,-90.187 -203.73,-125.302 -248.39,-143.642 -148.1,15.159 -293.83,31.908 -420.77,65.433 -95.59,24.729 -179.44,59.056 -243.69,110.117 95.59,-20.745 195.1,-16.749 281.29,27.135 82.28,41.506 152.02,119.702 195.9,246.582 5.49,15.172 10.19,31.119 -20.37,41.504 -30.56,10.373 -36.05,-4.785 -40.76,-20.745 -36.82,-109.341 -94.79,-174.774 -162.97,-209.087 -135.55,-68.627 -415.29,-8.783 -533.6,80.603 -68.96,52.666 -137.91,120.504 -206.07,199.503 -7.05,8.769 -14.89,16.762 -24.29,17.551 253.87,17.552 509.31,31.131 706.77,111.734 z m -753,-146.047 c -5.48,-14.356 3.92,-24.743 12.55,-35.116 71.3,-82.181 143.38,-154.816 217.82,-210.664 72.09,-54.27 146.52,-93.369 223.31,-111.734 78.36,-88.571 194.33,-142.039 329.1,-177.155 130.86,-34.313 280.52,-51.863 431.75,-67.035 -44.67,-91.765 -101.87,-146.824 -167.69,-176.351 -70.52,-31.933 -152,-36.72 -238.99,-27.938 -182.56,63.828 -344.76,163.587 -500.69,276.11 14.11,0 28.22,0 41.53,0.802 46.22,3.194 87.76,-3.984 126.16,11.175 15.67,5.587 30.56,11.175 19.59,42.293 -13.32,37.508 -114.41,14.369 -149.66,11.963 -39.97,-2.393 -83.86,0.802 -132.43,12.767 -7.84,1.603 -14.88,3.996 -21.93,1.603 -163.77,102.939 -287.57,207.483 -420,321.597 100.29,35.906 178.65,78.212 229.58,127.683 z"
   id="path1801"
   style="stroke-width:0.790723" />
 </g>
</svg>
